<?xml version="1.0" standalone="no"?>
<!DOCTYPE svg PUBLIC "-//W3C//DTD SVG 1.1//EN" "http://www.w3.org/Graphics/SVG/1.1/DTD/svg11.dtd" >
<svg xmlns="http://www.w3.org/2000/svg">
<metadata></metadata>
<defs>
<font id="globersemibold_italic" horiz-adv-x="1134" >
<font-face units-per-em="2048" ascent="1536" descent="-512" />
<missing-glyph horiz-adv-x="468" />
<glyph unicode="&#xfb01;" horiz-adv-x="1189" d="M82 14l194 910h-131v20q0 10 1 24.5t6 32.5q6 35 16 56l10 20h131l27 123q33 158 142.5 247t314.5 89q94 0 168.5 -10t128.5 -23q61 -14 110 -33q-23 -88 -84 -143q-41 12 -94 23q-45 8 -108.5 15t-141.5 7q-106 0 -160.5 -38t-70.5 -124l-29 -133h512q47 0 72.5 -6 t29.5 -6l-223 -1051q-10 -4 -26 -8q-29 -6 -78 -6q-53 0 -78 6q-14 4 -23 8l195 910h-414l-194 -910q-12 -4 -27 -8q-29 -6 -76 -6q-53 0 -78 6q-14 4 -22 8z" />
<glyph unicode="&#xfb02;" horiz-adv-x="1193" d="M84 14l195 910h-132q0 16 1.5 35.5t5.5 41.5q4 23 11 41.5t15 34.5h131l27 123q33 156 142.5 246t307.5 90q88 0 165 -11.5t137 -23.5q68 -16 124 -35l-309 -1452q-10 -4 -26 -8q-29 -6 -78 -6q-53 0 -78 6q-14 4 -23 8l285 1338q-41 8 -95 14t-120 6q-104 0 -157.5 -40 t-69.5 -122l-29 -133h199q0 -16 -1 -34.5t-5 -41.5t-11.5 -42t-15.5 -35h-199l-194 -910q-12 -4 -27 -8q-29 -6 -76 -6q-53 0 -78 6q-14 4 -22 8z" />
<glyph horiz-adv-x="2048" />
<glyph horiz-adv-x="2048" />
<glyph unicode="&#xd;" horiz-adv-x="659" />
<glyph unicode=" "  horiz-adv-x="468" />
<glyph unicode="&#x09;" horiz-adv-x="468" />
<glyph unicode="&#xa0;" horiz-adv-x="468" />
<glyph unicode="!" horiz-adv-x="559" d="M43 14l41 193q10 2 27 6q14 4 33.5 6t48.5 2q27 0 45 -2t30 -6l25 -6l-41 -193q-10 -4 -27 -8q-29 -6 -80 -6q-55 0 -79 6q-14 4 -23 8zM154 393l192 1067q10 2 27 6q14 4 35.5 6.5t50.5 2.5t48 -2.5t34 -6.5q16 -4 26 -6l-262 -1067q-8 -4 -20 -8q-10 -4 -25.5 -6 t-32.5 -2q-18 0 -31.5 2t-23.5 6t-18 8z" />
<glyph unicode="&#x22;" horiz-adv-x="731" d="M233 1049l54 411l24 6q12 4 31.5 6.5t46.5 2.5q25 0 44.5 -2.5t31.5 -6.5l24 -6l-122 -411q-8 -4 -19 -7q-10 -2 -22.5 -3t-28.5 -1t-27.5 1t-19.5 3t-17 7zM535 1049l53 411l24 6q12 4 32 6.5t48 2.5q25 0 43.5 -2.5t30.5 -6.5l25 -6l-123 -411q-8 -4 -19 -7 q-10 -2 -21.5 -3t-27.5 -1q-29 0 -49 4q-8 2 -16 7z" />
<glyph unicode="#" horiz-adv-x="1355" d="M6 273.5q-2 21.5 6 58.5q10 41 20.5 60.5t10.5 21.5h215l211 428h-164q-4 20 -1 40.5t7 43.5t11.5 43t17.5 37h209l129 256q41 14 88 14q53 0 88 -14l-127 -256h283l127 256q43 14 92 14q51 0 86 -14l-129 -256h160q8 -31 -3 -76q-4 -23 -12 -45.5t-20 -42.5h-205 l-211 -428h156q2 -2 3 -23.5t-7 -58.5q-6 -35 -17.5 -56.5t-13.5 -25.5h-201l-115 -234q-43 -16 -92 -16t-86 16l115 234h-283l-114 -234q-43 -16 -97 -16q-47 0 -80 16l115 234h-170q0 2 -2 23.5zM436 414h283l209 428h-281z" />
<glyph unicode="$" horiz-adv-x="1146" d="M-4 82q2 2 5 22.5t22 57.5q16 35 32.5 53t18.5 21q53 -16 114 -29q53 -10 120 -19.5t138 -9.5q147 0 237.5 44t113.5 155q14 63 -9.5 104t-69.5 67.5t-109.5 44t-129 37t-126 44t-104.5 64.5t-62.5 100.5t-0.5 150.5q35 164 156 260.5t324 114.5l32 238l25 6q12 4 28.5 6 t36.5 2q23 0 38.5 -2t25.5 -6q12 -4 20 -6l-65 -236q72 -4 132 -11t101 -18q49 -10 88 -22q0 -2 -6 -24.5t-24 -57.5q-18 -33 -37 -49.5t-21 -18.5q-37 12 -82 21q-39 8 -92 14t-116 6q-154 0 -243 -46t-112 -150q-12 -57 12.5 -94t71.5 -62t110.5 -43t129 -38.5t127 -48.5 t105.5 -71t62.5 -106.5t-1.5 -157.5q-35 -168 -159 -266t-337 -115l-37 -258q-10 -4 -22 -8q-23 -6 -66 -6t-63 6q-12 4 -23 8l70 254q-90 4 -160 15.5t-119 25.5q-57 16 -100 37z" />
<glyph unicode="%" horiz-adv-x="1556" d="M174 -8l1098 1433q8 2 20 7q10 2 24.5 4t37.5 2q20 0 34.5 -2t24.5 -4l19 -7l-1096 -1433q-8 -4 -21 -6q-23 -6 -63 -6q-39 0 -57 6q-10 2 -21 6zM176 1061q41 190 131 272t225 82q131 0 188.5 -81t16.5 -273q-41 -193 -133 -273.5t-223 -80.5q-135 0 -190.5 80.5 t-14.5 273.5zM311.5 943q-0.5 -46 10 -71.5t33 -35t53.5 -9.5q29 0 54 9.5t46.5 35t40 71.5t35.5 118q14 70 15 116t-9 72.5t-31.5 36.5t-50.5 10q-31 0 -57.5 -10t-48 -36.5t-41 -73t-33.5 -115.5q-16 -72 -16.5 -118zM856 334q41 190 130 272t222 82q131 0 188.5 -81 t18.5 -273q-41 -193 -133 -273.5t-223 -80.5q-133 0 -188.5 80.5t-14.5 273.5zM989.5 216q-0.5 -46 10 -71.5t32 -35t51.5 -9.5q31 0 56.5 9.5t47 35t40 71.5t35.5 118q14 70 15 116t-10.5 72.5t-31.5 36.5t-51 10t-56.5 -10t-48 -36.5t-41 -73t-32.5 -115.5 q-16 -72 -16.5 -118z" />
<glyph unicode="&#x26;" horiz-adv-x="1306" d="M23 332q18 86 65 154.5t105.5 120.5t119 89t103.5 58q-41 172 -6 321q31 152 133 245t276 93q145 0 212 -68.5t42 -185.5q-16 -78 -57 -140.5t-100.5 -114.5t-132 -96t-150.5 -87q35 -90 92 -177t135 -165q47 51 84 107.5t68 109.5q49 6 88 -11.5t55 -49.5 q-31 -53 -79 -116t-115 -130q98 -74 208 -127q-8 -47 -43.5 -94.5t-81.5 -69.5q-68 29 -129 67.5t-116 81.5q-25 -20 -68 -48.5t-100.5 -55.5t-130 -45t-154.5 -18q-76 0 -142.5 20t-113.5 63t-66.5 110t-0.5 159zM223 358q-20 -96 30 -154.5t161 -58.5q98 0 173 34t115 59 q-86 90 -148 189t-101 204q-29 -16 -64 -42t-68.5 -60.5t-60.5 -76.5t-37 -94zM590 1087q-25 -117 6 -243q111 59 188.5 126.5t100.5 174.5q12 59 -14.5 95t-92.5 36q-68 0 -118 -46t-70 -143z" />
<glyph unicode="'" horiz-adv-x="428" d="M233 1049l54 411l24 6q12 4 30.5 6.5t47.5 2.5q25 0 43.5 -2.5t30.5 -6.5l24 -6l-122 -411q-8 -4 -19 -7q-10 -2 -21.5 -3t-27.5 -1t-27.5 1t-19.5 3t-17 7z" />
<glyph unicode="(" horiz-adv-x="604" d="M69 258q-6 182 42 397q45 213 126.5 396.5t163.5 318.5q96 158 201 291q10 0 25 -2q10 -2 25.5 -6.5t31.5 -14.5q33 -23 43 -39q8 -10 10 -20q-86 -111 -168 -252q-70 -123 -141.5 -292t-116.5 -380t-45 -381t17 -290q20 -143 61 -252q-8 -10 -18 -21q-23 -23 -58 -39 q-37 -16 -65 -20q-14 -2 -27 -2q-51 133 -78 291q-23 135 -29 317z" />
<glyph unicode=")" horiz-adv-x="602" d="M-125 -268q88 109 170 252q70 121 141.5 290.5t116.5 380.5t44 380t-17 292q-23 141 -62 252q8 10 19 20q16 16 61 39q37 16 66 21q14 2 24 2q51 -133 78 -291q23 -135 28 -318.5t-40 -396.5q-47 -215 -128 -397t-163 -317q-96 -158 -201 -291q-12 0 -26 2q-29 4 -58 20 t-43 39q-8 10 -10 21z" />
<glyph unicode="*" horiz-adv-x="698" d="M229 1233q12 61 56 104l145 -51l35 164q29 10 57.5 9t50.5 -11l-34 -162l170 51q23 -39 10 -104l-166 -51l72 -135q-23 -18 -50.5 -36t-56.5 -28l-67 133l-125 -133q-27 10 -47.5 27.5t-30.5 36.5l125 135z" />
<glyph unicode="+" horiz-adv-x="950" d="M84 539q0 10 1 23t5 32q6 35 16 55l11 21h291l63 291q8 2 21 6q10 2 24 4t33 2q16 0 30.5 -2t24.5 -4l19 -6l-64 -291h291q2 -10 2 -21v-24.5t-4 -30.5q-10 -37 -19 -55l-10 -21h-291l-61 -291q-10 -4 -23 -6q-23 -6 -57 -6q-35 0 -53 6q-10 2 -19 6l62 291h-291 q-2 10 -2 21z" />
<glyph unicode="," horiz-adv-x="477" d="M-47 -205q23 23 45 53q18 27 37.5 64t36.5 88q-18 0 -30.5 2t-21.5 6q-8 4 -14 6l41 193q12 2 29 6q14 4 34.5 6t47.5 2t46 -2t32 -6l24 -6l-27 -129q-18 -84 -54 -146.5t-73 -103.5q-43 -49 -92 -84z" />
<glyph unicode="-" horiz-adv-x="735" d="M129 539q0 10 1 23t5 32q6 35 17 55l10 21h426q2 -10 2 -21v-24.5t-4 -30.5q-10 -37 -19 -55l-10 -21h-426q-2 10 -2 21z" />
<glyph unicode="." horiz-adv-x="477" d="M6 14l41 193q10 2 27 6q14 4 34.5 6t49.5 2q27 0 46 -2t32 -6l24 -6l-41 -193q-12 -4 -29 -8q-29 -6 -79 -6q-55 0 -80 6q-14 4 -25 8z" />
<glyph unicode="/" horiz-adv-x="978" d="M-104 -82l1026 1604q10 2 26 6q14 4 32.5 6t43.5 2t44 -2t32 -6l24 -6l-1026 -1604q-12 -4 -28 -8q-29 -6 -76 -6q-49 0 -74 6q-14 4 -24 8z" />
<glyph unicode="0" horiz-adv-x="1267" d="M143 717q41 188 102.5 321t144.5 216t185.5 121t225.5 38t208 -43t131 -134t51 -230.5t-36 -329.5t-103.5 -323.5t-145.5 -216.5t-185 -119.5t-225 -36.5q-244 0 -339.5 177t-13.5 560zM318 432q-3 -104 22 -165.5t73 -87t119 -25.5q72 0 132.5 25.5t109.5 87t89 166 t75 263.5q33 160 37 264.5t-18.5 167t-71.5 87t-121 24.5t-131.5 -24.5t-109.5 -87t-92 -167t-75 -264.5q-35 -160 -38 -264z" />
<glyph unicode="1" horiz-adv-x="845" d="M143.5 1009q-3.5 46 16.5 95q135 35 242.5 100.5t205.5 173.5l25 6q12 4 31.5 6.5t46.5 2.5q25 0 43 -2t30 -7l25 -6l-291 -1364q-10 -4 -24 -8q-25 -6 -80 -6q-51 0 -76 6q-16 4 -27 8l181 840q16 82 32.5 148.5t32.5 117.5q-88 -72 -187.5 -118t-197.5 -68 q-25 29 -28.5 75z" />
<glyph unicode="2" horiz-adv-x="1089" d="M-18 0q0 25 2 49q2 23 5 49.5t9 55.5q25 119 78 201.5t123.5 142t151.5 104.5t161 92q80 45 138.5 83t100.5 75t67.5 80t37.5 100q20 94 -31 152.5t-192 58.5q-57 0 -110.5 -8t-94.5 -18q-49 -11 -94 -25q-57 55 -27 147q51 20 115 37q53 14 124.5 25.5t155.5 11.5 q92 0 169 -23.5t127.5 -71.5t68.5 -123t-2 -175q-20 -96 -61 -161.5t-102.5 -117t-143.5 -96.5t-187 -100q-51 -29 -107 -57.5t-107.5 -65.5t-89.5 -83t-50 -110q-6 -31 -6 -45h639q8 -16 7 -39.5t-5 -52.5q-12 -55 -41 -92h-829z" />
<glyph unicode="3" horiz-adv-x="1075" d="M-27 51q8 41 30 83t54 69q6 -2 29 -10.5t59.5 -16.5t86 -14t106.5 -6q160 0 248 57t114 186q14 70 4 117t-41.5 76t-83 41t-114.5 12h-152q-8 41 2.5 84t32.5 80h152q115 0 191.5 51t99.5 164q25 113 -30.5 165t-187.5 52q-59 0 -109 -7t-87 -15q-43 -10 -78 -23 q-31 25 -39 62.5t6 82.5q45 18 101 35q47 14 114.5 25.5t147.5 11.5q215 0 311 -102.5t59 -278.5q-23 -111 -80 -183.5t-167 -119.5q102 -51 142 -136t11 -220q-18 -88 -61 -161t-115 -124t-174 -79.5t-240 -28.5q-86 0 -149.5 10t-106.5 24q-51 16 -86 37z" />
<glyph unicode="4" horiz-adv-x="1183" d="M14 371q-4 20 6 61q4 20 10.5 35.5t10.5 26.5q6 12 12 20l821 864q10 2 27 6q14 4 33.5 6.5t46.5 2.5q25 0 43 -2t31 -7q14 -4 22 -6l-184 -864h182q2 -8 2 -20v-25.5t-4 -36.5q-4 -20 -10 -35.5t-10 -25.5q-6 -12 -13 -21h-182l-72 -336q-12 -4 -26 -8q-25 -6 -70 -6 q-49 0 -74 6q-14 4 -24 8l72 336h-646q-4 8 -4 21zM258 514h440l127 596z" />
<glyph unicode="5" horiz-adv-x="1075" d="M-25 47q6 41 29 83t55 69q33 -14 72 -23q35 -8 82 -14t106 -6q162 0 260.5 56t127.5 189q29 137 -36 195.5t-249 58.5q-68 0 -131.5 -4t-104.5 -8l158 750h723q8 -45 -2 -92.5t-35 -88.5h-522l-84 -393q12 2 41 4t67 2q236 0 332.5 -114.5t48.5 -333.5 q-45 -205 -193.5 -301t-416.5 -96q-92 0 -153.5 10t-100.5 22q-45 14 -74 35z" />
<glyph unicode="6" horiz-adv-x="1126" d="M81 282.5q-11 104.5 19 247.5q45 215 131 373t208 262.5t277 160t339 67.5q10 -35 -0.5 -80t-34.5 -84q-225 -25 -379 -123t-246 -303q51 16 118 32.5t146 16.5q88 0 160 -26.5t117 -82t59.5 -140.5t-10.5 -202q-47 -223 -187.5 -322t-348.5 -99q-104 0 -183.5 31.5 t-126.5 99t-58 172zM285.5 344q3.5 -72 26 -118t64.5 -67.5t97 -21.5q111 0 193.5 68t113.5 211q16 76 9 128t-32.5 85t-67.5 47t-95 14q-80 0 -150.5 -21.5t-111.5 -37.5q-8 -27 -14.5 -55.5t-12.5 -57.5q-23 -102 -19.5 -174z" />
<glyph unicode="7" horiz-adv-x="1011" d="M106 10q37 172 96.5 302t131.5 232.5t148.5 185.5t148 159t132 152.5t97.5 168.5h-655q-4 10 -4 25q-4 25 6 68q10 45 22 67q6 12 13 23h848q4 -29 0.5 -57.5t-11.5 -57.5q-29 -121 -88 -216t-134 -181t-157 -171t-158.5 -185.5t-139 -225.5t-97.5 -289q-47 -10 -100 -10 q-57 0 -99 10z" />
<glyph unicode="8" horiz-adv-x="1193" d="M61 367q18 76 55.5 134t84.5 103t98 76t96 53q-84 51 -126 138t-13 219q35 160 164 242.5t334 82.5q98 0 172.5 -27.5t122 -76.5t63.5 -116t0 -146q-14 -68 -44 -117t-66.5 -88t-78.5 -66.5t-79 -52.5q92 -57 145 -148.5t31 -234.5q-29 -184 -172 -275.5t-381 -91.5 q-104 0 -187 29t-138.5 80t-78 124t-2.5 159zM254 354q-10 -49 2 -88t44 -66.5t82.5 -43t113.5 -15.5q129 0 210.5 56.5t104.5 154.5q12 63 -9.5 108.5t-64.5 81.5t-101 63.5t-118 56.5q-25 -12 -64.5 -39t-79.5 -65t-74 -89t-46 -115zM453 1075q-12 -55 6 -97t56 -74 t90.5 -58t107.5 -53q29 18 61.5 42.5t62 58.5t53 75t34.5 92q20 96 -32 147.5t-167 51.5q-111 0 -183.5 -49.5t-88.5 -135.5z" />
<glyph unicode="9" horiz-adv-x="1130" d="M106 0q-14 84 33 164q223 23 378 121t247 305q-49 -16 -101.5 -32.5t-132.5 -16.5q-88 0 -164.5 27.5t-128 84t-71 143.5t5.5 203q25 111 73 190t116.5 129t157.5 72.5t194 22.5q100 0 180 -31.5t127 -98t60.5 -170t-17.5 -247.5q-47 -215 -133 -372.5t-208 -264 t-277 -162t-339 -67.5zM371 849q8 -52 33.5 -85t67.5 -47.5t95 -14.5q78 0 148.5 20.5t111.5 37.5l29 114q20 102 17 174t-27.5 118t-65.5 67.5t-94 21.5q-111 0 -193.5 -67.5t-113.5 -210.5q-16 -76 -8 -128z" />
<glyph unicode=":" horiz-adv-x="495" d="M10 14l41 193q10 2 27 6q14 4 34.5 6t49.5 2q27 0 46 -2t32 -6l24 -6l-41 -193q-12 -4 -28 -8q-29 -6 -80 -6q-55 0 -80 6q-14 4 -25 8zM182 823l41 193q10 2 27 6q14 4 34.5 6t49.5 2q27 0 46 -2t32 -6l24 -6l-41 -193q-12 -4 -28 -8q-29 -6 -80 -6q-55 0 -80 6 q-14 4 -25 8z" />
<glyph unicode=";" horiz-adv-x="507" d="M-35 -205q23 23 45 53q18 27 39 64t35 88q-18 0 -30.5 2t-20.5 6t-15 6l41 193q10 2 27 6q14 4 34.5 6t49.5 2q27 0 46.5 -2t31.5 -6l24 -6l-26 -129q-18 -84 -54 -146.5t-73 -103.5q-43 -49 -90 -84zM190 823l41 193q10 2 27 6q14 4 34.5 6t49.5 2q27 0 46.5 -2t31.5 -6 l24 -6l-41 -193q-12 -4 -28 -8q-29 -6 -80 -6q-55 0 -80 6q-14 4 -25 8z" />
<glyph unicode="&#x3c;" horiz-adv-x="915" d="M84 512v23q0 10 1 26.5t5 34.5q4 16 9 31.5t10 25.5q6 12 10 21l717 295q2 -8 2 -19v-24.5t-4 -32.5q-4 -20 -10.5 -34.5t-10.5 -24.5q-6 -12 -10 -21l-535 -223l443 -217q2 -8 2 -19q0 -20 -6 -59q-4 -18 -10.5 -32.5t-10.5 -24.5q-6 -12 -10 -21z" />
<glyph unicode="=" horiz-adv-x="1060" d="M100 332q-4 82 33 153h733q4 -35 -5 -76.5t-27 -76.5h-734zM180 700q-6 82 33 154h733q4 -35 -5 -76t-28 -78h-733z" />
<glyph unicode="&#x3e;" horiz-adv-x="917" d="M66 238q0 10 2 24t6 33q4 20 9 34.5t9 24.5q6 10 10 19l533 217l-440 223q-2 8 -2 21q0 25 8 59q6 37 16 57q6 10 10 19l594 -295q2 -8 2 -21q0 -25 -6 -57q-4 -18 -9 -34.5t-9 -26.5q-6 -12 -13 -23l-718 -295q-2 8 -2 21z" />
<glyph unicode="?" horiz-adv-x="886" d="M123 14l41 193q10 2 26 6q14 4 35 6t49 2q27 0 46.5 -2t31.5 -6l25 -6l-41 -193q-12 -4 -29 -8q-29 -6 -80 -6q-55 0 -80 6q-14 4 -24 8zM209 1258.5q-8 37.5 6 82.5q41 18 94 35q45 14 108.5 25.5t141.5 11.5q90 0 161 -21.5t117 -65.5t62 -110.5t-2 -158.5 q-20 -100 -62 -165t-92.5 -111t-104.5 -79.5t-104.5 -73.5t-88 -93.5t-56.5 -135.5q-8 -6 -20 -10q-25 -10 -62 -10t-57 10q-10 4 -19 10q25 109 63 178.5t83 116.5t92 80t89 68t76 82t50 123q23 106 -29.5 151t-162.5 45q-55 0 -100.5 -7t-78.5 -17q-37 -10 -65 -23 q-31 25 -39 62.5z" />
<glyph unicode="@" horiz-adv-x="1869" d="M93 212q-36 153 7 359q41 193 138.5 345.5t232.5 258t301 162t348 56.5q186 0 322.5 -55.5t216.5 -157t103.5 -243.5t-13.5 -316q-45 -217 -166 -332t-293 -115q-199 0 -227 125q-47 -59 -116.5 -92t-172.5 -33q-70 0 -125 20.5t-88 66.5t-41 122t17 186q25 113 64.5 189 t91.5 122t115.5 66.5t133.5 20.5q86 0 138.5 -23.5t80.5 -64.5l17 79q10 4 22 9q10 4 27.5 6t40.5 2t38 -2t25 -6t19 -9l-107 -507q-31 -139 82 -140q86 0 155.5 75t104.5 235q31 143 14.5 260.5t-79 201.5t-170 130.5t-256.5 46.5q-152 0 -284 -47.5t-238.5 -136.5 t-180.5 -217t-108 -288q-37 -178 -9.5 -305t101.5 -208t184.5 -118.5t239.5 -37.5q145 0 291.5 42t281.5 113q51 -31 39 -102q-166 -100 -336 -146.5t-334 -46.5q-158 0 -293 49.5t-227 148.5t-128 252zM712 438q3 -51 22.5 -81.5t52 -42t75.5 -11.5q80 0 136.5 49t76.5 117 l41 201q12 70 -23.5 119t-115.5 49q-43 0 -81 -10.5t-70.5 -40t-57.5 -82t-43 -136.5q-16 -80 -13 -131z" />
<glyph unicode="A" horiz-adv-x="1339" d="M-98 14l823 1446q14 2 35 6q16 4 38.5 6.5t51.5 2.5t51.5 -2.5t38.5 -6.5l31 -6l205 -1446q-12 -4 -29 -8q-29 -6 -86 -6q-51 0 -72 6q-12 4 -18 8l-49 361h-607l-202 -361q-16 -4 -35 -8q-31 -6 -82 -6q-47 0 -72 6q-14 4 -22 8zM410 545h487l-72 528q-6 41 -8 74t-4 57 q-2 29 -2 53h-6z" />
<glyph unicode="B" horiz-adv-x="1284" d="M53 0l314 1475h548q98 0 166 -34t105 -92.5t45 -134.5q2 -24 2 -49q0 -55 -12 -116q-14 -63 -39 -111.5t-55.5 -83.5t-63.5 -59.5t-64 -42.5q29 -16 58.5 -46t49 -73t27.5 -103q2 -18 1 -37q0 -45 -11 -98q-41 -186 -172 -290.5t-342 -104.5h-557zM297 162h309 q139 0 214 66.5t100 187.5q10 46 10 84q0 68 -32 108q-52 62 -187 62h-308zM438 825h295q125 0 193.5 69t91.5 175q8 40 8 74q0 61 -25 103q-40 68 -167 67h-293z" />
<glyph unicode="C" horiz-adv-x="1144" d="M150 766q80 371 266 550t481 179q86 0 149.5 -11t104.5 -24q49 -16 82 -35q-8 -51 -33.5 -88t-60.5 -67q-33 12 -72 22q-35 10 -82 17.5t-100 7.5q-90 0 -170 -26.5t-147.5 -93.5t-121 -178.5t-90.5 -283.5q-31 -146 -31 -248q1 -19 1 -35q6 -110 46 -174.5t108.5 -90 t158.5 -25.5q59 0 113.5 6t95.5 16q47 10 86 25q25 -29 31 -71q3 -18 3 -37q0 -25 -5 -52q-45 -20 -105 -35q-51 -14 -121.5 -24t-161.5 -10q-293 0 -398 206q-60 118 -60 291q0 129 33 289z" />
<glyph unicode="D" horiz-adv-x="1357" d="M53 0l314 1475h454q141 0 243.5 -43t159 -135.5t65.5 -238.5q2 -25 1 -52q0 -128 -35 -295q-43 -203 -111.5 -340.5t-162.5 -219t-213 -116.5t-260 -35h-455zM299 174h231q90 0 168 23.5t142.5 86t115 172t86.5 281.5q33 157 33 262v21q-4 110 -42 172.5t-105.5 85 t-157.5 22.5h-231z" />
<glyph unicode="E" horiz-adv-x="1138" d="M53 0l314 1475h831q2 -18 3 -38v-8q0 -16 -3 -34q-12 -51 -37 -90h-622l-101 -476h520q2 -18 3.5 -38.5t-3.5 -42.5q-4 -23 -14 -44.5t-20 -41.5h-521l-104 -492h643q2 -20 2 -39.5t-4 -42.5q-8 -41 -35 -88h-852z" />
<glyph unicode="F" horiz-adv-x="1095" d="M55 14l312 1461h815q5 -17 5 -36q0 -23 -7 -48q-8 -47 -35 -86h-606l-107 -500h537q5 -16 5 -36.5t-5 -45.5q-4 -25 -14.5 -47.5t-20.5 -40.5h-537l-133 -621q-10 -4 -26 -8q-29 -6 -82 -6q-51 0 -76 6q-14 4 -25 8z" />
<glyph unicode="G" horiz-adv-x="1290" d="M122 442q-2 28 -2 57q0 126 32 279q80 371 277.5 544t502.5 173q92 0 160.5 -11t115.5 -24q53 -16 92 -35q-10 -43 -34.5 -84t-59.5 -69q-39 12 -84 22q-39 10 -92 17.5t-112 7.5q-94 0 -179.5 -26.5t-158 -93t-129 -179.5t-93.5 -285q-29 -137 -29 -235q0 -25 1 -48 q10 -110 55 -175.5t119 -91t168 -25.5q72 0 123 6t65 10l101 473h-297q-2 10 -2 23v25.5t4 35.5q10 41 22 64q6 12 12 22h494l-164 -770q-49 -20 -115 -35q-55 -14 -131.5 -24t-173.5 -10q-154 0 -259 54t-162.5 157.5t-66.5 250.5z" />
<glyph unicode="H" horiz-adv-x="1400" d="M53 14l309 1446q10 2 27 6q14 4 32.5 6.5t45.5 2.5t45 -2.5t33 -6.5q14 -4 26 -6l-131 -614h615l131 614q12 2 28 6q14 4 33 6.5t45 2.5q25 0 44.5 -2.5t31.5 -6.5q14 -4 27 -6l-310 -1446q-10 -4 -26 -8q-29 -6 -78 -6q-57 0 -82 6q-14 4 -22 8l139 652h-615l-139 -652 q-12 -4 -29 -8q-29 -6 -77 -6q-55 0 -80 6q-14 4 -23 8z" />
<glyph unicode="I" horiz-adv-x="577" d="M53 14l309 1446q10 2 27 6q14 4 32.5 6.5t45.5 2.5t47.5 -2.5t32.5 -6.5l24 -6l-309 -1446q-12 -4 -29 -8q-29 -6 -77 -6q-55 0 -80 6q-14 4 -23 8z" />
<glyph unicode="J" horiz-adv-x="913" d="M-82 41q18 98 90 158q25 -10 55 -19q27 -8 61 -13t75 -5q98 0 174 48t104 175l230 1075l24 6q12 4 32.5 6.5t49.5 2.5q27 0 46.5 -2.5t31.5 -6.5l24 -6l-227 -1069q-23 -104 -68 -182t-108 -128t-141 -75.5t-166 -25.5q-61 0 -113.5 9t-91.5 21q-45 12 -82 31z" />
<glyph unicode="K" horiz-adv-x="1261" d="M53 14l309 1446q12 2 29 6q14 4 33.5 6.5t46.5 2.5q25 0 44.5 -2.5t31.5 -6.5l24 -6l-131 -610h150l545 610q20 4 49.5 9.5t60.5 5.5q33 0 62.5 -5.5t52.5 -9.5l-610 -702l362 -744q-10 -4 -27 -8q-29 -6 -88 -6q-57 0 -88 6q-18 4 -30 8l-314 668h-159l-144 -668 q-12 -4 -26 -8q-29 -6 -80 -6t-76 6q-16 4 -27 8z" />
<glyph unicode="L" horiz-adv-x="1058" d="M51 0l311 1460q10 2 27 6q14 4 32.5 6.5t45.5 2.5t47.5 -2.5t32.5 -6.5l24 -6l-272 -1280h612q3 -14 3 -32v-10q-1 -24 -7 -48q-8 -49 -35 -90h-821z" />
<glyph unicode="M" horiz-adv-x="1716" d="M53 14l309 1446q14 2 35 6q16 4 40 6.5t52 2.5q23 0 44.5 -2.5t37.5 -6.5q18 -4 33 -6l234 -829h8l588 829q29 6 69.5 10.5t73.5 4.5q31 0 55.5 -2.5t40.5 -6.5q20 -4 37 -6l-309 -1446q-10 -4 -27 -8q-29 -6 -78 -6q-51 0 -75 6q-16 4 -27 8l139 656q16 76 32.5 152.5 t32 149t32 135t32.5 110.5h-10q-16 -35 -45 -82.5t-65.5 -101.5t-78.5 -112.5t-81 -115.5l-334 -451q-8 -4 -19 -6q-10 -2 -21 -3t-26 -1q-27 0 -43 4q-8 2 -12 6l-141 443q-16 57 -32.5 116.5t-31 115.5t-24 104.5t-11.5 83.5h-8q0 -39 -8 -96.5t-20.5 -125t-28.5 -143.5 t-31 -152l-147 -686q-12 -4 -27 -8q-25 -6 -74 -6q-47 0 -67 6q-14 4 -23 8z" />
<glyph unicode="N" horiz-adv-x="1437" d="M53 14l309 1446q12 2 33 6q16 4 40 6.5t54 2.5q31 0 52.5 -2.5t38.5 -6.5l30 -6l303 -923q16 -51 30.5 -99.5t25.5 -87.5q12 -45 22 -86h6q6 47 15 101q8 47 18 108.5t27 132.5l182 854l25 6q12 4 30.5 6.5t44.5 2.5q25 0 43.5 -2.5t28.5 -6.5q12 -4 21 -6l-310 -1446 q-12 -4 -30 -8q-31 -6 -93 -6q-61 0 -92 6q-18 4 -30 8l-308 932q-16 49 -29.5 97.5t-23.5 84.5l-20 82h-9q-6 -41 -14 -94q-8 -45 -18.5 -108.5t-26.5 -141.5l-182 -852q-10 -4 -25 -8q-25 -6 -76 -6t-71 6q-12 4 -21 8z" />
<glyph unicode="O" horiz-adv-x="1384" d="M154 782q43 197 111.5 333t160.5 221t205.5 122t247.5 37q267 -1 377 -197q62 -110 62 -284q0 -135 -38 -309q-43 -199 -110.5 -337.5t-158.5 -224.5t-205 -124.5t-249 -38.5q-267 0 -377 202q-62 115 -62 292q0 136 36 308zM326 454q4 -112 36.5 -178.5t93 -94 t138.5 -27.5q82 0 154.5 27.5t133 94t109.5 179t84 282.5q35 161 35 271v12q-2 113 -35 179.5t-93 94t-140 27.5q-82 0 -154 -27.5t-133 -94t-110.5 -179.5t-86.5 -283q-32 -155 -31 -262q-1 -11 -1 -21z" />
<glyph unicode="P" horiz-adv-x="1236" d="M55 14l312 1461h534q100 0 173 -37t116 -100.5t53 -150.5q3 -29 3 -60q0 -61 -13 -128q-41 -201 -180.5 -312.5t-341.5 -111.5h-326l-121 -561q-10 -4 -26 -8q-29 -6 -78 -6q-55 0 -80 6q-14 4 -25 8zM422 750h299q123 0 200.5 72.5t106.5 201.5q11 49 11 90 q0 68 -30 114q-48 72 -171 72h-299z" />
<glyph unicode="Q" horiz-adv-x="1384" d="M154 782q43 197 111.5 333t160.5 221t206 122t247 37q266 0 377 -197q62 -110 62 -284q0 -135 -38 -309q-47 -223 -126 -370t-189 -231q47 -47 110.5 -77.5t132.5 -46.5q-18 -53 -59 -103.5t-92 -73.5q-86 31 -148.5 88.5t-99.5 126.5q-112 -38 -245 -38h-7 q-268 0 -377 202q-62 115 -62 292q0 136 36 308zM326 454q4 -112 36.5 -178.5t93 -94t138.5 -27.5q82 0 154.5 27.5t133 94t109.5 179t84 282.5q35 161 35 271v12q-2 113 -35 179.5t-93 94t-140 27.5q-82 0 -154 -27.5t-133 -94t-110.5 -179.5t-86.5 -283q-32 -155 -32 -262 v-21z" />
<glyph unicode="R" horiz-adv-x="1290" d="M55 14l312 1461h524q100 0 173 -35t116 -96.5t55 -145.5q4 -32 4 -65q0 -55 -12 -115q-33 -154 -126 -250t-237 -135l223 -619q-14 -4 -32 -8q-31 -6 -92 -6q-53 0 -74 6q-12 4 -19 8l-211 598h-266l-129 -598q-10 -4 -26 -8q-29 -6 -78 -6q-55 0 -80 6q-14 4 -25 8z M430 786h289q121 0 198.5 67t104.5 189q9 43 9 79q-1 67 -33 111q-50 68 -171 68h-288z" />
<glyph unicode="S" horiz-adv-x="1159" d="M-6 66q8 41 30.5 86t53.5 79q53 -18 112 -32q51 -12 118 -21.5t138 -9.5q313 0 363 233q6 26 6 49q0 24 -7 46q-13 40 -42 71t-72 53.5t-92 38.5q-74 27 -152.5 59t-138 83t-87.5 127q-15 40 -15 91q0 46 12 101q80 375 576 375q92 0 163.5 -9t122.5 -20q57 -12 103 -28 q-10 -45 -34 -89t-58 -75q-39 12 -86 22q-41 8 -97.5 15.5t-122.5 7.5q-324 0 -370 -225q-5 -23 -5 -43q0 -33 12 -59q19 -42 62 -72.5t103.5 -55t128.5 -47.5q66 -25 128 -59.5t105 -85.5q42 -51 60 -124q8 -34 9 -74q0 -46 -11 -99q-43 -207 -190.5 -301t-401.5 -94 q-102 0 -181 13t-133 30q-63 18 -110 43z" />
<glyph unicode="T" horiz-adv-x="1112" d="M207 1319q0 12 1 27.5t5 37.5q4 18 9 35t11 29q8 14 15 27h981q2 -10 2 -25v-28.5t-4 -35.5q-8 -39 -23 -65q-8 -14 -14 -27h-381l-272 -1280q-12 -4 -29 -8q-29 -6 -78 -6q-55 0 -80 6q-14 4 -22 8l272 1280h-391q-2 10 -2 25z" />
<glyph unicode="U" horiz-adv-x="1382" d="M140 280q-8 42 -8 88q0 62 15 132l205 960q10 2 27 6q14 4 32.5 6.5t45.5 2.5t46 -2.5t32 -6.5l24 -6l-213 -993q-10 -48 -10 -89q0 -85 44 -140q64 -82 212 -82q150 0 247 81.5t128 229.5l213 993q12 2 26 6q12 4 30.5 6.5t45.5 2.5q25 0 44.5 -2.5t31.5 -6.5 q14 -4 26 -6l-208 -993q-53 -252 -211 -369.5t-394 -117.5q-117 0 -208 34.5t-147 101t-76 164.5z" />
<glyph unicode="V" horiz-adv-x="1308" d="M217 1456q12 4 31 8q16 4 37.5 7.5t50.5 3.5q27 0 43 -2.5t27 -6.5q10 -4 16 -8l129 -983q6 -51 8 -95t4 -77q2 -39 2 -72h6q12 33 31 70q16 33 36.5 77t49.5 97l549 983q12 4 29 8q14 4 33.5 6.5t46.5 2.5q25 0 43 -2.5t32 -6.5t27 -8l-803 -1444q-14 -4 -35 -8 q-35 -6 -88 -6q-55 0 -86 6q-18 4 -33 8z" />
<glyph unicode="W" horiz-adv-x="1974" d="M229 1460q10 2 27 6q14 4 33.5 6.5t46.5 2.5t45 -2.5t29 -6.5l18 -6l64 -962q3 -41 3 -79v-19q-1 -48 -1 -87q-2 -45 -2 -86h8q14 39 30 84q14 39 34 87t42 100l451 962q14 2 33 6q16 4 37.5 6.5t50.5 2.5t48 -2.5t29 -6.5q12 -4 21 -6l39 -962q1 -26 1 -52t-1 -50 q-2 -50 -4 -87q-4 -43 -6 -82h6q12 37 30 80q16 37 36 86t48 105l473 962l31 6q14 4 33.5 6.5t42.5 2.5t41 -2.5t31 -6.5l24 -6l-708 -1446q-14 -4 -33 -8q-31 -6 -88 -6q-55 0 -88 6q-20 4 -35 8l-35 938q-1 29 -1 55q0 39 2 73q3 56 7 94q4 45 8 79h-8q-8 -35 -24 -79 q-14 -39 -36 -94.5t-52 -127.5l-437 -938q-23 -4 -60.5 -9t-74.5 -5q-35 0 -65.5 5t-50.5 9z" />
<glyph unicode="X" horiz-adv-x="1275" d="M-102 14l663 762l-305 684l31 6q16 4 38.5 6.5t53.5 2.5q27 0 45 -2.5t29 -6.5q12 -4 20 -6l232 -518l452 518q23 6 55.5 10.5t67.5 4.5t61.5 -4.5t47.5 -10.5l-605 -696l334 -746q-14 -6 -33 -10q-16 -4 -39.5 -6t-52.5 -2t-46 2t-27 6q-12 4 -19 8l-260 582l-506 -584 q-20 -6 -53 -10t-64 -4q-35 0 -66.5 3t-53.5 11z" />
<glyph unicode="Y" horiz-adv-x="1294" d="M215 1460q12 2 33 6q16 4 40.5 6.5t55.5 2.5q23 0 42.5 -2.5t33.5 -6.5q16 -4 29 -6l239 -633l520 633q14 2 35 6q16 4 38 6.5t50 2.5q27 0 47.5 -2.5t36.5 -6.5l31 -6l-698 -844l-130 -602q-10 -4 -26 -8q-29 -6 -78 -6q-55 0 -80 6q-14 4 -24 8l129 598z" />
<glyph unicode="Z" horiz-adv-x="1212" d="M-43 0q-2 18 -2 35q0 29 6 59q4 27 14.5 49.5t20.5 40.5l995 1108h-704q0 20 1 45t7 52t14 48t17 38h944q3 -11 3 -28v-9q-1 -23 -7 -52q-14 -57 -35 -94l-1006 -1108h797q2 -16 1 -38.5t-7 -49.5q-6 -29 -14.5 -51t-18.5 -45h-1026z" />
<glyph unicode="[" horiz-adv-x="675" d="M-20 -348l426 2007h407q2 -10 2 -21q0 -20 -6 -59q-8 -39 -18 -57q-6 -10 -11 -19h-217l-360 -1696h217q2 -10 2 -20q0 -20 -6 -57q-10 -41 -19 -60q-6 -10 -10 -18h-407z" />
<glyph unicode="\" horiz-adv-x="974" d="M231 1520q12 4 29 8q14 4 33.5 6t46.5 2q25 0 43 -2t31 -6q14 -4 26 -8l344 -1600q-12 -4 -28 -8q-14 -4 -34 -6t-46 -2q-27 0 -45.5 2t-30.5 6q-14 4 -25 8z" />
<glyph unicode="]" horiz-adv-x="675" d="M-125 -330q0 10 1 24.5t5 35.5q4 18 9.5 32.5t9.5 24.5l10 20h217l360 1696h-217q-2 8 -2 19q0 10 1 23.5t5 33.5t9.5 34.5t9.5 24.5l10 21h408l-426 -2007h-408q-2 8 -2 18z" />
<glyph unicode="^" horiz-adv-x="1058" d="M164 938l467 524q10 2 22 6q10 2 26.5 4.5t37.5 2.5q20 0 35.5 -2.5t25.5 -4.5q12 -4 21 -6l241 -524q-10 -4 -22 -6q-23 -6 -57 -6q-39 0 -64 6q-14 2 -25 6l-184 401l-358 -401q-12 -4 -27 -6q-25 -6 -63 -6q-39 0 -58 6q-10 2 -18 6z" />
<glyph unicode="_" horiz-adv-x="1130" d="M-43 -162q0 8 1 21.5t5 31.5q6 35 17 52q6 8 10 16h876q2 -8 2 -16v-21.5t-4 -30.5q-10 -39 -18 -53q-6 -10 -10 -16h-877q-2 6 -2 16z" />
<glyph unicode="`" horiz-adv-x="487" d="M84 1581q29 35 81 59.5t99 18.5l144 -291q-47 -51 -127 -63z" />
<glyph unicode="a" d="M92 571q35 156 86 258.5t113.5 162t137.5 83t155 23.5q109 0 173 -34t95 -108l37 107q8 2 22 6q10 4 28.5 6t45.5 2q25 0 42 -2t28 -6q12 -4 20 -6l-223 -1049q-10 -4 -25 -8q-25 -6 -63 -6q-39 0 -64 6q-14 4 -26 8l10 111q-59 -68 -140 -106.5t-198 -38.5 q-176 0 -248 145q-37 76 -37 195q0 108 31 251zM263 356v-22q1 -60 15 -100q18 -46 57.5 -66.5t100.5 -20.5q53 0 102.5 21.5t88.5 57.5t66.5 83t37.5 101l57 264q6 30 6 58q0 20 -3 39q-7 46 -29.5 82t-60 56.5t-91.5 20.5q-55 0 -101 -18.5t-86 -62.5t-73 -120t-59 -190 q-25 -109 -28 -183z" />
<glyph unicode="b" horiz-adv-x="1140" d="M23 14l321 1508q12 2 27 6q12 4 30.5 6t44.5 2q27 0 46.5 -2t31.5 -6l25 -6l-119 -557q57 63 135 98t189 35q88 0 151.5 -32t98.5 -100q34 -70 37 -180v-19q0 -105 -29 -247q-33 -158 -82 -261t-111.5 -165.5t-138.5 -88t-164 -25.5q-111 0 -171 43t-89 106l-39 -115 q-10 -4 -22 -8q-25 -6 -74 -6t-74 6q-14 4 -24 8zM305 310q4 -48 25.5 -84t58.5 -57.5t90 -21.5q61 0 111.5 18.5t90.5 62.5t71.5 120t56.5 191t25 190.5t-21.5 119.5t-63.5 62.5t-104 18.5q-53 0 -99 -20.5t-82 -56.5t-60.5 -83t-34.5 -98l-58 -262q-7 -38 -7 -73 q0 -13 1 -27z" />
<glyph unicode="c" horiz-adv-x="909" d="M66 324q-1 15 -1 29q0 97 25 216q59 274 196.5 401.5t362.5 127.5q74 0 124 -8.5t81 -18.5q37 -10 59 -24q-10 -41 -33.5 -81t-58.5 -67q-20 6 -47 14q-23 6 -54.5 11.5t-72.5 5.5q-147 0 -231 -95.5t-125 -295.5q-20 -96 -20 -167q0 -79 25 -127q48 -91 196 -91 q41 0 77.5 5t65.5 11q33 8 57 18q20 -24 28 -64q4 -20 3 -39q0 -22 -4 -44q-33 -18 -78 -31q-39 -12 -95.5 -21t-133.5 -9q-113 0 -187.5 40.5t-114.5 118t-44 185.5z" />
<glyph unicode="d" horiz-adv-x="1136" d="M64 294q-1 16 0 32q0 100 28 235q33 156 81 259.5t110.5 165t138.5 87t164 25.5q109 0 172 -35t94 -98l119 557q10 2 26 6q14 4 34 6t46 2q25 0 43.5 -2t30.5 -6l25 -6l-322 -1508q-10 -4 -25 -8q-25 -6 -63 -6q-39 0 -64 6q-14 4 -26 8l10 111q-59 -68 -132 -106.5 t-189 -38.5q-88 0 -154 31.5t-103.5 102t-43.5 180.5zM267 348v-7q1 -71 21 -113q22 -44 63.5 -62.5t103.5 -18.5q53 0 99 21.5t83 57.5t61.5 83t34.5 101l58 264q7 34 7 66q0 16 -2 31q-5 46 -26.5 82t-58.5 56.5t-90 20.5q-61 0 -111.5 -18.5t-90.5 -62.5t-71 -120 t-55 -190q-25 -115 -26 -191z" />
<glyph unicode="e" horiz-adv-x="1046" d="M62 322v23q0 101 28 226q63 279 211 403t352 124q183 0 271 -104q59 -69 59 -184q0 -57 -14 -124q-23 -98 -43 -154q-12 -33 -25 -57h-625q-8 -61 -8 -109q0 -24 2 -44q6 -62 33 -99t75 -53t116 -16q53 0 100 9t82 19q39 12 72 31q23 -25 33 -66q5 -22 5 -44 q0 -20 -4 -42q-43 -23 -96 -41q-47 -16 -112.5 -28t-149.5 -12q-119 0 -198 39.5t-119.5 116t-44.5 186.5zM307 621h445q4 12 11 35.5t15 56.5q6 36 6 69v17q-2 41 -20.5 71.5t-53 48t-92.5 17.5q-100 0 -181 -72.5t-130 -242.5z" />
<glyph unicode="f" horiz-adv-x="729" d="M84 14l195 910h-136q0 16 1 35.5t6 41.5q4 23 11 41.5t15 34.5h135l27 123q14 74 44 136.5t79 106.5t119.5 68.5t169.5 24.5q51 0 91 -7t68 -16q33 -8 58 -20q-20 -84 -84 -143q-18 4 -41 10q-20 4 -49 8t-64 4q-88 0 -128 -40t-56 -122l-29 -133h256q0 -16 -1 -36.5 t-7 -43.5q-4 -20 -10 -38.5t-15 -34.5h-256l-194 -910q-10 -4 -27 -8q-29 -6 -78 -6q-53 0 -78 6q-14 4 -22 8z" />
<glyph unicode="g" horiz-adv-x="1140" d="M-33 -438q10 41 34 77.5t54 59.5q27 -14 64 -23q29 -10 70.5 -16t91.5 -6q72 0 129 14.5t103 55t83 117.5t66 200l14 59q-57 -61 -129 -90.5t-170 -29.5q-88 0 -155.5 32.5t-107.5 103t-48 181.5q-1 21 -1 43q0 97 27 225q33 156 82 259.5t112.5 164t139.5 85t164 24.5 q102 0 169.5 -39t96.5 -101l31 107q8 2 22 6q12 2 30.5 4t45.5 2q25 0 43.5 -2t30.5 -6q14 -4 22 -6l-215 -1010q-31 -147 -77 -253.5t-116.5 -175t-168.5 -102.5t-232 -34q-80 0 -137 11.5t-94 25.5q-43 16 -74 37zM270 348v-13q0 -67 18 -107q21 -44 62 -62.5t103 -18.5 q55 0 102 21.5t84 57.5t61.5 81t34.5 92l58 254q8 38 8 76q0 11 -1 23q-3 49 -23.5 89t-57.5 64.5t-94 24.5q-61 0 -111.5 -18.5t-90.5 -62.5t-70.5 -119.5t-55.5 -190.5t-27 -191z" />
<glyph unicode="h" horiz-adv-x="1128" d="M20 14l322 1508l25 6q12 4 31.5 6t47.5 2q25 0 43.5 -2t30.5 -6q14 -4 27 -6l-117 -541q70 63 144.5 90t173.5 27q154 0 226 -92q49 -62 49 -155q0 -44 -11 -95l-160 -742q-10 -4 -27 -8q-29 -6 -77 -6q-51 0 -76 6q-14 4 -25 8l158 738q6 29 6 53q1 48 -23 80 q-36 47 -135 47q-68 0 -137.5 -35t-122.5 -96l-168 -787q-12 -4 -28 -8q-29 -6 -76 -6q-53 0 -78 6q-14 4 -23 8z" />
<glyph unicode="i" horiz-adv-x="516" d="M25 14l223 1049q10 2 26 6q14 4 33 6t47 2q25 0 43.5 -2t30.5 -6l25 -6l-224 -1049q-10 -4 -26 -8q-29 -6 -78 -6q-53 0 -78 6q-14 4 -22 8zM291 1284l41 193q10 2 26 6q14 4 35 6t49 2q27 0 46.5 -2t31.5 -6l25 -6l-41 -193q-12 -4 -29 -8q-29 -6 -80 -6q-55 0 -80 6 q-14 4 -24 8z" />
<glyph unicode="j" horiz-adv-x="518" d="M-309 -465q0 8 4 19q4 27 12 47t14 32q8 14 15 25q10 -2 22 -4q10 -2 23.5 -3t30.5 -1q70 0 112.5 38t59.5 124l266 1251q10 2 26 6q14 4 33 6t47 2q25 0 43.5 -2t30.5 -6l25 -6l-265 -1243q-35 -164 -128 -248t-238 -84q-33 0 -57.5 2t-40.5 6q-20 4 -35 10v15v14z M293 1286l41 193q10 2 26 6q14 4 35 6t49 2q27 0 46.5 -2t31.5 -6l25 -6l-41 -193q-12 -4 -29 -8q-29 -6 -80 -6q-55 0 -80 6q-14 4 -24 8z" />
<glyph unicode="k" horiz-adv-x="1028" d="M23 14l321 1512q12 2 29 4q14 2 33.5 4t44.5 2q20 0 37.5 -2t31.5 -4q16 -2 29 -4l-189 -887h119l359 424q16 2 34 6q16 4 37 6t45 2q23 0 40.5 -2t29.5 -4q14 -4 27 -6l-422 -512l245 -539q-14 -4 -32 -8q-16 -4 -37 -6t-47 -2q-27 0 -44.5 2t-27.5 6q-12 4 -20 8 l-211 471h-127l-101 -471q-12 -4 -28 -8q-29 -6 -74 -6q-51 0 -76 6q-16 4 -26 8z" />
<glyph unicode="l" horiz-adv-x="522" d="M29 14l321 1508l25 6q12 4 31.5 6t48.5 2q25 0 44 -2t31 -6l25 -6l-322 -1508q-10 -4 -26 -8q-29 -6 -78 -6q-53 0 -78 6q-14 4 -22 8z" />
<glyph unicode="m" horiz-adv-x="1699" d="M20 14l224 1049q10 2 26 6q14 4 33 6t47 2q25 0 42.5 -2t29.5 -6l24 -6l-18 -92q66 61 138.5 94t162.5 33t159.5 -35t94.5 -115q80 76 161 113t187 37q76 0 131.5 -25.5t88 -72t40.5 -110.5q3 -21 3 -43q0 -44 -11 -93l-158 -740q-10 -4 -26 -8q-29 -6 -78 -6 q-53 0 -78 6q-14 4 -22 8l157 738q7 31 7 57q-1 46 -21 76q-32 47 -125 47q-63 0 -129 -33t-119 -98l-168 -787q-12 -4 -26 -8q-29 -6 -76 -6q-53 0 -78 6q-14 4 -22 8l157 738q7 31 7 57q-1 46 -21 76q-32 47 -125 47q-63 0 -129 -35t-119 -94l-168 -789q-12 -4 -26 -8 q-29 -6 -76 -6q-53 0 -78 6q-14 4 -23 8z" />
<glyph unicode="n" horiz-adv-x="1128" d="M20 14l224 1049q10 2 26 6q14 4 33 6t47 2q25 0 43.5 -2t30.5 -6l25 -6l-21 -94q70 63 147.5 96t169.5 33q154 0 228 -88q49 -59 49 -157q0 -49 -12 -108l-158 -731q-10 -4 -27 -8q-29 -6 -77 -6q-51 0 -76 6q-14 4 -25 8l158 738q6 29 6 53q1 48 -23 80q-36 47 -135 47 q-68 0 -137.5 -35t-122.5 -96l-168 -787q-12 -4 -28 -8q-29 -6 -76 -6q-53 0 -78 6q-14 4 -23 8z" />
<glyph unicode="o" horiz-adv-x="1105" d="M66 300q-2 25 -2 52q0 93 26 211q33 152 84 254.5t122 164.5t159 89t192 27q106 0 183 -33t122 -103q46 -68 54 -178q2 -22 1 -47q0 -94 -26 -215q-33 -152 -84 -256t-119.5 -167.5t-157 -91t-192.5 -27.5t-183 33.5t-124 105t-55 181.5zM266 343q0 -77 22.5 -122 t64.5 -63.5t98 -18.5q55 0 104 18.5t91 63.5t75.5 122t58.5 196t25 195.5t-21.5 121.5t-63.5 63.5t-97 18.5t-105.5 -18.5t-91.5 -63.5t-76 -122t-59 -195q-25 -119 -25 -196z" />
<glyph unicode="p" horiz-adv-x="1136" d="M-80 -461l324 1524q10 2 26 6q14 4 33 6t45 2q27 0 45.5 -2t30.5 -6l25 -6l-21 -98q57 63 135 98t189 35q88 0 151.5 -32t97 -101.5t36.5 -180.5v-19q0 -104 -29 -247q-33 -158 -83.5 -261t-113.5 -164.5t-140 -87t-165 -25.5q-102 0 -166 34.5t-92 98.5l-123 -574 q-10 -4 -27 -6q-29 -6 -80 -6q-49 0 -73 6q-14 2 -25 6zM304 310q5 -48 27.5 -84t60.5 -57.5t91 -21.5q61 0 110.5 18.5t88.5 62.5t69.5 120t55.5 191t27 191v13q0 66 -18 106q-19 44 -60 62.5t-103 18.5q-53 0 -101 -20.5t-85 -56.5t-63.5 -83t-36.5 -98l-58 -262 q-7 -35 -7 -68q0 -17 2 -32z" />
<glyph unicode="q" d="M66 292q-2 24 -2 51q0 93 26 216q33 156 83 260.5t112.5 166t138.5 87t160 25.5q109 0 172 -35t94 -98l29 98q8 2 22 6q10 4 28.5 6t45.5 2q25 0 44 -2t32 -6l24 -6l-323 -1524q-12 -4 -27 -6q-25 -6 -76 -6q-53 0 -78 6q-14 2 -24 6l123 574q-29 -35 -56.5 -59.5 t-59.5 -41t-73 -24.5t-94 -8q-88 0 -157.5 31.5t-111.5 101t-52 179.5zM264 348v-13q0 -67 18 -107q21 -44 62 -62.5t102 -18.5q51 0 97.5 20.5t83.5 55.5t63.5 80t38.5 96l59 273q7 34 7 66q0 16 -2 32q-5 47 -26.5 83t-58 56.5t-90.5 20.5q-61 0 -111 -18.5t-90 -62.5 t-70.5 -119.5t-55.5 -190.5t-27 -191z" />
<glyph unicode="r" horiz-adv-x="808" d="M20 14l224 1049q10 2 26 6q14 4 33 6t47 2q25 0 42.5 -2t27.5 -6q12 -4 20 -6l-20 -121q39 51 77 81t74.5 46t70.5 21.5t65 5.5q57 0 97 -14.5t68 -37.5q-18 -53 -47.5 -93t-74.5 -74q-27 23 -56.5 30.5t-64.5 7.5q-59 0 -124 -42t-120 -113l-160 -746q-10 -4 -26 -8 q-29 -6 -78 -6q-53 0 -78 6q-14 4 -23 8z" />
<glyph unicode="s" horiz-adv-x="907" d="M-27 53q10 45 33 85t55 67q37 -16 80 -27q37 -10 85 -17t102 -7q94 0 152.5 35.5t74.5 111.5q3 17 3 32q0 23 -7 39q-12 28 -40 47t-65.5 32.5t-80.5 25.5q-49 14 -96.5 40t-80 65t-46.5 93q-6 24 -7 52q0 35 10 76q33 137 138.5 216t302.5 79q76 0 127 -9.5t86 -19.5 q37 -12 63 -27q-8 -41 -30.5 -80.5t-53.5 -64.5q-29 8 -61 16q-29 6 -67 11.5t-81 5.5q-209 0 -239 -148q-3 -12 -3 -24q0 -22 11 -40q16 -28 48 -47.5t75 -36t88 -32.5t89 -39.5t74 -60.5q30 -36 42 -90q5 -23 5 -52q0 -35 -9 -77q-35 -156 -143.5 -229.5t-305.5 -73.5 q-82 0 -142.5 11t-101.5 25q-49 16 -84 37z" />
<glyph unicode="t" horiz-adv-x="763" d="M115 944q0 10 1 23.5t5 31.5t9 33t9 25l11 20h157l39 187q46 25 102 35q40 7 80 7q16 0 31 -1l-47 -228h266q2 -10 2 -20q0 -18 -6 -56q-8 -35 -18 -57q-6 -12 -11 -20h-266l-114 -537q-15 -70 -17 -117v-13q0 -37 14 -61q16 -28 48 -39.5t88 -11.5q16 0 34.5 1t34.5 4 q20 2 39 4q2 -10 2 -23q0 -27 -6 -59q-4 -18 -8 -31.5t-8 -24.5q-6 -10 -8 -18q-29 -8 -70 -13t-82 -5q-190 0 -250 100q-35 59 -35 152q0 64 17 145l116 547h-157q-2 10 -2 20z" />
<glyph unicode="u" horiz-adv-x="1126" d="M75 200q-2 21 -2 44q0 44 9 90l154 729q12 2 28 6q14 4 32.5 6t45.5 2t45.5 -2t30.5 -6q14 -4 22 -6l-155 -737q-6 -29 -6 -54q-1 -48 23 -80q36 -48 134 -47q68 0 136.5 34t123.5 97l166 787q12 2 29 6q14 4 33.5 6t44.5 2q27 0 45 -2t30 -6q14 -4 23 -6l-223 -1049 q-8 -4 -21 -8q-23 -6 -75 -6q-51 0 -72 6q-14 4 -23 8l6 95q-68 -70 -140.5 -98.5t-168.5 -28.5q-88 0 -146.5 28.5t-90 77t-38.5 112.5z" />
<glyph unicode="v" horiz-adv-x="1056" d="M131 1063q14 2 31 6q14 4 33.5 6t46.5 2t45 -2t28 -6q12 -4 19 -6l84 -645q4 -43 7 -83t5 -71q1 -18 1 -34.5t-1 -30.5h8q14 29 31 65q14 31 33.5 70t44.5 84l354 645q14 2 31 6q14 4 33.5 6t42.5 2t42 -2t31 -6l25 -6l-584 -1049q-14 -4 -35 -8q-35 -6 -90 -6 q-57 0 -88 6q-18 4 -33 8z" />
<glyph unicode="w" horiz-adv-x="1630" d="M143 1063q8 2 21 6q10 4 28.5 6t43.5 2q18 0 34.5 -2t28.5 -6l25 -6l59 -653q5 -57 5 -102v-15q-1 -51 -3 -84h6q12 35 31.5 84t54.5 117l324 653q16 2 35 6q16 4 36.5 6t42.5 2q25 0 43.5 -2t30.5 -6q14 -4 23 -6l43 -649q3 -56 3 -100v-21q-1 -51 -5 -84h6 q23 59 94 203l326 651q12 2 28 6q14 4 31.5 6t40.5 2t41 -2t31 -6q14 -4 22 -6l-532 -1049q-55 -14 -119 -14q-66 0 -117 14l-39 555q-4 69 -4 124q0 28 1 52q3 72 11 119h-8q-14 -47 -40.5 -118.5t-80.5 -176.5l-280 -555q-49 -14 -119 -14q-33 0 -62.5 3t-54.5 11z" />
<glyph unicode="x" horiz-adv-x="1028" d="M-96 14l485 545l-239 504l30 6q16 4 37 6t49 2q29 0 46.5 -2t27.5 -6q12 -4 20 -6l175 -354l311 354q16 2 35 6q16 4 36.5 6t45.5 2q27 0 46 -2t31 -6l25 -6l-453 -512l254 -537q-12 -4 -30 -8q-31 -6 -84 -6q-55 0 -76 6q-12 4 -19 8l-186 387l-344 -387q-14 -4 -35 -8 q-35 -6 -84 -6q-51 0 -78 6q-16 4 -26 8z" />
<glyph unicode="y" horiz-adv-x="1126" d="M-47 -438q10 41 33.5 77.5t54.5 59.5q27 -14 63 -23q29 -10 71 -16t91 -6q72 0 131.5 10t106.5 47t82 110t59 199l14 74q-68 -63 -140.5 -88.5t-168.5 -25.5q-162 0 -234 92q-48 62 -48 154q0 45 12 98l156 739q12 2 28 6q14 4 32.5 6t45.5 2t45.5 -2t30.5 -6 q14 -4 22 -6l-155 -737q-6 -29 -6 -54q0 -48 23 -80q36 -47 134 -47q68 0 136.5 34t123.5 97l166 787q12 2 29 6q14 4 33.5 6t44.5 2q27 0 45 -2t30 -6q14 -4 23 -6l-217 -1028q-31 -147 -80 -250.5t-119.5 -169.5t-168 -96.5t-224.5 -30.5q-80 0 -137.5 11.5t-93.5 25.5 q-43 16 -74 37z" />
<glyph unicode="z" horiz-adv-x="954" d="M-43 0q0 18 1 40.5t5 47.5q10 45 29 80l702 741h-510v25q0 10 1 25.5t5 35.5t10.5 36t10.5 26l10 20h725q2 -10 2 -22q0 -24 -8 -58q-4 -25 -12 -48t-19 -40l-700 -741h543q2 -8 2 -21q0 -25 -6 -63q-4 -20 -10.5 -35.5t-10.5 -25.5q-6 -12 -10 -23h-760z" />
<glyph unicode="{" horiz-adv-x="716" d="M76 606q-6 31 4 80q4 23 12 42.5t17 35.5h57q47 0 71.5 24.5t34.5 65.5l113 532q27 123 110 198t220 75h139q6 -29 -4 -78q-4 -23 -12.5 -42t-16.5 -36h-100q-66 0 -100.5 -30.5t-49.5 -90.5l-104 -491q-14 -70 -43 -121t-82 -84q39 -33 46 -84t-7 -123l-105 -491 q-12 -59 9.5 -90t87.5 -31h100q6 -31 -4 -80q-8 -43 -29 -76h-139q-137 0 -189.5 75t-25.5 198l115 532q8 41 -6.5 65.5t-61.5 24.5h-57z" />
<glyph unicode="|" horiz-adv-x="575" d="M-31 -389l422 1993q10 2 27 6q14 4 32.5 6t47.5 2q25 0 43 -2t30 -6l25 -6l-422 -1993q-12 -4 -29 -8q-29 -6 -77 -6q-51 0 -76 6q-14 4 -23 8z" />
<glyph unicode="}" horiz-adv-x="718" d="M-113 -289q-6 29 4 76q8 43 29 80h100q66 0 102 30.5t48 90.5l104 491q14 72 43 122t80 85q-35 33 -43 84t6 121l105 491q14 59 -8.5 90t-87.5 31h-101q-2 16 -1 36t5 42q8 45 29 78h141q137 0 189.5 -75t25.5 -198l-112 -532q-10 -41 4 -65.5t61 -24.5h56q2 -16 1 -35.5 t-5 -42.5q-8 -43 -29 -80h-55q-47 0 -72 -24.5t-33 -65.5l-115 -532q-27 -123 -109.5 -198t-219.5 -75h-142z" />
<glyph unicode="~" horiz-adv-x="1069" d="M125 582q31 37 70 65q35 25 85 45.5t115 20.5q51 0 86 -16.5t66 -36t64.5 -36t82.5 -16.5q37 0 65.5 11.5t51.5 25.5q25 16 45 39q35 -12 53.5 -39t18.5 -61q-31 -39 -70 -68q-35 -25 -86 -45t-117 -20q-51 0 -85.5 16t-65.5 35.5t-65 36t-83 16.5q-37 0 -66.5 -11.5 t-49.5 -25.5q-25 -16 -43 -37q-37 10 -55.5 38t-16.5 63z" />
<glyph unicode="&#xa1;" horiz-adv-x="532" d="M-61 -399l260 1067q8 2 20 6q10 2 24.5 4t32.5 2t32 -2t24 -4l18 -6l-190 -1067q-12 -4 -29 -9q-29 -6 -86 -6t-82 6q-16 4 -24 9zM209 854l41 193q12 2 29 6q14 4 33.5 6t45.5 2q29 0 48.5 -2t31.5 -6l25 -6l-41 -193q-12 -4 -29 -8q-29 -6 -82 -6t-78 6q-14 4 -24 8z " />
<glyph unicode="&#xa2;" horiz-adv-x="950" d="M94 539q53 252 177 392t319 163l26 190q2 2 28 9t61 7q41 0 60 -7t21 -9l-53 -188q53 -4 90 -12.5t60 -16.5q27 -8 45 -20q-10 -41 -33 -77t-57 -63q-20 6 -47 15q-23 6 -54.5 11t-72.5 5q-147 0 -232.5 -99.5t-126.5 -299.5q-43 -203 4 -298.5t195 -95.5q41 0 77.5 5.5 t65.5 11.5q33 8 58 18q20 -23 27 -59.5t1 -79.5q-27 -14 -61 -25q-31 -10 -74 -20t-102 -14l-27 -189q-2 -2 -25.5 -9t-62.5 -7q-35 0 -57.5 7t-24.5 9l55 191q-186 23 -249.5 163t-10.5 392z" />
<glyph unicode="&#xa3;" horiz-adv-x="1087" d="M10 0l39 184q78 61 126 118.5t73.5 110t34 103.5t6.5 100h-168q-2 2 -3 21.5t7 54.5q6 31 15.5 50.5t11.5 21.5h124q-8 61 -10 127.5t15 142.5q20 100 68 173t115.5 119t151.5 67.5t181 21.5q113 0 197.5 -23.5t133.5 -45.5q-12 -94 -92 -148q-35 14 -100.5 29.5 t-142.5 17.5q-111 0 -194 -49t-107 -168q-14 -66 -11.5 -132.5t8.5 -131.5h373q0 -2 2 -20.5t-4 -49.5q-6 -33 -17.5 -54.5t-11.5 -23.5h-337q0 -53 -9.5 -105t-34 -106.5t-69.5 -109.5t-115 -111h606q2 -2 4.5 -26.5t-6.5 -65.5q-10 -41 -22 -65.5t-14 -26.5h-824z" />
<glyph unicode="&#xa4;" horiz-adv-x="1216" d="M20 166l185 151q-25 49 -33 109.5t8 128.5q14 66 46 126t79 112l-119 151q2 10 11 21q6 10 15 21t26 24q31 25 53 32q10 4 20 5l119 -152q121 76 254 76q66 0 122 -20.5t99 -55.5l182 152q10 0 19 -5q20 -8 39 -32q16 -23 20 -45q2 -10 2 -21l-182 -151q25 -49 33 -110.5 t-6 -127.5q-16 -68 -48 -128t-79 -112l119 -149l-11 -21q-6 -10 -14 -21t-25 -24q-16 -16 -29.5 -22t-23.5 -10t-20 -5l-121 150q-57 -35 -123 -54.5t-131 -19.5q-133 0 -223 74l-181 -150q-10 0 -18 7q-20 6 -41 32q-10 12 -14 22.5t-6 20.5t-3 21zM322 447.5 q10 -50.5 38.5 -87t73.5 -57t103 -20.5q57 0 111 20.5t99.5 57t77 87t43.5 107.5t2 107.5t-39.5 87t-75 57t-102.5 20.5t-111.5 -20.5t-98.5 -57t-75.5 -87t-43.5 -107.5t-2 -107.5z" />
<glyph unicode="&#xa5;" horiz-adv-x="1261" d="M117 293q-2 29 4 67q8 37 24 62h336l31 147h-336q-2 29 4 66q4 18 10.5 34.5t12.5 28.5h266l-252 684q12 4 31 9q16 4 36.5 7t49.5 3q27 0 47 -2t35 -6q16 -4 26 -9l215 -610l502 612q12 2 29 7q14 4 33.5 6t46.5 2q23 0 41 -2t30 -6q14 -4 27 -7l-569 -688h264 q4 -12 3 -28.5t-5 -34.5q-8 -33 -25 -66h-332l-30 -147h332q2 -12 1 -28.5t-6 -33.5q-4 -20 -10 -36.5t-14 -30.5h-332l-59 -279q-10 -4 -25 -8q-25 -6 -74 -6t-69 6q-14 4 -23 8l60 279h-336z" />
<glyph unicode="&#xa6;" horiz-adv-x="569" d="M-25 -387l195 911l25 6q12 2 31.5 4.5t47.5 2.5q25 0 43.5 -2.5t30.5 -4.5q14 -4 23 -6l-195 -911q-10 -4 -24 -8q-25 -6 -76 -6q-53 0 -78 6q-14 4 -23 8zM207 694l192 912l25 6q12 2 31.5 4t48.5 2q25 0 43 -2t31 -4q14 -4 22 -6l-192 -912q-12 -4 -27 -8 q-25 -6 -76 -6t-76 6q-14 4 -22 8z" />
<glyph unicode="&#xa7;" horiz-adv-x="993" d="M10 31q0 35 17.5 73.5t54.5 61.5q12 -4 38.5 -9t61.5 -11.5t76 -10.5t82 -4q109 0 182.5 29.5t89.5 107.5q10 51 -24.5 79t-93 47.5t-127 37t-125 47t-87 78.5t-12.5 133q16 78 67.5 136.5t98.5 93.5q-35 33 -52 81t-1 125q31 145 148.5 216t285.5 71q88 0 158 -14.5 t117 -30.5q-2 -31 -19.5 -69.5t-50.5 -61.5q-23 6 -82 17.5t-125 11.5q-104 0 -170.5 -32t-83.5 -106q-10 -51 24 -78.5t90 -46t122.5 -35t120 -46t83 -79.5t11.5 -134q-16 -76 -64.5 -129.5t-91.5 -87.5q47 -35 68.5 -87.5t5.5 -138.5q-16 -80 -61.5 -134t-108 -88 t-140 -49t-161.5 -15q-72 0 -130.5 7t-101.5 17q-51 10 -90 27zM322 717q-10 -43 13 -68.5t66 -43t97.5 -29t107.5 -27.5q29 25 58.5 56.5t40.5 76.5q8 43 -15.5 68.5t-65.5 42t-95.5 29t-104.5 30.5q-29 -23 -60.5 -56.5t-41.5 -78.5z" />
<glyph unicode="&#xa8;" horiz-adv-x="931" d="M145 1264l35 166l25 6q12 2 30.5 4t43.5 2q23 0 39 -2t26 -4q12 -4 23 -6l-35 -166q-10 -4 -25 -7q-25 -6 -69 -6q-49 0 -70 6q-12 2 -23 7zM494 1264l34 166l25 6q12 2 29.5 4t42.5 2q23 0 40 -2t27 -4q12 -4 23 -6l-35 -166q-10 -4 -25 -7q-25 -6 -71 -6q-49 0 -70 6 q-12 2 -20 7z" />
<glyph unicode="&#xa9;" horiz-adv-x="1638" d="M125 420q-29 129 2 276t115 275.5t200.5 224.5t257 151.5t287.5 55.5t264 -55.5t192 -151.5t102.5 -224t-3.5 -276q-31 -147 -113.5 -276t-198.5 -225.5t-256.5 -151.5t-287.5 -55t-264 55t-192.5 151.5t-104.5 225.5zM260 473q23 -104 84.5 -182t156.5 -123t214 -45 t232.5 45t206.5 123t160.5 182.5t92.5 222.5q25 119 3.5 223.5t-83 181.5t-156 122t-213.5 45t-233.5 -45t-208.5 -122t-161.5 -181.5t-92.5 -223.5t-2 -223zM487 711q88 408 445 407q51 0 89 -7t64 -15q31 -10 52 -23q-14 -68 -72 -110q-20 8 -43 16q-20 6 -47 11t-55 5 q-102 0 -173 -62.5t-106 -223.5q-16 -78 -12 -131.5t25.5 -86t59.5 -46t87 -13.5q33 0 62.5 4t51.5 8q27 6 52 13q27 -18 29.5 -48t-3.5 -61q-29 -14 -65 -24q-31 -10 -74 -16.5t-96 -6.5q-178 0 -245 105.5t-26 304.5z" />
<glyph unicode="&#xaa;" horiz-adv-x="741" d="M66 381q-2 31 4 61.5t22 57.5h494q4 -29 -3.5 -59.5t-23.5 -59.5h-493zM145 815q23 104 95.5 153.5t191.5 49.5q53 0 88 -2t41 -4l10 45q23 113 -94 112q-33 0 -63.5 -5t-55.5 -11q-29 -8 -55 -14q-12 20 -17 46.5t1 55.5q33 14 69 25q33 10 75 17t89 7q129 0 172 -56 t19 -171l-93 -434q-6 -4 -14 -6q-16 -6 -43 -7q-27 0 -41 7q-8 2 -14 6l-2 59q-35 -39 -88.5 -61.5t-116.5 -22.5q-90 0 -133 53.5t-21 157.5zM287 815q-12 -53 9 -75.5t69 -22.5q66 0 109.5 47t57.5 110l9 37q-6 2 -39 3t-76 1q-57 0 -93 -23.5t-46 -76.5z" />
<glyph unicode="&#xab;" horiz-adv-x="1064" d="M72 485v24.5t4 35.5q8 39 22 67q6 14 13 25l501 405q23 -20 33 -53t10 -67l-399 -371l242 -369q-14 -35 -39 -67.5t-56 -53.5l-329 402q-2 10 -2 22zM467 487v24.5t4 33.5q10 43 23 65q6 12 12 23l469 379q23 -18 32 -50t9 -65l-371 -346l223 -344q-14 -33 -36.5 -64.5 t-51.5 -50.5l-311 375q-2 8 -2 20z" />
<glyph unicode="&#xac;" horiz-adv-x="1232" d="M134 776.5q1 16.5 5 34.5q8 35 23 63q8 12 14 25h959l-115 -541q-10 -6 -25 -10q-12 -4 -28.5 -6t-36.5 -2q-23 0 -38 2t-26 6q-12 4 -20 10l78 367h-785q-2 10 -4 25q-2 10 -1 26.5z" />
<glyph unicode="&#xad;" horiz-adv-x="503" />
<glyph unicode="&#xae;" horiz-adv-x="1124" d="M194.5 796q-18.5 81 0.5 173q18 92 68 171t121 138t157 93t178 34t165.5 -35t123 -95.5t68 -141t-0.5 -172.5q-18 -92 -68.5 -171t-121 -138.5t-156.5 -93.5t-178 -34t-166 35t-123 95.5t-67.5 141.5zM283 827.5q14 -63.5 52 -110.5t96 -75t130 -28q74 0 143.5 28t127 75 t97.5 110.5t56 137.5q14 74 1 137t-51 110.5t-95 75t-131 27.5q-72 0 -141.5 -27.5t-127 -75t-99.5 -111t-56 -136.5q-16 -74 -2 -137.5zM434 748l96 458h187q74 0 107.5 -38t19.5 -103q-10 -47 -40 -81t-77 -50l80 -180q-8 -4 -16 -9q-16 -6 -41 -6q-16 0 -33 4q-8 2 -12 5 l-80 176h-66l-37 -176q-6 -2 -14 -5q-16 -4 -31 -4q-10 0 -17 1t-14 3q-8 2 -12 5zM575 999h93q72 0 84 66q14 68 -56 68h-92z" />
<glyph unicode="&#xaf;" horiz-adv-x="833" d="M45 1290q-10 66 27 125h637q6 -29 -2.5 -62.5t-24.5 -62.5h-637z" />
<glyph unicode="&#xb0;" horiz-adv-x="716" d="M225 1172.5q-6 44.5 4 91.5t37 94t68 84t95 59.5t120 22.5q63 0 107 -22.5t69 -58.5t32 -81t-3 -92t-36 -93.5t-66 -82t-94 -57t-118 -21.5q-68 0 -112.5 21.5t-70.5 56t-32 79zM346 1266q-10 -53 15.5 -97.5t101.5 -44.5q72 0 116 44.5t56 99.5q10 55 -14.5 100 t-96.5 45q-37 0 -66.5 -13.5t-52 -33.5t-38 -47t-21.5 -53z" />
<glyph unicode="&#xb1;" horiz-adv-x="1040" d="M76 281q0 10 1 23t5 32q4 16 9 30.5t9 24.5l11 21h733q2 -10 2 -21q0 -23 -6 -55q-10 -37 -19 -55l-10 -21h-733q-2 10 -2 21zM180 768v23.5t4 31.5q4 16 9.5 30.5t9.5 25.5l10 20h291l49 229q8 2 20 7q10 2 24.5 4t33.5 2q16 0 30.5 -2t24.5 -4l19 -7l-50 -229h291 q2 -10 2 -20q0 -23 -6 -56q-6 -35 -16 -55l-11 -20h-290l-50 -230q-10 -4 -22 -6q-23 -6 -57 -6q-35 0 -54 6q-10 2 -18 6l49 230h-291q-2 10 -2 20z" />
<glyph unicode="&#xb2;" horiz-adv-x="616" d="M90 709v24q0 27 8 60q14 70 50 116.5t82 79.5t95.5 56.5t93.5 47t75.5 50t40.5 67.5q10 47 -21 72t-96 25q-41 0 -81 -8.5t-56 -12.5q-16 23 -18.5 48.5t5.5 54.5q27 8 60 16q29 6 64.5 11t78.5 5q111 0 169 -51t36 -151q-12 -57 -42 -96.5t-69 -68t-84 -50t-89 -46 t-83 -54.5t-63 -75h323q4 -27 -2 -61q-6 -29 -22 -59h-455z" />
<glyph unicode="&#xb3;" horiz-adv-x="612" d="M84 737q6 27 20.5 54.5t38.5 44.5q18 -6 41 -13q45 -10 105 -10q86 0 125 28.5t49 76.5q23 102 -103 102h-96q-4 27 2 55.5t21 54.5h96q55 0 84 24t37 63q20 90 -98 90q-31 0 -57.5 -3.5t-49.5 -7.5q-25 -4 -45 -8q-31 35 -14 98q25 8 55 17q27 6 63.5 12t79.5 6 q117 0 173.5 -48t37.5 -140q-12 -53 -39.5 -91t-81.5 -63q47 -23 67.5 -63.5t4.5 -112.5q-20 -90 -96 -147.5t-234 -57.5q-47 0 -81.5 5.5t-57.5 13.5q-27 8 -47 20z" />
<glyph unicode="&#xb4;" horiz-adv-x="458" d="M20 1368l250 289q51 6 92 -28t58 -68l-297 -256q-35 6 -62.5 21t-40.5 42z" />
<glyph unicode="&#xb5;" horiz-adv-x="1198" d="M-25 -502q-2 41 7 109q6 57 19 146t42 218l231 1092q12 2 29 6q14 4 32.5 6t45.5 2t45 -2t31 -6q14 -4 22 -6l-155 -739q-8 -39 -5 -72t20 -56.5t51 -37t87 -13.5q72 0 140.5 39t117.5 92l166 787q12 2 29 6q14 4 32.5 6t45.5 2t45 -2t30 -6q14 -4 23 -6l-223 -1049 q-10 -4 -25 -8q-25 -6 -80 -6q-51 0 -76 6q-14 4 -24 8l18 78q-123 -113 -282 -112q-74 0 -117 21.5t-66 49.5q-20 -133 -26 -229t-6 -162q0 -76 6 -127q-25 -16 -54.5 -26.5t-61.5 -15.5t-61.5 -3t-52.5 10z" />
<glyph unicode="&#xb6;" horiz-adv-x="1200" d="M133 915.5q-8 67.5 8 137.5q16 72 55.5 139.5t98.5 120.5t136 86t171 33h148l-402 -1887q-8 -4 -20 -6q-10 -2 -25.5 -3t-36.5 -1q-23 0 -37 1t-24 3t-19 6l240 1129q-92 2 -153.5 34.5t-96.5 86t-43 121zM610 -455l398 1876q8 2 20 4q10 2 25.5 4.5t38.5 2.5 q20 0 34.5 -2.5t24.5 -4.5t18 -4l-397 -1876q-10 -4 -22 -6q-10 -2 -25.5 -3t-36.5 -1q-23 0 -36 1t-23 3t-19 6z" />
<glyph unicode="&#xb7;" horiz-adv-x="473" d="M115 500l35 166l24 6q12 4 30.5 6t43.5 2q23 0 40 -2t27 -6q12 -4 23 -6l-35 -166q-12 -4 -27 -8q-25 -6 -71 -7q-49 0 -70 7q-12 4 -20 8z" />
<glyph unicode="&#xb8;" horiz-adv-x="606" d="M-307 -403q10 59 61 86q14 -8 48 -18.5t79 -10.5q55 0 97 23.5t55 80.5q10 41 -12.5 68t-81.5 27h-74l-21 28l86 219l109 -26l-51 -127q57 0 96 -17.5t59.5 -47t24.5 -68.5t-4 -82q-23 -102 -100.5 -143.5t-194.5 -41.5q-47 0 -79 7.5t-54 17.5q-25 10 -43 25z" />
<glyph unicode="&#xb9;" horiz-adv-x="501" d="M171 1214q-3 31 7 62q76 18 132.5 50t103.5 75q31 8 71 8q37 0 64 -8l-146 -686q-16 -4 -33.5 -6t-33.5 -2q-39 0 -72 8l94 440q10 51 21 84q-41 -27 -90 -46t-99 -28q-16 18 -19 49z" />
<glyph unicode="&#xba;" horiz-adv-x="768" d="M78 381q0 27 6 61q4 16 9 30.5t11 27.5h500v-26.5t-4 -31.5q-4 -16 -10 -32.5t-12 -28.5h-500zM174 958q20 92 52 156t76 102.5t99.5 56t122.5 17.5q133 0 189.5 -81t15.5 -269t-129 -262t-221 -74q-135 0 -190.5 83t-14.5 271zM302 836.5q-1 -43.5 9.5 -69.5t34 -36 t57.5 -10q33 0 59.5 10t48 36t39.5 69.5t32 111.5q29 133 6 180.5t-88 47.5q-35 0 -62.5 -10.5t-49 -37t-39 -69.5t-32.5 -111q-14 -68 -15 -111.5z" />
<glyph unicode="&#xbb;" horiz-adv-x="1062" d="M16 207l371 344l-223 346q14 33 36.5 64.5t51.5 50.5l309 -379q2 -10 2 -23q0 -10 -2 -27.5t-6 -37.5q-10 -41 -18 -58q-6 -12 -13 -20l-467 -375q-23 18 -32 50t-9 65zM377 182l397 369l-239 371q14 35 37.5 67.5t56.5 52.5l327 -405q2 -10 2 -25q0 -12 -1 -28.5 t-5 -38.5q-4 -20 -10 -34.5t-10 -25.5q-6 -12 -12 -22l-500 -402q-23 20 -33 53t-10 68z" />
<glyph unicode="&#xbc;" horiz-adv-x="1363" d="M76 -8l1095 1433q8 2 21 7q10 2 24.5 4t34.5 2q18 0 31.5 -2t24.5 -4l18 -7l-1098 -1433q-10 -4 -22 -6q-23 -6 -55 -6q-35 0 -54 6q-10 2 -20 6zM190 1214q-3 31 7 62q76 18 133 50t104 75q31 8 70 8t63 -8l-145 -686q-16 -4 -33.5 -6t-34.5 -2q-39 0 -71 8l94 440 q10 51 20 84q-41 -27 -89 -46t-99 -28q-16 18 -19 49zM641 170q-4 18 0 45q6 27 16 43l428 434q31 10 70 10q33 0 64 -10l-91 -420h80q4 -27 -2 -51q-4 -16 -9 -27.5t-9 -23.5h-80l-35 -162q-31 -8 -61 -8q-35 0 -58 8l35 162h-348zM805 272h205l57 265z" />
<glyph unicode="&#xbd;" horiz-adv-x="1468" d="M76 -8l1095 1433q8 2 21 7q10 2 24.5 4t34.5 2q18 0 31.5 -2t24.5 -4l18 -7l-1098 -1433q-10 -4 -22 -6q-23 -6 -55 -6q-35 0 -54 6q-10 2 -20 6zM189.5 1214q-3.5 31 7.5 62q76 18 133 50t104 75q31 8 70 8t63 -8l-145 -686q-16 -4 -33.5 -6t-34.5 -2q-39 0 -71 8 l94 440q10 51 20 84q-41 -27 -89 -46t-99 -28q-16 18 -19.5 49zM772 0q0 12 2 25q2 10 3 25.5t5 33.5q14 70 50 117t81 79.5t95.5 56t93.5 47.5t74.5 50.5t40.5 67.5q18 96 -113 96q-43 0 -83 -7t-56 -13q-31 43 -11 102q25 8 58 16q29 6 64.5 11.5t78.5 5.5 q111 0 170 -51.5t37 -151.5q-12 -57 -42 -96t-70 -68t-86 -50.5t-90 -46t-82 -54t-62 -74.5h323q4 -35 -2 -62q-6 -33 -24 -59h-455z" />
<glyph unicode="&#xbe;" horiz-adv-x="1460" d="M109 737q6 27 21 54.5t40 44.5q18 -6 41 -13q41 -10 102 -10q86 0 125 28.5t49 76.5q23 102 -102 102h-94q-6 27 0 55.5t22 54.5h95q55 0 84.5 24t37.5 63q20 90 -100 90q-31 0 -57.5 -3.5t-48.5 -7.5q-25 -4 -45 -8q-12 16 -16.5 42.5t3.5 55.5q25 8 56 17q27 6 62.5 12 t78.5 6q117 0 173 -48t38 -140q-12 -53 -40 -91t-81 -63q47 -23 68.5 -63.5t5.5 -112.5q-20 -90 -97 -147.5t-235 -57.5q-47 0 -82 5.5t-57 13.5q-27 8 -47 20zM172 -8l1096 1433q8 2 20 7q10 2 24.5 4t35.5 2q18 0 31.5 -2t23.5 -4l18 -7l-1097 -1433q-10 -4 -23 -6 q-23 -6 -55 -6q-35 0 -53 6q-10 2 -21 6zM737 170q-4 23 0 47q6 23 17 41l428 434q31 10 69 10q33 0 64 -10l-90 -420h80q4 -27 -2 -51q-4 -16 -9.5 -27.5t-9.5 -23.5h-80l-35 -162q-31 -8 -61 -8q-35 0 -57 8l34 162h-348zM901 272h205l57 265z" />
<glyph unicode="&#xbf;" horiz-adv-x="872" d="M-55 -150.5q-16 66.5 2 158.5q20 100 61 165t91.5 111t105.5 79.5t104 73.5t87 93.5t57 135.5q8 2 20 6q10 4 25.5 6t36.5 2q18 0 32.5 -2t24.5 -6t20 -6q-23 -111 -60.5 -179.5t-82.5 -115.5t-92 -80t-90 -68t-76 -82t-49 -123q-23 -106 28.5 -151t159.5 -45 q55 0 100.5 6t77.5 16q37 10 68 25q31 -25 39 -62.5t-6 -82.5q-41 -20 -94 -37q-45 -14 -107.5 -24.5t-140.5 -10.5q-90 0 -162 21.5t-118 65.5t-62 110.5zM467 858l41 193q12 2 29 6q14 4 33.5 6t45.5 2q29 0 48.5 -2t31.5 -6l25 -6l-41 -193q-10 -4 -27 -8q-29 -6 -82 -6 t-77 6q-16 4 -27 8z" />
<glyph unicode="&#xc0;" horiz-adv-x="1339" d="M-98 14l823 1446q14 2 35 6q16 4 38.5 6.5t51.5 2.5t51.5 -2.5t38.5 -6.5l31 -6l205 -1446q-12 -4 -29 -8q-29 -6 -86 -6q-51 0 -72 6q-12 4 -18 8l-49 361h-607l-202 -361q-16 -4 -35 -8q-31 -6 -82 -6q-47 0 -72 6q-14 4 -22 8zM410 545h487l-72 528q-6 41 -8 74t-4 57 q-2 29 -2 53h-6zM678 1815q14 18 37.5 32.5t50.5 25.5t54.5 15t51.5 2l134 -288q-23 -27 -58 -42.5t-71 -21.5z" />
<glyph unicode="&#xc1;" horiz-adv-x="1339" d="M-98 14l823 1446q14 2 35 6q16 4 38.5 6.5t51.5 2.5t51.5 -2.5t38.5 -6.5l31 -6l205 -1446q-12 -4 -29 -8q-29 -6 -86 -6q-51 0 -72 6q-12 4 -18 8l-49 361h-607l-202 -361q-16 -4 -35 -8q-31 -6 -82 -6q-47 0 -72 6q-14 4 -22 8zM410 545h487l-72 528q-6 41 -8 74t-4 57 q-2 29 -2 53h-6zM766 1604l256 288q51 6 98 -17.5t64 -57.5l-314 -277q-35 6 -62.5 21.5t-41.5 42.5z" />
<glyph unicode="&#xc2;" horiz-adv-x="1339" d="M-98 14l823 1446q14 2 35 6q16 4 38.5 6.5t51.5 2.5t51.5 -2.5t38.5 -6.5l31 -6l205 -1446q-12 -4 -29 -8q-29 -6 -86 -6q-51 0 -72 6q-12 4 -18 8l-49 361h-607l-202 -361q-16 -4 -35 -8q-31 -6 -82 -6q-47 0 -72 6q-14 4 -22 8zM410 545h487l-72 528q-6 41 -8 74t-4 57 q-2 29 -2 53h-6zM569 1640l330 234h53l234 -234q-20 -31 -49 -55t-64 -35l-184 150l-234 -150q-31 10 -53 35t-33 55z" />
<glyph unicode="&#xc3;" horiz-adv-x="1339" d="M-98 14l823 1446q14 2 35 6q16 4 38.5 6.5t51.5 2.5t51.5 -2.5t38.5 -6.5l31 -6l205 -1446q-12 -4 -29 -8q-29 -6 -86 -6q-51 0 -72 6q-12 4 -18 8l-49 361h-607l-202 -361q-16 -4 -35 -8q-31 -6 -82 -6q-47 0 -72 6q-14 4 -22 8zM410 545h487l-72 528q-6 41 -8 74t-4 57 q-2 29 -2 53h-6zM580 1655q16 31 41 55q23 23 56.5 41t80.5 23q45 2 76.5 -9.5t57.5 -25t51.5 -25.5t57.5 -10q20 0 38 8t30 19q14 10 25 26q29 -6 52 -23.5t32 -45.5q-18 -31 -45 -54q-23 -20 -59 -38.5t-83 -20.5q-43 -2 -73.5 8t-57 24.5t-51.5 26t-55 8.5 q-25 -2 -42.5 -10t-29.5 -18q-14 -10 -25 -25q-33 4 -53 21.5t-24 44.5z" />
<glyph unicode="&#xc4;" horiz-adv-x="1339" d="M-98 14l823 1446q14 2 35 6q16 4 38.5 6.5t51.5 2.5t51.5 -2.5t38.5 -6.5l31 -6l205 -1446q-12 -4 -29 -8q-29 -6 -86 -6q-51 0 -72 6q-12 4 -18 8l-49 361h-607l-202 -361q-16 -4 -35 -8q-31 -6 -82 -6q-47 0 -72 6q-14 4 -22 8zM410 545h487l-72 528q-6 41 -8 74t-4 57 q-2 29 -2 53h-6zM594 1587l35 166q8 2 22 6q12 2 29.5 4t42.5 2q23 0 40 -2t30 -4q12 -4 22 -6l-35 -166q-10 -4 -24 -6q-25 -6 -72 -6q-49 0 -70 6q-12 2 -20 6zM942 1587l35 166q8 2 22 6q12 2 30 4t42 2q23 0 40 -2t30 -4q12 -4 22 -6l-35 -166q-10 -4 -24 -6 q-25 -6 -72 -6q-49 0 -69 6q-12 2 -21 6z" />
<glyph unicode="&#xc5;" horiz-adv-x="1339" d="M-98 14l796 1399q-45 27 -65.5 75t-3.5 118q12 55 41.5 97t69.5 70.5t87 43t95 14.5q45 0 86 -14.5t70.5 -42t43 -70.5t0.5 -98q-16 -66 -55 -113t-92 -74l201 -1405q-12 -4 -29 -8q-29 -6 -86 -6q-51 0 -72 6q-12 4 -18 8l-49 361h-607l-206 -361q-14 -4 -33 -8 q-31 -6 -80 -6q-47 0 -72 6q-14 4 -22 8zM410 545h487l-74 524q-6 41 -8 74t-4 57q-2 29 -2 53h-6q-10 -25 -25 -53q-12 -25 -28.5 -58.5t-38.5 -72.5zM745 1606q-10 -47 12.5 -85t88.5 -38t107 38t51 85t-15.5 83.5t-91.5 36.5t-103.5 -37.5t-48.5 -82.5z" />
<glyph unicode="&#xc6;" horiz-adv-x="1769" d="M-117 16l1196 1459h750q10 -41 -2 -88.5t-35 -81.5h-561l-101 -476h459q6 -41 -3 -86t-34 -84h-458l-103 -489h582q8 -43 -2 -89t-35 -81h-758l78 367h-469l-283 -351q-49 -16 -116 -16q-31 0 -59.5 3t-45.5 13zM524 537h369l131 616z" />
<glyph unicode="&#xc7;" horiz-adv-x="1144" d="M120 473q-1 139 34 309q80 371 264 542t479 171q86 0 148.5 -11t103.5 -24q49 -16 84 -35q0 -10 -4 -22q-8 -27 -29 -60q-10 -20 -21.5 -32.5t-21.5 -22.5t-20 -16q-33 12 -72 22q-35 10 -81 17.5t-101 7.5q-88 0 -168 -26.5t-147.5 -93t-121 -179.5t-90.5 -285 t-30.5 -282.5t46.5 -176t108.5 -91t156.5 -25.5q61 0 113.5 6t93.5 16q47 10 86 25q4 -6 12 -17q4 -10 10.5 -23.5t10.5 -29.5q6 -33 2 -61q-2 -14 -4 -27q-43 -20 -101 -35q-49 -12 -118.5 -23t-155.5 -11l-43 -93q117 0 153.5 -54t18.5 -140q-23 -102 -98.5 -153.5 t-192.5 -51.5q-47 0 -79 7t-54 18q-25 10 -43 24q10 59 61 86q14 -8 48 -18.5t79 -10.5q55 0 97 24t55 81q8 41 -14.5 67.5t-81.5 26.5h-74l-21 29l74 166q-119 16 -196.5 78.5t-115.5 165t-39 241.5z" />
<glyph unicode="&#xc8;" horiz-adv-x="1138" d="M53 0l314 1475h831q2 -18 3 -38t-3 -42q-12 -51 -37 -90h-622l-101 -476h520q2 -18 3.5 -38.5t-3.5 -42.5q-4 -23 -14 -44.5t-20 -41.5h-521l-104 -492h643q2 -20 2 -39.5t-4 -42.5q-8 -41 -35 -88h-852zM608 1815q14 18 38 32.5t50.5 25.5t54 15t52.5 2l133 -288 q-23 -27 -57.5 -42.5t-71.5 -21.5z" />
<glyph unicode="&#xc9;" horiz-adv-x="1138" d="M53 0l314 1475h831q2 -18 3 -38t-3 -42q-12 -51 -37 -90h-622l-101 -476h520q2 -18 3.5 -38.5t-3.5 -42.5q-4 -23 -14 -44.5t-20 -41.5h-521l-104 -492h643q2 -20 2 -39.5t-4 -42.5q-8 -41 -35 -88h-852zM651 1606l256 288q49 6 97.5 -17.5t64.5 -57.5l-315 -277 q-35 6 -62.5 21.5t-40.5 42.5z" />
<glyph unicode="&#xca;" horiz-adv-x="1138" d="M53 0l314 1475h831q2 -18 3 -38t-3 -42q-12 -51 -37 -90h-622l-101 -476h520q2 -18 3.5 -38.5t-3.5 -42.5q-4 -23 -14 -44.5t-20 -41.5h-521l-104 -492h643q2 -20 2 -39.5t-4 -42.5q-8 -41 -35 -88h-852zM506 1640l332 234h53l233 -234q-23 -31 -50 -55t-62 -35l-185 146 l-243 -146q-31 10 -49.5 35t-28.5 55z" />
<glyph unicode="&#xcb;" horiz-adv-x="1138" d="M53 0l314 1475h831q2 -18 3 -38t-3 -42q-12 -51 -37 -90h-622l-101 -476h520q2 -18 3.5 -38.5t-3.5 -42.5q-4 -23 -14 -44.5t-20 -41.5h-521l-104 -492h643q2 -20 2 -39.5t-4 -42.5q-8 -41 -35 -88h-852zM530 1561l35 165q8 2 23 7q12 2 30.5 4t43.5 2q23 0 40 -2t27 -4 q12 -4 23 -7l-35 -165q-10 -4 -25 -7q-25 -6 -69 -6q-51 0 -72 6q-12 2 -21 7zM879 1561l34 165q8 2 23 7q12 2 29.5 4t42.5 2q23 0 40 -2t29 -4q12 -4 23 -7l-35 -165q-10 -4 -25 -7q-25 -6 -71 -6q-49 0 -70 6q-12 2 -20 7z" />
<glyph unicode="&#xcc;" horiz-adv-x="577" d="M53 14l309 1446q10 2 27 6q14 4 32.5 6.5t45.5 2.5t47.5 -2.5t32.5 -6.5l24 -6l-309 -1446q-12 -4 -29 -8q-29 -6 -77 -6q-55 0 -80 6q-14 4 -23 8zM309 1815q14 18 38 32.5t50.5 25.5t54 15t52.5 2l133 -288q-23 -27 -57.5 -42.5t-71.5 -21.5z" />
<glyph unicode="&#xcd;" horiz-adv-x="577" d="M53 14l309 1446q10 2 27 6q14 4 32.5 6.5t45.5 2.5t47.5 -2.5t32.5 -6.5l24 -6l-309 -1446q-12 -4 -29 -8q-29 -6 -77 -6q-55 0 -80 6q-14 4 -23 8zM332 1606l256 288q49 6 97 -17.5t65 -57.5l-316 -277q-35 6 -62.5 21.5t-39.5 42.5z" />
<glyph unicode="&#xce;" horiz-adv-x="577" d="M53 14l309 1446q10 2 27 6q14 4 32.5 6.5t45.5 2.5t47.5 -2.5t32.5 -6.5l24 -6l-309 -1446q-12 -4 -29 -8q-29 -6 -77 -6q-55 0 -80 6q-14 4 -23 8zM195 1640l331 234h54l233 -234q-23 -31 -51.5 -55t-61.5 -35l-184 146l-244 -146q-31 10 -49 35t-28 55z" />
<glyph unicode="&#xcf;" horiz-adv-x="577" d="M53 14l309 1446q10 2 27 6q14 4 32.5 6.5t45.5 2.5t47.5 -2.5t32.5 -6.5l24 -6l-309 -1446q-12 -4 -29 -8q-29 -6 -77 -6q-55 0 -80 6q-14 4 -23 8zM221 1561l35 165l25 7q12 2 29.5 4t41.5 2q23 0 40.5 -2t27.5 -4q12 -4 22 -7l-34 -165q-10 -4 -25 -7q-25 -6 -70 -6 q-49 0 -69 6q-12 2 -23 7zM569 1561l35 165q8 2 23 7q12 2 29.5 4t41.5 2q23 0 40.5 -2t29.5 -4q12 -4 23 -7l-35 -165q-10 -4 -25 -7q-25 -6 -72 -6q-49 0 -69 6q-12 2 -21 7z" />
<glyph unicode="&#xd0;" horiz-adv-x="1390" d="M57 659q-2 33 6.5 73t24.5 69h162l143 674h455q141 0 244.5 -43t162 -135.5t67.5 -238t-34 -347.5q-43 -203 -112.5 -340.5t-165 -219t-215 -116.5t-260.5 -35h-455l139 659h-162zM326 174h231q90 0 168 23.5t142.5 86t114.5 172t87 281.5q37 174 33 283.5t-42 172 t-105.5 85t-157.5 22.5h-232l-106 -499h270q4 -29 -5 -71t-26 -71h-270z" />
<glyph unicode="&#xd1;" horiz-adv-x="1437" d="M53 14l309 1446q12 2 33 6q16 4 40 6.5t54 2.5q31 0 52.5 -2.5t38.5 -6.5l30 -6l303 -923q16 -51 30.5 -99.5t25.5 -87.5q12 -45 22 -86h6q6 47 15 101q8 47 18 108.5t27 132.5l182 854l25 6q12 4 30.5 6.5t44.5 2.5q25 0 43.5 -2.5t28.5 -6.5q12 -4 21 -6l-310 -1446 q-12 -4 -30 -8q-31 -6 -93 -6q-61 0 -92 6q-18 4 -30 8l-308 932q-16 49 -29.5 97.5t-23.5 84.5l-20 82h-9q-6 -41 -14 -94q-8 -45 -18.5 -108.5t-26.5 -141.5l-182 -852q-10 -4 -25 -8q-25 -6 -76 -6t-71 6q-12 4 -21 8zM651 1696q20 27 47 49q23 18 58 34.5t82 16.5 q43 0 73.5 -11t56 -23.5t50 -24t55.5 -11.5q23 0 42.5 8.5t33.5 18.5q16 10 31 27q29 -10 43 -38t14 -56q-2 -2 -15.5 -17.5t-37 -33t-57 -32t-76.5 -14.5t-74 10.5t-55.5 23.5t-49 23.5t-55.5 10.5q-25 0 -44 -8.5t-36 -18.5q-18 -12 -30 -26q-57 33 -56 92z" />
<glyph unicode="&#xd2;" horiz-adv-x="1384" d="M154 782q43 197 111.5 333t160.5 221t205.5 122t247.5 37q266 0 376.5 -196.5t24.5 -593.5q-43 -199 -110.5 -337.5t-158.5 -224.5t-205 -124.5t-249 -38.5q-268 0 -377.5 202.5t-25.5 599.5zM326.5 454.5q3.5 -112.5 36 -179t93 -94t138.5 -27.5q82 0 154.5 27.5t133 94 t109.5 179t84 282.5q37 170 35 283t-35 179.5t-93 94t-140 27.5q-82 0 -154 -27.5t-133 -94t-110.5 -179.5t-86.5 -283q-35 -170 -31.5 -282.5zM743 1829q14 18 38 32.5t50.5 25.5t54 15.5t52.5 2.5l129 -283q-47 -51 -131 -63z" />
<glyph unicode="&#xd3;" horiz-adv-x="1384" d="M154 782q43 197 111.5 333t160.5 221t205.5 122t247.5 37q266 0 376.5 -196.5t24.5 -593.5q-43 -199 -110.5 -337.5t-158.5 -224.5t-205 -124.5t-249 -38.5q-268 0 -377.5 202.5t-25.5 599.5zM326.5 454.5q3.5 -112.5 36 -179t93 -94t138.5 -27.5q82 0 154.5 27.5t133 94 t109.5 179t84 282.5q37 170 35 283t-35 179.5t-93 94t-140 27.5q-82 0 -154 -27.5t-133 -94t-110.5 -179.5t-86.5 -283q-35 -170 -31.5 -282.5zM862 1651l252 282q49 4 97.5 -18.5t64.5 -56.5l-311 -273q-35 6 -63 21.5t-40 44.5z" />
<glyph unicode="&#xd4;" horiz-adv-x="1384" d="M154 782q43 197 111.5 333t160.5 221t205.5 122t247.5 37q266 0 376.5 -196.5t24.5 -593.5q-43 -199 -110.5 -337.5t-158.5 -224.5t-205 -124.5t-249 -38.5q-268 0 -377.5 202.5t-25.5 599.5zM326.5 454.5q3.5 -112.5 36 -179t93 -94t138.5 -27.5q82 0 154.5 27.5t133 94 t109.5 179t84 282.5q37 170 35 283t-35 179.5t-93 94t-140 27.5q-82 0 -154 -27.5t-133 -94t-110.5 -179.5t-86.5 -283q-35 -170 -31.5 -282.5zM596 1651l309 233h53l254 -233q-23 -31 -50 -55.5t-62 -34.5l-185 145l-243 -145q-31 10 -48.5 34.5t-27.5 55.5z" />
<glyph unicode="&#xd5;" horiz-adv-x="1384" d="M154 782q43 197 111.5 333t160.5 221t205.5 122t247.5 37q266 0 376.5 -196.5t24.5 -593.5q-43 -199 -110.5 -337.5t-158.5 -224.5t-205 -124.5t-249 -38.5q-268 0 -377.5 202.5t-25.5 599.5zM326.5 454.5q3.5 -112.5 36 -179t93 -94t138.5 -27.5q82 0 154.5 27.5t133 94 t109.5 179t84 282.5q37 170 35 283t-35 179.5t-93 94t-140 27.5q-82 0 -154 -27.5t-133 -94t-110.5 -179.5t-86.5 -283q-35 -170 -31.5 -282.5zM631 1694q16 29 43 51q23 18 56.5 34.5t80.5 18.5q45 2 76 -7t57.5 -21.5t51 -21.5t55.5 -9q25 0 44 9t33 19q16 12 29 29 q29 -10 44.5 -35.5t15.5 -54.5q-18 -29 -46 -51q-23 -20 -56.5 -36.5t-80.5 -16.5q-37 -2 -67.5 7t-58 21t-55.5 21.5t-58 9.5q-25 -2 -44.5 -10.5t-33.5 -18.5q-16 -12 -29 -28q-57 29 -57 90z" />
<glyph unicode="&#xd6;" horiz-adv-x="1384" d="M154 782q43 197 111.5 333t160.5 221t205.5 122t247.5 37q266 0 376.5 -196.5t24.5 -593.5q-43 -199 -110.5 -337.5t-158.5 -224.5t-205 -124.5t-249 -38.5q-268 0 -377.5 202.5t-25.5 599.5zM326.5 454.5q3.5 -112.5 36 -179t93 -94t138.5 -27.5q82 0 154.5 27.5t133 94 t109.5 179t84 282.5q37 170 35 283t-35 179.5t-93 94t-140 27.5q-82 0 -154 -27.5t-133 -94t-110.5 -179.5t-86.5 -283q-35 -170 -31.5 -282.5zM629 1622l35 166l24 6q12 2 30.5 4t43.5 2q23 0 39 -2t26 -4q12 -4 23 -6l-35 -166q-10 -4 -24 -6q-25 -6 -70 -6q-51 0 -72 6 q-12 2 -20 6zM977 1622l35 166l24 6q12 2 29.5 4t42.5 2q23 0 40 -2t28 -4q12 -4 22 -6l-35 -166q-10 -4 -24 -6q-25 -6 -72 -6q-49 0 -70 6q-12 2 -20 6z" />
<glyph unicode="&#xd7;" horiz-adv-x="960" d="M74 352l288 240l-188 239q6 8 14 19q8 10 19.5 21.5t28.5 23.5q14 12 27 21.5t24 15.5q12 8 22 10l189 -240l290 240q8 -2 17 -10q14 -12 37 -37q20 -29 26 -45l6 -19l-290 -239l190 -240l-16 -20q-18 -20 -45 -43q-16 -14 -29.5 -22.5t-24.5 -14.5q-12 -8 -20 -10 l-188 239l-291 -239q-10 2 -19 10q-8 6 -16 14t-19 23q-20 23 -26 43q-4 10 -6 20z" />
<glyph unicode="&#xd8;" horiz-adv-x="1380" d="M-6 -29l178 219q-49 102 -55 249t35 343q43 197 111.5 333t160.5 221t205.5 122t247.5 37q174 0 280 -82l129 158q41 -4 76 -22.5t53 -45.5l-164 -200q53 -98 61.5 -247t-34.5 -351q-43 -199 -110.5 -337.5t-158.5 -224.5t-205 -124.5t-249 -38.5q-182 0 -295 94 l-135 -170q-92 4 -131 67zM330 385l702 872q-35 35 -84 49.5t-108 14.5q-82 0 -154 -27.5t-133 -94t-110.5 -179.5t-86.5 -283q-45 -223 -26 -352zM389 231q35 -41 87.5 -59t115.5 -18q82 0 154.5 27.5t133 94t109.5 179t84 282.5q51 244 27 377z" />
<glyph unicode="&#xd9;" horiz-adv-x="1382" d="M140.5 279.5q-19.5 97.5 6.5 220.5l205 960q10 2 27 6q14 4 32.5 6.5t45.5 2.5t46 -2.5t32 -6.5l24 -6l-213 -993q-31 -147 33.5 -229t212.5 -82q150 0 247 81.5t128 229.5l213 993q12 2 26 6q12 4 30.5 6.5t45.5 2.5q25 0 44.5 -2.5t31.5 -6.5q14 -4 26 -6l-208 -993 q-53 -252 -211 -369.5t-394 -117.5q-117 0 -208 34.5t-147 101t-75.5 164zM694 1815q14 18 38 32.5t50.5 25.5t54 15t52.5 2l129 -280q-25 -29 -58.5 -44.5t-72.5 -21.5z" />
<glyph unicode="&#xda;" horiz-adv-x="1382" d="M140.5 279.5q-19.5 97.5 6.5 220.5l205 960q10 2 27 6q14 4 32.5 6.5t45.5 2.5t46 -2.5t32 -6.5l24 -6l-213 -993q-31 -147 33.5 -229t212.5 -82q150 0 247 81.5t128 229.5l213 993q12 2 26 6q12 4 30.5 6.5t45.5 2.5q25 0 44.5 -2.5t31.5 -6.5q14 -4 26 -6l-208 -993 q-53 -252 -211 -369.5t-394 -117.5q-117 0 -208 34.5t-147 101t-75.5 164zM758 1606l256 288q49 6 97 -17.5t65 -57.5l-316 -277q-35 6 -62.5 21.5t-39.5 42.5z" />
<glyph unicode="&#xdb;" horiz-adv-x="1382" d="M140.5 279.5q-19.5 97.5 6.5 220.5l205 960q10 2 27 6q14 4 32.5 6.5t45.5 2.5t46 -2.5t32 -6.5l24 -6l-213 -993q-31 -147 33.5 -229t212.5 -82q150 0 247 81.5t128 229.5l213 993q12 2 26 6q12 4 30.5 6.5t45.5 2.5q25 0 44.5 -2.5t31.5 -6.5q14 -4 26 -6l-208 -993 q-53 -252 -211 -369.5t-394 -117.5q-117 0 -208 34.5t-147 101t-75.5 164zM612 1640l318 228h53l248 -228q-23 -31 -51.5 -55t-61.5 -35l-184 146l-244 -146q-31 10 -49 35t-29 55z" />
<glyph unicode="&#xdc;" horiz-adv-x="1382" d="M140.5 279.5q-19.5 97.5 6.5 220.5l205 960q10 2 27 6q14 4 32.5 6.5t45.5 2.5t46 -2.5t32 -6.5l24 -6l-213 -993q-31 -147 33.5 -229t212.5 -82q150 0 247 81.5t128 229.5l213 993q12 2 26 6q12 4 30.5 6.5t45.5 2.5q25 0 44.5 -2.5t31.5 -6.5q14 -4 26 -6l-208 -993 q-53 -252 -211 -369.5t-394 -117.5q-117 0 -208 34.5t-147 101t-75.5 164zM627 1591l35 168l24 6q12 2 30.5 4.5t43.5 2.5q23 0 39 -2.5t26 -4.5q12 -4 23 -6l-35 -168q-10 -4 -25 -6q-25 -6 -69 -6q-49 0 -70 6q-12 2 -22 6zM975 1591l35 168l24 6q12 2 29.5 4.5t42.5 2.5 q23 0 40 -2.5t28 -4.5q12 -4 22 -6l-35 -168q-10 -4 -24 -6q-25 -6 -72 -6q-49 0 -70 6q-12 2 -20 6z" />
<glyph unicode="&#xdd;" horiz-adv-x="1294" d="M215 1460q12 2 33 6q16 4 40.5 6.5t55.5 2.5q23 0 42.5 -2.5t33.5 -6.5q16 -4 29 -6l239 -633l520 633q14 2 35 6q16 4 38 6.5t50 2.5q27 0 47.5 -2.5t36.5 -6.5l31 -6l-698 -844l-130 -602q-10 -4 -26 -8q-29 -6 -78 -6q-55 0 -80 6q-14 4 -24 8l129 598zM731 1606 l256 288q49 6 97.5 -17.5t64.5 -57.5l-315 -277q-35 6 -63 21.5t-40 42.5z" />
<glyph unicode="&#xde;" horiz-adv-x="1234" d="M53 14l309 1446q10 2 27 6q14 4 32.5 6.5t45.5 2.5t47.5 -2.5t32.5 -6.5l24 -6l-57 -262h326q100 0 172.5 -37t113.5 -101.5t52.5 -150.5t-9.5 -184q-41 -199 -175 -300t-339 -101h-325l-68 -310q-12 -4 -29 -8q-29 -6 -77 -6q-55 0 -80 6q-14 4 -23 8zM367 498h299 q123 0 200.5 68.5t104.5 193.5t-22.5 194.5t-172.5 69.5h-299z" />
<glyph unicode="&#xdf;" horiz-adv-x="1173" d="M23 14l239 1125q43 205 168 301t334 96q102 0 175 -29.5t115 -79t55 -114t-3 -133.5q-12 -59 -37 -108.5t-47 -84.5q-57 -8 -104 -31q-41 -18 -79 -54t-51 -95q-12 -51 6.5 -89t51.5 -71t71.5 -66.5t69.5 -76.5t44 -100.5t-3 -139.5q-35 -156 -143.5 -220t-266.5 -64 q-53 0 -93 5t-68 13q-33 8 -58 20q8 82 74 142q25 -10 66 -16.5t82 -6.5q84 0 141 37t74 109q10 53 -7.5 92t-49 73.5t-69.5 67.5t-69 75t-45 94t2 126q16 82 58 131t87 76q53 31 113 43q10 18 23.5 49t21.5 66q8 39 3 74.5t-23.5 63t-51 43t-84.5 15.5q-121 0 -187 -58.5 t-91 -174.5l-240 -1125q-10 -4 -26 -8q-29 -6 -78 -6q-53 0 -78 6q-14 4 -22 8z" />
<glyph unicode="&#xe0;" d="M92 571q35 156 86 258.5t113.5 162t137.5 83t155 23.5q109 0 173 -34t95 -108l37 107q8 2 22 6q10 4 28.5 6t45.5 2q25 0 42 -2t28 -6q12 -4 20 -6l-223 -1049q-10 -4 -25 -8q-25 -6 -63 -6q-39 0 -64 6q-14 4 -26 8l10 111q-59 -68 -140 -106.5t-198 -38.5 q-176 0 -247.5 145t-6.5 446zM263 355.5q-3 -74.5 14.5 -121t57.5 -67t101 -20.5q53 0 102.5 21.5t88.5 57.5t66.5 83t37.5 101l57 264q10 51 3 97t-29.5 82t-60 56.5t-91.5 20.5q-55 0 -101 -18.5t-86 -62.5t-73 -120t-59 -190q-25 -109 -28 -183.5zM453 1505 q29 35 81 59.5t99 18.5l143 -291q-47 -51 -127 -63z" />
<glyph unicode="&#xe1;" d="M92 571q35 156 86 258.5t113.5 162t137.5 83t155 23.5q109 0 173 -34t95 -108l37 107q8 2 22 6q10 4 28.5 6t45.5 2q25 0 42 -2t28 -6q12 -4 20 -6l-223 -1049q-10 -4 -25 -8q-25 -6 -63 -6q-39 0 -64 6q-14 4 -26 8l10 111q-59 -68 -140 -106.5t-198 -38.5 q-176 0 -247.5 145t-6.5 446zM263 355.5q-3 -74.5 14.5 -121t57.5 -67t101 -20.5q53 0 102.5 21.5t88.5 57.5t66.5 83t37.5 101l57 264q10 51 3 97t-29.5 82t-60 56.5t-91.5 20.5q-55 0 -101 -18.5t-86 -62.5t-73 -120t-59 -190q-25 -109 -28 -183.5zM508 1272l250 289 q51 6 92 -28t57 -69l-297 -256q-35 6 -62.5 21.5t-39.5 42.5z" />
<glyph unicode="&#xe2;" d="M92 571q35 156 86 258.5t113.5 162t137.5 83t155 23.5q109 0 173 -34t95 -108l37 107q8 2 22 6q10 4 28.5 6t45.5 2q25 0 42 -2t28 -6q12 -4 20 -6l-223 -1049q-10 -4 -25 -8q-25 -6 -63 -6q-39 0 -64 6q-14 4 -26 8l10 111q-59 -68 -140 -106.5t-198 -38.5 q-176 0 -247.5 145t-6.5 446zM263 355.5q-3 -74.5 14.5 -121t57.5 -67t101 -20.5q53 0 102.5 21.5t88.5 57.5t66.5 83t37.5 101l57 264q10 51 3 97t-29.5 82t-60 56.5t-91.5 20.5q-55 0 -101 -18.5t-86 -62.5t-73 -120t-59 -190q-25 -109 -28 -183.5zM367 1331l317 221h53 l254 -231q-23 -31 -48 -56.5t-60 -35.5l-191 145l-243 -143q-29 10 -51.5 38.5t-30.5 61.5z" />
<glyph unicode="&#xe3;" d="M92 571q35 156 86 258.5t113.5 162t137.5 83t155 23.5q109 0 173 -34t95 -108l37 107q8 2 22 6q10 4 28.5 6t45.5 2q25 0 42 -2t28 -6q12 -4 20 -6l-223 -1049q-10 -4 -25 -8q-25 -6 -63 -6q-39 0 -64 6q-14 4 -26 8l10 111q-59 -68 -140 -106.5t-198 -38.5 q-176 0 -247.5 145t-6.5 446zM263 355.5q-3 -74.5 14.5 -121t57.5 -67t101 -20.5q53 0 102.5 21.5t88.5 57.5t66.5 83t37.5 101l57 264q10 51 3 97t-29.5 82t-60 56.5t-91.5 20.5q-55 0 -101 -18.5t-86 -62.5t-73 -120t-59 -190q-25 -109 -28 -183.5zM397 1366q18 27 47 49 q23 18 59 34.5t83 16.5q45 0 75.5 -10t55 -23.5t49 -23.5t55.5 -10q23 0 43.5 8t34.5 18q16 12 31 29q29 -12 43 -37.5t14 -56.5q-23 -27 -49 -49q-25 -18 -58.5 -33.5t-80.5 -15.5q-45 0 -76 10t-55.5 23.5t-49 23.5t-55.5 10q-25 0 -44 -9t-36 -20q-18 -12 -30 -28 q-55 33 -56 94z" />
<glyph unicode="&#xe4;" d="M92 571q35 156 86 258.5t113.5 162t137.5 83t155 23.5q109 0 173 -34t95 -108l37 107q8 2 22 6q10 4 28.5 6t45.5 2q25 0 42 -2t28 -6q12 -4 20 -6l-223 -1049q-10 -4 -25 -8q-25 -6 -63 -6q-39 0 -64 6q-14 4 -26 8l10 111q-59 -68 -140 -106.5t-198 -38.5 q-176 0 -247.5 145t-6.5 446zM263 355.5q-3 -74.5 14.5 -121t57.5 -67t101 -20.5q53 0 102.5 21.5t88.5 57.5t66.5 83t37.5 101l57 264q10 51 3 97t-29.5 82t-60 56.5t-91.5 20.5q-55 0 -101 -18.5t-86 -62.5t-73 -120t-59 -190q-25 -109 -28 -183.5zM438 1280l35 166l25 6 q12 2 30.5 4t42.5 2q23 0 39.5 -2t26.5 -4q12 -4 22 -6l-34 -166q-10 -4 -25 -6q-25 -6 -70 -6q-49 0 -69 6q-12 2 -23 6zM786 1280l35 166l25 6q12 2 29.5 4t42.5 2q23 0 40 -2t27 -4q12 -4 23 -6l-35 -166q-10 -4 -25 -6q-25 -6 -71 -6q-49 0 -70 6q-12 2 -21 6z" />
<glyph unicode="&#xe5;" d="M92 571q35 156 86 258.5t113.5 162t137.5 83t155 23.5q109 0 173 -34t95 -108l37 107q8 2 22 6q10 4 28.5 6t45.5 2q25 0 42 -2t28 -6q12 -4 20 -6l-223 -1049q-10 -4 -25 -8q-25 -6 -63 -6q-39 0 -64 6q-14 4 -26 8l10 111q-59 -68 -140 -106.5t-198 -38.5 q-176 0 -247.5 145t-6.5 446zM263 355.5q-3 -74.5 14.5 -121t57.5 -67t101 -20.5q53 0 102.5 21.5t88.5 57.5t66.5 83t37.5 101l57 264q10 51 3 97t-29.5 82t-60 56.5t-91.5 20.5q-55 0 -101 -18.5t-86 -62.5t-73 -120t-59 -190q-25 -109 -28 -183.5zM463 1326q-10 40 0 93 q12 53 40.5 93t68.5 68t86.5 41t93.5 13q45 0 86 -13t69.5 -40t41 -67.5t-0.5 -94.5q-10 -53 -38.5 -94t-67.5 -68.5t-87 -42t-98 -14.5q-51 0 -92 14.5t-66.5 43t-35.5 68.5zM586 1419q-8 -41 13.5 -74.5t80.5 -33.5q61 0 98 33.5t45 74.5q10 43 -12.5 76t-83.5 33 q-59 0 -95 -34t-46 -75z" />
<glyph unicode="&#xe6;" horiz-adv-x="1613" d="M63.5 308.5q-4.5 111.5 28.5 262.5q33 152 81 253.5t109.5 162t133 86t149.5 25.5q102 0 159.5 -31t90.5 -104l35 100l18 6q10 4 27.5 6t44.5 2q20 0 35.5 -2t25.5 -6l19 -6l-16 -94q55 61 121.5 95t140.5 34q172 0 241.5 -103.5t26.5 -308.5q-10 -43 -20.5 -79 t-20.5 -62q-10 -31 -23 -56h-567l-6 -24q-18 -170 29 -245t159 -75q53 0 97.5 8.5t77.5 18.5q37 12 69 29q23 -23 30 -59t3 -76q-37 -25 -84 -43q-41 -16 -97.5 -29.5t-127.5 -13.5q-98 0 -155.5 38.5t-74.5 96.5l-28 -101q-10 -4 -23 -8q-23 -6 -59 -6q-39 0 -58 6l-20 8 l8 105q-59 -68 -136 -103.5t-179 -35.5q-78 0 -136.5 35.5t-91 108.5t-37 184.5zM262 353.5q0 -74.5 20.5 -121t58.5 -66t89 -19.5q53 0 98 21.5t80 57.5t58.5 83t33.5 101l58 264q10 51 6 97t-22.5 82t-53.5 56.5t-88 20.5q-51 0 -98 -19.5t-87 -65.5t-73 -121t-55 -185 q-25 -111 -25 -185.5zM934 633h403q4 8 9 20q4 10 7 26t7 34q10 47 9 88t-17.5 70.5t-50 47t-87.5 17.5q-88 0 -160.5 -66.5t-119.5 -236.5z" />
<glyph unicode="&#xe7;" horiz-adv-x="907" d="M90 569q59 274 196.5 401.5t362.5 127.5q74 0 124 -8.5t81 -18.5q37 -10 59 -24q-10 -41 -33.5 -81t-58.5 -67q-20 6 -47 14q-23 6 -54.5 11.5t-72.5 5.5q-147 0 -231 -95.5t-125 -295.5q-43 -203 5 -294t196 -91q41 0 77.5 5t65.5 11q33 8 57 18q20 -23 27.5 -63.5 t-0.5 -83.5q-29 -16 -68 -29q-35 -10 -85 -19t-115 -13l-37 -101q57 0 95 -14.5t58.5 -40t24.5 -60t-4 -75.5q-23 -102 -98.5 -151.5t-192.5 -49.5q-47 0 -79 7t-54 18q-25 10 -43 24q10 59 61 86q14 -8 48 -18.5t79 -10.5q55 0 96 22t54 79q10 41 -12.5 66.5t-81.5 25.5 h-74l-21 29l66 170q-180 27 -239.5 180t-6.5 403z" />
<glyph unicode="&#xe8;" horiz-adv-x="1046" d="M62.5 322.5q-3.5 109.5 27.5 248.5q63 279 211 403t352 124q184 0 271.5 -103.5t44.5 -308.5q-23 -98 -43 -154q-12 -33 -25 -57h-625q-12 -92 -6 -153.5t33 -98.5t75 -53t116 -16q53 0 100 9t82 19q39 12 72 31q23 -25 33 -66t1 -86q-43 -23 -96 -41q-47 -16 -112.5 -28 t-149.5 -12q-119 0 -198 39.5t-119.5 116.5t-44 186.5zM307 621h445q4 12 11 35.5t15 56.5q8 45 6 86t-20.5 71.5t-53 48t-92.5 17.5q-100 0 -181 -72.5t-130 -242.5zM496 1513q14 18 37.5 33t50 26t54.5 15t52 2l133 -289q-25 -27 -58.5 -42t-72.5 -21z" />
<glyph unicode="&#xe9;" horiz-adv-x="1046" d="M62.5 322.5q-3.5 109.5 27.5 248.5q63 279 211 403t352 124q184 0 271.5 -103.5t44.5 -308.5q-23 -98 -43 -154q-12 -33 -25 -57h-625q-12 -92 -6 -153.5t33 -98.5t75 -53t116 -16q53 0 100 9t82 19q39 12 72 31q23 -25 33 -66t1 -86q-43 -23 -96 -41q-47 -16 -112.5 -28 t-149.5 -12q-119 0 -198 39.5t-119.5 116.5t-44 186.5zM307 621h445q4 12 11 35.5t15 56.5q8 45 6 86t-20.5 71.5t-53 48t-92.5 17.5q-100 0 -181 -72.5t-130 -242.5zM514 1280l256 289q51 6 98 -17.5t64 -58.5l-316 -276q-35 6 -62.5 21t-39.5 42z" />
<glyph unicode="&#xea;" horiz-adv-x="1046" d="M62.5 322.5q-3.5 109.5 27.5 248.5q63 279 211 403t352 124q184 0 271.5 -103.5t44.5 -308.5q-23 -98 -43 -154q-12 -33 -25 -57h-625q-12 -92 -6 -153.5t33 -98.5t75 -53t116 -16q53 0 100 9t82 19q39 12 72 31q23 -25 33 -66t1 -86q-43 -23 -96 -41q-47 -16 -112.5 -28 t-149.5 -12q-119 0 -198 39.5t-119.5 116.5t-44 186.5zM307 621h445q4 12 11 35.5t15 56.5q8 45 6 86t-20.5 71.5t-53 48t-92.5 17.5q-100 0 -181 -72.5t-130 -242.5zM391 1323l314 225h51l239 -225q-20 -31 -47.5 -55.5t-62.5 -34.5l-178 141l-240 -139q-29 10 -47.5 33.5 t-28.5 54.5z" />
<glyph unicode="&#xeb;" horiz-adv-x="1046" d="M62.5 322.5q-3.5 109.5 27.5 248.5q63 279 211 403t352 124q184 0 271.5 -103.5t44.5 -308.5q-23 -98 -43 -154q-12 -33 -25 -57h-625q-12 -92 -6 -153.5t33 -98.5t75 -53t116 -16q53 0 100 9t82 19q39 12 72 31q23 -25 33 -66t1 -86q-43 -23 -96 -41q-47 -16 -112.5 -28 t-149.5 -12q-119 0 -198 39.5t-119.5 116.5t-44 186.5zM307 621h445q4 12 11 35.5t15 56.5q8 45 6 86t-20.5 71.5t-53 48t-92.5 17.5q-100 0 -181 -72.5t-130 -242.5zM418 1268l35 168q8 2 22 6q12 2 29.5 4t42.5 2q23 0 40 -2t29 -4q12 -4 23 -6l-35 -168q-12 -4 -26 -6 q-25 -6 -72 -7q-47 0 -68 7q-12 2 -20 6zM764 1268l35 168l24 6q12 2 29.5 4t42.5 2q23 0 40 -2t28 -4q12 -4 22 -6l-35 -168q-12 -4 -26 -6q-25 -6 -70 -7q-49 0 -70 7q-12 2 -20 6z" />
<glyph unicode="&#xec;" horiz-adv-x="516" d="M25 14l223 1049q10 2 26 6q14 4 33 6t47 2q25 0 43.5 -2t30.5 -6l25 -6l-224 -1049q-10 -4 -26 -8q-29 -6 -78 -6q-53 0 -78 6q-14 4 -22 8zM203 1518q14 18 37.5 32.5t50 25.5t54.5 15t52 2l133 -288q-23 -27 -56.5 -42.5t-72.5 -21.5z" />
<glyph unicode="&#xed;" horiz-adv-x="516" d="M25 14l223 1049q10 2 26 6q14 4 33 6t47 2q25 0 43.5 -2t30.5 -6l25 -6l-224 -1049q-10 -4 -26 -8q-29 -6 -78 -6q-53 0 -78 6q-14 4 -22 8zM256 1300l256 289q51 6 98 -17.5t64 -58.5l-316 -276q-35 6 -62.5 21.5t-39.5 41.5z" />
<glyph unicode="&#xee;" horiz-adv-x="516" d="M25 14l223 1049q10 2 26 6q14 4 33 6t47 2q25 0 43.5 -2t30.5 -6l25 -6l-224 -1049q-10 -4 -26 -8q-29 -6 -78 -6q-53 0 -78 6q-14 4 -22 8zM106 1323l324 225h51l230 -225q-23 -31 -50.5 -55.5t-62.5 -34.5l-178 141l-240 -139q-29 10 -46 33.5t-28 54.5z" />
<glyph unicode="&#xef;" horiz-adv-x="516" d="M25 14l223 1049q10 2 26 6q14 4 33 6t47 2q25 0 43.5 -2t30.5 -6l25 -6l-224 -1049q-10 -4 -26 -8q-29 -6 -78 -6q-53 0 -78 6q-14 4 -22 8zM123 1272l35 168l24 6q12 2 30.5 4t43.5 2q23 0 39 -2t27 -4q12 -4 22 -6l-35 -168q-10 -4 -24 -6q-12 -2 -29.5 -3t-40.5 -1 q-25 0 -42 1t-28 3q-12 2 -22 6zM471 1272l35 168l24 6q12 2 30 4t42 2q23 0 40 -2t28 -4q12 -4 22 -6l-35 -168q-10 -4 -24 -6q-12 -2 -30.5 -3t-41.5 -1q-25 0 -42 1t-27 3q-12 2 -21 6z" />
<glyph unicode="&#xf0;" horiz-adv-x="1136" d="M65.5 289.5q-10.5 105.5 20.5 253.5q31 147 82 244.5t119.5 157t152.5 84t183 24.5q88 0 146 -27t93 -74q-6 88 -36.5 165t-92.5 136l-215 -120q-49 49 -49 110l156 86q-41 25 -89.5 44.5t-105.5 31.5q4 39 20.5 72.5t49.5 58.5q86 -14 158.5 -43t136.5 -70l186 105 q20 -18 32.5 -48t12.5 -61l-137 -76q111 -119 148.5 -298t-13.5 -416q-41 -188 -96.5 -313.5t-129 -200t-165.5 -105t-203 -30.5q-104 0 -183 32.5t-125 102t-56.5 175zM262 329.5q2 -73.5 24.5 -116.5t65 -59.5t97.5 -16.5t104 16.5t91 59.5t76 116.5t58 186.5 q25 115 22 188.5t-27.5 115.5t-67.5 58.5t-99 16.5q-55 0 -104 -16.5t-89 -59.5t-72 -116.5t-56 -186.5q-25 -113 -23 -186.5z" />
<glyph unicode="&#xf1;" horiz-adv-x="1128" d="M20 14l224 1049q10 2 26 6q14 4 33 6t47 2q25 0 43.5 -2t30.5 -6l25 -6l-21 -94q70 63 147.5 96t169.5 33q154 0 228 -88t37 -265l-158 -731q-10 -4 -27 -8q-29 -6 -77 -6q-51 0 -76 6q-14 4 -25 8l158 738q18 86 -17.5 133t-134.5 47q-68 0 -137.5 -35t-122.5 -96 l-168 -787q-12 -4 -28 -8q-29 -6 -76 -6q-53 0 -78 6q-14 4 -23 8zM420 1366q20 27 47 49q23 18 57.5 34.5t81.5 16.5q43 0 74 -10t56.5 -23.5t50 -23.5t55.5 -10q23 0 43 9t35 19q16 12 30 29q27 -12 42.5 -38.5t15.5 -55.5q-20 -29 -47 -51q-23 -18 -59 -33.5t-83 -15.5 q-43 0 -73.5 10t-56 23.5t-50.5 23.5t-55 10q-25 0 -44.5 -9t-33.5 -20q-16 -12 -31 -28q-61 35 -55 94z" />
<glyph unicode="&#xf2;" horiz-adv-x="1105" d="M66.5 300.5q-9.5 110.5 23.5 262.5t84 254.5t122 164.5t159 89t192 27q106 0 183 -33t122 -102.5t53.5 -179t-24.5 -261.5t-84 -256t-119.5 -167.5t-157 -91t-192.5 -27.5t-183 33.5t-124 105t-54.5 182zM266 343q0 -77 22.5 -122t64.5 -63.5t98 -18.5q55 0 104 18.5 t91 63.5t75.5 122t58.5 196t25 195.5t-21.5 121.5t-63.5 63.5t-97 18.5t-105.5 -18.5t-91.5 -63.5t-76 -122t-59 -195q-25 -119 -25 -196zM453 1513q31 35 89 58.5t107 17.5l131 -289q-25 -27 -58.5 -42t-72.5 -21z" />
<glyph unicode="&#xf3;" horiz-adv-x="1105" d="M66.5 300.5q-9.5 110.5 23.5 262.5t84 254.5t122 164.5t159 89t192 27q106 0 183 -33t122 -102.5t53.5 -179t-24.5 -261.5t-84 -256t-119.5 -167.5t-157 -91t-192.5 -27.5t-183 33.5t-124 105t-54.5 182zM266 343q0 -77 22.5 -122t64.5 -63.5t98 -18.5q55 0 104 18.5 t91 63.5t75.5 122t58.5 196t25 195.5t-21.5 121.5t-63.5 63.5t-97 18.5t-105.5 -18.5t-91.5 -63.5t-76 -122t-59 -195q-25 -119 -25 -196zM516 1300l256 289q51 6 98.5 -17.5t63.5 -58.5l-316 -276q-35 6 -62.5 21.5t-39.5 41.5z" />
<glyph unicode="&#xf4;" horiz-adv-x="1105" d="M66.5 300.5q-9.5 110.5 23.5 262.5t84 254.5t122 164.5t159 89t192 27q106 0 183 -33t122 -102.5t53.5 -179t-24.5 -261.5t-84 -256t-119.5 -167.5t-157 -91t-192.5 -27.5t-183 33.5t-124 105t-54.5 182zM266 343q0 -77 22.5 -122t64.5 -63.5t98 -18.5q55 0 104 18.5 t91 63.5t75.5 122t58.5 196t25 195.5t-21.5 121.5t-63.5 63.5t-97 18.5t-105.5 -18.5t-91.5 -63.5t-76 -122t-59 -195q-25 -119 -25 -196zM391 1323l320 221h51l233 -221q-23 -31 -50 -55.5t-60 -34.5l-180 141l-240 -139q-29 10 -46.5 33.5t-27.5 54.5z" />
<glyph unicode="&#xf5;" horiz-adv-x="1105" d="M66.5 300.5q-9.5 110.5 23.5 262.5t84 254.5t122 164.5t159 89t192 27q106 0 183 -33t122 -102.5t53.5 -179t-24.5 -261.5t-84 -256t-119.5 -167.5t-157 -91t-192.5 -27.5t-183 33.5t-124 105t-54.5 182zM266 343q0 -77 22.5 -122t64.5 -63.5t98 -18.5q55 0 104 18.5 t91 63.5t75.5 122t58.5 196t25 195.5t-21.5 121.5t-63.5 63.5t-97 18.5t-105.5 -18.5t-91.5 -63.5t-76 -122t-59 -195q-25 -119 -25 -196zM403 1360q20 27 48 49q23 18 58.5 34.5t82.5 16.5q43 0 73.5 -10t55 -23.5t49.5 -23.5t55 -10q23 0 43.5 9t34.5 19q16 12 31 29 q29 -12 44 -39t13 -55q-20 -29 -47 -51q-23 -18 -58.5 -34t-82.5 -16q-43 0 -74 10.5t-56.5 24t-50 23.5t-55.5 10q-25 0 -44 -9t-34 -20q-16 -12 -30 -28q-58 33 -56 94z" />
<glyph unicode="&#xf6;" horiz-adv-x="1105" d="M66.5 300.5q-9.5 110.5 23.5 262.5t84 254.5t122 164.5t159 89t192 27q106 0 183 -33t122 -102.5t53.5 -179t-24.5 -261.5t-84 -256t-119.5 -167.5t-157 -91t-192.5 -27.5t-183 33.5t-124 105t-54.5 182zM266 343q0 -77 22.5 -122t64.5 -63.5t98 -18.5q55 0 104 18.5 t91 63.5t75.5 122t58.5 196t25 195.5t-21.5 121.5t-63.5 63.5t-97 18.5t-105.5 -18.5t-91.5 -63.5t-76 -122t-59 -195q-25 -119 -25 -196zM414 1276l37 168l24 6q12 2 29.5 4t42.5 2q23 0 40 -2t27 -4q12 -4 23 -6l-37 -168q-10 -4 -25 -6q-12 -2 -29.5 -3t-39.5 -1 q-25 0 -42.5 1t-27.5 3q-12 2 -22 6zM762 1276l37 168q8 2 22 6q12 2 29.5 4t42.5 2q23 0 40 -2t30 -4q12 -4 22 -6l-37 -168q-10 -4 -24 -6q-12 -2 -31 -3t-41 -1q-25 0 -42 1t-28 3q-12 2 -20 6z" />
<glyph unicode="&#xf7;" horiz-adv-x="1083" d="M100 539q0 10 1 23t5 32q6 35 17 55l10 21h838q2 -10 2 -21v-24.5t-4 -30.5q-10 -37 -19 -55l-10 -21h-838q-2 10 -2 21zM340 166l41 192q10 2 27 7q14 4 34.5 6t49.5 2q27 0 46 -2t31 -6l25 -7l-41 -192q-12 -4 -29 -8q-29 -6 -80 -6q-55 0 -79 6q-14 4 -25 8zM481 829 l41 193q10 2 27 6q14 4 34.5 6t49.5 2q27 0 46 -2t32 -6l24 -6l-41 -193q-12 -4 -28 -8q-29 -6 -80 -6q-55 0 -80 6q-14 4 -25 8z" />
<glyph unicode="&#xf8;" horiz-adv-x="1105" d="M-8 -41l129 160q-45 72 -54.5 181.5t23.5 262.5q33 152 84 254.5t122 164.5t159 89t192 27q139 0 221 -54l107 130q35 -2 62.5 -19.5t43.5 -38.5l-127 -155q43 -72 51.5 -179.5t-24.5 -259.5t-84 -256t-119.5 -167.5t-157 -91t-192.5 -27.5q-135 0 -221 55l-107 -133 q-74 4 -108 57zM268 297l484 602q-23 23 -55.5 31t-73.5 8q-55 0 -105.5 -18.5t-91.5 -63.5t-76 -122t-59 -195q-16 -78 -21.5 -137.5t-1.5 -104.5zM322 178q25 -23 56.5 -31t72.5 -8q55 0 104 18.5t91 63.5t76 122t58 196q16 76 21.5 134t1.5 103z" />
<glyph unicode="&#xf9;" horiz-adv-x="1124" d="M75 200.5q-7 63.5 7 133.5l154 729q12 2 28 6q14 4 32.5 6t45.5 2t45.5 -2t30.5 -6q14 -4 22 -6l-155 -737q-18 -86 17.5 -133.5t133.5 -47.5q68 0 136.5 34t123.5 97l166 787q12 2 29 6q14 4 33.5 6t44.5 2q27 0 45 -2t30 -6q14 -4 23 -6l-223 -1049q-8 -4 -21 -8 q-23 -6 -75 -6q-51 0 -72 6q-14 4 -23 8l6 95q-68 -70 -140.5 -98.5t-168.5 -28.5q-88 0 -146.5 28.5t-90 77.5t-38.5 112.5zM489 1505q14 18 37 32.5t48.5 25t53 14.5t52.5 2l129 -283q-23 -27 -56.5 -41t-70.5 -20z" />
<glyph unicode="&#xfa;" horiz-adv-x="1124" d="M75 200.5q-7 63.5 7 133.5l154 729q12 2 28 6q14 4 32.5 6t45.5 2t45.5 -2t30.5 -6q14 -4 22 -6l-155 -737q-18 -86 17.5 -133.5t133.5 -47.5q68 0 136.5 34t123.5 97l166 787q12 2 29 6q14 4 33.5 6t44.5 2q27 0 45 -2t30 -6q14 -4 23 -6l-223 -1049q-8 -4 -21 -8 q-23 -6 -75 -6q-51 0 -72 6q-14 4 -23 8l6 95q-68 -70 -140.5 -98.5t-168.5 -28.5q-88 0 -146.5 28.5t-90 77.5t-38.5 112.5zM541 1300l256 289q51 6 98 -17.5t63 -58.5l-315 -276q-35 6 -62.5 21.5t-39.5 41.5z" />
<glyph unicode="&#xfb;" horiz-adv-x="1124" d="M75 200.5q-7 63.5 7 133.5l154 729q12 2 28 6q14 4 32.5 6t45.5 2t45.5 -2t30.5 -6q14 -4 22 -6l-155 -737q-18 -86 17.5 -133.5t133.5 -47.5q68 0 136.5 34t123.5 97l166 787q12 2 29 6q14 4 33.5 6t44.5 2q27 0 45 -2t30 -6q14 -4 23 -6l-223 -1049q-8 -4 -21 -8 q-23 -6 -75 -6q-51 0 -72 6q-14 4 -23 8l6 95q-68 -70 -140.5 -98.5t-168.5 -28.5q-88 0 -146.5 28.5t-90 77.5t-38.5 112.5zM410 1323l313 221h51l240 -221q-23 -31 -50.5 -55.5t-60.5 -34.5l-178 141l-240 -139q-29 10 -47 33.5t-28 54.5z" />
<glyph unicode="&#xfc;" horiz-adv-x="1124" d="M75 200.5q-7 63.5 7 133.5l154 729q12 2 28 6q14 4 32.5 6t45.5 2t45.5 -2t30.5 -6q14 -4 22 -6l-155 -737q-18 -86 17.5 -133.5t133.5 -47.5q68 0 136.5 34t123.5 97l166 787q12 2 29 6q14 4 33.5 6t44.5 2q27 0 45 -2t30 -6q14 -4 23 -6l-223 -1049q-8 -4 -21 -8 q-23 -6 -75 -6q-51 0 -72 6q-14 4 -23 8l6 95q-68 -70 -140.5 -98.5t-168.5 -28.5q-88 0 -146.5 28.5t-90 77.5t-38.5 112.5zM434 1278l35 168q8 2 23 6q12 2 29.5 4t41.5 2q23 0 40.5 -2t29.5 -4q12 -4 22 -6l-34 -168q-12 -4 -27 -6q-25 -6 -72 -6t-67 6q-12 2 -21 6z M782 1278l35 168q8 2 23 6q12 2 29.5 4t41.5 2q23 0 40.5 -2t29.5 -4q12 -4 23 -6l-35 -168q-12 -4 -27 -6q-25 -6 -72 -6t-67 6q-12 2 -21 6z" />
<glyph unicode="&#xfd;" horiz-adv-x="1126" d="M-47 -438q10 41 33.5 77.5t54.5 59.5q27 -14 63 -23q29 -10 71 -16t91 -6q72 0 131.5 10t106.5 47t82 110t59 199l14 74q-68 -63 -140.5 -88.5t-168.5 -25.5q-162 0 -233.5 92t-36.5 252l156 739q12 2 28 6q14 4 32.5 6t45.5 2t45.5 -2t30.5 -6q14 -4 22 -6l-155 -737 q-18 -86 17.5 -133.5t133.5 -47.5q68 0 136.5 34t123.5 97l166 787q12 2 29 6q14 4 33.5 6t44.5 2q27 0 45 -2t30 -6q14 -4 23 -6l-217 -1028q-31 -147 -80 -250.5t-119.5 -169.5t-168 -96.5t-224.5 -30.5q-80 0 -137.5 11.5t-93.5 25.5q-43 16 -74 37zM541 1280l250 289 q51 6 92 -28t57 -68l-297 -256q-35 6 -62.5 21t-39.5 42z" />
<glyph unicode="&#xfe;" horiz-adv-x="1142" d="M-80 -461l422 1983q12 2 27 6q12 4 30.5 6t44.5 2q27 0 46.5 -2t31.5 -6l25 -6l-119 -557q57 63 135 98t189 35q88 0 152.5 -31t99 -100.5t39 -179t-28.5 -265.5q-33 -158 -82 -261t-112.5 -166.5t-140.5 -89t-165 -25.5q-111 0 -174.5 34.5t-91.5 98.5l-123 -574 q-10 -4 -27 -6q-29 -6 -80 -6q-49 0 -73 6q-14 2 -25 6zM303 309.5q4 -47.5 25.5 -83.5t58.5 -57.5t90 -21.5q61 0 111.5 18.5t90.5 62.5t71.5 120t56.5 191t24.5 190.5t-22 119.5t-63 62.5t-103.5 18.5q-53 0 -99 -20.5t-82 -56.5t-60.5 -83t-34.5 -98l-58 -262 q-10 -53 -6 -100.5z" />
<glyph unicode="&#xff;" horiz-adv-x="1126" d="M-47 -438q10 41 33.5 77.5t54.5 59.5q27 -14 63 -23q29 -10 71 -16t91 -6q72 0 131.5 10t106.5 47t82 110t59 199l14 74q-68 -63 -140.5 -88.5t-168.5 -25.5q-162 0 -233.5 92t-36.5 252l156 739q12 2 28 6q14 4 32.5 6t45.5 2t45.5 -2t30.5 -6q14 -4 22 -6l-155 -737 q-18 -86 17.5 -133.5t133.5 -47.5q68 0 136.5 34t123.5 97l166 787q12 2 29 6q14 4 33.5 6t44.5 2q27 0 45 -2t30 -6q14 -4 23 -6l-217 -1028q-31 -147 -80 -250.5t-119.5 -169.5t-168 -96.5t-224.5 -30.5q-80 0 -137.5 11.5t-93.5 25.5q-43 16 -74 37zM412 1282l34 166 l25 6q12 2 30.5 4t43.5 2q23 0 39 -2t26 -4q12 -4 23 -6l-35 -166q-10 -4 -25 -6q-25 -6 -69 -6q-49 0 -70 6q-12 2 -22 6zM760 1282l35 166l24 6q12 2 29.5 4t42.5 2q23 0 40 -2t27 -4q12 -4 23 -6l-35 -166q-10 -4 -24 -6q-25 -6 -72 -6q-49 0 -70 6q-12 2 -20 6z" />
<glyph unicode="&#x152;" horiz-adv-x="1781" d="M118 419.5q-9 147.5 32 344.5q43 199 112.5 338t163.5 226t212 127t255 40q49 0 93 -5t81 -15h774q6 -41 -2 -84t-35 -86h-569l-100 -476h467q4 -18 4 -38.5t-4 -42.5q-12 -43 -35 -86h-467l-105 -492h590q6 -45 -2 -86q-8 -43 -35 -84h-796q-41 -10 -85 -15t-96 -5 q-137 0 -235 48t-153.5 146t-64.5 245.5zM326.5 454.5q3.5 -112.5 38 -179t97 -94t146.5 -27.5q49 0 103.5 8t101.5 28l231 1096q-41 16 -90 25.5t-98 9.5q-84 0 -158.5 -27.5t-138 -94t-114 -179.5t-87.5 -283q-35 -170 -31.5 -282.5z" />
<glyph unicode="&#x153;" horiz-adv-x="1656" d="M60.5 293.5q-7.5 109.5 25.5 261.5t85 256t123 167.5t160 91.5t193 28q109 0 178.5 -42t98.5 -138q72 94 159.5 137t188.5 43q186 0 267 -103.5t38 -308.5q-23 -98 -43 -154q-12 -33 -25 -57h-589q-25 -182 18 -256t172 -74q53 0 98 8.5t80 18.5q39 12 74 29 q23 -23 30 -59t3 -76q-39 -25 -92 -43q-45 -16 -110 -29.5t-151 -13.5q-219 0 -274 174q-139 -174 -358 -174q-104 0 -180 32.5t-119 102t-50.5 179zM262 343q0 -77 21.5 -123t62.5 -64.5t96 -18.5t100.5 18.5t83.5 64.5t68.5 124t55.5 197t27.5 195.5t-15 121.5t-55.5 63.5 t-93 18.5t-103 -18.5t-90 -64.5t-76 -123t-58 -195q-25 -119 -25 -196zM952 621h412q4 12 11.5 35.5t15.5 56.5q8 45 7 86t-18.5 71.5t-52.5 48t-90 17.5q-96 0 -166 -71.5t-119 -243.5z" />
<glyph unicode="&#x178;" horiz-adv-x="1294" d="M215 1460q12 2 33 6q16 4 40.5 6.5t55.5 2.5q23 0 42.5 -2.5t33.5 -6.5q16 -4 29 -6l239 -633l520 633q14 2 35 6q16 4 38 6.5t50 2.5q27 0 47.5 -2.5t36.5 -6.5l31 -6l-698 -844l-130 -602q-10 -4 -26 -8q-29 -6 -78 -6q-55 0 -80 6q-14 4 -24 8l129 598zM592 1593 l37 168l24 6q12 2 29.5 4.5t42.5 2.5q23 0 40 -2.5t28 -4.5q12 -4 22 -6l-37 -168q-10 -4 -24 -6q-25 -6 -70 -6q-49 0 -70 6q-12 2 -22 6zM940 1593l37 168q8 2 22 6q12 2 31 4.5t43 2.5q23 0 40 -2.5t28 -4.5q12 -4 22 -6l-37 -168q-10 -4 -24 -6q-25 -6 -70 -6 q-51 0 -71 6q-12 2 -21 6z" />
<glyph unicode="&#x2c6;" horiz-adv-x="811" d="M39 1251l317 222h54l254 -232q-23 -31 -48.5 -56.5t-60.5 -35.5l-190 145l-244 -143q-29 10 -51.5 39t-30.5 61z" />
<glyph unicode="&#x2dc;" horiz-adv-x="669" d="M25 1370q18 27 47 49q23 18 58.5 34.5t82.5 16.5q45 0 75.5 -10t55.5 -23.5t49.5 -23.5t55.5 -10q23 0 43 8t34 19q16 12 31 28q29 -12 43 -37.5t14 -56.5q-23 -27 -49 -49q-25 -18 -58.5 -33.5t-80.5 -15.5q-45 0 -76 10t-55.5 23.5t-49 23.5t-55.5 10q-25 0 -44 -9 t-35 -19q-18 -12 -31 -29q-55 33 -55 94z" />
<glyph unicode="&#x2000;" horiz-adv-x="966" />
<glyph unicode="&#x2001;" horiz-adv-x="1933" />
<glyph unicode="&#x2002;" horiz-adv-x="966" />
<glyph unicode="&#x2003;" horiz-adv-x="1933" />
<glyph unicode="&#x2004;" horiz-adv-x="644" />
<glyph unicode="&#x2005;" horiz-adv-x="483" />
<glyph unicode="&#x2006;" horiz-adv-x="322" />
<glyph unicode="&#x2007;" horiz-adv-x="322" />
<glyph unicode="&#x2008;" horiz-adv-x="241" />
<glyph unicode="&#x2009;" horiz-adv-x="386" />
<glyph unicode="&#x200a;" horiz-adv-x="107" />
<glyph unicode="&#x2010;" horiz-adv-x="735" d="M129 539q0 10 1 23t5 32q6 35 17 55l10 21h426q2 -10 2 -21v-24.5t-4 -30.5q-10 -37 -19 -55l-10 -21h-426q-2 10 -2 21z" />
<glyph unicode="&#x2011;" horiz-adv-x="735" d="M129 539q0 10 1 23t5 32q6 35 17 55l10 21h426q2 -10 2 -21v-24.5t-4 -30.5q-10 -37 -19 -55l-10 -21h-426q-2 10 -2 21z" />
<glyph unicode="&#x2012;" horiz-adv-x="735" d="M129 539q0 10 1 23t5 32q6 35 17 55l10 21h426q2 -10 2 -21v-24.5t-4 -30.5q-10 -37 -19 -55l-10 -21h-426q-2 10 -2 21z" />
<glyph unicode="&#x2013;" horiz-adv-x="1144" d="M129 539q0 10 1 23t5 32q6 35 17 55l10 21h835q2 -10 2 -21v-24.5t-4 -30.5q-10 -37 -18 -55l-10 -21h-836q-2 10 -2 21z" />
<glyph unicode="&#x2014;" horiz-adv-x="1656" d="M129 539q0 10 1 23t5 32q6 35 17 55l10 21h1347q2 -10 2 -21v-24.5t-4 -30.5q-10 -37 -18 -55l-10 -21h-1348q-2 10 -2 21z" />
<glyph unicode="&#x2018;" horiz-adv-x="466" d="M203 1012l26 129q16 84 53 146.5t74 103.5q43 49 90 84l64 -52q-23 -23 -45 -53q-18 -27 -40 -64.5t-36 -88.5q37 -4 51 -7q8 -2 17 -4l-41 -194q-10 -4 -27 -6q-29 -6 -82 -7q-53 0 -78 7q-16 2 -26 6z" />
<glyph unicode="&#x2019;" horiz-adv-x="448" d="M207 1051q23 20 45 51q18 27 38.5 63.5t35.5 87.5q-37 2 -50 9q-8 2 -14 6l41 192q10 2 27 6q14 4 33.5 6.5t48.5 2.5q27 0 45 -2.5t32 -6.5t27 -6l-29 -127q-18 -84 -54 -146.5t-73 -103.5q-43 -49 -90 -84z" />
<glyph unicode="&#x201a;" horiz-adv-x="477" d="M-47 -205q23 23 45 53q18 27 37.5 64t36.5 88q-18 0 -30.5 2t-21.5 6q-8 4 -14 6l41 193q10 2 27 6q14 4 34.5 6t49.5 2q27 0 46 -2t32 -6l24 -6l-27 -129q-18 -84 -54 -146.5t-73 -103.5q-43 -49 -92 -84z" />
<glyph unicode="&#x201c;" horiz-adv-x="671" d="M205 1014l28 127q16 84 53.5 146.5t73.5 103.5q43 49 91 84l63 -52q-23 -20 -45 -51q-18 -27 -38.5 -64.5t-35.5 -86.5q16 -2 28.5 -4.5t20.5 -4.5q8 -4 15 -6l-41 -192q-10 -4 -27 -8q-29 -6 -82 -7q-53 0 -78 7q-16 4 -26 8zM498 1014l28 127q16 84 53 146.5t74 103.5 q43 49 90 84l64 -52q-23 -20 -45 -51q-18 -27 -39 -64.5t-35 -86.5q16 -2 28.5 -4.5t20.5 -4.5q8 -4 15 -6l-41 -192q-10 -4 -27 -8q-29 -6 -82 -7q-51 0 -78 7q-16 4 -26 8z" />
<glyph unicode="&#x201d;" horiz-adv-x="741" d="M207 1051q23 20 45 51q18 27 37.5 63.5t36.5 87.5q-37 2 -50 9q-8 2 -14 6l41 192q10 2 27 6q14 4 33.5 6.5t48.5 2.5q25 0 44 -2.5t33 -6.5q16 -4 27 -6l-29 -127q-18 -84 -54 -146.5t-73 -103.5q-43 -49 -90 -84zM500 1051q23 20 45 51q18 27 37.5 63.5t35.5 87.5 q-37 2 -49 9q-8 2 -14 6l41 192q10 2 27 6q14 4 33.5 6.5t48.5 2.5q27 0 45 -2.5t32 -6.5t27 -6l-29 -127q-18 -84 -54 -146.5t-73 -103.5q-43 -49 -90 -84z" />
<glyph unicode="&#x201e;" horiz-adv-x="772" d="M-47 -205q23 23 45 53q18 27 37.5 64t36.5 88q-18 0 -30.5 2t-21.5 6q-8 4 -14 6l41 193q10 2 27 6q14 4 34.5 6t49.5 2q27 0 46 -2t32 -6l24 -6l-27 -129q-18 -84 -54 -146.5t-73 -103.5q-43 -49 -92 -84zM248 -205q23 23 45 53q18 27 37.5 64t36.5 88q-18 0 -30.5 2 t-21.5 6q-8 4 -14 6l41 193q10 2 27 6q14 4 34.5 6t49.5 2q25 0 44 -2t31 -6q14 -4 27 -6l-27 -129q-18 -84 -54 -146.5t-73 -103.5q-43 -49 -92 -84z" />
<glyph unicode="&#x2022;" horiz-adv-x="692" d="M164 578q16 78 76.5 124t134.5 46q72 0 110.5 -46t22.5 -124t-75.5 -123t-131.5 -45q-74 0 -114 45t-23 123z" />
<glyph unicode="&#x2026;" horiz-adv-x="1312" d="M6 14l41 193q10 2 27 6q14 4 34.5 6t49.5 2q27 0 46 -2t32 -6l24 -6l-41 -193q-12 -4 -29 -8q-29 -6 -79 -6q-55 0 -80 6q-14 4 -25 8zM426 14l41 193q10 2 27 6q14 4 34.5 6t49.5 2q27 0 46 -2t31 -6l25 -6l-41 -193q-12 -4 -29 -8q-29 -6 -80 -6q-55 0 -79 6 q-14 4 -25 8zM842 14l41 193q10 2 26 6q14 4 35 6t49 2q27 0 46.5 -2t31.5 -6l25 -6l-41 -193q-12 -4 -29 -8q-29 -6 -80 -6q-55 0 -80 6q-14 4 -24 8z" />
<glyph unicode="&#x202f;" horiz-adv-x="386" />
<glyph unicode="&#x2039;" horiz-adv-x="694" d="M72 485v24.5t4 35.5q8 39 22 67q6 14 13 25l501 405q23 -20 33 -53t10 -67l-399 -371l242 -369q-14 -35 -39 -67.5t-56 -53.5l-329 402q-2 10 -2 22z" />
<glyph unicode="&#x203a;" horiz-adv-x="694" d="M8 182l398 369l-240 371q12 35 36.5 67.5t55.5 52.5l324 -424q2 -10 2 -24q0 -29 -9 -68q-8 -35 -18 -59q-6 -12 -12 -23l-496 -383q-23 20 -33 53t-8 68z" />
<glyph unicode="&#x205f;" horiz-adv-x="483" />
<glyph unicode="&#x20ac;" horiz-adv-x="1208" d="M61 459q0 29 14.5 66.5t37.5 64.5h135l16 96q6 27 11.5 50.5t15.5 49.5h-160q0 29 14.5 66t36.5 63h150q90 236 243.5 357t374.5 121q76 0 131.5 -10.5t92.5 -22.5q43 -14 71 -33q-12 -47 -32.5 -81t-57.5 -60q-27 12 -61 20q-29 8 -70 14.5t-88 6.5q-61 0 -117.5 -15.5 t-106.5 -51.5t-93.5 -96t-79.5 -149h499q2 -29 -12 -65.5t-37 -63.5h-495q-8 -25 -13.5 -49t-11.5 -53q-12 -49 -18 -94h434q2 -31 -12.5 -68t-36.5 -63h-396q-4 -90 13.5 -150.5t53.5 -96.5t87 -50.5t113 -14.5q53 0 100 6.5t82 14.5q41 8 76 22q27 -25 30.5 -64.5 t-4.5 -80.5q-39 -18 -90 -33q-45 -12 -107.5 -22t-142.5 -10q-440 0 -415 479h-175z" />
<glyph unicode="&#x2122;" horiz-adv-x="1263" d="M236 1403q-2 16 0 35q4 20 14 37h416q6 -16 0 -35q-2 -10 -6.5 -18.5t-8.5 -18.5h-162l-108 -510q-4 -2 -12 -4q-16 -4 -35 -4q-20 0 -33 4q-6 2 -8 4l108 510h-165zM635 893l121 573q6 2 14 4q20 4 41 5q16 0 24.5 -2.5t24.5 -6.5l51 -174q14 -47 23.5 -89t13.5 -68 q14 23 41 61.5t60 85.5l127 184q8 2 18 4q20 4 39 5q23 0 39 -5q8 -2 14 -4l-121 -573q-4 -2 -12 -4q-16 -4 -31 -4q-18 0 -30 4q-6 2 -11 4l52 240q16 76 25 127t24 100l-86 -129l-131 -182q-4 -2 -11 -5q-6 -2 -28 -2q-20 0 -27 2q-6 2 -8 5l-51 180q-10 41 -17.5 69.5 t-13.5 61.5q-6 -35 -16.5 -92.5t-26.5 -134.5l-51 -240q-4 -2 -13 -4q-16 -4 -30 -4t-27 4q-6 2 -10 4z" />
<glyph unicode="&#x25fc;" horiz-adv-x="1075" d="M0 0v1075h1075v-1075h-1075z" />
</font>
</defs>
</svg>
