<?xml version="1.0" standalone="no"?>
<!DOCTYPE svg PUBLIC "-//W3C//DTD SVG 1.1//EN" "http://www.w3.org/Graphics/SVG/1.1/DTD/svg11.dtd" >
<svg xmlns="http://www.w3.org/2000/svg">
<metadata></metadata>
<defs>
<font id="globerthin" horiz-adv-x="1126" >
<font-face units-per-em="2048" ascent="1536" descent="-512" />
<missing-glyph horiz-adv-x="538" />
<glyph unicode="&#xfb01;" horiz-adv-x="1114" d="M92 1049q-10 12 0 28h131v131q0 80 16.5 141.5t57.5 102.5t109.5 62.5t173.5 21.5q61 0 118.5 -8t102.5 -19q53 -12 98 -26q4 -18 -10 -27q-43 14 -92 25q-43 10 -98.5 18t-114.5 8q-100 0 -165 -18.5t-101.5 -56t-51 -93t-14.5 -129.5v-133h657v-1073q0 -2 -2 -2 q-2 -2 -14 -2q-8 0 -10 2q-2 0 -2 2v1045h-629v-1045q0 -2 -2 -2q-2 -2 -12 -2t-13 2q-2 0 -2 2v1045h-131z" />
<glyph unicode="&#xfb02;" horiz-adv-x="1118" d="M92 1049q-6 14 0 28h131v123q0 74 14.5 135.5t51.5 106.5t100.5 69.5t159.5 24.5q72 0 138.5 -11.5t115.5 -23.5q57 -16 106 -35v-1462q-14 -8 -28 0v1442q-47 16 -130 38.5t-192 22.5q-92 0 -152.5 -20.5t-94 -59t-47 -93t-13.5 -124.5v-133h295q6 -14 0 -28h-295v-1045 q0 -2 -2 -2q-2 -2 -12 -2t-13 2q-2 0 -2 2v1045h-131z" />
<glyph horiz-adv-x="2048" />
<glyph horiz-adv-x="2048" />
<glyph unicode="&#xd;" horiz-adv-x="659" />
<glyph unicode=" "  horiz-adv-x="538" />
<glyph unicode="&#x09;" horiz-adv-x="538" />
<glyph unicode="&#xa0;" horiz-adv-x="538" />
<glyph unicode="!" horiz-adv-x="462" d="M203 2v41q2 2 8 4q8 4 20 4t21 -4l8 -4v-41l-8 -4q-8 -4 -21 -4q-12 0 -20 4q-6 2 -8 4zM217 291v1179q14 6 31 0l-4 -1179q-14 -6 -27 0z" />
<glyph unicode="&#x22;" horiz-adv-x="569" d="M174 1470l4 3q2 0 5 1t7 1t7.5 -1t5.5 -1q2 -2 4 -3l-4 -385q-4 0 -6 -1t-7 -1h-8q-2 0 -4 2zM362 1470q2 0 5 3q2 0 5 1t7 1t7 -1t5 -1q2 -2 4 -3l-4 -385q0 -2 -2 -2h-10h-8q-2 0 -4 2z" />
<glyph unicode="#" horiz-adv-x="1325" d="M109 317q-6 14 0 31h247l160 563h-235q-2 4 -3.5 6.5t-1.5 8.5q0 8 5 16h243l94 330q14 4 31 0l-94 -330h395l94 330q14 4 31 0l-94 -330h231q4 -8 5 -16q0 -4 -1.5 -7.5t-3.5 -7.5h-239l-160 -563h227q6 -16 0 -31h-235l-88 -311q-16 -6 -31 0l88 311h-395l-88 -311 q-16 -6 -31 0l88 311h-239zM387 348h395l160 563h-395z" />
<glyph unicode="$" horiz-adv-x="1136" d="M139 70q4 20 13 28q51 -18 112 -30q53 -12 120 -21.5t142 -9.5q209 0 328 81t119 236q0 86 -36 140.5t-94.5 89t-133 55t-152.5 39t-152.5 41t-133 60.5t-94.5 96.5t-36 150.5q0 152 104.5 241t301.5 99l-4 242q2 0 6 2q4 0 7 1t7 1t8 -1t9 -1q4 -2 6 -2l-8 -240 q86 0 152.5 -5t111.5 -13q53 -8 90 -21q0 -20 -10 -31q-41 10 -93 19q-43 8 -103 14t-130 6q-217 0 -320.5 -86t-103.5 -225q0 -86 36 -140.5t94 -89t133 -55t153 -39t152.5 -41t133 -60.5t94.5 -97.5t36 -151.5q0 -154 -113 -246t-311 -102l4 -252q-2 -2 -4 -2 q-4 -2 -15 -2q-14 0 -16 2q-4 0 -4 2l4 252q-94 -2 -170 9.5t-129 23.5q-63 14 -111 33z" />
<glyph unicode="%" horiz-adv-x="1509" d="M123 1061q0 190 67.5 272t186.5 82q117 0 186.5 -81t69.5 -273q0 -193 -69.5 -273.5t-186.5 -80.5q-119 0 -186.5 80.5t-67.5 273.5zM152 1061q0 -92 16 -154.5t46 -100.5t71 -54.5t92 -16.5t92 16.5t70.5 54.5t46 100.5t16.5 154.5q0 182 -62.5 253.5t-162.5 71.5 q-51 0 -92 -16t-71 -54t-46 -100.5t-16 -154.5zM352 -16l797 1450q16 6 35 0l-797 -1450q-18 -6 -35 0zM879 334q0 190 67.5 272t186.5 82q117 0 186.5 -81t69.5 -273q0 -193 -69.5 -273.5t-186.5 -80.5q-119 0 -186.5 80.5t-67.5 273.5zM907 334q0 -92 16.5 -154.5 t46 -100.5t70.5 -54.5t93 -16.5q51 0 92 16.5t70.5 54.5t46 100.5t16.5 154.5q0 182 -62.5 253.5t-162.5 71.5q-51 0 -92.5 -16t-71 -54t-46 -100.5t-16.5 -154.5z" />
<glyph unicode="&#x26;" horiz-adv-x="1290" d="M119 324q0 80 24.5 140t67.5 108.5t98.5 86t116.5 70.5q-35 82 -52.5 161t-17.5 157q0 174 82 270t230 96q66 0 114.5 -21.5t81.5 -55t49.5 -76.5t16.5 -89q0 -98 -42 -165.5t-108.5 -118.5t-149.5 -91t-163 -81q72 -158 184.5 -284t261.5 -232q72 76 118 168t63 190 q18 -2 30 -20q-20 -90 -66 -183.5t-118 -173.5q63 -41 131 -81t148 -70q2 -18 -13 -31q-74 29 -148.5 71t-139.5 87q-78 -78 -184.5 -127t-241.5 -49q-72 0 -139.5 19t-120 61t-83 107.5t-30.5 156.5zM152 322q0 -74 25.5 -132.5t70.5 -98.5t108.5 -60.5t137.5 -20.5 q121 0 220 45t177 119q-147 111 -262 239.5t-189 286.5q-59 -31 -111.5 -66.5t-91 -79.5t-62 -101.5t-23.5 -130.5zM389 1051q0 -152 64 -308q80 41 158.5 80t142 86t103.5 109.5t40 148.5q0 98 -63.5 155.5t-174.5 57.5q-129 0 -199.5 -87t-70.5 -242z" />
<glyph unicode="'" horiz-adv-x="380" d="M174 1470q2 0 4 3q2 0 5 1t7 1t7.5 -1t5.5 -1q2 -2 4 -3l-4 -385q-12 -6 -25 0z" />
<glyph unicode="(" horiz-adv-x="569" d="M145 655q0 121 13.5 228.5t36 201t51 173t59.5 143.5q70 149 162 260q16 -4 25 -16q-90 -106 -158 -254q-59 -127 -107.5 -310.5t-48.5 -425.5t48 -425t108 -310q68 -147 158 -254q-4 -12 -21 -16q-2 0 -25.5 29.5t-60.5 87t-79 143.5t-77.5 197.5t-59.5 249t-24 298.5z " />
<glyph unicode=")" horiz-adv-x="569" d="M78 -334q88 106 155 254q59 127 108.5 310t49.5 425q0 119 -13 225.5t-36 198.5t-51.5 170t-57.5 142q-68 147 -155 254q8 12 24 16q90 -111 160 -260q31 -63 59.5 -143t51 -173.5t37 -201t14.5 -228.5q0 -162 -23.5 -299t-59.5 -248.5t-78 -197.5t-79 -143.5t-62 -86.5 l-24 -30q-16 4 -20 16z" />
<glyph unicode="*" horiz-adv-x="761" d="M168 1274q0 16 8 26l189 -57v187q14 6 30 0v-187l189 57q10 -10 10 -26l-193 -60l123 -167q-4 -4 -8 -8.5t-14 -8.5l-123 166l-121 -168q-18 6 -25 16l123 170z" />
<glyph unicode="+" horiz-adv-x="954" d="M143 594q0 12 2 14q0 2 2 2h316v314l2 2q2 0 5 1t7 1t8 -1t7 -1l2 -2v-314h313l2 -2q0 -2 1 -6t1 -8t-1 -7t-1 -5l-2 -2h-313v-316q0 -2 -2 -2q-2 -2 -15 -2q-10 0 -12 2q-2 0 -2 2v316h-316q-2 0 -2 2q-2 2 -2 12z" />
<glyph unicode="," horiz-adv-x="364" d="M129 -131q14 16 25 39q10 16 17 39.5t7 48.5q-10 0 -14 2q-4 0 -6 2v41q2 0 6 2q4 0 7 1t11 1q6 0 10.5 -1t8.5 -1q4 -2 6 -2v-35q0 -35 -10.5 -61.5t-20.5 -46.5q-14 -23 -31 -41z" />
<glyph unicode="-" horiz-adv-x="716" d="M182 575q-6 14 0 31h353q6 -16 0 -31h-353z" />
<glyph unicode="." horiz-adv-x="331" d="M137 2v41q2 2 8 4q8 4 21 4q12 0 20 -4l9 -4v-41l-9 -4q-8 -4 -20 -4t-21 4q-6 2 -8 4z" />
<glyph unicode="/" horiz-adv-x="831" d="M55 -90l690 1620q16 6 33 0l-690 -1620q-16 -6 -33 0z" />
<glyph unicode="0" horiz-adv-x="1273" d="M164 696q0 377 119.5 547t351.5 170q115 0 204 -40t149.5 -127t91 -223t30.5 -327q0 -190 -30.5 -326.5t-91 -223.5t-149.5 -126.5t-204 -39.5t-203 39.5t-147.5 126.5t-90 223.5t-30.5 326.5zM195 696q0 -348 106.5 -517t333.5 -169q229 0 336.5 169t107.5 517 q0 346 -107.5 516t-336.5 170q-227 0 -333.5 -167.5t-106.5 -518.5z" />
<glyph unicode="1" horiz-adv-x="782" d="M92 1049q129 35 243 123t187 217l2 2q2 0 5 1t8 1q4 0 6 -1t4 -1l2 -2v-1385q-16 -10 -31 0v1325q-72 -117 -182.5 -195.5t-233.5 -113.5q-14 11 -10 29z" />
<glyph unicode="2" horiz-adv-x="1075" d="M131 137q0 123 35 201t92 130t127 90t141 81q74 45 142.5 86t121 90t84 111.5t31.5 148.5q0 45 -11 98.5t-48 99.5t-107.5 77.5t-189.5 31.5q-123 0 -209 -21t-145 -48q-10 8 -11 26q41 20 97 37q47 14 115.5 25.5t154.5 11.5q78 0 148.5 -17.5t122.5 -57.5t83 -104.5 t31 -158.5q0 -84 -26.5 -145.5t-78 -113.5t-123 -99t-163.5 -103q-57 -35 -124 -67.5t-124 -81.5t-95 -126t-38 -202q0 -45 3 -76.5t3 -29.5h741q8 -16 0 -31h-768q-4 18 -6 41q-6 37 -6 96z" />
<glyph unicode="3" horiz-adv-x="1042" d="M119 43q0 16 12 27q53 -23 126 -41.5t183 -18.5q414 0 414 334q0 119 -42 191.5t-104.5 112.5t-137 54.5t-142.5 14.5h-76q-2 14 0 31h76q59 0 127 10t126 44t97 100.5t39 178.5q0 135 -85 218t-271 83q-66 0 -122 -8t-97 -18q-49 -12 -88 -27q-12 4 -13 25q41 16 92 28 q43 10 101.5 20.5t128.5 10.5q100 0 173 -26.5t120 -70.5t69.5 -103.5t22.5 -125.5t-14.5 -124t-47 -104t-88 -80t-137.5 -48q86 -14 146.5 -48t100.5 -85t58.5 -114.5t18.5 -135.5q0 -180 -111.5 -274t-331.5 -94q-72 0 -131 9t-102 21q-51 14 -90 33z" />
<glyph unicode="4" horiz-adv-x="1167" d="M88 403q0 12 2 15q0 2 2 2l713 969q2 0 4 2q2 0 5 1t9 1q4 0 6 -1t5 -1l2 -2v-969h231l2 -2q0 -2 1 -6t1 -9q0 -4 -1 -7t-1 -5l-2 -2h-231v-385q-2 -2 -5 -2q-2 -2 -12 -2t-12 2q-2 0 -2 2v385h-713q-2 0 -2 2q-2 2 -2 12zM131 420h674v915z" />
<glyph unicode="5" horiz-adv-x="1052" d="M129 27q-4 14 8 26q37 -14 82 -22q39 -10 89 -16.5t110 -6.5q240 0 352.5 87t112.5 270q0 74 -17.5 140t-65.5 117.5t-133 82t-218 30.5q-43 0 -84 -4t-75 -8t-56.5 -8t-28.5 -6v684h649q4 -16 0 -31h-618v-617q31 6 81 13.5t132 7.5q125 0 213 -27.5t144 -79t81.5 -126 t25.5 -168.5q0 -184 -114.5 -284.5t-372.5 -100.5q-78 0 -133 6t-92 16q-43 10 -72 25z" />
<glyph unicode="6" horiz-adv-x="1130" d="M158 526q0 215 53 373t146.5 264.5t221 163t279.5 66.5q6 -16 0 -29q-274 -27 -444 -185.5t-215 -471.5q92 76 188 110.5t209 34.5q201 0 303 -109.5t102 -326.5q0 -104 -31.5 -185t-88 -137.5t-134 -85t-167.5 -28.5t-167 31.5t-134.5 98t-89 170t-31.5 246.5zM190 518 q0 -131 30 -226t82 -157.5t123 -93.5t155 -31t155.5 25.5t123.5 77t82 127.5t30 176q0 201 -93.5 303t-277.5 102q-117 0 -215 -36.5t-190 -114.5q-4 -35 -4.5 -74t-0.5 -78z" />
<glyph unicode="7" horiz-adv-x="1009" d="M82 1376q0 10 2 13q0 2 2 4h821q2 -6 3 -10.5t1 -10.5q0 -135 -38.5 -236.5t-98 -191.5t-129.5 -179t-129 -196.5t-99 -244t-40 -320.5q-10 -8 -21 -4q-6 2 -10 4q0 184 40 322.5t99.5 247t128 198.5t128 179t99.5 186.5t40 224.5h-795q-2 2 -2 4q-2 2 -2 10z" />
<glyph unicode="8" horiz-adv-x="1189" d="M152 315q0 96 36.5 173t86 134.5t101.5 95.5t83 56q-53 25 -101.5 55.5t-83 69.5t-55 89t-20.5 114q0 147 102 229t289 82q186 0 289.5 -83.5t103.5 -233.5q0 -84 -28.5 -150.5t-69.5 -116t-86 -81t-76 -50.5q63 -27 120.5 -58.5t101.5 -76.5t69.5 -103.5t25.5 -137.5 q0 -162 -116.5 -252t-327.5 -90t-327.5 88t-116.5 247zM182 317q0 -145 108.5 -226t305.5 -81t305.5 82t108.5 230q0 100 -46 166.5t-120 113.5t-166 82t-186 76q-25 -12 -76 -47t-103.5 -92.5t-91.5 -133.5t-39 -170zM229 1104q0 -90 41 -150.5t107.5 -103.5t148.5 -74 t162 -63q37 18 83 51t86 80t67.5 110.5t27.5 141.5q0 135 -95 210.5t-267 75.5t-266.5 -73.5t-94.5 -204.5z" />
<glyph unicode="9" horiz-adv-x="1130" d="M129 977q0 104 32 185t88 137.5t134 85t168 28.5t167 -31.5t134 -98t89 -170t32 -247.5q0 -215 -56.5 -373.5t-153.5 -264t-229 -162t-282 -66.5q-6 16 0 29q137 12 251.5 58t203 127t145.5 197.5t80 274.5q-92 -76 -188.5 -110.5t-208.5 -34.5q-193 0 -299.5 114.5 t-106.5 321.5zM160 977q0 -193 97 -299.5t273 -106.5q117 0 215.5 37t190.5 115q4 35 4 74v77q0 131 -29.5 226.5t-82 158t-123 93t-154.5 30.5t-155.5 -25.5t-124 -76.5t-82 -127t-29.5 -176z" />
<glyph unicode=":" horiz-adv-x="417" d="M180 2v41q2 2 8 4q8 4 21 4q12 0 20 -4l9 -4v-41l-9 -4q-8 -4 -20 -4t-21 4q-6 2 -8 4zM180 815v41q2 2 8 4q8 4 21 4q12 0 20 -4l9 -4v-41l-9 -4q-8 -4 -20 -4t-21 4q-6 2 -8 4z" />
<glyph unicode=";" horiz-adv-x="446" d="M176 -131q14 16 25 39q10 16 17 39.5t7 48.5q-10 0 -14 2q-4 0 -6 2v41q2 0 6 2q4 0 7 1t11 1q6 0 10.5 -1t8.5 -1q4 -2 6 -2v-35q0 -35 -10.5 -61.5t-20.5 -46.5q-14 -23 -30 -41zM201 815v41q2 2 8 4q8 4 20 4t21 -4l8 -4v-41l-8 -4q-8 -4 -21 -4q-12 0 -20 4 q-6 2 -8 4z" />
<glyph unicode="&#x3c;" horiz-adv-x="983" d="M133 594q0 10 2 14q0 4 2 8l656 316q0 -2 2 -4q0 -2 1 -5t1 -8q0 -4 -1 -8t-1 -6l-2 -4l-631 -303l631 -303q0 -2 2 -6q0 -4 1 -6.5t1 -6.5t-1 -7t-1 -5q-2 -2 -2 -4l-656 315q-2 2 -2 7q-2 4 -2 16z" />
<glyph unicode="=" horiz-adv-x="1032" d="M188 410q-6 14 0 30h656q6 -16 0 -30h-656zM188 741q-6 14 0 31h656q6 -16 0 -31h-656z" />
<glyph unicode="&#x3e;" horiz-adv-x="983" d="M186 272q0 8 2 13q0 4 2 6l631 303l-631 303q-2 0 -2 4q-2 2 -2 14q0 10 2 13q0 2 2 4l656 -316q0 -4 2 -8q0 -4 1 -7t1 -7t-1 -8t-1 -8q-2 -4 -2 -7l-656 -315q-2 2 -2 4q-2 2 -2 12z" />
<glyph unicode="?" horiz-adv-x="876" d="M96 1356q37 16 84 28q41 10 96.5 19.5t124.5 9.5q100 0 168 -27.5t109 -71.5t58.5 -98.5t17.5 -109.5q0 -102 -30 -171t-74 -120t-96 -96t-96 -101.5t-74 -134t-30 -194.5q-2 -2 -4 -2q-2 -2 -12 -2q-8 0 -10 2q-2 0 -4 2q0 121 29.5 201.5t73.5 138t96 102.5t96.5 95.5 t74 115t29.5 162.5q0 51 -15.5 101t-52.5 89t-98 63.5t-154 24.5q-70 0 -124 -9t-93 -19q-45 -12 -80 -27q-6 4 -9 14.5t-1 14.5zM311 2v41q2 2 8 4q8 4 21 4q12 0 20 -4l9 -4v-41l-9 -4q-8 -4 -20 -4t-21 4q-6 2 -8 4z" />
<glyph unicode="@" horiz-adv-x="1878" d="M152 571q0 186 58 338t162.5 259.5t248 166t313.5 58.5q190 0 336.5 -58.5t246 -161t150.5 -243.5t51 -309q0 -221 -78.5 -334t-234.5 -113q-31 0 -64.5 10.5t-61.5 35t-48.5 63.5t-26.5 96q-25 -86 -92.5 -145.5t-171.5 -59.5q-330 0 -330 395q0 197 83 297.5t247 100.5 q100 0 164.5 -54.5t91.5 -121.5v170q6 4 11 3t10 -1q6 -2 10 -2v-510q0 -133 52 -189.5t130 -56.5q137 0 208 105.5t71 310.5q0 168 -51.5 304t-148.5 233t-236.5 150.5t-317.5 53.5q-160 0 -297 -55.5t-238.5 -157.5t-159 -248.5t-57.5 -329.5q0 -182 49.5 -326.5 t143.5 -244.5t229 -152.5t307 -52.5q186 0 332 50.5t256 136.5q16 -6 19 -23q-131 -100 -279.5 -147.5t-327.5 -47.5q-178 0 -319 54.5t-239.5 159t-149.5 254t-51 339.5zM641 569q0 -365 295 -364q61 0 109.5 23.5t81 60.5t50 84t19.5 94v197q0 49 -16.5 98t-49 88 t-82 62.5t-112.5 23.5q-295 0 -295 -367z" />
<glyph unicode="A" horiz-adv-x="1304" d="M51 2l596 1479q2 2 4 2l4 -2l598 -1479q-2 -2 -4 -2q-2 -2 -12 -2q-8 0 -12 2q-4 0 -6 2l-187 465h-760l-186 -465q-2 -2 -4 -2q-4 -2 -14 -2t-13 2q-2 0 -4 2zM285 498h735l-369 913z" />
<glyph unicode="B" horiz-adv-x="1280" d="M229 0v1475h455q119 0 196.5 -33t122 -85t61.5 -119.5t17 -137.5q0 -98 -27.5 -164t-68.5 -107t-87 -59t-83 -25q39 -2 93.5 -18t103.5 -57t82.5 -111t33.5 -180q0 -86 -22.5 -155.5t-73.5 -119t-134 -77t-206 -27.5h-463zM260 31h440q113 0 189 24.5t122 69.5 t66.5 109.5t20.5 144.5q0 174 -96.5 262t-303.5 88h-438v-698zM260 758h424q100 0 171 25.5t114 70.5t62.5 108.5t19.5 137.5q0 76 -18.5 139.5t-61.5 108.5t-116 70.5t-179 25.5h-416v-686z" />
<glyph unicode="C" horiz-adv-x="1138" d="M162 735q0 381 126 570.5t394 189.5q84 0 146.5 -10t105.5 -23q51 -14 86 -30q0 -18 -12 -27q-37 16 -86 29q-41 10 -100.5 20t-133.5 10q-111 0 -203 -34.5t-156.5 -119.5t-100 -225.5t-35.5 -349.5t34.5 -349t99 -223t156.5 -118t205 -35q80 0 143.5 9.5t106.5 21.5 q51 12 90 31q14 -6 14 -25q-37 -20 -90 -35q-45 -12 -111.5 -22t-158.5 -10q-264 0 -392 183t-128 572z" />
<glyph unicode="D" horiz-adv-x="1345" d="M229 0v1475h369q145 0 255 -34t182.5 -118t109.5 -226.5t37 -359.5t-39 -359t-113 -226t-182.5 -118t-249.5 -34h-369zM260 31h332q139 0 243.5 32.5t175 112.5t105.5 216t35 345t-34 345.5t-103.5 217t-174 112.5t-247.5 32h-332v-1413z" />
<glyph unicode="E" horiz-adv-x="1138" d="M229 0v1475h777q6 -16 0 -31h-746v-680h643q6 -16 0 -31h-643v-702h766q3 -8 3 -15.5t-3 -15.5h-797z" />
<glyph unicode="F" horiz-adv-x="1091" d="M229 4v1471h781q3 -8 3 -15.5t-3 -15.5h-750v-696h647q6 -16 0 -31h-647v-713q0 -2 -2 -2q-2 -2 -12 -2t-13 2q-2 0 -4 2z" />
<glyph unicode="G" horiz-adv-x="1259" d="M160 737q0 381 139 569.5t401 188.5q86 0 154 -10t115 -23q55 -14 98 -30q0 -18 -12 -27q-47 16 -103 29q-47 10 -110.5 20t-134.5 10q-109 0 -203 -34.5t-164 -118.5t-110 -224.5t-40 -349.5t40 -349t109 -224t163 -119t205 -35q113 0 206 18.5t148 37.5v655h-428v31 h457v-709q-47 -18 -107 -33q-51 -12 -121.5 -21t-161.5 -9q-262 0 -401 184t-139 573z" />
<glyph unicode="H" horiz-adv-x="1376" d="M229 4v1466q2 0 4 3q2 0 5.5 1t7.5 1t6 -1t4 -1q2 -2 4 -3v-698h856v698q2 0 4 3q2 0 4 1t6 1t7.5 -1t5.5 -1q2 -2 4 -3v-1466q-2 -2 -4 -2q-2 -2 -13 -2q-10 0 -12 2q-2 0 -2 2v737h-856v-737q-2 -2 -4 -2q-2 -2 -10 -2q-12 0 -15 2q-2 0 -2 2z" />
<glyph unicode="I" horiz-adv-x="489" d="M229 4v1466q2 0 4 3q2 0 5.5 1t7.5 1t7 -1t5 -1l2 -3v-1466q-2 -2 -4 -3t-12 -1q-8 0 -11 2q-2 0 -4 2z" />
<glyph unicode="J" horiz-adv-x="845" d="M68 41q-1 4 -1 8q0 16 15 21q33 -18 74 -31q35 -10 83 -19.5t107 -9.5q63 0 110.5 14.5t78 47t45 87t14.5 136.5v1175q2 0 4 3q2 0 4 1t6 1t7 -1t6 -1q2 -2 4 -3v-1175q0 -82 -14.5 -141.5t-47.5 -98.5t-88 -57t-135 -18q-55 0 -105.5 9t-87.5 21q-43 12 -79 31z" />
<glyph unicode="K" horiz-adv-x="1241" d="M229 4v1466q2 0 4 3q2 0 4.5 1t6.5 1t7 -1t5 -1q2 -2 4 -3v-690h336l485 690q10 6 20 6q4 0 7 -1q6 -2 10 -5l-495 -702l553 -764q-2 0 -6.5 -2t-12.5 -2q-12 0 -16 2q-4 0 -4 2l-539 746h-338v-746q-2 -2 -4 -2q-2 -2 -10 -2q-10 0 -13 2q-2 0 -4 2z" />
<glyph unicode="L" horiz-adv-x="1019" d="M229 0v1470q2 0 4 3q2 0 5.5 1t7.5 1t7 -1t5 -1l2 -3v-1439h696q6 -16 5 -23q-2 -6 -5 -8h-727z" />
<glyph unicode="M" horiz-adv-x="1761" d="M229 4v1466q12 5 23 5t22 -5l607 -1003l606 1003q12 5 23 5t22 -5v-1466q-2 -2 -4 -2q-2 -2 -12 -2t-13 2q-2 0 -2 2v1325l2 115l-600 -1000q-23 -10 -45 0l-600 1000l2 -115v-1325q0 -2 -2 -2q-2 -2 -12 -2t-13 2q-2 0 -4 2z" />
<glyph unicode="N" horiz-adv-x="1409" d="M229 4v1466q2 0 4 3q2 0 5.5 1t7.5 1t6 -1t4 -1q2 -2 4 -3l797 -1261l98 -160q-2 25 -4 60q-2 29 -2 68.5v90.5v1202q2 0 4 3q2 0 5 1t7 1t6.5 -1t4.5 -1q2 -2 4 -3v-1466q-2 -2 -4 -2q-2 -2 -11 -2q-10 0 -12 2q-2 0 -4 2l-893 1419l4 -237v-1182q-4 -2 -6 -2 q-4 -2 -10 -2q-8 0 -11 2q-2 0 -4 2z" />
<glyph unicode="O" horiz-adv-x="1388" d="M162 737q0 199 35.5 342.5t104.5 235.5t168 136t224 44t224.5 -44t168 -136t104.5 -235.5t36 -342.5t-37 -342t-105.5 -235t-167 -136t-223.5 -44t-223 44t-166.5 136t-105.5 235t-37 342zM193 737q0 -195 34.5 -332t100 -225t159 -129t207.5 -41q115 0 207 41t157.5 129 t101.5 225t36 332q0 193 -36 331t-101.5 226t-157.5 129t-207 41t-208 -41t-158.5 -129t-100 -226t-34.5 -331z" />
<glyph unicode="P" horiz-adv-x="1220" d="M229 4v1471h494q180 0 278.5 -109t98.5 -305q0 -195 -98.5 -303.5t-278.5 -108.5h-463v-645q-2 -2 -4 -2q-2 -2 -12 -2q-8 0 -11 2q-2 0 -4 2zM260 680h465q164 0 254 99.5t90 279.5q0 182 -90 283.5t-254 101.5h-465v-764z" />
<glyph unicode="Q" horiz-adv-x="1384" d="M160 737q0 375 134 566.5t398 191.5t398.5 -191.5t134.5 -566.5q0 -248 -56.5 -409.5t-160.5 -247.5q57 -66 128.5 -102.5t125.5 -51.5q0 -18 -11 -28q-31 6 -65.5 20t-70.5 35.5t-69.5 48.5t-58.5 57q-121 -79 -291 -79h-4q-264 0 -398 191t-134 566zM190 737 q0 -360 127 -543.5t375 -183.5q115 0 207 41t157.5 129t101.5 225.5t36 331.5q0 360 -127 543.5t-375 183.5t-375 -183t-127 -544z" />
<glyph unicode="R" horiz-adv-x="1253" d="M229 4v1471h482q180 0 279.5 -109t99.5 -287q0 -160 -81 -263t-231 -128l352 -684q-2 -2 -6 -2q-4 -2 -12 -2q-10 0 -12 2q-2 0 -4 2l-348 680h-488v-680q-2 -2 -4 -2q-2 -2 -12 -2q-8 0 -11 2q-2 0 -4 2zM260 715h455q156 0 250 96t94 268t-94.5 268.5t-249.5 96.5h-455 v-729z" />
<glyph unicode="S" horiz-adv-x="1138" d="M147 53q0 16 13 29q49 -20 108 -37q51 -14 119 -24.5t145 -10.5q207 0 327 90t120 265q0 94 -34 155.5t-90 100t-129 62.5t-151 44q-84 20 -160.5 46t-136 68t-95.5 107.5t-36 167.5q0 176 117 277.5t334 101.5q82 0 147.5 -7t112.5 -18q53 -10 98 -22q0 -18 -10 -29 q-49 12 -104 23q-47 10 -109.5 17t-132.5 7q-213 0 -317.5 -97t-104.5 -253q0 -92 30 -151.5t84 -98.5t127 -63.5t159 -44.5q78 -18 154.5 -44t138 -69t100.5 -109.5t39 -170.5q0 -180 -125 -282.5t-342 -102.5q-92 0 -163 11t-124 25q-61 16 -109 37z" />
<glyph unicode="T" horiz-adv-x="1075" d="M72 1460q0 10 2 13q0 2 2 2h923l2 -2q0 -2 1.5 -5.5t1.5 -7.5t-1.5 -7t-1.5 -5q-2 -2 -2 -4h-440v-1440q-2 -2 -4 -2q-2 -2 -12 -2q-8 0 -11 2q-2 0 -4 2v1440h-452q-2 2 -2 4q-2 2 -2 12z" />
<glyph unicode="U" horiz-adv-x="1355" d="M217 442v1028q2 0 4 3q2 0 4 1t6 1t7.5 -1t5.5 -1q2 -2 4 -3v-1030q0 -205 112.5 -317.5t317.5 -112.5t317.5 113t112.5 317v1030q2 0 4 3q2 0 4 1t6 1t7.5 -1t5.5 -1q2 -2 4 -3v-1028q0 -219 -122 -340.5t-341 -121.5q-217 0 -338 121.5t-121 340.5z" />
<glyph unicode="V" horiz-adv-x="1222" d="M61 1473h5q2 0 5 1t7 1t5 -1t5 -1q2 -2 6 -3l516 -1398h2l514 1398q2 0 4 3q2 0 5.5 1t9.5 1q4 0 7 -1t5 -1l2 -3l-545 -1478q-2 -2 -3.5 -2t-2.5 2z" />
<glyph unicode="W" horiz-adv-x="1921" d="M70 1470q2 0 4 3q2 0 5 1t7 1t7 -1t5 -1q2 -2 4 -3l385 -1247q12 -41 20.5 -69.5t14.5 -49.5q6 -23 10 -38h3q2 16 8 38q4 20 13 49t22 70l385 1247l2 3l4 2q2 0 2 -1t2 -1q0 -2 2 -3l385 -1247q12 -41 20.5 -70.5t12.5 -50.5q6 -23 10 -41h2q2 18 8 43q4 20 12.5 50 t18.5 69l360 1247l2 3q2 0 5.5 1t11.5 1q4 0 7 -1t5 -1l2 -3l-430 -1478q-2 -2 -3.5 -2t-2.5 2l-393 1265q-12 39 -19.5 66t-11.5 45q-6 20 -6 35h-2q-2 -14 -8 -35q-4 -18 -11.5 -45t-19.5 -66l-395 -1265q-2 -2 -3.5 -2t-3.5 2z" />
<glyph unicode="X" horiz-adv-x="1165" d="M90 4l469 746l-469 720q2 0 4 3q2 0 5 1t10 1q4 0 7 -1t7 -1q2 -2 4 -3l451 -694l454 694q12 5 21.5 5t17.5 -5l-477 -720l487 -748q-2 -2 -4 -2h-14q-8 0 -12 2q-4 0 -7 2l-469 717l-448 -717q-6 -4 -23 -4q-6 0 -14 4z" />
<glyph unicode="Y" horiz-adv-x="1247" d="M66 1470l4 3q4 0 7 1t9 1q4 0 7 -1t5 -1q2 -2 4 -3l521 -815l534 815q2 0 4 3q2 0 5 1t10 1q6 0 10 -1t6 -1l2 -3l-557 -843v-623q-2 -2 -4 -2q-2 -2 -12 -2q-8 0 -11 2q-2 0 -4 2v621z" />
<glyph unicode="Z" horiz-adv-x="1163" d="M92 0q-3 8 -3 16t3 17l907 1411h-852q2 -6 -1 -3t-3 15q-1 16 3 20q2 2 2.5 1.5t-1.5 -2.5h887q6 -16 0 -33l-907 -1411h934q-2 4 1 1t3 -18q0 -14 -3 -17l-1 -1q-1 0 0 4h-969z" />
<glyph unicode="[" horiz-adv-x="618" d="M225 -348v2007h307q6 -16 0 -31h-276v-1945h276q6 -16 0 -31h-307z" />
<glyph unicode="\" horiz-adv-x="831" d="M53 1530q16 6 33 0l690 -1620q-16 -6 -33 0z" />
<glyph unicode="]" horiz-adv-x="618" d="M86 -317h276v1945h-276q-6 14 0 31h307v-2007h-307q-6 14 0 31z" />
<glyph unicode="^" horiz-adv-x="1060" d="M145 930l365 540q2 0 4 3q2 0 5 1t11 1t11.5 -1t7.5 -1q2 -2 4 -3l362 -540q-20 -8 -38 0l-347 516l-346 -516q-20 -10 -39 0z" />
<glyph unicode="_" horiz-adv-x="1021" d="M109 -41h802q6 -16 0 -31h-802q-6 14 0 31z" />
<glyph unicode="`" horiz-adv-x="487" d="M115 1630q4 8 8 12.5t14 8.5l254 -312q-6 -14 -20 -16z" />
<glyph unicode="a" horiz-adv-x="1046" d="M119 281q0 137 93 223t280 86q92 0 185 -7.5t152 -15.5v185q0 162 -66.5 239.5t-238.5 77.5q-66 0 -121 -9t-98 -20q-51 -12 -92 -26q-6 4 -9 12t-3 16q47 14 100 27q47 10 105.5 19.5t121.5 9.5q170 0 250 -80t80 -266v-750q-14 -6 -27 0v274q-16 -68 -54 -123 t-91 -92.5t-117.5 -59t-132.5 -21.5q-158 0 -237.5 78.5t-79.5 222.5zM147 281q0 -129 71 -201t208 -72q84 0 157.5 27.5t128 82t86 132.5t31.5 178v115q-59 10 -148 16t-181 6q-170 0 -261.5 -74.5t-91.5 -209.5z" />
<glyph unicode="b" horiz-adv-x="1136" d="M197 4v1528q2 0 4 2q2 0 5 1t7 1t6 -1t4 -1q2 -2 4 -2v-696q53 127 153.5 194.5t217.5 67.5q195 0 294 -141.5t99 -417.5t-102.5 -417.5t-304.5 -141.5q-127 0 -221.5 77.5t-135.5 194.5v-248q0 -2 -2 -2q-2 -2 -12 -2t-12 2q-2 0 -4 2zM227 410q0 -68 24.5 -138.5 t70 -129t111 -95.5t149.5 -37q188 0 283.5 133.5t95.5 395.5t-92.5 395t-272.5 133q-80 0 -146.5 -33t-114.5 -85t-77 -117.5t-31 -131.5v-290z" />
<glyph unicode="c" horiz-adv-x="913" d="M143 539q0 276 105.5 417.5t310.5 141.5q53 0 96 -7.5t72 -15.5q35 -10 59 -22q0 -20 -14 -27q-25 12 -55 21q-27 8 -65 14t-85 6q-195 0 -294 -133t-99 -395t99.5 -395.5t293.5 -133.5q51 0 94.5 8.5t71.5 18.5q35 12 62 29q14 -6 18 -27q-29 -18 -65 -31 q-33 -10 -79 -19t-104 -9q-209 0 -315.5 141t-106.5 418z" />
<glyph unicode="d" horiz-adv-x="1136" d="M145 539q0 276 99.5 417.5t294.5 141.5q125 0 221 -65.5t149 -198.5v698q2 0 4 2q2 0 4.5 1t6.5 1t7 -1t5 -1q2 -2 4 -2v-1528q-2 -2 -4 -2q-2 -2 -12 -2t-13 2q-2 0 -2 2v248q-41 -117 -129 -194.5t-227 -77.5q-203 0 -305.5 141t-102.5 418zM176 539 q0 -262 95.5 -395.5t283.5 -133.5q88 0 154.5 37t111.5 95.5t66.5 129t21.5 138.5v288q-2 66 -28.5 131.5t-74.5 118.5t-115.5 86t-149.5 33q-180 0 -272.5 -133t-92.5 -395z" />
<glyph unicode="e" horiz-adv-x="1040" d="M145 545q0 145 31 249.5t85 172t129 99.5t165 32t157.5 -30t111.5 -80t65.5 -116.5t21.5 -140.5q0 -47 -4 -84t-8 -63q-6 -31 -10 -54h-713q8 -270 95 -395t280 -125q66 0 120 14.5t91 30.5q43 20 76 45q18 -4 18 -22q-33 -27 -78 -49q-39 -18 -97 -33.5t-136 -15.5 q-205 0 -302.5 142t-97.5 423zM176 561h690q0 -4 7.5 43t7.5 133q0 63 -18.5 124t-58.5 106t-101.5 72.5t-147.5 27.5q-170 0 -272.5 -123t-106.5 -383z" />
<glyph unicode="f" horiz-adv-x="700" d="M76 1067q0 6 4 10h162v131q0 176 66.5 252t219.5 76q35 0 66 -3t53 -7l51 -10q1 -5 1 -9q0 -10 -7 -18q-20 4 -45 8q-23 4 -50.5 6t-59.5 2q-74 0 -125.5 -16t-82 -52t-44 -91.5t-13.5 -135.5v-133h357q2 -6 2 -20q0 -6 -2 -10h-357v-1043q-7 -5 -14 -5q-4 0 -8 1 q-6 2 -8 4v1043h-162q-4 9 -4 16v4z" />
<glyph unicode="g" horiz-adv-x="1050" d="M106 -209q0 68 19.5 119t47.5 90t59.5 67.5t56.5 47.5q-63 41 -64 116q0 59 28 113.5t81 104.5q-86 39 -133 116.5t-47 190.5q0 162 93 252t261 90q125 0 211 -51l256 47q4 -8 6 -14q1 -1 1 -4q0 -5 -3 -13l-225 -41q108 -91 108 -263q0 -163 -93 -253t-261 -90 q-78 0 -146 22q-41 -37 -73.5 -86t-32.5 -116q0 -68 53 -97.5t133 -43t172.5 -21.5t172 -33t133 -77t53.5 -154q0 -61 -29 -120t-87 -104t-148.5 -71.5t-214.5 -26.5q-102 0 -175 24.5t-120 65.5t-70 96.5t-23 116.5zM137 -207q0 -127 93.5 -200.5t261.5 -73.5 q102 0 186 21.5t142.5 59.5t90 91t31.5 116q0 74 -32.5 118t-86 69.5t-121 37t-137 18.5t-134 16.5t-114.5 31.5q-88 -59 -134 -138t-46 -167zM184 756q0 -147 85 -228.5t239 -81.5t238.5 81t84.5 229q0 147 -84.5 229t-238.5 82t-239 -82t-85 -229z" />
<glyph unicode="h" d="M197 4v1528q7 5 14 5l14 -5v-707q63 141 166 207t238 66q143 0 226 -80t83 -221v-793q-7 -5 -14.5 -5t-14.5 5v791q0 133 -75.5 203.5t-208.5 70.5q-59 0 -116.5 -15.5t-109 -51t-96.5 -94t-78 -146.5v-758q-7 -5 -14 -5z" />
<glyph unicode="i" horiz-adv-x="438" d="M190 1380v41q2 2 9 4q8 4 20 5q12 0 21 -5l8 -4v-41l-8 -4q-8 -4 -21 -4q-12 0 -20 4q-6 2 -9 4zM205 4v1069l2 2q2 0 5 1t7 1t7 -1t5 -1l2 -2v-1069q0 -2 -2 -2q-2 -2 -12 -2t-12 2q-2 0 -2 2z" />
<glyph unicode="j" horiz-adv-x="438" d="M-154 -479q0 14 11 24q29 -16 62.5 -22t64.5 -6q113 0 167 68.5t54 226.5v1261q14 10 28 0v-1259q0 -176 -66.5 -251t-182.5 -75q-78 0 -138 33zM188 1386v41q2 2 9 5q8 4 20 4t21 -4l8 -5v-41l-8 -4q-8 -4 -21 -4q-12 0 -20 4q-6 2 -9 4z" />
<glyph unicode="k" horiz-adv-x="1007" d="M197 2v1532q7 3 14 3l14 -3v-956h287l356 497q16 6 35 0l-366 -510l415 -559q0 -2 -2 -4t-14 -2q-14 0 -16 2t-2 4l-404 543h-289v-547q-7 -4 -14 -4z" />
<glyph unicode="l" horiz-adv-x="446" d="M209 4v1528l2 2q2 0 5 1t7 1t7 -1t6 -1l2 -2v-1528q0 -2 -2 -2q-2 -2 -13 -2q-10 0 -12 2q-2 0 -2 2z" />
<glyph unicode="m" horiz-adv-x="1734" d="M197 4v1069q14 10 28 0v-246q66 141 156 206t221 65q125 0 200 -73t83 -204q57 133 151 205t228 72q131 0 206.5 -80t75.5 -221v-793q-7 -5 -14 -5l-14 5v791q0 129 -67 201.5t-189 72.5q-57 0 -110.5 -15.5t-102 -51t-90 -96t-74.5 -150.5v-752q-7 -5 -14 -5t-15 5v791 q0 129 -66.5 201.5t-189.5 72.5q-57 0 -110.5 -15.5t-100.5 -51t-89 -94t-75 -146.5v-758q-7 -5 -14 -5z" />
<glyph unicode="n" d="M197 4v1069q14 10 28 0v-248q66 139 169.5 206t234.5 67q143 0 226 -80t83 -221v-793q-7 -5 -14.5 -5t-14.5 5v791q0 133 -75.5 203.5t-208.5 70.5q-57 0 -113.5 -15.5t-109 -51t-97.5 -95t-80 -145.5v-758q-7 -5 -14 -5z" />
<glyph unicode="o" horiz-adv-x="1101" d="M145 539q0 152 28 258t80 172.5t127 97.5t171 31t171 -31t127 -97.5t79.5 -173t27.5 -257.5q0 -152 -27.5 -258.5t-79.5 -173t-127 -97t-171 -30.5t-171 30.5t-127 97t-80 173t-28 258.5zM174 539q0 -150 26.5 -251.5t76 -164t119 -89t155.5 -26.5t155.5 26.5t118.5 89 t76 164t27 251.5t-27 251t-76 163.5t-118.5 89t-155.5 26.5t-155.5 -26.5t-119 -89t-76 -164t-26.5 -250.5z" />
<glyph unicode="p" horiz-adv-x="1136" d="M197 -508v1581q2 0 4 2q2 0 5 1t7 1t7 -1t5 -1l2 -2v-248q41 117 135.5 195t221.5 78q203 0 305 -136.5t102 -422.5q0 -283 -99 -421t-294 -138q-117 0 -217 67.5t-154 194.5v-750q-2 -2 -4 -2q-2 -2 -10 -2q-10 0 -12 2q-2 0 -4 2zM227 377q2 -66 31 -131.5t77 -117.5 t114.5 -85t146.5 -33q180 0 272.5 130t92.5 399q0 272 -96.5 400t-282.5 128q-84 0 -149.5 -37t-111 -95t-70 -129t-24.5 -138v-291z" />
<glyph unicode="q" horiz-adv-x="1136" d="M145 539q0 287 102.5 423t305.5 136q127 0 221 -78t135 -195v248l2 2q2 0 5.5 1t7.5 1t7 -1t5 -1q2 -2 4 -2v-1581q-2 -2 -4 -2q-2 -2 -12 -2q-8 0 -11 2q-2 0 -4 2v750q-53 -127 -153.5 -194.5t-216.5 -67.5q-195 0 -294.5 138t-99.5 421zM176 539q0 -268 92 -398.5 t273 -130.5q80 0 146.5 33t114.5 85t76.5 117.5t30.5 131.5v291q0 68 -24.5 138.5t-69.5 128.5t-111.5 95t-148.5 37q-188 0 -283.5 -128t-95.5 -400z" />
<glyph unicode="r" horiz-adv-x="788" d="M197 2v1073q14 6 28 0v-254q33 86 73 139.5t83 84t88 42t88 11.5q66 0 108 -15.5t58 -25.5q-4 -18 -18 -27q-31 18 -68 28.5t-90 10.5q-113 0 -190.5 -83t-131.5 -230v-754q-7 -4 -14 -4z" />
<glyph unicode="s" horiz-adv-x="907" d="M137 41q-1 1 -1 3q0 4 3 10q4 9 11 14q31 -16 102.5 -38t181.5 -22q70 0 129.5 14.5t102.5 45t67.5 80t24.5 116.5q0 72 -28 117t-72 73.5t-99 46t-113 34.5q-55 14 -110 34.5t-99 51t-72 76.5t-28 114q0 139 86 213t260 74q53 0 97.5 -7.5t78.5 -15.5q39 -8 74 -20 q2 -6 -2 -15.5t-10 -13.5q-33 12 -70 21q-33 8 -76 15t-90 7q-154 0 -236.5 -61.5t-82.5 -196.5q0 -70 33.5 -114t80 -70.5t95.5 -41t80 -22.5q57 -16 116.5 -36.5t107.5 -53.5t77.5 -83t29.5 -126q0 -133 -87 -208.5t-261 -75.5q-72 0 -127 9t-94 21q-45 12 -80 31z" />
<glyph unicode="t" horiz-adv-x="696" d="M72 1063q0 10 2 12q0 2 2 2h166v215q8 12 28 13v-228h348q0 -2 3 -4q0 -2 1 -4t1 -6t-1 -6t-1 -4q-2 -2 -3 -4h-348v-707q0 -82 10.5 -144.5t38 -104.5t73.5 -63.5t120 -21.5q59 0 94 6q21 2 37 6q5 -7 5 -15q0 -4 -1 -9q-25 -8 -56.5 -12t-78.5 -4q-82 0 -134 24.5 t-83 70.5t-42 113.5t-11 153.5v707h-166q-2 2 -2 4q-2 2 -2 10z" />
<glyph unicode="u" d="M188 293v780q7 5 14.5 5t14.5 -5v-778q0 -133 76 -210t209 -77q57 0 113.5 15.5t108.5 51.5t97 95t80 145v758q7 5 14 5t15 -5v-1069q-14 -10 -29 0v248q-66 -139 -169 -205.5t-234 -66.5q-143 0 -226.5 86t-83.5 227z" />
<glyph unicode="v" horiz-adv-x="1013" d="M76 1073q2 0 4 2q2 0 5 1t7 1t6 -1t4 -1q2 -2 4 -2l332 -827l72 -189l68 183l327 833q2 0 4 2q2 0 5.5 1t7.5 1t6 -1t4 -1q2 -2 4 -2l-426 -1081h-2z" />
<glyph unicode="w" horiz-adv-x="1613" d="M84 1073q2 0 4 2q2 0 5 1t7 1t6.5 -1t4.5 -1q2 -2 4 -2l293 -862l45 -148l47 148l303 862h10l303 -862l47 -148l45 148l293 862q2 0 4 2q2 0 4 1t7 1q4 0 7 -1t5 -1q2 -2 4 -2l-367 -1079h-2l-280 792l-74 228l-76 -228l-280 -792h-2z" />
<glyph unicode="x" horiz-adv-x="972" d="M80 4l389 545l-385 524q9 5 17 5q4 0 8 -1l12 -4l366 -498l365 498l12 4q2 1 5 1q8 0 20 -5l-385 -524l389 -545q-4 -2 -10 -4q-4 -1 -8 -1q-9 0 -19 5l-369 518l-370 -518q-11 -5 -19 -5q-4 0 -8 1q-6 2 -10 4z" />
<glyph unicode="y" horiz-adv-x="1058" d="M74 1073q2 0 4 2q2 0 5 1t7 1t7 -1t5 -1q2 -2 4 -2l451 -1038h2l389 1038q2 0 4 2q2 0 5.5 1t7.5 1t7 -1t5 -1q2 -2 4 -2l-514 -1362q-23 -59 -43.5 -102t-44 -69.5t-52 -39t-67.5 -12.5q-20 0 -35.5 1t-27.5 3q-14 2 -25 6q-6 14 2 29q8 -4 21 -6q10 -2 25.5 -3t37.5 -1 q35 0 60.5 12t46 37.5t38 66.5t39.5 99l101 266h-2z" />
<glyph unicode="z" horiz-adv-x="903" d="M92 0q-3 7 -3 14.5t3 16.5l660 1018h-609q-6 14 0 28h641q6 -16 0 -30l-659 -1018h670q3 -7 3 -14t-3 -15h-703z" />
<glyph unicode="{" horiz-adv-x="675" d="M88 670q-6 14 0 30h76q47 0 66.5 36t19.5 106v544q0 123 67.5 198t204.5 75h66q6 -16 0 -31h-64q-129 0 -186 -66.5t-57 -179.5v-528q0 -66 -11.5 -109t-52.5 -61q41 -20 52.5 -61t11.5 -107v-528q0 -115 57 -180.5t186 -65.5h64q6 -16 0 -31h-66q-137 0 -204.5 75 t-67.5 198v540q0 72 -19.5 109t-66.5 37h-76z" />
<glyph unicode="|" horiz-adv-x="481" d="M225 -399v2013q14 6 31 0v-2013q0 -2 -2 -2q-2 -2 -12 -2t-13 2q-2 0 -4 2z" />
<glyph unicode="}" horiz-adv-x="675" d="M88 -258h64q129 0 186 65.5t57 180.5v528q0 66 11.5 107t52.5 61q-41 18 -52.5 61t-11.5 109v528q0 113 -57 179.5t-186 66.5h-64q-6 14 0 31h66q137 0 204.5 -75t67.5 -198v-544q0 -70 19.5 -106t66.5 -36h76q6 -16 0 -30h-76q-47 0 -66.5 -37t-19.5 -109v-540 q0 -123 -67.5 -198t-204.5 -75h-66q-6 14 0 31z" />
<glyph unicode="~" horiz-adv-x="1093" d="M188 618q23 27 52 50q25 18 61.5 33.5t83.5 15.5q51 0 89 -19.5t74 -43t72.5 -43t86.5 -19.5q43 0 75.5 12t55.5 29q25 18 45 41q18 0 24 -15q-20 -27 -51 -49q-27 -18 -64.5 -33.5t-86.5 -15.5q-51 0 -89 19.5t-74 43t-73 43t-86 19.5q-41 0 -72.5 -13.5t-54.5 -29.5 q-27 -20 -45 -43q-20 0 -23 18z" />
<glyph unicode="&#xa1;" horiz-adv-x="438" d="M190 1024v41q2 2 9 4q8 4 20 4t21 -4l8 -4v-41l-8 -4q-8 -4 -21 -4q-12 0 -20 4q-6 2 -9 4zM205 -406v1182q12 6 26 0l5 -1182q-16 -6 -31 0z" />
<glyph unicode="&#xa2;" horiz-adv-x="952" d="M154 539q0 266 98 407t291 152l-4 186q10 4 14 4h6h5t14 -4l-5 -186q53 -2 95.5 -9.5t70.5 -15.5q33 -8 58 -20q0 -20 -15 -29q-25 12 -55 20q-27 8 -64.5 14.5t-84.5 6.5q-195 0 -294.5 -132t-99.5 -394q0 -248 95.5 -386.5t287.5 -138.5q51 0 94.5 8.5t75.5 18.5 q37 11 68 27q8 -4 12 -12.5t6 -16.5q-31 -16 -67 -29q-33 -10 -79 -20t-104 -10l5 -187q-10 -6 -14.5 -6h-6.5h-5t-13 6l4 187q-184 4 -286.5 150t-102.5 409z" />
<glyph unicode="&#xa3;" horiz-adv-x="1032" d="M137 680q-6 14 0 31h158q-37 100 -61.5 182t-24.5 170q0 182 108.5 267t290.5 85q57 0 106.5 -6t88.5 -14.5t63.5 -16.5t30.5 -10q0 -8 -3 -16.5t-11 -12.5q-4 2 -25.5 9.5t-57.5 15.5t-86 14t-112 6q-362 0 -362 -327q0 -86 26.5 -169t61.5 -177h430q6 -16 0 -31h-418 q25 -76 40 -158t6 -165t-52 -165.5t-135 -160.5h698q6 -16 0 -31h-739v33q96 82 141 165t56.5 163.5t-5 160.5t-43.5 158h-170z" />
<glyph unicode="&#xa4;" horiz-adv-x="1200" d="M164 139q-2 2 0 6l153 152q-47 51 -71.5 116.5t-24.5 141.5q0 74 25.5 140.5t72.5 117.5l-155 152q0 2 2 6l3 6t5 6t7 4t7 2q2 0 5 2l155 -149q51 43 115.5 68.5t138.5 25.5q72 0 137.5 -24.5t116.5 -71.5l150 151q2 -2 4 -2q2 -2 5 -2t9 -4q4 -4 8 -12q2 -4 2 -6 l-149 -152q98 -109 98 -258q0 -154 -98 -258l153 -152q-2 -2 -2 -4q-2 -2 -2 -5t-4 -7q-8 -8 -12 -10t-6 -2l-154 153q-51 -45 -116.5 -70.5t-139.5 -25.5q-76 0 -141.5 25.5t-116.5 70.5l-151 -153q-2 -2 -7 0q-8 4 -12 12q-10 6 -10 10zM254 555q0 -74 26.5 -137.5 t73.5 -110.5t110.5 -73.5t137.5 -26.5t137.5 26.5t110.5 73.5t73.5 110.5t26.5 137.5t-26.5 137.5t-73.5 110.5t-110.5 73.5t-137.5 26.5t-137.5 -26.5t-110.5 -73.5t-73.5 -110.5t-26.5 -137.5z" />
<glyph unicode="&#xa5;" horiz-adv-x="1230" d="M92 1399h2q2 0 4 1t6 1q6 0 10.5 -1t6.5 -1q2 -2 4 -2l477 -789l510 789l2 2q2 0 5 1t7 1q6 0 9.5 -1t5.5 -1q2 -2 4 -2l-527 -815h361q6 -16 0 -31h-363v-178h363q6 -16 0 -31h-363v-338q-14 -6 -28 0v338h-359q-6 14 0 31h359v178h-359q-6 14 0 31h357z" />
<glyph unicode="&#xa6;" horiz-adv-x="409" d="M188 369q2 0 5 2q2 0 5 1t7 1t7 -1t5 -1q2 -2 4 -2v-912q-2 -2 -4 -2q-2 -2 -12 -2t-12 2q-2 0 -5 2v912zM188 788v908q2 0 5 2q2 0 5 1t7 1t7 -1t5 -1q2 -2 4 -2v-908q-2 -2 -4 -2q-2 -2 -12 -2t-12 2q-2 0 -5 2z" />
<glyph unicode="&#xa7;" horiz-adv-x="987" d="M160 717q0 53 21.5 95t52 72.5t63.5 51t57 33.5q-74 31 -124 82t-50 133q0 119 77 174t241 55q55 0 101 -6t82 -14.5t59.5 -16.5t29.5 -10q2 -20 -12 -29q2 -2 -18.5 5.5t-55.5 15.5t-81 15t-91 7q-162 0 -230.5 -47t-68.5 -147q0 -72 45 -116t112.5 -72.5t147.5 -51 t147.5 -53.5t112.5 -76t45 -121q0 -57 -20.5 -102t-49 -79t-60 -55.5t-54.5 -31.5q37 -16 73 -37.5t63.5 -48.5t44 -58.5t16.5 -68.5q0 -129 -89.5 -182t-281.5 -53q-68 0 -123 7t-96 17q-47 10 -84 25q0 16 12 32q35 -14 108.5 -31.5t172.5 -17.5q180 0 264 45t84 158 q0 43 -25.5 78t-68.5 63.5t-100.5 53t-121.5 43.5q-55 16 -113.5 36.5t-105.5 51t-77.5 72.5t-30.5 104zM190 719q0 -53 26 -89t69 -63.5t98 -47t115 -38.5l106 -37q29 12 61.5 33t61.5 51.5t47.5 71.5t18.5 92q0 61 -36 101.5t-92.5 68t-128 47.5t-141.5 45 q-31 -12 -66.5 -33.5t-66.5 -50t-51.5 -67.5t-20.5 -84z" />
<glyph unicode="&#xa8;" horiz-adv-x="931" d="M293 1268v41q2 2 8 4q8 4 21 4q12 0 20 -4l8 -4v-41l-8 -4q-8 -4 -20 -4t-21 4q-6 2 -8 4zM567 1268v41q2 2 8 4q8 4 21 4q12 0 20 -4l9 -4v-41l-9 -4q-8 -4 -20 -4t-21 4q-6 2 -8 4z" />
<glyph unicode="&#xa9;" horiz-adv-x="1660" d="M152 696q0 141 53 264t145 215.5t216 145.5t265 53t264.5 -53t215.5 -145.5t145 -215t53 -264.5q0 -141 -53 -265t-145 -216t-215.5 -145.5t-264.5 -53.5t-265 53.5t-216 145.5t-145 216t-53 265zM180 696q0 -135 51.5 -252.5t140.5 -207t206.5 -140.5t252.5 -51t253 51 t205 140.5t138.5 207t51.5 252.5t-51.5 253t-138.5 205t-205 138t-253 51t-252.5 -51t-206.5 -138t-140.5 -205t-51.5 -253zM496 711q0 408 335 407q51 0 88 -7t64 -15q29 -10 51 -23q0 -6 -4 -13t-10 -11q-25 12 -53 20q-25 8 -57.5 14.5t-67.5 6.5q-166 0 -241 -90.5 t-75 -288.5q0 -186 76 -282.5t236 -96.5q39 0 73.5 6t61.5 14q31 8 57 21q12 -8 14 -25q-23 -14 -53 -24q-27 -10 -67 -16.5t-93 -6.5q-172 0 -253.5 105.5t-81.5 304.5z" />
<glyph unicode="&#xaa;" horiz-adv-x="743" d="M139 791q0 90 57.5 139t168.5 49q66 0 120 -5t82 -9v108q0 109 -46 151t-136 42q-39 0 -72.5 -5.5t-58.5 -11.5q-31 -8 -55 -16q-6 4 -8.5 12t-0.5 12q29 8 62 17q29 6 62.5 11t72.5 5q104 0 152.5 -52t48.5 -151v-464h-19v151q-27 -88 -92 -128t-143 -40 q-96 0 -145.5 47t-49.5 138zM143 477q-2 10 0 23h443q2 -12 0 -23h-443zM164 791q0 -162 170 -162q98 0 163.5 59.5t69.5 175.5v78q-29 4 -84 9t-112 5q-104 0 -155.5 -43t-51.5 -122z" />
<glyph unicode="&#xab;" horiz-adv-x="970" d="M113 553q0 6 2 8q0 2 2 4l426 477q12 -2 18 -18l-416 -471l418 -471q-2 -16 -20 -21l-426 480q-2 0 -2 2q-2 2 -2 10zM422 553q0 6 2 8q0 2 2 4l373 416q12 -2 18 -18l-362 -410l370 -418q-2 -16 -20 -20l-379 426q-2 0 -2 2q-2 2 -2 10z" />
<glyph unicode="&#xac;" horiz-adv-x="1236" d="M154 885q0 8 2 10q0 2 2 4h884v-463q-2 -2 -4 -2q-2 -2 -10 -2q-12 0 -14 2q-2 0 -2 2v432h-854q-2 2 -2 4q-2 2 -2 13z" />
<glyph unicode="&#xad;" horiz-adv-x="589" />
<glyph unicode="&#xae;" horiz-adv-x="1122" d="M147 965q0 92 30 168.5t84 131t131 84t169 29.5t169 -29.5t131 -84t84 -131t30 -168.5t-30 -169t-84 -131.5t-131 -84t-169 -29.5t-169 29.5t-131 84t-84 131.5t-30 169zM172 965q0 -88 27.5 -160t79 -123t123 -79t159.5 -28t160 28t123 79t78.5 123t27.5 160 t-27.5 159.5t-78.5 122.5t-123 79t-160 28t-159.5 -28t-123 -79t-79 -122.5t-27.5 -159.5zM424 741v465h174q74 0 106.5 -32.5t32.5 -98.5q0 -100 -90 -119l119 -213q0 -2 -2 -2q-2 -2 -10 -2h-11q-2 0 -4 2l-116 211h-174v-211q0 -2 -3 -2h-12h-8q-2 0 -2 2zM449 975h153 q61 0 86 26.5t25 73.5q0 53 -24.5 80t-86.5 27h-153v-207z" />
<glyph unicode="&#xaf;" horiz-adv-x="833" d="M141 1309q-6 14 0 30h523q6 -14 0 -30h-523z" />
<glyph unicode="&#xb0;" horiz-adv-x="751" d="M139 1264q0 43 15.5 86t45 76.5t74.5 55t105 21.5q57 0 101 -20.5t73 -53t43 -74.5t14 -85t-14 -86t-43 -76t-73 -53.5t-101 -20.5q-61 0 -106.5 19.5t-75 52.5t-44 74t-14.5 84zM170 1266q0 -39 12.5 -75t38 -63.5t64.5 -45t92 -17.5q51 0 89 17.5t63.5 45t38 64.5 t12.5 76t-12.5 75.5t-38 65.5t-63.5 46.5t-89 17.5t-90 -18.5t-64.5 -47.5t-39 -65.5t-13.5 -75.5z" />
<glyph unicode="&#xb1;" horiz-adv-x="1046" d="M188 336q0 12 2 14q0 2 3 2h659l2 -2q0 -2 1 -6t1 -8t-1 -7t-1 -5l-2 -2h-659q-2 0 -3 2q-2 2 -2 12zM199 823q0 12 2 15q0 2 2 2h303v252l2 2q2 0 5 1t9 1q4 0 7 -1t6 -1l2 -2v-252h309l2 -2q0 -2 1 -6.5t1 -8.5t-1 -7t-1 -5l-2 -2h-309v-254q0 -2 -2 -2q-2 -2 -13 -2 q-12 0 -14 2q-2 0 -2 2v254h-303q-2 0 -2 2q-2 2 -2 12z" />
<glyph unicode="&#xb2;" horiz-adv-x="620" d="M84 793q0 70 30.5 113.5t76 73.5t99.5 52.5t99 48t76 62.5t31 96q0 27 -8.5 55.5t-31 51t-61.5 37t-100 14.5q-61 -2 -101 -10.5t-57 -12.5q-8 10 -4 25q-4 0 42 11t122 11q66 0 109 -15t68.5 -41t35.5 -59.5t10 -68.5q0 -63 -30.5 -103t-75.5 -68t-99.5 -50.5t-99.5 -50 t-75.5 -68.5t-30.5 -104v-28.5t4 -31.5h407q4 -4 4 -12t-4 -12h-426q-4 12 -6 24q-2 10 -3 26t-1 34z" />
<glyph unicode="&#xb3;" horiz-adv-x="622" d="M96 721q-4 16 6 22q23 -6 48 -10q47 -10 114 -10q117 0 177.5 45t60.5 123q0 94 -58.5 134t-140.5 40h-86q-8 12 0 25h86q84 0 129 40.5t45 112.5q0 154 -188 154q-39 0 -70 -3t-53 -8q-27 -4 -47 -8q-8 12 -4 23q23 4 49 10q23 4 53.5 7t69.5 3q215 0 215 -178 q0 -59 -32 -105t-93 -61q61 -10 105 -56t44 -130q0 -92 -67.5 -142.5t-194.5 -50.5q-68 0 -119 11q-27 6 -49 12z" />
<glyph unicode="&#xb4;" horiz-adv-x="458" d="M78 1337l254 312q10 -2 14 -7.5t8 -13.5l-256 -307q-14 2 -20 16z" />
<glyph unicode="&#xb5;" horiz-adv-x="1175" d="M213 -29v1102l2 2q2 0 5 1t9 1q4 0 6.5 -1t4.5 -1l2 -2v-786q0 -57 13 -108.5t47 -89.5t88 -59.5t138 -21.5q145 0 244.5 76t153.5 186v803l2 2q2 0 4 1t6 1t8 -1t6 -1l2 -2v-1069q0 -2 -2 -2q-2 -2 -14 -2q-8 0 -10 2q-2 0 -2 2v211q-70 -111 -169.5 -173t-228.5 -62 q-90 0 -162.5 27.5t-119.5 113.5v-150q0 -150 6 -241.5t16 -143.5q8 -61 23 -88q-4 -6 -8 -9t-19 -1q-16 29 -26 92q-10 53 -17.5 147.5t-7.5 243.5z" />
<glyph unicode="&#xb6;" horiz-adv-x="815" d="M129 1303q2 47 34 88t97 41h27v-1893q-2 -2 -4 -2q-2 -2 -13 -2q-10 0 -12 2q-2 0 -2 2v1630q-66 4 -96.5 43t-30.5 91zM551 -461v1888l4 3q2 0 5 1t7 1t6 -1t5 -1q2 -2 4 -3v-1888q-2 -2 -4 -2q-2 -2 -13 -2q-10 0 -12 2q-2 0 -2 2z" />
<glyph unicode="&#xb7;" horiz-adv-x="417" d="M180 561v41q2 2 8 4q8 4 21 4q12 0 20 -4l9 -4v-41l-9 -4q-8 -4 -20 -4t-21 4q-6 2 -8 4z" />
<glyph unicode="&#xb8;" horiz-adv-x="606" d="M90 -457q2 12 16 23q35 -23 74 -36t92 -13q84 0 135.5 38.5t51.5 129.5q0 72 -54.5 101.5t-146.5 29.5h-41l-10 12l47 184h29l-43 -170q129 4 188 -39t59 -118q0 -92 -52 -144.5t-165 -52.5q-55 0 -98 14.5t-82 40.5z" />
<glyph unicode="&#xb9;" horiz-adv-x="493" d="M75 1243q-3 8 1 12q72 16 137.5 56.5t112.5 101.5q12 4 26 0v-698q-6 -2 -12 -2t-12 2v663q-86 -104 -246 -145q-4 2 -7 10z" />
<glyph unicode="&#xba;" horiz-adv-x="784" d="M141 948q0 174 58.5 258t191.5 84q129 0 190.5 -82t61.5 -260t-61.5 -261t-190.5 -83q-133 0 -191.5 83t-58.5 261zM164 477q-6 10 0 23h454q6 -12 0 -23h-454zM164 948q0 -166 51 -243.5t176 -77.5q123 0 176.5 77.5t53.5 243.5q0 162 -53.5 240t-176.5 78 q-125 0 -176 -78t-51 -240z" />
<glyph unicode="&#xbb;" horiz-adv-x="970" d="M145 135l371 418l-362 410q6 16 18 18l373 -416q0 -2 2 -4q0 -2 1 -3t1 -5t-1 -6t-1 -4l-2 -2l-379 -426q-18 4 -21 20zM408 82l417 471l-415 471q6 16 18 18l426 -477q0 -2 2 -4q0 -2 1 -3t1 -5t-1 -6t-1 -4l-2 -2l-426 -480q-18 4 -20 21z" />
<glyph unicode="&#xbc;" horiz-adv-x="1280" d="M93 1243q-3 8 1 12q72 16 137.5 56.5t112.5 101.5q12 4 27 0v-698q-6 -2 -13 -2q-6 0 -12 2v663q-86 -104 -246 -145q-4 2 -7 10zM233 -18l795 1452q2 0 4 2q2 0 5 1t7 1t5.5 -1t3.5 -1l2 -2l-795 -1452q0 -2 -2 -2h-10h-12q-2 0 -3 2zM682 223q0 2 2 4l377 473q6 2 16 2 q4 0 6 -2v-462h76q4 -12 0 -25h-76v-211q-12 -6 -24 0v211h-375q-2 2 -2 10zM721 238h338v419z" />
<glyph unicode="&#xbd;" horiz-adv-x="1421" d="M93 1243q-3 8 1 12q72 16 137.5 56.5t112.5 101.5q12 4 27 0v-698q-6 -2 -13 -2q-6 0 -12 2v663q-86 -104 -246 -145q-4 2 -7 10zM236 -18l794 1452q2 0 4 2q2 0 5 1t8 1q4 0 5 -1t3 -1l2 -2l-795 -1452q0 -2 -2 -2h-10h-12q-2 0 -2 2zM858 84q0 70 31 114t76 73.5t99 52 t99 48t76 62.5t31 96q0 27 -8.5 55.5t-31 51t-61.5 37t-100 14.5q-61 -2 -101 -10t-57 -12q-8 10 -4 24q-4 0 42 11.5t122 11.5q66 0 109 -15.5t68.5 -41t35.5 -59.5t10 -69q0 -63 -30.5 -103t-75.5 -67.5t-99.5 -50t-99.5 -50.5t-75.5 -69t-30.5 -104v-28.5t4 -30.5h407 q4 -4 4 -13q0 -8 -4 -12h-426q-4 12 -6 25q-2 10 -3 25.5t-1 33.5z" />
<glyph unicode="&#xbe;" horiz-adv-x="1404" d="M129 721q23 -6 49 -12q51 -10 119 -11q127 0 194.5 50.5t67.5 142.5q0 84 -44 130t-105 56q61 14 93 60.5t32 105.5q0 178 -216 178q-39 0 -69.5 -3t-52.5 -7q-27 -6 -50 -10q-4 -10 5 -23q20 4 47 8q23 4 53.5 7.5t69.5 3.5q188 0 188 -154q0 -72 -45 -112.5t-129 -40.5 h-86q-8 -12 0 -25h86q82 0 140.5 -40t58.5 -134q0 -78 -60.5 -123t-177.5 -45q-68 0 -115 10q-25 4 -47 10q-10 -6 -6 -22zM358 -18l795 1452l4 2q2 0 5 1t7 1t5.5 -1t3.5 -1l2 -2l-795 -1452q0 -2 -2 -2h-10h-13q-2 0 -2 2zM811 223q0 -8 2 -10h375v-211q12 -6 24 0v211h76 q4 12 0 25h-76v462q-2 2 -6 2q-10 0 -16 -2l-377 -473q-2 -2 -2 -4zM850 238l338 419v-419h-338z" />
<glyph unicode="&#xbf;" horiz-adv-x="856" d="M117 -45q0 102 29.5 171t73.5 120t96.5 96t96.5 101.5t73.5 134t29.5 194.5q2 0 4 2q2 0 5 1t7 1t6.5 -1t4.5 -1q2 -2 4 -2q0 -121 -30 -202t-74 -138t-96 -102t-96 -95.5t-74 -115t-30 -162.5q0 -51 15.5 -101.5t52.5 -89t98.5 -63.5t153.5 -25q68 0 123 8.5t94 18.5 q45 12 80 29q6 -4 9 -14.5t1 -14.5q-37 -16 -84 -29q-41 -10 -97 -19t-124 -9q-100 0 -168 27.5t-108.5 71.5t-58 98.5t-17.5 109.5zM502 1018v41l8 4q8 4 20 4q8 0 21 -4l8 -4v-41l-8 -4q-12 -4 -21 -4q-12 0 -20 4z" />
<glyph unicode="&#xc0;" horiz-adv-x="1304" d="M51 2l596 1479q4 4 8 0l598 -1479q-2 -2 -4 -2q-2 -2 -12 -2q-8 0 -12 2q-4 0 -6 2l-187 465h-760l-186 -465q-2 -2 -4 -2q-4 -2 -14 -2t-13 2q-2 0 -4 2zM285 498h735l-369 913zM461 1862q4 8 8 12t14 8l254 -311q-6 -14 -20 -17z" />
<glyph unicode="&#xc1;" horiz-adv-x="1304" d="M51 2l596 1479q4 4 8 0l598 -1479q-2 -2 -4 -2q-2 -2 -12 -2q-8 0 -12 2q-4 0 -6 2l-187 465h-760l-186 -465q-2 -2 -4 -2q-4 -2 -14 -2t-13 2q-2 0 -4 2zM285 498h735l-369 913zM580 1575l254 311q10 -2 14 -7t8 -13l-256 -307q-14 2 -20 16z" />
<glyph unicode="&#xc2;" horiz-adv-x="1304" d="M51 2l596 1479q4 4 8 0l598 -1479q-2 -2 -4 -2q-2 -2 -12 -2q-8 0 -12 2q-4 0 -6 2l-187 465h-760l-186 -465q-2 -2 -4 -2q-4 -2 -14 -2t-13 2q-2 0 -4 2zM285 498h735l-369 913zM385 1593l260 207h27l256 -207q0 -16 -17 -20l-252 201l-258 -201q-12 4 -16 20z" />
<glyph unicode="&#xc3;" horiz-adv-x="1304" d="M51 2l596 1479q4 4 8 0l598 -1479q-2 -2 -4 -2q-2 -2 -12 -2q-8 0 -12 2q-4 0 -6 2l-187 465h-760l-186 -465q-2 -2 -4 -2q-4 -2 -14 -2t-13 2q-2 0 -4 2zM285 498h735l-369 913zM426 1634q6 23 23 43q14 16 37.5 30.5t64.5 14.5q29 0 53.5 -13t48 -28.5t50 -28 t61.5 -12.5q47 0 67.5 26t26.5 42q16 -4 25 -14q-8 -25 -25 -43q-14 -16 -37.5 -28.5t-60.5 -12.5q-35 0 -61.5 12t-51 27.5t-49.5 29t-53 13.5q-29 0 -47.5 -11.5t-28.5 -23.5q-12 -16 -18 -35q-18 2 -25 12z" />
<glyph unicode="&#xc4;" horiz-adv-x="1304" d="M51 2l596 1479q4 4 8 0l598 -1479q-2 -2 -4 -2q-2 -2 -12 -2q-8 0 -12 2q-4 0 -6 2l-187 465h-760l-186 -465q-2 -2 -4 -2q-4 -2 -14 -2t-13 2q-2 0 -4 2zM285 498h735l-369 913zM485 1599v41q2 2 9 5q8 4 20 4t21 -4l8 -5v-41l-8 -4q-8 -4 -21 -4q-12 0 -20 4q-6 2 -9 4 zM760 1599v41q2 2 8 5q8 4 20 4t21 -4l8 -5v-41l-8 -4q-8 -4 -21 -4q-12 0 -20 4q-6 2 -8 4z" />
<glyph unicode="&#xc5;" horiz-adv-x="1304" d="M51 2l572 1421q-76 8 -124 56.5t-48 134.5q0 47 17 82t46 58.5t64.5 35.5t74.5 12t76 -11t65.5 -34.5t46 -59.5t17.5 -83q0 -86 -52 -134t-128 -57l575 -1421q-2 -2 -4 -2q-2 -2 -12 -2q-8 0 -12 2q-4 0 -6 2l-187 465h-760l-186 -465q-2 -2 -4 -2q-4 -2 -14 -2t-13 2 q-2 0 -4 2zM285 498h735l-369 913zM479 1614q0 -63 42 -115.5t130 -52.5q45 0 78 14.5t55.5 39t33.5 54t11 60.5q0 63 -44 112.5t-134 49.5q-88 0 -130 -50.5t-42 -111.5z" />
<glyph unicode="&#xc6;" horiz-adv-x="1720" d="M37 2l887 1473h663q6 -14 0 -31h-618v-684h516q6 -16 0 -31h-516v-698h639q6 -14 0 -31h-670v434h-604l-260 -432q-4 -4 -9.5 -4h-9.5q-14 0 -18 4zM352 465h586v975z" />
<glyph unicode="&#xc7;" horiz-adv-x="1138" d="M162 735q0 381 126 570.5t394 189.5q84 0 146.5 -10t105.5 -23q51 -14 86 -30q0 -18 -12 -27q-37 16 -86 29q-41 10 -100.5 20t-133.5 10q-111 0 -203 -34.5t-156.5 -119.5t-100 -225.5t-35.5 -349.5t34.5 -349t99 -223t156.5 -118t205 -35q80 0 143.5 9.5t106.5 21.5 q51 12 90 31q14 -6 14 -25q-37 -20 -90 -35q-45 -12 -111.5 -22t-158.5 -10h-27l-32 -138q121 4 176 -39t55 -118q0 -92 -53 -144.5t-166 -52.5q-55 0 -98 14.5t-82 40.5q2 12 16 23q35 -23 74 -36t92 -13q84 0 136 38.5t52 129.5q0 72 -50 101.5t-132 29.5h-41l-10 12 l39 154q-238 16 -353.5 199.5t-115.5 553.5z" />
<glyph unicode="&#xc8;" horiz-adv-x="1138" d="M229 0v1475h777q6 -16 0 -31h-746v-680h643q6 -16 0 -31h-643v-702h766q6 -16 0 -31h-797zM432 1878q4 8 8 12t15 8l254 -311q-6 -14 -21 -16z" />
<glyph unicode="&#xc9;" horiz-adv-x="1138" d="M229 0v1475h777q6 -16 0 -31h-746v-680h643q6 -16 0 -31h-643v-702h766q6 -16 0 -31h-797zM506 1591l264 303q10 -2 13 -7t8 -13l-267 -299q-14 2 -18 16z" />
<glyph unicode="&#xca;" horiz-adv-x="1138" d="M229 0v1475h777q6 -16 0 -31h-746v-680h643q6 -16 0 -31h-643v-702h766q6 -16 0 -31h-797zM340 1612l260 207h27l256 -207q0 -16 -17 -21l-252 201l-258 -201q-12 4 -16 21z" />
<glyph unicode="&#xcb;" horiz-adv-x="1138" d="M229 0v1475h777q6 -16 0 -31h-746v-680h643q6 -16 0 -31h-643v-702h766q6 -16 0 -31h-797zM473 1653v41q2 2 8 4q8 4 21 4q12 0 20 -4l8 -4v-41l-8 -4q-8 -4 -20 -4t-21 4q-6 2 -8 4zM748 1653v41q2 2 8 4q8 4 20 4t21 -4l8 -4v-41l-8 -4q-8 -4 -21 -4q-12 0 -20 4 q-6 2 -8 4z" />
<glyph unicode="&#xcc;" horiz-adv-x="489" d="M66 1864q4 8 8 12t14 8l254 -311q-6 -14 -20 -17zM229 4v1466q2 0 4 3q2 0 5.5 1t7.5 1t7 -1t5 -1l2 -3v-1466q-2 0 -3 -2t-11 -2t-13 2q-2 0 -4 2z" />
<glyph unicode="&#xcd;" horiz-adv-x="489" d="M129 1575l254 311q10 -2 14 -7t9 -13l-256 -307q-14 2 -21 16zM229 4v1466q2 0 4 3q2 0 5.5 1t7.5 1t7 -1t5 -1l2 -3v-1466q-2 0 -3 -2t-11 -2t-13 2q-2 0 -4 2z" />
<glyph unicode="&#xce;" horiz-adv-x="489" d="M-31 1608l260 207h27l256 -207q0 -16 -16 -21l-252 201l-258 -201q-12 4 -17 21zM229 4v1466q2 0 4 3q2 0 5.5 1t7.5 1t7 -1t5 -1l2 -3v-1466l-4 -4h-10t-13 2q-2 0 -4 2z" />
<glyph unicode="&#xcf;" horiz-adv-x="489" d="M80 1630v41q2 2 8 4q8 4 21 4q12 0 20 -4l8 -4v-41l-8 -4q-8 -4 -20 -4t-21 4q-6 2 -8 4zM229 4v1466q2 0 4 3q2 0 5.5 1t7.5 1t7 -1t5 -1l2 -3v-1466q-4 -4 -14 -4t-13 2q-2 0 -4 2zM354 1630v41q2 2 8 4q8 4 21 4q12 0 20 -4l9 -4v-41l-9 -4q-8 -4 -20 -4t-21 4 q-6 2 -8 4z" />
<glyph unicode="&#xd0;" horiz-adv-x="1357" d="M59 721q-6 14 0 31h183v723h368q145 0 255 -34t182.5 -118t109.5 -226.5t37 -359.5t-39 -359t-112.5 -226t-182 -118t-250.5 -34h-368v721h-183zM272 31h332q139 0 243.5 32.5t175.5 112.5t105.5 216t34.5 345t-33.5 345.5t-103.5 217t-174 112.5t-248 32h-332v-692h375 q6 -16 0 -31h-375v-690z" />
<glyph unicode="&#xd1;" horiz-adv-x="1409" d="M229 4v1466q2 0 4 3q2 0 5.5 1t7.5 1t6 -1t4 -1q2 -2 4 -3l797 -1261l98 -160q-2 25 -4 60q-2 29 -2 68.5v90.5v1202q2 0 4 3q2 0 5 1t7 1t6.5 -1t4.5 -1q2 -2 4 -3v-1466q-2 -2 -4 -2q-2 -2 -11 -2q-10 0 -12 2q-2 0 -4 2l-893 1419l4 -237v-1182q-4 -2 -6 -2 q-4 -2 -10 -2q-8 0 -11 2q-2 0 -4 2zM483 1636q6 23 23 43q14 16 37.5 30.5t64.5 14.5q29 0 53.5 -13t48 -28.5t50 -28t61.5 -12.5q47 0 67.5 26t26.5 42q16 -4 25 -14q-8 -25 -25 -43q-14 -16 -37.5 -28.5t-60.5 -12.5q-35 0 -61.5 12t-51 27.5t-49 29t-53.5 13.5 t-47 -11.5t-29 -23.5q-12 -16 -18 -35q-18 2 -25 12z" />
<glyph unicode="&#xd2;" horiz-adv-x="1388" d="M162 737q0 199 35.5 342.5t104.5 235.5t168 136t224 44t224.5 -44t168 -136t104.5 -235.5t36 -342.5t-37 -342t-105.5 -235t-167 -136t-223.5 -44t-223 44t-166.5 136t-105.5 235t-37 342zM193 737q0 -195 34.5 -332t100 -225t159 -129t207.5 -41q115 0 207 41t157.5 129 t101.5 225t36 332q0 193 -36 331t-101.5 226t-157.5 129t-207 41t-208 -41t-158.5 -129t-100 -226t-34.5 -331zM530 1868q6 16 21 20l264 -303q-4 -14 -18 -16z" />
<glyph unicode="&#xd3;" horiz-adv-x="1388" d="M162 737q0 199 35.5 342.5t104.5 235.5t168 136t224 44t224.5 -44t168 -136t104.5 -235.5t36 -342.5t-37 -342t-105.5 -235t-167 -136t-223.5 -44t-223 44t-166.5 136t-105.5 235t-37 342zM193 737q0 -195 34.5 -332t100 -225t159 -129t207.5 -41q115 0 207 41t157.5 129 t101.5 225t36 332q0 193 -36 331t-101.5 226t-157.5 129t-207 41t-208 -41t-158.5 -129t-100 -226t-34.5 -331zM602 1583l264 303q10 -2 13.5 -7t7.5 -13l-266 -299q-14 2 -19 16z" />
<glyph unicode="&#xd4;" horiz-adv-x="1388" d="M162 737q0 199 35.5 342.5t104.5 235.5t168 136t224 44t224.5 -44t168 -136t104.5 -235.5t36 -342.5t-37 -342t-105.5 -235t-167 -136t-223.5 -44t-223 44t-166.5 136t-105.5 235t-37 342zM193 737q0 -195 34.5 -332t100 -225t159 -129t207.5 -41q115 0 207 41t157.5 129 t101.5 225t36 332q0 193 -36 331t-101.5 226t-157.5 129t-207 41t-208 -41t-158.5 -129t-100 -226t-34.5 -331zM426 1612l260 207h27l256 -207q0 -16 -17 -21l-252 201l-258 -201q-12 4 -16 21z" />
<glyph unicode="&#xd5;" horiz-adv-x="1384" d="M160 737q0 199 35.5 342.5t104.5 235.5t168 136t224 44t224.5 -44t168 -136t104.5 -235.5t36 -342.5t-37 -342t-105.5 -235t-167 -136t-223.5 -44t-223 44t-167 136t-105.5 235t-36.5 342zM190 737q0 -195 35 -332t100.5 -225t159 -129t207.5 -41q115 0 207 41t157.5 129 t101.5 225t36 332q0 193 -36 331t-101.5 226t-157.5 129t-207 41t-208 -41t-158.5 -129t-100.5 -226t-35 -331zM467 1636q6 23 22 43q14 16 38 30.5t65 14.5q29 0 53.5 -13t48 -28.5t50 -28t61.5 -12.5q47 0 67.5 26t26.5 42q16 -4 25 -14q-8 -25 -25 -43 q-14 -16 -37.5 -28.5t-60.5 -12.5q-35 0 -61.5 12t-51 27.5t-49.5 29t-53 13.5q-29 0 -47.5 -11.5t-28.5 -23.5q-12 -16 -18 -35q-18 2 -25 12z" />
<glyph unicode="&#xd6;" horiz-adv-x="1388" d="M162 737q0 199 35.5 342.5t104.5 235.5t168 136t224 44t224.5 -44t168 -136t104.5 -235.5t36 -342.5t-37 -342t-105.5 -235t-167 -136t-223.5 -44t-223 44t-166.5 136t-105.5 235t-37 342zM193 737q0 -195 34.5 -332t100 -225t159 -129t207.5 -41q115 0 207 41t157.5 129 t101.5 225t36 332q0 193 -36 331t-101.5 226t-157.5 129t-207 41t-208 -41t-158.5 -129t-100 -226t-34.5 -331zM524 1665v41q2 2 8 4q8 4 21 4q12 0 20 -4l9 -4v-41l-9 -4q-8 -4 -20 -4t-21 4q-6 2 -8 4zM799 1665v41q2 2 8 4q8 4 20 4t21 -4l8 -4v-41l-8 -4q-8 -4 -21 -4 q-12 0 -20 4q-6 2 -8 4z" />
<glyph unicode="&#xd7;" horiz-adv-x="894" d="M186 350l240 240l-240 239q6 14 23 21l240 -238l237 238q14 -6 23 -21l-240 -239l240 -240q-4 -8 -10.5 -12t-12.5 -8l-237 239l-240 -239q-6 4 -12.5 8t-10.5 12z" />
<glyph unicode="&#xd8;" horiz-adv-x="1388" d="M162 737q0 199 35.5 342.5t104.5 235.5t168 136t224 44q104 0 189.5 -29.5t150.5 -93.5l99 176q14 -4 24 -12l-102 -184q84 -92 128 -243t44 -372q0 -199 -37 -342t-105.5 -235t-167 -136t-223.5 -44q-102 0 -186 28.5t-150 89.5l-100 -182q-14 0 -25 14l105 189 q-86 92 -131 243.5t-45 374.5zM193 737q0 -213 41.5 -358.5t119.5 -231.5l664 1194q-63 63 -144.5 93t-179.5 30q-115 0 -208 -41t-158.5 -129t-100 -226t-34.5 -331zM375 127q63 -59 143 -88t176 -29q115 0 207 41t157.5 129t101.5 225.5t36 331.5q0 211 -41 354.5 t-117 229.5z" />
<glyph unicode="&#xd9;" horiz-adv-x="1355" d="M217 442v1028q2 0 4 3q2 0 5 1t7 1t7.5 -1t5.5 -1l2 -3v-1030q0 -205 112.5 -317.5t317.5 -112.5t317.5 113t112.5 317v1030q2 0 4 3q2 0 3 1t5 1t6 -1t7 -1l6 -3v-1028q0 -219 -122 -340.5t-341 -121.5q-217 0 -338 121.5t-121 340.5zM496 1884q4 8 8 12.5t14 8.5 l254 -312q-6 -14 -20 -16z" />
<glyph unicode="&#xda;" horiz-adv-x="1355" d="M217 442v1028q2 0 4 3q2 0 5 1t7 1t7.5 -1t5.5 -1l2 -3v-1030q0 -205 112.5 -317.5t317.5 -112.5t317.5 113t112.5 317v1030q2 0 4 3q2 0 3 1t5 1t6 -1t7 -1l6 -3v-1028q0 -219 -122 -340.5t-341 -121.5q-217 0 -338 121.5t-121 340.5zM575 1573l254 311q10 -2 14.5 -7 t8.5 -13l-256 -308q-14 2 -21 17z" />
<glyph unicode="&#xdb;" horiz-adv-x="1355" d="M217 442v1028q2 0 4 3q2 0 5 1t7 1t7.5 -1t5.5 -1l2 -3v-1030q0 -205 112.5 -317.5t317.5 -112.5t317.5 113t112.5 317v1030q2 0 4 3q2 0 3 1t5 1t6 -1t7 -1l6 -3v-1028q0 -219 -122 -340.5t-341 -121.5q-217 0 -338 121.5t-121 340.5zM401 1610l261 207h26l256 -207 q0 -16 -16 -21l-252 201l-258 -201q-12 4 -17 21z" />
<glyph unicode="&#xdc;" horiz-adv-x="1355" d="M217 442v1028q2 0 4 3q2 0 5 1t7 1t7.5 -1t5.5 -1l2 -3v-1030q0 -205 112.5 -317.5t317.5 -112.5t317.5 113t112.5 317v1030q2 0 4 3q2 0 3 1t5 1t6 -1t7 -1l6 -3v-1028q0 -219 -122 -340.5t-341 -121.5q-217 0 -338 121.5t-121 340.5zM510 1677v41q2 2 8 4q8 4 21 4 q12 0 20 -4l8 -4v-41l-8 -4q-8 -4 -20 -4t-21 4q-6 2 -8 4zM784 1677v41q2 2 9 4q8 4 20 4t21 -4l8 -4v-41l-8 -4q-8 -4 -21 -4q-12 0 -20 4q-6 2 -9 4z" />
<glyph unicode="&#xdd;" horiz-adv-x="1247" d="M66 1470l4 3q4 0 7 1t9 1q4 0 7 -1t5 -1q2 -2 4 -3l519 -811l536 811q2 0 4 3q2 0 5 1t10 1q6 0 10 -1t6 -1l2 -3l-557 -843v-623q-2 -2 -4 -2q-2 -2 -12 -2q-8 0 -11 2q-2 0 -4 2v621zM539 1579l254 311q10 -2 14 -7t8 -13l-256 -307q-14 2 -20 16z" />
<glyph unicode="&#xde;" horiz-adv-x="1224" d="M229 4v1466l2 3q2 0 5.5 1t9.5 1q4 0 7 -1t5 -1l2 -3v-309h461q180 0 279.5 -105.5t99.5 -295.5q0 -186 -99.5 -290.5t-279.5 -104.5h-461v-361q0 -2 -2 -2q-2 -2 -12 -2q-12 0 -15 2q-2 0 -2 2zM260 395h465q164 0 254 95.5t90 267.5q0 176 -90 274t-254 98h-465v-735z " />
<glyph unicode="&#xdf;" horiz-adv-x="1165" d="M197 4v1135q0 397 391 397q96 0 163.5 -30.5t109.5 -80t61.5 -111t19.5 -124.5q0 -47 -10.5 -97.5t-28.5 -99.5q-80 6 -143 -14q-53 -16 -97.5 -60.5t-44.5 -132.5q0 -63 33 -104t81 -71.5t105.5 -58.5t105.5 -65.5t81 -93t33 -141.5q0 -57 -19.5 -107.5t-57.5 -87.5 t-97.5 -57t-139.5 -20q-53 0 -91 5t-60 11q-27 8 -45 16q0 18 12 25q47 -18 90 -23.5t90 -5.5q82 0 137.5 20.5t89 54.5t48 77t14.5 88q0 82 -32.5 135t-81 90t-105.5 63.5t-105.5 59.5t-81 77t-32.5 115q0 63 21.5 105.5t54 68t70.5 39t71 17.5t55 4h23q14 41 21 85t7 85 q0 59 -17 116.5t-56 101.5t-102.5 70.5t-151.5 26.5q-98 0 -167 -26.5t-112 -74.5t-62.5 -115.5t-19.5 -151.5v-1135q0 -2 -2 -2q-2 -2 -12 -2t-12 2q-2 0 -2 2z" />
<glyph unicode="&#xe0;" horiz-adv-x="1046" d="M119 281q0 147 88 228t285 81q92 0 185 -7.5t152 -15.5v185q0 162 -66.5 239.5t-238.5 77.5q-66 0 -121 -9t-98 -20q-51 -12 -92 -26q-6 4 -9 12t-3 16q47 14 100 27q47 10 105.5 19.5t121.5 9.5q170 0 250 -80t80 -266v-750q-14 -8 -29 0l2 272q-18 -66 -56 -120 t-90 -92.5t-116.5 -60t-132.5 -21.5q-317 0 -317 301zM147 281q0 -272 279 -273q84 0 157.5 27.5t128 82t86 132.5t31.5 178v115q-59 10 -148 15t-181 5q-182 0 -267.5 -68.5t-85.5 -213.5zM301 1563q4 8 8 12t15 8l254 -311q-6 -14 -21 -17z" />
<glyph unicode="&#xe1;" horiz-adv-x="1046" d="M119 281q0 147 88 228t285 81q92 0 185 -7.5t152 -15.5v185q0 162 -66.5 239.5t-238.5 77.5q-66 0 -121 -9t-98 -20q-51 -12 -92 -26q-6 4 -9 12t-3 16q47 14 100 27q47 10 105.5 19.5t121.5 9.5q170 0 250 -80t80 -266v-750q-14 -8 -29 0l2 272q-18 -66 -56 -120 t-90 -92.5t-116.5 -60t-132.5 -21.5q-317 0 -317 301zM147 281q0 -272 279 -273q84 0 157.5 27.5t128 82t86 132.5t31.5 178v115q-59 10 -148 15t-181 5q-182 0 -267.5 -68.5t-85.5 -213.5zM412 1272l254 311q10 -2 14 -7t8 -13l-256 -308q-14 2 -20 17z" />
<glyph unicode="&#xe2;" horiz-adv-x="1046" d="M119 281q0 147 88 228t285 81q92 0 185 -7.5t152 -15.5v185q0 162 -66.5 239.5t-238.5 77.5q-66 0 -121 -9t-98 -20q-51 -12 -92 -26q-6 4 -9 12t-3 16q47 14 100 27q47 10 105.5 19.5t121.5 9.5q170 0 250 -80t80 -266v-750q-14 -8 -29 0l2 272q-18 -66 -56 -120 t-90 -92.5t-116.5 -60t-132.5 -21.5q-317 0 -317 301zM147 281q0 -272 279 -273q84 0 157.5 27.5t128 82t86 132.5t31.5 178v115q-59 10 -148 15t-181 5q-182 0 -267.5 -68.5t-85.5 -213.5zM240 1268l260 207h26l256 -207q0 -16 -16 -21l-252 201l-258 -201q-12 4 -16 21z " />
<glyph unicode="&#xe3;" horiz-adv-x="1046" d="M119 281q0 147 88 228t285 81q92 0 185 -7.5t152 -15.5v185q0 162 -66.5 239.5t-238.5 77.5q-66 0 -121 -9t-98 -20q-51 -12 -92 -26q-6 4 -9 12t-3 16q47 14 100 27q47 10 105.5 19.5t121.5 9.5q170 0 250 -80t80 -266v-750q-14 -8 -29 0l2 272q-18 -66 -56 -120 t-90 -92.5t-116.5 -60t-132.5 -21.5q-317 0 -317 301zM147 281q0 -272 279 -273q84 0 157.5 27.5t128 82t86 132.5t31.5 178v115q-59 10 -148 15t-181 5q-182 0 -267.5 -68.5t-85.5 -213.5zM299 1352q6 23 23 43q14 16 37.5 30.5t64.5 14.5q29 0 53.5 -13.5t48 -29t50 -27.5 t61.5 -12q47 0 67.5 25.5t26.5 41.5q16 -4 25 -14q-8 -25 -25 -43q-14 -16 -37.5 -28.5t-60.5 -12.5q-35 0 -61.5 12.5t-51 27.5t-49.5 28.5t-53 13.5q-29 0 -47.5 -11.5t-28.5 -23.5q-12 -16 -18 -35q-18 2 -25 13z" />
<glyph unicode="&#xe4;" horiz-adv-x="1046" d="M119 281q0 147 88 228t285 81q92 0 185 -7.5t152 -15.5v185q0 162 -66.5 239.5t-238.5 77.5q-66 0 -121 -9t-98 -20q-51 -12 -92 -26q-6 4 -9 12t-3 16q47 14 100 27q47 10 105.5 19.5t121.5 9.5q170 0 250 -80t80 -266v-750q-14 -8 -29 0l2 272q-18 -66 -56 -120 t-90 -92.5t-116.5 -60t-132.5 -21.5q-317 0 -317 301zM147 281q0 -272 279 -273q84 0 157.5 27.5t128 82t86 132.5t31.5 178v115q-59 10 -148 15t-181 5q-182 0 -267.5 -68.5t-85.5 -213.5zM352 1399v37q2 0 6 2q8 4 19 4q10 0 18 -4q4 -2 6 -2v-37q-2 -2 -6 -4t-18 -2 t-19 2q-4 2 -6 4zM627 1399v37q2 0 6 2q8 4 18 4t19 -4q4 -2 6 -2v-37q-2 -2 -6 -4t-19 -2q-14 0 -18 2t-6 4z" />
<glyph unicode="&#xe5;" horiz-adv-x="1046" d="M119 281q0 147 88 228t285 81q92 0 185 -7.5t152 -15.5v185q0 162 -66.5 239.5t-238.5 77.5q-66 0 -121 -9t-98 -20q-51 -12 -92 -26q-6 4 -9 12t-3 16q47 14 100 27q47 10 105.5 19.5t121.5 9.5q170 0 250 -80t80 -266v-750q-14 -8 -29 0l2 272q-18 -66 -56 -120 t-90 -92.5t-116.5 -60t-132.5 -21.5q-317 0 -317 301zM147 281q0 -272 279 -273q84 0 157.5 27.5t128 82t86 132.5t31.5 178v115q-59 10 -148 15t-181 5q-182 0 -267.5 -68.5t-85.5 -213.5zM309 1440q0 49 18.5 86t48.5 62.5t67.5 37.5t78.5 12q39 0 78 -12t69.5 -36.5 t49 -62.5t18.5 -87q0 -98 -63.5 -150.5t-153.5 -52.5q-92 0 -151.5 52t-59.5 151zM340 1440q0 -33 11 -65t33 -56.5t55.5 -39.5t80.5 -15t82 15t58.5 39.5t35 56.5t11.5 65q0 66 -46.5 118t-140.5 52q-92 0 -136 -52.5t-44 -117.5z" />
<glyph unicode="&#xe6;" horiz-adv-x="1605" d="M119 281q0 139 81 220t267 81h319v163q0 180 -72.5 251t-211.5 71q-59 0 -112.5 -8t-92.5 -19q-47 -12 -84 -26q-20 10 -12 28q41 14 90 27q41 10 96 19.5t119 9.5q137 0 213 -62.5t94 -199.5v-43l10 43q45 133 131 197.5t201 64.5q84 0 145.5 -30t100.5 -80t57.5 -116.5 t18.5 -140.5q0 -41 -4.5 -74.5t-8.5 -56.5q-6 -29 -10 -49h-637q8 -268 90 -404.5t246 -136.5q61 0 108.5 13.5t77.5 29.5q37 20 62 45q16 -6 22 -22q-29 -27 -67 -49q-35 -18 -86 -32.5t-119 -14.5q-115 0 -204 70.5t-130 228.5l-8 65l-8 -63q-45 -156 -148.5 -228.5 t-246.5 -72.5q-127 0 -207 79.5t-80 221.5zM150 281q0 -135 69.5 -203t186.5 -68q80 0 149.5 26.5t120.5 79t80.5 131.5t29.5 183v121h-311q-172 0 -248.5 -66.5t-76.5 -203.5zM817 582h615q2 20 6 43q4 20 6 48.5t2 63.5q0 63 -15.5 124t-50 106t-90 72.5t-135.5 27.5 q-68 0 -128 -27.5t-106.5 -86t-74 -150.5t-29.5 -221z" />
<glyph unicode="&#xe7;" horiz-adv-x="913" d="M143 539q0 276 105.5 417.5t310.5 141.5q53 0 96 -7.5t72 -15.5q35 -10 59 -22q0 -20 -14 -27q-25 12 -55 21q-27 8 -65 14t-85 6q-195 0 -294 -133t-99 -395t99.5 -395.5t293.5 -133.5q51 0 94.5 8.5t71.5 18.5q35 12 62 29q14 -6 18 -27q-29 -18 -65 -31 q-33 -10 -79 -19t-104 -9h-30l-41 -156q92 4 145 -39t53 -115q0 -86 -49 -134t-158 -48q-53 0 -94 13.5t-78 39.5q2 10 17 21q33 -20 69.5 -33.5t87.5 -13.5q80 0 129.5 34.5t49.5 120.5q0 35 -13.5 58.5t-36 39t-50 22.5t-54.5 7h-41l-8 13l45 172q-180 20 -272.5 160.5 t-92.5 396.5z" />
<glyph unicode="&#xe8;" horiz-adv-x="1040" d="M145 545q0 145 31 249.5t85 172t129 99.5t165 32t157.5 -30t111.5 -80t65.5 -116.5t21.5 -140.5q0 -47 -4 -84t-8 -63q-6 -31 -10 -54h-713q8 -270 95 -395t280 -125q66 0 120 14.5t91 30.5q43 20 76 45q18 -4 18 -22q-33 -27 -78 -49q-39 -18 -97 -33.5t-136 -15.5 q-205 0 -302.5 142t-97.5 423zM176 561h690q0 -4 7.5 43t7.5 133q0 63 -18.5 124t-58.5 106t-101.5 72.5t-147.5 27.5q-170 0 -272.5 -123t-106.5 -383zM385 1554q4 8 8 12.5t15 8.5l254 -311q-6 -14 -21 -17z" />
<glyph unicode="&#xe9;" horiz-adv-x="1040" d="M145 545q0 145 31 249.5t85 172t129 99.5t165 32t157.5 -30t111.5 -80t65.5 -116.5t21.5 -140.5q0 -47 -4 -84t-8 -63q-6 -31 -10 -54h-713q8 -270 95 -395t280 -125q66 0 120 14.5t91 30.5q43 20 76 45q18 -4 18 -22q-33 -27 -78 -49q-39 -18 -97 -33.5t-136 -15.5 q-205 0 -302.5 142t-97.5 423zM176 561h690q0 -4 7.5 43t7.5 133q0 63 -18.5 124t-58.5 106t-101.5 72.5t-147.5 27.5q-170 0 -272.5 -123t-106.5 -383zM424 1264l254 311q10 -2 14 -7t8 -14l-256 -307q-14 2 -20 17z" />
<glyph unicode="&#xea;" horiz-adv-x="1040" d="M145 545q0 145 31 249.5t85 172t129 99.5t165 32t157.5 -30t111.5 -80t65.5 -116.5t21.5 -140.5q0 -47 -4 -84t-8 -63q-6 -31 -10 -54h-713q8 -270 95 -395t280 -125q66 0 120 14.5t91 30.5q43 20 76 45q18 -4 18 -22q-33 -27 -78 -49q-39 -18 -97 -33.5t-136 -15.5 q-205 0 -302.5 142t-97.5 423zM176 561h690q0 -4 7.5 43t7.5 133q0 63 -18.5 124t-58.5 106t-101.5 72.5t-147.5 27.5q-170 0 -272.5 -123t-106.5 -383zM285 1251l260 207h26l256 -207q0 -16 -16 -20l-252 201l-258 -201q-12 4 -16 20z" />
<glyph unicode="&#xeb;" horiz-adv-x="1040" d="M145 545q0 145 31 249.5t85 172t129 99.5t165 32t157.5 -30t111.5 -80t65.5 -116.5t21.5 -140.5q0 -47 -4 -84t-8 -63q-6 -31 -10 -54h-713q8 -270 95 -395t280 -125q66 0 120 14.5t91 30.5q43 20 76 45q18 -4 18 -22q-33 -27 -78 -49q-39 -18 -97 -33.5t-136 -15.5 q-205 0 -302.5 142t-97.5 423zM176 561h690q0 -4 7.5 43t7.5 133q0 63 -18.5 124t-58.5 106t-101.5 72.5t-147.5 27.5q-170 0 -272.5 -123t-106.5 -383zM393 1356v41q2 2 8 4q8 4 21 4q12 0 20 -4l9 -4v-41l-9 -4q-8 -4 -20 -4t-21 4q-6 2 -8 4zM668 1356v41q2 2 8 4 q8 4 20 4t21 -4l8 -4v-41l-8 -4q-8 -4 -21 -4q-12 0 -20 4q-6 2 -8 4z" />
<glyph unicode="&#xec;" horiz-adv-x="438" d="M35 1561q4 8 8 12t14 8l254 -311q-6 -14 -20 -17zM205 4v1069l2 2q2 0 5 1t7 1t7 -1t5 -1l2 -2v-1069q0 -2 -2 -2q-2 -2 -12 -2t-12 2q-2 0 -2 2z" />
<glyph unicode="&#xed;" horiz-adv-x="438" d="M111 1272l254 311q10 -2 14 -7t8 -13l-256 -308q-14 2 -20 17zM205 4v1069l2 2q2 0 5 1t7 1t7 -1t5 -1l2 -2v-1069q0 -2 -2 -2q-2 -2 -12 -2t-12 2q-2 0 -2 2z" />
<glyph unicode="&#xee;" horiz-adv-x="438" d="M-51 1251l260 207h27l256 -207q0 -16 -17 -20l-252 201l-258 -201q-12 4 -16 20zM205 4v1069l2 2q2 0 5 1t7 1t7 -1t5 -1l2 -2v-1069q0 -2 -2 -2q-2 -2 -12 -2t-12 2q-2 0 -2 2z" />
<glyph unicode="&#xef;" horiz-adv-x="438" d="M49 1376v41q2 2 8 4q8 4 21 4q12 0 20 -4l8 -4v-41l-8 -4q-8 -4 -20 -4t-21 4q-6 2 -8 4zM205 4v1069l2 2q2 0 5 1t7 1t7 -1t5 -1l2 -2v-1069q0 -2 -2 -2q-2 -2 -12 -2t-12 2q-2 0 -2 2zM324 1376v41q2 2 8 4q8 4 20 4t21 -4l8 -4v-41l-8 -4q-8 -4 -21 -4q-12 0 -20 4 q-6 2 -8 4z" />
<glyph unicode="&#xf0;" d="M145 516q0 266 102.5 401.5t297.5 135.5q154 0 252 -70t139 -229q-31 197 -97.5 338t-166.5 235l-199 -137q-16 10 -18 27l192 131q-72 59 -158 97t-186 56q-8 20 6 35q115 -23 205 -66t162 -102l166 113q14 -6 18 -25l-160 -110q76 -72 129.5 -164t85 -200t46 -226.5 t14.5 -245.5q0 -141 -28.5 -241.5t-82 -165t-131.5 -94t-178 -29.5q-203 0 -306.5 135t-103.5 401zM176 516q0 -250 95.5 -378t283.5 -128q199 0 293 121t94 383q0 143 -30.5 240.5t-85 157t-127 85t-156.5 25.5q-180 0 -273.5 -129t-93.5 -377z" />
<glyph unicode="&#xf1;" d="M197 4v1069q14 10 28 0v-248q66 139 169.5 206t234.5 67q143 0 226 -80t83 -221v-793q-14 -10 -29 0v791q0 133 -75.5 203.5t-208.5 70.5q-57 0 -113.5 -15.5t-109 -51t-97.5 -95t-80 -145.5v-758q-14 -10 -28 0zM358 1378q6 23 23 43q14 16 37.5 30.5t64.5 14.5 q29 0 53.5 -13t48 -28.5t50 -28t61.5 -12.5q47 0 67.5 26t27.5 42q16 -4 24 -14q-8 -25 -24 -43q-14 -16 -38 -28.5t-61 -12.5q-35 0 -61.5 12t-51 27.5t-49 29t-53.5 13.5t-47 -11.5t-29 -23.5q-12 -16 -18 -35q-18 2 -25 12z" />
<glyph unicode="&#xf2;" horiz-adv-x="1101" d="M145 539q0 152 28 258t80 172.5t127 97.5t171 31t171 -31t127 -97.5t79.5 -173t27.5 -257.5q0 -152 -27.5 -258.5t-79.5 -173t-127 -97t-171 -30.5t-171 30.5t-127 97t-80 173t-28 258.5zM174 539q0 -150 26.5 -251.5t76 -164t119 -89t155.5 -26.5t155.5 26.5t118.5 89 t76 164t27 251.5t-27 251t-76 163.5t-118.5 89t-155.5 26.5t-155.5 -26.5t-119 -89t-76 -164t-26.5 -250.5zM362 1559q4 8 8.5 12t14.5 8l254 -311q-6 -14 -21 -17z" />
<glyph unicode="&#xf3;" horiz-adv-x="1101" d="M145 539q0 152 28 258t80 172.5t127 97.5t171 31t171 -31t127 -97.5t79.5 -173t27.5 -257.5q0 -152 -27.5 -258.5t-79.5 -173t-127 -97t-171 -30.5t-171 30.5t-127 97t-80 173t-28 258.5zM174 539q0 -150 26.5 -251.5t76 -164t119 -89t155.5 -26.5t155.5 26.5t118.5 89 t76 164t27 251.5t-27 251t-76 163.5t-118.5 89t-155.5 26.5t-155.5 -26.5t-119 -89t-76 -164t-26.5 -250.5zM406 1266l253 311q10 -2 14.5 -7t8.5 -14l-256 -307q-14 2 -20 17z" />
<glyph unicode="&#xf4;" horiz-adv-x="1101" d="M145 539q0 152 28 258t80 172.5t127 97.5t171 31t171 -31t127 -97.5t79.5 -173t27.5 -257.5q0 -152 -27.5 -258.5t-79.5 -173t-127 -97t-171 -30.5t-171 30.5t-127 97t-80 173t-28 258.5zM174 539q0 -150 26.5 -251.5t76 -164t119 -89t155.5 -26.5t155.5 26.5t118.5 89 t76 164t27 251.5t-27 251t-76 163.5t-118.5 89t-155.5 26.5t-155.5 -26.5t-119 -89t-76 -164t-26.5 -250.5zM279 1251l260 207h26l256 -207q0 -16 -16 -20l-252 201l-258 -201q-12 4 -16 20z" />
<glyph unicode="&#xf5;" horiz-adv-x="1101" d="M145 539q0 152 28 258t80 172.5t127 97.5t171 31t171 -31t127 -97.5t79.5 -173t27.5 -257.5q0 -152 -27.5 -258.5t-79.5 -173t-127 -97t-171 -30.5t-171 30.5t-127 97t-80 173t-28 258.5zM174 539q0 -150 26.5 -251.5t76 -164t119 -89t155.5 -26.5t155.5 26.5t118.5 89 t76 164t27 251.5t-27 251t-76 163.5t-118.5 89t-155.5 26.5t-155.5 -26.5t-119 -89t-76 -164t-26.5 -250.5zM330 1354q6 23 22 43q14 16 38 30.5t65 14.5q29 0 53 -13.5t48 -29t50.5 -27.5t61.5 -12q47 0 67.5 25.5t26.5 41.5q16 -4 24 -14q-8 -25 -24 -43 q-14 -16 -38 -28.5t-60 -12.5q-35 0 -62 12.5t-51.5 27.5t-49 28.5t-52.5 13.5q-29 0 -47.5 -11t-28.5 -24q-12 -16 -19 -35q-18 2 -24 13z" />
<glyph unicode="&#xf6;" horiz-adv-x="1101" d="M145 539q0 152 28 258t80 172.5t127 97.5t171 31t171 -31t127 -97.5t79.5 -173t27.5 -257.5q0 -152 -27.5 -258.5t-79.5 -173t-127 -97t-171 -30.5t-171 30.5t-127 97t-80 173t-28 258.5zM174 539q0 -150 26.5 -251.5t76 -164t119 -89t155.5 -26.5t155.5 26.5t118.5 89 t76 164t27 251.5t-27 251t-76 163.5t-118.5 89t-155.5 26.5t-155.5 -26.5t-119 -89t-76 -164t-26.5 -250.5zM387 1389v41q2 2 8 4q8 4 21 4q12 0 20 -4l8 -4v-41l-8 -5q-8 -4 -20 -4t-21 4q-6 2 -8 5zM662 1389v41q2 2 8 4q8 4 20 4t21 -4l8 -4v-41l-8 -5q-8 -4 -21 -4 q-12 0 -20 4q-6 2 -8 5z" />
<glyph unicode="&#xf7;" horiz-adv-x="1144" d="M190 580q-6 14 0 30h764q6 -16 0 -30h-764zM545 248v41q2 2 8 4q8 4 20 4t21 -4l8 -4v-41l-8 -4q-8 -4 -21 -4q-12 0 -20 4q-6 2 -8 4zM545 899v41q2 2 8 4q8 4 20 4t21 -4l8 -4v-41l-8 -4q-8 -4 -21 -4q-12 0 -20 4q-6 2 -8 4z" />
<glyph unicode="&#xf8;" horiz-adv-x="1101" d="M145 539q0 152 28 258t80 172.5t127 97.5t171 31q78 0 142.5 -19.5t113.5 -62.5l74 135q14 0 24 -12l-78 -144q63 -66 96 -177t33 -279q0 -152 -27.5 -258.5t-79.5 -173t-127 -97t-171 -30.5q-72 0 -132.5 16t-107.5 53l-69 -129q-16 0 -25 12l74 134q-72 66 -109 179 t-37 294zM174 539q0 -172 34 -279.5t97 -167.5l488 897q-47 43 -108.5 61.5t-133.5 18.5q-86 0 -155.5 -26.5t-119 -89t-76 -164t-26.5 -250.5zM326 74q45 -35 102 -50.5t123 -15.5q86 0 155.5 26.5t118.5 89t76 164t27 251.5q0 160 -30 265t-85 165z" />
<glyph unicode="&#xf9;" d="M188 293v780q14 10 29 0v-778q0 -133 76 -210t209 -77q57 0 113.5 15.5t108.5 51.5t97 95t80 145v758q14 10 29 0v-1069q-14 -10 -29 0v248q-66 -139 -169 -205.5t-234 -66.5q-143 0 -226.5 86t-83.5 227zM373 1559q4 8 8 12t14 8l254 -311q-6 -14 -20 -17z" />
<glyph unicode="&#xfa;" d="M188 293v780q14 10 29 0v-778q0 -133 76 -210t209 -77q57 0 113.5 15.5t108.5 51.5t97 95t80 145v758q14 10 29 0v-1069q-14 -10 -29 0v248q-66 -139 -169 -205.5t-234 -66.5q-143 0 -226.5 86t-83.5 227zM449 1282l239 293q10 -2 14.5 -7t8.5 -14l-242 -288 q-14 2 -20 16z" />
<glyph unicode="&#xfb;" d="M188 293v780q14 10 29 0v-778q0 -133 76 -210t209 -77q57 0 113.5 15.5t108.5 51.5t97 95t80 145v758q14 10 29 0v-1069q-14 -10 -29 0v248q-66 -139 -169 -205.5t-234 -66.5q-143 0 -226.5 86t-83.5 227zM309 1270l236 188h26l242 -194q0 -16 -16 -21l-238 189 l-233 -183q-12 4 -17 21z" />
<glyph unicode="&#xfc;" d="M188 293v780q14 10 29 0v-778q0 -133 76 -210t209 -77q57 0 113.5 15.5t108.5 51.5t97 95t80 145v758q14 10 29 0v-1069q-14 -10 -29 0v248q-66 -139 -169 -205.5t-234 -66.5q-143 0 -226.5 86t-83.5 227zM381 1395v41q2 2 8 4q8 4 21 4q12 0 20 -4l8 -4v-41l-8 -4 q-8 -4 -20 -5q-12 0 -21 5q-6 2 -8 4zM655 1395v41q2 2 9 4q8 4 20 4t21 -4l8 -4v-41l-8 -4q-8 -4 -21 -5q-12 0 -20 5q-6 2 -9 4z" />
<glyph unicode="&#xfd;" horiz-adv-x="1058" d="M74 1073q2 0 4 2q2 0 5 1t7 1t7 -1t5 -1q2 -2 4 -2l451 -1038h2l389 1038q2 0 4 2q2 0 5.5 1t7.5 1t7 -1t5 -1q2 -2 4 -2l-514 -1362q-23 -59 -43.5 -102t-44 -69.5t-52 -39t-67.5 -12.5q-20 0 -35.5 1t-27.5 3q-14 2 -25 6q-6 14 2 29q8 -4 21 -6q10 -2 25.5 -3t37.5 -1 q35 0 60.5 12t46 37.5t38 66.5t39.5 99l101 266h-2zM414 1270l254 311q10 -2 14 -7t8 -13l-256 -308q-14 2 -20 17z" />
<glyph unicode="&#xfe;" horiz-adv-x="1136" d="M197 -510v2038q2 0 4 2q2 0 5 1t7 1t7 -1t5 -1l2 -2v-703q41 117 135.5 195t221.5 78q203 0 305 -136.5t102 -422.5q0 -283 -99 -421t-294 -138q-117 0 -217 67.5t-154 194.5v-752q-2 -2 -4 -2q-2 -2 -10 -2q-10 0 -12 2q-2 0 -4 2zM227 377q2 -66 31 -131.5t77 -117.5 t114.5 -85t146.5 -33q180 0 272.5 130t92.5 399q0 272 -96.5 400t-282.5 128q-84 0 -149.5 -37t-111 -95t-70 -129t-24.5 -138v-291z" />
<glyph unicode="&#xff;" horiz-adv-x="1058" d="M74 1073q2 0 4 2q2 0 5 1t7 1t7 -1t5 -1q2 -2 4 -2l451 -1038h2l389 1038q2 0 4 2q2 0 5.5 1t7.5 1t7 -1t5 -1q2 -2 4 -2l-514 -1362q-23 -59 -43.5 -102t-44 -69.5t-52 -39t-67.5 -12.5q-20 0 -35.5 1t-27.5 3q-14 2 -25 6q-6 14 2 29q8 -4 21 -6q10 -2 25.5 -3t37.5 -1 q35 0 60.5 12t46 37.5t38 66.5t39.5 99l101 266h-2zM348 1399v41q2 2 8 4q8 4 21 4q12 0 20 -4l9 -4v-41l-9 -4q-8 -4 -20 -4t-21 4q-6 2 -8 4zM643 1399v41q2 2 8 4q8 4 21 4q12 0 20 -4l8 -4v-41l-8 -4q-8 -4 -20 -4t-21 4q-6 2 -8 4z" />
<glyph unicode="&#x152;" horiz-adv-x="1662" d="M160 737q0 199 40 342.5t114.5 235.5t179 136t233.5 44q55 0 100 -8t72 -12h627q8 -16 0 -31h-617v-680h535q8 -16 0 -31h-535v-702h637q4 -18 0 -31h-649q-27 -8 -69 -14t-101 -6q-129 0 -233.5 43t-179 135t-114.5 235t-40 344zM190 737q0 -195 39 -332t110 -225 t170 -129t218 -41q51 0 90 6.5t62 12.5v1419q-23 6 -61 11t-91 5q-119 0 -218 -41t-170 -129t-110 -226t-39 -331z" />
<glyph unicode="&#x153;" horiz-adv-x="1714" d="M145 539q0 152 26 258t75 172.5t121.5 97.5t167.5 31q152 0 242.5 -83t119.5 -274q35 188 129 272.5t225 84.5q86 0 148.5 -30t103.5 -80t60.5 -116.5t19.5 -140.5q0 -47 -4 -84t-8 -63q-6 -31 -10 -54h-648q4 -256 87 -388t257 -132q57 0 103.5 14.5t79.5 30.5 q37 20 67 45q23 -6 23 -24q-29 -27 -68 -49q-35 -18 -88 -32.5t-125 -14.5q-137 0 -230 83.5t-122 266.5q-37 -190 -128 -270t-239 -80q-94 0 -165.5 30.5t-120.5 97t-74 173t-25 258.5zM174 539q0 -150 24.5 -251.5t70.5 -163t111.5 -88t149.5 -26.5t148.5 29t108.5 92.5 t67 164.5t23 247q0 150 -23 251t-66 162.5t-106.5 87t-146.5 25.5q-84 0 -151 -26.5t-114 -89t-71.5 -163.5t-24.5 -251zM913 561h623q0 -4 8 41t8 131q0 63 -16 125t-53 108t-94.5 74.5t-137.5 28.5q-152 0 -242.5 -124t-95.5 -384z" />
<glyph unicode="&#x178;" horiz-adv-x="1247" d="M66 1470l4 3q4 0 7 1t9 1q4 0 7 -1t5 -1q2 -2 4 -3l519 -811l536 811q2 0 4 3q2 0 5 1t10 1q6 0 10 -1t6 -1l2 -3l-557 -843v-623q-2 -2 -4 -2q-2 -2 -12 -2q-8 0 -11 2q-2 0 -4 2v621zM455 1673v41q2 2 8 4q8 4 20 4t21 -4l8 -4v-41l-8 -4q-8 -4 -21 -4q-12 0 -20 4 q-6 2 -8 4zM729 1673v41q2 2 8 4q8 4 21 4q12 0 20 -4l8 -4v-41l-8 -4q-8 -4 -20 -4t-21 4q-6 2 -8 4z" />
<glyph unicode="&#x2c6;" horiz-adv-x="811" d="M131 1171l260 207h27l256 -207q0 -16 -17 -20l-251 201l-259 -201q-12 4 -16 20z" />
<glyph unicode="&#x2dc;" horiz-adv-x="669" d="M135 1288q6 23 23 43q14 16 37.5 30.5t64.5 14.5q29 0 53.5 -13t48 -28.5t50 -28t61.5 -12.5q47 0 67.5 26t26.5 42q16 -4 25 -14q-8 -25 -25 -43q-14 -16 -37.5 -28.5t-60.5 -12.5q-35 0 -61.5 12t-51 27.5t-49 29t-53.5 13.5t-47.5 -11.5t-28.5 -23.5q-12 -16 -18 -35 q-18 2 -25 12z" />
<glyph unicode="&#x2000;" horiz-adv-x="952" />
<glyph unicode="&#x2001;" horiz-adv-x="1905" />
<glyph unicode="&#x2002;" horiz-adv-x="952" />
<glyph unicode="&#x2003;" horiz-adv-x="1905" />
<glyph unicode="&#x2004;" horiz-adv-x="635" />
<glyph unicode="&#x2005;" horiz-adv-x="476" />
<glyph unicode="&#x2006;" horiz-adv-x="317" />
<glyph unicode="&#x2007;" horiz-adv-x="317" />
<glyph unicode="&#x2008;" horiz-adv-x="238" />
<glyph unicode="&#x2009;" horiz-adv-x="381" />
<glyph unicode="&#x200a;" horiz-adv-x="105" />
<glyph unicode="&#x2010;" horiz-adv-x="716" d="M182 575q-6 14 0 31h353q6 -16 0 -31h-353z" />
<glyph unicode="&#x2011;" horiz-adv-x="716" d="M182 575q-6 14 0 31h353q6 -16 0 -31h-353z" />
<glyph unicode="&#x2012;" horiz-adv-x="716" d="M182 575q-6 14 0 31h353q6 -16 0 -31h-353z" />
<glyph unicode="&#x2013;" horiz-adv-x="1134" d="M186 575q-6 14 0 31h762q6 -16 0 -31h-762z" />
<glyph unicode="&#x2014;" horiz-adv-x="1646" d="M186 575q-6 14 0 31h1274q6 -16 0 -31h-1274z" />
<glyph unicode="&#x2018;" horiz-adv-x="380" d="M160 1288v35q0 35 9 61.5t21 47.5q12 23 31 41l17 -13q-14 -18 -25 -39q-10 -18 -17.5 -40.5t-7.5 -47.5q4 0 6.5 -1t6.5 -1q4 -2 8 -2v-41q-2 -2 -6 -2q-4 -2 -19 -2q-14 0 -18 2q-4 0 -6 2z" />
<glyph unicode="&#x2019;" horiz-adv-x="372" d="M154 1300q14 16 24 39q10 16 17.5 40t7.5 48q-10 0 -15 3q-4 0 -6 2v41q2 0 6 2q4 0 7.5 1t11.5 1q6 0 10 -1t8 -1q4 -2 6 -2v-35q0 -35 -10 -61.5t-20 -47.5q-14 -23 -31 -41z" />
<glyph unicode="&#x201a;" horiz-adv-x="323" d="M109 -131q14 16 24 39q10 16 17.5 39.5t7.5 48.5q-10 0 -15 2q-4 0 -6 2v41q2 0 6 2q4 0 7.5 1t11.5 1q6 0 10 -1t8 -1q4 -2 6 -2v-35q0 -35 -10 -61.5t-20 -46.5q-14 -23 -31 -41z" />
<glyph unicode="&#x201c;" horiz-adv-x="528" d="M162 1290v35q0 35 9 61.5t22 47.5q12 23 30 41l17 -13q-14 -18 -25 -39q-10 -18 -17.5 -40.5t-7.5 -47.5q4 0 6.5 -1t6.5 -1q4 -2 8 -2v-41q-2 -2 -6 -2q-4 -2 -19 -2q-14 0 -18 2q-4 0 -6 2zM307 1290v35q0 35 9.5 61.5t21.5 47.5q12 23 31 41l16 -13q-14 -18 -25 -39 q-10 -18 -17 -40.5t-7 -47.5q4 0 6 -1t6 -1q4 -2 8 -2v-41q-2 -2 -6 -2q-4 -2 -18 -2t-19 2q-4 0 -6 2z" />
<glyph unicode="&#x201d;" horiz-adv-x="516" d="M152 1296q14 16 24 39q10 16 17.5 40t7.5 48q-10 0 -15 2q-4 0 -6 2v41q2 0 6 2q4 0 7.5 1.5t11.5 1.5q6 0 10 -1.5t8 -1.5q4 -2 6 -2v-34q0 -35 -10 -61.5t-20 -47.5q-14 -23 -31 -41zM297 1296q14 16 25 39q10 16 17 40t7 48q-10 0 -14 2q-4 0 -6 2v41q2 0 6 2 q4 0 7 1.5t11 1.5q6 0 10.5 -1.5t8.5 -1.5q4 -2 6 -2v-34q0 -35 -10.5 -61.5t-20.5 -47.5q-14 -23 -31 -41z" />
<glyph unicode="&#x201e;" horiz-adv-x="468" d="M109 -131q14 16 24 39q10 16 17.5 39.5t7.5 48.5q-10 0 -15 2q-4 0 -6 2v41q2 0 6 2q4 0 7.5 1t11.5 1q6 0 10 -1t8 -1q4 -2 6 -2v-35q0 -35 -10 -61.5t-20 -46.5q-14 -23 -31 -41zM254 -131q14 16 25 39q10 16 17 39.5t7 48.5q-10 0 -14 2q-4 0 -6 2v41q2 0 6 2q4 0 7 1 t11 1q6 0 10.5 -1t8.5 -1q4 -2 6 -2v-35q0 -35 -10.5 -61.5t-20.5 -46.5q-14 -23 -31 -41z" />
<glyph unicode="&#x2022;" horiz-adv-x="552" d="M229 578q0 23 13.5 34t33.5 11q48 0 48 -45q0 -43 -48 -43q-20 0 -33.5 11t-13.5 32z" />
<glyph unicode="&#x2026;" horiz-adv-x="897" d="M156 2v41q2 2 8 4q8 4 20 4t21 -4l8 -4v-41l-8 -4q-8 -4 -21 -4q-12 0 -20 4q-6 2 -8 4zM422 2v41q2 2 8 4q8 4 21 4q12 0 20 -4l8 -4v-41l-8 -4q-8 -4 -20 -4t-21 4q-6 2 -8 4zM684 2v41q2 2 8 4q8 4 21 4q12 0 20 -4l8 -4v-41l-8 -4q-8 -4 -20 -4t-21 4q-6 2 -8 4z" />
<glyph unicode="&#x202f;" horiz-adv-x="381" />
<glyph unicode="&#x2039;" horiz-adv-x="696" d="M113 553q0 6 2 8q0 2 2 4l426 477q12 -2 18 -18l-416 -471l418 -471q-2 -16 -20 -21l-426 480q-2 0 -2 2q-2 2 -2 10z" />
<glyph unicode="&#x203a;" horiz-adv-x="696" d="M133 82l418 471l-416 471q6 16 19 18l426 -477q0 -2 2 -4q0 -2 1 -3t1 -5t-1 -6t-1 -4l-2 -2l-426 -480q-18 4 -21 21z" />
<glyph unicode="&#x205f;" horiz-adv-x="476" />
<glyph unicode="&#x20ac;" horiz-adv-x="1193" d="M129 508l6 31h156q-4 37 -4 73.5v71.5q0 78 6 156h-164l6 30h160q8 102 34.5 196.5t79 167.5t136.5 116t209 43q78 0 133 -10.5t90 -20.5q41 -12 70 -29q0 -18 -13 -24q-31 14 -71 26q-35 10 -86.5 18.5t-116.5 8.5q-121 0 -200 -40t-128 -107.5t-73.5 -156.5t-32.5 -188 h594q2 -14 -7 -30h-589q-2 -39 -3.5 -78t-1.5 -78v-74t5 -71h512q2 -12 -7 -31h-503q8 -98 30.5 -188.5t71.5 -159t130 -109.5t202 -41q72 0 125 8.5t92 18.5q43 12 78 29q8 -8 12 -23q-31 -18 -76 -33q-39 -12 -98 -21t-139 -9q-131 0 -216 45t-136.5 118.5t-76 169 t-32.5 195.5h-164z" />
<glyph unicode="&#x2122;" horiz-adv-x="1312" d="M98 1458v8t4 9h416q4 -4 4 -17q0 -8 -4 -14h-190v-553l-4 -4q-2 -2 -13 -2q-8 0 -10 2l-4 4v553h-195q-4 8 -4 14zM635 891v577q18 6 39 0l196 -399l209 399q18 8 37 0v-577q-2 -2 -4 -2q-2 -2 -10 -2q-10 0 -12 2q-2 0 -5 2v532l-196 -374l-4 -5q-2 -2 -15 -2 q-12 0 -14 2l-4 5l-188 374v-532q-2 -2 -5 -2q-2 -2 -10 -2t-10 2q-2 0 -4 2z" />
<glyph unicode="&#x25fc;" horiz-adv-x="1075" d="M0 0v1075h1075v-1075h-1075z" />
</font>
</defs>
</svg>
