<?xml version="1.0" standalone="no"?>
<!DOCTYPE svg PUBLIC "-//W3C//DTD SVG 1.1//EN" "http://www.w3.org/Graphics/SVG/1.1/DTD/svg11.dtd" >
<svg xmlns="http://www.w3.org/2000/svg">
<metadata></metadata>
<defs>
<font id="globerlight_italic" horiz-adv-x="1134" >
<font-face units-per-em="2048" ascent="1536" descent="-512" />
<missing-glyph horiz-adv-x="538" />
<glyph unicode="&#xfb01;" d="M94 6l213 1010h-131q-2 2 -2 6v9t4 16q2 14 8 24q2 4 4 6h132l26 123q16 80 46 142.5t79 105.5t124 65.5t179 22.5q68 0 128.5 -9t107.5 -20q53 -12 100 -26q0 -16 -9 -31.5t-22 -26.5q-41 14 -90 25q-41 10 -97 18.5t-120 8.5q-90 0 -151.5 -16.5t-103.5 -49.5 t-65.5 -82t-37.5 -117l-29 -133h649l-227 -1071q-2 -2 -8 -4t-27 -2q-20 0 -24 2t-7 4l213 1010h-583l-213 -1010q-2 -2 -8 -4t-27 -2q-20 0 -25 2q-4 2 -6 4z" />
<glyph unicode="&#xfb02;" horiz-adv-x="1138" d="M94 6l213 1010h-131q-2 2 -2 6v9t4 16q2 14 8 24q2 4 4 6h132l26 123q14 74 44 136.5t78 106.5t117.5 68.5t168.5 24.5q76 0 142.5 -11.5t115.5 -23.5q57 -16 104 -35l-309 -1460q-2 -2 -8 -4t-27 -2q-20 0 -24 2t-7 4l301 1419q-41 16 -116.5 33t-173.5 17 q-84 0 -142.5 -17.5t-97.5 -51.5t-62.5 -83t-35.5 -113l-29 -133h275q2 -2 2 -6v-10t-2 -14q-4 -8 -6.5 -13.5t-4.5 -9.5q-2 -6 -4 -8h-274l-213 -1010q-2 -2 -8 -4t-27 -2q-20 0 -25 2q-4 2 -6 4z" />
<glyph horiz-adv-x="2048" />
<glyph horiz-adv-x="2048" />
<glyph unicode="&#xd;" horiz-adv-x="659" />
<glyph unicode=" "  horiz-adv-x="538" />
<glyph unicode="&#x09;" horiz-adv-x="538" />
<glyph unicode="&#xa0;" horiz-adv-x="538" />
<glyph unicode="!" horiz-adv-x="487" d="M68 6l18 86q2 0 10 2q12 4 35 4q12 0 20.5 -1t14.5 -3t10 -2l-18 -86q-4 -2 -13 -4q-8 -2 -34 -2q-29 0 -35 2t-8 4zM152 313l235 1155q-2 0 2 2t11.5 3.5t23.5 1.5q29 0 33 -5q2 -2 0 -2l-256 -1155q-2 -2 -6 -4q-8 -4 -19 -4q-12 0 -20 4q-4 2 -4 4z" />
<glyph unicode="&#x22;" horiz-adv-x="595" d="M262 1077l68 391q4 0 10 2q12 4 27 5q10 0 15 -1t9 -4q4 -2 8 -2l-96 -391q-2 -2 -6 -2q-4 -2 -16 -2t-15 2q-2 0 -4 2zM475 1077l68 391q2 0 8 2q12 4 29 5q10 0 15 -1t9 -4q4 -2 8 -2l-96 -391q-2 -2 -6 -2q-4 -2 -16 -2t-15 2q-2 0 -4 2z" />
<glyph unicode="#" horiz-adv-x="1320" d="M29 303q-4 14 2 31q2 18 12 31h242l262 530h-219q-4 12 0 31q2 18 12 30h235l158 314q14 6 33 6q20 0 33 -6l-158 -314h365l157 314q14 6 33 6q20 0 33 -6l-158 -314h217q2 -12 0 -30q-2 -14 -12 -31h-234l-262 -530h211q2 -12 0 -31q-6 -16 -14 -31h-229l-144 -295 q-4 -2 -10 -4q-12 -4 -27 -4q-14 0 -22 4q-4 2 -6 4l143 295h-365l-143 -295q-4 -2 -10 -4q-12 -4 -27 -4q-14 0 -22 4q-4 2 -6 4l143 295h-223zM350 365h365l262 530h-365z" />
<glyph unicode="$" horiz-adv-x="1142" d="M16 72q2 14 11.5 30.5t21.5 24.5q49 -16 107 -29q49 -10 115.5 -18t140.5 -8q197 0 321.5 70.5t155.5 215.5q16 82 -7.5 133.5t-73.5 84t-118.5 53t-140.5 39t-139.5 42t-116.5 61.5t-71.5 96.5t-2.5 150.5q31 150 155 243t322 105l41 244q4 0 11 2q12 4 30 4t31 -4 q6 -2 8 -2l-63 -242q84 0 146.5 -7t105.5 -15q51 -10 86 -23q-2 -16 -9.5 -30.5t-21.5 -24.5q-39 10 -88 18q-41 6 -99 12.5t-126 6.5q-205 0 -317 -76t-140 -207q-16 -78 7.5 -128t73.5 -82t118.5 -52.5t141.5 -39t140.5 -42t115.5 -63.5t70.5 -100t2.5 -155 q-33 -156 -164 -250t-332 -104l-45 -264q-2 -2 -8 -4t-31 -2q-27 0 -33 2t-8 4l66 262q-92 0 -164 10.5t-123 22.5q-59 14 -103 35z" />
<glyph unicode="%" horiz-adv-x="1515" d="M186 -14l1106 1446q4 0 11 2q12 4 30 4q16 0 29 -4q6 -2 10 -2l-1106 -1446q-4 -2 -10 -4q-8 -2 -33 -2q-20 0 -26 2t-11 4zM205 1061q41 190 127 272t209 82q121 0 174 -81t12 -273q-41 -193 -129 -273.5t-209 -80.5q-123 0 -174 80.5t-10 273.5zM260 921.5 q2 -55.5 19.5 -89t49 -48t74.5 -14.5q86 0 150.5 62.5t99.5 228.5q18 82 16.5 137t-19 90t-49.5 50.5t-75 15.5q-86 0 -150.5 -64.5t-99.5 -228.5q-18 -84 -16 -139.5zM823 334q41 190 126 272t208 82q59 0 104.5 -19.5t70 -61.5t29.5 -109.5t-15 -163.5 q-41 -193 -129 -273.5t-209 -80.5q-123 0 -174.5 80.5t-10.5 273.5zM879 194.5q2 -55.5 18 -89t48 -48t75 -14.5q86 0 151.5 62.5t100.5 228.5q16 82 14 137t-19.5 90t-48 50.5t-73.5 15.5q-86 0 -151.5 -64.5t-98.5 -228.5q-18 -84 -16 -139.5z" />
<glyph unicode="&#x26;" horiz-adv-x="1284" d="M41 167.5q-18 65.5 2 158.5q18 86 66.5 154.5t106.5 118.5t118.5 84t101.5 52q-35 166 -4 318q35 166 136 263t259 97q68 0 114 -20.5t72.5 -54t35 -77.5t-1.5 -92q-16 -80 -61.5 -143t-114 -117.5t-158.5 -102.5t-199 -99q37 -129 115 -248t194 -219q86 80 143.5 167 t92.5 158q18 0 34.5 -8t22.5 -22q-31 -68 -92 -154t-160 -178q53 -41 113.5 -77t126.5 -67q-2 -18 -13.5 -34.5t-27.5 -26.5q-72 31 -135.5 69.5t-120.5 86.5q-10 -10 -48 -39t-97.5 -58.5t-139.5 -53t-174 -23.5q-74 0 -137.5 19t-107.5 61t-62 107.5zM119 330 q-29 -137 40 -213t210 -76q72 0 135 17.5t114.5 42t89 49t58.5 38.5q-119 104 -199 231.5t-116 260.5q-37 -16 -88.5 -46t-100.5 -74t-89 -101.5t-54 -128.5zM502 764q96 45 176 88t141.5 89t100 98.5t53.5 117.5q18 90 -25 142.5t-143 52.5q-111 0 -190.5 -75t-110.5 -218 q-33 -152 -2 -295z" />
<glyph unicode="'" horiz-adv-x="382" d="M262 1077l68 391q2 0 8 2q12 4 29 5q10 0 15 -1t9 -4q4 -2 8 -2l-96 -391q-2 -2 -6 -2q-4 -2 -16 -2t-15 2q-2 0 -4 2z" />
<glyph unicode="(" horiz-adv-x="573" d="M104 245.5q-10 184.5 37 409.5q25 111 60 214.5t75.5 195.5t87 172t89.5 145q102 156 217 279h8q6 0 18 -8q4 -4 8.5 -7.5t6.5 -7.5t2 -8q-106 -117 -205 -266q-84 -129 -167 -307t-130 -402q-47 -223 -39 -401t37 -307q33 -150 90 -266q-2 -4 -6 -9q-10 -10 -21 -14 q-14 -8 -20 -8h-8q-61 123 -99 278q-31 133 -41 317.5z" />
<glyph unicode=")" horiz-adv-x="571" d="M-127 -319q106 117 205 266q41 63 84 140t82 166t72.5 190t58.5 212q23 111 31 211.5t7 189.5t-11.5 166.5t-24.5 141.5q-33 150 -90 266q2 4 6 8t7 7.5t11 7.5t13.5 6t9.5 2h8q61 -123 98 -279q31 -133 41.5 -318t-37.5 -409q-25 -113 -59.5 -215t-76.5 -194t-87 -172 t-88 -146q-102 -156 -217 -278h-8q-12 0 -21 8q-8 4 -12 14q-2 4 -2 9z" />
<glyph unicode="*" horiz-adv-x="724" d="M274 1262q6 29 27 49l166 -58l39 183q2 0 6 2q4 0 8 1t12 1q6 0 10.5 -1t8.5 -1q4 -2 6 -2l-39 -183l191 58q12 -16 6 -49l-193 -58l82 -157q-10 -8 -22.5 -16.5t-24.5 -12.5l-82 153l-145 -155q-10 4 -20.5 12t-16.5 16l147 160z" />
<glyph unicode="+" horiz-adv-x="942" d="M115 569v9.5t4 15.5q2 14 8 24q2 4 4 7h307l66 307q2 0 6 2q8 4 25 4q16 0 24 -4q4 -2 6 -2l-65 -307h307q2 -2 2 -7v-10t-2 -14q-4 -10 -6 -15.5t-4 -9.5t-4 -6h-308l-63 -307q-2 -2 -8 -4t-25 -2q-18 0 -22 2t-7 4l64 307h-307q-2 2 -2 6z" />
<glyph unicode="," horiz-adv-x="417" d="M-35 -168q20 18 39 43q16 23 32.5 53.5t31.5 71.5q-20 0 -27 2q-6 2 -8 4l18 86q4 0 12 2q16 4 37 4q20 0 37 -4q8 -2 13 -2l-15 -65q-12 -53 -35.5 -94.5t-48.5 -69.5q-29 -33 -59 -56z" />
<glyph unicode="-" horiz-adv-x="727" d="M160 569v9.5t4 15.5q2 14 8 24q2 4 4 7h369q2 -2 2 -7v-10t-2 -14q-4 -10 -6 -15.5t-4 -9.5t-5 -6h-368q-2 2 -2 6z" />
<glyph unicode="." horiz-adv-x="399" d="M29 6l18 86q4 0 12 2q16 4 37 4q20 0 37 -4q8 -2 12 -2l-18 -86q-6 -2 -14 -4t-37 -2t-37 2t-10 4z" />
<glyph unicode="/" horiz-adv-x="872" d="M-98 -90l1038 1620q2 0 8 2q12 4 29 4q16 0 29 -4q6 -2 8 -2l-1039 -1620q-4 -2 -12 -4t-31 -2q-20 0 -24 2t-6 4z" />
<glyph unicode="0" horiz-adv-x="1269" d="M135 369.5q-4 136.5 33 326.5q76 377 231.5 547t388.5 170q117 0 199 -40t127 -127t49 -223t-33 -327q-37 -190 -95 -326.5t-137 -223.5t-176 -126.5t-214 -39.5t-199 39.5t-126 126.5t-48 223.5zM234.5 198.5q66.5 -157.5 273.5 -157.5q211 0 345 157.5t206 497.5t5 498 t-278 158q-207 0 -341 -158t-205 -498q-72 -340 -5.5 -497.5z" />
<glyph unicode="1" horiz-adv-x="788" d="M166 1061q135 35 264 118t229 207q2 0 7 3q8 4 24 4t25 -4l6 -3l-293 -1380q-2 -2 -8 -4t-29 -2q-20 0 -24 2t-7 4l207 981q23 96 40.5 169t29.5 120q-94 -109 -218 -176.5t-247 -98.5q-20 21 -6 60z" />
<glyph unicode="2" horiz-adv-x="1071" d="M4 0q0 18 2 41q2 18 5 43t9 53q25 119 77.5 198t121 134t148 96t159.5 86q82 45 155 86t131 87t98 103.5t57 137.5q10 47 9 97t-28.5 92t-88 70t-167.5 28q-68 0 -132 -10.5t-114 -22.5q-57 -15 -108 -33q-23 20 -8 62q47 18 108 32q53 12 124 22.5t157 10.5 q82 0 148.5 -20.5t109.5 -63.5t59.5 -111.5t-4.5 -162.5q-18 -86 -57 -148.5t-99.5 -114t-142.5 -98.5t-184 -102q-61 -35 -133 -70t-137.5 -84t-116.5 -118.5t-72 -169.5q-4 -20 -6 -36t-4 -26q-2 -12 -2 -22h723q2 -4 2 -9q0 -4 -1 -9l-3 -15q-2 -16 -8 -27q-2 -6 -5 -6 h-782z" />
<glyph unicode="3" horiz-adv-x="1042" d="M-12 45q2 12 11 28.5t19 22.5q41 -14 112 -33.5t181 -19.5q111 0 192 24.5t136 67.5t87 101.5t46 123.5q23 106 0.5 173t-73 104t-118 50t-132.5 13h-93q-2 2 -2 7v9t2 15q2 14 9 25q2 4 4 6h92q57 0 122.5 10t126 43t106.5 93.5t69 160.5q29 129 -40 207t-239 78 q-66 0 -121 -8.5t-96 -18.5q-49 -12 -90 -27q-10 6 -14 23.5t0 32.5q47 16 100 28q47 10 108.5 19.5t133.5 9.5q100 0 168.5 -28.5t108.5 -75.5t50.5 -111.5t-4.5 -134.5q-27 -127 -96.5 -211t-208.5 -125q137 -41 178.5 -141.5t14.5 -237.5q-12 -70 -50 -135.5 t-102.5 -117.5t-159 -83.5t-223.5 -31.5q-76 0 -133 10t-98 22q-47 14 -84 33z" />
<glyph unicode="4" horiz-adv-x="1163" d="M33 385v9t2 16q2 8 5 14l5 10t4 6l897 946q2 0 8 3q12 4 29 4q10 0 15.5 -1t9.5 -3t8 -3l-201 -950h219q2 -2 2 -6t-4 -20q-4 -10 -6 -15.5t-4 -9.5t-2 -6h-219l-78 -373q-4 -2 -10 -4t-27 -2q-20 0 -24 2t-7 4l78 373h-698q-2 2 -2 6zM125 436h623l180 846z" />
<glyph unicode="5" horiz-adv-x="1062" d="M-2 31q0 14 9 31.5t22 25.5q35 -14 75 -22q35 -10 84.5 -16.5t108.5 -6.5q223 0 346 79t160 251q14 70 10 132t-41 109.5t-110.5 75t-198.5 27.5q-47 0 -91 -4t-79 -8q-41 -6 -76 -11l148 699h665q2 -2 2 -9q0 -14 -2 -24t-4 -15.5t-4 -9.5q-2 -6 -4 -8h-598l-121 -561 q25 2 55 6q27 4 62 6t76 2q123 0 205.5 -29.5t128.5 -85t56.5 -134t-10.5 -175.5q-41 -188 -179 -282t-398 -94q-80 0 -136.5 7t-90.5 17q-41 10 -70 27z" />
<glyph unicode="6" horiz-adv-x="1132" d="M107.5 279.5q-11.5 103.5 19.5 246.5q45 215 131 373t204 264.5t260 162.5t302 67q6 -10 4 -29l-12 -29q-127 -12 -239.5 -51t-209 -109.5t-174.5 -177t-133 -254.5q29 16 69 35t89 35t106.5 27.5t120.5 11.5q86 0 155.5 -28.5t113.5 -87t58.5 -145.5t-9.5 -204 q-23 -106 -71 -183t-115.5 -127t-151.5 -73.5t-179 -23.5q-92 0 -165.5 31.5t-117.5 98t-55.5 170zM177 303q7 -90 43 -148.5t95.5 -86t137.5 -27.5t148.5 21.5t127.5 65.5t99.5 111.5t62.5 161.5q41 193 -35 289t-227 96q-68 0 -130.5 -14t-114.5 -34.5t-91 -42t-60 -33.5 q-10 -35 -19 -71t-17 -73q-27 -125 -20 -215z" />
<glyph unicode="7" horiz-adv-x="1001" d="M178 6q39 182 104.5 318.5t144.5 244t165 194.5t162.5 173t138 179t94.5 212h-764q-2 2 -2 8v9.5t2 15.5q2 8 4 14t4 10q2 6 5 9h827q6 0 -2 -41q-27 -131 -87.5 -231.5t-138 -189.5t-164.5 -177t-168 -193.5t-148.5 -240t-106.5 -314.5q-2 -2 -8 -4t-27 -2q-20 0 -27 2 q-6 2 -8 4z" />
<glyph unicode="8" horiz-adv-x="1185" d="M76 322q20 92 70.5 165.5t109.5 129t117.5 92t95.5 55.5q-47 25 -86 56.5t-63.5 72.5t-32.5 92t4 117q33 147 153.5 229t311.5 82q186 0 274 -88t57 -233q-16 -80 -56 -143.5t-89 -112t-98 -80t-86 -49.5q55 -27 103 -61t81 -80t44 -106.5t-5 -137.5 q-33 -156 -161.5 -249t-364.5 -93q-111 0 -189 26.5t-125 72.5t-63.5 108.5t-1.5 134.5zM143.5 216.5q10.5 -52.5 48 -90.5t105.5 -60.5t166 -22.5t175 21.5t133 60.5t91 91t49 112q20 92 -7 153.5t-85.5 105.5t-134.5 77.5t-149 68.5q-18 -10 -73.5 -40.5t-118 -81 t-119 -122t-77.5 -159.5q-14 -61 -3.5 -113.5zM358 1098q-18 -80 6.5 -135.5t73.5 -96.5t117 -71.5t137 -61.5q35 18 84 48t97.5 74t87 102.5t55.5 129.5q29 125 -44.5 194t-223.5 69q-158 0 -259.5 -69t-130.5 -183z" />
<glyph unicode="9" horiz-adv-x="1128" d="M131 29q2 8 5 18t7 16q125 12 240 50.5t212 109t175 177t131 253.5q-41 -25 -80 -45t-83 -35.5t-94 -23.5t-114 -8q-86 0 -158.5 26.5t-119.5 80.5t-63.5 139t8.5 202q47 213 187 318.5t329 105.5q92 0 165.5 -33.5t117.5 -102.5t55.5 -171t-19.5 -240 q-49 -215 -134 -373.5t-199.5 -265t-258 -163t-307.5 -64.5q-6 11 -2 29zM257 811q11 -70 46 -116t93.5 -68.5t133.5 -22.5q133 0 229.5 42t166.5 85q10 35 18 70t19 73q27 125 18.5 215.5t-44.5 148.5t-95.5 86t-136.5 28q-156 0 -277 -93.5t-162 -281.5q-20 -96 -9 -166z " />
<glyph unicode=":" horiz-adv-x="446" d="M43 6l18 86q4 0 13 2q16 4 37 4q20 0 36 -4q8 -2 13 -2l-19 -86q-6 -2 -14 -4t-37 -2t-37 2t-10 4zM215 815l16 86q4 0 13 2q16 4 39 4q12 0 20 -1t14 -3q8 -2 13 -2l-17 -86q-6 -2 -14 -4t-37 -2t-37 2t-10 4z" />
<glyph unicode=";" horiz-adv-x="483" d="M0 -168q20 18 39 43q16 23 32.5 53.5t30.5 71.5q-20 0 -26 2t-8 4l18 86q4 0 12 2q16 4 37 4q20 0 37 -4q8 -2 12 -2l-14 -65q-12 -53 -35.5 -94.5t-48.5 -69.5q-29 -33 -59 -56zM240 815l16 86q4 0 12 2q16 4 39 4q12 0 20.5 -1t14.5 -3q8 -2 12 -2l-16 -86 q-6 -2 -14 -4t-37 -2t-37 2t-10 4z" />
<glyph unicode="&#x3c;" horiz-adv-x="968" d="M113 549v12v14.5t4 18.5q4 20 8 31q2 8 6 12l721 303q2 -4 2 -8t-1 -9t-3 -16q-2 -10 -4 -16t-4 -10q-2 -6 -4 -9l-666 -280l547 -275q2 -4 2 -10q0 -4 -1 -10t-3 -16t-4 -16.5t-4 -10.5q-4 -6 -7 -8z" />
<glyph unicode="=" horiz-adv-x="1050" d="M136 408.5q-1 5.5 3 15.5q2 14 8 25q2 4 5 6h671q2 -2 2 -6v-10.5t-2 -14.5q-2 -10 -4 -15.5t-4 -9.5t-4 -6h-672q-2 2 -2 6t-1 9.5zM209 739v9.5t2 15.5q2 14 8 24q2 4 4 7h672q2 -2 2 -7v-10t-2 -14q-2 -10 -4 -15.5t-4 -9.5t-4 -6h-672q-2 2 -2 6z" />
<glyph unicode="&#x3e;" horiz-adv-x="962" d="M96 246v8v10t2 17q2 10 5 16t6 10q2 6 4 10l661 275l-543 280q-2 2 -2 9v10t2 16t5.5 15.5t5.5 9.5l4 8l590 -303v-12v-13.5t-2 -17.5q-4 -10 -5.5 -18.5t-5.5 -14.5l-6 -12z" />
<glyph unicode="?" horiz-adv-x="866" d="M156 6l18 86q4 0 12 2q16 4 37 4q20 0 37 -4q8 -2 12 -2l-18 -86q-6 -2 -14 -4t-37 -2t-37 2t-10 4zM232.5 1320.5q-3.5 14.5 0.5 29.5q41 16 93 30q43 12 102 22.5t131 10.5q98 0 161.5 -26.5t98.5 -70.5t42 -101.5t-5 -118.5q-23 -102 -65.5 -170t-97 -119t-115 -94 t-115.5 -96.5t-99.5 -125t-66.5 -178.5l-8 -4q-12 -4 -23 -4q-12 0 -20 4l-8 4q25 119 69.5 197t99 133t113 97t110.5 89.5t92 107.5t60 155q10 51 5 98t-32.5 82t-79.5 56.5t-136 21.5q-66 0 -119 -8.5t-92 -18.5q-45 -10 -82 -25q-10 8 -13.5 22.5z" />
<glyph unicode="@" horiz-adv-x="1871" d="M114.5 216q-28.5 153 14.5 355q39 188 131 340t221 259.5t287 165t330 57.5q190 0 324 -57.5t213 -160t100.5 -244.5t-15.5 -310q-43 -205 -153.5 -326t-276.5 -121q-72 0 -118 36t-50 118q-47 -66 -119.5 -110t-177.5 -44q-66 0 -121 20.5t-90.5 66.5t-46 122t14.5 186 q25 113 66.5 189t97 122t119 66.5t128.5 20.5q98 0 150.5 -37t75.5 -94l26 125q4 0 8 2q8 4 21 4q10 0 22 -4q6 -2 11 -2l-109 -510q-27 -121 4 -172.5t105 -51.5q51 0 104 21.5t100.5 69t86 122t61.5 181.5q35 162 14.5 295t-94.5 227t-196.5 145t-295.5 51 q-158 0 -303 -53t-265 -153.5t-206 -241.5t-123 -320q-41 -195 -13 -337t105.5 -234t198.5 -136t264 -44q178 0 336 53t281 125q29 -10 20 -43q-156 -100 -322.5 -146.5t-340.5 -46.5q-156 0 -283 50.5t-210 150.5t-111.5 253zM635.5 402.5q9.5 -66.5 38 -105.5t75 -54.5 t99.5 -15.5q57 0 105 20.5t86 54.5t63.5 77t36.5 88l43 199q10 45 4 90t-29.5 79.5t-64.5 56t-99 21.5q-53 0 -105 -14t-97.5 -52t-82 -105t-59.5 -173q-23 -100 -13.5 -166.5z" />
<glyph unicode="A" horiz-adv-x="1298" d="M-90 6l889 1462q2 0 8 2q8 4 22 5q12 0 21 -5q4 -2 6 -2l270 -1462q-4 -2 -10 -4t-29 -2q-16 0 -22 2t-8 4l-82 440h-723l-268 -440q-4 -2 -13 -4q-8 -2 -30 -2q-20 0 -25 2q-4 2 -6 4zM291 512h672l-142 780q-4 18 -6 32.5t-2 25.5v20h-4l-10 -20q-6 -10 -14.5 -24.5 t-18.5 -33.5z" />
<glyph unicode="B" horiz-adv-x="1286" d="M88 0l313 1475h476q199 1 277 -105q52 -69 52 -174q0 -55 -14 -119q-23 -98 -62.5 -161.5t-82.5 -100.5t-79 -52t-48 -18q2 0 37.5 -14t73.5 -54q39 -39 61 -111q11 -35 11 -81q0 -49 -13 -110q-18 -86 -53.5 -155.5t-95.5 -119t-150.5 -75t-219.5 -25.5h-483zM172 66 h412q102 0 177 21.5t126 63.5t81.5 101t47.5 135q12 56 12 102q0 92 -47 144q-70 78 -262 78h-410zM324 776h395q92 0 161.5 23.5t118 65.5t78 100.5t41.5 128.5q9 49 9 91q-1 91 -43 145q-62 80 -238 79h-389z" />
<glyph unicode="C" horiz-adv-x="1132" d="M176 750q82 377 253 561t443 184q84 0 144.5 -10t101.5 -23q47 -14 80 -32v-11q-4 -12 -10 -20q-4 -8 -8 -11.5t-9 -7.5q-4 -4 -8 -6q-33 16 -76 29q-37 10 -92 19.5t-125 9.5q-106 0 -200.5 -34t-174 -114t-142 -214t-105.5 -335q-38 -176 -38 -300q0 -17 1 -34 q6 -133 51 -211.5t125 -111.5t188 -33q76 0 138.5 9t107.5 20q53 12 94 28q2 0 7 -4l4 -8t4 -10q2 -8 1 -13.5t-1 -9.5q-2 -6 -2 -10q-43 -20 -99 -35q-47 -12 -116.5 -22t-161.5 -10q-413 0 -413 454q0 138 38 316z" />
<glyph unicode="D" horiz-adv-x="1349" d="M88 0l313 1475h375q147 0 252 -35t163 -120q57 -84 65 -226q1 -20 2 -42q0 -130 -39 -315q-45 -215 -110 -356t-154 -226t-204.5 -120t-263.5 -35h-399zM172 68h309q129 0 232.5 29.5t185.5 104t142.5 205t103.5 330.5q38 176 38 298q0 17 -1 33q-6 130 -55.5 206 t-140.5 105.5t-220 29.5h-309z" />
<glyph unicode="E" horiz-adv-x="1136" d="M88 0l313 1475h789q1 -6 1 -14.5t-1 -18.5q-6 -23 -14 -33h-719l-133 -629h616q2 -12 0 -30q-6 -20 -14 -33h-617l-137 -651h739q2 -14 0 -31q-6 -20 -14 -35h-809z" />
<glyph unicode="F" horiz-adv-x="1099" d="M90 6l311 1469h789q2 -2 2 -9q0 -14 -2 -24q-4 -10 -6 -15.5t-4 -9.5q-2 -6 -4 -8h-719l-138 -645h623q2 -2 2 -8q0 -14 -2 -25q-2 -8 -4 -14t-4 -10l-6 -9h-623l-145 -692q-4 -2 -10 -4t-27 -2q-23 0 -27 2q-6 2 -6 4z" />
<glyph unicode="G" horiz-adv-x="1267" d="M142 402q-1 27 -1 56q0 123 33 279q82 381 260 569.5t449 188.5q92 0 160.5 -10t115.5 -23q53 -14 92 -32v-11q-4 -12 -10 -20q-4 -8 -8 -11.5t-8 -7.5t-8 -4q-41 14 -93 27q-43 10 -102 19.5t-129 9.5q-104 0 -202.5 -34t-182.5 -114t-150.5 -214t-109.5 -335 q-35 -163 -35 -281q0 -28 2 -53q10 -133 59.5 -211.5t133.5 -111.5t190 -33q104 0 188 14.5t134 24.5l131 616h-396q-2 2 -2 9q0 14 2 24t4.5 15.5t4.5 9.5l4 8h465l-152 -721q-47 -18 -107 -33q-53 -12 -124.5 -22t-163.5 -10q-133 0 -229.5 46t-150.5 140t-64 236z" />
<glyph unicode="H" horiz-adv-x="1384" d="M90 6l309 1462q4 0 11 2q12 4 26 5q12 0 25 -5q6 -2 8 -2l-143 -680h802l144 680q4 0 10 2q12 4 27 5q12 0 24 -5q6 -2 8 -2l-309 -1462q-4 -2 -10 -4t-27 -2q-23 0 -26 2q-4 2 -6 4l151 717h-803l-151 -717q-4 -2 -10 -4t-27 -2q-23 0 -27 2t-6 4z" />
<glyph unicode="I" horiz-adv-x="512" d="M90 6l309 1462q2 0 9 2q12 4 28 5q10 0 15.5 -1t9.5 -4q4 -2 8 -2l-309 -1462q-4 -2 -10 -4t-27 -2q-23 0 -27 2q-6 2 -6 4z" />
<glyph unicode="J" horiz-adv-x="862" d="M-61 41q6 39 34 57q35 -16 72 -26q33 -10 76 -18.5t94 -8.5q111 0 187.5 58.5t111.5 211.5l244 1153q2 0 8 2q12 4 29 5q12 0 24 -5q6 -2 8 -2l-243 -1153q-37 -174 -127 -254.5t-256 -80.5q-57 0 -105.5 9t-83.5 21q-41 12 -73 31z" />
<glyph unicode="K" horiz-adv-x="1239" d="M90 6l309 1462q4 0 11 2q12 4 26 5q12 0 25 -5q6 -2 8 -2l-141 -669h293l610 669q2 0 10 2q6 2 14.5 3.5t20.5 1.5q14 0 27 -5q6 -2 10 -2l-639 -708l387 -754q-4 -2 -10 -4q-4 -2 -12.5 -2h-18.5q-23 0 -29 2t-10 4l-371 727h-297l-153 -727q-4 -2 -10 -4t-27 -2 q-18 0 -25 2q-6 2 -8 4z" />
<glyph unicode="L" horiz-adv-x="1019" d="M88 0l311 1468q4 0 11 2q12 4 26 5q10 0 15.5 -1t9.5 -4q4 -2 8 -2l-297 -1402h678v-9q0 -14 -2 -24q-2 -8 -4 -14.5t-4 -10.5q-2 -6 -4 -8h-748z" />
<glyph unicode="M" horiz-adv-x="1732" d="M90 6l309 1462q4 0 13 2q16 4 34 5q18 0 31 -5q6 -2 8 -2l297 -856q10 -27 15.5 -46t9.5 -34q4 -16 8 -28h4q8 10 21 26q10 14 26.5 34t38.5 48l684 856q4 0 13 2q16 4 43 5q12 0 20 -1t14 -4q6 -2 11 -2l-310 -1462q-4 -2 -10 -4t-27 -2q-23 0 -26 2q-6 2 -6 4l250 1180 q10 53 20 91t18 66q8 31 17 56h-4q-10 -16 -27 -39q-14 -18 -33.5 -44t-46.5 -59l-663 -833q-4 -2 -11 -4q-6 -2 -24 -2q-16 0 -23 2q-6 2 -8 4l-291 833q-10 29 -18 55.5t-12 45.5l-11 41h-4q-2 -25 -6 -60q-4 -29 -11 -72.5t-20 -101.5l-245 -1159q-2 -2 -8 -4t-27 -2 q-23 0 -27 2q-6 2 -6 4z" />
<glyph unicode="N" horiz-adv-x="1421" d="M90 6l309 1462q4 0 13 2q6 2 13 3.5t17 1.5q12 0 25 -5q6 -2 8 -2l483 -1187q16 -37 27.5 -71t20.5 -58q8 -31 16 -56h4q4 31 10 68q4 33 12.5 78t20.5 100l242 1126q2 0 8 2q12 4 29 5q16 0 24 -5q4 -2 6 -2l-309 -1462q-4 -2 -10 -4q-4 -2 -12.5 -2h-18.5q-18 0 -24 2 t-9 4l-487 1204q-16 41 -28.5 73t-18.5 54q-8 25 -12 45h-5q-4 -25 -10 -61q-6 -33 -14 -83t-25 -122l-237 -1110q-4 -2 -11 -4q-6 -2 -26 -2t-25 2q-4 2 -6 4z" />
<glyph unicode="O" horiz-adv-x="1386" d="M142 396l-2 50q0 127 34 291q41 199 107.5 342.5t155.5 235.5t198.5 136t236.5 44t219.5 -44t143.5 -136q51 -91 58 -235q1 -21 1 -44q0 -129 -34 -299q-82 -397 -262.5 -577t-434.5 -180q-127 0 -219 44t-143 136t-59 236zM211 417q4 -132 48 -216t123 -122t187 -38 q104 0 198.5 38t173.5 122t141.5 216t103.5 320q39 172 39 298v23q-4 132 -46 216t-121.5 122t-185.5 38q-111 0 -206 -38t-173.5 -122t-140 -216t-104.5 -321q-37 -171 -37 -296v-24z" />
<glyph unicode="P" horiz-adv-x="1224" d="M90 6l311 1469h488q94 0 162.5 -31t109.5 -86t53 -133q4 -28 3 -57q0 -54 -13 -115q-20 -94 -61 -171t-102.5 -132.5t-140.5 -86t-173 -30.5h-434l-133 -627q-4 -2 -10 -4t-27 -2q-23 0 -27 2q-6 2 -6 4zM305 698h428q154 0 258.5 94.5t138.5 258.5q12 60 12 110 q0 92 -40 153q-64 95 -217 95h-428z" />
<glyph unicode="Q" horiz-adv-x="1386" d="M142 396q-2 24 -2 50q0 127 34 291q41 199 107.5 342.5t155.5 235.5t198.5 136t236.5 44t219.5 -44t143.5 -136t58 -235q1 -22 1 -44q0 -130 -34 -299q-51 -248 -138.5 -407.5t-210.5 -245.5q45 -59 107.5 -95t118.5 -50q-14 -41 -58 -62q-63 16 -126.5 62.5 t-102.5 107.5q-127 -67 -282 -67h-5q-127 0 -219 44t-143 136t-59 236zM211 417q4 -132 48 -216t123 -122t187 -38q104 0 198.5 38t173.5 122t141.5 216t103.5 320q39 172 39 298v23q-4 132 -46 216t-121 122t-186 38q-111 0 -206 -38t-173.5 -122t-140 -216.5 t-104.5 -320.5q-37 -171 -37 -296v-24z" />
<glyph unicode="R" horiz-adv-x="1261" d="M90 6l311 1469h478q94 0 162.5 -30t108.5 -84t51 -130q4 -29 4 -60q0 -50 -11 -106q-35 -160 -132 -262.5t-251 -126.5l211 -670l-12 -4q-8 -2 -29 -2q-23 0 -29 2t-10 4l-205 662h-438l-139 -662q-4 -2 -10 -4t-27 -2q-23 0 -27 2q-6 2 -6 4zM313 733h418q147 0 253 89 t140 249q12 54 12 100q0 90 -46 149q-68 89 -216 89h-417z" />
<glyph unicode="S" horiz-adv-x="1146" d="M20 55q2 16 10.5 31.5t22.5 26.5q49 -18 107 -33q49 -12 114.5 -22.5t139.5 -10.5q197 0 323.5 83t161.5 243q9 43 9 78t-9 63q-18 55 -60 91t-103.5 58.5t-129.5 41.5q-78 23 -151.5 49t-127 71t-77.5 115q-13 36 -13 82q0 43 11 96q37 180 176 278.5t362 98.5 q84 0 149.5 -7t113.5 -18q53 -10 96 -24q-6 -39 -33 -57q-43 12 -96 20q-45 8 -105.5 15.5t-128.5 7.5q-205 0 -321.5 -87.5t-145.5 -234.5q-9 -46 -9 -83q0 -35 8 -63q18 -56 62 -93t109.5 -61t143.5 -44q74 -20 144.5 -47t120.5 -72t72 -115q11 -35 12 -79q0 -44 -11 -97 q-41 -186 -186.5 -281t-370.5 -95q-92 0 -165 11t-122 25q-59 16 -103 39z" />
<glyph unicode="T" horiz-adv-x="1073" d="M233 1411v8q0 14 3 25q2 8 4 13t4 9l4 9h936q2 -2 2 -7v-10t-2 -14t-4 -14.5t-4 -10.5q-4 -6 -7 -8h-428l-297 -1405q-4 -2 -10 -4t-26 -2q-23 0 -27 2q-6 2 -6 4l297 1405h-439z" />
<glyph unicode="U" horiz-adv-x="1361" d="M167 252q-7 36 -7 78q0 58 14 125l215 1013q4 0 10 2q12 4 27 5q10 0 15 -1t10 -4q4 -2 8 -2l-217 -1022q-13 -64 -13 -118q0 -111 56 -182q84 -105 276 -105q190 0 318.5 105.5t169.5 299.5l217 1022q4 0 10 2q12 4 24 5q12 0 25 -5q6 -2 8 -2l-215 -1013 q-49 -229 -197.5 -352t-361.5 -123q-106 0 -188 31.5t-134.5 92t-69.5 148.5z" />
<glyph unicode="V" horiz-adv-x="1232" d="M231 1468q2 0 9 2q12 4 28 5q14 0 23 -5q4 -2 6 -2l192 -1249q4 -27 5.5 -46t3.5 -36q2 -18 2 -33h4q6 12 14 31q12 31 41 82l723 1251q4 0 12 2q6 2 13.5 3.5t17.5 1.5q18 0 27 -5q4 -2 6 -2l-844 -1462l-8 -4q-6 -2 -23 -2q-16 0 -20 2t-6 4z" />
<glyph unicode="W" horiz-adv-x="1925" d="M240 1468q2 0 8 2q12 4 28 5q14 0 27 -5q6 -2 8 -2l109 -1175q6 -86 6 -137v-52h4q8 23 19 52q10 25 24 59.5t37 77.5l610 1175q2 0 6 2q8 4 25 5q14 0 23 -5l4 -2l104 -1175q4 -43 5 -78t-1 -59q-2 -29 -4 -52h4q6 23 19 52q10 25 25.5 59.5t37.5 77.5l590 1175q2 0 8 2 q12 4 33 5q16 0 24 -5q4 -2 7 -2l-734 -1462l-8 -4q-6 -2 -22 -2t-21 2q-4 2 -6 4l-106 1182q-4 45 -4.5 76.5t-0.5 54.5q0 25 2 41h-4q-6 -16 -14 -41q-14 -39 -61 -131l-617 -1182q-2 -2 -8 -4t-23 -2q-16 0 -20 2t-6 4z" />
<glyph unicode="X" horiz-adv-x="1202" d="M-57 6l628 748l-309 714q4 0 12 2q6 2 14.5 3.5t20.5 1.5t25 -5q6 -2 8 -2l287 -665l575 665q4 0 13 2q16 4 38 5q18 0 31 -5q6 -2 10 -2l-620 -712l328 -750q-4 -2 -13 -4q-8 -2 -33 -2q-23 0 -28 2q-6 2 -8 4l-306 699l-583 -699q-8 -2 -17 -4q-10 -2 -36 -2 q-23 0 -29 2t-8 4z" />
<glyph unicode="Y" horiz-adv-x="1241" d="M227 1468q4 0 13 2q16 4 32 5q12 0 25 -5q6 -2 8 -2l324 -768l663 768q4 0 13 2q16 4 34 5q20 0 33 -5q6 -2 8 -2l-727 -843l-131 -619q-4 -2 -10 -4t-27 -2q-18 0 -24 2t-8 4l131 617z" />
<glyph unicode="Z" horiz-adv-x="1167" d="M-45 8v9.5t2 15.5q4 18 8 24q2 6 6 9l1159 1343h-819q-2 2 -2 8v9.5t4 15.5q2 8 4 14t5 10q2 6 4 9h899q2 -2 2 -9q0 -14 -2 -24q-4 -8 -6 -14.5t-5 -10.5q-2 -6 -4 -8l-1163 -1343h905q2 -2 2 -9q0 -4 -4 -24q-2 -10 -4 -15.5t-4 -9.5q-2 -6 -4 -8h-981q-2 2 -2 8z" />
<glyph unicode="[" horiz-adv-x="636" d="M12 -348l426 2007h334q2 -2 2 -8v-10.5t-2 -16.5q-4 -10 -6 -16t-4 -11q-2 -6 -4 -8h-264l-398 -1868h264q2 -2 2 -8q0 -14 -2 -24q-4 -10 -6 -17.5t-4 -11.5q-2 -6 -4 -8h-334z" />
<glyph unicode="\" horiz-adv-x="862" d="M248 1528q0 2 4 4q8 4 24 4q18 0 27 -4q4 -2 6 -4l346 -1616q-2 -2 -6 -4q-8 -4 -26 -4q-16 0 -25 4q-4 2 -4 4z" />
<glyph unicode="]" horiz-adv-x="634" d="M-127 -329q0 7 4 18q2 8 4 14t4 10q2 6 4 8h265l397 1868h-264q-2 2 -2 8v10.5t4 16.5q2 10 4 16.5t4 10.5q2 6 4 8h334l-426 -2007h-334q-2 2 -2 8v11z" />
<glyph unicode="^" horiz-adv-x="1046" d="M195 932l473 536q2 0 8 2q12 4 33 5q18 0 30 -5l6 -2l248 -536q-2 -2 -8 -4t-33 -2q-25 0 -30 2q-6 2 -9 4l-219 481l-424 -481q-2 -2 -8 -4t-31 -2t-30 2q-6 2 -6 4z" />
<glyph unicode="_" horiz-adv-x="1048" d="M-34 -84q-1 4 3 14q2 8 4 13.5t4 9.5t5 6h819q2 -2 2 -6v-9t-2 -14q-6 -18 -8 -22t-5 -6h-819q-2 2 -2 6t-1 8z" />
<glyph unicode="`" horiz-adv-x="487" d="M131 1618q12 14 31.5 24.5t40.5 10.5l176 -307q-18 -27 -55 -29z" />
<glyph unicode="a" d="M92 274q-1 16 -1 34q0 97 28 231q33 156 84 263t116.5 172.5t146.5 94.5t175 29q121 0 199 -56.5t100 -148.5l45 178l4 2q8 4 25 4q14 0 22 -4q4 -2 6 -2l-225 -1065l-8 -4q-4 -2 -21 -2q-14 0 -18 2t-6 4l27 178q-66 -96 -160 -150t-228 -54q-90 0 -157.5 28.5 t-107.5 94t-46 171.5zM186 159q56 -118 238 -118q82 0 150.5 34t121 87t88 118.5t50.5 129.5l59 258q10 44 10 89q0 19 -2 39q-6 66 -35.5 119.5t-83 87t-129.5 33.5q-188 0 -296.5 -117.5t-168.5 -379.5q-30 -134 -30 -230q0 -92 28 -150z" />
<glyph unicode="b" d="M57 6l324 1524l6 2q8 4 27 4q10 0 15 -1t9 -3t8 -2l-135 -631q66 92 154 145.5t221 53.5q88 0 157.5 -29t111.5 -95q43 -64 51 -172q2 -22 2 -47q0 -93 -27 -216q-33 -158 -83 -264.5t-114.5 -172t-143.5 -94t-171 -28.5q-129 0 -205 57t-104 156l-37 -187q-2 -2 -8 -4 t-27 -2q-20 0 -25 2q-4 2 -6 4zM202 281q7 -66 36.5 -119t83 -87t133.5 -34q184 0 292.5 118t163.5 380q27 127 27 220q0 101 -31 161q-59 116 -239 116q-80 0 -147.5 -32.5t-119 -84t-86 -115t-49.5 -124.5l-59 -270q-8 -40 -8 -81q0 -24 3 -48z" />
<glyph unicode="c" horiz-adv-x="905" d="M119 557q57 274 196.5 407.5t341.5 133.5q59 0 101.5 -7.5t70.5 -17.5q33 -10 56 -22q-6 -39 -37 -58q-20 12 -49 21q-25 8 -60 14t-82 6q-190 0 -304.5 -125t-168.5 -370q-24 -110 -23 -195q1 -107 37 -176q66 -123 259 -123q49 0 90 7t69 18q35 10 62 24 q10 -8 14 -23.5t2 -31.5q-33 -18 -71 -31q-35 -10 -84.5 -19t-110.5 -9q-203 0 -286 147q-48 85 -48 216q0 95 25 214z" />
<glyph unicode="d" d="M92 274q-2 21 -2 44q0 94 27 221q33 156 82 263t113.5 172.5t144.5 94.5t172 29q129 0 205.5 -58.5t103.5 -150.5l135 641l6 2q8 4 27 4q10 0 15 -1t9 -3t9 -2l-324 -1524l-8 -4q-4 -2 -21 -2q-14 0 -18 2t-6 4l26 180q-66 -98 -154.5 -152t-221.5 -54q-90 0 -160 28.5 t-111 94t-49 171.5zM186 539q-27 -127 -27 -220q1 -99 31 -160q58 -118 240 -118q82 0 149.5 34t120 87t87 118.5t47.5 129.5l55 258q9 42 9 85q0 21 -2 43q-7 66 -37 119.5t-83 87t-133 33.5q-94 0 -167 -28.5t-128 -89t-95 -154.5t-67 -225z" />
<glyph unicode="e" horiz-adv-x="1036" d="M113 545q63 291 203.5 422t324.5 131q92 0 155.5 -29t100.5 -79t47 -120q4 -27 4 -55q0 -45 -10 -94q-10 -47 -21.5 -85t-21.5 -65q-10 -31 -23 -55h-694q-18 -102 -18 -180q0 -114 38 -180q66 -110 244 -109q63 0 115.5 12.5t89.5 28.5q43 18 76 41q25 -16 25 -48v-9 q-37 -27 -86 -47q-41 -16 -103.5 -30.5t-140.5 -14.5q-201 0 -283 142q-47 82 -47 210q0 94 25 213zM190 578h639q6 18 15 40q6 20 14 48t16 65q9 47 9 91q-1 14 -1 26q-4 56 -31.5 97.5t-78.5 66t-133 24.5q-156 0 -273.5 -109.5t-175.5 -348.5z" />
<glyph unicode="f" horiz-adv-x="684" d="M90 6l213 1010h-143q-4 14 -2 25.5t6 19.5t10 16h143l29 135q16 74 42 134.5t67 102.5t103.5 64.5t152.5 22.5q37 0 69.5 -4t57.5 -8q29 -6 51 -13q0 -16 -9.5 -31.5t-21.5 -25.5q-18 4 -41 10q-20 4 -48 7.5t-60 3.5q-76 0 -127.5 -17.5t-85 -51.5t-53 -83t-31.5 -113 l-29 -133h336q2 -2 2 -6v-10t-2 -14q-4 -8 -6 -13.5t-4 -9.5q-2 -6 -4 -8h-336l-213 -1010q-2 -2 -9 -4q-6 -2 -26 -2t-25 2q-4 2 -6 4z" />
<glyph unicode="g" horiz-adv-x="1132" d="M41 -463q4 39 35 55q27 -12 63 -20q31 -8 73 -13t91 -5q90 0 161 22.5t125 78.5t96 152.5t73 245.5l28 127q-61 -86 -148 -143t-226 -57q-94 0 -164 28.5t-110 94t-47 171.5q-1 19 -1 39q0 96 27 226q33 156 82 263t113.5 172.5t143.5 94.5t173 29q70 0 122 -17.5t89 -46 t60.5 -67.5t35.5 -82l39 186q2 0 8 2q12 4 27 4q16 0 24 -4q4 -2 6 -2l-217 -1018q-29 -139 -67.5 -244.5t-100 -177t-149.5 -107.5t-217 -36q-61 0 -107.5 7t-77.5 18q-37 10 -63 24zM186 539q-27 -130 -27 -225q0 -96 27 -155q56 -118 244 -118q90 0 159.5 38t120 92 t80 116.5t41.5 111.5l60 279q6 36 6 78q0 16 -1 34q-3 62 -29.5 116.5t-80 92t-143.5 37.5q-188 0 -295 -117.5t-162 -379.5z" />
<glyph unicode="h" horiz-adv-x="1126" d="M57 6l324 1524q2 0 8 2q4 2 9 3t16 1q12 0 24 -4q6 -2 8 -2l-137 -639q86 98 187.5 152.5t228.5 54.5q145 0 216 -82q49 -57 49 -142q0 -37 -9 -79l-166 -789q-2 -2 -8 -4t-27 -2q-20 0 -24 2t-6 4l163 772q10 47 10 85q0 71 -35 113q-54 62 -183 62q-53 0 -111.5 -18.5 t-114 -53t-105.5 -83.5t-89 -113l-162 -764q-2 -2 -8 -4t-27 -2q-20 0 -25 2q-4 2 -6 4z" />
<glyph unicode="i" horiz-adv-x="454" d="M63 6l226 1065q2 0 8 2q12 4 27 4q16 0 24 -4q4 -2 6 -2l-225 -1065q-2 -2 -8 -4t-27 -2q-20 0 -24 2t-7 4zM324 1313l18 86q4 0 12 2q16 4 39 4q12 0 20.5 -1t14.5 -3q8 -2 12 -2l-18 -86q-4 -2 -12 -4t-37 -2t-37 2t-12 4z" />
<glyph unicode="j" horiz-adv-x="456" d="M-359 -482q0 2 1 5q2 12 10 24l6 9q10 -2 23 -5q10 -2 27.5 -3t39.5 -1q111 0 178.5 61.5t96.5 203.5l268 1259q2 0 8 2q12 4 27 4q16 0 24 -4q4 -2 6 -2l-266 -1251q-37 -174 -126 -253t-212 -79q-33 0 -54.5 2t-33.5 6q-14 4 -22 10v5zM326 1313l18 86q4 0 12 2 q16 4 39 4q12 0 20.5 -1t14.5 -3q8 -2 12 -2l-18 -86q-4 -2 -12 -4t-37 -2t-37 2t-12 4z" />
<glyph unicode="k" horiz-adv-x="1009" d="M57 6l324 1524l6 2q8 4 27 4q10 0 15 -1t9 -3t8 -2l-198 -936h252l432 477q4 0 12 2q6 2 14.5 3t22.5 1q10 0 16.5 -1t10.5 -1l4 -2l-465 -516l289 -549q-4 -2 -11 -4q-12 -4 -30 -4q-16 0 -29 4q-6 2 -8 4l-273 524h-252l-110 -526q-2 -2 -8 -4t-27 -2q-20 0 -25 2 q-4 2 -6 4z" />
<glyph unicode="l" horiz-adv-x="462" d="M68 6l323 1524l6 2q8 4 27 4q10 0 15 -1t10 -3q4 -2 8 -2l-324 -1524q-2 -2 -8 -4t-27 -2q-20 0 -24 2t-6 4z" />
<glyph unicode="m" horiz-adv-x="1730" d="M57 6l226 1065q2 0 8 2q12 4 26 4q16 0 25 -4q4 -2 6 -2l-37 -178q80 96 178.5 150.5t219.5 54.5q102 0 169.5 -52.5t67.5 -168.5q82 104 185.5 162.5t228.5 58.5q136 0 196 -82q40 -54 39 -133q0 -41 -10 -88l-166 -789q-2 -2 -8 -4t-27 -2q-20 0 -24 2t-6 4l164 772 q11 53 11 94q-1 66 -29 104q-46 62 -165 62q-51 0 -105 -18.5t-108.5 -54t-103.5 -87t-88 -114.5l-160 -758q-2 -2 -8 -4t-27 -2q-20 0 -24 2t-6 4l163 772q11 54 11 96q0 64 -27 102q-45 62 -164 62q-49 0 -104.5 -18.5t-108.5 -53t-102 -83.5t-88 -113l-162 -764 q-2 -2 -8 -4t-27 -2q-20 0 -25 2q-4 2 -6 4z" />
<glyph unicode="n" horiz-adv-x="1126" d="M57 6l226 1065q2 0 8 2q12 4 26 4q16 0 25 -4q4 -2 6 -2l-39 -180q86 98 190.5 152.5t231.5 54.5q145 0 213 -82q47 -56 47 -140q0 -38 -10 -81l-166 -789q-2 -2 -8 -4t-27 -2q-20 0 -24 2t-6 4l163 772q11 49 11 88q0 70 -33 110q-51 62 -180 62q-53 0 -111.5 -18.5 t-116 -53t-108.5 -83.5t-90 -113l-162 -764q-2 -2 -8 -4t-27 -2q-20 0 -25 2q-4 2 -6 4z" />
<glyph unicode="o" horiz-adv-x="1099" d="M94 280q-2 22 -2 46q0 92 25 213q31 152 79 258t114.5 172.5t149.5 97.5t181 31t170 -31t112 -97q40 -68 48 -174q2 -22 2 -45q0 -92 -25 -212q-31 -152 -79 -258.5t-114.5 -173t-149.5 -97t-181 -30.5t-170 30.5t-112 97t-48 172.5zM160 300q4 -96 35.5 -153t91 -81.5 t139.5 -24.5t149.5 24.5t126 82t101.5 152.5t76 239q27 125 27 213v25q-4 95 -37 152.5t-91.5 82t-138.5 24.5t-149.5 -24.5t-127 -82t-101.5 -152.5t-75 -238q-27 -125 -27 -214q0 -13 1 -25z" />
<glyph unicode="p" d="M-53 -506l336 1577q2 0 8 2q12 4 26 4q16 0 25 -4q4 -2 6 -2l-37 -172q66 92 158 145.5t217 53.5q94 0 164 -29t109.5 -94.5t46.5 -172.5q2 -20 2 -42q0 -95 -27 -221q-33 -158 -82 -264.5t-113.5 -172t-143.5 -94t-173 -28.5q-123 0 -201 56t-106 159l-150 -701l-8 -4 q-6 -2 -24 -2q-23 0 -27 2q-6 2 -6 4zM203 281q8 -66 38.5 -119t83 -87t130.5 -34q188 0 294.5 117.5t161.5 380.5q27 131 27 226t-27 153q-55 118 -243 118q-76 0 -142.5 -32.5t-120 -84t-89 -115t-50.5 -124.5l-59 -270q-7 -38 -7 -77q0 -26 3 -52z" />
<glyph unicode="q" horiz-adv-x="1132" d="M93 274q-1 19 -1 39q0 96 27 226q33 156 82 263t113.5 172.5t143.5 94.5t173 29q131 0 205.5 -58.5t101.5 -152.5l39 184q2 0 8 2q12 4 27 4q16 0 24 -4q4 -2 6 -2l-335 -1577l-9 -4q-6 -2 -24 -2q-23 0 -27 2q-6 2 -6 4l145 684q-66 -92 -153.5 -145t-218.5 -53 q-94 0 -164 28.5t-110 94t-47 171.5zM188 539q-27 -130 -27 -225q0 -96 27 -155q56 -118 244 -118q80 0 146.5 31.5t118 83t86 115t51.5 126.5l61 283q6 34 6 69q0 27 -4 55q-8 64 -38 115.5t-82 84t-132 32.5q-188 0 -295 -117.5t-162 -379.5z" />
<glyph unicode="r" horiz-adv-x="788" d="M57 6l226 1065q2 0 8 2q12 4 26 4q16 0 25 -4q4 -2 6 -2l-43 -199q55 76 106.5 121t97.5 67.5t86 29t73 6.5q41 0 69.5 -7.5t48.5 -15.5q23 -10 41 -22q-4 -16 -13 -31.5t-26 -24.5q-33 18 -64.5 27.5t-80.5 9.5q-88 0 -185.5 -74.5t-176.5 -203.5l-158 -748q-2 -2 -8 -4 t-27 -2q-20 0 -25 2q-4 2 -6 4z" />
<glyph unicode="s" horiz-adv-x="911" d="M6 43q2 14 11.5 30.5t21.5 24.5q37 -16 80 -28q37 -10 85 -19.5t105 -9.5q123 0 218.5 53t123.5 176q7 28 7 52q0 28 -9 50q-16 40 -50 67.5t-82 45t-99 33.5q-53 14 -103.5 38t-87.5 58.5t-53 83.5q-9 26 -9 58q0 28 7 61q29 131 131.5 206t282.5 75q57 0 103 -7.5 t79 -15.5q37 -10 66 -22q-2 -14 -11.5 -30.5t-21.5 -25.5q-29 10 -64 19q-29 8 -69.5 14t-87.5 6q-143 0 -230.5 -59t-111.5 -172q-4 -22 -5 -42q0 -25 8 -46q13 -37 42.5 -62.5t71.5 -44t89 -30.5q55 -16 112.5 -39t99.5 -59t62 -89q11 -28 12 -64q0 -32 -9 -69 q-31 -137 -134.5 -208.5t-283.5 -71.5q-72 0 -128 9t-93 21q-45 14 -76 33z" />
<glyph unicode="t" horiz-adv-x="700" d="M143 1022v9t4 16q2 14 9 24q2 4 4 6h166l43 209q26 20 58 20q5 0 11 -1l-47 -228h330q0 -2 2 -6l1 -14q0 -4 -1 -10q-4 -10 -5 -15.5t-5 -9.5l-6 -6h-330l-139 -664q-16 -80 -20 -138q-1 -12 -1 -24q1 -42 13 -72q16 -38 55 -57.5t108 -19.5q53 0 90 6q23 2 43 6 q0 -4 2 -8q0 -4 1 -9t-1 -13q-2 -14 -6 -21q-2 -4 -2 -6q-18 -4 -41 -8q-18 -4 -43.5 -6t-56.5 -2q-84 0 -134 26q-51 25 -73 72q-21 43 -20 105v11q2 70 20 158l139 664h-166q-2 2 -2 6z" />
<glyph unicode="u" horiz-adv-x="1128" d="M104 160q-5 25 -5 53q0 37 10 80l167 778q2 0 9 2q12 4 26 4q16 0 25 -4q4 -2 6 -2l-164 -772q-10 -47 -10 -86q0 -71 34 -113q54 -64 183 -63q53 0 110.5 18.5t113 53t106.5 85t92 113.5l162 764q2 0 8 2q12 4 27 4q16 0 24 -4q4 -2 6 -2l-225 -1065q-2 -2 -8 -4t-27 -2 q-20 0 -24 2t-7 4l37 180q-86 -96 -185 -151t-224 -55q-72 0 -128.5 21.5t-91.5 61t-47 97.5z" />
<glyph unicode="v" horiz-adv-x="1011" d="M156 1071q4 0 10 2q12 4 29 4q14 0 22 -4q4 -2 6 -2l142 -778q8 -41 12 -77t8 -62q4 -31 4 -58h4q12 23 29 54q14 27 32.5 61.5t45.5 77.5l469 782q2 0 8 2q12 4 31 4q12 0 24 -4q6 -2 8 -2l-637 -1065l-8 -4q-4 -2 -20 -2q-14 0 -19 2q-4 2 -6 4z" />
<glyph unicode="w" horiz-adv-x="1615" d="M164 1071q2 0 8 2q12 4 29 4q10 0 15 -1t9 -3t8 -2l93 -809q4 -41 6 -70.5t2 -50.5q0 -23 -2 -41h6l18 43q16 39 62 119l454 809q2 0 9 2q4 2 9 3t15 1q16 0 25 -4q4 -2 6 -2l104 -805q4 -41 6.5 -70.5t2.5 -52.5q0 -25 -5 -43h7l18 43q10 23 25.5 52.5t38.5 70.5 l436 805q4 0 10 2q12 4 29 4q16 0 24 -4q4 -2 6 -2l-577 -1065l-8 -4q-4 -2 -21 -2q-14 0 -18 2t-6 4l-97 731q-10 70 -13 117t-5 76q-2 33 0 51h-6q-8 -18 -27 -51q-16 -29 -40.5 -76t-63.5 -117l-410 -731l-8 -4q-4 -2 -21 -2q-14 0 -18 2t-6 4z" />
<glyph unicode="x" horiz-adv-x="989" d="M-63 6l497 543l-264 522q4 0 10 2q12 4 31 4q10 0 22 -4q6 -2 9 -2l243 -477l437 477l8 2q12 4 41 4q16 0 28 -4q6 -2 9 -2l-490 -530l273 -535q-4 -2 -11 -4q-6 -2 -30 -2q-18 0 -23 2q-6 2 -8 4l-250 490l-446 -490q-2 -2 -11 -4q-8 -2 -43 -2q-23 0 -26 2q-6 2 -6 4z " />
<glyph unicode="y" horiz-adv-x="1124" d="M14 -463q4 39 35 55q27 -12 64 -20q31 -8 72.5 -13t90.5 -5q84 0 157 20t132.5 72.5t103.5 139.5t72 222l37 178q-86 -96 -188.5 -151t-227.5 -55q-145 0 -214 82q-50 58 -50 145q0 36 8 76l168 788q2 0 9 2q12 4 26 4q16 0 25 -4q4 -2 6 -2l-164 -772q-10 -47 -10 -85 q0 -72 36 -112q54 -63 183 -63q106 0 222 69.5t198 198.5l162 764q2 0 8 2q12 4 26 4q16 0 25 -4q4 -2 6 -2l-227 -1065q-31 -127 -75 -224t-108.5 -162.5t-153.5 -98.5t-206 -33q-61 0 -107 7t-77 18q-37 10 -64 24z" />
<glyph unicode="z" horiz-adv-x="909" d="M-43 6v9t2 16q2 10 4 15t4 9t4 6l836 959h-582q-2 2 -2 6q0 10 4 21q4 10 5 15t4 9q2 4 4 6h655q2 -2 2 -6v-10t-2 -14q-4 -10 -6 -15.5t-4 -9.5t-4 -6l-834 -955h639q2 -2 2 -6v-9t-2 -15t-4 -15.5t-4 -9.5t-4 -6h-715q-2 2 -2 6z" />
<glyph unicode="{" horiz-adv-x="684" d="M94 659q0 14 2 25q4 20 8 27q2 6 7 8h71q47 0 73 32.5t36 73.5l119 561q27 123 109.5 198t219.5 75h82q2 -2 2 -8q0 -14 -2 -25q-2 -8 -4 -14t-4 -10l-6 -9h-72q-115 0 -175 -55t-83 -156l-110 -520q-14 -66 -34 -107.5t-65 -68.5q35 -27 37 -70t-12 -108l-111 -520 q-23 -102 15.5 -156.5t152.5 -54.5h72q2 -2 2 -6v-10.5t-2 -14.5q-4 -10 -6 -16t-4 -11q-2 -6 -4 -8h-82q-137 0 -189.5 75t-25.5 198l118 561q10 41 -2 73.5t-59 32.5h-72q-2 2 -2 8z" />
<glyph unicode="|" horiz-adv-x="499" d="M0 -397l426 2009q2 0 8 2q12 4 27 4q16 0 24 -4q4 -2 7 -2l-426 -2009q-2 -2 -9 -4q-6 -2 -26 -2t-25 2q-4 2 -6 4z" />
<glyph unicode="}" horiz-adv-x="684" d="M-115 -281q0 14 2 25q2 8 5.5 14t5.5 11q2 6 4 8h71q115 0 175.5 55t82.5 156l111 520q14 66 33.5 107.5t64.5 68.5q-33 27 -36 70t12 108l110 520q23 102 -15 156.5t-153 54.5h-71q-2 2 -2 6v9.5t4 15.5q2 10 4 16.5t4 10.5q2 6 4 8h82q137 0 189.5 -75t25.5 -198 l-119 -561q-10 -41 3.5 -73.5t60.5 -32.5h71v-8q0 -14 -2 -25q-2 -10 -4 -16t-4 -11q-2 -6 -4 -8h-72q-47 0 -73.5 -32.5t-36.5 -73.5l-119 -561q-27 -123 -110 -198t-220 -75h-82q-2 2 -2 8z" />
<glyph unicode="~" horiz-adv-x="1103" d="M178 616q25 25 62 48q29 18 72.5 33.5t99.5 15.5q51 0 85.5 -16.5t65.5 -36t65 -36t83 -16.5q37 0 68.5 11.5t56.5 25.5q27 16 51 37q35 -6 39 -41q-27 -29 -62 -51q-31 -18 -73.5 -33.5t-102.5 -15.5q-51 0 -86 16t-65.5 35.5t-64.5 36t-83 16.5q-37 0 -69.5 -11 t-55.5 -26q-29 -16 -51 -37q-35 6 -35 45z" />
<glyph unicode="&#xa1;" horiz-adv-x="466" d="M-20 -408l256 1156q0 2 4 4q8 4 20 4q10 0 19 -4q4 -2 6 -4l-236 -1156q2 -2 -2 -4t-35 -2t-32 2q-2 2 0 4zM256 969l18 86q4 0 13 2q16 4 39 4q12 0 20 -1t14 -3q8 -2 13 -2l-19 -86q-4 -2 -12 -4t-37 -2t-37 2t-12 4z" />
<glyph unicode="&#xa2;" horiz-adv-x="937" d="M123 539q55 262 186 403t320 154l30 188q20 6 39 6q20 0 33 -6l-49 -186q53 -2 93 -9.5t67 -15.5q31 -10 51 -22q-6 -39 -37 -58q-20 12 -49 21q-25 8 -59.5 14t-81.5 6q-190 0 -305 -125t-168 -370q-53 -248 13 -370t259 -122q49 0 90 6t70 17q35 10 61 24 q10 -8 14.5 -23.5t1.5 -31.5q-31 -16 -69 -29q-35 -10 -82 -19t-105 -11l-32 -187q-16 -8 -37 -8q-20 0 -35 8l49 189q-182 12 -252.5 153t-15.5 404z" />
<glyph unicode="&#xa3;" horiz-adv-x="1044" d="M25 0l14 66q106 78 164.5 153.5t86 148t30 145.5t-6.5 144h-170q-2 6 -3 14.5t3 18.5q4 23 15 33h149q-12 82 -18 165t12 169q41 188 170 273t313 85q63 0 116.5 -8t92.5 -18q45 -10 82 -25q-4 -16 -12 -31.5t-25 -23.5q-35 12 -75 20q-35 8 -84.5 15.5t-106.5 7.5 q-334 0 -399 -301q-16 -78 -6 -160t20 -168h412q4 -16 2 -31q-2 -18 -17 -35h-389q6 -70 3 -142.5t-28.5 -146t-79.5 -150.5t-149 -152h656q6 -12 0 -33q-4 -23 -15 -33h-757z" />
<glyph unicode="&#xa4;" horiz-adv-x="1200" d="M49 141q-2 4 0 9l187 151q-33 51 -43.5 115.5t6.5 138.5q16 72 54 137.5t93 116.5l-123 152q0 2 4 8q4 4 7.5 9t11.5 11q18 10 22 12t8 3l125 -150q59 41 128 65.5t141 24.5t130 -24.5t99 -67.5l182 152q2 0 6 -3q4 -2 9.5 -5t11.5 -7q4 -8 8 -20q2 -6 2 -8l-182 -152 q35 -53 46 -117.5t-5 -136.5q-16 -74 -55 -138.5t-95 -115.5l121 -151l-4 -9q-2 -4 -5 -9t-9 -9q-12 -12 -25 -17q-6 -2 -8 -2l-121 154q-59 -43 -130 -67.5t-142 -24.5q-74 0 -133.5 24.5t-100.5 67.5l-184 -154q-4 0 -8 2q-10 4 -17 17q-6 4 -8 9t-4 9zM257 426 q13 -59 48 -103t90.5 -70t122.5 -26q70 0 134.5 26t117.5 70t91 103t54 129q14 70 2 129t-46.5 103t-89 70t-124.5 26q-68 0 -133 -26t-119.5 -70t-92.5 -103t-52 -129q-16 -70 -3 -129z" />
<glyph unicode="&#xa5;" horiz-adv-x="1232" d="M145 338q0 10 2 20q2 6 4.5 11.5t4.5 9.5l4 8h356l37 168h-356q-2 4 -2 8q0 10 2 21q0 6 2 11t4 9t6 8h336l-305 783q2 0 8 2q12 4 26 4q18 0 31 -4q6 -2 8 -2l291 -750l635 750q2 0 8 2q12 4 29 4q16 0 29 -4q6 -2 8 -2l-662 -783h336v-8v-20q-2 -8 -4 -12.5t-4 -8.5 l-4 -8h-357l-36 -168h356q2 -4 2 -8v-9t-2 -12q-2 -8 -4 -12l-4 -8l-4 -8h-357l-67 -324q-2 -2 -8 -4t-27 -2q-20 0 -25 2q-4 2 -6 4l68 324h-357q-2 4 -2 8z" />
<glyph unicode="&#xa6;" horiz-adv-x="497" d="M-2 -397l190 903q2 0 9 2q12 4 28 4q10 0 15.5 -1t9.5 -3t8 -2l-190 -903q-4 -2 -11 -4q-6 -2 -26 -2q-23 0 -27 2q-6 2 -6 4zM238 729l190 903q2 0 8 2q12 4 29 4q10 0 15 -1t9 -3t9 -2l-191 -903q-4 -2 -10 -4t-27 -2q-23 0 -26 2q-6 2 -6 4z" />
<glyph unicode="&#xa7;" horiz-adv-x="991" d="M33 29q4 35 30 59q41 -12 87 -20q39 -8 86 -14.5t94 -6.5q170 0 255.5 45.5t108.5 147.5q10 47 -9 78.5t-58 54t-91.5 40t-106.5 35t-105.5 39t-89 51t-55 71.5t-5.5 102q10 51 38 92t61.5 71.5t68.5 51t59 32.5q-59 31 -93 80t-15 133q25 123 124 182.5t257 59.5 q61 0 110.5 -7t83.5 -15q39 -8 70 -21q0 -16 -9 -31.5t-22 -23.5q-35 10 -71 18q-33 6 -74 12.5t-84 6.5q-82 0 -137.5 -13.5t-92 -37t-56 -56.5t-27.5 -71q-14 -63 21.5 -102.5t95 -66t131 -49t130 -54.5t91 -79t16.5 -125q-10 -53 -37 -93t-58.5 -69.5t-63.5 -50 t-52 -30.5q66 -31 105.5 -80t21.5 -135q-16 -76 -56 -126.5t-96.5 -80t-129 -41.5t-152.5 -12q-68 0 -123 7t-94 17q-47 10 -82 25zM248 719q-12 -59 13.5 -97t74.5 -62.5t112.5 -42t124.5 -38.5q20 10 51 27.5t62 44.5t56.5 61.5t35.5 77.5q12 57 -14.5 93t-74.5 61.5 t-108.5 45t-117.5 42.5q-27 -12 -60.5 -30.5t-65.5 -45.5t-56.5 -61.5t-32.5 -75.5z" />
<glyph unicode="&#xa8;" horiz-adv-x="931" d="M217 1257l19 86q4 0 12 3q16 4 39 4q12 0 20 -1t15 -3l12 -3l-19 -86q-4 -2 -12 -4t-37 -2t-37 2t-12 4zM506 1257l18 86q4 0 13 3q16 4 38 4q12 0 20.5 -1t14.5 -3q8 -2 13 -3l-19 -86q-4 -2 -12 -4t-37 -2t-37 2t-12 4z" />
<glyph unicode="&#xa9;" horiz-adv-x="1652" d="M152.5 430q-27.5 125 3.5 266t111.5 266t193 218.5t249 146.5t277.5 53t255 -53t187.5 -146.5t100 -218t-3.5 -266.5q-31 -141 -111 -266t-192.5 -218t-249 -147.5t-277.5 -54.5t-254.5 54.5t-187.5 147.5t-101.5 218zM210 452.5q26 -114.5 93.5 -200.5t172 -135 t233.5 -49t253.5 49t228 135t176.5 200.5t101 243.5q27 129 2.5 244t-91 200t-171 134t-233.5 49t-254 -49t-228.5 -134t-178 -200t-101.5 -244q-29 -129 -3 -243.5zM506 711q88 408 428 407q51 0 87 -7t60 -15q27 -10 47 -23q-4 -29 -30 -45q-23 10 -49 19q-23 6 -52.5 12 t-64.5 6q-152 0 -239 -83t-126 -271q-78 -354 215 -355q37 0 72 5.5t61 11.5q31 8 58 18q16 -10 12 -43q-25 -14 -59 -24q-29 -10 -71 -16.5t-95 -6.5q-174 0 -234.5 105.5t-19.5 304.5z" />
<glyph unicode="&#xaa;" horiz-adv-x="737" d="M100 457v6q0 8 2 16q0 6 4 15q2 4 5 6h450q0 -4 1 -9.5t-1 -11.5q-2 -8 -6 -16q-2 -4 -4 -6h-451zM168 797q18 88 83.5 139t184.5 51q63 0 112.5 -4t72.5 -8l20 94q20 98 -7.5 137t-123.5 39q-37 0 -70.5 -5t-60.5 -11q-31 -8 -57 -17q-6 6 -8.5 18.5t1.5 22.5 q31 10 66 19q29 6 66.5 12t78.5 6q111 0 149 -53t15 -156l-96 -456q-2 -2 -4 -2q-2 -2 -12 -2q-12 0 -15 2q-2 0 -4 2l12 100q-43 -55 -104 -87t-137 -32q-86 0 -134.5 50.5t-27.5 140.5zM217 797q-16 -76 16.5 -111t102.5 -35q92 0 165.5 57.5t96.5 157.5l14 68 q-23 2 -73 6t-103 4q-98 0 -150.5 -35.5t-68.5 -111.5z" />
<glyph unicode="&#xab;" horiz-adv-x="995" d="M98 532q0 10 2 21q2 6 4 11t5 9l4 9l522 460q10 -6 15 -20t1 -31l-491 -438l305 -440q-10 -39 -39 -52l-326 463q-2 4 -2 8zM428 532q0 10 2 21q4 16 6 20t4 7l471 417q12 -6 15.5 -19t-0.5 -30l-437 -395l269 -397q-6 -37 -35 -50l-293 420q-2 2 -2 6z" />
<glyph unicode="&#xac;" horiz-adv-x="1220" d="M176 846v9t2 13t4 13.5t4 9.5l4 8h902l-109 -512q-2 -2 -8 -4t-25 -2q-18 0 -22 2t-6 4l96 451h-840q-2 2 -2 8z" />
<glyph unicode="&#xad;" horiz-adv-x="561" />
<glyph unicode="&#xae;" horiz-adv-x="1105" d="M200.5 802q-16.5 77 2.5 163q18 86 67 162.5t119 134t154 90t170 32.5t155.5 -32.5t114.5 -90t61.5 -134t-2.5 -162.5q-18 -86 -67 -163t-119 -134.5t-154 -90t-170 -32.5t-155.5 32.5t-114.5 90t-61.5 134.5zM239 814q15 -71 56 -123t103.5 -81.5t142.5 -29.5 t155.5 29.5t139 81.5t108.5 123t62 151q16 80 1.5 149.5t-55.5 121.5t-104 83t-143 31t-156 -31t-139.5 -83t-108.5 -122t-61 -149q-16 -80 -1 -151zM434 743l98 463h177q143 0 114 -133q-10 -47 -35.5 -76.5t-78.5 -46.5l73 -205q0 -2 -4 -4t-16 -2t-17 2q-4 0 -6 2 l-73 203h-152l-43 -203q-2 -2 -4 -2q-4 -2 -14 -2q-12 0 -15 2q-4 0 -4 2zM522 981h142q57 0 83.5 23.5t36.5 68.5q10 49 -6 73.5t-73 24.5h-142z" />
<glyph unicode="&#xaf;" horiz-adv-x="833" d="M72 1323q6 20 16 33h580q6 -12 0 -31q-4 -20 -15 -35h-579q-6 12 -2 33z" />
<glyph unicode="&#xb0;" horiz-adv-x="741" d="M254 1179q-6 42 4 85q8 45 33.5 88t63.5 77.5t88.5 56t111.5 21.5q59 0 100 -20.5t63.5 -54t28 -76.5t-3.5 -86q-10 -45 -33.5 -88t-60.5 -77t-86 -54.5t-108 -20.5q-63 0 -105.5 20.5t-66 53.5t-29.5 75zM296 1193q5 -36 24.5 -63.5t53.5 -44t87 -16.5q51 0 92 16.5 t71.5 44t50 63.5t27.5 75t3 74.5t-23 63.5t-52 45t-85 17t-92 -17t-73 -46t-52.5 -65.5t-28.5 -73.5t-3 -73z" />
<glyph unicode="&#xb1;" horiz-adv-x="1050" d="M116 320.5q-1 5.5 3 15.5q2 14 8 24q2 4 4 7h676q2 -2 2 -7v-10t-2 -14q-4 -10 -5 -15.5t-3 -9.5t-4 -6h-676q-2 2 -2 6t-1 9.5zM219 799v9t2 15q2 8 5 14.5t5 10.5t5 6h307l51 246q2 0 8 2q4 2 9 3t16 1q14 0 22 -4q4 -2 6 -2l-51 -246h307q2 -2 2 -6t-4 -25 q-2 -10 -4 -15t-4 -9t-4 -6h-307l-51 -246q-2 -2 -9 -4q-6 -2 -24 -2t-23 2q-4 2 -6 4l51 246h-307q-2 2 -2 6z" />
<glyph unicode="&#xb2;" horiz-adv-x="616" d="M109 709v24q0 27 8 60q14 70 53 113.5t89 74.5t106.5 53.5t105.5 48t86 60.5t49 90q6 27 3 52.5t-19.5 46t-49 32.5t-87.5 12q-29 0 -57.5 -3t-51.5 -7q-27 -6 -49 -10q-10 20 -2 41q23 6 49 12q23 4 54.5 8t70.5 4q63 0 104 -14t62.5 -39t26 -58.5t-4.5 -72.5 q-14 -70 -55 -112t-93 -71.5t-111.5 -53t-109.5 -54.5t-86 -75t-42 -115h391q6 -8 2 -25q-2 -12 -10 -22h-432z" />
<glyph unicode="&#xb3;" horiz-adv-x="624" d="M111 725q4 27 20 37q20 -6 45 -10q47 -10 111 -11q70 0 116 13.5t74.5 35t41.5 50t20 57.5q8 43 0.5 72.5t-27.5 48t-52 28t-71 9.5h-88q-2 10 1 22.5t9 22.5h88q78 0 126 37t63 102q14 68 -23 102.5t-121 34.5q-37 0 -67.5 -3t-52.5 -7q-27 -4 -50 -8q-10 18 -2 39 q23 6 52 12q25 4 56.5 8t72.5 4q111 0 156.5 -47t27.5 -133q-14 -59 -45 -98t-88 -64q51 -23 76.5 -60.5t7.5 -121.5q-8 -41 -28.5 -77t-56.5 -62.5t-91.5 -43t-132.5 -16.5q-39 0 -69 4.5t-52 8.5q-25 6 -47 14z" />
<glyph unicode="&#xb4;" horiz-adv-x="458" d="M41 1346l303 307q43 0 59 -35l-319 -301q-37 2 -43 29z" />
<glyph unicode="&#xb5;" horiz-adv-x="1183" d="M10 -397q4 59 16.5 149t41.5 219l233 1100q2 0 8 2q12 4 27 4q16 0 24 -4q4 -2 7 -2l-164 -776q-12 -53 -9 -100.5t26.5 -82t69.5 -54t124 -19.5q63 0 125.5 23.5t117 60.5t99.5 85t75 97l162 766q2 0 8 2q12 4 27 4q16 0 25 -4q4 -2 6 -2l-225 -1065q-2 -2 -9 -4 q-6 -2 -26 -2t-25 2q-4 2 -6 4l39 182q-86 -98 -193.5 -153t-226.5 -55q-109 0 -160 32.5t-73 71.5q-35 -176 -50.5 -287.5t-19.5 -177.5q-6 -76 2 -113q-33 -27 -76 -16q-6 45 0 113z" />
<glyph unicode="&#xb6;" horiz-adv-x="897" d="M53 -459l324 1520q-45 2 -75 18.5t-47 42t-20.5 58t3.5 67.5q8 35 27.5 68t48 59.5t66.5 42t83 15.5h55l-403 -1891q-2 -2 -6 -4t-25 -2q-20 0 -25 2q-4 2 -6 4zM377 -459l401 1884q2 0 8 2q4 2 9.5 3.5t15.5 1.5q14 0 23 -5q4 -2 6 -2l-402 -1884q-2 -2 -6 -4t-24 -2 t-25 2q-4 2 -6 4z" />
<glyph unicode="&#xb7;" horiz-adv-x="444" d="M154 539l18 86q4 0 12 2q16 4 37 4q20 0 37 -4q8 -2 12 -2l-18 -86q-6 -2 -14 -4t-37 -3q-29 0 -37 3q-8 2 -10 4z" />
<glyph unicode="&#xb8;" horiz-adv-x="606" d="M-291 -385q8 27 33 45q18 -10 41 -18q20 -8 47 -13.5t61 -5.5q78 0 126.5 36t64.5 108q25 123 -125 122h-63l-11 17l68 174l55 -4l-51 -129q121 0 166 -47t29 -133q-43 -199 -273 -199q-39 0 -69.5 6t-53.5 16q-25 10 -45 25z" />
<glyph unicode="&#xb9;" horiz-adv-x="495" d="M197 1235q0 12 4 22q76 18 151.5 62.5t122.5 87.5q8 4 25 4q18 0 22 -4l-147 -694q-8 -4 -23 -4q-16 0 -24 4l114 544l21 84q-55 -41 -119.5 -73.5t-140.5 -50.5q-6 6 -6 18z" />
<glyph unicode="&#xba;" horiz-adv-x="774" d="M119 457v6q0 8 2 16q0 6 4 15q2 4 4 6h463v-4v-17q-2 -8 -6 -16q-2 -4 -4 -6h-463zM199 948q35 178 112.5 260t210.5 82q131 0 178.5 -81t12.5 -261t-114 -262t-210 -82q-133 0 -179 82t-11 262zM246 718.5q33 -69.5 145 -69.5q111 0 174.5 69.5t98.5 229.5 q35 156 0 226.5t-146 70.5q-113 0 -174 -70.5t-96 -226.5q-35 -160 -2 -229.5z" />
<glyph unicode="&#xbb;" horiz-adv-x="993" d="M37 156l436 397l-268 395q6 35 35 49l295 -417v-7v-9t-3 -11q-2 -14 -6 -21q-2 -4 -2 -6l-473 -420q-20 12 -14 50zM313 113l490 440l-303 438q4 16 13 30.5t24 20.5l325 -460q2 -4 2 -9v-9t-2 -11q-2 -8 -4 -12t-4 -9l-4 -8l-522 -463q-25 14 -15 52z" />
<glyph unicode="&#xbc;" horiz-adv-x="1300" d="M90 -16l1106 1448q2 0 6 2q8 4 21 4q10 0 18 -4q4 -2 6 -2l-1104 -1448q-2 -2 -6 -2q-4 -2 -20 -2t-21 2q-4 0 -6 2zM213 1235q0 12 4 22q76 18 151.5 62.5t123.5 87.5q8 4 24 4q18 0 23 -4l-148 -694q-8 -4 -22 -4q-16 0 -25 4l115 544l20 84q-55 -41 -119.5 -73.5 t-140.5 -50.5q-6 6 -6 18zM593 207q-1 2 1 6q0 8 4 12l4 4l473 469q2 0 6 2q4 0 8.5 1t12.5 1q6 0 9 -1t7 -1q4 -2 6 -2l-96 -452h88q2 -2 2 -6q0 -10 -2 -17l-6 -18q-2 -4 -2 -6h-88l-43 -195q-2 -2 -6 -2q-4 -2 -17 -2q-14 0 -18 2q-4 0 -6 2l43 195h-377q-2 2 -2 4t-1 4z M674 246h307l82 383z" />
<glyph unicode="&#xbd;" horiz-adv-x="1419" d="M90 -16l1106 1448q2 0 6 2q8 4 21 4q10 0 18 -4q4 -2 6 -2l-1104 -1448q-2 -2 -6 -2q-4 -2 -20 -2t-21 2q-4 0 -6 2zM213 1235q0 12 4 22q76 18 151.5 62.5t123.5 87.5q8 4 24 4q18 0 23 -4l-148 -694q-8 -4 -22 -4q-16 0 -25 4l115 544l20 84q-55 -41 -119.5 -73.5 t-140.5 -50.5q-6 6 -6 18zM741 0q0 12 2 25q2 10 3.5 25.5t5.5 33.5q14 70 53 114t89 74.5t106.5 53t105.5 48t85 60.5t48 90q6 27 3 52.5t-19.5 46t-49 33t-88.5 12.5q-29 0 -57.5 -3t-50.5 -8q-27 -6 -49 -10q-8 18 -2 41q23 6 49 12q23 4 55.5 8.5t71.5 4.5 q63 0 103 -14.5t61.5 -39t26.5 -58.5t-3 -73q-14 -70 -55 -111.5t-94.5 -71.5t-112.5 -53.5t-109.5 -54t-85 -74.5t-40.5 -116h391q4 -10 0 -24q-4 -16 -10 -23h-433z" />
<glyph unicode="&#xbe;" horiz-adv-x="1415" d="M133 725q4 27 21 37q20 -6 45 -10q47 -10 110 -11q70 0 116 13.5t74.5 35t42 50t19.5 57.5q8 43 1 72.5t-27.5 48t-52 28t-70.5 9.5h-88q-2 10 1 22.5t9 22.5h88q78 0 126 37t62 102q14 68 -22.5 102.5t-120.5 34.5q-37 0 -67.5 -3t-53.5 -7q-27 -4 -49 -8q-10 18 -2 39 q23 6 51 12q25 4 56.5 8t72.5 4q111 0 157 -47t27 -133q-14 -59 -44.5 -98t-88.5 -64q51 -23 76.5 -60.5t7.5 -121.5q-8 -41 -28.5 -77t-56.5 -62.5t-91 -43t-133 -16.5q-39 0 -68.5 4.5t-52.5 8.5q-25 6 -47 14zM205 -16l1106 1448q2 0 6 2q8 4 20 4q10 0 19 -4q4 -2 6 -2 l-1104 -1448q-2 -2 -6 -2q-4 -2 -21 -2q-16 0 -20 2q-4 0 -6 2zM708 207q-1 2 1 6q0 8 4 12l4 4l473 469q2 0 6 2q4 0 8 1t13 1q6 0 9 -1t7 -1q4 -2 6 -2l-96 -452h88q2 -2 2 -6q0 -10 -2 -17l-6 -18q-2 -4 -2 -6h-88l-43 -195q-2 -2 -7 -2q-4 -2 -16 -2q-14 0 -18 2 q-4 0 -7 2l43 195h-376q-2 2 -2 4t-1 4zM788 246h308l82 383z" />
<glyph unicode="&#xbf;" horiz-adv-x="845" d="M-38 -149.5q-7 57.5 5 118.5q20 102 64.5 170t98.5 119t113.5 94t115 96.5t99.5 124t66 179.5q2 2 8 4q12 4 25 4q12 0 21 -4q4 -2 6 -4q-25 -119 -70 -197t-98.5 -133t-111.5 -97t-110.5 -89.5t-93.5 -108.5t-61 -154q-10 -51 -5 -98t32.5 -82t80 -56.5t136.5 -21.5 q66 0 120 7.5t93 17.5q45 10 82 27q10 -8 12 -22.5t-2 -29.5q-41 -18 -92 -32q-43 -12 -101.5 -21.5t-130.5 -9.5q-98 0 -161.5 26.5t-98.5 70.5t-42 101.5zM551 973l18 86q4 0 13 2q16 4 36 4t37 -4q8 -2 13 -2l-19 -86q-6 -2 -14 -4t-37 -2t-37 2t-10 4z" />
<glyph unicode="&#xc0;" horiz-adv-x="1298" d="M-90 6l889 1462q2 0 8 2q8 4 22 5q12 0 21 -5q4 -2 6 -2l270 -1462q-4 -2 -10 -4t-29 -2q-20 0 -24 2t-6 4l-82 440h-723l-268 -440q-4 -2 -13 -4q-8 -2 -30 -2q-20 0 -25 2q-4 2 -6 4zM291 512h672l-142 780q-4 18 -6 32.5t-2 25.5v20h-4l-10 -20q-6 -10 -14.5 -24.5 t-18.5 -33.5zM705 1851q12 14 32.5 24.5t40.5 10.5l174 -307q-18 -27 -55 -29z" />
<glyph unicode="&#xc1;" horiz-adv-x="1298" d="M-90 6l889 1462q2 0 8 2q8 4 22 5q12 0 21 -5q4 -2 6 -2l270 -1462q-4 -2 -10 -4t-29 -2q-16 0 -22 2t-8 4l-82 440h-723l-268 -440q-4 -2 -11 -4q-6 -2 -32 -2q-20 0 -25 2q-4 2 -6 4zM291 512h672l-142 780q-4 18 -6 32.5t-2 25.5v20h-4l-10 -20q-6 -10 -14.5 -24.5 t-18.5 -33.5zM764 1581l305 307q45 0 57 -35l-319 -301q-37 2 -43 29z" />
<glyph unicode="&#xc2;" horiz-adv-x="1298" d="M-90 6l889 1462q2 0 8 2q8 4 22 5q12 0 21 -5q4 -2 6 -2l270 -1462q-4 -2 -10 -4t-29 -2q-20 0 -24 2t-6 4l-82 440h-723l-268 -440q-4 -2 -13 -4q-8 -2 -30 -2q-20 0 -25 2q-4 2 -6 4zM291 512h672l-142 780q-4 18 -6 32.5t-2 25.5v20h-4l-10 -20q-6 -10 -14.5 -24.5 t-18.5 -33.5zM580 1622l299 207h53l207 -207q-6 -16 -14.5 -26.5t-22.5 -14.5l-209 184l-283 -186q-31 14 -30 43z" />
<glyph unicode="&#xc3;" horiz-adv-x="1298" d="M-90 6l889 1462q2 0 8 2q8 4 22 5q12 0 21 -5q4 -2 6 -2l270 -1462q-4 -2 -10 -4t-29 -2q-16 0 -22 2t-8 4l-82 440h-723l-268 -440q-4 -2 -11 -4q-6 -2 -32 -2q-20 0 -25 2q-4 2 -6 4zM291 512h672l-142 780q-4 18 -6 32.5t-2 25.5v20h-4l-10 -20q-6 -10 -14.5 -24.5 t-18.5 -33.5zM610 1620q16 25 39 45q20 16 50 30.5t71 14.5q33 0 59.5 -11t50 -25.5t47 -26t52.5 -11.5q23 0 39 9.5t29 19.5q14 12 24 31q16 2 29.5 -3t19.5 -20q-4 -10 -13 -25.5t-27.5 -32t-46 -27.5t-66.5 -11q-35 0 -61.5 11t-51.5 25.5t-49.5 26t-52.5 11.5 q-23 0 -39.5 -10.5t-28.5 -20.5q-14 -14 -25 -31q-16 -2 -30.5 9.5t-18.5 21.5z" />
<glyph unicode="&#xc4;" horiz-adv-x="1298" d="M-90 6l889 1462q2 0 8 2q8 4 22 5q12 0 21 -5q4 -2 6 -2l270 -1462q-4 -2 -10 -4t-29 -2q-16 0 -22 2t-8 4l-82 440h-723l-268 -440q-4 -2 -11 -4q-6 -2 -32 -2q-20 0 -25 2q-4 2 -6 4zM291 512h672l-142 780q-4 18 -6 32.5t-2 25.5v20h-4l-10 -20q-6 -10 -14.5 -24.5 t-18.5 -33.5zM657 1583l19 86q4 0 12 2q16 4 39 4q12 0 20.5 -1t14.5 -3q8 -2 12 -2l-18 -86q-4 -2 -13 -4q-8 -2 -36 -2q-29 0 -37 2t-13 4zM946 1583l19 86q4 0 12 2q16 4 39 4q12 0 20 -1t15 -3q8 -2 12 -2l-19 -86q-4 -2 -12 -4t-37 -2t-37 2t-12 4z" />
<glyph unicode="&#xc5;" horiz-adv-x="1298" d="M-90 6l864 1421q-76 14 -116 67.5t-23 145.5q10 51 36.5 91.5t62.5 68t80 40.5t87 13t83 -13t67.5 -39.5t41 -66.5t3.5 -94q-16 -94 -82 -149t-150 -66l262 -1419q-4 -2 -10 -4t-29 -2q-20 0 -24 2t-6 4l-82 440h-723l-268 -440q-4 -2 -13 -4q-8 -2 -30 -2q-20 0 -25 2 q-4 2 -6 4zM291 512h672l-142 780q-4 18 -6 32.5t-2 25.5v20h-4l-10 -20q-6 -10 -14.5 -24.5t-18.5 -33.5zM700 1640q-12 -59 16.5 -108t112.5 -49q43 0 77 13t59.5 35.5t42 51.5t22.5 57q14 59 -17.5 106.5t-117.5 47.5q-84 0 -133 -47t-62 -107z" />
<glyph unicode="&#xc6;" horiz-adv-x="1732" d="M-100 6l1198 1469h686q4 -12 0 -32t-15 -34h-602l-133 -629h500q10 -35 -14 -65h-500l-137 -649h622q4 -14 0 -33t-14 -33h-692l94 420h-578l-338 -414q-18 -6 -40 -6q-10 0 -21.5 1t-15.5 5zM367 485h538l191 891z" />
<glyph unicode="&#xc7;" horiz-adv-x="1130" d="M174 748q82 381 252 564t444 183q84 0 144.5 -10t101.5 -23q47 -14 80 -32v-11q-4 -12 -10 -20q-4 -8 -8 -11.5t-9 -7.5q-4 -4 -8 -6q-33 16 -76 29q-37 10 -92 19.5t-125 9.5q-98 0 -192 -34t-175 -114t-146.5 -214t-108.5 -335t-37 -334t51 -211.5t125 -111.5t188 -33 q76 0 138.5 9t107.5 20q53 12 94 28q2 0 7 -4l4 -8t4 -10q2 -8 1 -13.5t-1 -9.5q-2 -6 -2 -10q-43 -20 -99 -35q-47 -12 -116.5 -22t-159.5 -10l-47 -123q121 0 165 -52.5t25 -134.5q-23 -98 -87 -140t-179 -42q-39 0 -69.5 6t-53.5 17q-25 10 -45 24q8 29 31 45 q18 -10 41 -18q20 -8 48 -13.5t62 -5.5q78 0 125 33t64 105q16 66 -17.5 93t-105.5 27h-64l-10 17l62 164q-475 37 -322 766z" />
<glyph unicode="&#xc8;" horiz-adv-x="1136" d="M88 0l313 1475h789q2 -12 0 -33q-6 -23 -14 -33h-719l-133 -629h616q2 -12 0 -30q-6 -20 -14 -33h-617l-137 -651h739q2 -14 0 -31q-6 -20 -14 -35h-809zM645 1851q12 14 32.5 24.5t41.5 10.5l174 -307q-18 -27 -55 -29z" />
<glyph unicode="&#xc9;" horiz-adv-x="1136" d="M88 0l313 1475h789q2 -12 0 -33q-6 -23 -14 -33h-719l-133 -629h616q2 -12 0 -30q-6 -20 -14 -33h-617l-137 -651h739q2 -14 0 -31q-6 -20 -14 -35h-809zM659 1583l306 307q43 0 59 -35l-322 -301q-33 2 -43 29z" />
<glyph unicode="&#xca;" horiz-adv-x="1136" d="M88 0l313 1475h789q2 -12 0 -33q-6 -23 -14 -33h-719l-133 -629h616q2 -12 0 -30q-6 -20 -14 -33h-617l-137 -651h739q2 -14 0 -31q-6 -20 -14 -35h-809zM537 1622l299 207h53l207 -207q-6 -16 -13.5 -26.5t-21.5 -14.5l-209 184l-283 -186q-33 14 -32 43z" />
<glyph unicode="&#xcb;" horiz-adv-x="1136" d="M88 0l313 1475h789q2 -12 0 -33q-6 -23 -14 -33h-719l-133 -629h616q2 -12 0 -30q-6 -20 -14 -33h-617l-137 -651h739q2 -14 0 -31q-6 -20 -14 -35h-809zM627 1593l18 86q4 0 12 2q16 4 39 5q12 0 20.5 -1.5t14.5 -3.5q8 -2 12 -2l-18 -86q-4 -2 -12 -4t-37 -2t-37 2 t-12 4zM915 1593l19 86q4 0 12 2q16 4 39 5q12 0 20.5 -1.5t14.5 -3.5q8 -2 12 -2l-18 -86q-4 -2 -13 -4q-8 -2 -36 -2q-29 0 -37 2t-13 4z" />
<glyph unicode="&#xcc;" horiz-adv-x="512" d="M90 6l309 1462q2 0 9 2q12 4 28 5q10 0 15.5 -1t9.5 -4q4 -2 8 -2l-309 -1462q-4 -2 -10 -4t-27 -2q-23 0 -27 2q-6 2 -6 4zM324 1851q12 14 32.5 24.5t40.5 10.5l174 -307q-18 -27 -55 -29z" />
<glyph unicode="&#xcd;" horiz-adv-x="512" d="M90 6l309 1462q2 0 9 2q12 4 28 5q10 0 15.5 -1t9.5 -4q4 -2 8 -2l-309 -1462q-4 -2 -10 -4t-27 -2q-23 0 -27 2q-6 2 -6 4zM317 1583l306 307q43 0 59 -35l-322 -301q-33 2 -43 29z" />
<glyph unicode="&#xce;" horiz-adv-x="512" d="M90 6l309 1462q2 0 9 2q12 4 28 5q10 0 15.5 -1t9.5 -4q4 -2 8 -2l-309 -1462q-4 -2 -10 -4t-27 -2q-23 0 -27 2q-6 2 -6 4zM186 1622l299 207h54l206 -207q-14 -35 -38 -41l-205 184l-289 -186q-27 12 -27 43z" />
<glyph unicode="&#xcf;" horiz-adv-x="512" d="M90 6l309 1462q2 0 9 2q12 4 28 5q10 0 15.5 -1t9.5 -4q4 -2 8 -2l-309 -1462q-4 -2 -10 -4t-27 -2q-23 0 -27 2q-6 2 -6 4zM266 1583l19 86q4 0 12 2q16 4 39 4q12 0 20.5 -1t14.5 -3q8 -2 12 -2l-18 -86q-4 -2 -13 -4q-8 -2 -37 -2t-36 2q-8 2 -13 4zM555 1583l18 86 q4 0 13 2q16 4 39 4q12 0 20 -1t14 -3q8 -2 13 -2l-19 -86q-4 -2 -12 -4t-37 -2t-37 2t-12 4z" />
<glyph unicode="&#xd0;" horiz-adv-x="1359" d="M68 709v9t2 13t4 13.5t4 9.5l4 8h178l152 713h374q147 0 252 -35t163.5 -120t65.5 -226.5t-38 -356.5t-109.5 -356t-153.5 -226t-205 -120t-263 -35h-400l150 700h-178q-2 2 -2 9zM182 66h310q129 0 232 29.5t185 105t142.5 206t103.5 330.5q43 201 37 331t-55.5 206 t-140.5 105.5t-220 29.5h-309l-137 -647h356q2 -4 2 -8q0 -12 -2 -23q-2 -8 -4 -13t-4 -9q-2 -6 -4 -9h-357z" />
<glyph unicode="&#xd1;" horiz-adv-x="1421" d="M90 6l309 1462q4 0 13 2q6 2 13 3.5t17 1.5q12 0 25 -5q6 -2 8 -2l483 -1187q16 -37 27.5 -71t20.5 -58q8 -31 16 -56h4q4 31 10 68q4 33 12.5 78t20.5 100l242 1126q2 0 8 2q12 4 29 5q16 0 24 -5q4 -2 6 -2l-309 -1462q-4 -2 -10 -4q-4 -2 -12.5 -2h-18.5q-18 0 -24 2 t-9 4l-487 1204q-16 41 -28.5 73t-18.5 54q-8 25 -12 45h-5q-4 -25 -10 -61q-6 -33 -14 -83t-25 -122l-237 -1110q-4 -2 -11 -4q-6 -2 -26 -2t-25 2q-4 2 -6 4zM686 1612q12 27 33 49q16 18 42.5 33.5t67.5 15.5q37 0 66 -11t54.5 -25.5t51 -26t54.5 -11.5q23 0 39 9.5 t28 19.5q14 12 25 31q16 2 29.5 -3t19.5 -20q-12 -27 -33 -47q-16 -18 -43.5 -32.5t-66.5 -14.5q-37 0 -66 11.5t-54.5 24.5t-51 24.5t-54.5 11.5q-23 0 -39 -10.5t-28 -20.5q-14 -14 -25 -31q-39 -4 -49 23z" />
<glyph unicode="&#xd2;" horiz-adv-x="1386" d="M141.5 395.5q-8.5 143.5 32.5 341.5q41 199 107.5 342.5t155.5 235.5t198.5 136t236.5 44t219.5 -44t143.5 -136t58 -235.5t-33 -342.5q-82 -397 -262.5 -577t-434.5 -180q-127 0 -219 44t-143 136t-59.5 235.5zM211 417q4 -132 48 -216t123 -122t187 -38q104 0 198.5 38 t173.5 122t141.5 216t103.5 320q43 188 39 320.5t-46 216.5t-121.5 122t-185.5 38q-111 0 -206 -38t-173.5 -122t-140 -216t-104.5 -321q-41 -188 -37 -320zM793 1851q12 14 32.5 24.5t40.5 10.5l174 -307q-18 -27 -55 -29z" />
<glyph unicode="&#xd3;" horiz-adv-x="1386" d="M141.5 395.5q-8.5 143.5 32.5 341.5q41 199 107.5 342.5t155.5 235.5t198.5 136t236.5 44t219.5 -44t143.5 -136t58 -235.5t-33 -342.5q-82 -397 -262.5 -577t-434.5 -180q-127 0 -219 44t-143 136t-59.5 235.5zM211 417q4 -132 48 -216t123 -122t187 -38q104 0 198.5 38 t173.5 122t141.5 216t103.5 320q43 188 39 320.5t-46 216.5t-121.5 122t-185.5 38q-111 0 -206 -38t-173.5 -122t-140 -216t-104.5 -321q-41 -188 -37 -320zM868 1583l306 307q43 0 59 -35l-322 -301q-33 2 -43 29z" />
<glyph unicode="&#xd4;" horiz-adv-x="1386" d="M141.5 395.5q-8.5 143.5 32.5 341.5q41 199 107.5 342.5t155.5 235.5t198.5 136t236.5 44t219.5 -44t143.5 -136t58 -235.5t-33 -342.5q-82 -397 -262.5 -577t-434.5 -180q-127 0 -219 44t-143 136t-59.5 235.5zM211 417q4 -132 48 -216t123 -122t187 -38q104 0 198.5 38 t173.5 122t141.5 216t103.5 320q43 188 39 320.5t-46 216.5t-121.5 122t-185.5 38q-111 0 -206 -38t-173.5 -122t-140 -216t-104.5 -321q-41 -188 -37 -320zM629 1622l299 207h53l207 -207q-14 -35 -41 -41l-205 184l-287 -186q-27 12 -26 43z" />
<glyph unicode="&#xd5;" horiz-adv-x="1386" d="M141.5 395.5q-8.5 143.5 32.5 341.5q41 199 107.5 342.5t155.5 235.5t198.5 136t236.5 44t219.5 -44t143.5 -136t58 -235.5t-33 -342.5q-82 -397 -262.5 -577t-434.5 -180q-127 0 -219 44t-143 136t-59.5 235.5zM211 417q4 -132 48 -216t123 -122t187 -38q104 0 198.5 38 t173.5 122t141.5 216t103.5 320q43 188 39 320.5t-46 216.5t-121.5 122t-185.5 38q-111 0 -206 -38t-173.5 -122t-140 -216t-104.5 -321q-41 -188 -37 -320zM674 1632q12 27 33 49q16 18 42.5 34t67.5 16q37 0 65.5 -11.5t54.5 -26t51 -25.5t54 -11q23 0 39.5 9t28.5 20 q14 12 25 30q16 2 29.5 -3t19.5 -19q-12 -27 -33 -49q-16 -18 -44 -33t-67 -15q-37 0 -65.5 11.5t-54 26t-51 25.5t-54.5 11q-23 0 -39 -10t-28 -21q-14 -14 -25 -30q-39 -4 -49 22z" />
<glyph unicode="&#xd6;" horiz-adv-x="1386" d="M141.5 395.5q-8.5 143.5 32.5 341.5q41 199 107.5 342.5t155.5 235.5t198.5 136t236.5 44t219.5 -44t143.5 -136t58 -235.5t-33 -342.5q-82 -397 -262.5 -577t-434.5 -180q-127 0 -219 44t-143 136t-59.5 235.5zM211 417q4 -132 48 -216t123 -122t187 -38q104 0 198.5 38 t173.5 122t141.5 216t103.5 320q43 188 39 320.5t-46 216.5t-121.5 122t-185.5 38q-111 0 -206 -38t-173.5 -122t-140 -216t-104.5 -321q-41 -188 -37 -320zM700 1604l19 86q4 0 12 2q16 4 39 4q12 0 20.5 -1t14.5 -3q8 -2 12 -2l-18 -86q-4 -2 -13 -5q-8 -2 -36 -2 q-29 0 -37 2t-13 5zM989 1604l19 86q4 0 12 2q16 4 39 4q12 0 20 -1t15 -3q8 -2 12 -2l-19 -86q-4 -2 -12 -5q-8 -2 -37 -2t-37 2t-12 5z" />
<glyph unicode="&#xd7;" horiz-adv-x="923" d="M117 356l284 236l-184 235q2 2 6 9q4 6 23 20q6 6 12 9t10 7q6 2 11 5l186 -234l285 234l8 -5q4 -4 8 -7t8 -9q10 -12 12 -20q2 -6 2 -9l-284 -235l184 -236q-2 -2 -6 -8q-6 -10 -20 -20q-8 -6 -13.5 -10.5t-9.5 -8.5q-6 -4 -10 -4l-187 236l-284 -236q-4 0 -8 4 l-8.5 8.5t-8.5 10.5q-10 8 -14 20q-2 6 -2 8z" />
<glyph unicode="&#xd8;" horiz-adv-x="1386" d="M41 -90l174 227q-59 92 -71.5 239.5t30.5 360.5q41 199 107.5 342.5t155.5 235.5t198.5 136t236.5 44q199 0 304 -102l131 170q2 2 10 4q12 4 31 4q18 0 30 -4q6 -2 6 -4l-167 -220q63 -92 75.5 -240.5t-32.5 -365.5q-82 -397 -262.5 -577t-434.5 -180q-203 0 -309 108 l-137 -178q-4 -2 -11 -4q-4 -2 -12 -2h-18q-20 0 -27 2q-6 2 -8 4zM211 413.5q4 -130.5 51 -214.5l873 1138q-47 51 -112 74t-151 23q-111 0 -206 -38t-173.5 -122t-140 -216t-104.5 -321q-41 -193 -37 -323.5zM297 145q47 -53 115.5 -78.5t156.5 -25.5q104 0 198.5 38 t173.5 122t141.5 216t103.5 320q45 197 39 331t-54 218z" />
<glyph unicode="&#xd9;" horiz-adv-x="1361" d="M167 252q-17 88 7 203l215 1013q4 0 10 2q12 4 27 5q10 0 15 -1t10 -4q4 -2 8 -2l-217 -1022q-41 -195 43 -300t276 -105q190 0 318.5 105.5t169.5 299.5l217 1022q4 0 10 2q12 4 24 5q12 0 25 -5q6 -2 8 -2l-215 -1013q-49 -229 -197.5 -352t-361.5 -123 q-106 0 -188 31.5t-134.5 92t-69.5 148.5zM727 1851q12 14 29.5 23.5t38.5 9.5l174 -307q-10 -12 -20.5 -18.5t-28.5 -8.5z" />
<glyph unicode="&#xda;" horiz-adv-x="1361" d="M167 252q-17 88 7 203l215 1013q4 0 10 2q12 4 27 5q10 0 15 -1t10 -4q4 -2 8 -2l-217 -1022q-41 -195 43 -300t276 -105q190 0 318.5 105.5t169.5 299.5l217 1022q4 0 10 2q12 4 24 5q12 0 25 -5q6 -2 8 -2l-215 -1013q-49 -229 -197.5 -352t-361.5 -123 q-106 0 -188 31.5t-134.5 92t-69.5 148.5zM762 1583l305 307q43 0 59 -35l-321 -301q-33 2 -43 29z" />
<glyph unicode="&#xdb;" horiz-adv-x="1361" d="M167 252q-17 88 7 203l215 1013q4 0 10 2q12 4 27 5q10 0 15 -1t10 -4q4 -2 8 -2l-217 -1022q-41 -195 43 -300t276 -105q190 0 318.5 105.5t169.5 299.5l217 1022q4 0 10 2q12 4 24 5q12 0 25 -5q6 -2 8 -2l-215 -1013q-49 -229 -198.5 -352t-362.5 -123 q-106 0 -188 31.5t-133.5 92t-68.5 148.5zM616 1622l299 207h54l207 -207q-6 -16 -13.5 -26.5t-21.5 -14.5l-207 186l-285 -188q-33 14 -33 43z" />
<glyph unicode="&#xdc;" horiz-adv-x="1361" d="M167 252q-17 88 7 203l215 1013q4 0 10 2q12 4 27 5q10 0 15 -1t10 -4q4 -2 8 -2l-217 -1022q-41 -195 43 -300t276 -105q190 0 318.5 105.5t169.5 299.5l217 1022q4 0 10 2q12 4 24 5q12 0 25 -5q6 -2 8 -2l-215 -1013q-49 -229 -198.5 -352t-362.5 -123 q-106 0 -188 31.5t-133.5 92t-68.5 148.5zM686 1624l19 86q4 0 12 2q16 4 39 4q12 0 20 -1t15 -3q8 -2 12 -2l-19 -86q-6 -2 -14 -4t-37 -2t-37 2t-10 4zM975 1624l18 86q4 0 13 2q16 4 38 4q12 0 20.5 -1t14.5 -3q8 -2 13 -2l-19 -86q-6 -2 -14 -4t-37 -2t-37 2t-10 4z" />
<glyph unicode="&#xdd;" horiz-adv-x="1241" d="M227 1468q4 0 13 2q16 4 32 5q14 0 27 -5q6 -2 8 -2l324 -768l663 768q2 0 11 2q12 4 34 5q20 0 33 -5q6 -2 8 -2l-727 -843l-131 -619q-4 -2 -10 -4t-27 -2q-18 0 -24 2t-8 4l131 617zM680 1554l305 308q43 0 59 -35l-321 -301q-33 2 -43 28z" />
<glyph unicode="&#xde;" horiz-adv-x="1228" d="M90 6l309 1462q2 0 9 2q12 4 28 5q18 0 27 -5q4 -2 6 -2l-63 -299h415q94 0 163 -30.5t111 -87t53 -133t-7 -168.5q-39 -184 -160 -291t-311 -107h-437l-73 -346q-2 -2 -8 -4t-29 -2t-27 2t-6 4zM246 418h428q154 0 257 90t138 250q35 164 -29.5 255t-218.5 91h-428z" />
<glyph unicode="&#xdf;" horiz-adv-x="1165" d="M57 6l240 1133q43 205 164 301t319 96q98 0 161 -30.5t96.5 -80t40.5 -112t-7 -125.5q-10 -45 -23.5 -80t-27.5 -61q-16 -31 -33 -56q-74 -8 -137 -30q-53 -23 -102.5 -64t-65.5 -119q-12 -57 11.5 -94t63.5 -66.5t88 -56t86 -65.5t57.5 -94.5t0.5 -141.5 q-27 -125 -124 -202.5t-257 -77.5q-53 0 -91 5t-60 11q-27 8 -45 18q4 16 11 29.5t19 22.5q25 -10 76 -17.5t92 -7.5q74 0 127.5 19.5t91 50t59 71.5t32.5 84q16 76 -4.5 125t-59.5 83t-87 60.5t-87 59.5t-60.5 78t-5.5 116q18 92 72.5 143.5t114.5 78.5q68 29 147 37 q10 18 19 40q8 18 16 44t14 57q12 55 7 107.5t-31.5 92t-77.5 63.5t-131 24q-182 0 -275.5 -89.5t-128.5 -246.5l-239 -1133q-2 -2 -8 -4t-27 -2q-20 0 -25 2q-4 2 -6 4z" />
<glyph unicode="&#xe0;" d="M92 274.5q6 -106.5 46 -172t107.5 -94t157.5 -28.5q133 0 227.5 54t160.5 150l-27 -178q2 -2 6 -4t18 -2q16 0 21 2l8 4l227 1071q-2 0 -6 2q-8 4 -22 4q-16 0 -25 -4l-4 -2l-47 -184q-23 92 -100.5 148.5t-198.5 56.5q-94 0 -175 -29t-146.5 -94.5t-116.5 -173 t-84 -262.5q-33 -158 -27 -264.5zM185.5 158.5q-56.5 117.5 2.5 380.5q59 262 168 379.5t297 117.5q76 0 129.5 -33.5t83 -87t35.5 -119t-8 -128.5l-59 -258q-14 -63 -50 -129t-88.5 -119t-121 -87t-150.5 -34q-182 0 -238.5 117.5zM565 1540q12 14 29 23.5t37 9.5l174 -307 q-14 -25 -49 -27z" />
<glyph unicode="&#xe1;" d="M92 274.5q-6 106.5 27 264.5q33 156 84 263t116.5 172.5t146.5 94.5t175 29q121 0 199 -56.5t100 -148.5l47 184l4 2q8 4 25 4q14 0 22 -4q4 -2 6 -2l-227 -1071l-8 -4q-4 -2 -21 -2q-14 0 -18 2t-6 4l27 178q-66 -96 -160 -150t-228 -54q-90 0 -157.5 28.5t-107.5 94 t-46 172zM185.5 159q56.5 -118 238.5 -118q82 0 150.5 34t121 87t88 118.5t50.5 129.5l59 258q14 63 8 128.5t-35.5 119t-83 87t-129.5 33.5q-188 0 -296.5 -117.5t-168.5 -379.5q-59 -262 -2.5 -380zM557 1270l305 307q41 0 58 -35l-320 -301q-37 2 -43 29z" />
<glyph unicode="&#xe2;" d="M92 274.5q-6 106.5 27 264.5q33 156 84 263t116.5 172.5t146.5 94.5t175 29q121 0 199 -56.5t100 -148.5l47 184l4 2q8 4 25 4q14 0 22 -4q4 -2 6 -2l-227 -1071l-8 -4q-4 -2 -21 -2q-14 0 -18 2t-6 4l27 178q-66 -96 -160 -150t-228 -54q-90 0 -157.5 28.5t-107.5 94 t-46 172zM185.5 159q56.5 -118 238.5 -118q82 0 150.5 34t121 87t88 118.5t50.5 129.5l59 258q14 63 8 128.5t-35.5 119t-83 87t-129.5 33.5q-188 0 -296.5 -117.5t-168.5 -379.5q-59 -262 -2.5 -380zM438 1274l295 203h51l201 -203q-6 -14 -12 -24.5t-23 -14.5l-198 180 l-283 -182q-31 14 -31 41z" />
<glyph unicode="&#xe3;" d="M92 274.5q-6 106.5 27 264.5q33 156 84 263t116.5 172.5t146.5 94.5t175 29q121 0 199 -56.5t100 -148.5l47 184l4 2q8 4 25 4q14 0 22 -4q4 -2 6 -2l-227 -1071l-8 -4q-4 -2 -21 -2q-14 0 -18 2t-6 4l27 178q-66 -96 -160 -150t-228 -54q-90 0 -157.5 28.5t-107.5 94 t-46 172zM185.5 159q56.5 -118 238.5 -118q82 0 150.5 34t121 87t88 118.5t50.5 129.5l59 258q14 63 8 128.5t-35.5 119t-83 87t-129.5 33.5q-188 0 -296.5 -117.5t-168.5 -379.5q-59 -262 -2.5 -380zM494 1343q12 27 32 50q16 18 44 33.5t69 15.5q37 0 65.5 -11.5t54 -25.5 t50 -25.5t53.5 -11.5q23 0 39.5 9t28.5 20q14 12 24 30q16 2 29.5 -3t20.5 -19q-12 -27 -35 -47q-18 -18 -46 -32.5t-67 -14.5q-37 0 -65.5 11t-53 24.5t-49 24.5t-53.5 11q-23 0 -39 -10t-29 -20q-14 -14 -24 -31q-39 -4 -49 22z" />
<glyph unicode="&#xe4;" d="M92 274.5q-6 106.5 27 264.5q33 156 84 263t116.5 172.5t146.5 94.5t175 29q121 0 199 -56.5t100 -148.5l47 184l4 2q8 4 25 4q14 0 22 -4q4 -2 6 -2l-227 -1071l-8 -4q-4 -2 -21 -2q-14 0 -18 2t-6 4l27 178q-66 -96 -160 -150t-228 -54q-90 0 -157.5 28.5t-107.5 94 t-46 172zM185.5 159q56.5 -118 238.5 -118q82 0 150.5 34t121 87t88 118.5t50.5 129.5l59 258q14 63 8 128.5t-35.5 119t-83 87t-129.5 33.5q-188 0 -296.5 -117.5t-168.5 -379.5q-59 -262 -2.5 -380zM522 1309l19 86q4 0 12 2q16 4 37 4q20 0 37 -4q8 -2 12 -2l-18 -86 q-6 -2 -15 -4q-8 -2 -37 -2t-37 2t-10 4zM811 1309l18 86q4 0 13 2q16 4 37 4q20 0 36 -4q8 -2 13 -2l-19 -86q-6 -2 -14 -4t-37 -2t-37 2t-10 4z" />
<glyph unicode="&#xe5;" d="M92 274.5q-6 106.5 27 264.5q33 156 84 263t116.5 172.5t146.5 94.5t175 29q121 0 199 -56.5t100 -148.5l47 184l4 2q8 4 25 4q14 0 22 -4q4 -2 6 -2l-227 -1071l-8 -4q-4 -2 -21 -2q-14 0 -18 2t-6 4l27 178q-66 -96 -160 -150t-228 -54q-90 0 -157.5 28.5t-107.5 94 t-46 172zM185.5 159q56.5 -118 238.5 -118q82 0 150.5 34t121 87t88 118.5t50.5 129.5l59 258q14 63 8 128.5t-35.5 119t-83 87t-129.5 33.5q-188 0 -296.5 -117.5t-168.5 -379.5q-59 -262 -2.5 -380zM506 1425q10 51 36.5 91t64.5 68t82 41t87 13t82 -13t66.5 -39.5 t40 -66.5t2.5 -94q-23 -104 -102 -160.5t-175 -56.5t-151.5 56.5t-32.5 160.5zM571 1425q-14 -59 14.5 -108t112.5 -49q86 0 137.5 49t65.5 108t-16.5 106.5t-116.5 47.5q-84 0 -133 -47t-64 -107z" />
<glyph unicode="&#xe6;" horiz-adv-x="1646" d="M92 274.5q-6 106.5 27 264.5q33 156 85 263t117.5 172.5t141.5 94.5t155 29q66 0 112 -14.5t77 -40t50.5 -64.5t31.5 -88l41 186l4 2q8 4 24 4q14 0 23 -4q4 -2 6 -2l-43 -196q72 109 162 163t192 54q86 0 143.5 -29t88.5 -79t36 -119.5t-12 -149.5q-10 -41 -20 -75 t-21 -58q-10 -29 -22 -53h-621q-43 -250 8.5 -370t204.5 -120q59 0 106.5 11.5t82.5 27.5q37 18 67 41q29 -16 25 -51q-35 -27 -80 -47q-39 -18 -95 -32.5t-128 -14.5q-223 0 -260 221l-41 -195l-8 -4q-4 -2 -21 -2q-14 0 -18 2t-6 4l32 174q-61 -96 -143 -148t-215 -52 q-80 0 -143.5 28.5t-101.5 94t-44 172zM188 539q-55 -262 1.5 -380t220.5 -118q82 0 145 34t110.5 87t77 118.5t41.5 129.5l56 258q12 59 11 123.5t-24.5 119t-72.5 90t-131 35.5q-164 0 -271.5 -116.5t-163.5 -380.5zM885 596h563q4 10 12 31q4 16 11.5 41.5t15.5 62.5 q12 61 10 116.5t-24.5 97.5t-67.5 66.5t-119 24.5q-63 0 -122.5 -23.5t-112 -76.5t-95.5 -137t-71 -203z" />
<glyph unicode="&#xe7;" horiz-adv-x="905" d="M119 -465q8 29 31 45q18 -10 40 -18q20 -8 48 -13.5t63 -5.5q158 0 188 144q14 59 -18.5 91t-103.5 32h-64l-10 16l63 160q-164 25 -227 170t-10 401q57 274 196.5 407.5t341.5 133.5q59 0 101.5 -7.5t70.5 -17.5q33 -10 56 -22q-6 -39 -37 -58q-20 12 -49 21 q-25 8 -59.5 14t-82.5 6q-190 0 -304.5 -125t-168.5 -370q-53 -248 13.5 -371t259.5 -123q49 0 90 7t69 18q35 10 62 24q10 -8 14 -23.5t2 -31.5q-33 -18 -71 -31q-35 -10 -84.5 -19t-110.5 -9h-16l-47 -113q111 0 157.5 -52.5t28.5 -138.5q-20 -98 -85 -143t-179 -45 q-39 0 -70 6t-53 17q-25 10 -45 24z" />
<glyph unicode="&#xe8;" horiz-adv-x="1036" d="M113 545q63 291 203.5 422t324.5 131q92 0 155.5 -29t100.5 -79t47 -119.5t-6 -149.5q-10 -47 -21.5 -85t-21.5 -65q-10 -31 -23 -55h-694q-45 -250 20.5 -359.5t243.5 -109.5q63 0 115.5 12.5t89.5 28.5q43 18 76 41q29 -18 25 -57q-37 -27 -86 -47 q-41 -16 -103.5 -30.5t-140.5 -14.5q-201 0 -283 142t-22 423zM190 578h639q6 18 15 40q6 20 14 48t16 65q12 61 8.5 116.5t-31.5 97.5t-79 66.5t-133 24.5q-156 0 -273.5 -109.5t-175.5 -348.5zM543 1528q12 14 31.5 23.5t39.5 9.5l172 -301q-18 -23 -55 -27z" />
<glyph unicode="&#xe9;" horiz-adv-x="1036" d="M113 545q63 291 203.5 422t324.5 131q92 0 155.5 -29t100.5 -79t47 -119.5t-6 -149.5q-10 -47 -21.5 -85t-21.5 -65q-10 -31 -23 -55h-694q-45 -250 20.5 -359.5t243.5 -109.5q63 0 115.5 12.5t89.5 28.5q43 18 76 41q29 -18 25 -57q-37 -27 -86 -47 q-41 -16 -103.5 -30.5t-140.5 -14.5q-201 0 -283 142t-22 423zM190 578h639q6 18 15 40q6 20 14 48t16 65q12 61 8.5 116.5t-31.5 97.5t-79 66.5t-133 24.5q-156 0 -273.5 -109.5t-175.5 -348.5zM541 1260l297 301q43 0 57 -33l-313 -295q-35 4 -41 27z" />
<glyph unicode="&#xea;" horiz-adv-x="1036" d="M113 545q63 291 203.5 422t324.5 131q92 0 155.5 -29t100.5 -79t47 -119.5t-6 -149.5q-10 -47 -21.5 -85t-21.5 -65q-10 -31 -23 -55h-694q-45 -250 20.5 -359.5t243.5 -109.5q63 0 115.5 12.5t89.5 28.5q43 18 76 41q29 -18 25 -57q-37 -27 -86 -47 q-41 -16 -103.5 -30.5t-140.5 -14.5q-201 0 -283 142t-22 423zM190 578h639q6 18 15 40q6 20 14 48t16 65q12 61 8.5 116.5t-31.5 97.5t-79 66.5t-133 24.5q-156 0 -273.5 -109.5t-175.5 -348.5zM414 1274l291 203h51l205 -203q-6 -14 -12.5 -23.5t-22.5 -13.5l-203 180 l-279 -182q-14 6 -22 14t-8 25z" />
<glyph unicode="&#xeb;" horiz-adv-x="1036" d="M113 545q63 291 203.5 422t324.5 131q92 0 155.5 -29t100.5 -79t47 -119.5t-6 -149.5q-10 -47 -21.5 -85t-21.5 -65q-10 -31 -23 -55h-694q-45 -250 20.5 -359.5t243.5 -109.5q63 0 115.5 12.5t89.5 28.5q43 18 76 41q29 -18 25 -57q-37 -27 -86 -47 q-41 -16 -103.5 -30.5t-140.5 -14.5q-201 0 -283 142t-22 423zM190 578h639q6 18 15 40q6 20 14 48t16 65q12 61 8.5 116.5t-31.5 97.5t-79 66.5t-133 24.5q-156 0 -273.5 -109.5t-175.5 -348.5zM489 1300l17 86q4 0 12 3q16 4 39 4q12 0 20.5 -1t14.5 -3l12 -3l-16 -86 q-6 -2 -15 -4q-8 -2 -36 -2q-29 0 -37 2t-11 4zM778 1300l17 86q4 0 12 3q16 4 39 4q12 0 20 -1t15 -3l12 -3l-16 -86q-6 -2 -15 -4q-8 -2 -37 -2t-37 2t-10 4z" />
<glyph unicode="&#xec;" horiz-adv-x="454" d="M63 6l226 1065q2 0 8 2q12 4 27 4q16 0 24 -4q4 -2 6 -2l-225 -1065q-2 -2 -8 -4t-27 -2q-20 0 -24 2t-7 4zM219 1554q12 14 28.5 23.5t37.5 9.5l174 -307q-10 -12 -19.5 -18.5t-27.5 -8.5z" />
<glyph unicode="&#xed;" horiz-adv-x="454" d="M63 6l226 1065q2 0 8 2q12 4 27 4q16 0 24 -4q4 -2 6 -2l-225 -1065q-2 -2 -8 -4t-27 -2q-20 0 -24 2t-7 4zM246 1278l303 307q43 0 59 -35l-319 -301q-37 2 -43 29z" />
<glyph unicode="&#xee;" horiz-adv-x="454" d="M63 6l226 1065q2 0 8 2q12 4 27 4q16 0 24 -4q4 -2 6 -2l-225 -1065q-2 -2 -8 -4t-27 -2q-20 0 -24 2t-7 4zM94 1274l291 203h51l209 -203q-14 -33 -41 -39l-203 180l-278 -182q-29 12 -29 41z" />
<glyph unicode="&#xef;" horiz-adv-x="454" d="M63 6l226 1065q2 0 8 2q12 4 27 4q16 0 24 -4q4 -2 6 -2l-225 -1065q-2 -2 -8 -4t-27 -2q-20 0 -24 2t-7 4zM160 1239l16 86q4 0 12 2q16 4 39 4q12 0 20.5 -1t14.5 -3q8 -2 12 -2l-16 -86q-6 -2 -14 -4t-37 -2t-37 2t-10 4zM449 1239l16 86q4 0 12 2q16 4 39 4 q12 0 20.5 -1t14.5 -3q8 -2 12 -2l-16 -86q-6 -2 -15 -4q-8 -2 -36 -2q-29 0 -37 2t-10 4z" />
<glyph unicode="&#xf0;" d="M89 270.5q-9 102.5 22 245.5q59 287 191 412t312 125q141 0 231.5 -62.5t106.5 -175.5q4 92 -4 165t-29.5 133.5t-54.5 110.5t-76 95l-272 -152q-14 8 -20.5 22.5t-3.5 31.5l251 139q-109 88 -268 121q0 33 25 55q182 -37 307 -139l170 94q29 -16 22 -53l-147 -82 q113 -117 150.5 -298t-15.5 -429q-39 -184 -93 -309t-124 -201t-156 -107.5t-188 -31.5q-96 0 -169 29.5t-116 94t-52 167zM157.5 290q6.5 -91 40 -147.5t93 -80t137.5 -23.5t147.5 23.5t129 80t105.5 147.5t75 226q29 137 20.5 228.5t-46.5 146.5t-101.5 77.5t-143.5 22.5 q-78 0 -144.5 -23.5t-121.5 -78.5t-97 -146.5t-71 -226.5t-22.5 -226z" />
<glyph unicode="&#xf1;" horiz-adv-x="1126" d="M57 6l226 1065q2 0 8 2q12 4 26 4q16 0 25 -4q4 -2 6 -2l-39 -180q86 98 190.5 152.5t231.5 54.5q145 0 213 -82t37 -221l-166 -789q-2 -2 -8 -4t-27 -2q-20 0 -24 2t-6 4l163 772q29 135 -22 197.5t-180 62.5q-53 0 -111.5 -18.5t-116 -53t-108.5 -83.5t-90 -113 l-162 -764q-2 -2 -8 -4t-27 -2q-20 0 -25 2q-4 2 -6 4zM463 1266q12 25 33 47q16 18 43.5 33.5t68.5 15.5q37 0 65.5 -11.5t54.5 -24.5t50 -24.5t53 -11.5q23 0 39.5 9.5t28.5 19.5q14 12 25 31q16 2 29.5 -3.5t19.5 -19.5q-12 -27 -33 -47q-16 -18 -44 -32.5t-67 -14.5 q-37 0 -65.5 11t-54 24.5t-51 25t-54.5 11.5q-23 0 -39 -10.5t-28 -20.5q-14 -14 -25 -31q-39 -4 -49 23z" />
<glyph unicode="&#xf2;" horiz-adv-x="1099" d="M94 280.5q-8 106.5 23 258.5t79 258t114.5 172.5t149.5 97.5t181 31t170 -31t112 -97.5t48 -173t-23 -257.5q-31 -152 -79 -258.5t-114.5 -173t-149.5 -97t-181 -30.5t-170 30.5t-112 97t-48 173zM159.5 300.5q4.5 -95.5 36 -153t91 -82t139.5 -24.5t149.5 24.5t126 82 t101.5 152.5t76 239q31 143 26.5 238t-37 152.5t-91 82t-138.5 24.5t-149.5 -24.5t-127 -82t-101.5 -152.5t-75 -238t-26.5 -238.5zM479 1538q10 16 28.5 27.5t39.5 11.5l192 -287q-14 -27 -51 -33z" />
<glyph unicode="&#xf3;" horiz-adv-x="1099" d="M94 280.5q-8 106.5 23 258.5t79 258t114.5 172.5t149.5 97.5t181 31t170 -31t112 -97.5t48 -173t-23 -257.5q-31 -152 -79 -258.5t-114.5 -173t-149.5 -97t-181 -30.5t-170 30.5t-112 97t-48 173zM159.5 300.5q4.5 -95.5 36 -153t91 -82t139.5 -24.5t149.5 24.5t126 82 t101.5 152.5t76 239q31 143 26.5 238t-37 152.5t-91 82t-138.5 24.5t-149.5 -24.5t-127 -82t-101.5 -152.5t-75 -238t-26.5 -238.5zM532 1278l304 307q43 0 59 -35l-320 -301q-37 2 -43 29z" />
<glyph unicode="&#xf4;" horiz-adv-x="1099" d="M94 280.5q-8 106.5 23 258.5t79 258t114.5 172.5t149.5 97.5t181 31t170 -31t112 -97.5t48 -173t-23 -257.5q-31 -152 -79 -258.5t-114.5 -173t-149.5 -97t-181 -30.5t-170 30.5t-112 97t-48 173zM159.5 300.5q4.5 -95.5 36 -153t91 -82t139.5 -24.5t149.5 24.5t126 82 t101.5 152.5t76 239q31 143 26.5 238t-37 152.5t-91 82t-138.5 24.5t-149.5 -24.5t-127 -82t-101.5 -152.5t-75 -238t-26.5 -238.5zM414 1274l291 203h51l205 -203q-6 -14 -12.5 -24.5t-22.5 -14.5l-203 180l-279 -182q-31 14 -30 41z" />
<glyph unicode="&#xf5;" horiz-adv-x="1099" d="M94 280.5q-8 106.5 23 258.5t79 258t114.5 172.5t149.5 97.5t181 31t170 -31t112 -97.5t48 -173t-23 -257.5q-31 -152 -79 -258.5t-114.5 -173t-149.5 -97t-181 -30.5t-170 30.5t-112 97t-48 173zM159.5 300.5q4.5 -95.5 36 -153t91 -82t139.5 -24.5t149.5 24.5t126 82 t101.5 152.5t76 239q31 143 26.5 238t-37 152.5t-91 82t-138.5 24.5t-149.5 -24.5t-127 -82t-101.5 -152.5t-75 -238t-26.5 -238.5zM440 1315q12 27 35 49q18 18 46 33.5t69 15.5q37 0 64.5 -11t52 -25.5t49 -26t53.5 -11.5q23 0 39 9.5t29 19.5q14 12 24 31q16 2 29.5 -3 t19.5 -20q-12 -27 -35 -49q-18 -18 -45.5 -32.5t-66.5 -14.5q-37 0 -65.5 11.5t-53.5 25.5t-49.5 25.5t-52.5 11.5q-23 0 -39.5 -10.5t-28.5 -20.5q-14 -14 -25 -31q-39 -4 -49 23z" />
<glyph unicode="&#xf6;" horiz-adv-x="1099" d="M94 280.5q-8 106.5 23 258.5t79 258t114.5 172.5t149.5 97.5t181 31t170 -31t112 -97.5t48 -173t-23 -257.5q-31 -152 -79 -258.5t-114.5 -173t-149.5 -97t-181 -30.5t-170 30.5t-112 97t-48 173zM159.5 300.5q4.5 -95.5 36 -153t91 -82t139.5 -24.5t149.5 24.5t126 82 t101.5 152.5t76 239q31 143 26.5 238t-37 152.5t-91 82t-138.5 24.5t-149.5 -24.5t-127 -82t-101.5 -152.5t-75 -238t-26.5 -238.5zM492 1300l16 86q4 0 12 3q16 4 39 4q12 0 20.5 -1t14.5 -3l12 -3l-16 -86q-6 -2 -15 -4q-8 -2 -36 -2q-29 0 -37 2t-10 4zM780 1300l17 86 q4 0 12 3q16 4 39 4q12 0 20.5 -1t14.5 -3l12 -3l-16 -86q-6 -2 -15 -4q-8 -2 -37 -2t-36 2q-8 2 -11 4z" />
<glyph unicode="&#xf7;" horiz-adv-x="1153" d="M168 569v9.5t4 15.5q2 14 8 24q2 4 4 7h781q2 -2 2 -7v-10t-2 -14q-4 -10 -6.5 -15.5t-4.5 -9.5t-4 -6h-780q-2 2 -2 6zM440 221l19 86q4 0 12 2q16 4 37 4q20 0 37 -4q8 -2 12 -2l-18 -86q-6 -2 -15 -4q-8 -2 -37 -2t-36 2q-8 2 -11 4zM580 881l18 86q4 0 12 2 q16 4 39 4q12 0 20.5 -1t14.5 -3q8 -2 12 -2l-18 -86q-4 -2 -12 -4t-37 -3q-29 0 -37 3q-8 2 -12 4z" />
<glyph unicode="&#xf8;" horiz-adv-x="1095" d="M8 -88l139 182q-45 66 -54 175.5t22 269.5q31 152 79 258t114.5 172.5t149.5 97.5t181 31q145 0 229 -66l101 131q2 0 8 2q12 4 33 4q18 0 26 -4q4 -2 6 -2l-133 -174q47 -66 58.5 -176.5t-21.5 -273.5q-31 -152 -79 -258.5t-114.5 -173t-149.5 -97t-181 -30.5 q-152 0 -234 69l-106 -137q-2 -2 -8 -4t-33 -2q-23 0 -27 2t-6 4zM156.5 303.5q3.5 -94.5 33.5 -153.5l637 831q-35 31 -83 44t-107 13q-80 0 -149.5 -24.5t-127 -83t-101.5 -153.5t-75 -238q-31 -141 -27.5 -235.5zM227 102q35 -35 84.5 -49t112.5 -14q80 0 149.5 24.5 t126 83t101.5 153.5t76 239q31 145 26.5 240t-37.5 155z" />
<glyph unicode="&#xf9;" horiz-adv-x="1128" d="M104.5 160.5q-12.5 58.5 4.5 132.5l167 778q2 0 9 2q12 4 26 4q16 0 25 -4q4 -2 6 -2l-164 -772q-29 -135 24.5 -198.5t182.5 -63.5q53 0 110.5 18.5t113 53t106.5 85t92 113.5l162 764q2 0 8 2q12 4 27 4q16 0 24 -4q4 -2 6 -2l-225 -1065q-2 -2 -8 -4t-27 -2 q-20 0 -24 2t-7 4l37 180q-86 -96 -185 -151t-224 -55q-72 0 -128.5 21.5t-91 61t-47 98zM561 1538q10 14 28.5 23.5t37.5 9.5l161 -281q-20 -25 -51 -26z" />
<glyph unicode="&#xfa;" horiz-adv-x="1128" d="M104.5 160.5q-12.5 58.5 4.5 132.5l167 778q2 0 9 2q12 4 26 4q16 0 25 -4q4 -2 6 -2l-164 -772q-29 -135 24.5 -198.5t182.5 -63.5q53 0 110.5 18.5t113 53t106.5 85t92 113.5l162 764q2 0 8 2q12 4 27 4q16 0 24 -4q4 -2 6 -2l-225 -1065q-2 -2 -8 -4t-27 -2 q-20 0 -24 2t-7 4l37 180q-86 -96 -185 -151t-224 -55q-72 0 -128.5 21.5t-91 61t-47 98zM563 1278l303 307q43 0 60 -35l-320 -301q-37 2 -43 29z" />
<glyph unicode="&#xfb;" horiz-adv-x="1128" d="M104.5 160.5q-12.5 58.5 4.5 132.5l167 778q2 0 9 2q12 4 26 4q16 0 25 -4q4 -2 6 -2l-164 -772q-29 -135 24.5 -198.5t182.5 -63.5q53 0 110.5 18.5t113 53t106.5 85t92 113.5l162 764q2 0 8 2q12 4 27 4q16 0 24 -4q4 -2 6 -2l-225 -1065q-2 -2 -8 -4t-27 -2 q-20 0 -24 2t-7 4l37 180q-86 -96 -185 -151t-224 -55q-72 0 -128.5 21.5t-91 61t-47 98zM424 1274l291 203h51l205 -203q-14 -33 -41 -39l-197 180l-284 -182q-25 10 -25 41z" />
<glyph unicode="&#xfc;" horiz-adv-x="1128" d="M104.5 160.5q-12.5 58.5 4.5 132.5l167 778q2 0 9 2q12 4 26 4q16 0 25 -4q4 -2 6 -2l-164 -772q-29 -135 24.5 -198.5t182.5 -63.5q53 0 110.5 18.5t113 53t106.5 85t92 113.5l162 764q2 0 8 2q12 4 27 4q16 0 24 -4q4 -2 6 -2l-225 -1065q-2 -2 -8 -4t-27 -2 q-20 0 -24 2t-7 4l37 180q-86 -96 -185 -151t-224 -55q-72 0 -128.5 21.5t-91 61t-47 98zM496 1300l16 86q4 0 12 3q16 4 39 4q12 0 20.5 -1t14.5 -3l12 -3l-16 -86q-6 -2 -14 -4t-37 -2t-37 2t-10 4zM784 1300l17 86q4 0 12 3q16 4 39 4q12 0 20.5 -1t14.5 -3l12 -3 l-16 -86q-6 -2 -15 -4q-8 -2 -37 -2t-36 2q-8 2 -11 4z" />
<glyph unicode="&#xfd;" horiz-adv-x="1124" d="M14 -463q4 39 35 55q27 -12 64 -20q31 -8 72.5 -13t90.5 -5q84 0 157 20t132.5 72.5t103.5 139.5t72 222l37 178q-86 -96 -188.5 -151t-227.5 -55q-145 0 -214.5 81.5t-41.5 221.5l168 788q2 0 9 2q12 4 26 4q16 0 25 -4q4 -2 6 -2l-164 -772q-29 -135 25.5 -197.5 t183.5 -62.5q106 0 222 69.5t198 198.5l162 764q2 0 8 2q12 4 26 4q16 0 25 -4q4 -2 6 -2l-227 -1065q-31 -127 -75 -224t-108.5 -162.5t-153.5 -98.5t-206 -33q-61 0 -107 7t-77 18q-37 10 -64 24zM590 1257l305 308q43 0 59 -35l-321 -301q-33 2 -43 28z" />
<glyph unicode="&#xfe;" d="M-53 -506l434 2036l6 2q8 4 27 4q10 0 15 -1t9 -3t8 -2l-135 -631q66 92 154 145.5t221 53.5q94 0 164 -29t109.5 -94.5t47 -173t-25.5 -262.5q-33 -158 -82 -264.5t-113.5 -172t-143.5 -94t-173 -28.5q-133 0 -208 53t-103 145l-146 -684l-8 -4q-6 -2 -24 -2 q-23 0 -27 2q-6 2 -6 4zM201 281q6 -66 35.5 -119t83 -87t135.5 -34q188 0 294.5 117.5t161.5 380.5q55 262 0 379.5t-243 117.5q-80 0 -147.5 -32.5t-119 -84t-86 -115t-49.5 -124.5l-59 -270q-12 -63 -6 -129z" />
<glyph unicode="&#xff;" horiz-adv-x="1124" d="M14 -463q4 39 35 55q27 -12 64 -20q31 -8 72.5 -13t90.5 -5q84 0 157 20t132.5 72.5t103.5 139.5t72 222l37 178q-86 -96 -188.5 -151t-227.5 -55q-145 0 -214.5 81.5t-41.5 221.5l168 788q2 0 9 2q12 4 26 4q16 0 25 -4q4 -2 6 -2l-164 -772q-29 -135 25.5 -197.5 t183.5 -62.5q106 0 222 69.5t198 198.5l162 764q2 0 8 2q12 4 26 4q16 0 25 -4q4 -2 6 -2l-227 -1065q-31 -127 -75 -224t-108.5 -162.5t-153.5 -98.5t-206 -33q-61 0 -107 7t-77 18q-37 10 -64 24zM514 1319l18 86q4 0 13 2q16 4 37 4q20 0 36 -4q8 -2 13 -2l-19 -86 q-6 -2 -14 -4t-37 -2t-37 2t-10 4zM803 1319l18 86q4 0 13 2q16 4 36 4t37 -4q8 -2 13 -2l-19 -86q-6 -2 -14 -4t-37 -2t-37 2t-10 4z" />
<glyph unicode="&#x152;" horiz-adv-x="1691" d="M138 395.5q-9 143.5 34 341.5q43 199 112.5 342.5t162 235.5t206 136t244.5 44q53 0 97 -7t73 -13h674q2 -12 0 -33q-6 -23 -15 -33h-616l-133 -629h514q2 -12 0 -30q-6 -20 -14 -33h-514l-138 -651h637q2 -14 0 -31q-6 -20 -14 -35h-696q-31 -8 -75 -14t-102 -6 q-131 0 -226 44t-148.5 136t-62.5 235.5zM210 417q5 -132 49 -216t128 -122t201 -38q51 0 95 8t73 19l284 1341q-27 10 -64.5 17.5t-90.5 7.5q-111 0 -210.5 -38t-180 -122t-144 -216.5t-104.5 -320.5t-36 -320z" />
<glyph unicode="&#x153;" horiz-adv-x="1691" d="M87 280.5q-5 106.5 28 258.5t82 258t115.5 172.5t147.5 97.5t177 31q141 0 211 -66.5t80 -220.5q78 150 180 218.5t225 68.5q80 0 137.5 -29t90 -79t41 -119.5t-8.5 -149.5q-10 -47 -21 -85t-22 -65q-10 -31 -22 -55h-631q-45 -250 5 -360.5t214 -110.5q55 0 104.5 11.5 t86.5 27.5q43 18 77 41q29 -16 25 -51q-35 -27 -84 -47q-41 -18 -100.5 -32.5t-134.5 -14.5q-256 0 -279 286q-76 -154 -173 -220t-239 -66q-96 0 -164.5 30.5t-105.5 97t-42 173zM155.5 300.5q2.5 -95.5 32 -154t85 -83t133.5 -24.5t142 26.5t118.5 86t96.5 155.5t75 236 q31 137 31.5 231t-27 152.5t-80.5 85t-129 26.5q-78 0 -146.5 -24.5t-126 -83t-101.5 -153.5t-75 -238t-28.5 -238.5zM909 578h578q6 18 14 40q6 20 14.5 48t16.5 65q12 61 9 116.5t-26.5 97.5t-70.5 66.5t-123 24.5q-139 0 -246.5 -109.5t-165.5 -348.5z" />
<glyph unicode="&#x178;" horiz-adv-x="1241" d="M227 1468q4 0 13 2q16 4 32 5q12 0 25 -5q6 -2 8 -2l324 -768l663 768q2 0 11 2q6 2 14 3.5t22 1.5q20 0 33 -5q6 -2 8 -2l-727 -843l-131 -619q-4 -2 -10 -4t-27 -2q-18 0 -24 2t-8 4l131 617zM627 1606l18 86q4 0 12 2q16 4 39 4q12 0 20.5 -1t14.5 -3q8 -2 12 -2 l-18 -86q-4 -2 -12 -4t-37 -3q-29 0 -37 3q-8 2 -12 4zM915 1606l19 86q4 0 12 2q16 4 39 4q12 0 20.5 -1t14.5 -3q8 -2 12 -2l-18 -86q-4 -2 -13 -4q-8 -2 -36 -3q-29 0 -37 3q-8 2 -13 4z" />
<glyph unicode="&#x2c6;" horiz-adv-x="811" d="M66 1192l296 207h54l209 -207q-14 -35 -43 -41l-207 184l-285 -186q-27 12 -24 43z" />
<glyph unicode="&#x2dc;" horiz-adv-x="669" d="M76 1298q18 27 43 50q23 18 51.5 33.5t69.5 15.5q37 0 62.5 -11.5t47 -25.5t42.5 -25.5t50 -11.5q23 0 39.5 9t28.5 20q14 12 25 30q37 4 49 -22q-18 -27 -43 -49q-23 -18 -52.5 -32.5t-68.5 -14.5q-37 0 -62.5 11t-47 25.5t-43 25.5t-50.5 11q-23 0 -40 -10t-30 -20 q-14 -14 -24 -31q-39 -4 -47 22z" />
<glyph unicode="&#x2000;" horiz-adv-x="945" />
<glyph unicode="&#x2001;" horiz-adv-x="1890" />
<glyph unicode="&#x2002;" horiz-adv-x="945" />
<glyph unicode="&#x2003;" horiz-adv-x="1890" />
<glyph unicode="&#x2004;" horiz-adv-x="630" />
<glyph unicode="&#x2005;" horiz-adv-x="472" />
<glyph unicode="&#x2006;" horiz-adv-x="315" />
<glyph unicode="&#x2007;" horiz-adv-x="315" />
<glyph unicode="&#x2008;" horiz-adv-x="236" />
<glyph unicode="&#x2009;" horiz-adv-x="378" />
<glyph unicode="&#x200a;" horiz-adv-x="105" />
<glyph unicode="&#x2010;" horiz-adv-x="727" d="M160 569v9.5t4 15.5q2 14 8 24q2 4 4 7h369q2 -2 2 -7v-10t-2 -14q-4 -10 -6 -15.5t-4 -9.5t-5 -6h-368q-2 2 -2 6z" />
<glyph unicode="&#x2011;" horiz-adv-x="727" d="M160 569v9.5t4 15.5q2 14 8 24q2 4 4 7h369q2 -2 2 -7v-10t-2 -14q-4 -10 -6 -15.5t-4 -9.5t-5 -6h-368q-2 2 -2 6z" />
<glyph unicode="&#x2012;" horiz-adv-x="727" d="M160 569v9.5t4 15.5q2 14 8 24q2 4 4 7h369q2 -2 2 -7v-10t-2 -14q-4 -10 -6 -15.5t-4 -9.5t-5 -6h-368q-2 2 -2 6z" />
<glyph unicode="&#x2013;" horiz-adv-x="1144" d="M164 569v9.5t4 15.5q2 14 8 24q2 4 4 7h778q2 -2 3 -7v-10t-3 -14q-4 -10 -6 -15.5t-4 -9.5t-4 -6h-778q-2 2 -2 6z" />
<glyph unicode="&#x2014;" horiz-adv-x="1656" d="M164 569v9.5t4 15.5q2 14 8 24q2 4 4 7h1290q2 -2 3 -7v-10t-3 -14q-4 -10 -6 -15.5t-4 -9.5t-4 -6h-1290q-2 2 -2 6z" />
<glyph unicode="&#x2018;" horiz-adv-x="413" d="M264 1190l15 65q10 53 34.5 94.5t48.5 69.5q29 33 60 56l24 -25q0 -2 -12 -13.5t-28.5 -33t-33 -52t-28.5 -69.5q10 -2 16.5 -2t10.5 -2q6 -2 10 -2l-19 -86q-4 -2 -12 -4t-37 -2t-37 2t-12 4z" />
<glyph unicode="&#x2019;" horiz-adv-x="407" d="M260 1208q18 18 39 43q16 23 33.5 53.5t32.5 71.5q-23 0 -29 2t-8 4l18 86q4 0 12 2q16 4 39 5q12 0 20.5 -1t14.5 -4q8 -2 12 -2l-12 -65q-12 -53 -35.5 -94t-48.5 -70q-29 -33 -59 -55z" />
<glyph unicode="&#x201a;" horiz-adv-x="399" d="M-39 -168q20 18 39 43q16 23 32.5 53.5t30.5 71.5q-20 0 -26 2t-8 4l18 86q4 0 12 2q16 4 37 4q20 0 37 -4q8 -2 12 -2l-14 -65q-12 -53 -35.5 -94.5t-48.5 -69.5q-29 -33 -59 -56z" />
<glyph unicode="&#x201c;" horiz-adv-x="618" d="M264 1190l15 65q10 53 34.5 94.5t48.5 69.5q29 33 60 56l24 -25q0 -2 -12 -13.5t-28.5 -33t-33 -52t-28.5 -69.5q10 -2 16.5 -2t10.5 -2q6 -2 10 -2l-19 -86q-4 -2 -12 -4t-37 -2t-37 2t-12 4zM469 1190l14 65q10 53 35 94.5t49 69.5q29 33 60 56l24 -25q0 -2 -12 -13.5 t-28.5 -33t-33 -52t-28.5 -69.5q10 -2 16 -2t10 -2q6 -2 11 -2l-19 -86q-4 -2 -12 -4t-37 -2t-37 2t-12 4z" />
<glyph unicode="&#x201d;" horiz-adv-x="612" d="M260 1208q18 18 39 43q16 23 33.5 53.5t32.5 71.5q-23 0 -29 2t-8 4l18 86q4 0 12 2q16 4 39 5q12 0 20.5 -1t14.5 -4q8 -2 12 -2l-12 -65q-12 -53 -35.5 -94t-48.5 -70q-29 -33 -59 -55zM465 1208q18 18 39 43q16 23 33.5 53.5t31.5 71.5q-23 0 -28 2q-6 2 -9 4l19 86 q4 0 12 2q16 4 39 5q12 0 20.5 -1t14.5 -4q8 -2 12 -2l-12 -65q-12 -53 -35.5 -94t-48.5 -70q-29 -33 -59 -55z" />
<glyph unicode="&#x201e;" horiz-adv-x="610" d="M-39 -168q20 18 39 43q16 23 32.5 53.5t30.5 71.5q-20 0 -26 2t-8 4l18 86q4 0 12 2q16 4 37 4q20 0 37 -4q8 -2 12 -2l-14 -65q-12 -53 -35.5 -94.5t-48.5 -69.5q-29 -33 -59 -56zM172 -168q20 18 39 43q16 23 32.5 53.5t30.5 71.5q-20 0 -26 2t-8 4l18 86q4 0 12 2 q16 4 37 4q20 0 37 -4q8 -2 12 -2l-14 -65q-12 -53 -35.5 -94.5t-48.5 -69.5q-29 -33 -59 -56z" />
<glyph unicode="&#x2022;" horiz-adv-x="571" d="M211 578q6 29 27.5 46t48.5 17q29 0 43 -17t8 -46t-26.5 -45.5t-49.5 -16.5q-27 0 -42 16.5t-9 45.5z" />
<glyph unicode="&#x2026;" horiz-adv-x="1024" d="M33 6l18 86q4 0 12 2q16 4 37 4q20 0 37 -4q8 -2 13 -2l-19 -86q-6 -2 -14 -4t-37 -2t-37 2t-10 4zM336 6l18 86q4 0 13 2q16 4 36 4t37 -4q8 -2 13 -2l-19 -86q-6 -2 -14 -4t-37 -2t-37 2t-10 4zM639 6l18 86q4 0 13 2q16 4 37 4q20 0 36 -4q8 -2 13 -2l-19 -86 q-6 -2 -14 -4t-37 -2t-37 2t-10 4z" />
<glyph unicode="&#x202f;" horiz-adv-x="378" />
<glyph unicode="&#x2039;" horiz-adv-x="698" d="M98 532q0 10 2 21q2 6 4 11t5 9l4 9l522 460q10 -6 15 -20t1 -31l-491 -438l305 -440q-10 -39 -39 -52l-326 463q-2 4 -2 8z" />
<glyph unicode="&#x203a;" horiz-adv-x="694" d="M14 113l490 440l-303 438q4 16 13 30.5t24 20.5l325 -460q2 -4 2 -9v-9t-2 -11q-2 -8 -4 -12t-4 -9l-4 -8l-522 -463q-25 14 -15 52z" />
<glyph unicode="&#x205f;" horiz-adv-x="472" />
<glyph unicode="&#x20ac;" horiz-adv-x="1189" d="M90 504q0 4 1 9t5 13q6 16 13 23l6 6h153q4 31 9.5 63.5t13.5 67.5t15 67.5t18 69.5h-164q-2 2 -2 6q0 6 6 23q6 16 12 22l6 7h160q86 256 226.5 384t351.5 128q78 0 131 -10.5t88 -20.5q39 -14 65 -31v-8q-4 -12 -10 -20q-10 -12 -16 -17q-4 -4 -7 -4q-29 14 -65 25 q-33 10 -80 18t-108 8q-82 0 -156 -22.5t-137.5 -75.5t-116.5 -139t-96 -215h571v-7v-9t-4 -13q-6 -16 -12 -23l-6 -6h-568q-8 -33 -16 -67.5t-17 -71.5q-8 -35 -13 -67.5t-9 -61.5h493v-6v-8t-4 -15q-4 -10 -6 -14t-6 -8l-6 -6h-479q-14 -131 1 -219.5t57 -140.5 t106.5 -74.5t148.5 -22.5q66 0 121 7t94 18q45 10 82 26q4 -2 6 -4q4 -8 6 -16t1 -12.5t-1 -8.5q-2 -4 -2 -8q-35 -18 -84 -33q-41 -12 -103.5 -21t-141.5 -9q-211 0 -300.5 126.5t-60.5 391.5h-168q-2 2 -2 6z" />
<glyph unicode="&#x2122;" horiz-adv-x="1286" d="M254 1432q-6 25 8 43h416q10 -18 -8 -43h-185l-116 -541q-2 -2 -7 -4q-4 -2 -16 -2t-16 2t-4 4l116 541h-188zM668 891l123 577q2 0 6 2q8 4 20 5q10 0 19 -5l4 -2l110 -378l277 378q2 0 6 2q8 4 20 5q10 0 19 -5l4 -2l-123 -577l-4 -4q-4 -2 -14 -2q-12 0 -17 2 q-4 2 -4 4l111 514l-262 -356q-2 -2 -7 -5q-4 -2 -18 -2t-16 2q-4 2 -4 5l-103 356l-110 -514l-5 -4q-4 -2 -14 -2q-12 0 -14 2q-4 2 -4 4z" />
<glyph unicode="&#x25fc;" horiz-adv-x="1075" d="M0 0v1075h1075v-1075h-1075z" />
</font>
</defs>
</svg>
