<?xml version="1.0" standalone="no"?>
<!DOCTYPE svg PUBLIC "-//W3C//DTD SVG 1.1//EN" "http://www.w3.org/Graphics/SVG/1.1/DTD/svg11.dtd" >
<svg xmlns="http://www.w3.org/2000/svg">
<metadata></metadata>
<defs>
<font id="globerthin_italic" horiz-adv-x="1136" >
<font-face units-per-em="2048" ascent="1536" descent="-512" />
<missing-glyph horiz-adv-x="550" />
<glyph unicode="&#xfb01;" horiz-adv-x="1124" d="M98 4l224 1045h-132q-6 12 7 28h131l26 131q16 80 46 141.5t80 102.5t123 62.5t177 21.5q61 0 116.5 -8t98.5 -19q51 -12 95 -26q0 -18 -17 -27q-41 14 -88 25q-41 10 -94 18t-113 8q-100 0 -168.5 -18.5t-112.5 -56t-71 -93t-41 -129.5l-29 -133h658l-230 -1073 q0 -2 -2 -2q-2 -2 -14 -2q-8 0 -10 2q-2 0 -2 2l223 1045h-629l-223 -1045q0 -2 -2 -2q-2 -2 -12 -2t-13 2q-2 0 -2 2z" />
<glyph unicode="&#xfb02;" horiz-adv-x="1126" d="M98 4l224 1045h-132q-2 14 7 28h131l26 123q14 74 42 135.5t74 106.5t114.5 69.5t165.5 24.5q72 0 135 -11.5t110 -23.5q53 -16 101 -35l-312 -1462q-14 -8 -28 0l307 1442q-43 16 -122 38.5t-187 22.5q-92 0 -157 -20.5t-106.5 -59t-66.5 -93t-39 -124.5l-29 -133h295 q2 -14 -6 -28h-295l-223 -1045q0 -2 -2 -2q-2 -2 -12 -2t-13 2q-2 0 -2 2z" />
<glyph horiz-adv-x="2048" />
<glyph horiz-adv-x="2048" />
<glyph unicode="&#xd;" horiz-adv-x="659" />
<glyph unicode=" "  horiz-adv-x="550" />
<glyph unicode="&#x09;" horiz-adv-x="550" />
<glyph unicode="&#xa0;" horiz-adv-x="550" />
<glyph unicode="!" horiz-adv-x="466" d="M72 2l8 41q2 2 8 4q12 4 23 4q12 0 20 -4q4 -2 6 -4l-8 -41q-2 -2 -8 -4q-12 -4 -23 -4q-12 0 -20 4q-4 2 -6 4zM147 291l252 1179q14 6 31 0l-256 -1179q-14 -6 -27 0z" />
<glyph unicode="&#x22;" horiz-adv-x="567" d="M270 1085l78 385l4 3q2 0 5 1t8 1q4 0 7 -1t5 -1q2 -2 4 -3l-86 -385q-4 0 -7 -1t-7 -1h-9q-2 0 -2 2zM459 1085l78 385q2 0 4 3q2 0 5 1t7 1t7 -1t5 -1q2 -2 4 -3l-86 -385q-2 -2 -4 -2h-10h-8q-2 0 -2 2z" />
<glyph unicode="#" horiz-adv-x="1310" d="M37 317q-4 14 6 31h248l280 563h-235q-2 4 -3 6.5t1 8.5q2 10 8 16h244l164 330q14 4 30 0l-164 -330h396l164 330q14 4 30 0l-164 -330h232q0 -4 1 -7t-1 -9l-6 -15h-240l-280 -563h227q2 -16 -6 -31h-236l-153 -311q-18 -6 -31 0l153 311h-395l-153 -311q-18 -6 -31 0 l153 311h-239zM322 348h395l280 563h-395z" />
<glyph unicode="$" horiz-adv-x="1138" d="M23 70q6 18 18 28q49 -18 106 -30q49 -12 115 -21.5t141 -9.5q209 0 344.5 81t170.5 236q18 86 -6.5 140.5t-76 89t-121 55t-144 39t-144.5 41t-121 60.5t-73.5 96.5t-4.5 150.5q33 152 157 241t323 99l47 242q2 0 6 2q4 0 7 1t7 1t8 -1t9 -1q4 -2 6 -2l-60 -240 q88 0 152.5 -5t107.5 -13q51 -8 86 -21q-4 -20 -16 -31q-39 10 -88 19q-41 8 -100.5 14t-128.5 6q-217 0 -339 -86t-153 -225q-18 -86 6.5 -140.5t75.5 -89t121.5 -55t144.5 -39t144.5 -41t121 -60.5t74 -97.5t2.5 -151.5q-33 -154 -166 -246t-333 -102l-50 -252 q-2 -2 -4 -2q-4 -2 -14 -2q-14 0 -16 2q-4 0 -5 2l58 252q-94 -2 -167 9.5t-124 23.5q-59 14 -104 33z" />
<glyph unicode="%" horiz-adv-x="1501" d="M211 -16l1106 1450q16 6 35 0l-1106 -1450q-18 -6 -35 0zM211 1061q41 190 126 272t204 82q117 0 169 -81t11 -273q-41 -193 -128 -273.5t-204 -80.5q-119 0 -169 80.5t-9 273.5zM222.5 906.5q2.5 -62.5 24 -100.5t59.5 -54.5t89 -16.5t96.5 16.5t82 54.5t66.5 100.5 t50 154.5q18 92 15 153.5t-24.5 100.5t-59 55t-86.5 16q-51 0 -96.5 -16t-82.5 -54t-66.5 -100.5t-49.5 -154.5t-17.5 -154.5zM813 334q41 190 125 272t203 82q117 0 169 -81t13 -273q-41 -193 -128 -273.5t-204 -80.5q-119 0 -169 80.5t-9 273.5zM824.5 179.5 q2.5 -62.5 24 -100.5t59.5 -54.5t89 -16.5t96.5 16.5t82 54.5t66.5 100.5t50 154.5q18 92 15.5 153.5t-24 100.5t-60.5 55t-88 16q-102 0 -178 -70.5t-115 -254.5q-20 -92 -17.5 -154.5z" />
<glyph unicode="&#x26;" horiz-adv-x="1273" d="M48.5 167.5q-17.5 65.5 2.5 156.5q16 80 54 140t90.5 108.5t117 86t131.5 70.5q-35 166 -2 318q37 174 139.5 270t249.5 96q66 0 110 -21.5t69.5 -55t33 -76.5t-1.5 -89q-23 -98 -79 -165.5t-132.5 -118.5t-168 -91t-181.5 -81q39 -158 124 -284t214 -232 q86 76 151.5 168t104.5 190q18 -2 27 -20q-41 -90 -105.5 -183.5t-154.5 -173.5q53 -41 112.5 -81t132.5 -70q-2 -20 -18 -31q-70 29 -135.5 71t-120.5 87q-96 -78 -212 -127t-251 -49q-72 0 -135 19t-106 61t-60.5 107.5zM82 322q-31 -147 48 -229.5t228 -82.5 q121 0 230.5 45t202.5 119q-125 111 -212 239.5t-128 286.5q-66 -31 -125.5 -66.5t-108.5 -79.5t-84 -101.5t-51 -130.5zM459 896q0 -77 16 -153q88 41 175 80t161 86t126 109.5t71 148.5q23 98 -29.5 155.5t-163.5 57.5q-129 0 -218 -87t-122 -242q-16 -78 -16 -155z" />
<glyph unicode="'" horiz-adv-x="378" d="M270 1085l78 385q2 0 4 3q2 0 5 1t8 1q4 0 7 -1t5 -1q2 -2 4 -3l-86 -385q-16 -6 -25 0z" />
<glyph unicode="(" horiz-adv-x="563" d="M110.5 226.5q-10.5 187.5 41.5 428.5q51 242 141 429.5t178 316.5q102 149 215 260q16 -4 23 -16q-111 -106 -211 -254q-86 -127 -174 -310.5t-140 -425.5q-27 -121 -36 -227t-6 -198.5t14.5 -169t27.5 -140.5q37 -147 103 -254q-8 -12 -23 -16q-2 0 -39 65.5 t-70.5 194.5t-44 316.5z" />
<glyph unicode=")" horiz-adv-x="565" d="M-129 -334q111 106 211 254q86 127 173 310t140 425q51 240 42 424.5t-42 311.5q-37 147 -102 254q10 12 26 16q68 -111 107 -260q16 -63 28.5 -143t14.5 -173.5t-7 -201t-34 -228.5q-35 -162 -88 -299t-112.5 -248.5t-120 -197.5t-108.5 -143.5t-79 -86.5l-31 -30 q-16 4 -18 16z" />
<glyph unicode="*" horiz-adv-x="755" d="M289 1274q4 16 14 26l176 -57l39 187q16 6 31 0l-39 -187l201 57q4 -6 6 -11t-2 -15l-205 -60l88 -167q-6 -4 -11 -8.5t-16 -8.5l-88 166l-155 -168q-14 6 -23 16l160 170z" />
<glyph unicode="+" horiz-adv-x="944" d="M131 582q0 6 2 12q0 10 4 14l2 2h316l67 314l2 2q2 0 5 1t8 1q4 0 8 -1t6 -1l2 -2l-68 -314h314q2 0 2 -2v-14q-4 -10 -6 -12l-2 -2h-314l-67 -316q0 -2 -2 -2q-2 -2 -15 -2q-10 0 -12 2q-2 0 -2 2l68 316h-316q-2 0 -2 2z" />
<glyph unicode="," horiz-adv-x="360" d="M-29 -131q16 16 33 39q14 16 26.5 39.5t18.5 48.5q-10 0 -14 2q-4 0 -6 2l8 41q2 0 6 2q4 0 8 1t12 1q6 0 9.5 -1t7.5 -1q4 -2 6 -2l-6 -35q-8 -35 -23.5 -61.5t-31.5 -46.5q-18 -23 -39 -41z" />
<glyph unicode="-" horiz-adv-x="710" d="M168 575q-4 14 6 31h352q2 -16 -6 -31h-352z" />
<glyph unicode="." horiz-adv-x="321" d="M12 2l8 41q2 2 9 4q12 4 22 4q12 0 21 -4q4 -2 6 -4l-8 -41q-2 -2 -9 -4q-12 -4 -22 -4q-12 0 -21 4q-4 2 -6 4z" />
<glyph unicode="/" horiz-adv-x="841" d="M-92 -90l1034 1620q16 6 33 0l-1034 -1620q-20 -6 -33 0z" />
<glyph unicode="0" horiz-adv-x="1271" d="M139 369.5q-2 136.5 39 326.5q82 377 236.5 547t386.5 170q115 0 195.5 -40t122.5 -127t44 -223t-39 -327q-41 -190 -100 -326.5t-138 -223.5t-176 -126.5t-212 -39.5t-194 39.5t-121 126.5t-44 223.5zM203.5 179q68.5 -169 296.5 -169q229 0 374.5 169t219.5 517 q74 350 5 519t-298 169q-227 0 -372.5 -168.5t-219.5 -519.5q-74 -348 -5.5 -517z" />
<glyph unicode="1" horiz-adv-x="776" d="M172 1049q135 35 267 123t235 217l2 2q2 0 5 1t7 1t6 -1t4 -1l2 -2l-294 -1385q-16 -10 -31 0l282 1325q-98 -117 -225 -195.5t-256 -113.5q-12 9 -4 29z" />
<glyph unicode="2" horiz-adv-x="1067" d="M10 0q0 18 2 41q2 18 5 43t10 53q27 123 78 202t118.5 132t146.5 90t158 78q86 43 164 84t140.5 90t106.5 112.5t62 149.5q8 45 8.5 98.5t-27.5 99.5t-91.5 77.5t-181.5 31.5q-123 0 -213 -21t-156 -48q-8 8 -4 26q45 20 104 37q51 14 122 25.5t157 11.5 q78 0 143.5 -19.5t109.5 -61.5t60.5 -107.5t-2.5 -159.5q-18 -84 -56 -144.5t-98.5 -109.5t-143.5 -95t-189 -102q-66 -35 -140.5 -66.5t-142 -81.5t-122 -127t-81.5 -202q-10 -45 -12 -76.5t-2 -29.5h741q6 -16 -6 -31h-768z" />
<glyph unicode="3" horiz-adv-x="1038" d="M-8 43q2 6 6 14.5t10 12.5q49 -23 119 -41.5t180 -18.5q414 0 486 334q25 119 -2 191.5t-81.5 112.5t-126 54.5t-139.5 14.5h-75q0 16 8 31h76q59 0 128.5 10t135 44t118 100.5t76.5 178.5q14 68 5 123.5t-43.5 95t-98 61t-156.5 21.5q-66 0 -123 -8t-100 -18 q-51 -12 -94 -27q-12 4 -8 25q45 16 98 28q47 10 107.5 20.5t130.5 10.5q100 0 167.5 -26.5t104.5 -71.5t47 -105.5t-4 -126.5t-40.5 -123t-71 -103t-109 -80t-154.5 -48q82 -12 138.5 -46t87 -84t36.5 -114.5t-8 -136.5q-39 -180 -170 -274t-350 -94q-72 0 -129 9t-98 21 q-47 14 -84 33z" />
<glyph unicode="4" horiz-adv-x="1155" d="M36 396q-1 3 1 7q0 10 4 15q2 2 4 2l918 969q2 0 4 2q2 0 5 1t9 1q4 0 6 -1t4 -1l2 -2l-205 -969h232v-2v-15l-4 -12q-2 -2 -4 -2h-232l-82 -385q-2 -2 -4 -2q-2 -2 -12 -2t-12 2q-2 0 -2 2l82 385h-713v2q0 2 -1 5zM84 420h674l194 915z" />
<glyph unicode="5" horiz-adv-x="1056" d="M6 27q0 14 12 26q35 -14 78 -22q37 -10 86 -16.5t109 -6.5q240 0 371 87t169 270q14 74 11.5 140t-39.5 117.5t-116 82t-212 30.5q-43 0 -85 -4t-76.5 -8t-57.5 -8t-29 -6l144 684h649q2 -10 1 -15.5t-7 -15.5h-619l-131 -617q33 6 84 13.5t133 7.5q240 0 330 -106.5 t51 -294.5q-41 -184 -176 -284.5t-393 -100.5q-78 0 -131 6t-88 16q-41 10 -68 25z" />
<glyph unicode="6" horiz-adv-x="1126" d="M115.5 279.5q-11.5 103.5 19.5 246.5q45 215 132 373t203 264.5t256 163t292 66.5q2 -14 -4 -29q-281 -27 -484.5 -185.5t-316.5 -471.5q111 76 211 110.5t213 34.5q201 0 282.5 -109.5t34.5 -326.5q-23 -104 -70.5 -185t-115.5 -137.5t-150.5 -85t-173.5 -28.5 q-90 0 -160.5 31.5t-113.5 98t-54.5 170zM146.5 292q9.5 -95 47 -157.5t102 -93.5t148.5 -31t161 25.5t140.5 77t109.5 127.5t69 176q43 201 -29 303t-258 102q-117 0 -221.5 -36.5t-214.5 -114.5q-10 -35 -18.5 -74t-16.5 -78q-29 -131 -19.5 -226z" />
<glyph unicode="7" horiz-adv-x="999" d="M201 4q39 184 108.5 322.5t151.5 247t171 198.5t167 179t138 186.5t87 224.5h-795v4q0 2 -1 4t1 6q0 8 4 13q2 2 3 4h821q2 -10 0 -21q-27 -135 -88.5 -236.5t-139 -191.5t-167 -179t-171 -196.5t-151.5 -244t-109 -320.5q-10 -8 -22 -4q-6 2 -8 4z" />
<glyph unicode="8" horiz-adv-x="1187" d="M86 315q20 96 73.5 173t115 134.5t122 95.5t95.5 56q-49 25 -90.5 55.5t-68 69.5t-36.5 89t2 114q33 147 152.5 229t306.5 82q178 0 266 -89t59 -232q-18 -84 -61 -149.5t-94 -114t-103.5 -80t-87.5 -50.5q57 -27 108.5 -58.5t85.5 -76.5t47 -103.5t-3 -137.5 q-35 -162 -170 -252t-346 -90t-309.5 88t-63.5 247zM117 317q-31 -145 58 -226t286 -81t324.5 82t158.5 230q20 100 -10.5 166.5t-94 113.5t-148.5 82t-171 76q-27 -12 -86 -47t-122.5 -92.5t-119 -133.5t-75.5 -170zM332 1104q-18 -90 9.5 -150.5t84.5 -103.5t132 -74 t149 -63q41 18 93 51t103 80t92 110.5t58 141.5q27 129 -52 208.5t-251 79.5t-281 -74.5t-137 -205.5z" />
<glyph unicode="9" horiz-adv-x="1128" d="M119 0q-4 16 6 29q139 12 264 58t229.5 127t187.5 197.5t138 274.5q-109 -76 -212 -110.5t-216 -34.5q-193 0 -274.5 114.5t-38.5 321.5q23 104 72 185t116.5 137.5t150.5 85t173 28.5q88 0 158.5 -31.5t114.5 -98t55.5 -170t-19.5 -247.5q-47 -215 -136 -373.5 t-209 -264t-263 -162t-297 -66.5zM233 977q-41 -193 31 -300.5t252 -107.5q117 0 223.5 38t216.5 116q12 35 19.5 74t17.5 77q27 131 17.5 226.5t-48 158t-103 93t-148.5 30.5t-161 -25.5t-140.5 -76.5t-110 -127t-66.5 -176z" />
<glyph unicode=":" horiz-adv-x="421" d="M51 2l8 41q2 2 9 4q12 4 22 4q12 0 21 -4q4 -2 6 -4l-8 -41q-2 -2 -9 -4q-12 -4 -22 -4q-12 0 -21 4q-4 2 -6 4zM225 815l8 41q2 2 9 4q12 4 22 4q12 0 21 -4q4 -2 6 -4l-8 -41q-2 -2 -9 -4q-12 -4 -22 -4q-12 0 -21 4q-4 2 -6 4z" />
<glyph unicode=";" horiz-adv-x="444" d="M14 -131q16 16 33 39q14 16 26.5 39.5t18.5 48.5q-10 0 -14 2q-4 0 -6 2l8 41q2 0 6 2q4 0 8 1t12 1q6 0 9.5 -1t7.5 -1q4 -2 6 -2l-6 -35q-8 -35 -23.5 -61.5t-31.5 -46.5q-18 -23 -39 -41zM242 815l8 41q2 2 8 4q12 4 23 4q12 0 20 -4q4 -2 6 -4l-8 -41q-2 -2 -8 -4 q-12 -4 -23 -4q-12 0 -20 4q-4 2 -6 4z" />
<glyph unicode="&#x3c;" horiz-adv-x="976" d="M119 571v7q0 10 2 16q0 6 4 14l4 8l723 316v-4v-13q-2 -4 -2 -8t-2 -6q-2 -4 -4 -4l-694 -303l565 -303v-6v-13l-4 -12q-2 -2 -2 -4z" />
<glyph unicode="=" horiz-adv-x="1044" d="M145 410q0 16 9 30h655q4 -16 -8 -30h-656zM217 741q-4 14 6 31h656q2 -16 -7 -31h-655z" />
<glyph unicode="&#x3e;" horiz-adv-x="970" d="M103 265q-1 3 1 7q0 4 5 13q2 4 4 6l696 303l-567 303v4q0 2 -1 6t1 8q0 8 4 13l4 4l588 -316v-8v-14q-4 -12 -7 -16q-2 -4 -4 -7l-721 -315q-2 2 -2 4t-1 5z" />
<glyph unicode="?" horiz-adv-x="862" d="M168 2l8 41q2 2 8 4q12 4 23 4q12 0 20 -4q4 -2 6 -4l-8 -41q-2 -2 -8 -4q-12 -4 -22 -4q-12 0 -21 4q-4 2 -6 4zM239 1341.5q-1 10.5 3 14.5q39 16 90 28q43 10 100 19.5t127 9.5q100 0 161.5 -28.5t92.5 -72.5t37 -99.5t-6 -110.5q-23 -102 -67 -170t-99 -120 t-115.5 -96t-117 -100.5t-102.5 -133t-71 -193.5q-2 -2 -4 -2q-2 -2 -12 -2q-8 0 -10 2q-2 0 -4 2q27 121 72.5 201.5t102 138t118 102.5t117 95.5t99.5 115t64 162.5q10 51 5 101t-33.5 89t-85 63.5t-148.5 24.5q-70 0 -125 -9t-96 -19q-47 -12 -86 -27q-6 4 -7 14.5z" />
<glyph unicode="@" horiz-adv-x="1875" d="M116.5 231.5q-20.5 149.5 20.5 339.5q39 186 130 338t218 259.5t283 166t326 58.5q190 0 325 -58.5t212 -161t98.5 -243.5t-15.5 -309q-47 -221 -149.5 -334t-257.5 -113q-31 0 -62 10.5t-54.5 35t-35.5 63.5t-6 96q-43 -86 -123 -145.5t-184 -59.5q-330 0 -246 395 q41 197 145.5 297.5t268.5 100.5q100 0 153.5 -54.5t65.5 -121.5l37 170q6 4 11 3t9 -1q6 -2 10 -2l-108 -510q-29 -135 11 -190.5t118 -55.5q137 0 230 105.5t136 310.5q37 168 14.5 304t-99 233t-204.5 150.5t-307 53.5q-160 0 -308 -55.5t-271 -157.5t-212 -248.5 t-128 -329.5q-39 -182 -19.5 -326.5t92 -244.5t196.5 -152.5t296 -52.5q186 0 342 50.5t285 136.5q14 -6 14 -23q-154 -100 -311.5 -147.5t-335.5 -47.5t-308 54.5t-206 159t-96.5 254zM627 569q-78 -365 217 -364q61 0 113.5 23.5t93.5 60.5t68.5 84t39.5 94l43 197 q12 49 5 98t-31.5 88t-68.5 62.5t-108 23.5q-294 0 -372 -367z" />
<glyph unicode="A" horiz-adv-x="1292" d="M-88 2l911 1479q2 2 4 2l4 -2l283 -1479q-2 -2 -4 -2q-2 -2 -12 -2q-8 0 -11 2q-2 0 -4 2l-90 465h-760l-284 -465q-8 -4 -18.5 -4t-18.5 4zM254 498h733l-172 913z" />
<glyph unicode="B" horiz-adv-x="1284" d="M100 0l314 1475h454q197 -1 277 -97q54 -65 54 -170q0 -51 -13 -112q-20 -98 -60.5 -163t-87.5 -103.5t-99 -58t-97 -28.5q39 -2 90 -18t92 -56q40 -40 60 -110q9 -31 9 -69q0 -49 -14 -111q-41 -197 -164.5 -288t-351.5 -91h-463zM137 31h441q113 0 193.5 24.5t137 69.5 t90 109.5t50.5 144.5q12 56 12 104q0 99 -52 158q-77 88 -284 88h-438zM293 758h424q365 0 438 342q12 56 12 104q1 95 -47 153q-70 87 -266 87h-416z" />
<glyph unicode="C" horiz-adv-x="1130" d="M184 735q84 395 249 577.5t433 182.5q84 0 144.5 -10t101.5 -23q47 -14 80 -32q-4 -16 -18 -25q-35 16 -80 29q-39 10 -96.5 20t-131.5 10q-256 0 -413.5 -177t-237.5 -552q-41 -192 -41 -332q0 -133 37 -218q76 -175 332 -175q80 0 136 5t97 13.5t71 20.5t60 27 q16 -6 13 -29q-31 -14 -60 -26.5t-70.5 -21.5t-101 -14t-147.5 -5q-269 0 -355 183q-44 93 -43 239q0 141 41 333z" />
<glyph unicode="D" horiz-adv-x="1345" d="M100 0l314 1475h368q314 1 412 -177q53 -96 53 -252q0 -133 -39 -309q-43 -197 -105.5 -337t-151.5 -229t-207.5 -130t-274.5 -41h-369zM137 31h332q150 0 264.5 40t199.5 125t144.5 219t100.5 322q40 184 40 316v7q-1 134 -48.5 220t-145.5 126t-254 40h-332z" />
<glyph unicode="E" d="M100 0l314 1475h776v-6q0 -13 -6 -25h-746l-145 -680h643q2 -16 -6 -31h-643l-150 -702h766q2 -16 -6 -31h-797z" />
<glyph unicode="F" horiz-adv-x="1103" d="M100 4l314 1471h780v-6q0 -13 -6 -25h-750l-147 -696h647q0 -16 -8 -31h-647l-152 -713q0 -2 -2 -2q-2 -2 -12 -2t-13 2q-2 0 -4 2z" />
<glyph unicode="G" horiz-adv-x="1263" d="M186 737q45 211 104.5 356.5t142.5 234.5t194.5 128t261.5 39q86 0 151.5 -10t110.5 -23q53 -14 92 -30q-6 -16 -18 -27q-43 16 -97 29q-45 10 -106 20t-133 10q-143 0 -250 -37.5t-185.5 -122.5t-136 -224.5t-100.5 -342.5q-37 -169 -37 -299q0 -147 47 -244 q88 -184 351 -184q113 0 210 17.5t156 35.5l141 660h-428l7 29h456l-151 -709q-51 -18 -113 -33q-53 -12 -126 -21t-163 -9q-268 0 -365 194q-52 106 -52 264q0 132 36 299z" />
<glyph unicode="H" horiz-adv-x="1384" d="M100 4l314 1466q2 0 4 3q2 0 5 1t7 1t6 -1t4 -1q2 -2 4 -3l-149 -698h856l149 698q2 0 5 3q2 0 4 1t6 1t7 -1t5 -1q2 -2 4 -3l-313 -1466q-2 -2 -4 -2q-2 -2 -13 -2q-10 0 -12 2q-2 0 -2 2l158 737h-856l-158 -737q-2 -2 -4 -2q-2 -2 -10 -2q-12 0 -15 2q-2 0 -2 2z" />
<glyph unicode="I" horiz-adv-x="497" d="M100 4l314 1466q2 0 4 3q2 0 5 1t7 1t7 -1t5 -1l2 -3l-311 -1466q-2 -2 -4 -3t-12 -1t-13 2q-2 0 -4 2z" />
<glyph unicode="J" horiz-adv-x="851" d="M-55 41q4 23 20 29q31 -18 68 -31q33 -10 79 -19.5t105 -9.5q129 0 202 65.5t107 221.5l250 1173q2 0 4 3q2 0 4 1t7 1q4 0 7 -1t5 -1q2 -2 4 -3l-250 -1175q-18 -82 -45 -141.5t-69 -98.5t-100 -57t-138 -18q-55 0 -103.5 9t-83.5 21q-41 12 -73 31z" />
<glyph unicode="K" horiz-adv-x="1236" d="M100 4l314 1466q2 0 4 3q2 0 4 1t6 1t7 -1t5 -1q2 -2 4 -3l-147 -690h336l631 690q10 6 20 6l8 -1q6 -2 11 -5l-648 -708l392 -758q-2 0 -6.5 -2t-12.5 -2q-12 0 -14 2q-2 0 -4 2l-381 746h-338l-160 -746q-2 -2 -4 -2q-2 -2 -10 -2q-10 0 -13 2q-2 0 -4 2z" />
<glyph unicode="L" horiz-adv-x="1011" d="M100 0l314 1470q2 0 4 3q2 0 5 1t7 1t7 -1t5 -1l2 -3l-307 -1439h697q1 -7 1 -13t-1 -10q-2 -6 -7 -8h-727z" />
<glyph unicode="M" horiz-adv-x="1769" d="M100 4l314 1466q12 5 23 5t22 -5l389 -1005l823 1005q12 5 23 5t22 -5l-313 -1466q-2 -2 -4 -2q-2 -2 -13 -2q-10 0 -12 2q-2 0 -2 2l285 1325l26 115l-815 -1000q-27 -10 -45 0l-385 1000l-24 -115l-283 -1325q0 -2 -2 -2q-2 -2 -12 -2t-13 2q-2 0 -4 2z" />
<glyph unicode="N" horiz-adv-x="1417" d="M100 4l314 1466q2 0 4 3q2 0 5 1t7 1t6 -1t4 -1q2 -2 4 -3l525 -1261l63 -166q2 27 10 61q4 29 13.5 71t19.5 93l256 1202q2 0 4 3q2 0 5 1t10 1q4 0 6 -1t4 -1q2 -2 4 -3l-313 -1466q-2 -2 -4 -2q-2 -2 -11 -2q-10 0 -12 2q-2 0 -4 2l-588 1419l-49 -237l-250 -1182 q-2 -2 -6 -2q-4 -2 -12 -2t-11 2q-2 0 -4 2z" />
<glyph unicode="O" horiz-adv-x="1382" d="M182 737q43 199 109.5 342.5t155 235.5t197 136t233.5 44q258 1 355 -191q53 -104 53 -262q0 -133 -38 -305q-43 -199 -109.5 -342t-154.5 -235t-195.5 -136t-232.5 -44q-261 0 -357 191q-52 104 -52 262q0 133 36 304zM213 737q-36 -174 -36 -305q0 -151 48 -246 q90 -176 336 -176q115 0 216.5 41t185.5 129t148.5 225t105.5 332q38 176 38 308q-1 149 -49 243q-90 176 -336 176q-115 0 -216 -41t-186 -129t-149.5 -226t-105.5 -331z" />
<glyph unicode="P" horiz-adv-x="1224" d="M100 4l314 1471h493q180 0 255 -109q48 -70 49 -177q0 -58 -15 -128q-41 -195 -163 -303.5t-302 -108.5h-463l-137 -645q-2 -2 -4 -2q-2 -2 -12 -2q-8 0 -11 2q-2 0 -4 2zM276 680h465q162 0 273.5 99.5t150.5 279.5q15 69 15 126q0 95 -40 159q-64 102 -235 102h-465z " />
<glyph unicode="Q" horiz-adv-x="1382" d="M182 737q43 199 109.5 342.5t155 235.5t197 136t233.5 44q258 0 355 -191q53 -104 53 -262q0 -133 -38 -305q-53 -248 -143 -409.5t-213 -247.5q43 -66 106.5 -102.5t114.5 -51.5q-2 -18 -16 -28q-29 6 -62 20t-64.5 36.5t-59 49.5t-46.5 57q-135 -81 -305 -81h-4 q-262 0 -357 191q-52 104 -52 262q0 133 36 304zM213 737q-36 -174 -36 -305q0 -152 48 -246q90 -176 336 -176q115 0 216.5 41t185.5 129t148.5 225.5t105.5 331.5q38 176 38 308q0 150 -49 243q-90 176 -336 176q-115 0 -216 -41t-186 -129t-149.5 -226t-105.5 -331z" />
<glyph unicode="R" horiz-adv-x="1257" d="M100 4l314 1471h481q180 0 257 -109q51 -72 51 -175q0 -52 -13 -112q-35 -160 -134.5 -263t-260.5 -128l206 -684q-2 -2 -6 -2q-4 -2 -12 -2q-10 0 -12 2q-2 0 -4 2l-203 680h-488l-145 -680q-2 -2 -4 -2q-2 -2 -12 -2q-8 0 -11 2q-2 0 -4 2zM283 715h454q156 0 270.5 96 t151.5 268q13 60 13 110q0 95 -46 159q-70 96 -233 96h-455z" />
<glyph unicode="S" horiz-adv-x="1140" d="M25 53q2 6 8 15.5t10 13.5q45 -20 100 -37q47 -14 114 -24.5t144 -10.5q213 0 349.5 90t173.5 265q10 45 10 83q0 40 -12 72q-22 62 -68.5 102t-115 63.5t-142.5 43.5q-78 20 -149.5 46t-122.5 69q-50 42 -72 108q-11 32 -12 74q0 42 12 94q37 176 175 276.5t355 100.5 q82 0 146.5 -7t109.5 -17q53 -10 92 -25q-2 -18 -16 -29q-45 12 -98 23q-47 10 -107.5 17t-130.5 7q-209 0 -335 -97t-160 -253q-11 -50 -11 -90q0 -34 8 -62q17 -60 62 -98.5t113.5 -63t150.5 -44.5q74 -18 145.5 -45t124 -71t76.5 -112q12 -36 12 -81q0 -41 -10 -91 q-39 -180 -181 -279t-367 -99q-92 0 -162 11t-119 25q-57 16 -100 37z" />
<glyph unicode="T" horiz-adv-x="1069" d="M244 1448q0 6 2 12q0 8 4 13l2 2h924q2 0 2 -2v-13q-4 -10 -7 -12q-2 -2 -2 -4h-440l-307 -1440q-2 -2 -4 -2q-2 -2 -12 -2q-8 0 -11 2q-2 0 -4 2l307 1440h-452q-2 2 -2 4z" />
<glyph unicode="U" horiz-adv-x="1361" d="M182 442l219 1028q2 0 5 3q2 0 5 1t7 1t7 -1t5 -1l2 -3l-219 -1030q-14 -69 -15 -127q0 -115 57 -189q85 -112 292 -114h7q200 0 337 112q139 114 182 318l219 1030q2 0 4 3q2 0 3 1t6 1q4 0 6 -1t6 -1l6 -3l-219 -1028q-47 -219 -191.5 -340.5t-369.5 -121.5 q-217 0 -313 122q-64 81 -64 206q0 62 16 134z" />
<glyph unicode="V" horiz-adv-x="1214" d="M238 1473h4q2 0 5 1t7 1t5 -1t5 -1q2 -2 6 -3l215 -1398h2l811 1398q2 0 7 3q4 0 7 1t9 1q4 0 7 -1t5 -1l2 -3l-860 -1478q-2 -2 -3.5 -2t-2.5 2z" />
<glyph unicode="W" horiz-adv-x="1912" d="M246 1470q2 0 4 3q2 0 5 1t7 1t7 -1t5 -1q2 -2 5 -3l118 -1247q4 -41 6.5 -69.5t2.5 -49.5v-38h2q8 16 18 38l24.5 49t36.5 70l652 1247l2 3l4 2q2 0 2 -1t2 -1q0 -2 2 -3l119 -1247q4 -41 6 -70.5t2 -50.5v-41h2l18 43q10 20 22.5 50t33.5 69l624 1247l2 3q2 0 6.5 1 t12.5 1q4 0 7 -1t5 -1l2 -3l-745 -1478q-2 -2 -3.5 -2t-2.5 2l-117 1263l-12 148h-3l-24 -49q-10 -23 -22.5 -48.5t-24.5 -48.5l-664 -1265q-2 -2 -3.5 -2t-2.5 2z" />
<glyph unicode="X" horiz-adv-x="1159" d="M-47 4l633 739l-320 727q2 0 4 3q2 0 5.5 1t9.5 1q2 0 5 -1t5 -1q2 -2 4 -3l309 -702l600 702q12 5 21.5 5t17.5 -5l-626 -731l323 -737q-2 -2 -4 -2h-14q-8 0 -11 2q-2 0 -4 2l-311 709l-608 -709q-4 -4 -11.5 -4h-13.5t-14 4z" />
<glyph unicode="Y" horiz-adv-x="1230" d="M238 1470l4 3q4 0 7 1t9 1q4 0 7 -1t5 -1l2 -3l344 -811l711 811l4 3q2 0 6 1t11 1q6 0 10 -1t6 -1l2 -3l-737 -843l-133 -623q-2 -2 -4 -2q-2 -2 -13 -2q-8 0 -10 2q-2 0 -4 2l133 621z" />
<glyph unicode="Z" horiz-adv-x="1150" d="M-45 0q-1 5 -1 9q0 12 7 24l1208 1411h-852q-6 14 7 31h886q1 -5 1 -9q0 -12 -7 -24l-1208 -1411h934q4 -8 0 -21q-2 -6 -6 -10h-969z" />
<glyph unicode="[" horiz-adv-x="612" d="M20 -348l426 2007h308q2 -16 -6 -31h-277l-414 -1945h277q2 -16 -6 -31h-308z" />
<glyph unicode="\" horiz-adv-x="839" d="M254 1530q12 6 27 0l346 -1620q-16 -6 -27 0z" />
<glyph unicode="]" horiz-adv-x="610" d="M-129 -348q-4 14 6 31h277l413 1945h-276q-4 14 6 31h307l-426 -2007h-307z" />
<glyph unicode="^" horiz-adv-x="1046" d="M207 930l481 540q2 0 4 3q2 0 5 1t12 1q8 0 11 -1t7 -1q2 -2 4 -3l246 -540q-20 -8 -39 0l-236 516l-456 -516q-20 -10 -39 0z" />
<glyph unicode="_" horiz-adv-x="1005" d="M-35 -72q-4 14 6 31h803q2 -16 -6 -31h-803z" />
<glyph unicode="`" horiz-adv-x="487" d="M147 1630q10 12 27 19l188 -312q-8 -10 -24 -14z" />
<glyph unicode="a" d="M123 539q59 276 188 417.5t324 141.5q125 0 208 -65.5t105 -198.5l53 243q2 0 5 2q2 0 4 1t6 1t7 -1t5 -1q2 -2 4 -2l-229 -1073q-2 -2 -4 -2q-2 -2 -13 -2q-10 0 -12 2q-2 0 -2 2l53 248q-66 -117 -169 -194.5t-244 -77.5q-201 0 -275 141q-41 78 -41 197q0 97 27 221z M154 539q-25 -121 -26 -215q0 -108 35 -180q64 -134 253 -134q88 0 163.5 37t133 95.5t94.5 129t51 138.5l62 288q6 35 6 70q0 32 -4 62q-10 66 -46 118.5t-96.5 85.5t-146.5 33q-180 0 -302 -133t-177 -395z" />
<glyph unicode="b" d="M66 4l325 1528q2 0 4 2q2 0 5 1t8 1q4 0 6 -1t4 -1q2 -2 4 -2l-148 -696q78 127 194 194.5t232 67.5q194 0 264 -142q38 -77 38 -192q0 -98 -27 -225q-59 -276 -191.5 -417.5t-334.5 -141.5q-129 0 -206 77.5t-93 194.5l-54 -248q0 -2 -2 -2q-2 -2 -12 -2t-12 2 q-2 0 -4 2zM177 272q9 -70 42 -129t89.5 -96t140.5 -37q188 0 314 133.5t181 395.5q26 124 26 219q0 106 -32 176q-61 133 -242 133q-80 0 -153.5 -33t-134 -85t-103.5 -117.5t-59 -131.5l-64 -290q-9 -41 -9 -84q0 -26 4 -54z" />
<glyph unicode="c" horiz-adv-x="905" d="M125 543q59 276 194.5 415.5t339.5 139.5q53 0 94.5 -7.5t69.5 -15.5q33 -10 54 -22q-4 -20 -21 -27q-20 12 -49 21q-25 8 -61.5 14t-83.5 6q-195 0 -323 -133t-183 -395q-25 -118 -25 -209q-1 -112 37 -186q68 -134 268 -134q51 0 95 8.5t77 18.5q37 12 68 29 q12 -6 12 -27q-33 -18 -72 -31q-35 -10 -83 -19t-105 -9q-210 0 -286 143q-43 81 -43 204q0 95 26 216z" />
<glyph unicode="d" horiz-adv-x="1134" d="M123 539q59 276 188 417.5t324 141.5q117 0 204 -68.5t109 -202.5l150 705q2 0 4 2q2 0 4 1t6 1t7 -1t5 -1q2 -2 4 -2l-325 -1528q-2 -2 -4 -2q-2 -2 -13 -2q-10 0 -12 2q-2 0 -2 2l53 248q-66 -117 -169 -194.5t-244 -77.5q-203 0 -276 141q-40 77 -40 196q0 97 27 222z M154 539q-26 -122 -26 -216q0 -107 34 -179q63 -134 252 -134q88 0 163.5 37t133 95.5t95.5 129t52 138.5l62 288q6 32 6 65q0 35 -6 67q-12 66 -49 118.5t-97.5 85.5t-142.5 33q-180 0 -301 -133t-176 -395z" />
<glyph unicode="e" horiz-adv-x="1034" d="M125 545q31 145 84 249.5t122.5 172t150.5 99.5t171 32q168 0 241 -96q49 -65 49 -166q0 -48 -11 -105q-10 -47 -21.5 -84t-21.5 -63q-10 -31 -23 -54h-712q-22 -121 -23 -213q0 -113 34 -182q60 -125 253 -125q66 0 122 14.5t97 30.5q47 20 86 45q18 -4 14 -22 q-37 -27 -88 -49q-43 -18 -104.5 -33.5t-138.5 -15.5q-204 0 -272 142q-36 76 -37 191q0 101 28 232zM160 559h688q0 -4 18.5 44t34.5 134q12 54 12 99q1 87 -43 144q-66 87 -221 87q-170 0 -300 -124t-189 -384z" />
<glyph unicode="f" horiz-adv-x="686" d="M100 4l224 1043h-162q-4 8 0 20q2 6 6 10h162l26 131q39 174 121 251t236 77q35 0 64.5 -3t51.5 -7q27 -6 50 -10q0 -18 -13 -27q-20 4 -43 8q-20 4 -47.5 6t-60.5 2q-74 0 -128.5 -16t-93 -52t-63 -91.5t-41.5 -135.5l-29 -133h357q0 -14 -2 -20t-4 -10h-357l-223 -1043 q-8 -5 -15 -5q-4 0 -7 1q-6 2 -9 4z" />
<glyph unicode="g" horiz-adv-x="1134" d="M2 -469q0 16 16 27q37 -12 78 -21q35 -8 81 -14t95 -6q119 0 202 25.5t141.5 87t98.5 165t72 258.5l45 205q-37 -68 -88 -119t-107 -87t-117.5 -54t-119.5 -18q-195 0 -264 141q-37 76 -37 192q0 98 27 226q59 287 191.5 423t334.5 136q119 0 200 -78t95 -207l55 260 q2 0 5 2q2 0 5 1t7 1t7 -1t5 -1l2 -2l-217 -1020q-35 -168 -79 -277.5t-106.5 -173t-150.5 -89t-213 -25.5q-55 0 -104 6t-84 14q-41 8 -76 23zM156 539q-27 -128 -27 -225q0 -106 32 -174q62 -130 242 -130q80 0 154 33t134.5 85t103.5 117.5t59 131.5l61 291q9 41 9 84 q0 27 -4 54q-9 71 -41.5 129t-91 95t-140.5 37q-188 0 -311 -128t-180 -400z" />
<glyph unicode="h" horiz-adv-x="1130" d="M66 4l325 1528q9 5 16 5t13 -5l-150 -707q92 141 209 207t252 66q143 0 209 -85q45 -58 45 -142q0 -40 -10 -85l-168 -782q-7 -5 -14 -5t-15 5l166 780q10 45 10 83q0 76 -38 126q-58 76 -191 76q-59 0 -120.5 -15.5t-121 -51t-118 -94t-109.5 -146.5l-162 -758 q-7 -5 -14 -5z" />
<glyph unicode="i" horiz-adv-x="442" d="M76 4l227 1069q2 0 4 2q2 0 5 1t7 1t6.5 -1t4.5 -1l2 -2l-228 -1069q0 -2 -2 -2q-2 -2 -12 -2t-12 2q-2 0 -2 2zM354 1380l8 41q2 2 9 4q12 4 22 5q12 0 21 -5q4 -2 6 -4l-8 -41q-2 -2 -9 -4q-12 -4 -22 -4q-12 0 -21 4q-4 2 -6 4z" />
<glyph unicode="j" horiz-adv-x="444" d="M-385 -481q2 14 16 24q23 -16 56.5 -22t64.5 -6q113 0 181.5 69.5t101.5 227.5l268 1261q18 10 29 0l-266 -1259q-39 -178 -121 -253t-199 -75q-78 0 -131 33zM354 1386l8 41q2 2 9 5q12 4 22 4q12 0 21 -4q4 -2 6 -5l-8 -41q-2 -2 -9 -4q-12 -4 -22 -4q-12 0 -21 4 q-4 2 -6 4z" />
<glyph unicode="k" horiz-adv-x="1005" d="M66 2l325 1532q9 3 16 3t13 -3l-203 -956h287l461 497q18 6 36 0l-475 -514l297 -555l-4 -4q-2 -2 -14 -2q-10 0 -12 2t-2 4l-291 543h-289l-117 -547q-7 -4 -14 -4z" />
<glyph unicode="l" horiz-adv-x="448" d="M78 4l325 1528l3 2q2 0 5 1t7 1t7 -1t5 -1l2 -2l-326 -1528q0 -2 -2 -2q-2 -2 -12 -2t-12 2q-2 0 -2 2z" />
<glyph unicode="m" horiz-adv-x="1740" d="M68 4l227 1069q18 10 29 0l-52 -246q94 141 198.5 206t236.5 65q125 0 184 -73q44 -55 44 -141q0 -29 -5 -63q172 276 438 277q132 0 190 -80q39 -53 39 -134q0 -40 -10 -87l-170 -793q-7 -5 -14 -5l-14 5l167 791q11 48 11 88q0 67 -31 113q-49 72 -172 73 q-57 0 -114.5 -15.5t-114 -51t-111.5 -96t-109 -150.5l-159 -752q-7 -5 -14.5 -5t-14.5 5l168 791q11 48 11 88q0 67 -32 113q-50 72 -172 73q-57 0 -114.5 -15.5t-112.5 -51t-110.5 -94t-106.5 -146.5l-162 -758q-7 -5 -14 -5z" />
<glyph unicode="n" horiz-adv-x="1132" d="M68 4l227 1069q18 10 29 0l-52 -248q96 139 213 206t248 67q143 0 209 -80q46 -56 46 -141q0 -37 -9 -80l-170 -793q-7 -5 -14 -5t-15 5l168 791q10 44 10 81q0 74 -40 122q-58 70 -191 71q-57 0 -117.5 -15.5t-121 -51t-119 -95t-111.5 -145.5l-162 -758q-7 -5 -14 -5z " />
<glyph unicode="o" horiz-adv-x="1097" d="M97 280q-1 14 -1 29q0 98 29 230q33 152 83 258t115.5 172.5t147.5 97.5t178 31t165 -31t106 -97q38 -68 44 -174q1 -15 0 -31q0 -97 -28 -226q-33 -152 -83 -258.5t-115.5 -173t-147.5 -97t-178 -30.5t-165 30.5t-107 97t-43 172.5zM125 288q4 -102 40 -164.5t99.5 -89 t149.5 -26.5t161.5 26.5t138 89t111.5 164t82 251.5q28 137 28 233v18q-3 101 -38 163.5t-98.5 89t-151.5 26.5q-86 0 -161.5 -26.5t-139 -89t-113 -164t-79.5 -250.5q-29 -134 -30 -229q1 -11 1 -22z" />
<glyph unicode="p" d="M-43 -510l336 1583l4 2q2 0 6 1t8 1t6 -1t5 -1l2 -2l-52 -248q33 57 78 107.5t98.5 87.5t114 57.5t123.5 20.5q203 0 276 -136q39 -76 39 -196q0 -99 -26 -227q-59 -283 -188 -421t-324 -138q-117 0 -203 67.5t-113 194.5l-159 -752q-2 -2 -4 -2q-2 -2 -11 -2 q-10 0 -12 2q-2 0 -4 2zM176 377q-5 -30 -5 -60q0 -36 7 -71q15 -66 51.5 -118t95 -85t138.5 -33q180 0 302 130t179 399q27 128 27 224q0 108 -35 176q-64 128 -254 128q-84 0 -157.5 -37t-133 -95t-99.5 -129t-54 -138z" />
<glyph unicode="q" horiz-adv-x="1134" d="M125 539q59 287 191.5 423t334.5 136q129 0 206 -84t89 -209l55 268q2 0 5 2q2 0 5 1t7 1t7 -1t5 -1l2 -2l-336 -1583q-2 -2 -4 -2q-2 -2 -12 -2q-8 0 -10 2q-2 0 -4 2l159 752q-78 -127 -193.5 -194.5t-232.5 -67.5q-195 0 -264 138q-37 74 -37 191q0 100 27 230z M156 539q-28 -129 -28 -227q0 -104 32 -172q61 -130 241 -130q80 0 154 33t135.5 85t104.5 117.5t59 131.5l61 291q9 41 9 84q0 27 -4 54q-9 71 -41.5 129t-91 95t-140.5 37q-188 0 -311 -127t-180 -401z" />
<glyph unicode="r" horiz-adv-x="788" d="M66 2l229 1073q14 6 29 0l-54 -246q51 84 102.5 136.5t100.5 81t96 39t90 10.5q66 0 105 -16.5t53 -26.5q-6 -18 -22 -25q-29 18 -64 28.5t-88 10.5q-113 0 -208 -82t-181 -229l-160 -754q-7 -4 -14 -4z" />
<glyph unicode="s" horiz-adv-x="907" d="M12 41q0 4 6.5 13t12.5 14q29 -16 95.5 -38t176.5 -22q70 0 132.5 14.5t111.5 45t84 80t49 116.5q6 32 6 59q0 33 -10 58q-18 45 -55 73.5t-89.5 46t-105.5 34.5q-162 47 -216 113q-38 47 -39 114q0 28 7 59q61 276 406 277q53 0 96 -7.5t76 -15.5q37 -8 67 -20 q1 -2 1 -4q0 -5 -4 -11q-5 -8 -13 -12q-29 12 -66 21q-31 8 -72.5 14t-88.5 6q-154 0 -249 -58.5t-124 -193.5q-6 -29 -6 -55q0 -15 2 -29q6 -37 32.5 -67.5t75.5 -56t127 -48.5q59 -18 115.5 -38.5t96.5 -53.5t58 -83q9 -26 8 -59q0 -30 -7 -67q-29 -133 -131.5 -206.5 t-276.5 -73.5q-72 0 -125 9t-90 21q-43 12 -74 31z" />
<glyph unicode="t" horiz-adv-x="675" d="M148 188q2 68 20 154l151 707h-165q-2 2 -2 4t-1 4t1 6q2 8 6 12l2 2h166l45 215q10 12 30 13l-47 -228h348v-4v-10l-4 -10q-2 -2 -2 -4h-348l-151 -707q-15 -82 -19 -144q-1 -10 -1 -20q-1 -50 15 -85q18 -42 60.5 -63.5t116.5 -21.5q59 0 96 6q21 2 37 6q4 -10 0 -24 q-29 -8 -60.5 -12t-79.5 -4q-82 0 -129 24.5t-67 70.5q-18 41 -19 99q1 7 1 14z" />
<glyph unicode="u" horiz-adv-x="1128" d="M119 293l166 780q9 5 16 5t12 -5l-163 -778q-10 -45 -10 -83q0 -76 38 -127q58 -77 191 -77q57 0 117.5 15.5t121 51.5t118.5 95t112 145l159 758q9 5 16 5t13 -5l-227 -1069q-14 -10 -29 0l53 248q-96 -139 -212.5 -205.5t-248.5 -66.5q-144 0 -208 86q-44 59 -44 145 q0 38 9 82z" />
<glyph unicode="v" horiz-adv-x="1003" d="M166 1073l4 2q2 0 6 1t8 1t5 -1t4 -1l2 -2l155 -827l33 -189l106 183l504 833q2 0 6 2q4 0 7.5 1t7.5 1t6 -1t4 -1l2 -2l-655 -1081h-2z" />
<glyph unicode="w" horiz-adv-x="1601" d="M172 1073l4 2q2 0 6 1t8 1t5.5 -1t3.5 -1l2 -2l110 -862l13 -148l79 148l486 862h10l121 -862l16 -148l76 148l475 862q2 0 6 2q4 0 6.5 1t6.5 1t7 -1t5 -1l2 -2l-596 -1079h-2l-141 1010l-570 -1010h-2z" />
<glyph unicode="x" horiz-adv-x="970" d="M-53 4l502 539l-271 530q12 4 20 5q3 0 5 -1q6 -2 8 -4l260 -508l473 508q4 2 12 4q3 0 6 1q10 0 21 -5l-498 -534l275 -535q-4 -2 -10 -4q-4 -1 -8 -1q-8 0 -17 5l-262 512l-475 -512q-11 -5 -21 -5q-5 0 -10 1q-8 2 -10 4z" />
<glyph unicode="y" horiz-adv-x="1128" d="M-4 -469q0 16 16 27q37 -12 78 -21q35 -8 81 -14t95 -6q119 0 202 25.5t141.5 87t98.5 165t72 258.5l43 199q-96 -139 -212.5 -205.5t-248.5 -66.5q-143 0 -208 86q-44 59 -44 145q0 38 9 82l166 780q9 5 16 5t12 -5l-163 -778q-10 -45 -10 -83q0 -76 38 -128 q58 -78 191 -78q57 0 117.5 15.5t121 52.5t118.5 96t112 145l159 758q9 5 16 5t13 -5l-217 -1020q-35 -164 -78 -272.5t-106.5 -174t-151.5 -92t-213 -26.5q-55 0 -104.5 6t-83.5 14q-41 8 -76 23z" />
<glyph unicode="z" horiz-adv-x="894" d="M-43 0q-1 4 -1 8q0 11 7 23l875 1018h-607q-2 14 7 28h641v-6q0 -13 -7 -24l-874 -1018h668q2 -14 -7 -29h-702z" />
<glyph unicode="{" horiz-adv-x="669" d="M102 670q0 16 9 30h75q47 0 74 36t41 106l117 544q27 123 109.5 198t220.5 75h65q2 -16 -6 -31h-64q-129 0 -200.5 -66.5t-96.5 -179.5l-110 -528q-14 -66 -34.5 -109t-65.5 -61q35 -20 37.5 -61t-9.5 -107l-112 -528q-25 -115 18 -180.5t172 -65.5h64q2 -16 -7 -31h-65 q-137 0 -189.5 75t-25.5 198l114 540q16 72 4 109t-59 37h-76z" />
<glyph unicode="|" horiz-adv-x="483" d="M10 -399l426 2013q18 6 31 0l-426 -2013q-2 -2 -4 -2q-2 -2 -12 -2t-13 2q-2 0 -2 2z" />
<glyph unicode="}" horiz-adv-x="671" d="M-115 -289q-4 14 6 31h64q129 0 200.5 65.5t96.5 180.5l113 528q12 66 32.5 107t65.5 61q-35 18 -38 61t11 109l111 528q25 113 -18.5 179.5t-172.5 66.5h-63q-4 14 6 31h66q137 0 189 -75t26 -198l-117 -544q-14 -70 -2 -106t59 -36h76q4 -16 -8 -30h-76 q-47 0 -73.5 -37t-43.5 -109l-114 -540q-27 -123 -110 -198t-220 -75h-66z" />
<glyph unicode="~" horiz-adv-x="1097" d="M186 618q27 27 62 50q29 18 68.5 33.5t86.5 15.5q51 0 85 -19.5t65 -43t63.5 -43t81.5 -19.5q43 0 79 12t63 29q31 18 53 41q18 0 20 -15q-27 -27 -61 -49q-29 -18 -71 -33.5t-91 -15.5q-51 0 -85 19.5t-64.5 43t-63.5 43t-82 19.5q-41 0 -74.5 -13.5t-60.5 -29.5 q-31 -20 -55 -43q-18 0 -19 18z" />
<glyph unicode="&#xa1;" horiz-adv-x="442" d="M-12 -406l252 1182q12 6 26 0l-248 -1182q-18 -6 -30 0zM276 1024l9 41q2 2 8 4q12 4 22 4q12 0 21 -4q4 -2 6 -4l-8 -41q-2 -2 -8 -4q-12 -4 -23 -4q-12 0 -20 4q-4 2 -7 4z" />
<glyph unicode="&#xa2;" horiz-adv-x="935" d="M133 539q55 266 184 407t324 152l35 186q12 4 16 4h6q6 0 17 -4l-43 -186q53 -2 93 -9.5t66 -15.5q31 -8 54 -20q-4 -20 -21 -29q-23 12 -51 20q-25 8 -61.5 14.5t-83.5 6.5q-195 0 -322 -132t-182 -394q-53 -248 12.5 -386.5t257.5 -138.5q51 0 96 8.5t80 18.5 q39 11 74 27q8 -4 10 -12.5t2 -16.5q-33 -16 -73 -29q-35 -10 -83 -20t-106 -10l-37 -187q-10 -6 -14 -6h-6h-5t-14 6l45 187q-184 4 -254.5 150t-15.5 409z" />
<glyph unicode="&#xa3;" horiz-adv-x="1028" d="M29 0l6 33q115 82 177 165t90 163.5t28 160.5t-8 158h-168q-4 14 6 31h157q-16 100 -23 182t11 170q41 184 167 268t308 84q57 0 105.5 -6t85.5 -14.5t59.5 -16.5t28.5 -10q-2 -8 -7 -16.5t-14 -12.5q-8 4 -77.5 24.5t-192.5 20.5q-365 0 -432 -327q-18 -86 -10 -169 t24 -177h430q2 -16 -6 -31h-420q8 -76 7 -158t-28.5 -165t-88 -165.5t-168.5 -160.5h698q2 -16 -6 -31h-739z" />
<glyph unicode="&#xa4;" horiz-adv-x="1198" d="M61 139v6l187 152q-35 51 -46.5 116.5t5.5 141.5q16 74 54 140.5t97 117.5l-122 152q0 2 2 6q2 6 12 12q4 4 8 4t8 2q4 0 4 2l123 -149q59 43 130 68.5t145 25.5q147 0 233 -96l182 151q2 -2 4 -2q2 -2 5.5 -2t7.5 -4q2 -4 4 -6t2 -6v-6l-182 -152q76 -109 45 -258 q-35 -156 -154 -258l121 -152q0 -2 -2 -4t-4 -5t-6 -7q-6 -6 -15 -10q-4 -2 -6 -2l-121 153q-59 -45 -130.5 -70.5t-145.5 -25.5q-76 0 -136.5 25.5t-101.5 70.5l-184 -153q-4 -2 -6 0q-6 2 -10 12q-6 4 -7 10zM237 417.5q13 -63.5 50 -110.5t94 -73.5t131 -26.5t143.5 26.5 t126 73.5t97.5 110.5t57 137.5q14 74 1 137.5t-50 110.5t-94 73.5t-131 26.5t-142.5 -26.5t-126 -73.5t-98.5 -110.5t-55 -137.5q-16 -74 -3 -137.5z" />
<glyph unicode="&#xa5;" horiz-adv-x="1222" d="M158 342q0 16 8 31h358l37 178h-358q-4 14 6 31h358l-321 817h2q2 0 4 1t6 1q6 0 10 -1t6 -1q2 -2 5 -2l309 -789l678 789l2 2q2 0 5 1t7 1q6 0 9 -1t5 -1q2 -2 4 -2l-700 -815h360q2 -16 -6 -31h-362l-37 -178h362q4 -16 -8 -31h-362l-72 -338q-14 -6 -29 0l72 338h-358 z" />
<glyph unicode="&#xa6;" horiz-adv-x="409" d="M-59 -543l192 912l4 2q2 0 6 1t9 1q4 0 7 -1t5 -1l2 -2l-193 -912q-2 -2 -4 -2q-4 -2 -14 -2t-12 2q-2 0 -2 2zM223 788l193 908q2 0 4 2q2 0 5 1t7 1t7 -1t5 -1q2 -2 5 -2l-193 -908q-2 -2 -4 -2q-4 -2 -14 -2t-13 2q-2 0 -2 2z" />
<glyph unicode="&#xa7;" horiz-adv-x="989" d="M39 29q2 10 7 18t11 14q31 -14 101.5 -31.5t169.5 -17.5q180 0 274 45t117 158q8 43 -9.5 78t-54.5 63.5t-89 53t-111 43.5q-51 16 -104.5 36.5t-95.5 51t-63.5 72.5t-9.5 104q12 53 42 95t68 72.5t76 51t64 33.5q-68 31 -106.5 82t-22.5 133q25 119 114 174t253 55 q109 0 178.5 -21.5t83.5 -25.5q-2 -20 -19 -29q2 -2 -17 5.5t-53 15.5t-78 15t-89 7q-162 0 -240 -47t-100 -147q-16 -72 20.5 -116t98 -72.5t135.5 -51t135 -53.5t97 -76t20 -121q-12 -57 -42 -102t-66 -79t-72.5 -55.5t-61.5 -31.5q70 -35 119 -87t33 -126 q-29 -129 -128.5 -182t-291.5 -53q-68 0 -121 7t-92 17q-45 10 -80 25zM215 719q-12 -53 6.5 -89t55 -63.5t88 -47t106.5 -38.5q23 -8 47.5 -17t50.5 -20q31 12 69 33t72.5 51.5t62.5 71.5t38 92q12 61 -14.5 101.5t-77.5 68t-117.5 47.5t-132.5 45q-35 -12 -75 -33.5 t-76.5 -50t-65.5 -67.5t-37 -84z" />
<glyph unicode="&#xa8;" horiz-adv-x="931" d="M250 1268l8 41q2 2 8 4q12 4 23 4q12 0 20 -4q4 -2 6 -4l-8 -41q-2 -2 -8 -4q-12 -4 -23 -4q-12 0 -20 4q-4 2 -6 4zM524 1268l8 41q2 2 9 4q12 4 22 4q12 0 21 -4q4 -2 6 -4l-8 -41q-2 -2 -9 -4q-12 -4 -22 -4q-12 0 -21 4q-4 2 -6 4z" />
<glyph unicode="&#xa9;" horiz-adv-x="1656" d="M160.5 431q-27.5 124 3.5 265t110.5 264t191.5 215.5t247 145.5t276 53t253 -53t183.5 -145.5t99 -215t-2.5 -264.5q-31 -141 -110 -265t-190.5 -216t-246 -145.5t-275.5 -53.5t-253.5 53.5t-185.5 145.5t-100.5 216zM190.5 443.5q26.5 -117.5 96 -207t177 -140.5 t243.5 -51q135 0 263 51t234.5 140.5t182 207t104.5 252.5t3 253t-95.5 205t-176 138t-241.5 51t-264 -51t-236.5 -138t-183.5 -205t-104 -253q-29 -135 -2.5 -252.5zM512 711q43 203 146.5 305t275.5 102q51 0 88 -7t59 -15q27 -10 45 -23q-2 -6 -7 -13t-11 -11 q-23 12 -49 20q-23 8 -54.5 14.5t-66.5 6.5q-166 0 -260 -90.5t-135 -288.5q-41 -186 14 -282.5t215 -96.5q39 0 76 6t65 14q33 8 62 21q8 -8 8 -25q-25 -14 -59 -24q-29 -10 -70 -16.5t-94 -6.5q-172 0 -230.5 105.5t-17.5 304.5z" />
<glyph unicode="&#xaa;" horiz-adv-x="739" d="M106 477q0 10 7 23h442q0 -10 -6 -23h-443zM170 791q18 90 87 139t179 49q66 0 118 -5t81 -9l22 108q23 109 -14 151t-127 42q-39 0 -73.5 -5.5t-61.5 -11.5q-31 -8 -57 -16q-6 4 -6.5 12t1.5 12q31 8 66 17q29 6 64.5 11t74.5 5q104 0 141 -52t17 -151l-98 -464h-19 l31 147q-45 -88 -119 -126t-151 -38q-96 0 -135 47t-21 138zM195 791q-35 -162 131 -162q98 0 179 59.5t109 175.5l17 80q-29 4 -83 9t-112 5q-104 0 -164.5 -44t-76.5 -123z" />
<glyph unicode="&#xab;" horiz-adv-x="972" d="M103 547q-1 2 1 6q0 4 5 8l4 4l526 477q10 -2 14 -18l-516 -471l318 -471q-6 -16 -25 -21l-324 480q-2 0 -2 2t-1 4zM413 547q-1 2 1 6q0 4 4 8l4 4l461 416q10 -2 14 -18l-451 -410l283 -418q-6 -16 -24 -20l-289 426q-2 0 -2 2t-1 4z" />
<glyph unicode="&#xac;" horiz-adv-x="1226" d="M196 877.5q-1 3.5 1 7.5q0 6 4 10q2 2 2 4h884l-98 -463q-2 -2 -4 -2q-2 -2 -10 -2q-12 0 -14 2q-2 0 -3 2l93 432h-854v4q0 2 -1 5.5z" />
<glyph unicode="&#xad;" horiz-adv-x="581" />
<glyph unicode="&#xae;" horiz-adv-x="1120" d="M210 796q-13 77 7 169t66.5 168.5t112 131t148.5 84t175 29.5t162.5 -29.5t113.5 -84t56.5 -131t-7.5 -168.5q-20 -92 -66 -169t-111.5 -131.5t-148.5 -84t-175 -29.5t-163 29.5t-114 84t-56 131.5zM237 805q13 -72 53 -123t105.5 -79t153.5 -28t166 28t139 79t104 123 t62 160q18 88 5 159.5t-53 122.5t-105.5 79t-153.5 28t-166 -28t-139.5 -79t-104.5 -122.5t-61 -159.5t-5 -160zM446 741l99 465h174q74 0 99.5 -32.5t12.5 -98.5q-23 -100 -116 -119l73 -213q0 -2 -2 -2q-2 -2 -10 -2h-10q-2 0 -4 2l-72 211h-174l-45 -211q0 -2 -2 -2h-12 h-8q-2 0 -3 2zM520 975h154q61 0 92 26.5t41 73.5q10 53 -8.5 80t-79.5 27h-154z" />
<glyph unicode="&#xaf;" horiz-adv-x="833" d="M106 1309q-4 14 7 30h522q2 -12 -6 -30h-523z" />
<glyph unicode="&#xb0;" horiz-adv-x="747" d="M264 1180q-6 41 4 84q8 43 33 86t62.5 76.5t87 55t108.5 21.5q57 0 97 -20.5t61.5 -53t27 -74.5t-3.5 -85q-10 -43 -32.5 -86t-59.5 -76t-85 -53.5t-105 -20.5q-61 0 -102.5 19.5t-64 52.5t-28.5 74zM296 1191q5 -36 24.5 -63.5t54.5 -45t88 -17.5q51 0 93 17.5t74 45 t52.5 64.5t28.5 76t3 75.5t-23.5 65.5t-53.5 46.5t-86 17.5t-94 -18.5t-75 -47.5t-53.5 -65.5t-29.5 -75.5t-3 -75z" />
<glyph unicode="&#xb1;" horiz-adv-x="1048" d="M126 329q-1 3 1 7q0 10 4 14q2 2 4 2h660v-2v-14l-4 -12q-2 -2 -5 -2h-659v2q0 2 -1 5zM239 816q-1 3 1 7q4 12 6 15l2 2h303l53 252q2 0 4 2q2 0 5 1t10 1q4 0 6 -1t4 -1l2 -2l-53 -252h309q2 0 2 -2q0 -8 -2 -15l-4 -12l-2 -2h-310l-53 -254q-2 -2 -4 -2q-2 -2 -12 -2 t-12 2q-2 0 -2 2l53 254h-303q-2 0 -2 2t-1 5z" />
<glyph unicode="&#xb2;" horiz-adv-x="616" d="M115 709v24q0 10 1 26t5 34q14 70 54 113.5t92 73.5t110.5 52.5t110 48t90 62.5t51.5 96q6 27 3 55.5t-20.5 51t-53.5 37t-97 14.5q-61 -2 -103.5 -10.5t-58.5 -12.5q-6 10 0 25q-4 0 44 11t124 11q66 0 105.5 -15t60 -41t23.5 -59.5t-5 -68.5q-14 -63 -52 -103t-90 -68 t-109.5 -50.5t-109.5 -50t-91 -68.5t-54 -104q-4 -14 -6 -28.5t-2 -31.5h408q2 -2 2 -12l-6 -12h-426z" />
<glyph unicode="&#xb3;" horiz-adv-x="624" d="M117 721q0 16 10 22q20 -6 45 -10q47 -10 113 -10q117 0 186.5 45t85.5 123q10 47 1 80t-31.5 54.5t-56.5 30.5t-75 9h-86q-4 14 6 25h86q84 0 137.5 40.5t69.5 112.5q31 154 -155 154q-39 0 -71 -3t-54 -8q-27 -4 -49 -8q-4 10 0 23l51 10q23 4 54.5 7t70.5 3 q215 0 178 -178q-12 -59 -53 -105t-107 -61q59 -10 93 -56t16 -130q-18 -92 -97 -142.5t-206 -50.5q-70 0 -117 11q-25 6 -45 12z" />
<glyph unicode="&#xb4;" horiz-adv-x="458" d="M49 1337l320 312q16 -2 22 -19l-321 -311q-16 4 -21 18z" />
<glyph unicode="&#xb5;" horiz-adv-x="1183" d="M20 -420q2 53 13.5 147.5t44.5 243.5l233 1102l2 2q2 0 6.5 1t10.5 1q4 0 5 -1t3 -1l2 -2l-166 -786q-12 -57 -9 -108.5t27.5 -89.5t74.5 -59.5t134 -21.5q145 0 261 76t192 186l170 803l2 2q2 0 5 1t7 1t7.5 -1t5.5 -1l2 -2l-228 -1069q0 -2 -2 -2q-2 -2 -14 -2 q-8 0 -10 2q-2 0 -2 2l45 211q-92 -111 -205 -173t-242 -62q-90 0 -157.5 28.5t-94.5 112.5l-32 -150q-33 -150 -44.5 -241.5t-15.5 -143.5q-4 -61 4 -88q-6 -6 -10 -9t-18 -1q-8 29 -7 92z" />
<glyph unicode="&#xb6;" horiz-adv-x="825" d="M31 -461l346 1630q-63 4 -86 43t-12 91q12 47 53 88t106 41h27l-404 -1893q-2 -2 -4 -2q-2 -2 -12 -2t-12 2q-2 0 -2 2zM326 -461l401 1888q2 0 6 3q4 0 6 1t6 1t5.5 -1t3.5 -1q2 -2 4 -3l-402 -1888q-2 -2 -4 -2q-2 -2 -12 -2t-12 2q-2 0 -2 2z" />
<glyph unicode="&#xb7;" horiz-adv-x="417" d="M166 561l8 41q2 2 8 4q12 4 23 4q12 0 20 -4q4 -2 6 -4l-8 -41q-2 -2 -8 -4q-12 -4 -22 -4q-12 0 -21 4q-4 2 -6 4z" />
<glyph unicode="&#xb8;" horiz-adv-x="606" d="M-283 -373q6 14 21 23q29 -25 66.5 -37t91.5 -12q84 0 143 38.5t78 129.5q12 59 -34 95t-138 36h-41l-8 12l61 162h29l-58 -148q115 4 174.5 -41t42.5 -121q-20 -92 -82.5 -142t-175.5 -50q-55 0 -95 14.5t-75 40.5z" />
<glyph unicode="&#xb9;" horiz-adv-x="495" d="M204 1243q-1 8 3 12q76 16 150.5 56.5t134.5 101.5q12 4 26 0l-149 -698q-6 -2 -13 -2q-6 0 -12 2l141 663q-109 -104 -276 -145q-4 2 -5 10z" />
<glyph unicode="&#xba;" horiz-adv-x="780" d="M127 477q-2 10 6 23h455q2 -10 -6 -23h-455zM205 948q37 174 111.5 257t207.5 83q123 0 172 -81t11 -259q-37 -178 -114 -261t-206 -83q-133 0 -176 83t-6 261zM227 704.5q35 -77.5 160 -77.5q123 0 192.5 77.5t104.5 243.5q35 162 -2 240t-160 78q-125 0 -192.5 -78 t-102.5 -240q-35 -166 0 -243.5z" />
<glyph unicode="&#xbb;" horiz-adv-x="970" d="M35 135l459 418l-275 410q10 16 23 18l284 -416v-4v-8q-2 -4 -2 -6t-2 -4l-2 -2l-469 -426q-16 4 -16 20zM285 82l518 471l-316 471q10 16 23 18l326 -477v-4v-8q-2 -4 -2 -6t-3 -4l-2 -2l-528 -480q-16 4 -16 21z" />
<glyph unicode="&#xbc;" horiz-adv-x="1269" d="M90 -18l1104 1452q2 0 4 2q2 0 5 1t7 1t5.5 -1t3.5 -1l2 -2l-1104 -1452q0 -2 -2 -2h-11h-12q-2 0 -2 2zM218 1243q-1 8 3 12q76 16 150.5 56.5t134.5 101.5q12 4 26 0l-149 -698q-6 -2 -12 -2t-13 2l142 663q-109 -104 -277 -145q-4 2 -5 10zM590 213q-4 4 2 10q2 2 2 4 l477 473q6 2 16 2q4 0 7 -2l-99 -462h76q2 -10 -6 -25h-76l-45 -211q-12 -6 -24 0l45 211h-375zM633 238h338l88 419z" />
<glyph unicode="&#xbd;" horiz-adv-x="1402" d="M92 -18l1104 1452q2 0 4 2q2 0 5 1t7 1t5.5 -1t3.5 -1l2 -2l-1104 -1452q0 -2 -2 -2h-11h-12q-2 0 -2 2zM218 1243q-1 8 3 12q76 16 150.5 56.5t134.5 101.5q12 4 26 0l-149 -698q-6 -2 -12 -2t-13 2l142 663q-109 -104 -277 -145q-4 2 -5 10zM729 0v25q0 26 8 59 q14 70 54 114t92.5 73.5t111 52t109.5 48t89 62.5t50 96q6 27 4 55.5t-20.5 51t-54 37t-97.5 14.5q-61 -2 -103 -10t-59 -12q-4 12 2 24q-4 0 44.5 11.5t123.5 11.5q66 0 106 -15.5t60.5 -41t23.5 -59.5t-5 -69q-14 -63 -53 -103t-91.5 -67.5t-110 -50t-109.5 -50.5t-91 -69 t-51 -104q-4 -14 -6 -28.5t-2 -30.5h407q0 -2 1 -5.5t-1 -7.5q0 -6 -6 -12h-426z" />
<glyph unicode="&#xbe;" horiz-adv-x="1392" d="M139 721q20 -6 45 -12q47 -10 117 -11q127 0 206 50.5t97 142.5q18 84 -15.5 130t-92.5 56q66 14 106.5 60.5t52.5 105.5q37 178 -178 178q-39 0 -70.5 -3t-54.5 -7l-51 -10q-4 -12 0 -23q23 4 49 8q23 4 54.5 7.5t70.5 3.5q186 0 156 -154q-16 -72 -69.5 -112.5 t-137.5 -40.5h-86q-10 -10 -6 -25h86q41 0 74.5 -9t56 -30.5t32 -54.5t-0.5 -80q-16 -78 -86 -123t-187 -45q-66 0 -112 10q-25 4 -45 10q-10 -6 -11 -22zM211 -18l1104 1452l4 2q2 0 5 1t7 1t5 -1t3 -1l2 -2l-1103 -1452q0 -2 -2 -2h-11h-12q-2 0 -2 2zM715 213h375 l-46 -211q12 -6 25 0l45 211h76q8 14 6 25h-76l99 462q-2 2 -7 2q-10 0 -16 -2l-477 -473q0 -2 -2 -4q-6 -6 -2 -10zM758 238l426 419l-88 -419h-338z" />
<glyph unicode="&#xbf;" horiz-adv-x="841" d="M-39 -154.5q-6 54.5 6 109.5q23 102 67 171t99 120t116.5 96t118 101.5t102.5 134t71 194.5q2 0 6 2q4 0 6 1t6 1t6 -1t4 -1l2 -2q-27 -121 -72.5 -202t-102 -138t-118 -102t-117 -95.5t-99.5 -115t-64 -162.5q-10 -51 -5 -101.5t33.5 -89t85 -63.5t148.5 -25 q68 0 124 8.5t97 18.5q47 12 86 29q6 -4 7 -14.5t-3 -14.5q-39 -16 -90 -29q-43 -10 -101 -19t-126 -9q-100 0 -161.5 27.5t-93.5 71.5t-38 98.5zM580 1018l8 41q2 2 8 4q12 4 22 4t19 -4l8 -4l-8 -41q-4 -2 -10 -4q-12 -4 -21 -4q-12 0 -20 4q-4 2 -6 4z" />
<glyph unicode="&#xc0;" horiz-adv-x="1292" d="M-88 2l911 1479q4 4 8 0l283 -1479q-2 -2 -4 -2q-2 -2 -12 -2q-8 0 -11 2q-2 0 -4 2l-90 465h-760l-284 -465q-8 -4 -18.5 -4t-18.5 4zM254 498h733l-172 913zM713 1870q10 12 26 18l189 -311q-8 -10 -25 -14z" />
<glyph unicode="&#xc1;" horiz-adv-x="1292" d="M-88 2l911 1479q4 4 8 0l283 -1479q-2 -2 -4 -2q-2 -2 -12 -2q-8 0 -11 2q-2 0 -4 2l-90 465h-760l-284 -465q-8 -4 -18.5 -4t-18.5 4zM254 498h733l-172 913zM776 1575l320 311q16 -2 22 -18l-321 -312q-16 4 -21 19z" />
<glyph unicode="&#xc2;" horiz-adv-x="1292" d="M-88 2l911 1479q4 4 8 0l283 -1479q-2 -2 -4 -2q-2 -2 -12 -2q-8 0 -11 2q-2 0 -4 2l-90 465h-760l-284 -465q-8 -4 -18.5 -4t-18.5 4zM254 498h733l-172 913zM588 1595l303 207h27l212 -207q-6 -14 -20 -18l-207 199l-299 -201q-16 4 -16 20z" />
<glyph unicode="&#xc3;" horiz-adv-x="1292" d="M-88 2l911 1479q4 4 8 0l283 -1479q-2 -2 -4 -2q-2 -2 -12 -2q-8 0 -11 2q-2 0 -4 2l-90 465h-760l-284 -465q-8 -4 -18.5 -4t-18.5 4zM254 498h733l-172 913zM639 1640q10 23 31 41q16 16 42.5 29.5t63.5 13.5q29 0 51.5 -12t45 -27.5t47 -27.5t59.5 -12q47 0 72.5 25.5 t35.5 41.5q18 -4 25 -14q-14 -25 -35 -43q-16 -16 -42.5 -28.5t-63.5 -12.5q-35 0 -59.5 12t-47 27.5t-46 29t-52.5 13.5q-27 0 -45.5 -11.5t-30.5 -23.5q-14 -16 -26 -35q-18 4 -25 14z" />
<glyph unicode="&#xc4;" horiz-adv-x="1292" d="M-88 2l911 1479q4 4 8 0l283 -1479q-2 -2 -4 -2q-2 -2 -12 -2q-8 0 -11 2q-2 0 -4 2l-90 465h-760l-284 -465q-8 -4 -18.5 -4t-18.5 4zM254 498h733l-172 913zM686 1620l8 41q2 2 8 4q12 4 23 4q12 0 20 -4q4 -2 7 -4l-9 -41q-2 -2 -8 -4q-12 -4 -22 -4q-12 0 -21 4 q-4 2 -6 4zM961 1620l8 41q2 2 8 4q12 4 22 4q12 0 21 -4q4 -2 6 -4l-8 -41q-2 -2 -8 -4q-12 -4 -23 -4q-12 0 -20 4q-4 2 -6 4z" />
<glyph unicode="&#xc5;" horiz-adv-x="1294" d="M-86 2l874 1421q-74 8 -111.5 60.5t-21.5 130.5q10 47 35 82t58.5 58.5t72.5 35.5t78 12t73 -12t58.5 -36.5t33.5 -59.5t-1 -80q-20 -86 -80.5 -134t-138.5 -57l272 -1421q-2 -2 -4 -2q-2 -2 -12 -2q-8 0 -13 2q-4 0 -6 2l-88 465h-757l-285 -465q-2 -2 -6 -2 q-4 -2 -15 -2q-10 0 -12 2q-2 0 -4 2zM256 498h731l-172 913zM684 1614q-14 -72 17.5 -120t119.5 -48q45 0 81 14.5t63.5 39t45 54t23.5 60.5q14 63 -17.5 112.5t-125.5 49.5q-88 0 -141.5 -50.5t-65.5 -111.5z" />
<glyph unicode="&#xc6;" horiz-adv-x="1716" d="M-94 2l1200 1473h663q4 -14 -6 -31h-618l-146 -684h517q2 -16 -7 -31h-516l-149 -698h639q4 -14 -6 -31h-670l92 434h-602l-350 -432q-4 -4 -11.5 -4h-11.5q-14 0 -18 4zM322 465h583l209 975z" />
<glyph unicode="&#xc7;" horiz-adv-x="1130" d="M182 170q-80 182 2 565q84 395 249 577.5t433 182.5q84 0 144.5 -10t101.5 -23q47 -14 80 -32q-4 -16 -18 -25q-35 16 -80 29q-39 10 -96.5 20t-131.5 10q-256 0 -413.5 -177t-237.5 -552t-4 -550t332 -175q80 0 136 5t97 13.5t71 20.5t60 27q16 -6 13 -29 q-31 -14 -60 -26.5t-69.5 -21.5t-98 -14t-145.5 -5l-51 -138q115 4 174 -41t43 -120q-20 -92 -83 -142.5t-175 -50.5q-55 0 -95.5 14.5t-74.5 40.5q6 14 20 23q29 -25 67 -37t91 -12q84 0 143.5 38.5t77.5 129.5q12 59 -34 95t-138 36h-41l-8 12l55 152q-256 8 -336 190z " />
<glyph unicode="&#xc8;" d="M100 0l314 1475h776q2 -16 -6 -31h-746l-145 -680h643q2 -16 -6 -31h-643l-150 -702h766q2 -16 -6 -31h-797zM705 1872q10 12 26 18l189 -311q-8 -10 -25 -14z" />
<glyph unicode="&#xc9;" d="M100 0l314 1475h776q2 -16 -6 -31h-746l-145 -680h643q2 -16 -6 -31h-643l-150 -702h766q2 -16 -6 -31h-797zM711 1589l319 312q16 -2 23 -19l-322 -311q-16 4 -20 18z" />
<glyph unicode="&#xca;" d="M100 0l314 1475h776q2 -16 -6 -31h-746l-145 -680h643q2 -16 -6 -31h-643l-150 -702h766q2 -16 -6 -31h-797zM555 1612l303 207h27l213 -207q-6 -14 -21 -19l-207 199l-299 -201q-16 4 -16 21z" />
<glyph unicode="&#xcb;" d="M100 0l314 1475h776q2 -16 -6 -31h-746l-145 -680h643q2 -16 -6 -31h-643l-150 -702h766q2 -16 -6 -31h-797zM694 1653l11 41q2 2 8 4q12 4 22 4q12 0 21 -4q4 -2 6 -4l-10 -41l-9 -4q-8 -4 -20 -4t-21 4q-6 2 -8 4zM969 1653l10 41q2 2 8 4q12 4 23 4q12 0 20 -4 q4 -2 6 -4l-10 -41l-8 -4q-8 -4 -21 -4q-12 0 -20 4q-6 2 -8 4z" />
<glyph unicode="&#xcc;" horiz-adv-x="497" d="M100 4l314 1466q2 0 4 3q2 0 5 1t7 1t7 -1t5 -1l2 -3l-313 -1466q-2 0 -3 -2t-11 -2t-13 2q-2 0 -4 2zM332 1864q12 16 28 20l187 -311q-10 -14 -23 -17z" />
<glyph unicode="&#xcd;" horiz-adv-x="497" d="M100 4l314 1466q2 0 4 3q2 0 5 1t7 1t7 -1t5 -1l2 -3l-313 -1466q-2 0 -3 -2t-11 -2t-13 2q-2 0 -4 2zM334 1575l321 311q10 -2 12.5 -7l6.5 -13l-322 -307q-12 2 -18 16z" />
<glyph unicode="&#xce;" horiz-adv-x="497" d="M100 4l314 1466q2 0 4 3q2 0 5 1t7 1t7 -1t5 -1l2 -3l-313 -1466l-4 -4h-10t-13 2q-2 0 -4 2zM182 1608l303 207h27l213 -207q-4 -16 -18 -19l-209 199l-303 -201q-12 4 -13 21z" />
<glyph unicode="&#xcf;" horiz-adv-x="497" d="M100 4l314 1466q2 0 4 3q2 0 5 1t7 1t7 -1t5 -1l2 -3l-313 -1466q-4 -4 -14 -4t-13 2q-2 0 -4 2zM297 1630l8 41q2 2 8 4q12 4 23 4q12 0 20 -4q4 -2 6 -4l-8 -41q-2 -2 -8 -4q-12 -4 -22 -4q-12 0 -21 4q-4 2 -6 4zM571 1630l9 41q2 2 8 4q12 4 22 4q12 0 21 -4 q4 -2 6 -4l-8 -41q-2 -2 -8 -4q-12 -4 -23 -4q-12 0 -20 4q-4 2 -7 4z" />
<glyph unicode="&#xd0;" horiz-adv-x="1353" d="M78 721q-4 14 6 31h182l154 723h368q145 0 248 -34t158 -118t61.5 -226.5t-41.5 -359.5q-47 -217 -114.5 -359t-159.5 -226t-208 -118t-257 -34h-369l154 721h-182zM143 31h332q139 0 251 32.5t199 112.5t151.5 216t107.5 345q45 209 40 345.5t-56.5 217t-149.5 112.5 t-242 32h-332l-147 -692h375q2 -16 -6 -31h-375z" />
<glyph unicode="&#xd1;" horiz-adv-x="1417" d="M100 4l314 1466q2 0 4 3q2 0 5 1t7 1t6 -1t4 -1q2 -2 4 -3l525 -1261l63 -166q2 27 10 61q4 29 13.5 71t19.5 93l256 1202q2 0 4 3q2 0 5 1t10 1q4 0 6 -1t4 -1q2 -2 4 -3l-313 -1466q-2 -2 -4 -2q-2 -2 -11 -2q-10 0 -12 2q-2 0 -4 2l-588 1419l-49 -237l-250 -1182 q-2 -2 -6 -2q-4 -2 -12 -2t-11 2q-2 0 -4 2zM682 1640q10 23 31 41q16 16 42.5 29.5t63.5 13.5q29 0 51.5 -12t45 -27.5t47 -27.5t59.5 -12q47 0 72.5 25.5t35.5 41.5q18 -4 25 -14q-14 -25 -35 -43q-16 -16 -42.5 -28.5t-63.5 -12.5q-35 0 -59.5 12t-47 27.5t-46 29 t-52.5 13.5q-27 0 -45.5 -11.5t-30.5 -23.5q-14 -16 -26 -35q-18 4 -25 14z" />
<glyph unicode="&#xd2;" horiz-adv-x="1382" d="M182 737q43 199 109.5 342.5t155 235.5t197 136t233.5 44q258 0 355 -191.5t15 -566.5q-43 -199 -109.5 -342t-154.5 -235t-195.5 -136t-232.5 -44q-262 0 -357.5 191t-15.5 566zM213 737q-78 -375 12 -551t336 -176q115 0 216.5 41t185.5 129t148.5 225t105.5 332 q80 375 -10.5 551t-336.5 176q-115 0 -216 -41t-186 -129t-149.5 -226t-105.5 -331zM793 1868q8 14 24 20l199 -303q-4 -12 -21 -16z" />
<glyph unicode="&#xd3;" horiz-adv-x="1382" d="M182 737q43 199 109.5 342.5t155 235.5t197 136t233.5 44q258 0 355 -191.5t15 -566.5q-43 -199 -109.5 -342t-154.5 -235t-195.5 -136t-232.5 -44q-262 0 -357.5 191t-15.5 566zM213 737q-78 -375 12 -551t336 -176q115 0 216.5 41t185.5 129t148.5 225t105.5 332 q80 375 -10.5 551t-336.5 176q-115 0 -216 -41t-186 -129t-149.5 -226t-105.5 -331zM803 1583l330 303q10 -2 12 -7t4 -13l-330 -299q-16 4 -16 16z" />
<glyph unicode="&#xd4;" horiz-adv-x="1382" d="M182 737q43 199 109.5 342.5t155 235.5t197 136t233.5 44q258 0 355 -191.5t15 -566.5q-43 -199 -109.5 -342t-154.5 -235t-195.5 -136t-232.5 -44q-262 0 -357.5 191t-15.5 566zM213 737q-78 -375 12 -551t336 -176q115 0 216.5 41t185.5 129t148.5 225t105.5 332 q80 375 -10.5 551t-336.5 176q-115 0 -216 -41t-186 -129t-149.5 -226t-105.5 -331zM633 1612l305 207h27l211 -207q-4 -16 -21 -21l-209 201l-301 -201q-12 6 -12 21z" />
<glyph unicode="&#xd5;" horiz-adv-x="1382" d="M182 737q43 199 109.5 342.5t155 235.5t197 136t233.5 44q258 0 355 -191.5t15 -566.5q-43 -199 -109.5 -342t-154.5 -235t-195.5 -136t-232.5 -44q-262 0 -357.5 191t-15.5 566zM213 737q-78 -375 12 -551t336 -176q115 0 216.5 41t185.5 129t148.5 225t105.5 332 q80 375 -10.5 551t-336.5 176q-115 0 -216 -41t-186 -129t-149.5 -226t-105.5 -331zM680 1638q10 23 31 41q16 16 42.5 29.5t63.5 13.5q29 0 51.5 -12t45 -27.5t47 -28t59.5 -12.5q47 0 72.5 26t35.5 42q18 -4 25 -14q-14 -25 -35 -43q-16 -16 -42.5 -28.5t-63.5 -12.5 q-35 0 -59.5 12t-47 27.5t-46 29t-52.5 13.5q-27 0 -45.5 -11.5t-30.5 -23.5q-14 -16 -26 -35q-18 4 -25 14z" />
<glyph unicode="&#xd6;" horiz-adv-x="1382" d="M182 737q43 199 109.5 342.5t155 235.5t197 136t233.5 44q258 0 355 -191.5t15 -566.5q-43 -199 -109.5 -342t-154.5 -235t-195.5 -136t-232.5 -44q-262 0 -357.5 191t-15.5 566zM213 737q-78 -375 12 -551t336 -176q115 0 216.5 41t185.5 129t148.5 225t105.5 332 q80 375 -10.5 551t-336.5 176q-115 0 -216 -41t-186 -129t-149.5 -226t-105.5 -331zM743 1665l9 41q2 2 8 4q12 4 22 4q12 0 21 -4q4 -2 6 -4l-8 -41q-2 -2 -8 -4q-12 -4 -23 -4q-12 0 -20 4q-4 2 -7 4zM1018 1665l8 41q2 2 8 4q12 4 23 4q12 0 20 -4q4 -2 6 -4l-8 -41 q-2 -2 -8 -4q-12 -4 -23 -4q-12 0 -20 4q-4 2 -6 4z" />
<glyph unicode="&#xd7;" horiz-adv-x="897" d="M127 350l291 240l-189 239q10 14 27 21l188 -238l289 238q14 -6 19 -21l-291 -239l188 -240q-8 -12 -26 -20l-189 239l-289 -239q-4 4 -10 8t-8 12z" />
<glyph unicode="&#xd8;" horiz-adv-x="1382" d="M84 -72l147 191q-70 94 -83 248.5t34 369.5q43 199 109.5 342.5t155 235.5t197 136t233.5 44q209 0 313 -127l137 180q14 -4 21 -12l-144 -188q135 -190 43 -611q-43 -199 -109.5 -342t-154.5 -235t-195.5 -136t-232.5 -44q-205 0 -309 120l-142 -184q-14 0 -20 12z M178 379.5q10 -146.5 72 -234.5l919 1198q-94 121 -299 121q-115 0 -216 -41t-186 -129t-149.5 -226t-105.5 -331q-45 -211 -35 -357.5zM266 125q94 -115 295 -115q115 0 216.5 41t185.5 129t148.5 225.5t105.5 331.5q88 410 -33 586z" />
<glyph unicode="&#xd9;" horiz-adv-x="1361" d="M182 442l219 1028q2 0 5 3q2 0 5 1t7 1t7 -1t5 -1l2 -3l-219 -1030q-43 -205 45 -317.5t293 -112.5t342 113t180 317l219 1030q2 0 4 3q2 0 3 1t6 1q4 0 6 -1t6 -1l6 -3l-219 -1028q-47 -219 -194.5 -340.5t-366.5 -121.5q-217 0 -312.5 121.5t-48.5 340.5zM768 1884 q6 8 11 12.5t16 8.5l186 -312q-10 -14 -23 -16z" />
<glyph unicode="&#xda;" horiz-adv-x="1361" d="M182 442l219 1028q2 0 5 3q2 0 5 1t7 1t7 -1t5 -1l2 -3l-219 -1030q-43 -205 45 -317.5t293 -112.5t342 113t180 317l219 1030q2 0 4 3q2 0 3 1t6 1q4 0 6 -1t6 -1l6 -3l-219 -1028q-47 -219 -194.5 -340.5t-366.5 -121.5q-217 0 -312.5 121.5t-48.5 340.5zM780 1573 l322 311q8 -2 10 -7t6 -13l-319 -308q-14 2 -19 17z" />
<glyph unicode="&#xdb;" horiz-adv-x="1361" d="M182 442l219 1028q2 0 5 3q2 0 5 1t7 1t7 -1t5 -1l2 -3l-219 -1030q-43 -205 45 -317.5t293 -112.5t342 113t180 317l219 1030q2 0 4 3q2 0 3 1t6 1q4 0 6 -1t6 -1l6 -3l-219 -1028q-47 -219 -194.5 -340.5t-366.5 -121.5q-217 0 -312.5 121.5t-48.5 340.5zM614 1610 l304 207h26l213 -207q-4 -16 -20 -21l-209 201l-301 -201q-12 4 -13 21z" />
<glyph unicode="&#xdc;" horiz-adv-x="1361" d="M182 442l219 1028q2 0 5 3q2 0 5 1t7 1t7 -1t5 -1l2 -3l-219 -1030q-43 -205 45 -317.5t293 -112.5t342 113t180 317l219 1030q2 0 4 3q2 0 3 1t6 1q4 0 6 -1t6 -1l6 -3l-219 -1028q-47 -219 -194.5 -340.5t-366.5 -121.5q-217 0 -312.5 121.5t-48.5 340.5zM737 1677 l8 41q2 2 9 4q12 4 22 4q12 0 21 -4q4 -2 6 -4l-8 -41q-2 -2 -9 -4q-12 -4 -22 -4q-12 0 -21 4q-4 2 -6 4zM1012 1677l8 41q2 2 8 4q12 4 23 4q12 0 20 -4q4 -2 6 -4l-8 -41q-2 -2 -8 -4q-12 -4 -23 -4q-12 0 -20 4q-4 2 -6 4z" />
<glyph unicode="&#xdd;" horiz-adv-x="1230" d="M238 1470l4 3q4 0 7 1t9 1q4 0 7 -1t5 -1l2 -3l344 -811l711 811l4 3q4 0 7 1t10 1q6 0 10 -1t6 -1l2 -3l-737 -843l-133 -623q-2 -2 -4 -2q-2 -2 -13 -2q-8 0 -10 2q-2 0 -4 2l133 621zM733 1579l320 311q10 -2 12 -7t6 -13l-321 -307q-12 2 -17 16z" />
<glyph unicode="&#xde;" horiz-adv-x="1226" d="M100 4l314 1466l2 3q2 0 5 1t9 1q4 0 7 -1t5 -1l2 -3l-67 -309h461q180 0 258 -105.5t37 -295.5q-41 -186 -162 -290.5t-301 -104.5h-461l-78 -361q0 -2 -2 -2q-2 -2 -12 -2q-12 0 -15 2q-2 0 -2 2zM215 395h465q164 0 274.5 95.5t147.5 267.5q37 176 -33 274t-233 98 h-465z" />
<glyph unicode="&#xdf;" horiz-adv-x="1167" d="M66 4l241 1135q86 397 469 397q96 0 157.5 -30.5t95.5 -80t41 -111t-7 -124.5q-19 -95 -80 -197q-78 6 -145 -14q-57 -16 -110.5 -60.5t-72.5 -132.5q-14 -66 9.5 -107.5t66.5 -73.5t93 -60.5t91 -66.5t61.5 -93t2.5 -141q-25 -117 -118 -190.5t-253 -73.5q-53 0 -89 5 t-58 11q-27 8 -43 16q4 18 18 25q43 -18 85 -23.5t89 -5.5q82 0 141.5 20.5t100.5 54.5t64.5 77t33.5 88q16 82 -5 133t-62 88t-92.5 64.5t-92.5 61.5t-64.5 79t-6.5 117q12 63 42.5 105t68.5 67.5t79 38t75 16.5t56 4h23q23 41 39 85t26 85q12 59 7 116.5t-35.5 101.5 t-88 70.5t-145.5 26.5q-98 0 -173 -26.5t-128 -74.5t-86 -115.5t-51 -151.5l-242 -1135q0 -2 -2 -2q-2 -2 -12 -2t-12 2q-2 0 -2 2z" />
<glyph unicode="&#xe0;" d="M123 539q59 276 188 417.5t324 141.5q125 0 208 -65.5t105 -198.5l53 243q2 0 5 2q2 0 4 1t6 1t7 -1t5 -1q2 -2 4 -2l-229 -1073q-2 -2 -4 -2q-2 -2 -13 -2q-10 0 -12 2q-2 0 -2 2l53 248q-66 -117 -169 -194.5t-244 -77.5q-203 0 -276 141t-13 418zM154 539 q-55 -262 11 -395.5t255 -133.5q88 0 162.5 37t131 95.5t93.5 129t51 138.5l62 288q12 66 -0.5 131.5t-49 118.5t-97 86t-142.5 33q-180 0 -301 -133t-176 -395zM594 1559q6 8 11 12t16 8l188 -311q-10 -14 -25 -17z" />
<glyph unicode="&#xe1;" d="M123 539q59 276 188 417.5t324 141.5q125 0 208 -65.5t105 -198.5l53 243q2 0 5 2q2 0 4 1t6 1t7 -1t5 -1q2 -2 4 -2l-229 -1073q-2 -2 -4 -2q-2 -2 -13 -2q-10 0 -12 2q-2 0 -2 2l53 248q-66 -117 -169 -194.5t-244 -77.5q-203 0 -276 141t-13 418zM154 539 q-55 -262 11 -395.5t255 -133.5q88 0 162.5 37t131 95.5t93.5 129t51 138.5l62 288q12 66 -0.5 131.5t-49 118.5t-97 86t-142.5 33q-180 0 -301 -133t-176 -395zM606 1272l320 311q10 -2 12 -7t6 -13l-321 -308q-12 2 -17 17z" />
<glyph unicode="&#xe2;" d="M123 539q59 276 188 417.5t324 141.5q125 0 208 -65.5t105 -198.5l53 243q2 0 5 2q2 0 4 1t6 1t7 -1t5 -1q2 -2 4 -2l-229 -1073q-2 -2 -4 -2q-2 -2 -13 -2q-10 0 -12 2q-2 0 -2 2l53 248q-66 -117 -169 -194.5t-244 -77.5q-203 0 -276 141t-13 418zM154 539 q-55 -262 11 -395.5t255 -133.5q88 0 162.5 37t131 95.5t93.5 129t51 138.5l62 288q12 66 -0.5 131.5t-49 118.5t-97 86t-142.5 33q-180 0 -301 -133t-176 -395zM430 1268l303 207h27l213 -207q-8 -18 -23 -21l-209 201l-301 -201q-10 4 -10 21z" />
<glyph unicode="&#xe3;" d="M123 539q59 276 188 417.5t324 141.5q125 0 208 -65.5t105 -198.5l53 243q2 0 5 2q2 0 4 1t6 1t7 -1t5 -1q2 -2 4 -2l-229 -1073q-2 -2 -4 -2q-2 -2 -13 -2q-10 0 -12 2q-2 0 -2 2l53 248q-66 -117 -169 -194.5t-244 -77.5q-203 0 -276 141t-13 418zM154 539 q-55 -262 11 -395.5t255 -133.5q88 0 162.5 37t131 95.5t93.5 129t51 138.5l62 288q12 66 -0.5 131.5t-49 118.5t-97 86t-142.5 33q-180 0 -301 -133t-176 -395zM485 1352q12 23 33 43q16 16 43 30.5t68 14.5q29 0 50 -13.5t42.5 -29t45 -27.5t58.5 -12q47 0 73 25.5 t36 41.5q14 -2 20 -14q-12 -25 -32 -43q-16 -16 -43 -28.5t-64 -12.5q-35 0 -59.5 12.5t-46 27.5t-43 28.5t-50.5 13.5t-48 -11.5t-33 -23.5q-16 -16 -27 -35q-18 2 -23 13z" />
<glyph unicode="&#xe4;" d="M123 539q59 276 188 417.5t324 141.5q125 0 208 -65.5t105 -198.5l53 243q2 0 5 2q2 0 4 1t6 1t7 -1t5 -1q2 -2 4 -2l-229 -1073q-2 -2 -4 -2q-2 -2 -13 -2q-10 0 -12 2q-2 0 -2 2l53 248q-66 -117 -169 -194.5t-244 -77.5q-203 0 -276 141t-13 418zM154 539 q-55 -262 11 -395.5t255 -133.5q88 0 162.5 37t131 95.5t93.5 129t51 138.5l62 288q12 66 -0.5 131.5t-49 118.5t-97 86t-142.5 33q-180 0 -301 -133t-176 -395zM569 1399l9 37q4 0 8 2q8 4 18 4q8 0 17 -4q4 -2 6 -2l-9 -37l-8 -4q-4 -2 -18 -2q-12 0 -17 2q-4 2 -6 4z M844 1399l8 37q4 0 8 2q8 4 19 4q8 0 16 -4q4 -2 6 -2l-8 -37l-8 -4q-4 -2 -19 -2q-12 0 -16 2t-6 4z" />
<glyph unicode="&#xe5;" d="M123 539q59 276 188 417.5t324 141.5q125 0 208 -65.5t105 -198.5l53 243q2 0 5 2q2 0 4 1t6 1t7 -1t5 -1q2 -2 4 -2l-229 -1073q-2 -2 -4 -2q-2 -2 -13 -2q-10 0 -12 2q-2 0 -2 2l53 248q-66 -117 -169 -194.5t-244 -77.5q-203 0 -276 141t-13 418zM154 539 q-55 -262 11 -395.5t255 -133.5q88 0 162.5 37t131 95.5t93.5 129t51 138.5l62 288q12 66 -0.5 131.5t-49 118.5t-97 86t-142.5 33q-180 0 -301 -133t-176 -395zM514 1440q10 49 37 86t61.5 62.5t75.5 37.5t82 12q39 0 76 -12t61.5 -36.5t34.5 -62.5t0 -87 q-20 -98 -95 -150.5t-165 -52.5q-92 0 -140 52t-28 151zM543 1375q4 -32 20.5 -56.5t47 -39.5t77.5 -15t85 15t66.5 39.5t47 56.5t24.5 65q16 66 -19.5 118t-129.5 52q-92 0 -147.5 -52.5t-69.5 -117.5q-6 -33 -2 -65z" />
<glyph unicode="&#xe6;" horiz-adv-x="1640" d="M123 539q59 276 179 417.5t298 141.5q125 0 189.5 -60.5t80.5 -189.5l50 229q2 0 4 2q2 0 4 1t6 1t7 -1t5 -1q2 -2 4 -2l-57 -268l12 27q72 133 172.5 197.5t214.5 64.5q84 0 138.5 -30t83 -80t32.5 -116.5t-10 -140.5q-18 -80 -39 -131q-10 -29 -22 -49h-637 q-49 -268 4 -404.5t217 -136.5q61 0 110.5 13.5t83.5 29.5q39 20 72 45q16 -6 18 -22q-33 -27 -77 -49q-39 -18 -93.5 -32.5t-121.5 -14.5q-115 0 -189 69.5t-82 229.5v2l-59 -277q-2 -2 -4 -2q-2 -2 -12 -2t-13 2q-2 0 -2 2l49 227q-53 -109 -138 -180t-224 -71 q-186 0 -250 141t-4 418zM154 539q-55 -262 3 -395.5t228 -133.5q88 0 155.5 37t114.5 95.5t77 129t44 138.5l62 288q12 66 7 131.5t-33 118.5t-81 86t-135 33q-164 0 -275.5 -133t-166.5 -395zM844 582h614q8 20 17 43q14 36 30 112q14 63 11 124t-27.5 106t-73.5 72.5 t-129 27.5q-68 0 -134.5 -27.5t-124.5 -86t-105.5 -150.5t-77.5 -221z" />
<glyph unicode="&#xe7;" horiz-adv-x="905" d="M119 -457q4 12 18 21q29 -23 64 -35t86 -12q78 0 135 36.5t76 122.5q12 57 -26 91t-124 34h-39l-8 13l72 168q-178 20 -239.5 162.5t-8.5 398.5q59 276 194.5 415.5t339.5 139.5q53 0 94.5 -7.5t69.5 -15.5q33 -10 54 -22q-4 -20 -21 -27q-20 12 -49 21q-25 8 -61.5 14 t-83.5 6q-195 0 -323 -133t-183 -395t12.5 -395.5t267.5 -133.5q51 0 95 8.5t77 18.5q37 12 68 29q12 -6 12 -27q-33 -18 -72 -31q-35 -10 -83 -19t-105 -9h-31l-63 -152q109 2 158 -40t34 -114q-20 -88 -79.5 -136t-167.5 -48q-53 0 -91 14.5t-69 38.5z" />
<glyph unicode="&#xe8;" horiz-adv-x="1034" d="M125 545q31 145 84 249.5t122.5 172t150.5 99.5t171 32t150.5 -30t94.5 -80t41 -116.5t-7 -140.5q-10 -47 -21.5 -84t-21.5 -63q-10 -31 -23 -54h-712q-49 -270 11 -395t253 -125q66 0 122 14.5t97 30.5q47 20 86 45q18 -4 14 -22q-37 -27 -88 -49q-43 -18 -104.5 -33.5 t-138.5 -15.5q-205 0 -272.5 142t-8.5 423zM160 561h690q0 -4 17.5 43t33.5 133q14 63 8 124t-35.5 106t-85 72.5t-141.5 27.5q-170 0 -299 -123t-188 -383zM580 1554q12 16 26 21l189 -311q-10 -14 -25 -17z" />
<glyph unicode="&#xe9;" horiz-adv-x="1034" d="M125 545q31 145 84 249.5t122.5 172t150.5 99.5t171 32t150.5 -30t94.5 -80t41 -116.5t-7 -140.5q-10 -47 -21.5 -84t-21.5 -63q-10 -31 -23 -54h-712q-49 -270 11 -395t253 -125q66 0 122 14.5t97 30.5q47 20 86 45q18 -4 14 -22q-37 -27 -88 -49q-43 -18 -104.5 -33.5 t-138.5 -15.5q-205 0 -272.5 142t-8.5 423zM160 561h690q0 -4 17.5 43t33.5 133q14 63 8 124t-35.5 106t-85 72.5t-141.5 27.5q-170 0 -299 -123t-188 -383zM557 1264l320 311q10 -2 12 -7t6 -14l-322 -307q-12 4 -16 17z" />
<glyph unicode="&#xea;" horiz-adv-x="1034" d="M125 545q31 145 84 249.5t122.5 172t150.5 99.5t171 32t150.5 -30t94.5 -80t41 -116.5t-7 -140.5q-10 -47 -21.5 -84t-21.5 -63q-10 -31 -23 -54h-712q-49 -270 11 -395t253 -125q66 0 122 14.5t97 30.5q47 20 86 45q18 -4 14 -22q-37 -27 -88 -49q-43 -18 -104.5 -33.5 t-138.5 -15.5q-205 0 -272.5 142t-8.5 423zM160 561h690q0 -4 17.5 43t33.5 133q14 63 8 124t-35.5 106t-85 72.5t-141.5 27.5q-170 0 -299 -123t-188 -383zM416 1251l303 207h26l213 -207q-4 -16 -20 -20l-209 201l-297 -201q-16 6 -16 20z" />
<glyph unicode="&#xeb;" horiz-adv-x="1034" d="M125 545q31 145 84 249.5t122.5 172t150.5 99.5t171 32t150.5 -30t94.5 -80t41 -116.5t-7 -140.5q-10 -47 -21.5 -84t-21.5 -63q-10 -31 -23 -54h-712q-49 -270 11 -395t253 -125q66 0 122 14.5t97 30.5q47 20 86 45q18 -4 14 -22q-37 -27 -88 -49q-43 -18 -104.5 -33.5 t-138.5 -15.5q-205 0 -272.5 142t-8.5 423zM160 561h690q0 -4 17.5 43t33.5 133q14 63 8 124t-35.5 106t-85 72.5t-141.5 27.5q-170 0 -299 -123t-188 -383zM547 1356l8 41q2 2 8 4q12 4 23 4q12 0 20 -4q4 -2 6 -4l-8 -41q-2 -2 -8 -4q-12 -4 -23 -4q-12 0 -20 4q-4 2 -6 4 zM821 1356l8 41q2 2 9 4q12 4 22 4q12 0 21 -4q4 -2 6 -4l-8 -41q-2 -2 -9 -4q-12 -4 -22 -4q-12 0 -21 4q-4 2 -6 4z" />
<glyph unicode="&#xec;" horiz-adv-x="442" d="M76 4l227 1069q2 0 4 2q2 0 5 1t7 1t6.5 -1t4.5 -1l2 -2l-228 -1069q0 -2 -2 -2q-2 -2 -12 -2t-12 2q-2 0 -2 2zM238 1561q12 16 26 20l189 -311q-10 -14 -25 -17z" />
<glyph unicode="&#xed;" horiz-adv-x="442" d="M76 4l227 1069q2 0 4 2q2 0 5 1t7 1t6.5 -1t4.5 -1l2 -2l-228 -1069q0 -2 -2 -2q-2 -2 -12 -2t-12 2q-2 0 -2 2zM252 1272l319 311q10 -2 12.5 -7l6.5 -13l-322 -308q-12 2 -16 17z" />
<glyph unicode="&#xee;" horiz-adv-x="442" d="M76 4l227 1069q2 0 4 2q2 0 5 1t7 1t6.5 -1t4.5 -1l2 -2l-228 -1069q0 -2 -2 -2q-2 -2 -12 -2t-12 2q-2 0 -2 2zM86 1251l303 207h27l213 -207q-4 -16 -21 -20l-207 201l-303 -201q-12 4 -12 20z" />
<glyph unicode="&#xef;" horiz-adv-x="442" d="M76 4l227 1069q2 0 4 2q2 0 5 1t7 1t6.5 -1t4.5 -1l2 -2l-228 -1069q0 -2 -2 -2q-2 -2 -12 -2t-12 2q-2 0 -2 2zM213 1376l8 41q2 2 8 4q12 4 23 4q12 0 20 -4q4 -2 7 -4l-9 -41q-2 -2 -8 -4q-12 -4 -22 -4q-12 0 -21 4q-4 2 -6 4zM487 1376l9 41q2 2 8 4q12 4 22 4 q12 0 21 -4q4 -2 6 -4l-8 -41q-2 -2 -8 -4q-12 -4 -23 -4q-12 0 -20 4q-4 2 -7 4z" />
<glyph unicode="&#xf0;" horiz-adv-x="1128" d="M121 516q55 266 186 401.5t326 135.5q143 0 232 -73t96 -226q20 385 -144 573l-227 -137q-12 8 -12 27l221 131q-117 117 -312 153q-2 10 2.5 19.5t10.5 15.5q111 -23 191.5 -66t139.5 -102l191 113q12 -6 12 -25l-184 -110q61 -72 95 -164t43 -200t-2 -226.5t-38 -245.5 q-59 -283 -194.5 -406.5t-333.5 -123.5q-203 0 -280 135t-19 401zM152 516q-53 -250 14 -378t256 -128q199 0 318.5 121t174.5 383q31 143 21 240.5t-51 157t-108.5 85t-151.5 25.5q-180 0 -300 -129t-173 -377z" />
<glyph unicode="&#xf1;" horiz-adv-x="1132" d="M68 4l227 1069q18 10 29 0l-52 -248q96 139 213 206t248 67q143 0 209 -80t37 -221l-170 -793q-14 -10 -29 0l168 791q29 133 -31.5 203.5t-193.5 70.5q-57 0 -116.5 -15.5t-119 -51t-118 -95t-111.5 -145.5l-162 -758q-14 -10 -28 0zM522 1378q10 23 31 41 q16 16 43 29.5t63 13.5q29 0 51.5 -12t45 -27.5t47 -28t59.5 -12.5q47 0 73 26t36 42q18 -4 24 -14q-14 -25 -34 -43q-16 -16 -43 -28.5t-64 -12.5q-35 0 -59.5 12t-47 27.5t-46 29t-52.5 13.5q-27 0 -45 -11.5t-31 -23.5q-14 -16 -26 -35q-18 4 -25 14z" />
<glyph unicode="&#xf2;" horiz-adv-x="1097" d="M97 280.5q-5 106.5 28 258.5t83 258t115.5 172.5t147.5 97.5t178 31t165 -31t106.5 -97.5t43 -173t-27.5 -257.5q-33 -152 -83 -258.5t-115.5 -173t-147.5 -97t-178 -30.5t-165 30.5t-107 97t-43 173zM125 287.5q4 -101.5 40 -164t99.5 -89t149.5 -26.5t161.5 26.5 t138 89t111.5 164t82 251.5q31 150 28 251t-38 163.5t-98.5 89t-151.5 26.5q-86 0 -161.5 -26.5t-139 -89t-113 -164t-79.5 -250.5q-33 -150 -29 -251.5zM559 1559q6 8 11 12t16 8l188 -311q-10 -14 -24 -17z" />
<glyph unicode="&#xf3;" horiz-adv-x="1097" d="M97 280.5q-5 106.5 28 258.5t83 258t115.5 172.5t147.5 97.5t178 31t165 -31t106.5 -97.5t43 -173t-27.5 -257.5q-33 -152 -83 -258.5t-115.5 -173t-147.5 -97t-178 -30.5t-165 30.5t-107 97t-43 173zM125 287.5q4 -101.5 40 -164t99.5 -89t149.5 -26.5t161.5 26.5 t138 89t111.5 164t82 251.5q31 150 28 251t-38 163.5t-98.5 89t-151.5 26.5q-86 0 -161.5 -26.5t-139 -89t-113 -164t-79.5 -250.5q-33 -150 -29 -251.5zM539 1266l321 311q10 -2 19 -21l-322 -307q-14 2 -18 17z" />
<glyph unicode="&#xf4;" horiz-adv-x="1097" d="M97 280.5q-5 106.5 28 258.5t83 258t115.5 172.5t147.5 97.5t178 31t165 -31t106.5 -97.5t43 -173t-27.5 -257.5q-33 -152 -83 -258.5t-115.5 -173t-147.5 -97t-178 -30.5t-165 30.5t-107 97t-43 173zM125 287.5q4 -101.5 40 -164t99.5 -89t149.5 -26.5t161.5 26.5 t138 89t111.5 164t82 251.5q31 150 28 251t-38 163.5t-98.5 89t-151.5 26.5q-86 0 -161.5 -26.5t-139 -89t-113 -164t-79.5 -250.5q-33 -150 -29 -251.5zM410 1251l303 207h26l213 -207q-4 -16 -20 -20l-207 201l-303 -201q-12 4 -12 20z" />
<glyph unicode="&#xf5;" horiz-adv-x="1097" d="M97 280.5q-5 106.5 28 258.5t83 258t115.5 172.5t147.5 97.5t178 31t165 -31t106.5 -97.5t43 -173t-27.5 -257.5q-33 -152 -83 -258.5t-115.5 -173t-147.5 -97t-178 -30.5t-165 30.5t-107 97t-43 173zM125 287.5q4 -101.5 40 -164t99.5 -89t149.5 -26.5t161.5 26.5 t138 89t111.5 164t82 251.5q31 150 28 251t-38 163.5t-98.5 89t-151.5 26.5q-86 0 -161.5 -26.5t-139 -89t-113 -164t-79.5 -250.5q-33 -150 -29 -251.5zM481 1360q10 23 31 41q16 16 43 29.5t63 13.5q29 0 51.5 -12.5t45 -27.5t47 -27.5t59.5 -12.5q47 0 73 25.5t36 42.5 q18 -4 24 -15q-14 -25 -34 -43q-16 -16 -43 -28.5t-64 -12.5q-35 0 -59.5 12.5t-47 28t-46 28.5t-52.5 13q-27 0 -45 -11t-31 -24q-14 -16 -26 -34q-18 4 -25 14z" />
<glyph unicode="&#xf6;" horiz-adv-x="1097" d="M97 280.5q-5 106.5 28 258.5t83 258t115.5 172.5t147.5 97.5t178 31t165 -31t106.5 -97.5t43 -173t-27.5 -257.5q-33 -152 -83 -258.5t-115.5 -173t-147.5 -97t-178 -30.5t-165 30.5t-107 97t-43 173zM125 287.5q4 -101.5 40 -164t99.5 -89t149.5 -26.5t161.5 26.5 t138 89t111.5 164t82 251.5q31 150 28 251t-38 163.5t-98.5 89t-151.5 26.5q-86 0 -161.5 -26.5t-139 -89t-113 -164t-79.5 -250.5q-33 -150 -29 -251.5zM547 1389l8 41q2 2 8 4q12 4 23 4q12 0 20 -4q4 -2 6 -4l-8 -41q-2 -2 -8 -5q-12 -4 -23 -4q-12 0 -20 4q-4 2 -6 5z M821 1389l8 41q2 2 9 4q12 4 22 4q12 0 21 -4q4 -2 6 -4l-8 -41q-2 -2 -9 -5q-12 -4 -22 -4q-12 0 -21 4q-4 2 -6 5z" />
<glyph unicode="&#xf7;" horiz-adv-x="1150" d="M184 580q-4 14 6 30h764q2 -16 -6 -30h-764zM469 248l8 41q2 2 8 4q12 4 23 4q12 0 20 -4q4 -2 7 -4l-9 -41q-2 -2 -8 -4q-12 -4 -22 -4q-12 0 -21 4q-4 2 -6 4zM606 899l10 41q2 2 9 4q8 4 20 4t21 -4l8 -4l-10 -41q-2 -2 -9 -4q-12 -4 -22 -4q-12 0 -21 4q-4 2 -6 4z " />
<glyph unicode="&#xf8;" horiz-adv-x="1097" d="M68 -68l100 134q-55 66 -68.5 179t25.5 294q33 152 83 258t115.5 172.5t147.5 97.5t178 31q78 0 137.5 -19.5t100.5 -62.5l102 135q16 0 23 -12l-109 -144q49 -66 58.5 -177t-25.5 -279q-33 -152 -83 -258.5t-115.5 -173t-147.5 -97t-178 -30.5q-72 0 -128.5 16t-97.5 53 l-96 -129q-16 0 -22 12zM128 259.5q11 -107.5 60 -167.5l680 897q-39 43 -96 61.5t-129 18.5q-86 0 -161.5 -26.5t-138 -89t-111 -164t-78.5 -250.5q-37 -172 -26 -279.5zM207 74q37 -35 90 -50.5t121 -15.5q86 0 161.5 26.5t137 89t109.5 164t81 251.5q35 160 27 265 t-51 165z" />
<glyph unicode="&#xf9;" horiz-adv-x="1128" d="M119 293l166 780q18 10 28 0l-163 -778q-29 -133 30.5 -210t192.5 -77q57 0 116.5 15.5t119 51.5t117.5 95t112 145l159 758q18 10 29 0l-227 -1069q-14 -10 -29 0l53 248q-96 -139 -212.5 -205.5t-248.5 -66.5q-143 0 -207.5 86t-35.5 227zM573 1559q6 8 11.5 12t15.5 8 l188 -311q-10 -14 -24 -17z" />
<glyph unicode="&#xfa;" horiz-adv-x="1128" d="M119 293l166 780q18 10 28 0l-163 -778q-29 -133 30.5 -210t192.5 -77q57 0 116.5 15.5t119 51.5t117.5 95t112 145l159 758q18 10 29 0l-227 -1069q-14 -10 -29 0l53 248q-96 -139 -212.5 -205.5t-248.5 -66.5q-143 0 -207.5 86t-35.5 227zM590 1282l301 293 q10 -2 12 -7t6 -14l-303 -288q-12 4 -16 16z" />
<glyph unicode="&#xfb;" horiz-adv-x="1128" d="M119 293l166 780q18 10 28 0l-163 -778q-29 -133 30.5 -210t192.5 -77q57 0 116.5 15.5t119 51.5t117.5 95t112 145l159 758q18 10 29 0l-227 -1069q-14 -10 -29 0l53 248q-96 -139 -212.5 -205.5t-248.5 -66.5q-143 0 -207.5 86t-35.5 227zM449 1270l274 188h27 l200 -194q-4 -16 -20 -21l-197 189l-272 -183q-12 4 -12 21z" />
<glyph unicode="&#xfc;" horiz-adv-x="1128" d="M119 293l166 780q18 10 28 0l-163 -778q-29 -133 30.5 -210t192.5 -77q57 0 116.5 15.5t119 51.5t117.5 95t112 145l159 758q18 10 29 0l-227 -1069q-14 -10 -29 0l53 248q-96 -139 -212.5 -205.5t-248.5 -66.5q-143 0 -207.5 86t-35.5 227zM547 1395l8 41q2 2 8 4 q12 4 23 4q12 0 20 -4q4 -2 6 -4l-8 -41q-2 -2 -8 -4q-12 -4 -23 -5q-12 0 -20 5q-4 2 -6 4zM821 1395l8 41q2 2 9 4q12 4 22 4q12 0 21 -4q4 -2 6 -4l-8 -41q-2 -2 -9 -4q-12 -4 -22 -5q-12 0 -21 5q-4 2 -6 4z" />
<glyph unicode="&#xfd;" horiz-adv-x="1128" d="M-4 -469q0 16 16 27q37 -12 78 -21q35 -8 81 -14t95 -6q119 0 202 25.5t141.5 87t98.5 165t72 258.5l43 199q-96 -139 -212.5 -205.5t-248.5 -66.5q-143 0 -207.5 86t-35.5 227l166 780q18 10 28 0l-163 -778q-29 -133 30.5 -210t192.5 -77q57 0 116.5 15.5t119 51.5 t117.5 95t112 145l159 758q18 10 29 0l-217 -1020q-35 -164 -78 -272.5t-106.5 -174t-151.5 -92t-213 -26.5q-55 0 -104.5 6t-83.5 14q-41 8 -76 23zM623 1270l319 311q10 -2 12 -7t7 -13l-322 -308q-12 2 -16 17z" />
<glyph unicode="&#xfe;" d="M-43 -510l434 2038q2 0 4 2q2 0 5 1t8 1q4 0 7 -1t5 -1l2 -2l-150 -703q33 57 78 107.5t98.5 87.5t114 57.5t123.5 20.5q203 0 275.5 -136.5t13.5 -422.5q-59 -283 -188 -421t-324 -138q-117 0 -203 67.5t-113 194.5l-159 -752q-2 -2 -4 -2q-2 -2 -11 -2q-10 0 -12 2 q-2 0 -4 2zM176 377q-12 -66 2.5 -131.5t52 -117.5t97 -85t139.5 -33q180 0 300 130t177 399q57 272 -11.5 400t-254.5 128q-84 0 -156.5 -37t-131 -95t-98.5 -129t-54 -138z" />
<glyph unicode="&#xff;" horiz-adv-x="1128" d="M-4 -469q0 16 16 27q37 -12 78 -21q35 -8 81 -14t95 -6q119 0 202 25.5t141.5 87t98.5 165t72 258.5l43 199q-96 -139 -212.5 -205.5t-248.5 -66.5q-143 0 -207.5 86t-35.5 227l166 780q18 10 28 0l-163 -778q-29 -133 30.5 -210t192.5 -77q57 0 116.5 15.5t119 51.5 t117.5 95t112 145l159 758q18 10 29 0l-217 -1020q-35 -164 -78 -272.5t-106.5 -174t-151.5 -92t-213 -26.5q-55 0 -104.5 6t-83.5 14q-41 8 -76 23zM549 1399l8 41q2 2 8 4q12 4 23 4q12 0 20 -4q4 -2 6 -4l-8 -41q-2 -2 -8 -4q-12 -4 -23 -4q-12 0 -20 4q-4 2 -6 4z M844 1399l8 41q2 2 8 4q12 4 23 4q12 0 20 -4q4 -2 6 -4l-8 -41q-2 -2 -8 -4q-12 -4 -23 -4q-12 0 -20 4q-4 2 -6 4z" />
<glyph unicode="&#x152;" horiz-adv-x="1656" d="M149.5 393q-10.5 143 32.5 344q43 199 114 342.5t165 235.5t207.5 136t242.5 44q55 0 99.5 -8t68.5 -12h627q4 -16 -6 -31h-617l-145 -680h535q4 -16 -7 -31h-534l-150 -702h637q2 -16 -6 -31h-649q-29 -8 -72 -14t-102 -6q-129 0 -224.5 43t-150.5 135t-65.5 235z M182.5 405q10.5 -137 62.5 -225t142 -129t209 -41q51 0 92 6.5t64 12.5l301 1419q-23 6 -59 11t-89 5q-119 0 -226.5 -41t-197.5 -129t-158.5 -226t-109.5 -331q-41 -195 -30.5 -332z" />
<glyph unicode="&#x153;" horiz-adv-x="1710" d="M95 280.5q-3 106.5 30 258.5t81 258t111.5 172.5t142.5 97.5t173 31q152 0 223.5 -83t61.5 -274q74 188 187.5 272.5t240.5 84.5q86 0 142 -30t87 -80t37 -116.5t-8 -140.5q-10 -47 -21.5 -84t-21.5 -63q-10 -31 -23 -54h-647q-51 -256 0 -388t225 -132q55 0 102.5 11.5 t84 26.5t60 30.5t30.5 21.5q20 -6 18 -24q-33 -27 -78 -49q-39 -18 -95 -32.5t-128 -14.5q-137 0 -212 89t-64 271q-72 -195 -184.5 -277.5t-258.5 -82.5q-94 0 -159.5 30.5t-99.5 97t-37 173zM125 287.5q2 -101.5 33.5 -163t92 -88t146.5 -26.5q84 0 155 29t128 92.5 t101 164.5t75 247q33 150 33 251t-30 162.5t-88 87t-142 25.5t-157 -26.5t-132 -89t-106 -163.5t-78 -251q-33 -150 -31 -251.5zM897 561h623q0 -4 17 41t36 131q14 63 10 125t-30.5 108t-78 74.5t-131.5 28.5q-152 0 -269.5 -124t-176.5 -384z" />
<glyph unicode="&#x178;" horiz-adv-x="1230" d="M238 1470l4 3q4 0 7 1t9 1q4 0 6 -1t4 -1q2 -2 4 -3l344 -811l711 811l4 3q2 0 6 1t11 1q6 0 10 -1t6 -1l2 -3l-737 -843l-133 -623q-2 -2 -4 -2q-2 -2 -13 -2q-8 0 -10 2q-2 0 -4 2l133 621zM670 1673l8 41q2 2 8 4q12 4 23 4q12 0 20 -4q4 -2 6 -4l-8 -41q-2 -2 -8 -4 q-12 -4 -23 -4q-12 0 -20 4q-4 2 -6 4zM944 1673l8 41q2 2 9 4q12 4 22 4q12 0 21 -4q4 -2 6 -4l-9 -41q-2 -2 -8 -4q-12 -4 -22 -4q-12 0 -21 4q-4 2 -6 4z" />
<glyph unicode="&#x2c6;" horiz-adv-x="811" d="M68 1171l303 207h26l213 -207q-6 -14 -20 -18l-207 199l-299 -201q-16 4 -16 20z" />
<glyph unicode="&#x2dc;" horiz-adv-x="669" d="M98 1290q10 23 31 41q16 16 43 29.5t64 13.5q29 0 51 -12t44.5 -27.5t47 -28t59.5 -12.5q47 0 73 26t36 42q18 -4 24 -14q-14 -25 -34 -43q-16 -16 -43 -28.5t-64 -12.5q-35 0 -59.5 12t-47 27.5t-46 29t-52.5 13.5q-27 0 -45 -11.5t-30 -23.5q-14 -16 -27 -35 q-18 4 -25 14z" />
<glyph unicode="&#x2000;" horiz-adv-x="952" />
<glyph unicode="&#x2001;" horiz-adv-x="1905" />
<glyph unicode="&#x2002;" horiz-adv-x="952" />
<glyph unicode="&#x2003;" horiz-adv-x="1905" />
<glyph unicode="&#x2004;" horiz-adv-x="635" />
<glyph unicode="&#x2005;" horiz-adv-x="476" />
<glyph unicode="&#x2006;" horiz-adv-x="317" />
<glyph unicode="&#x2007;" horiz-adv-x="317" />
<glyph unicode="&#x2008;" horiz-adv-x="238" />
<glyph unicode="&#x2009;" horiz-adv-x="381" />
<glyph unicode="&#x200a;" horiz-adv-x="105" />
<glyph unicode="&#x2010;" horiz-adv-x="710" d="M168 575q-4 14 6 31h352q2 -16 -6 -31h-352z" />
<glyph unicode="&#x2011;" horiz-adv-x="710" d="M168 575q-4 14 6 31h352q2 -16 -6 -31h-352z" />
<glyph unicode="&#x2012;" horiz-adv-x="710" d="M168 575q-4 14 6 31h352q2 -16 -6 -31h-352z" />
<glyph unicode="&#x2013;" horiz-adv-x="1124" d="M170 575q-4 14 6 31h762q2 -16 -6 -31h-762z" />
<glyph unicode="&#x2014;" horiz-adv-x="1636" d="M170 575q-4 14 6 31h1274q2 -16 -6 -31h-1274z" />
<glyph unicode="&#x2018;" horiz-adv-x="380" d="M293 1288l6 35q8 35 23.5 61.5t31.5 47.5q18 23 39 41l15 -13q-16 -18 -33 -39q-14 -18 -27.5 -40.5t-17.5 -47.5q4 0 6 -1t6 -1q4 -2 8 -2l-8 -41q-2 -2 -6 -2q-4 -2 -21 -2q-14 0 -18 2q-4 0 -4 2z" />
<glyph unicode="&#x2019;" horiz-adv-x="372" d="M287 1300q18 16 32 39q12 16 24.5 40t18.5 48q-8 0 -12 3q-4 0 -6 2l8 41q2 0 6 2q4 0 7.5 1t11.5 1q6 0 10 -1t8 -1q4 -2 6 -2l-8 -35q-8 -35 -22.5 -61.5t-30.5 -47.5q-18 -23 -39 -41z" />
<glyph unicode="&#x201a;" horiz-adv-x="317" d="M-43 -131q16 16 33 39q14 16 26.5 39.5t18.5 48.5q-10 0 -15 2q-4 0 -6 2l9 41q2 0 6 2q4 0 8 1t12 1q6 0 9 -1t8 -1q4 -2 6 -2l-6 -35q-8 -35 -23.5 -61.5t-32.5 -46.5q-18 -23 -39 -41z" />
<glyph unicode="&#x201c;" horiz-adv-x="528" d="M293 1290l6 35q8 35 23.5 61.5t31.5 47.5q18 23 39 41l15 -13q-18 -18 -33 -39q-14 -18 -26.5 -40.5t-16.5 -47.5q4 0 6 -1t6 -1q4 -2 6 -2l-8 -41q-2 -2 -6 -2q-4 -2 -21 -2q-14 0 -18 2q-4 0 -4 2zM438 1290l6 35q8 35 23.5 61.5t32.5 47.5q18 23 39 41l14 -13 q-18 -18 -33 -39q-14 -18 -26.5 -40.5t-16.5 -47.5q4 0 6 -1t6 -1q4 -2 7 -2l-9 -41q-2 -2 -6 -2q-4 -2 -20 -2q-14 0 -19 2q-4 0 -4 2z" />
<glyph unicode="&#x201d;" horiz-adv-x="516" d="M285 1296q18 16 32 39q12 16 24.5 40t18.5 48q-10 0 -14 2q-4 0 -6 2l8 41q2 0 6 2q4 0 8.5 1.5t12.5 1.5q6 0 9 -1.5t7 -1.5q4 -2 6 -2l-6 -34q-8 -35 -23.5 -61.5t-31.5 -47.5q-18 -23 -39 -41zM430 1296q18 16 33 39q12 16 24.5 40t18.5 48q-10 0 -14 2q-4 0 -7 2 l9 41q2 0 6 2q4 0 8 1.5t12 1.5q6 0 9 -1.5t8 -1.5q4 -2 6 -2l-6 -34q-8 -35 -23.5 -61.5t-32.5 -47.5q-18 -23 -39 -41z" />
<glyph unicode="&#x201e;" horiz-adv-x="462" d="M-43 -131q16 16 33 39q14 16 26.5 39.5t18.5 48.5q-10 0 -15 2q-4 0 -6 2l9 41q2 0 6 2q4 0 8 1t12 1q6 0 9 -1t8 -1q4 -2 6 -2l-6 -35q-8 -35 -23.5 -61.5t-32.5 -46.5q-18 -23 -39 -41zM102 -131q16 16 33 39q14 16 26.5 39.5t18.5 48.5q-10 0 -14 2q-4 0 -6 2l8 41 q2 0 6 2q4 0 8 1t13 1q6 0 9 -1t7 -1q4 -2 6 -2l-6 -35q-8 -35 -23.5 -61.5t-31.5 -46.5q-18 -23 -39 -41z" />
<glyph unicode="&#x2022;" horiz-adv-x="557" d="M219 578q4 23 20.5 34t36.5 11q47 0 37 -45q-10 -43 -57 -43q-20 0 -30.5 11t-6.5 32z" />
<glyph unicode="&#x2026;" horiz-adv-x="894" d="M29 2l8 41q2 2 8 4q12 4 23 4q12 0 20 -4q4 -2 6 -4l-8 -41q-2 -2 -8 -4q-12 -4 -23 -4q-12 0 -20 4q-4 2 -6 4zM295 2l8 41q2 2 8 4q12 4 23 4q12 0 20 -4q4 -2 6 -4l-8 -41q-2 -2 -8 -4q-12 -4 -22 -4q-12 0 -21 4q-4 2 -6 4zM557 2l8 41q2 2 8 4q12 4 23 4q12 0 20 -4 q4 -2 7 -4l-9 -41q-2 -2 -8 -4q-12 -4 -22 -4q-12 0 -21 4q-4 2 -6 4z" />
<glyph unicode="&#x202f;" horiz-adv-x="381" />
<glyph unicode="&#x2039;" horiz-adv-x="696" d="M103 547q-1 2 1 6q0 4 5 8l4 4l526 477q10 -2 14 -18l-516 -471l318 -471q-6 -16 -25 -21l-324 480q-2 0 -2 2t-1 4z" />
<glyph unicode="&#x203a;" horiz-adv-x="696" d="M10 82l518 471l-315 471q10 16 23 18l325 -477v-4v-8q-2 -4 -2 -6t-2 -4l-2 -2l-528 -480q-16 4 -17 21z" />
<glyph unicode="&#x205f;" horiz-adv-x="476" />
<glyph unicode="&#x20ac;" horiz-adv-x="1179" d="M98 508l13 31h155q4 37 11.5 73.5t15.5 71.5q8 39 17 78t22 78h-164l12 30h160q31 102 77 196.5t113.5 167.5t160.5 116t218 43q78 0 130.5 -10.5t86.5 -20.5q39 -12 64 -29q-4 -18 -16 -24q-29 14 -68 26q-35 10 -83 18.5t-114 8.5q-119 0 -207 -40t-151.5 -107.5 t-106.5 -156.5t-71 -188h592q0 -10 -3.5 -15t-9.5 -15h-590q-10 -39 -19 -78t-17 -78q-8 -37 -15.5 -74t-11.5 -71h512q0 -12 -12 -31h-504q-12 -98 -8 -188.5t37.5 -159t105.5 -109.5t193 -41q72 0 127 8.5t96 18.5q47 12 84 29q6 -10 6 -23q-33 -18 -82 -33 q-41 -12 -102.5 -21t-141.5 -9q-131 0 -206.5 45t-111.5 118.5t-39 169t9 195.5h-164z" />
<glyph unicode="&#x2122;" horiz-adv-x="1296" d="M258 1452v6q2 4 3 8t5 9h416q4 -4 0 -17q0 -6 -6 -14h-191l-118 -553l-5 -4q-2 -2 -12 -2q-8 0 -10 2l-4 4l119 553h-195q-2 4 -2 8zM674 891l123 577q23 6 39 0l112 -399l293 399q23 8 37 0l-123 -577q-2 -2 -4 -2q-2 -2 -10 -2q-10 0 -13 2q-2 0 -4 2l60 278l55 254 l-276 -374q0 -2 -5 -5q-4 -2 -16 -2t-14 2t-2 5l-109 374l-53 -252l-62 -280q-2 -2 -4 -2q-2 -2 -10 -2t-10 2q-2 0 -4 2z" />
<glyph unicode="&#x25fc;" horiz-adv-x="1075" d="M0 0v1075h1075v-1075h-1075z" />
</font>
</defs>
</svg>
