<?xml version="1.0" standalone="no"?>
<!DOCTYPE svg PUBLIC "-//W3C//DTD SVG 1.1//EN" "http://www.w3.org/Graphics/SVG/1.1/DTD/svg11.dtd" >
<svg xmlns="http://www.w3.org/2000/svg">
<metadata></metadata>
<defs>
<font id="globerbook_italic" horiz-adv-x="1126" >
<font-face units-per-em="2048" ascent="1536" descent="-512" />
<missing-glyph horiz-adv-x="518" />
<glyph unicode="&#xfb01;" horiz-adv-x="1148" d="M90 8l209 983h-131q-2 2 -2 10q0 4 -1 13.5t3 19.5q2 10 5 18.5t7 14.5t6 10h131l27 123q16 80 47 142.5t83 105.5t127 65.5t179 22.5q74 0 138.5 -9t111.5 -20q55 -12 103 -28q-4 -49 -43 -82q-41 14 -93 24q-43 10 -100 18.5t-125 8.5q-160 0 -229.5 -59.5 t-93.5 -178.5l-29 -133h581q14 0 31 -2t27 -2l-225 -1065q-6 -2 -15 -4q-16 -4 -39 -4q-16 0 -24 1t-15 3q-8 2 -10 4l209 983h-539l-208 -983q-4 -2 -13 -4q-16 -4 -41 -4q-23 0 -39 4q-8 2 -10 4z" />
<glyph unicode="&#xfb02;" horiz-adv-x="1153" d="M90 8l209 983h-131q-2 4 -3 14.5t3 28.5t9 28.5t9 14.5h131l27 123q14 76 45 137.5t82 105.5t123 68.5t170 24.5q78 0 147.5 -11.5t120.5 -23.5q59 -16 111 -35l-309 -1458q-6 -2 -15 -4q-16 -4 -39 -4q-16 0 -24 1t-15 3q-8 2 -10 4l297 1397q-41 14 -110.5 28.5 t-161.5 14.5q-150 0 -217.5 -62.5t-89.5 -175.5l-29 -133h254q0 -4 1 -14t-3 -29q-4 -16 -9.5 -27.5t-7.5 -15.5h-254l-208 -983q-4 -2 -13 -4q-16 -4 -41 -4q-23 0 -39 4q-8 2 -10 4z" />
<glyph horiz-adv-x="2048" />
<glyph horiz-adv-x="2048" />
<glyph unicode="&#xd;" horiz-adv-x="659" />
<glyph unicode=" "  horiz-adv-x="518" />
<glyph unicode="&#x09;" horiz-adv-x="518" />
<glyph unicode="&#xa0;" horiz-adv-x="518" />
<glyph unicode="!" horiz-adv-x="512" d="M63 8l25 115l16 4t19.5 3t28.5 1q16 0 26 -1t19 -3q8 -2 14 -4l-25 -115l-16 -4q-20 -4 -47 -4q-16 0 -26.5 1t-18.5 3t-15 4zM156 336l223 1130q0 2 8 4q6 2 17.5 3.5t31.5 1.5q35 0 47 -5q6 -2 6 -4l-256 -1130q-4 -4 -10 -6q-12 -4 -30 -4q-16 0 -29 4q-6 2 -8 6z" />
<glyph unicode="&#x22;" horiz-adv-x="636" d="M256 1069l63 397q6 2 15 4q8 2 17 3.5t24 1.5q23 0 39 -5q8 -2 12 -4l-104 -397q-2 -2 -9 -4q-6 -2 -26 -2t-25 2q-4 2 -6 4zM494 1069l63 397q6 2 14 4q16 4 41 5q23 0 39 -5q8 -2 13 -4l-105 -397q-2 -2 -8 -4t-27 -2q-20 0 -24 2t-6 4z" />
<glyph unicode="#" horiz-adv-x="1327" d="M23 289v16t4 29q4 16 7 27.5t7 17.5h235l248 502h-205q0 10 -1 21t4 24q6 23 18 45h229l148 297q23 8 49 8q12 0 24.5 -2t22.5 -6l-147 -297h342l147 297q23 8 49 8q12 0 24.5 -2t22.5 -6l-147 -297h201q0 -10 1 -20.5t-3 -22.5q-6 -25 -19 -47h-225l-248 -502h195 q2 -6 3 -17.5t-3 -27.5q-8 -33 -19 -45h-221l-137 -279q-4 -2 -17.5 -6t-33.5 -4t-30.5 4t-15.5 6l138 279h-342l-138 -279q-4 -2 -17 -6t-36 -4q-18 0 -28.5 4t-14.5 6l137 279h-208zM373 379h342l248 502h-342z" />
<glyph unicode="$" horiz-adv-x="1146" d="M14 74q0 6 2 17t11 28q8 16 17 24.5t13 12.5q49 -16 109 -29q51 -10 116.5 -18.5t139.5 -8.5q184 0 300 63.5t144 198.5q16 76 -7 125.5t-72.5 81t-117 51t-138 38t-136 42t-114 62.5t-70 98.5t-0.5 149.5q33 154 155.5 248t323.5 108l39 242q6 2 14 4q16 4 39 4t39 -4 q8 -2 13 -4l-64 -240q80 -2 142.5 -8t105.5 -17q51 -10 86 -22q-2 -6 -4 -17.5t-13 -27.5q-10 -16 -18 -24.5t-12 -12.5q-39 10 -86 18q-41 8 -97.5 14.5t-121.5 6.5q-190 0 -297 -68.5t-133 -191.5q-16 -72 8 -118t73.5 -76.5t116 -49t137 -38t136 -44t112.5 -65.5 t68.5 -102.5t1.5 -155.5q-35 -160 -163 -255.5t-333 -107.5l-43 -262q-4 -2 -12 -4q-16 -4 -39 -4q-25 0 -41 4q-8 2 -12 4l67 260q-92 0 -162.5 11.5t-119.5 23.5q-57 14 -103 35z" />
<glyph unicode="%" horiz-adv-x="1525" d="M184 -12l1100 1442q4 2 12 4q16 4 41 4q20 0 37 -4q8 -2 10 -4l-1099 -1442q-6 -2 -15 -4q-8 -2 -17 -3t-24 -1q-12 0 -20 1t-14 3q-8 2 -11 4zM197 1061q41 190 128 272t212 82q123 0 178 -81t14 -273q-41 -193 -131 -273.5t-213 -80.5q-125 0 -177 80.5t-11 273.5z M273.5 927.5q0.5 -53.5 16 -84t45.5 -44t68 -13.5q39 0 74 13.5t63.5 44t52 84t40.5 133.5q16 78 15 131t-16.5 85t-44 46t-67.5 14q-78 0 -138 -59t-93 -217q-16 -80 -15.5 -133.5zM831 334q41 190 127 272t211 82q123 0 178.5 -81t16.5 -273q-41 -193 -131 -273.5 t-213 -80.5q-125 0 -177 80.5t-12 273.5zM908.5 200.5q0.5 -53.5 16 -84t44 -44t67.5 -13.5t74 13.5t64.5 44t53 84t40.5 133.5q16 78 15 131t-17.5 85t-45 46t-67.5 14q-78 0 -137.5 -59t-91.5 -217q-16 -80 -15.5 -133.5z" />
<glyph unicode="&#x26;" horiz-adv-x="1294" d="M36.5 170q-18.5 66 2.5 158q18 86 66.5 154.5t107.5 119.5t118.5 86t102.5 53q-41 164 -6 318q35 162 136 258t263 96q68 0 117 -20.5t78 -54t37 -77.5t-2 -94q-16 -80 -60.5 -143t-111 -116.5t-151.5 -100.5t-185 -96q35 -117 107.5 -227.5t179.5 -204.5 q76 72 127 149.5t84 144.5q29 2 51 -9t30 -29q-29 -63 -87 -143.5t-148 -164.5q51 -41 108.5 -75.5t122.5 -63.5q-4 -29 -22.5 -53.5t-40.5 -36.5q-72 31 -134.5 69.5t-119.5 84.5q-14 -12 -53 -41t-97.5 -57.5t-136.5 -51t-170 -22.5q-74 0 -139.5 19t-110.5 62t-63.5 109z M150 338q-27 -127 36.5 -197.5t196.5 -70.5q66 0 124 15t105 36.5t83 44t55 37.5q-111 100 -184.5 219t-112.5 246q-35 -18 -81 -47t-91 -70t-81 -94.5t-50 -118.5zM530 786q84 39 156 79t127 84t91 93.5t48 110.5q16 82 -21.5 130t-129.5 48q-100 0 -171 -66.5t-100 -197.5 q-31 -139 0 -281z" />
<glyph unicode="'" horiz-adv-x="399" d="M256 1069l63 397q6 2 15 4q16 4 41 5q23 0 39 -5q8 -2 12 -4l-104 -397q-2 -2 -9 -4q-6 -2 -26 -2t-25 2q-4 2 -6 4z" />
<glyph unicode="(" horiz-adv-x="581" d="M93 249.5q-9 182.5 38 405.5q47 221 133 404.5t172 318.5q100 158 213 283q6 2 15 0q14 -4 28 -12q16 -12 23 -23q4 -6 4 -10q-102 -115 -195 -262q-39 -63 -81 -139t-79.5 -164t-71.5 -187.5t-56 -208.5q-47 -221 -42 -396t31 -302q31 -147 84 -262l-10 -10 q-4 -4 -11 -11.5t-18 -11.5q-10 -6 -19 -8t-15 -4q-8 -2 -13 0q-57 125 -92 282q-29 135 -38 317.5z" />
<glyph unicode=")" horiz-adv-x="579" d="M-127 -305q102 115 195 262q78 127 158.5 302t127.5 396q47 219 41 395.5t-30 303.5q-29 147 -82 262q2 4 8 10q12 12 31 23q23 10 32 12q8 2 13 0q57 -125 92 -283q29 -135 38 -318t-38 -405q-47 -223 -133 -405t-172 -318q-100 -158 -213 -282q-6 -2 -15 0q-6 2 -13 4 t-15 8q-10 4 -13.5 11.5t-7.5 11.5q-4 6 -4 10z" />
<glyph unicode="*" horiz-adv-x="706" d="M254 1253q10 43 35 66l160 -57l36 178q39 12 68 0l-37 -178l184 57q16 -23 7 -66l-187 -55l80 -151q-12 -10 -28.5 -21.5t-32.5 -15.5l-80 147l-137 -149q-16 4 -28.5 15t-21.5 21l142 154z" />
<glyph unicode="+" horiz-adv-x="942" d="M104 561v13.5t5 19.5q2 16 10 33q4 6 6 10h303l66 303q2 2 10 4q12 4 33 4q16 0 32 -4q6 -2 11 -4l-66 -303h303q2 -4 2 -10v-14.5t-2 -18.5q-8 -25 -12 -33t-6 -10h-303l-64 -303q-4 -2 -12 -4q-16 -4 -33 -4q-18 0 -31 4q-6 2 -10 4l64 303h-304q-2 2 -2 10z" />
<glyph unicode="," horiz-adv-x="450" d="M-27 -178q2 2 14.5 14t29 35t34 54.5t29.5 74.5q-20 0 -33 4q-8 2 -10 4l24 115q8 2 19 4q10 2 21.5 3t27.5 1q27 0 47 -4q8 -2 17 -4l-19 -82q-14 -63 -39.5 -109.5t-54.5 -76.5q-33 -37 -70 -64z" />
<glyph unicode="-" horiz-adv-x="731" d="M152 561v13.5t4 19.5q2 16 10 33q4 6 6 10h385q2 -4 2 -10v-14.5t-2 -18.5q-8 -25 -12 -33t-6 -10h-385q-2 2 -2 10z" />
<glyph unicode="." horiz-adv-x="442" d="M35 8l24 115q8 2 19 4q10 2 21.5 3t27.5 1q27 0 47 -4l16 -4l-24 -115q-8 -2 -19 -4q-10 -2 -21 -3t-28 -1q-16 0 -27.5 1t-19.5 3z" />
<glyph unicode="/" horiz-adv-x="901" d="M-102 -88l1036 1616q6 2 14 4q16 4 39 4q27 0 43 -4q8 -2 12 -4l-1036 -1616l-16 -4q-20 -4 -43 -4q-14 0 -22.5 1t-14.5 3q-8 2 -12 4z" />
<glyph unicode="0" horiz-adv-x="1267" d="M130 369.5q-5 136.5 32 326.5q76 377 233.5 547t395.5 170q119 0 201.5 -40t128.5 -127t51.5 -223t-31.5 -327q-37 -190 -96.5 -326.5t-138.5 -223.5t-178 -126.5t-218 -39.5t-202 39.5t-128 126.5t-50 223.5zM235 411.5q-2 -118.5 29 -194.5t94.5 -110.5t157.5 -34.5 q96 0 175 34.5t141.5 110.5t111.5 194.5t84 284.5q37 168 39 286t-29.5 193.5t-95.5 110.5t-160 35q-94 0 -172 -35t-141 -110.5t-111.5 -193.5t-85.5 -286q-35 -166 -37 -284.5z" />
<glyph unicode="1" horiz-adv-x="802" d="M162 1073q135 35 258 113t223 198q4 2 12 5q16 4 39 4q20 0 37 -4q8 -2 12 -5l-292 -1376q-4 -2 -13 -4q-16 -4 -43 -4q-23 0 -39 4q-8 2 -12 4l201 942q18 92 35.5 164t33.5 119q-92 -98 -209.5 -159.5t-234.5 -90.5q-28 35 -8 90z" />
<glyph unicode="2" horiz-adv-x="1077" d="M-2 0q0 18 2 41q2 18 5 43t9 53q25 119 77 200t122 138t149.5 100t159.5 89q82 45 151.5 84.5t123 82.5t89.5 97.5t52 128.5q10 47 7 94t-30.5 86t-84 62.5t-154.5 23.5q-66 0 -126.5 -10t-107.5 -21q-55 -14 -104 -30q-31 29 -14 86q49 18 110 32q53 12 124 22.5 t157 10.5q84 0 154.5 -21.5t116.5 -67.5t62.5 -116.5t-4.5 -167.5q-18 -86 -58 -147.5t-101.5 -111.5t-143.5 -96t-184 -101q-59 -33 -127 -68t-129 -81t-109.5 -109.5t-66.5 -153.5q-8 -33 -10 -52.5t-2 -21.5h702q2 -4 2 -15t-4 -34t-9 -34t-9 -15h-797z" />
<glyph unicode="3" horiz-adv-x="1052" d="M-14 47q4 20 16 44t29 34q33 -10 105.5 -30.5t185.5 -20.5q102 0 177.5 21.5t127 61.5t82 94t45.5 120q20 98 0.5 159.5t-64.5 96.5t-107.5 47t-127.5 12h-109q-6 45 19 88h108q57 0 117.5 11.5t114 42t95.5 86t60 143.5q27 125 -35.5 195.5t-226.5 70.5q-63 0 -116.5 -8 t-94.5 -19q-47 -10 -86 -24q-16 10 -21.5 31.5t1.5 44.5q45 18 100 32q47 12 110.5 22.5t137.5 10.5q104 0 174.5 -28.5t111.5 -79t52.5 -117t-4.5 -141.5q-25 -117 -88.5 -195t-196.5 -127q133 -53 171 -141.5t9 -229.5q-16 -74 -55 -141.5t-105.5 -119.5t-163 -82.5 t-227.5 -30.5q-78 0 -137 10t-100 22q-49 14 -84 35z" />
<glyph unicode="4" horiz-adv-x="1169" d="M27 381v14t4 21q2 10 5 19t7 16q4 8 6 10l877 923q4 2 12 5q16 4 43 4q23 0 39 -4q8 -2 12 -5l-196 -923h208q2 -2 3 -10q0 -6 -1.5 -15.5t-3.5 -19.5q-6 -20 -12 -35q-4 -8 -6 -10h-209l-76 -363q-6 -2 -14 -4q-16 -4 -39 -4q-14 0 -22.5 1t-14.5 3q-8 2 -12 4l76 363 h-684q-2 2 -2 10zM164 461h569l164 774z" />
<glyph unicode="5" horiz-adv-x="1064" d="M-6 35q2 23 13 45t30 35q33 -14 74 -23q35 -8 84 -14t108 -6q205 0 320.5 74.5t150.5 234.5q14 70 10 128t-39.5 101t-105.5 66.5t-186 23.5q-43 0 -84 -3t-75 -6t-56.5 -7t-28.5 -4l149 713h682q10 -49 -18 -97h-578l-110 -516q4 0 51 6.5t117 6.5q244 0 335 -112 t48 -314q-41 -195 -183.5 -291t-404.5 -96q-84 0 -140.5 8t-93.5 18q-43 12 -69 29z" />
<glyph unicode="6" horiz-adv-x="1128" d="M99.5 279.5q-11.5 103.5 19.5 246.5q45 215 132 374t205.5 265.5t265 163t312.5 66.5q4 -20 -1 -46t-15 -46q-123 -12 -231.5 -48t-199.5 -100.5t-165 -162t-125 -232.5q55 29 146.5 60.5t205.5 31.5q86 0 155.5 -26.5t114 -83t58.5 -143.5t-10 -206q-23 -109 -70 -186.5 t-114.5 -127.5t-152.5 -74.5t-181 -24.5t-171 31.5t-121 98t-57.5 170zM206.5 314q6.5 -85 38 -140t87 -80.5t127.5 -25.5q143 0 253.5 86t147.5 262q18 90 9 155.5t-41.5 108.5t-86 63.5t-123.5 20.5q-59 0 -114 -13.5t-102.5 -31t-84 -35.5t-57.5 -31q-10 -33 -18.5 -66.5 t-16.5 -68.5q-25 -119 -18.5 -204z" />
<glyph unicode="7" horiz-adv-x="1007" d="M162 8q37 178 101.5 312.5t141 241t159.5 192.5t159 169t137.5 172t93.5 199h-735q-2 4 -2 13v15t4 21q6 25 12 37l7 13h833q2 -27 -4 -62q-29 -129 -88 -227t-136 -186.5t-163 -175.5t-166 -191.5t-146.5 -235.5t-103.5 -307q-6 -2 -19.5 -5t-33.5 -3t-33.5 3t-17.5 5z " />
<glyph unicode="8" horiz-adv-x="1196" d="M75.5 206.5q-16.5 67.5 0.5 143.5q18 86 64 153.5t101.5 117t112 83t95.5 54.5q-43 25 -79 58.5t-59.5 75.5t-32 94t6.5 116q31 150 160 230.5t317 80.5q190 0 280.5 -97t59.5 -253q-14 -74 -50 -131.5t-80 -100.5t-91 -72.5t-84 -47.5q51 -29 95 -67t72.5 -85t39 -107.5 t-6.5 -136.5q-35 -162 -174 -248.5t-368 -86.5q-111 0 -190 29.5t-126 79.5t-63.5 117.5zM182 336q-25 -115 46 -190.5t253 -75.5q172 0 279.5 74.5t132.5 189.5q18 82 -9.5 139t-81.5 98t-125 73t-140 67q-25 -12 -77 -43t-108.5 -78t-104.5 -110.5t-65 -143.5zM389 1092 q-16 -74 6.5 -124t68.5 -89t109.5 -68t128.5 -59q33 18 78 45.5t88 68.5t78 93.5t49 119.5q25 117 -43.5 181.5t-210.5 64.5q-141 0 -235 -63.5t-117 -169.5z" />
<glyph unicode="9" horiz-adv-x="1124" d="M120 48q5 28 17 46q123 12 230.5 47t198.5 99.5t164 161t126 231.5q-53 -29 -145.5 -60.5t-206.5 -31.5q-86 0 -154.5 28.5t-111.5 85t-56.5 143.5t11.5 203q23 106 73.5 184.5t119.5 129.5t154 74.5t175 23.5q96 0 169.5 -31.5t118 -98t54.5 -170t-21 -247.5 q-47 -215 -133 -373.5t-204.5 -264t-265 -162t-312.5 -66.5q-6 20 -1 48zM284 821.5q9 -65.5 41.5 -108.5t86 -63.5t123.5 -20.5q57 0 113.5 12t103.5 30.5t83.5 37t59.5 30.5q10 33 18.5 66t16.5 69q25 119 17.5 204t-39 140.5t-87 81t-127.5 25.5q-143 0 -252.5 -86 t-148.5 -262q-18 -90 -9 -155.5z" />
<glyph unicode=":" horiz-adv-x="458" d="M33 8l24 115q8 2 19 4q10 2 21.5 3t27.5 1q27 0 47 -4l16 -4l-24 -115q-8 -2 -19 -4q-10 -2 -21 -3t-28 -1q-16 0 -27.5 1t-19.5 3zM205 817l24 115q8 2 19 4q10 2 21.5 3t27.5 1q27 0 47 -4l16 -4l-24 -115q-8 -2 -19 -4q-10 -2 -21 -3t-28 -1q-16 0 -27.5 1t-19.5 3z " />
<glyph unicode=";" horiz-adv-x="487" d="M-8 -178q2 2 13 14t27.5 35t34 54.5t29.5 74.5q-20 0 -33 4q-8 2 -10 4l25 115q8 2 18 4t21.5 3t27.5 1q27 0 48 -4l16 -4l-19 -82q-14 -63 -39.5 -109.5t-54.5 -76.5q-33 -37 -69 -64zM225 817l25 115q8 2 18 4t21.5 3t27.5 1q27 0 48 -4l16 -4l-25 -115q-8 -2 -18 -4 t-21.5 -3t-27.5 -1t-27.5 1t-19.5 3t-17 4z" />
<glyph unicode="&#x3c;" horiz-adv-x="952" d="M102 553q0 16 7 41q2 12 5 21.5t7 17.5t6 14l719 301q2 -4 2 -10v-14.5t-2 -20.5q-6 -20 -12 -35l-7 -12l-630 -264l518 -260q2 -4 2 -13v-14t-2 -20q-6 -20 -13 -35l-6 -12l-592 301q-2 6 -2 14z" />
<glyph unicode="=" horiz-adv-x="1046" d="M125 377q-4 45 18 86h688q2 -20 -3 -42t-15 -44h-688zM199 725q0 45 18 86h688q2 -23 -3 -44.5t-15 -41.5h-688z" />
<glyph unicode="&#x3e;" horiz-adv-x="950" d="M90 250v14t4 21q2 12 4 20t6 14l7 13l628 260l-516 264q-2 4 -2 12v14.5t4 20.5q2 12 4 20.5t7 14.5q4 6 6 10l592 -301q2 -6 2 -14t-1 -17.5t-4 -21.5q-4 -12 -7 -22.5t-7 -18.5t-6 -14l-719 -301q-2 4 -2 12z" />
<glyph unicode="?" horiz-adv-x="872" d="M147 8l25 115q8 2 18 4t21.5 3t28.5 1q27 0 47 -4l16 -4l-24 -115q-8 -2 -19 -4q-10 -2 -21.5 -3t-27.5 -1t-27.5 1t-19.5 3t-17 4zM227.5 1303.5q-4.5 21.5 3.5 44.5q41 18 93 32q43 12 103 22.5t134 10.5q96 0 161.5 -24.5t102.5 -68.5t47 -104.5t-4 -130.5 q-23 -102 -65.5 -168.5t-95 -116.5t-110.5 -91t-111.5 -90.5t-96.5 -116t-63 -166.5q-4 -4 -13 -6q-16 -4 -34 -4t-31 4q-6 2 -10 6q25 117 67.5 192.5t94 129t106.5 92t105.5 83t89 101.5t57.5 145q10 51 4 96.5t-33 77t-76 50t-125 18.5q-63 0 -114.5 -8t-87.5 -19 q-43 -10 -78 -24q-16 12 -20.5 33.5z" />
<glyph unicode="@" horiz-adv-x="1873" d="M110.5 215q-30.5 152 12.5 356q41 190 134 342t223 258.5t291 164t335 57.5q190 0 325.5 -56.5t214 -159t100.5 -244.5t-15 -312q-43 -209 -158 -328t-281 -119q-78 0 -127 35t-57 110q-47 -63 -118.5 -104t-176.5 -41q-68 0 -122 20.5t-89 66.5t-45 122t14 186 q25 113 67 189t95 122t116.5 66.5t131.5 20.5q94 0 147.5 -33t75.5 -86l25 113q4 2 12 4q16 4 33 4q18 0 35 -4q8 -2 12 -4l-109 -510q-23 -106 4 -153.5t97 -47.5q49 0 98 20.5t93 65.5t80 115.5t56 169.5q33 156 14.5 284.5t-89 220t-189.5 141.5t-284 50 q-156 0 -298.5 -51.5t-258 -148.5t-198.5 -235.5t-120 -310.5q-41 -190 -12.5 -328.5t106.5 -227.5t196 -131t257 -42q168 0 322.5 50.5t279.5 121.5q37 -16 27 -59q-160 -100 -327 -146.5t-339 -46.5q-156 0 -286 50.5t-215 150.5t-115.5 252zM659 411.5 q7 -61.5 33.5 -98.5t69.5 -51t92 -14q51 0 96 18.5t80 49t58.5 70.5t33.5 81l43 201q8 43 3 83t-26.5 71.5t-59.5 51t-91 19.5q-49 0 -97 -13.5t-90 -49t-77 -98.5t-55 -163q-20 -96 -13 -157.5z" />
<glyph unicode="A" horiz-adv-x="1310" d="M-92 8l872 1458q6 2 15 4q8 2 17 3.5t24 1.5q23 0 38 -5q8 -2 13 -4l254 -1458q-6 -2 -15 -4q-20 -4 -45 -4q-18 0 -34 4q-8 2 -13 4l-73 418h-691l-252 -418q-6 -2 -14 -4q-20 -4 -49 -4q-14 0 -22.5 1t-14.5 3q-8 2 -10 4zM324 520h622l-123 711q-4 25 -5 44t-3 34 q-2 16 -2 28h-4l-14 -28q-8 -14 -18.5 -35t-22.5 -43z" />
<glyph unicode="B" horiz-adv-x="1288" d="M80 0l313 1475h496q111 0 179.5 -34t104 -89.5t41.5 -127.5q1 -18 1 -36q0 -56 -13 -115q-18 -92 -56 -151.5t-78 -95t-73.5 -53t-48.5 -23.5q8 -4 42 -22.5t66 -59.5q34 -41 52 -111q8 -32 8 -71q0 -47 -12 -105q-18 -88 -56 -158.5t-99.5 -120t-150.5 -76t-212 -26.5 h-504zM207 92h385q186 0 277.5 80t121.5 223q12 55 12 100q-1 83 -43 131q-66 74 -241 74h-383zM354 791h369q168 0 255 81.5t116 214.5q11 53 11 98q0 13 -1 25q-4 54 -33 91.5t-84 59t-143 21.5h-365z" />
<glyph unicode="C" horiz-adv-x="1132" d="M170 756q82 379 255 559t454 180q84 0 145 -11t102 -24q47 -14 80 -33q-12 -45 -51 -81q-33 14 -76 26q-37 10 -89 19.5t-118 9.5q-102 0 -192 -32t-166 -108.5t-136.5 -204.5t-101.5 -321q-35 -167 -36 -284q0 -19 2 -35q6 -126 49 -202.5t120.5 -107t180.5 -30.5 q72 0 132 8t103 18q51 12 93 29q18 -25 18 -61q0 -11 -2 -23q-43 -20 -98 -35q-49 -12 -119 -22t-162 -10q-279 0 -373 196q-51 106 -51 266q0 137 37 314z" />
<glyph unicode="D" horiz-adv-x="1355" d="M80 0l313 1475h393q145 0 250 -39t163 -128q57 -88 67 -234q2 -25 3 -53q0 -130 -38 -304q-45 -211 -110.5 -349.5t-154.5 -220t-206 -114.5t-262 -33h-418zM207 94h289q117 0 214 29t174 100.5t135 196.5t99 317q37 172 37 290q0 14 -1 28q-5 125 -52 197.5t-132 100 t-202 27.5h-289z" />
<glyph unicode="E" horiz-adv-x="1138" d="M80 0l313 1475h801q2 -8 2 -17q0 -13 -4 -28q-4 -16 -7 -27.5t-11 -22.5h-695l-125 -585h592q2 -20 0 -45q-6 -25 -18 -48h-592l-129 -608h715q0 -10 1 -21.5t-3 -23.5q-6 -29 -19 -49h-821z" />
<glyph unicode="F" horiz-adv-x="1101" d="M82 8l311 1467h797l1 -20q0 -11 -3 -28q-4 -18 -9 -30.5t-10 -16.5h-690l-129 -606h600q2 -4 3 -15t-3 -30q-4 -18 -10 -30.5t-8 -16.5h-600l-144 -674q-6 -2 -14 -4t-17.5 -3t-23.5 -1q-23 0 -39 4q-8 2 -12 4z" />
<glyph unicode="G" horiz-adv-x="1269" d="M170 764q82 377 267.5 554t463.5 177q88 0 154.5 -11t113.5 -24q53 -14 93 -33q-8 -23 -21.5 -43t-30.5 -36q-41 14 -90 26q-43 10 -100 18.5t-125 8.5q-102 0 -196.5 -32t-174.5 -108.5t-144.5 -204.5t-105.5 -321q-33 -157 -33 -270q0 -26 1 -49q10 -127 58 -203 t130 -106.5t184 -30.5q94 0 170 12t115 21l123 577h-369q-2 4 -2 12v15.5t4 19.5q2 12 5.5 20.5t7.5 14.5l6 12h473l-156 -733q-51 -20 -114 -35q-53 -12 -129 -22t-168 -10q-279 0 -384 200q-61 113 -61 286q0 132 35 298z" />
<glyph unicode="H" horiz-adv-x="1390" d="M82 8l309 1458q6 2 15 4q8 2 17 3.5t23 1.5q23 0 39 -5q8 -2 13 -4l-142 -661h754l141 661q6 2 15 4q8 2 17 3.5t24 1.5q23 0 39 -5q8 -2 12 -4l-309 -1458q-6 -2 -15 -4q-8 -2 -17 -3t-24 -1q-16 0 -25.5 1t-15.5 3q-8 2 -10 4l148 699h-754l-148 -699q-6 -2 -14 -4 q-20 -4 -41 -4q-16 0 -25.5 1t-15.5 3q-8 2 -10 4z" />
<glyph unicode="I" horiz-adv-x="530" d="M82 8l309 1458q6 2 15 4q16 4 40 5q23 0 39 -5q8 -2 13 -4l-310 -1458q-6 -2 -14 -4t-17.5 -3t-23.5 -1q-16 0 -25.5 1t-15.5 3q-8 2 -10 4z" />
<glyph unicode="J" horiz-adv-x="874" d="M-66 41q10 57 50 84q31 -14 67 -25q31 -10 72 -17t88 -7q53 0 100 13t85 43t65.5 79t44.5 123l239 1132q4 2 13 4q16 4 43 5q23 0 39 -5q8 -2 12 -4l-240 -1130q-39 -184 -140 -270t-269 -86q-59 0 -108.5 9t-84.5 21q-41 12 -76 31z" />
<glyph unicode="K" horiz-adv-x="1245" d="M80 8l309 1458q6 2 14 4q20 4 43 5q20 0 37 -5q8 -2 13 -4l-140 -653h254l594 653q4 2 21.5 5.5t40.5 3.5t38 -3.5t21 -5.5l-633 -706l383 -752l-16 -4q-20 -4 -47 -4q-23 0 -43 4q-8 2 -17 4l-354 711h-260l-152 -711q-6 -2 -14 -4t-17.5 -3t-23.5 -1q-23 0 -39 4 q-8 2 -12 4z" />
<glyph unicode="L" horiz-adv-x="1034" d="M80 0l311 1466q6 2 15 4q8 2 17 3.5t23 1.5q23 0 39 -5q8 -2 13 -4l-291 -1370h661q0 -4 1 -17v-5q0 -11 -3 -25q-4 -18 -9 -30.5t-9 -18.5h-768z" />
<glyph unicode="M" horiz-adv-x="1728" d="M80 8l309 1458q8 2 19 4q10 2 22 3.5t29 1.5q23 0 43 -5q8 -2 14 -4l307 -929h4l719 929q8 2 29.5 5.5t50.5 3.5q16 0 29.5 -1t23.5 -4q10 -2 17 -4l-310 -1458q-6 -2 -14 -4t-17 -3t-24 -1q-23 0 -39 4q-8 2 -12 4l221 1039q25 117 45.5 197.5t28.5 105.5h-6 q-10 -18 -49 -78t-101 -137l-575 -729q-4 -2 -13 -5q-16 -4 -30 -4q-16 0 -29 4q-6 2 -10 5q-61 182 -124 362t-124 365q-27 74 -42 136t-15 81h-6q0 -23 -12.5 -105t-39.5 -207l-219 -1030q-4 -2 -12 -4q-16 -4 -39 -4q-14 0 -22.5 1t-14.5 3q-8 2 -12 4z" />
<glyph unicode="N" horiz-adv-x="1425" d="M80 8l309 1458q6 2 17 4q20 4 49 5q16 0 26.5 -1t18.5 -4q8 -2 14 -4l502 -1325h4q4 33 12 76q6 35 14.5 86t22.5 111l223 1052q4 2 13 4q16 4 41 5q20 0 36 -5q8 -2 11 -4l-310 -1458l-16 -4q-20 -4 -47 -4q-16 0 -27.5 1t-19.5 3t-15 4l-497 1309h-4q-4 -25 -13 -62 q-6 -33 -15 -83t-26 -123l-221 -1041q-6 -2 -14 -4t-17.5 -3t-23.5 -1q-20 0 -37 4q-8 2 -10 4z" />
<glyph unicode="O" horiz-adv-x="1384" d="M137 418q-2 28 -2 57q0 128 35 289q43 199 108.5 337t153.5 226t196.5 128t237.5 40t222.5 -46t145.5 -141.5t60 -241.5q1 -24 2 -50q0 -129 -36 -295q-43 -199 -106.5 -340t-149.5 -230.5t-194 -130t-237 -40.5t-224 48t-148.5 145t-63.5 245zM246 428q10 -127 54 -206 t115.5 -114.5t157.5 -35.5q100 0 189.5 35.5t163 114.5t131 206t96.5 309q34 159 34 276q0 17 -1 35q-6 128 -48 206.5t-115 113.5t-165 35q-100 0 -189 -35t-163 -113.5t-132.5 -205.5t-97.5 -312q-31 -146 -31 -257q-1 -27 1 -52z" />
<glyph unicode="P" horiz-adv-x="1226" d="M82 8l311 1467h506q96 0 165 -35t107.5 -95.5t48.5 -142.5q3 -26 2 -52q0 -59 -14 -126q-41 -193 -169 -300.5t-322 -107.5h-400l-129 -608q-6 -2 -14 -4q-16 -4 -39 -4q-16 0 -25.5 1t-15.5 3q-8 2 -12 4zM338 713h395q145 0 241.5 88t129.5 241q13 59 13 109 q1 84 -37 140q-60 89 -206 89h-395z" />
<glyph unicode="Q" horiz-adv-x="1384" d="M137 418q-2 27 -2 57q0 128 35 289q43 199 108.5 337t153.5 226t196.5 128t237.5 40t222.5 -46t145.5 -141.5t60 -241.5q2 -24 2 -50q0 -129 -36 -295q-51 -242 -133.5 -396.5t-198.5 -238.5q45 -53 106.5 -87t118.5 -50q-20 -63 -82 -92q-68 18 -131 66t-100 110 q-115 -53 -267 -53q-129 0 -224 48t-148.5 145t-63.5 245zM246 428q10 -127 54 -206t115.5 -114.5t157.5 -35.5q100 0 189.5 35.5t163 114.5t131 206t96.5 309q34 159 34 276q0 19 -1 35q-6 128 -48 206.5t-115 113.5t-165 35q-100 0 -189 -35t-163 -113.5t-132.5 -205.5 t-97.5 -312q-31 -146 -31 -257q0 -27 1 -52z" />
<glyph unicode="R" horiz-adv-x="1269" d="M82 8l311 1467h494q96 0 165.5 -33t110.5 -91.5t53 -136.5q4 -28 3 -58q0 -54 -13 -114q-33 -156 -132 -251t-249 -125l215 -658l-16 -4q-20 -4 -47 -4q-16 0 -26.5 1t-18.5 3t-17 4l-206 645h-383l-138 -645q-6 -2 -14 -4q-16 -4 -39 -4q-16 0 -25.5 1t-15.5 3 q-8 2 -12 4zM346 748h385q139 0 237.5 82.5t129.5 232.5q11 52 11 96q1 85 -41 139q-64 82 -204 82h-385z" />
<glyph unicode="S" horiz-adv-x="1146" d="M12 57q4 23 17.5 47.5t29.5 40.5q51 -18 109 -32q49 -12 114.5 -22.5t139.5 -10.5q186 0 303 76.5t147 224.5q8 39 8 71t-8 58q-16 51 -54 86t-94 57.5t-120 40.5q-78 25 -152.5 53.5t-129 75.5t-78.5 119q-13 37 -13 83q0 44 11 97q39 182 178 277.5t368 95.5 q86 0 154 -8t115 -19q55 -10 98 -24q-6 -25 -17.5 -47.5t-29.5 -38.5q-43 12 -96 20q-45 8 -103.5 15.5t-126.5 7.5q-193 0 -301 -80t-137 -217q-8 -38 -8 -69q0 -33 9 -60q17 -51 59 -86t105.5 -57.5t139.5 -45.5q72 -23 140.5 -52t116.5 -77.5t70 -120.5q11 -36 10 -80 q0 -45 -11 -98q-41 -190 -185.5 -284t-377.5 -94q-96 0 -170 11t-125 27q-59 16 -105 39z" />
<glyph unicode="T" horiz-adv-x="1083" d="M223 1393v15t4 19q2 10 5.5 19.5t7.5 15.5l6 13h948q2 -4 2 -13q0 -6 -1 -15t-3 -20q-6 -25 -12 -34l-6 -13h-416l-291 -1372q-6 -2 -14 -4t-17.5 -3t-23.5 -1q-16 0 -25.5 1t-15.5 3q-8 2 -11 4l291 1372h-426q-2 4 -2 13z" />
<glyph unicode="U" horiz-adv-x="1368" d="M160 260q-8 38 -8 81q0 58 14 126l213 999q6 2 14 4t17.5 3.5t23.5 1.5q25 0 41 -5q8 -2 12 -4l-215 -1013q-13 -61 -13 -112q0 -103 52 -169q78 -100 258 -100t300 99t159 282l215 1013q6 2 14 4q16 4 39 5q23 0 39 -5q8 -2 13 -4l-213 -999q-49 -236 -199 -361.5 t-369 -125.5q-109 0 -194.5 32.5t-140 95t-72.5 152.5z" />
<glyph unicode="V" horiz-adv-x="1255" d="M229 1464q6 2 15 4l18 4.5t27 2.5q16 0 33 -5q6 -2 10 -4l174 -1177q4 -33 6 -59.5t4 -47.5v-43h6q8 20 19 43q18 39 55 105l674 1179q6 2 14 4t19.5 3.5t27.5 1.5q25 0 41 -5q8 -2 12 -4l-833 -1458l-16 -4t-17.5 -3t-21.5 -1q-23 0 -39 4q-8 2 -13 4z" />
<glyph unicode="W" horiz-adv-x="1939" d="M238 1466q6 2 14 4q16 4 41 5q25 0 41 -5q8 -2 12 -4l90 -1118q6 -90 6 -149q0 -35 -2 -62h6q8 27 21 62q10 29 27.5 66.5t40.5 82.5l571 1118q4 2 12 4q16 4 41 5q23 0 39 -5q8 -2 10 -4l82 -1118q4 -47 4 -85v-66q0 -33 -2 -60h4q8 27 21 60q10 29 26.5 66.5t38.5 84.5 l560 1118q6 2 14 4t18.5 3.5t26.5 1.5q20 0 37 -5q8 -2 12 -4l-727 -1458q-6 -2 -14 -4q-20 -4 -41 -4q-23 0 -39 4q-8 2 -12 4l-87 1116q-4 53 -4 91t2 65q2 31 5 51h-7q-6 -20 -16 -51q-10 -27 -25.5 -65.5t-42.5 -90.5l-569 -1116q-6 -2 -22.5 -5t-36.5 -3t-32.5 3 t-19.5 5z" />
<glyph unicode="X" horiz-adv-x="1222" d="M-70 8l631 750l-301 708q6 2 16 4q20 4 52 5q18 0 34 -5q8 -2 15 -4l268 -630l543 630q6 2 27.5 5.5t46.5 3.5t39 -3.5t20 -5.5l-610 -704l323 -752q-8 -4 -18 -6t-21.5 -3t-27.5 -1q-20 0 -37 4q-8 2 -12 4l-289 672l-563 -672q-6 -2 -30 -5t-46 -3q-25 0 -39 3t-21 5z " />
<glyph unicode="Y" horiz-adv-x="1257" d="M225 1466q8 2 19 4q10 2 21 3.5t28 1.5q20 0 37 -5q8 -2 12 -4l301 -731l625 731q6 2 16 4q20 4 53 5q27 0 47 -5q8 -2 15 -4l-719 -843l-131 -615q-6 -2 -14 -4q-20 -4 -41 -4q-23 0 -39 4q-8 2 -13 4l129 613z" />
<glyph unicode="Z" horiz-adv-x="1181" d="M-42 18v6q0 11 3 25q4 18 9 30.5t10 18.5l1116 1278h-789q0 6 -1 18.5t3 32.5t9.5 31.5t9.5 16.5h911q0 -5 1 -17v-5q0 -11 -3 -26q-4 -18 -9 -31.5t-9 -19.5l-1117 -1278h871q2 -4 2 -16t-4 -33q-4 -18 -9.5 -30.5t-9.5 -18.5h-993q0 6 -1 18z" />
<glyph unicode="[" horiz-adv-x="647" d="M2 -348l426 2007h354q2 -4 2 -12v-14.5t-4 -20.5q-6 -25 -12 -37q-4 -8 -6 -10h-252l-385 -1819h252q2 -4 2 -12q0 -6 -1 -15.5t-3 -19.5q-6 -25 -13 -37q-4 -8 -6 -10h-354z" />
<glyph unicode="\" horiz-adv-x="892" d="M238 1526q6 2 14 4t18.5 4t24.5 2t25.5 -2t17.5 -4q8 -2 12 -4l346 -1612q-6 -4 -14 -6q-20 -4 -43 -4q-25 0 -41 4q-8 2 -14 6z" />
<glyph unicode="]" horiz-adv-x="647" d="M-125 -322.5q0 9.5 4 21.5q2 10 5 19.5t7 15.5l7 12h252l385 1819h-252q-2 2 -2 10v15t4 22q4 20 12 35l6 12h354l-426 -2007h-354q-2 2 -2 10v15.5z" />
<glyph unicode="^" horiz-adv-x="1044" d="M182 934l471 532q4 2 13 4q16 4 41 5q23 0 38 -5q8 -2 11 -4l245 -532q-4 -2 -12 -4q-16 -4 -39 -4t-39 4q-8 2 -12 4l-213 459l-403 -459q-4 -2 -13 -4q-16 -4 -41 -4t-36 4q-8 2 -11 4z" />
<glyph unicode="_" horiz-adv-x="1087" d="M-27 -100.5q0 8.5 4 20.5q2 20 11 31q4 6 6 8h835q2 -2 2 -8v-12.5t-2 -18.5q-6 -23 -12 -33q-4 -6 -6 -8h-836q-2 2 -2 8v12.5z" />
<glyph unicode="`" horiz-adv-x="487" d="M119 1608q16 20 47 34.5t59 12.5l162 -303q-27 -33 -76 -39z" />
<glyph unicode="a" horiz-adv-x="1134" d="M85 292q-1 14 -1 29q0 101 29 238q33 156 83 260.5t115.5 166t144.5 87t169 25.5q119 0 189.5 -50.5t103.5 -136.5l38 162q4 2 13 4q6 2 14 3t21 1q14 0 22 -1t14 -3t11 -4l-226 -1065q-4 -2 -12 -4q-16 -4 -33 -4q-10 0 -17 1t-13 3q-8 2 -13 4l27 158 q-66 -86 -159 -136t-218 -50q-90 0 -156.5 31.5t-103.5 101t-42 179.5zM186 322v-12q0 -81 24 -133q26 -56 79 -81.5t137 -25.5q72 0 136.5 30.5t114.5 78.5t84 108.5t46 122.5l55 260q7 35 7 71q0 25 -3 49q-8 60 -36.5 108t-79 79t-121.5 31q-84 0 -148.5 -26t-115 -82 t-87 -145t-63.5 -216t-29 -217z" />
<glyph unicode="b" horiz-adv-x="1140" d="M47 8l324 1520q4 2 12 4q16 4 39 4t39 -4q8 -2 12 -4l-131 -610q66 84 155 132t214 48q92 0 159.5 -32t104.5 -100q37 -70 42 -180q1 -15 1 -29q0 -101 -29 -237q-33 -158 -83 -261t-115.5 -165.5t-145.5 -88t-172 -25.5q-125 0 -194.5 51t-98.5 129l-33 -152 q-4 -2 -12 -4q-16 -4 -39 -4t-39 4q-8 2 -10 4zM230 288q8 -61 35.5 -109t76.5 -78.5t119 -30.5q86 0 152.5 25.5t116.5 81.5t88 145.5t65 216.5t29 216v10q0 82 -24 135q-26 56 -80 82t-140 26q-68 0 -129.5 -30t-111.5 -77t-86 -105.5t-50 -117.5l-58 -268q-7 -36 -7 -71 q0 -26 4 -51z" />
<glyph unicode="c" horiz-adv-x="905" d="M111 563q59 274 195 404.5t345 130.5q61 0 106.5 -7.5t73.5 -17.5q35 -10 58 -24q-4 -23 -17.5 -44.5t-35.5 -35.5q-20 10 -48 18q-23 6 -57.5 12.5t-79.5 6.5q-180 0 -286.5 -115t-155.5 -348q-22 -103 -22 -183q0 -284 276 -284q47 0 85 6t66 14q33 8 58 23 q16 -10 24.5 -33t3.5 -47q-31 -18 -71 -31q-35 -10 -85 -19t-116 -9q-209 0 -293 154q-49 90 -49 221q0 94 25 208z" />
<glyph unicode="d" horiz-adv-x="1134" d="M86 290q-1 17 -1 34q0 99 28 233q33 156 84 260.5t117.5 167t145.5 88t165 25.5q125 0 193.5 -52.5t96.5 -127.5l132 610q4 2 12 4q16 4 39 4t39 -4q8 -2 12 -4l-324 -1520q-4 -2 -12 -4q-16 -4 -33 -4q-10 0 -17 1t-13 3q-8 2 -13 4l27 158q-66 -86 -150 -136t-213 -50 q-92 0 -160.5 31.5t-108.5 100t-46 178.5zM187 322v-6q0 -85 26 -139q27 -56 82 -81.5t141 -25.5q74 0 136.5 30.5t110.5 78.5t80 108.5t44 122.5l55 260q8 39 8 79q0 21 -2 41q-6 60 -32.5 108t-75.5 79t-123 31q-164 0 -266.5 -107.5t-155.5 -361.5q-27 -127 -28 -217z " />
<glyph unicode="e" horiz-adv-x="1034" d="M86 322q-1 17 -1 35q0 96 28 214q61 268 199.5 397.5t324.5 129.5q90 0 155.5 -30t104.5 -83t50 -126q4 -28 4 -57q0 -48 -11 -102q-10 -47 -20.5 -83.5t-20.5 -61.5q-10 -29 -20 -49h-676q-15 -85 -15 -153q0 -107 38 -173q62 -106 227 -106q59 0 111 11t89 28 q43 16 78 39q14 -12 23.5 -34t5.5 -46q-37 -27 -86 -47q-41 -16 -103.5 -30.5t-142.5 -14.5q-104 0 -179 39.5t-116 116t-47 186.5zM221 590h588q2 4 15.5 38t25.5 95q8 38 8 74q0 19 -2 35q-6 52 -31.5 91.5t-74 63t-121.5 23.5q-141 0 -247 -99.5t-161 -320.5z" />
<glyph unicode="f" horiz-adv-x="696" d="M88 8l209 983h-143q-2 4 -3 14.5t3 28.5t9 28.5t9 14.5h143l27 123q14 74 41 136.5t72 106.5t109.5 68.5t156.5 24.5q41 0 75.5 -5t59.5 -9q29 -8 53 -15q-6 -49 -45 -82q-18 4 -41 11q-20 4 -46.5 8t-61.5 4q-68 0 -114 -15.5t-76.5 -46t-48 -74.5t-30.5 -102l-28 -133 h315q0 -4 1 -14t-3 -29q-4 -16 -9 -27.5t-7 -15.5h-316l-209 -983q-4 -2 -12 -4q-16 -4 -41 -4q-23 0 -39 4q-8 2 -10 4z" />
<glyph unicode="g" horiz-adv-x="1136" d="M-12 -457q4 23 15 44.5t32 33.5q33 -12 69 -20q33 -8 77 -14.5t93 -6.5q96 0 170 20.5t128.5 74t94.5 145.5t68 233l25 109q-61 -80 -144.5 -131t-214.5 -51q-92 0 -160.5 32.5t-107.5 104t-45 182.5q-1 17 -1 35q0 100 28 233q33 156 83 259.5t115.5 163t143.5 84 t168 24.5q66 0 114.5 -15.5t82.5 -41t56.5 -59.5t36.5 -69l33 156q4 2 13 4q16 4 40 4q23 0 39 -4q8 -2 13 -4l-215 -1016q-31 -141 -73 -247.5t-108.5 -177t-162 -105.5t-230.5 -35q-66 0 -118 8t-87 19q-41 12 -71 28zM187 322v-6q0 -85 26 -139q27 -56 82 -81.5 t141 -25.5q80 0 143.5 33.5t109.5 83t75 106.5t41 106l59 277q6 36 6 76q0 16 -1 32q-3 58 -27.5 107t-73.5 83t-131 34q-86 0 -152.5 -26t-117 -82t-88 -145t-64.5 -216t-28 -217z" />
<glyph unicode="h" horiz-adv-x="1128" d="M47 8l324 1520q4 2 12 4q16 4 39 4t39 -4q8 -2 12 -4l-131 -608q80 88 175 133t214 45q147 0 219 -87q49 -60 50 -150q0 -41 -11 -89l-164 -764q-6 -2 -14 -4q-16 -4 -39 -4t-39 4q-8 2 -10 4l162 762q10 43 10 79q-1 65 -33 103q-50 58 -172 58q-98 0 -200.5 -60.5 t-176.5 -171.5l-163 -770q-6 -2 -15 -4q-16 -4 -39 -4q-14 0 -22 1t-15 3q-8 2 -12 4z" />
<glyph unicode="i" horiz-adv-x="471" d="M53 8l226 1061q4 2 12 4q16 4 41 4q23 0 39 -4q8 -2 10 -4l-225 -1061q-4 -2 -13 -4q-16 -4 -41 -4q-23 0 -39 4q-8 2 -10 4zM319 1331l25 115q8 2 18 4t21.5 3t28.5 1q27 0 47 -4l16 -4l-24 -115q-8 -2 -19 -4q-10 -2 -21.5 -3t-27.5 -1t-27.5 1t-19.5 3t-17 4z" />
<glyph unicode="j" horiz-adv-x="471" d="M-349 -476q0 3 1 7q6 31 14 41q4 8 10 12q10 -2 23 -4q10 -2 25.5 -3t37.5 -1q100 0 161 54.5t87 181.5l269 1257q4 2 12 4q6 2 15 3t26 1q20 0 37 -4q8 -2 12 -4l-266 -1249q-35 -172 -126 -252t-220 -80q-33 0 -54.5 2t-36.5 6q-16 4 -26 10v7zM322 1337l24 115 q6 2 16 4q20 4 52 4q27 0 47 -4q8 -2 14 -4l-24 -115q-8 -2 -17 -4q-20 -4 -49 -4t-49 4q-8 2 -14 4z" />
<glyph unicode="k" horiz-adv-x="1013" d="M47 8l324 1520q4 2 12 4q16 4 39 4t39 -4q8 -2 12 -4l-197 -922h218l413 463q6 2 15 4q8 2 18 3t27 1q14 0 23 -1t18 -3q8 -2 14 -2l-461 -518l285 -543q-8 -4 -17 -6q-20 -4 -45 -4q-20 0 -36 4q-8 2 -13 6l-262 510h-215l-108 -512q-6 -2 -15 -4q-16 -4 -39 -4 q-14 0 -22 1t-15 3q-8 2 -12 4z" />
<glyph unicode="l" horiz-adv-x="479" d="M57 8l324 1520q4 2 12 4q16 4 39 4t39 -4q8 -2 12 -4l-323 -1520q-4 -2 -13 -4q-16 -4 -41 -4q-23 0 -38 4q-8 2 -11 4z" />
<glyph unicode="m" horiz-adv-x="1724" d="M47 8l225 1061q6 2 15 4q16 4 39 4t39 -4q8 -2 12 -4l-33 -156q76 86 165 135.5t196 49.5q98 0 171.5 -48.5t79.5 -152.5q82 94 176.5 147.5t208.5 53.5q70 0 123.5 -21.5t85.5 -62.5q32 -40 42 -100q4 -23 3 -49q0 -41 -10 -89l-164 -768q-6 -2 -14 -4q-16 -4 -39 -4 t-39 4q-8 2 -10 4l162 762q10 47 10 85q1 61 -27 97q-44 58 -157 58q-90 0 -189.5 -59.5t-171.5 -176.5l-162 -766q-6 -2 -14 -4q-16 -4 -39 -4q-14 0 -22.5 1t-14.5 3q-8 2 -12 4l162 762q10 47 10 85q0 61 -28 97q-44 58 -156 58q-90 0 -187.5 -60.5t-167.5 -171.5 l-163 -770q-6 -2 -15 -4q-20 -4 -41 -4q-14 0 -22 1t-15 3q-8 2 -12 4z" />
<glyph unicode="n" d="M47 8l225 1061q6 2 15 4q16 4 39 4q20 0 36 -4q8 -2 13 -4l-33 -158q84 88 174 137.5t209 49.5q74 0 129 -23.5t90 -65.5q35 -43 46 -103q5 -27 5 -55q0 -37 -8 -79l-162 -764q-6 -2 -14 -4q-16 -4 -39 -4t-39 4q-8 2 -10 4l162 762q10 43 10 79q-1 65 -33 103 q-50 58 -172 58q-98 0 -200.5 -60.5t-176.5 -171.5l-163 -770q-6 -2 -15 -4q-16 -4 -39 -4q-14 0 -22 1t-15 3q-8 2 -12 4z" />
<glyph unicode="o" horiz-adv-x="1101" d="M86 298q-1 17 -1 35q0 99 28 228q33 152 86 255.5t121.5 165.5t151.5 89t173 27q100 0 173 -33t114 -103q41 -68 48 -178q1 -19 1 -40q0 -96 -27 -222q-33 -152 -85 -256t-121.5 -167.5t-152.5 -91t-175 -27.5q-100 0 -173 33.5t-114 104t-47 180.5zM187 312 q3 -92 33 -146.5t84 -77t128 -22.5q66 0 129.5 22.5t117.5 77.5t99 146.5t74 226.5q26 120 26 206v20q-4 91 -33.5 146.5t-83.5 78t-128 22.5q-66 0 -129.5 -22.5t-118.5 -78t-99 -146.5t-73 -226q-26 -122 -26 -209v-18z" />
<glyph unicode="p" horiz-adv-x="1136" d="M-59 -494l331 1563q4 2 13 4q16 4 41 4q23 0 39 -4q8 -2 10 -4l-33 -151q66 84 155 132t214 48q92 0 158.5 -32t103.5 -101.5t41 -180.5v-24q0 -103 -29 -242q-33 -158 -83 -261t-114.5 -164.5t-143.5 -87t-171 -25.5q-53 0 -98 16t-82 44t-64.5 64.5t-42.5 75.5 l-143 -674q-4 -2 -12 -4q-16 -4 -41 -4q-23 0 -39 4q-8 2 -10 4zM237 306q11 -64 43.5 -116.5t83 -86t113.5 -33.5q86 0 149.5 25.5t111.5 81.5t83 145.5t62 216.5t29 216v10q0 82 -24 135q-26 56 -80 82t-140 26q-74 0 -136.5 -29t-111.5 -76t-83 -106.5t-46 -118.5 l-53 -248q-6 -32 -6 -64q0 -30 5 -60z" />
<glyph unicode="q" horiz-adv-x="1138" d="M86 294q-1 16 -1 34q0 99 28 233q33 156 84 259.5t117.5 165t147.5 87t173 25.5q113 0 185.5 -53.5t99.5 -126.5l32 151q4 2 13 4q16 4 39 4t38 -4q8 -2 13 -4l-332 -1563q-4 -2 -12 -4q-16 -4 -41 -4q-23 0 -39 4q-8 2 -10 4l139 654q-66 -84 -152 -132t-211 -48 q-92 0 -160.5 31.5t-106.5 102t-44 180.5zM189 322v-18q0 -77 22 -127q25 -56 78 -81.5t139 -25.5q72 0 134.5 28.5t112.5 74.5t85 105.5t49 118.5l59 281q5 30 5 61q0 27 -4 55q-9 60 -37.5 107t-76.5 77t-114 30q-86 0 -152.5 -26t-116.5 -82t-88 -145t-65 -216t-30 -217z " />
<glyph unicode="r" horiz-adv-x="794" d="M47 8l225 1061q4 2 13 4q16 4 41 4q23 0 39 -4q8 -2 10 -4l-37 -166q49 72 98 111t93 57.5t82 21.5t67 3q68 0 110.5 -20.5t51.5 -26.5q-16 -59 -68 -86q-33 18 -65.5 27t-73.5 9q-72 0 -157 -55t-169 -188l-157 -748q-4 -2 -13 -4q-16 -4 -41 -4q-23 0 -39 4q-8 2 -10 4 z" />
<glyph unicode="s" horiz-adv-x="905" d="M-6 45q6 51 45 80q35 -16 78 -27q37 -10 86 -18t104 -8q115 0 202 49t109 160q6 28 6 52.5t-6 43.5q-12 39 -42.5 64.5t-73.5 42t-92 30.5t-99.5 40t-87.5 62.5t-54 88.5q-9 27 -9 59q0 30 8 65q29 133 128 201t284 68q61 0 109 -7.5t81 -17.5q37 -10 66 -22 q-4 -23 -17.5 -45.5t-30.5 -34.5q-27 10 -61 18q-29 6 -69 12.5t-87 6.5q-133 0 -208.5 -47.5t-98.5 -149.5q-4 -20 -4 -38q0 -24 8 -44q14 -35 42 -60.5t68 -43t87 -31.5q53 -16 106.5 -40t92.5 -60q38 -36 56 -92q10 -30 10 -68q0 -32 -7 -70q-61 -284 -423 -284h-3 q-76 0 -131 10t-94 22q-45 14 -78 33z" />
<glyph unicode="t" horiz-adv-x="718" d="M136 1017q0 7 3 17q2 10 5 19.5t8 13.5q4 6 6 10h164l43 203q23 14 51 22q18 5 36 4q10 0 19 -1l-47 -228h313q2 -4 2 -10v-14.5t-2 -18.5q-8 -25 -12 -33t-6 -10h-313l-136 -631q-16 -76 -20 -131q-1 -12 -1 -22q0 -40 12 -68q15 -35 52 -52t103 -17q23 0 45 1t43 3 q23 2 45 6q2 -4 4 -12q2 -6 1 -14.5t-3 -18.5q-4 -10 -6 -17.5t-4 -11.5q-2 -6 -4 -10q-10 -2 -49 -9t-95 -7q-88 0 -141 25.5t-77.5 73.5t-24.5 118.5t18 160.5l135 633h-164q-2 4 -2 10z" />
<glyph unicode="u" d="M100 176q-5 27 -5 57q0 37 9 78l160 758q6 2 15 4q16 4 38 4q23 0 39 -4q8 -2 11 -4l-162 -762q-10 -44 -10 -79q0 -64 32 -102q49 -58 172 -58q96 0 199.5 60t177.5 171l164 770q6 2 14 4q16 4 39 4q20 0 37 -4q8 -2 12 -4l-225 -1061q-6 -2 -14 -4q-16 -4 -39 -4 q-14 0 -22.5 1t-14.5 3q-8 2 -12 4l33 148q-82 -86 -174.5 -131t-208.5 -45q-74 0 -129.5 24.5t-89.5 67t-46 104.5z" />
<glyph unicode="v" horiz-adv-x="1026" d="M150 1069q6 2 14 4q20 4 43 4q18 0 35 -4q8 -2 10 -4l125 -741q6 -43 10 -80t6 -66q2 -33 4 -59h6l29 57q14 27 33.5 64t46.5 80l438 745q6 2 15 4q8 2 18 3t27 1q20 0 37 -4q8 -2 12 -4l-623 -1061l-16 -4t-17.5 -3t-21.5 -1q-23 0 -39 4q-8 2 -12 4z" />
<glyph unicode="w" horiz-adv-x="1622" d="M160 1069q4 2 12 4q16 4 39 4q12 0 20.5 -1t14.5 -3q8 -2 12 -4l84 -766q7 -68 7 -110v-10q-1 -44 -3 -54h6q4 10 22.5 55t59.5 119l414 766l16 4t19.5 3t27.5 1t29 -4q6 -2 10 -4l92 -762q7 -66 7 -108q-1 -8 -1 -15q-2 -45 -4 -55h7q4 10 23.5 54t60.5 122l405 764 q4 2 12 4q16 4 45 4q23 0 39 -4q8 -2 15 -4l-568 -1061l-20 -5t-33 -3q-18 0 -29.5 3t-19.5 5l-82 684q-16 131 -16 189.5v70.5h-6q-4 -12 -29 -70.5t-96 -189.5l-373 -684q-6 -2 -19.5 -5t-31.5 -3q-20 0 -31.5 3t-20.5 5z" />
<glyph unicode="x" horiz-adv-x="999" d="M-72 8l492 541l-254 520q6 2 14 4t18.5 3t26.5 1q20 0 37 -4q8 -2 12 -4l222 -446l405 446q2 2 10 4q6 2 17.5 3t32.5 1q27 0 47 -4l16 -4l-477 -522l264 -539q-6 -2 -14 -4q-20 -4 -45 -4q-12 0 -20.5 1t-14.5 3q-8 2 -12 4l-232 463l-420 -463q-2 -4 -10 -6 q-16 -4 -53 -4q-23 0 -43 4q-8 2 -19 6z" />
<glyph unicode="y" d="M-20 -457q4 23 15 44.5t32 33.5q33 -12 69 -20q33 -8 77 -14.5t93 -6.5q96 0 169 19.5t128 70.5t96 142.5t72 232.5l25 111q-82 -86 -172 -131t-207 -45q-164 0 -235 94q-48 65 -48 158q0 42 10 90l160 747q6 2 15 4q16 4 38 4q23 0 39 -4q8 -2 11 -4l-162 -762 q-10 -44 -10 -79q0 -65 32 -102q49 -58 172 -58q96 0 199.5 60t177.5 171l164 770q6 2 14 4q16 4 39 4q20 0 37 -4q8 -2 12 -4l-217 -1024q-31 -141 -71.5 -245.5t-106 -174t-161 -103.5t-230.5 -34q-66 0 -118 8t-87 19q-41 12 -71 28z" />
<glyph unicode="z" horiz-adv-x="923" d="M-42 19q0 10 3 28q4 20 9 29.5t7 13.5l799 897h-561q-2 2 -2 10v14.5t4 20.5q2 12 5 20.5t7 14.5t7 10h673q0 -4 1 -14v-4q0 -9 -3 -25q-4 -20 -9 -31.5t-9 -15.5l-797 -897h613q2 -4 2 -10v-14.5t-2 -20.5q-6 -20 -13 -35q-4 -8 -6 -10h-727z" />
<glyph unicode="{" horiz-adv-x="696" d="M89 655.5q-1 12.5 3 28.5q4 18 9 30.5t10 16.5h67q47 0 72.5 31t34.5 72l118 552q27 123 110 198t220 75h98q0 -4 1.5 -16.5t-3.5 -28.5q-4 -16 -9 -28.5t-7 -16.5h-80q-100 0 -154.5 -48t-74.5 -139l-109 -512q-14 -68 -36.5 -111.5t-69.5 -72.5q35 -29 39 -74t-11 -112 l-108 -512q-20 -90 13.5 -138.5t133.5 -48.5h80q2 -4 3 -14t-3 -31q-4 -20 -9 -30.5t-9 -14.5h-99q-137 0 -189 75t-26 198l119 553q8 41 -5 71.5t-60 30.5h-68q0 4 -1 16.5z" />
<glyph unicode="|" horiz-adv-x="520" d="M-8 -395l426 2005q4 2 12 4q16 4 41 4q23 0 39 -4q8 -2 10 -4l-426 -2005q-4 -2 -12 -4q-16 -4 -41 -4q-23 0 -39 4q-8 2 -10 4z" />
<glyph unicode="}" horiz-adv-x="694" d="M-113 -273.5q0 11.5 4 29.5q4 16 8.5 28.5t6.5 16.5h80q102 0 155.5 48.5t73.5 138.5l109 512q14 68 36.5 111.5t69.5 72.5q-35 29 -39 74t10 112l109 512q20 90 -12.5 138.5t-135.5 48.5h-79q0 4 -1 14t3 29q4 23 8 33t8 14h98q137 0 189.5 -75t25.5 -198l-118 -552 q-8 -41 5 -72t60 -31h68q0 -4 1 -16.5t-3 -28.5q-4 -18 -9.5 -30.5t-9.5 -16.5h-67q-47 0 -73 -30.5t-34 -71.5l-119 -553q-27 -123 -109.5 -198t-219.5 -75h-99v15.5z" />
<glyph unicode="~" horiz-adv-x="1105" d="M168 606q27 31 63 53q31 20 76 37t105 17q51 0 85.5 -16.5t65.5 -36t65 -36t83 -16.5q37 0 68.5 11.5t54.5 25.5q27 16 49 37q45 -8 49 -57q-27 -33 -64 -56q-31 -20 -78 -36.5t-106 -16.5q-51 0 -86 16.5t-66.5 36t-65.5 36t-83 16.5q-37 0 -68.5 -11.5t-54.5 -25.5 q-27 -16 -47 -37q-23 4 -34 20.5t-11 38.5z" />
<glyph unicode="&#xa1;" horiz-adv-x="489" d="M-29 -406l256 1131q4 2 11 4q4 2 12 4t18 2t17.5 -2t11.5 -4q6 -2 8 -4l-223 -1131q0 -2 -8 -4q-6 -2 -17.5 -3t-31.5 -1q-35 0 -48 4q-6 2 -6 4zM246 938l24 115q8 2 19 4q10 2 21.5 3t27.5 1q27 0 47 -4l16 -4l-24 -115q-8 -2 -19 -4q-10 -2 -21 -3t-28 -1 q-16 0 -27.5 1t-19.5 3z" />
<glyph unicode="&#xa2;" horiz-adv-x="942" d="M115 539q55 260 183 400t318 157l29 188q10 4 23.5 6t29.5 2q35 0 47 -8l-49 -186q53 -4 92 -10.5t64 -16.5q29 -10 49 -22q-10 -51 -51 -78q-20 10 -47 18q-23 6 -57.5 12.5t-79.5 6.5q-180 0 -288 -118t-157 -351q-100 -465 254 -465q47 0 86 6t68 14q33 8 59 23 q16 -10 20.5 -32t0.5 -46q-31 -14 -68 -27q-33 -10 -79 -20t-103 -12l-31 -187q-8 -4 -22.5 -7t-30.5 -3t-28.5 3t-18.5 7l51 189q-184 16 -252 156.5t-12 400.5z" />
<glyph unicode="&#xa3;" horiz-adv-x="1054" d="M20 0l21 98q100 74 156.5 143.5t83 137t29.5 134.5t-3 134h-170q0 4 -1 15.5t3 27.5q6 33 17 43h143q-10 78 -15 156t11 162q20 96 65.5 164.5t110 113.5t145 65.5t172.5 20.5q61 0 113.5 -7t91.5 -17.5t64.5 -19.5t32.5 -11q-4 -25 -16.5 -47.5t-35.5 -34.5 q-4 2 -25.5 9t-56 15.5t-81 14.5t-97.5 6q-152 0 -247 -68.5t-125 -210.5q-16 -76 -8 -152.5t18 -158.5h399q2 -4 4 -14t-2 -27q-6 -31 -20 -45h-373q4 -66 -1 -133.5t-30.5 -136t-77 -139t-139.5 -140.5h641q4 -4 4 -18t-4 -31q-6 -39 -20 -49h-777z" />
<glyph unicode="&#xa4;" horiz-adv-x="1204" d="M43 143q-2 6 0 11l184 151q-29 51 -40 114.5t6 135.5q14 72 51 135.5t90 114.5l-121 151l6 13q4 4 8 11t15 15q23 16 32 19q6 2 11 2l125 -152q59 41 125.5 64.5t138.5 23.5q70 0 127 -23.5t100 -64.5l180 152q4 0 11 -2q8 -4 24 -19q6 -8 8 -15t4 -11q2 -8 2 -13 l-182 -151q31 -53 42 -115.5t-3 -134.5q-16 -72 -53 -135.5t-90 -114.5l121 -151q-2 -6 -7 -13q-4 -4 -9 -11t-13 -13q-20 -18 -31 -21q-8 -2 -12 -2l-123 152q-59 -41 -127 -64.5t-139 -23.5q-72 0 -130.5 23.5t-101.5 64.5l-182 -152q-4 0 -10 2q-14 4 -25 21 q-12 14 -12 26zM274.5 432q12.5 -57 45 -99t85 -66.5t117.5 -24.5q66 0 128.5 24.5t113.5 66.5t88 99t51 123t2 123t-46 99t-86 66.5t-118 24.5t-128 -24.5t-113.5 -66.5t-87 -99t-50.5 -123q-14 -66 -1.5 -123z" />
<glyph unicode="&#xa5;" horiz-adv-x="1236" d="M135 333.5q-2 10.5 2 24.5q4 16 9.5 25.5t7.5 13.5h350l35 162h-351q0 4 -2 13.5t2 25.5t8.5 25.5t8.5 13.5h315l-291 754q6 2 15 4q8 2 18 4t25 2q16 0 25.5 -1t17.5 -3t14 -4l272 -713l596 713q6 2 15 4q20 4 43 4q25 0 41 -4q8 -2 12 -4l-635 -756h316q0 -4 2 -13.5 t-2 -25.5t-9.5 -25.5t-7.5 -13.5h-350l-35 -162h350q6 -10 0 -39q-4 -16 -8 -25t-8 -14h-350l-66 -311q-4 -2 -12 -4q-16 -4 -39 -4q-25 0 -37 4q-8 2 -10 4l65 311h-350q0 4 -2 14.5z" />
<glyph unicode="&#xa6;" horiz-adv-x="524" d="M-8 -395l190 895q4 2 13 4q16 4 41 4q23 0 38 -4q8 -2 11 -4l-191 -895q-4 -2 -12 -4q-16 -4 -39 -4t-39 4q-8 2 -12 4zM229 715l191 895q4 2 12 4q16 4 39 4t39 -4q8 -2 12 -4l-190 -895q-4 -2 -13 -4q-16 -4 -40 -4q-23 0 -39 4q-8 2 -11 4z" />
<glyph unicode="&#xa7;" horiz-adv-x="993" d="M29 29q2 23 11 44t30 36q2 0 26.5 -6.5t62.5 -13.5t83 -13t92 -6q154 0 237 41t103 137q12 59 -26 93t-100.5 57.5t-136 44t-134 52t-95.5 80t-16 130.5q10 49 35.5 87.5t56.5 69.5t62.5 52.5t56.5 33.5q-51 31 -81 80t-13 131q29 129 133 191.5t264 62.5 q113 0 184.5 -19.5t81.5 -23.5q0 -20 -11 -42.5t-30 -33.5q-2 0 -22.5 6.5t-51 12.5t-69.5 11t-78 5q-147 0 -216 -45t-85 -123q-12 -61 22.5 -96t94 -59.5t129 -46t128 -52t90.5 -79t15 -128.5q-10 -49 -34.5 -87t-53.5 -66.5t-58.5 -49t-49.5 -32.5q59 -33 94 -82t18 -135 q-16 -78 -57 -129t-100.5 -82t-132 -44t-154.5 -13q-70 0 -125 7t-96 17q-47 10 -84 25zM270 719q-12 -55 13.5 -90t72.5 -57.5t107.5 -38t120.5 -35.5q20 10 46.5 27.5t52.5 41t46.5 54t28.5 67.5q12 53 -13.5 86t-71.5 56.5t-105.5 39.5t-114.5 39q-23 -12 -51.5 -29.5 t-55.5 -41t-47 -53t-29 -66.5z" />
<glyph unicode="&#xa8;" horiz-adv-x="931" d="M199 1260l22 108q8 0 17 2q20 4 47 4q16 0 26.5 -1t18.5 -3t14 -2l-22 -108q-8 -2 -17 -5q-20 -4 -47 -4q-16 0 -26.5 1t-18.5 3t-14 5zM504 1260l22 108q8 0 17 2q20 4 47 4q16 0 26.5 -1t18.5 -3t14 -2l-22 -108q-8 -2 -17 -5q-20 -4 -47 -4q-16 0 -26.5 1t-18.5 3 t-14 5z" />
<glyph unicode="&#xa9;" horiz-adv-x="1650" d="M146.5 427q-27.5 126 3.5 269t111.5 269.5t194 219.5t252 147t281.5 54t258 -54t188.5 -147t100.5 -219t-4 -270q-31 -143 -112 -269t-194.5 -220t-251 -148.5t-280.5 -54.5t-257.5 54.5t-188.5 148.5t-101.5 220zM225 457.5q25 -111.5 90.5 -195.5t167 -132t228.5 -48 t248.5 48t223 132t173 195.5t98.5 238.5t2.5 239t-89 194.5t-166 131t-228.5 48.5t-249 -48.5t-223.5 -131t-174 -194.5t-99.5 -239t-2 -238.5zM502 711q88 408 434 407q51 0 88 -7t61 -15q29 -10 48 -23q-6 -37 -43 -63q-20 10 -46 18q-23 6 -51 12.5t-61 6.5 q-139 0 -221 -77t-121 -259q-37 -172 13 -253t185 -81q35 0 69 5t58 11q29 8 56 17q16 -10 19 -26.5t-1 -35.5q-27 -14 -61 -24q-29 -10 -71 -16.5t-95 -6.5q-174 0 -237.5 105.5t-22.5 304.5z" />
<glyph unicode="&#xaa;" horiz-adv-x="739" d="M88 436q-2 29 14 64h463q2 -29 -14 -64h-463zM158 803q20 92 87.5 142t186.5 50q59 0 105.5 -4t64.5 -6l16 80q18 86 -12.5 123t-107.5 37q-35 0 -68 -5.5t-59 -11.5q-31 -8 -58 -16q-8 10 -10 26.5t2 30.5q29 12 66 21q31 8 69.5 14t81.5 6q115 0 155 -54t17 -161 l-96 -448q-2 -2 -8 -4q-12 -4 -23 -5q-14 0 -22 5q-4 2 -6 4l8 86q-41 -51 -102.5 -79t-133.5 -28q-86 0 -130 51.5t-23 145.5zM231 803q-14 -72 15.5 -102.5t93.5 -30.5q84 0 149.5 52t88.5 146l12 60q-18 2 -63.5 5t-96.5 3q-170 0 -199 -133z" />
<glyph unicode="&#xab;" horiz-adv-x="1013" d="M91 533.5q-1 7.5 3 17.5q2 10 5 18.5t7 14.5l7 12l516 446q16 -10 21 -29.5t1 -39.5l-465 -420l287 -422q-6 -23 -19.5 -41t-33.5 -29l-326 447q-2 4 -2 12q0 6 -1 13.5zM438 520v12.5t4 18.5q2 16 11 33q4 6 6 10l471 407q14 -10 19 -28.5t1 -38.5l-418 -381l256 -383 q-6 -23 -19 -40t-30 -28l-299 408q-2 4 -2 10z" />
<glyph unicode="&#xac;" horiz-adv-x="1224" d="M165 833.5q-1 8.5 3 18.5q6 25 12 35l6 12h918l-111 -520q-4 -2 -12 -4q-16 -4 -37 -4q-20 0 -33 4q-6 2 -10 4l92 428h-825q-2 4 -2 12q0 6 -1 14.5z" />
<glyph unicode="&#xad;" horiz-adv-x="548" />
<glyph unicode="&#xae;" horiz-adv-x="1099" d="M193.5 799q-17.5 78 1.5 166q18 88 68 165.5t120 135t155 91.5t173 34t158.5 -34t116.5 -91.5t62.5 -135t-1.5 -165.5t-68.5 -166t-120.5 -135.5t-155 -91t-173 -33.5t-158.5 33.5t-115.5 91t-62.5 135.5zM244 818.5q14 -68.5 54 -120t102.5 -81t140.5 -29.5t152.5 29.5 t136 81t105.5 120t60 146.5t2 146.5t-54 119.5t-102.5 80.5t-140.5 29.5t-152.5 -29.5t-136 -80.5t-105.5 -120t-60 -146q-16 -78 -2 -146.5zM428 745l98 461h179q74 0 103.5 -34.5t14.5 -100.5q-10 -47 -36.5 -77.5t-79.5 -47.5l77 -198q-2 -2 -8 -5q-12 -4 -22 -4 q-16 0 -21 2l-8 4l-74 195h-129l-43 -195q-2 -2 -6 -4t-18 -2q-16 0 -21 2q-4 2 -6 4zM530 985h127q53 0 78 22.5t35 63.5q10 45 -6 67.5t-70 22.5h-127z" />
<glyph unicode="&#xaf;" horiz-adv-x="833" d="M65 1331q5 23 17 41h596q6 -16 0 -39.5t-16 -42.5h-596q-6 18 -1 41z" />
<glyph unicode="&#xb0;" horiz-adv-x="737" d="M246 1177q-6 42 4 87t35.5 89t64.5 79.5t91.5 57t113.5 21.5t102 -21.5t64.5 -55t29 -76.5t-2.5 -88q-10 -45 -35 -89t-63 -78t-88 -55.5t-111 -21.5q-66 0 -108 20.5t-66.5 54.5t-30.5 76zM311 1198q4 -33 20.5 -58.5t48.5 -41t81 -15.5q47 0 85 15.5t65.5 41t46 59.5 t26.5 69q6 35 2 68.5t-20.5 59t-47 42t-77.5 16.5t-85 -16.5t-68 -43t-48 -60.5t-27 -68q-6 -35 -2 -68z" />
<glyph unicode="&#xb1;" horiz-adv-x="1056" d="M106 303v13.5t5 19.5q2 16 10 33q4 6 6 10h692q2 -4 2 -10v-14.5t-2 -18.5q-8 -25 -12 -33t-6 -10h-692q-2 2 -3 10zM210 804q-1 9 3 19q2 10 5 18.5t7 14.5t6 10h304l51 242q4 2 12 4q16 4 33 4q18 0 31 -4q6 -2 10 -4l-51 -242h303q2 -4 2 -10t-1 -14t-3 -19 q-4 -10 -5.5 -19t-5.5 -13q-4 -8 -6 -11h-303l-51 -241q-4 -2 -12 -4q-16 -4 -33 -5q-18 0 -31 5q-6 2 -10 4l51 241h-303q-2 2 -2 11q0 4 -1 13z" />
<glyph unicode="&#xb2;" horiz-adv-x="618" d="M104 709v24q1 27 9 60q14 70 52 114.5t87 76.5t104.5 54.5t102.5 47t83 57.5t46 84q6 27 3 50t-19.5 41.5t-47 29t-80.5 10.5q-27 0 -53 -3t-47.5 -6t-35 -7.5t-15.5 -4.5q-18 23 -4 58q23 6 51 12q25 4 56.5 9t72.5 5q123 0 167 -52t28 -136q-14 -66 -52.5 -108 t-87.5 -70.5t-104 -52t-103.5 -52t-85 -69.5t-47.5 -105h373q4 -16 0 -35q-4 -18 -14 -32h-439z" />
<glyph unicode="&#xb3;" horiz-adv-x="618" d="M102 729q2 14 9.5 28.5t19.5 24.5q20 -6 45 -10q45 -10 109 -10q63 0 104 11t67.5 30.5t40 45t19.5 54.5q16 76 -24.5 108.5t-112.5 32.5h-90q-6 31 14 64h90q72 0 114 34t54 91q25 125 -131 125q-35 0 -64.5 -3t-52.5 -7q-27 -4 -47 -9q-16 20 -4 56q23 6 51 12 q25 4 59 9t74 5q113 0 162 -47t31 -135q-14 -59 -45 -97t-86 -63q49 -23 72.5 -61.5t7.5 -118.5q-16 -84 -87 -142.5t-227 -58.5q-41 0 -72.5 4.5t-54.5 10.5q-27 8 -45 16z" />
<glyph unicode="&#xb4;" horiz-adv-x="458" d="M35 1352l293 303q29 2 52 -11.5t34 -35.5l-320 -295q-47 6 -59 39z" />
<glyph unicode="&#xb5;" horiz-adv-x="1189" d="M2 -508q-4 43 2 111q4 59 17.5 149t41.5 219l234 1098q6 2 14 4q16 4 39 4t39 -4q8 -2 10 -4l-163 -766q-10 -49 -7.5 -92t25 -75t65.5 -50t115 -18q57 0 111.5 19t103.5 52t90 74t70 84l164 772q4 2 12 4q16 4 41 4q23 0 39 -4q8 -2 10 -4l-225 -1061q-4 -2 -12 -4 q-16 -4 -41 -4q-23 0 -39 4q-8 2 -10 4l32 154q-80 -86 -177 -134t-206 -48q-98 0 -147 29.5t-72 66.5q-31 -166 -43 -272.5t-16 -172.5q-4 -76 2 -116q-25 -18 -57.5 -24.5t-61.5 1.5z" />
<glyph unicode="&#xb6;" horiz-adv-x="960" d="M72 -457l299 1413q-57 2 -96 22.5t-60.5 54.5t-27 76t5.5 85q10 45 34.5 87t61.5 76t85 54.5t107 20.5h80l-401 -1889q-4 -2 -13 -4q-16 -4 -34 -4q-20 0 -33 4q-6 2 -8 4zM422 -457l399 1880q2 2 10 4q16 4 37 5q20 0 33 -5q6 -2 8 -4l-399 -1880q-2 -2 -10 -4 q-16 -4 -35 -4q-23 0 -35 4q-6 2 -8 4z" />
<glyph unicode="&#xb7;" horiz-adv-x="452" d="M143 528l23 107l16 4q20 4 47 4q16 0 26.5 -1t18.5 -3t15 -4l-23 -107l-16 -4q-20 -4 -47 -4q-16 0 -26.5 1t-18.5 3t-15 4z" />
<glyph unicode="&#xb8;" horiz-adv-x="606" d="M-297 -391q12 37 41 57q4 -2 44 -18.5t101 -16.5q72 0 118 33t63 100q23 115 -119 115h-66l-10 21l72 186l67 -10l-51 -129q121 0 164 -49.5t25 -135.5q-43 -201 -279 -200q-41 0 -71.5 6t-53.5 16q-25 10 -45 25z" />
<glyph unicode="&#xb9;" horiz-adv-x="495" d="M193 1264q76 18 146.5 58t117.5 83q12 6 37 6q23 0 32 -6l-147 -692q-16 -4 -33 -4h-19.5t-19.5 4l111 518q4 25 9 44t9 38q-51 -37 -111.5 -65.5t-127.5 -45.5q-18 23 -4 62z" />
<glyph unicode="&#xba;" horiz-adv-x="776" d="M107.5 448.5q-1.5 8.5 3.5 20.5q2 10 5 18.5t7 12.5h471q0 -4 1 -11.5t-1 -19.5q-6 -25 -14 -33h-471q0 4 -1.5 12.5zM190 948q39 180 121 261t215 81q131 0 180.5 -80t10.5 -262q-39 -184 -121 -264t-215 -80t-181.5 80t-9.5 264zM263 732q30 -62 130 -62q98 0 156.5 63 t91.5 215q33 150 1 214.5t-130 64.5q-100 0 -156.5 -64.5t-89.5 -214.5q-33 -154 -3 -216z" />
<glyph unicode="&#xbb;" horiz-adv-x="1013" d="M33 170l418 383l-256 381q6 20 19 38.5t30 28.5l299 -407v-10q0 -6 -1 -14.5t-3 -18.5q-4 -10 -6.5 -18.5t-4.5 -12.5q-2 -6 -4 -10l-471 -408q-14 10 -19 27.5t-1 40.5zM332 131l463 422l-285 420q14 45 51 69l328 -446q2 -4 2 -12q0 -6 -1 -14.5t-3 -18.5 q-4 -10 -5 -17.5t-5 -13.5l-7 -12l-518 -447q-27 25 -20 70z" />
<glyph unicode="&#xbc;" horiz-adv-x="1316" d="M86 -14l1102 1444q2 2 10 4q12 4 33 4q14 0 26 -4q6 -2 9 -4l-1100 -1444q-4 -2 -10 -4q-4 -2 -12.5 -2h-18.5q-23 0 -29 2t-10 4zM213 1264q76 18 145.5 58t116.5 83q14 6 37 6t35 -6l-148 -692q-16 -4 -34 -4h-18.5t-18.5 4l110 518q4 25 9.5 44t9.5 38 q-51 -37 -111.5 -65.5t-128.5 -45.5q-18 23 -4 62zM606 213q2 10 5 15t7 10l459 458q4 2 13.5 4t25.5 2q14 0 21.5 -2t11.5 -4l-94 -442h86q4 -14 0 -31q-4 -14 -7.5 -21t-5.5 -12h-86l-38 -184q-4 -2 -12.5 -4t-20.5 -2q-27 0 -33 6l39 184h-369q-4 8 -2 23zM709 254h280 l76 350z" />
<glyph unicode="&#xbd;" horiz-adv-x="1431" d="M86 -14l1102 1444q2 2 10 4q12 4 33 4q14 0 26 -4q6 -2 9 -4l-1100 -1444q-4 -2 -10 -4q-4 -2 -12.5 -2h-18.5q-23 0 -29 2t-10 4zM213 1264q76 18 145.5 58t116.5 83q14 6 37 6t35 -6l-148 -692q-16 -4 -34 -4h-18.5t-18.5 4l110 518q4 25 9.5 44t9.5 38 q-51 -37 -111.5 -65.5t-128.5 -45.5q-18 23 -4 62zM750 0q0 12 2 25q2 10 3 25.5t5 33.5q14 70 52 115t87 76.5t104.5 54t102.5 47t83 57.5t46 84q6 27 2 50.5t-20.5 42t-47 28.5t-79.5 10q-27 0 -53.5 -3t-48 -6t-35 -7t-15.5 -4q-16 26 -4 57q23 6 51 12q25 4 57.5 9.5 t73.5 5.5q123 0 167 -52.5t26 -136.5q-14 -66 -51 -107.5t-87.5 -70.5t-104.5 -52.5t-103.5 -52t-85 -69.5t-48.5 -104h373q6 -16 0 -35q-4 -18 -14 -33h-438z" />
<glyph unicode="&#xbe;" horiz-adv-x="1425" d="M127 729q2 14 9 28.5t20 24.5q20 -6 45 -10q45 -10 108 -10t104.5 11t68 30.5t40 45t19.5 54.5q16 76 -25 108.5t-113 32.5h-90q-6 31 15 64h90q72 0 113.5 34t54.5 91q25 125 -131 125q-35 0 -65 -3t-52 -7q-27 -4 -47 -9q-16 21 -4 56q23 6 51 12q25 4 58.5 9t74.5 5 q113 0 162 -47t31 -135q-14 -59 -45 -97t-87 -63q49 -23 73 -61.5t7 -118.5q-16 -84 -86.5 -142.5t-226.5 -58.5q-41 0 -72.5 4.5t-54.5 10.5q-27 8 -45 16zM195 -14l1101 1444q2 2 11 4q12 4 32 4q14 0 27 -4q6 -2 8 -4l-1100 -1444q-4 -2 -10 -4q-4 -2 -12 -2h-19 q-23 0 -28 2q-6 2 -10 4zM715 215q2 8 5 13t7 10l459 458q4 2 13 4t26 2q14 0 21 -2t11 -4l-94 -442h86q4 -14 0 -31q-4 -14 -7 -21t-5 -12h-86l-39 -184q-4 -2 -12 -4t-21 -2q-27 0 -32 6l38 184h-368q-4 8 -2 25zM817 254h281l76 350z" />
<glyph unicode="&#xbf;" horiz-adv-x="856" d="M-46 -150.5q-11 60.5 5 130.5q20 102 63.5 168.5t96.5 116.5t112.5 91t112.5 90.5t95 116t65 166.5q2 2 10 4q12 4 33 4q16 0 33 -4q6 -2 10 -4q-25 -117 -68 -192.5t-95 -129t-106.5 -92.5t-104.5 -83t-89 -101t-57 -145q-10 -53 -4 -97.5t32.5 -76t75.5 -50t125 -18.5 q63 0 115.5 7t89.5 18q43 10 78 26q16 -12 20 -33.5t-4 -44.5q-41 -18 -92 -32q-45 -12 -105.5 -22.5t-132.5 -10.5q-96 0 -161.5 24.5t-103.5 68.5t-49 104.5zM526 942l25 115l16 4q20 4 49 4q27 0 48 -4l16 -4l-25 -115l-16 -4q-20 -4 -49 -4q-16 0 -27.5 1t-19.5 3t-17 4 z" />
<glyph unicode="&#xc0;" horiz-adv-x="1310" d="M-92 8l872 1458q6 2 15 4q8 2 17 3.5t24 1.5q23 0 38 -5q8 -2 13 -4l254 -1458q-6 -2 -15 -4q-20 -4 -45 -4q-18 0 -34 4q-8 2 -13 4l-73 418h-691l-252 -418q-6 -2 -14 -4q-20 -4 -49 -4q-14 0 -22.5 1t-14.5 3q-8 2 -10 4zM324 520h622l-123 711q-4 25 -5 44t-3 34 q-2 16 -2 28h-4l-14 -28q-8 -14 -18.5 -35t-22.5 -43zM698 1841q16 20 47 34.5t60 12.5l162 -303q-27 -33 -76 -39z" />
<glyph unicode="&#xc1;" horiz-adv-x="1310" d="M-92 8l872 1458q6 2 15 4q8 2 17 3.5t24 1.5q23 0 38 -5q8 -2 13 -4l254 -1458q-6 -2 -15 -4q-20 -4 -45 -4q-14 0 -22 1t-15 3q-8 2 -10 4l-73 418h-691l-252 -418l-16 -4q-20 -4 -47 -4q-14 0 -22.5 1t-14.5 3q-8 2 -10 4zM324 520h622l-123 711q-4 25 -5 44t-3 34 q-2 16 -2 28h-4l-14 -28q-8 -14 -18.5 -35t-22.5 -43zM766 1587l291 303q29 2 52.5 -11t33.5 -36l-318 -295q-47 6 -59 39z" />
<glyph unicode="&#xc2;" horiz-adv-x="1310" d="M-92 8l872 1458q6 2 15 4q8 2 17 3.5t24 1.5q23 0 38 -5q8 -2 13 -4l254 -1458q-6 -2 -15 -4q-20 -4 -45 -4q-18 0 -34 4q-8 2 -13 4l-73 418h-691l-252 -418q-6 -2 -14 -4q-20 -4 -49 -4q-14 0 -22.5 1t-14.5 3q-8 2 -10 4zM324 520h622l-123 711q-4 25 -5 44t-3 34 q-2 16 -2 28h-4l-14 -28q-8 -14 -18.5 -35t-22.5 -43zM578 1628l307 213h53l215 -213q-10 -20 -25.5 -34.5t-35.5 -18.5l-197 172l-270 -178q-18 8 -31.5 22.5t-15.5 36.5z" />
<glyph unicode="&#xc3;" horiz-adv-x="1310" d="M-92 8l872 1458q6 2 15 4q8 2 17 3.5t24 1.5q23 0 38 -5q8 -2 13 -4l254 -1458q-6 -2 -15 -4q-20 -4 -45 -4q-18 0 -34 4q-8 2 -13 4l-73 418h-691l-252 -418l-16 -4q-20 -4 -47 -4q-14 0 -22.5 1t-14.5 3q-8 2 -10 4zM324 520h622l-123 711q-4 25 -5 44t-3 34 q-2 16 -2 28h-4l-14 -28q-8 -14 -18.5 -35t-22.5 -43zM610 1638q12 29 35 52q18 20 47 35.5t70 17.5q39 0 68.5 -11.5t55 -25.5t50.5 -25.5t55 -11.5q23 0 39.5 9.5t28.5 19.5q14 12 24 28q45 0 60 -34q-14 -27 -37 -50q-18 -18 -48 -34.5t-71 -16.5q-39 0 -67.5 11.5 t-54 24.5t-50 24.5t-55.5 11.5q-23 0 -40.5 -10.5t-29.5 -20.5q-14 -12 -24 -28q-23 0 -37.5 9t-18.5 25z" />
<glyph unicode="&#xc4;" horiz-adv-x="1310" d="M-92 8l872 1458q6 2 15 4q8 2 17 3.5t24 1.5q23 0 38 -5q8 -2 13 -4l254 -1458q-6 -2 -15 -4q-20 -4 -45 -4q-18 0 -34 4q-8 2 -13 4l-73 418h-691l-252 -418q-6 -2 -14 -4q-20 -4 -49 -4q-14 0 -22.5 1t-14.5 3q-8 2 -10 4zM324 520h622l-123 711q-4 25 -5 44t-3 34 q-2 16 -2 28h-4l-14 -28q-8 -14 -18.5 -35t-22.5 -43zM645 1593l25 109q6 0 14 2t19.5 3t27.5 1q25 0 45 -4q8 -2 15 -2l-25 -109l-16 -4q-20 -4 -45 -4q-16 0 -26.5 1t-19.5 3q-8 2 -14 4zM948 1593l25 109q6 0 14 2q20 4 47 4q16 0 26.5 -1t18.5 -3t17 -2l-25 -109l-16 -4 q-20 -4 -47 -4q-16 0 -26.5 1t-18.5 3t-15 4z" />
<glyph unicode="&#xc5;" horiz-adv-x="1310" d="M-92 8l848 1415q-70 16 -106 68.5t-17 138.5q12 53 40.5 93t66.5 68t83 42t90 14q43 0 83 -13t68 -41t40 -69t0 -94q-18 -86 -76.5 -137t-132.5 -68l246 -1417q-6 -2 -15 -4q-20 -4 -45 -4q-14 0 -22 1t-15 3q-8 2 -10 4l-73 418h-691l-252 -418q-6 -2 -14 -4 q-20 -4 -49 -4q-14 0 -22.5 1t-14.5 3q-8 2 -10 4zM324 520h622l-123 711q-4 25 -5 44t-3 34q-2 16 -2 28h-4l-14 -28q-8 -14 -18.5 -35t-22.5 -43zM713 1630q-10 -55 15.5 -101t105.5 -46q39 0 71.5 13t57 33.5t40 47t21.5 53.5q12 57 -18.5 101.5t-110.5 44.5 q-78 0 -124 -45t-58 -101z" />
<glyph unicode="&#xc6;" horiz-adv-x="1742" d="M-104 8l1198 1467h704q6 -20 0 -47t-20 -48h-586l-125 -585h483q4 -23 -1 -48.5t-17 -46.5h-483l-129 -606h606q4 -23 -1 -48.5t-20 -45.5h-704l86 406h-547l-324 -398q-14 -4 -30.5 -6t-32.5 -2t-31.5 2t-25.5 6zM416 500h491l172 815z" />
<glyph unicode="&#xc7;" horiz-adv-x="1130" d="M166 760q82 377 254 556t450 179q84 0 145.5 -11t102.5 -24q47 -14 80 -33q0 -4 -2 -12q-4 -12 -12 -31q-6 -10 -13.5 -18t-11.5 -12q-8 -6 -12 -8q-33 14 -76 26q-37 10 -89 19.5t-118 9.5q-102 0 -192 -32t-166 -108.5t-136.5 -204.5t-101.5 -321t-34.5 -319.5 t49.5 -202.5t120.5 -106.5t180.5 -30.5q72 0 132 8t103 18q51 12 92 29q4 -2 9 -8q6 -11 12 -27q4 -23 0 -35q-2 -8 -4 -14q-43 -20 -99 -35q-47 -12 -116.5 -22t-159.5 -10l-61 -117q121 0 161.5 -47t22.5 -133q-20 -100 -90 -147.5t-187 -47.5q-41 0 -71.5 6t-53.5 17 q-25 10 -45 24q12 37 41 57q4 -2 43 -18t101 -16q72 0 118 27.5t60 95.5q25 115 -117 114h-65l-13 21l90 168q-240 23 -318.5 219t-2.5 557z" />
<glyph unicode="&#xc8;" horiz-adv-x="1138" d="M80 0l313 1475h801q4 -20 -2 -45q-4 -16 -7 -27.5t-11 -22.5h-695l-125 -585h592q2 -20 0 -45q-6 -25 -18 -48h-592l-129 -608h715q0 -10 1 -21.5t-3 -23.5q-6 -29 -19 -49h-821zM637 1841q16 20 47 34.5t59 12.5l162 -303q-27 -33 -76 -39z" />
<glyph unicode="&#xc9;" horiz-adv-x="1138" d="M80 0l313 1475h801q4 -20 -2 -45q-4 -16 -7 -27.5t-11 -22.5h-695l-125 -585h592q2 -20 0 -45q-6 -25 -18 -48h-592l-129 -608h715q0 -10 1 -21.5t-3 -23.5q-6 -29 -19 -49h-821zM659 1589l291 303q31 2 53.5 -11t32.5 -36l-317 -295q-47 6 -60 39z" />
<glyph unicode="&#xca;" horiz-adv-x="1138" d="M80 0l313 1475h801q4 -20 -2 -45q-4 -16 -7 -27.5t-11 -22.5h-695l-125 -585h592q2 -20 0 -45q-6 -25 -18 -48h-592l-129 -608h715q0 -10 1 -21.5t-3 -23.5q-6 -29 -19 -49h-821zM530 1628l308 213h53l215 -213q-10 -20 -25.5 -35.5t-36.5 -19.5l-202 174l-273 -176 q-37 14 -39 57z" />
<glyph unicode="&#xcb;" horiz-adv-x="1138" d="M80 0l313 1475h801q4 -20 -2 -45q-4 -16 -7 -27.5t-11 -22.5h-695l-125 -585h592q2 -20 0 -45q-6 -25 -18 -48h-592l-129 -608h715q0 -10 1 -21.5t-3 -23.5q-6 -29 -19 -49h-821zM612 1577l23 109q8 0 16 2q20 4 47 4q23 0 43 -4q8 -2 15 -2l-23 -109l-16 -4 q-20 -4 -45 -4q-16 0 -26.5 1t-18.5 3t-15 4zM918 1577l22 109q6 0 14 2q20 4 47 4q16 0 26.5 -1t19.5 -3q8 -2 14 -2l-23 -109l-16 -4q-20 -4 -47 -4q-29 0 -45 4q-8 2 -12 4z" />
<glyph unicode="&#xcc;" horiz-adv-x="530" d="M82 8l309 1458q6 2 15 4q16 4 40 5q23 0 39 -5q8 -2 13 -4l-310 -1458q-6 -2 -14 -4t-17.5 -3t-23.5 -1q-16 0 -25.5 1t-15.5 3q-8 2 -10 4zM322 1841q16 20 46.5 34.5t59.5 12.5l162 -303q-27 -33 -76 -39z" />
<glyph unicode="&#xcd;" horiz-adv-x="530" d="M82 8l309 1458q6 2 15 4q16 4 40 5q23 0 39 -5q8 -2 13 -4l-310 -1458q-6 -2 -14 -4t-17.5 -3t-23.5 -1q-16 0 -25.5 1t-15.5 3q-8 2 -10 4zM324 1589l290 303q31 2 53.5 -11t32.5 -36l-317 -295q-47 6 -59 39z" />
<glyph unicode="&#xce;" horiz-adv-x="530" d="M82 8l309 1458q6 2 15 4q16 4 40 5q23 0 39 -5q8 -2 13 -4l-310 -1458q-6 -2 -14 -4t-17.5 -3t-23.5 -1q-16 0 -25.5 1t-15.5 3q-8 2 -10 4zM190 1628l308 213h53l215 -213q-10 -20 -22.5 -35.5t-32.5 -19.5l-203 174l-272 -176q-18 8 -30.5 21.5t-15.5 35.5z" />
<glyph unicode="&#xcf;" horiz-adv-x="530" d="M82 8l309 1458q6 2 15 4q16 4 40 5q23 0 39 -5q8 -2 13 -4l-310 -1458q-6 -2 -14 -4t-17.5 -3t-23.5 -1q-16 0 -25.5 1t-15.5 3q-8 2 -10 4zM256 1577l23 109q8 0 16 2q20 4 47 4q16 0 26.5 -1t18.5 -3t14 -2l-22 -109q-8 -2 -17 -4q-20 -4 -47 -4q-16 0 -26 1t-19 3 q-8 2 -14 4zM561 1577l23 109q8 0 16 2q20 4 47 4q16 0 26.5 -1t18.5 -3t15 -2l-23 -109l-16 -4q-20 -4 -47 -4q-16 0 -26.5 1t-19.5 3q-8 2 -14 4z" />
<glyph unicode="&#xd0;" horiz-adv-x="1368" d="M66 690q-2 20 3 42t13 40h174l150 703h393q145 0 249.5 -39t163 -128t67.5 -234.5t-36 -356.5t-110.5 -349.5t-154.5 -220t-206 -114.5t-262 -33h-418l148 690h-174zM219 94h289q117 0 214 29t174 100.5t135.5 196.5t98.5 317q41 193 36 318t-52 197.5t-132 100 t-202 27.5h-288l-130 -608h300q2 -18 -3.5 -40.5t-13.5 -41.5h-299z" />
<glyph unicode="&#xd1;" horiz-adv-x="1425" d="M80 8l309 1458q6 2 17 4q20 4 49 5q16 0 26.5 -1t18.5 -4q8 -2 14 -4l502 -1325h4q4 33 12 76q6 35 14.5 86t22.5 111l223 1052q4 2 13 4q16 4 41 5q20 0 36 -5q8 -2 11 -4l-310 -1458l-16 -4q-20 -4 -47 -4q-16 0 -27.5 1t-19.5 3t-15 4l-497 1309h-4q-4 -25 -13 -62 q-6 -33 -15 -83t-26 -123l-221 -1041q-6 -2 -14 -4t-17.5 -3t-23.5 -1q-20 0 -37 4q-8 2 -10 4zM686 1634q12 23 35 43q18 16 47 30.5t70 14.5q39 0 68.5 -11t54 -24.5t49 -24.5t53.5 -11q23 0 41 8t33 18q16 10 28 27q16 -4 30.5 -19.5t12.5 -33.5q-4 -6 -16 -20.5 t-30.5 -28t-45 -23.5t-59.5 -10q-39 0 -67.5 11t-54.5 25.5t-49.5 25.5t-54.5 11q-23 0 -41 -10t-32 -20q-16 -12 -29 -29q-16 8 -28.5 21.5t-14.5 29.5z" />
<glyph unicode="&#xd2;" horiz-adv-x="1384" d="M137 417.5q-10 147.5 33 346.5t108.5 337t153.5 226t196.5 128t237.5 40t222.5 -46t145.5 -141.5t60.5 -241.5t-34.5 -345t-106.5 -340t-149.5 -230.5t-194 -130t-237 -40.5t-224 48t-148.5 145t-63.5 244.5zM246.5 428q9.5 -127 53.5 -206t115.5 -114.5t157.5 -35.5 q100 0 189.5 35.5t163 114.5t131 206t96.5 309q39 184 33 311.5t-48 206t-115 113.5t-165 35q-100 0 -189 -35t-163 -113.5t-132.5 -205.5t-97.5 -312q-39 -182 -29.5 -309zM778 1841q16 20 47 34.5t60 12.5l151 -289q-27 -35 -75 -36z" />
<glyph unicode="&#xd3;" horiz-adv-x="1384" d="M137 417.5q-10 147.5 33 346.5t108.5 337t153.5 226t196.5 128t237.5 40t222.5 -46t145.5 -141.5t60.5 -241.5t-34.5 -345t-106.5 -340t-149.5 -230.5t-194 -130t-237 -40.5t-224 48t-148.5 145t-63.5 244.5zM246.5 428q9.5 -127 53.5 -206t115.5 -114.5t157.5 -35.5 q100 0 189.5 35.5t163 114.5t131 206t96.5 309q39 184 33 311.5t-48 206t-115 113.5t-165 35q-100 0 -189 -35t-163 -113.5t-132.5 -205.5t-97.5 -312q-39 -182 -29.5 -309zM879 1614l278 289q31 2 54.5 -11.5t33.5 -36.5l-305 -278q-49 6 -61 37z" />
<glyph unicode="&#xd4;" horiz-adv-x="1384" d="M137 417.5q-10 147.5 33 346.5t108.5 337t153.5 226t196.5 128t237.5 40t222.5 -46t145.5 -141.5t60.5 -241.5t-34.5 -345t-106.5 -340t-149.5 -230.5t-194 -130t-237 -40.5t-224 48t-148.5 145t-63.5 244.5zM246.5 428q9.5 -127 53.5 -206t115.5 -114.5t157.5 -35.5 q100 0 189.5 35.5t163 114.5t131 206t96.5 309q39 184 33 311.5t-48 206t-115 113.5t-165 35q-100 0 -189 -35t-163 -113.5t-132.5 -205.5t-97.5 -312q-39 -182 -29.5 -309zM621 1628l307 213h53l215 -213q-10 -20 -22.5 -35.5t-32.5 -19.5l-203 174l-272 -176 q-18 8 -30.5 21.5t-14.5 35.5z" />
<glyph unicode="&#xd5;" horiz-adv-x="1384" d="M137 417.5q-10 147.5 33 346.5t108.5 337t153.5 226t196.5 128t237.5 40t222.5 -46t145.5 -141.5t60.5 -241.5t-34.5 -345t-106.5 -340t-149.5 -230.5t-194 -130t-237 -40.5t-224 48t-148.5 145t-63.5 244.5zM246.5 428q9.5 -127 53.5 -206t115.5 -114.5t157.5 -35.5 q100 0 189.5 35.5t163 114.5t131 206t96.5 309q39 184 33 311.5t-48 206t-115 113.5t-165 35q-100 0 -189 -35t-163 -113.5t-132.5 -205.5t-97.5 -312q-39 -182 -29.5 -309zM668 1671q10 25 30 45q16 16 44 30.5t69 16.5q39 2 68.5 -8t56.5 -22.5t51 -22.5t53 -10 q23 0 41.5 10t32.5 21q16 12 29 28q33 -10 37 -47q-10 -25 -31 -45q-16 -16 -44 -31.5t-69 -17.5q-37 -2 -66.5 8t-56 23.5t-51 23.5t-55.5 10q-23 -2 -42.5 -11t-31.5 -19q-16 -12 -26 -29q-33 18 -39 47z" />
<glyph unicode="&#xd6;" horiz-adv-x="1384" d="M137 417.5q-10 147.5 33 346.5t108.5 337t153.5 226t196.5 128t237.5 40t222.5 -46t145.5 -141.5t60.5 -241.5t-34.5 -345t-106.5 -340t-149.5 -230.5t-194 -130t-237 -40.5t-224 48t-148.5 145t-63.5 244.5zM246.5 428q9.5 -127 53.5 -206t115.5 -114.5t157.5 -35.5 q100 0 189.5 35.5t163 114.5t131 206t96.5 309q39 184 33 311.5t-48 206t-115 113.5t-165 35q-100 0 -189 -35t-163 -113.5t-132.5 -205.5t-97.5 -312q-39 -182 -29.5 -309zM688 1618l23 108q8 0 16 3q20 4 47 4q16 0 26.5 -1t18.5 -3t15 -3l-23 -108l-16 -4q-20 -4 -47 -4 q-16 0 -26.5 1t-19.5 3q-8 2 -14 4zM993 1618l23 108q8 0 16 3q20 4 47 4q25 0 45 -4q8 -2 15 -3l-23 -108l-16 -4q-20 -4 -47 -4q-16 0 -26.5 1t-18.5 3t-15 4z" />
<glyph unicode="&#xd7;" horiz-adv-x="933" d="M106 354l285 238l-184 237q2 6 8 13q4 4 11 10t18 14q14 14 30 23l13 6l186 -236l289 236q4 -2 10 -6t21 -23q14 -18 16 -24l4 -13l-287 -237l187 -238q-2 -6 -8 -12q-4 -4 -11.5 -11t-17.5 -14q-14 -14 -31 -22l-12 -6l-189 235l-286 -235q-4 2 -11 6q-14 8 -20 22 q-8 6 -11 13.5t-5 11.5z" />
<glyph unicode="&#xd8;" horiz-adv-x="1382" d="M27 -51l174 223q-53 98 -63.5 244.5t32.5 347.5q43 199 108.5 337t153.5 226t196.5 128t237.5 40q182 0 291 -92l125 162q45 -8 76 -43l-144 -183q66 -96 79.5 -248.5t-33.5 -369.5q-43 -199 -106.5 -340t-149.5 -230.5t-194 -130t-237 -40.5q-211 0 -323 122l-152 -194 q-23 4 -41 14t-30 27zM245.5 464.5q2.5 -114.5 30.5 -192.5l816 1047q-45 43 -103.5 63.5t-130.5 20.5q-100 0 -189 -35t-163 -113.5t-132.5 -205.5t-97.5 -312q-33 -158 -30.5 -272.5zM319 190q45 -63 110.5 -90.5t143.5 -27.5q100 0 189.5 35.5t163 114.5t131 206 t96.5 309q39 180 34 304t-44 204z" />
<glyph unicode="&#xd9;" horiz-adv-x="1368" d="M159.5 260q-18.5 90 6.5 207l213 999q6 2 14 4t17.5 3.5t23.5 1.5q25 0 41 -5q8 -2 12 -4l-215 -1013q-39 -182 39 -281.5t258 -99.5t300 99t159 282l215 1013q6 2 14 4q16 4 39 5q23 0 39 -5q8 -2 13 -4l-213 -999q-49 -236 -199 -361.5t-369 -125.5q-109 0 -194.5 32.5 t-140 95t-73 152.5zM719 1841q16 20 47 34.5t59 12.5l150 -284q-25 -33 -76 -39z" />
<glyph unicode="&#xda;" horiz-adv-x="1368" d="M159.5 260q-18.5 90 6.5 207l213 999q6 2 14 4t17.5 3.5t23.5 1.5q25 0 41 -5q8 -2 12 -4l-215 -1013q-39 -182 39 -281.5t258 -99.5t300 99t159 282l215 1013q6 2 14 4q16 4 39 5q23 0 39 -5q8 -2 13 -4l-213 -999q-49 -236 -199 -361.5t-369 -125.5q-109 0 -194.5 32.5 t-140 95t-73 152.5zM762 1589l291 303q31 2 53 -11t33 -36l-318 -295q-47 6 -59 39z" />
<glyph unicode="&#xdb;" horiz-adv-x="1368" d="M159.5 260q-18.5 90 6.5 207l213 999q6 2 14 4t17.5 3.5t23.5 1.5q25 0 41 -5q8 -2 12 -4l-215 -1013q-39 -182 39 -281.5t258 -99.5t300 99t159 282l215 1013q6 2 14 4q16 4 39 5q23 0 39 -5q8 -2 13 -4l-213 -999q-49 -236 -199 -361.5t-369 -125.5q-109 0 -194.5 32.5 t-140 95t-73 152.5zM616 1628l308 213h53l215 -213q-10 -20 -21.5 -35.5t-31.5 -19.5l-203 174l-272 -176q-18 8 -32 21.5t-16 35.5z" />
<glyph unicode="&#xdc;" horiz-adv-x="1368" d="M159.5 260q-18.5 90 6.5 207l213 999q6 2 14 4t17.5 3.5t23.5 1.5q25 0 41 -5q8 -2 12 -4l-215 -1013q-39 -182 39 -281.5t258 -99.5t300 99t159 282l215 1013q6 2 14 4q16 4 39 5q23 0 39 -5q8 -2 13 -4l-213 -999q-49 -236 -199 -361.5t-369 -125.5q-109 0 -194.5 32.5 t-140 95t-73 152.5zM678 1610l22 108q8 0 17 2q20 4 47 4q16 0 26.5 -1t18.5 -3t14 -2l-22 -108q-8 -2 -17 -4q-20 -4 -47 -4q-16 0 -26.5 1t-18.5 3t-14 4zM983 1610l23 108q8 0 16 2q20 4 47 4q16 0 26.5 -1t18.5 -3t14 -2l-22 -108l-16 -4q-20 -4 -48 -4q-16 0 -26 1 t-19 3q-8 2 -14 4z" />
<glyph unicode="&#xdd;" horiz-adv-x="1257" d="M225 1466q8 2 19 4q10 2 21 3.5t28 1.5q20 0 37 -5q8 -2 12 -4l301 -731l625 731q6 2 16 4q20 4 53 5q27 0 47 -5q8 -2 15 -4l-719 -843l-131 -615q-6 -2 -14 -4q-20 -4 -41 -4q-23 0 -39 4q-8 2 -13 4l129 613zM725 1589l291 303q31 2 53.5 -11t32.5 -36l-318 -295 q-47 6 -59 39z" />
<glyph unicode="&#xde;" horiz-adv-x="1236" d="M82 8l309 1458q4 2 12 4q16 4 43 5q25 0 41 -5q8 -2 11 -4l-62 -288h400q96 0 165.5 -34t110.5 -93.5t52.5 -140.5t-9.5 -175q-41 -186 -171 -288.5t-325 -102.5h-399l-72 -336q-4 -2 -12 -4q-16 -4 -43 -4q-16 0 -25.5 1t-15.5 3q-8 2 -10 4zM281 440h395 q145 0 240.5 84t127.5 234q33 154 -27.5 238.5t-205.5 84.5h-395z" />
<glyph unicode="&#xdf;" horiz-adv-x="1167" d="M47 8l240 1131q43 205 163.5 301t319.5 96q98 0 164.5 -29.5t103.5 -79t47.5 -113t-4.5 -128.5q-8 -41 -21 -75t-26.5 -59.5t-24 -42t-12.5 -20.5q-70 -2 -127 -24q-49 -18 -95 -58.5t-62 -111.5q-12 -55 9 -95.5t59 -72t82 -64.5t80 -75t53.5 -100t-1.5 -142 q-29 -135 -127 -200.5t-258 -65.5q-53 0 -91 5t-62 13q-29 8 -47 18q2 23 12 45.5t27 34.5q27 -10 74.5 -19t88.5 -9q129 0 198 56t85 140q14 70 -5.5 117t-55 84t-80.5 67.5t-82 67.5t-56.5 86t-3.5 121q18 90 69.5 139t104.5 74q63 29 140 37q4 4 20.5 38.5t26.5 88.5 q10 51 5 99t-29.5 85t-71 58.5t-117.5 21.5q-166 0 -253 -81t-118 -228l-239 -1131q-4 -2 -13 -4q-16 -4 -41 -4q-23 0 -39 4q-8 2 -10 4z" />
<glyph unicode="&#xe0;" horiz-adv-x="1134" d="M85 291.5q-5 109.5 28 267.5q33 156 83 260.5t115.5 166t144.5 87t169 25.5q119 0 189.5 -50.5t103.5 -136.5l38 162q4 2 13 4q6 2 14 3t21 1q14 0 22 -1t14 -3t11 -4l-226 -1065q-4 -2 -12 -4q-16 -4 -33 -4q-10 0 -17 1t-13 3q-8 2 -13 4l27 158q-66 -86 -159 -136 t-218 -50q-90 0 -156.5 31.5t-103.5 101t-42 179zM186 322.5q-2 -89.5 24 -145.5t79 -81.5t137 -25.5q72 0 136.5 30.5t114.5 78.5t84 108.5t46 122.5l55 260q12 59 4 119.5t-36.5 108.5t-79 79t-121.5 31q-84 0 -148.5 -26t-115 -82t-87 -145t-63.5 -216t-29 -216.5z M541 1538q16 20 45.5 34.5t58.5 12.5l164 -303q-27 -33 -76 -39z" />
<glyph unicode="&#xe1;" horiz-adv-x="1134" d="M85 291.5q-5 109.5 28 267.5q33 156 83 260.5t115.5 166t144.5 87t169 25.5q119 0 189.5 -50.5t103.5 -136.5l38 162q4 2 13 4q6 2 14 3t21 1q14 0 22 -1t14 -3t11 -4l-226 -1065q-4 -2 -12 -4q-16 -4 -33 -4q-10 0 -17 1t-13 3q-8 2 -13 4l27 158q-66 -86 -159 -136 t-218 -50q-90 0 -156.5 31.5t-103.5 101t-42 179zM186 322.5q-2 -89.5 24 -145.5t79 -81.5t137 -25.5q72 0 136.5 30.5t114.5 78.5t84 108.5t46 122.5l55 260q12 59 4 119.5t-36.5 108.5t-79 79t-121.5 31q-84 0 -148.5 -26t-115 -82t-87 -145t-63.5 -216t-29 -216.5z M547 1284l293 303q29 2 52 -11t34 -36l-320 -295q-47 6 -59 39z" />
<glyph unicode="&#xe2;" horiz-adv-x="1134" d="M85 291.5q-5 109.5 28 267.5q33 156 83 260.5t115.5 166t144.5 87t169 25.5q119 0 189.5 -50.5t103.5 -136.5l38 162q4 2 13 4q6 2 14 3t21 1q14 0 22 -1t14 -3t11 -4l-226 -1065q-4 -2 -12 -4q-16 -4 -33 -4q-10 0 -17 1t-13 3q-8 2 -13 4l27 158q-66 -86 -159 -136 t-218 -50q-90 0 -156.5 31.5t-103.5 101t-42 179zM186 322.5q-2 -89.5 24 -145.5t79 -81.5t137 -25.5q72 0 136.5 30.5t114.5 78.5t84 108.5t46 122.5l55 260q12 59 4 119.5t-36.5 108.5t-79 79t-121.5 31q-84 0 -148.5 -26t-115 -82t-87 -145t-63.5 -216t-29 -216.5z M430 1284l301 211h51l211 -211q-10 -16 -24.5 -31.5t-34.5 -19.5l-189 170l-270 -172q-39 16 -45 53z" />
<glyph unicode="&#xe3;" horiz-adv-x="1134" d="M85 291.5q-5 109.5 28 267.5q33 156 83 260.5t115.5 166t144.5 87t169 25.5q119 0 189.5 -50.5t103.5 -136.5l38 162q4 2 13 4q6 2 14 3t21 1q14 0 22 -1t14 -3t11 -4l-226 -1065q-4 -2 -12 -4q-16 -4 -33 -4q-10 0 -17 1t-13 3q-8 2 -13 4l27 158q-66 -86 -159 -136 t-218 -50q-90 0 -156.5 31.5t-103.5 101t-42 179zM186 322.5q-2 -89.5 24 -145.5t79 -81.5t137 -25.5q72 0 136.5 30.5t114.5 78.5t84 108.5t46 122.5l55 260q12 59 4 119.5t-36.5 108.5t-79 79t-121.5 31q-84 0 -148.5 -26t-115 -82t-87 -145t-63.5 -216t-29 -216.5z M479 1362q4 4 15.5 18.5t29 29.5t43 27.5t60.5 12.5q39 0 67.5 -11.5t54 -24.5t49 -24.5t54.5 -11.5q43 0 67.5 19.5t34.5 34.5q35 -10 35 -50q-2 -4 -12 -18t-27.5 -28.5t-43 -26t-58.5 -11.5q-39 0 -68.5 11.5t-55.5 25t-50.5 24.5t-52.5 11q-23 0 -41.5 -9t-32.5 -20 q-16 -12 -31 -28q-18 10 -25.5 21.5t-11.5 27.5z" />
<glyph unicode="&#xe4;" horiz-adv-x="1134" d="M85 291.5q-5 109.5 28 267.5q33 156 83 260.5t115.5 166t144.5 87t169 25.5q119 0 189.5 -50.5t103.5 -136.5l38 162q4 2 13 4q6 2 14 3t21 1q14 0 22 -1t14 -3t11 -4l-226 -1065q-4 -2 -12 -4q-16 -4 -33 -4q-10 0 -17 1t-13 3q-8 2 -13 4l27 158q-66 -86 -159 -136 t-218 -50q-90 0 -156.5 31.5t-103.5 101t-42 179zM186 322.5q-2 -89.5 24 -145.5t79 -81.5t137 -25.5q72 0 136.5 30.5t114.5 78.5t84 108.5t46 122.5l55 260q12 59 4 119.5t-36.5 108.5t-79 79t-121.5 31q-84 0 -148.5 -26t-115 -82t-87 -145t-63.5 -216t-29 -216.5z M510 1333l25 109q6 0 14 2q20 4 47 4q16 0 26.5 -1t18.5 -3t16 -2l-24 -109q-8 -2 -17 -4q-20 -4 -47 -4q-16 0 -26.5 1t-18.5 3t-14 4zM815 1333l25 109q6 0 14 2q20 4 47 4q16 0 26.5 -1t18.5 -3t17 -2l-25 -109l-16 -4q-20 -4 -48 -4q-16 0 -26 1t-19 3q-8 2 -14 4z" />
<glyph unicode="&#xe5;" horiz-adv-x="1134" d="M85 291.5q-5 109.5 28 267.5q33 156 83 260.5t115.5 166t144.5 87t169 25.5q119 0 189.5 -50.5t103.5 -136.5l38 162q4 2 13 4q6 2 14 3t21 1q14 0 22 -1t14 -3t11 -4l-226 -1065q-4 -2 -12 -4q-16 -4 -33 -4q-10 0 -17 1t-13 3q-8 2 -13 4l27 158q-66 -86 -159 -136 t-218 -50q-90 0 -156.5 31.5t-103.5 101t-42 179zM186 322.5q-2 -89.5 24 -145.5t79 -81.5t137 -25.5q72 0 136.5 30.5t114.5 78.5t84 108.5t46 122.5l55 260q12 59 4 119.5t-36.5 108.5t-79 79t-121.5 31q-84 0 -148.5 -26t-115 -82t-87 -145t-63.5 -216t-29 -216.5z M520 1427q23 98 99.5 148.5t160.5 50.5q41 0 78 -12t62.5 -38t36 -62.5t-0.5 -86.5q-20 -98 -96 -149t-168 -51t-142 51t-30 149zM598 1427q-10 -51 15.5 -91t95.5 -40q72 0 116 41t54 90q10 53 -16.5 91t-98.5 38q-70 0 -113 -38.5t-53 -90.5z" />
<glyph unicode="&#xe6;" horiz-adv-x="1648" d="M86 293.5q-6 109.5 27 267.5q33 156 84 259.5t116.5 165t141 87t159.5 25.5q111 0 171.5 -39t91.5 -125l34 139q4 2 13 4q6 2 14 3t20 1q20 0 33 -4q6 -2 10 -4l-28 -141q129 166 319 166q174 0 238.5 -106.5t28.5 -278.5q-10 -41 -20.5 -77t-20.5 -61q-10 -31 -23 -53 h-610q-39 -231 10 -340.5t195 -109.5q57 0 103 11t81 26q39 16 69 36q35 -25 25 -73q-35 -27 -82 -47q-41 -16 -98.5 -30.5t-130.5 -14.5q-109 0 -168.5 46t-81.5 128l-31 -146q-4 -2 -12 -4q-16 -4 -29 -4q-10 0 -17 1t-13 3q-8 2 -13 4l19 139q-63 -86 -141 -126.5 t-193 -40.5q-84 0 -147.5 31.5t-100.5 102t-43 180zM214 177.5q52 -107.5 204 -107.5q72 0 131 30.5t103 78.5t73 108.5t41 122.5l55 260q12 59 7 119.5t-28.5 108.5t-67.5 79t-111 31q-152 0 -252.5 -107.5t-153.5 -361.5t-1 -361.5zM903 606h522q4 10 11 29q4 14 11 36.5 t13 53.5q12 57 11 108.5t-20 90.5t-61 62.5t-110 23.5q-59 0 -114.5 -21.5t-104.5 -70t-90 -125t-68 -187.5z" />
<glyph unicode="&#xe7;" horiz-adv-x="905" d="M111 563q59 274 195 404.5t345 130.5q61 0 106.5 -7.5t73.5 -17.5q35 -10 58 -24q-4 -23 -17.5 -44.5t-35.5 -35.5q-20 10 -48 18q-23 6 -57.5 12.5t-79.5 6.5q-180 0 -286.5 -115t-155.5 -348q-100 -467 254 -467q47 0 85 6t66 14q33 8 58 23q16 -10 24.5 -33t3.5 -47 q-31 -16 -69 -29q-35 -10 -84 -20t-113 -10l-49 -127q121 0 163 -50.5t25 -134.5q-23 -98 -89 -139t-183 -41q-41 0 -71.5 6t-53.5 17q-25 10 -45 24q12 37 41 57q4 -2 43 -18t100 -16q72 0 118 26.5t61 93.5q25 111 -119 111h-66l-10 21l63 174q-174 25 -239 176t-12 403z " />
<glyph unicode="&#xe8;" horiz-adv-x="1034" d="M86 322.5q-6 109.5 27 248.5q61 268 199.5 397.5t324.5 129.5q90 0 155.5 -30t104.5 -83t50 -126t-7 -159q-10 -47 -20.5 -83.5t-20.5 -61.5q-10 -29 -20 -49h-676q-39 -219 22.5 -325.5t227.5 -106.5q59 0 111 11t89 28q43 16 78 39q14 -12 23.5 -34t5.5 -46 q-37 -27 -86 -47q-41 -16 -103.5 -30.5t-142.5 -14.5q-104 0 -179 39.5t-116 116.5t-47 186.5zM221 590h588q2 4 15.5 38t25.5 95q12 57 6 108.5t-31.5 91.5t-74 63.5t-121.5 23.5q-141 0 -247 -99.5t-161 -320.5zM528 1540q16 20 47 34.5t60 12.5l162 -303q-27 -33 -76 -39 z" />
<glyph unicode="&#xe9;" horiz-adv-x="1034" d="M86 322.5q-6 109.5 27 248.5q61 268 199.5 397.5t324.5 129.5q90 0 155.5 -30t104.5 -83t50 -126t-7 -159q-10 -47 -20.5 -83.5t-20.5 -61.5q-10 -29 -20 -49h-676q-39 -219 22.5 -325.5t227.5 -106.5q59 0 111 11t89 28q43 16 78 39q14 -12 23.5 -34t5.5 -46 q-37 -27 -86 -47q-41 -16 -103.5 -30.5t-142.5 -14.5q-104 0 -179 39.5t-116 116.5t-47 186.5zM221 590h588q2 4 15.5 38t25.5 95q12 57 6 108.5t-31.5 91.5t-74 63.5t-121.5 23.5q-141 0 -247 -99.5t-161 -320.5zM530 1284l293 303q29 2 52.5 -11t33.5 -36l-319 -295 q-47 6 -60 39z" />
<glyph unicode="&#xea;" horiz-adv-x="1034" d="M86 322.5q-6 109.5 27 248.5q61 268 199.5 397.5t324.5 129.5q90 0 155.5 -30t104.5 -83t50 -126t-7 -159q-10 -47 -20.5 -83.5t-20.5 -61.5q-10 -29 -20 -49h-676q-39 -219 22.5 -325.5t227.5 -106.5q59 0 111 11t89 28q43 16 78 39q14 -12 23.5 -34t5.5 -46 q-37 -27 -86 -47q-41 -16 -103.5 -30.5t-142.5 -14.5q-104 0 -179 39.5t-116 116.5t-47 186.5zM221 590h588q2 4 15.5 38t25.5 95q12 57 6 108.5t-31.5 91.5t-74 63.5t-121.5 23.5q-141 0 -247 -99.5t-161 -320.5zM408 1286l299 211h51l211 -211q-10 -16 -24.5 -31.5 t-35.5 -19.5l-190 170l-264 -172q-41 16 -47 53z" />
<glyph unicode="&#xeb;" horiz-adv-x="1034" d="M86 322.5q-6 109.5 27 248.5q61 268 199.5 397.5t324.5 129.5q90 0 155.5 -30t104.5 -83t50 -126t-7 -159q-10 -47 -20.5 -83.5t-20.5 -61.5q-10 -29 -20 -49h-676q-39 -219 22.5 -325.5t227.5 -106.5q59 0 111 11t89 28q43 16 78 39q14 -12 23.5 -34t5.5 -46 q-37 -27 -86 -47q-41 -16 -103.5 -30.5t-142.5 -14.5q-104 0 -179 39.5t-116 116.5t-47 186.5zM221 590h588q2 4 15.5 38t25.5 95q12 57 6 108.5t-31.5 91.5t-74 63.5t-121.5 23.5q-141 0 -247 -99.5t-161 -320.5zM481 1307l23 108q6 0 14 2q20 4 47 4q16 0 26.5 -1t18.5 -3 t17 -2l-23 -108l-16 -4q-20 -4 -47 -5q-16 0 -26.5 1t-18.5 4q-8 2 -15 4zM786 1307l23 108q6 0 14 2q20 4 47 4q16 0 26.5 -1t18.5 -3t17 -2l-23 -108l-16 -4q-20 -4 -47 -5q-16 0 -26.5 1t-18.5 4q-8 2 -15 4z" />
<glyph unicode="&#xec;" horiz-adv-x="471" d="M53 8l226 1061q4 2 12 4q16 4 41 4q23 0 39 -4q8 -2 10 -4l-225 -1061q-4 -2 -13 -4q-16 -4 -41 -4q-23 0 -39 4q-8 2 -10 4zM215 1544q16 20 47 34.5t60 12.5l163 -303q-27 -33 -75 -39z" />
<glyph unicode="&#xed;" horiz-adv-x="471" d="M53 8l226 1061q4 2 12 4q16 4 41 4q23 0 39 -4q8 -2 10 -4l-225 -1061q-4 -2 -13 -4q-16 -4 -41 -4q-23 0 -39 4q-8 2 -10 4zM248 1284l293 303q29 2 52 -11t34 -36l-320 -295q-47 6 -59 39z" />
<glyph unicode="&#xee;" horiz-adv-x="471" d="M53 8l226 1061q4 2 12 4q16 4 41 4q23 0 39 -4q8 -2 10 -4l-225 -1061q-4 -2 -13 -4q-16 -4 -41 -4q-23 0 -39 4q-8 2 -10 4zM96 1286l287 211h51l225 -211q-10 -16 -24 -31.5t-35 -19.5l-197 170l-268 -172q-33 14 -39 53z" />
<glyph unicode="&#xef;" horiz-adv-x="471" d="M53 8l226 1061q4 2 12 4q16 4 41 4q23 0 39 -4q8 -2 10 -4l-225 -1061q-4 -2 -13 -4q-16 -4 -41 -4q-23 0 -39 4q-8 2 -10 4zM164 1319l22 108q8 2 17 5q20 4 47 4q16 0 26.5 -1t18.5 -3t14 -5l-22 -108q-8 -2 -17 -4q-8 -2 -19 -2h-28q-35 0 -45 2q-8 2 -14 4zM469 1319 l23 108q8 2 16 5q20 4 47 4q16 0 26.5 -1t18.5 -3t14 -5l-22 -108q-8 -2 -17 -4q-8 -2 -19 -2h-28q-35 0 -45 2q-8 2 -14 4z" />
<glyph unicode="&#xf0;" horiz-adv-x="1134" d="M109 539q31 143 80 242.5t114.5 158.5t146 86t173.5 27q111 0 192.5 -52.5t110.5 -134.5q2 154 -36 253.5t-118 180.5l-240 -131q-16 10 -26 27.5t-8 36.5l211 119q-100 78 -248 108q0 45 37 76q176 -33 303 -131l174 96q33 -25 31 -69l-148 -80q113 -117 152 -298.5 t-15 -424.5q-39 -186 -94 -311t-127 -200t-161 -106.5t-193 -31.5q-199 0 -286 135t-25 424zM183 300q5 -87 37 -139t86 -73.5t126 -21.5t136.5 21.5t118.5 73.5t96 139t71 216q27 129 17.5 215t-45 138.5t-93 74t-123.5 21.5q-72 0 -134 -21.5t-112.5 -74t-90.5 -138.5 t-66 -215q-29 -129 -24 -216z" />
<glyph unicode="&#xf1;" d="M47 8l225 1061q6 2 15 4q16 4 39 4q20 0 36 -4q8 -2 13 -4l-33 -158q84 88 174 137.5t209 49.5q74 0 129 -23.5t90 -65.5t46 -102.5t-3 -134.5l-162 -764q-6 -2 -14 -4q-16 -4 -39 -4t-39 4q-8 2 -10 4l162 762q27 123 -22.5 181.5t-172.5 58.5q-98 0 -200.5 -60.5 t-176.5 -171.5l-163 -770q-6 -2 -15 -4q-16 -4 -39 -4q-14 0 -22 1t-15 3q-8 2 -12 4zM471 1374q12 25 33 45q16 16 45 31.5t69 15.5q39 0 69 -11t55.5 -24.5t50 -24.5t55.5 -11q23 0 40 9t32 21q16 14 28 33q18 -4 31.5 -18.5t11.5 -34.5q-12 -27 -35 -47 q-18 -16 -47.5 -30.5t-70.5 -14.5q-39 0 -68 11t-53.5 25.5t-49 25.5t-55.5 11q-23 0 -41 -11t-32 -23q-16 -14 -29 -33q-18 8 -29.5 22.5t-9.5 32.5z" />
<glyph unicode="&#xf2;" horiz-adv-x="1101" d="M86 298.5q-6 110.5 27 262.5t86 255.5t121.5 165.5t151.5 89t173 27q100 0 173 -33t114 -102.5t48 -179t-26 -261.5t-85 -256t-121.5 -167.5t-152.5 -91t-175 -27.5q-100 0 -173 33.5t-114 104t-47 181zM187 312.5q3 -91.5 33 -146.5t84 -77.5t128 -22.5q66 0 129.5 22.5 t117.5 77.5t99 146.5t74 226.5t25.5 226t-33 146.5t-83.5 78t-128 22.5q-66 0 -129.5 -22.5t-118.5 -78t-99 -146.5t-73 -226t-26 -226.5zM506 1540q16 20 47 34.5t59 12.5l162 -303q-27 -33 -76 -39z" />
<glyph unicode="&#xf3;" horiz-adv-x="1101" d="M86 298.5q-6 110.5 27 262.5t86 255.5t121.5 165.5t151.5 89t173 27q100 0 173 -33t114 -102.5t48 -179t-26 -261.5t-85 -256t-121.5 -167.5t-152.5 -91t-175 -27.5q-100 0 -173 33.5t-114 104t-47 181zM187 312.5q3 -91.5 33 -146.5t84 -77.5t128 -22.5q66 0 129.5 22.5 t117.5 77.5t99 146.5t74 226.5t25.5 226t-33 146.5t-83.5 78t-128 22.5q-66 0 -129.5 -22.5t-118.5 -78t-99 -146.5t-73 -226t-26 -226.5zM526 1284l293 303q29 2 52.5 -11t33.5 -36l-319 -295q-47 6 -60 39z" />
<glyph unicode="&#xf4;" horiz-adv-x="1101" d="M86 298.5q-6 110.5 27 262.5t86 255.5t121.5 165.5t151.5 89t173 27q100 0 173 -33t114 -102.5t48 -179t-26 -261.5t-85 -256t-121.5 -167.5t-152.5 -91t-175 -27.5q-100 0 -173 33.5t-114 104t-47 181zM187 312.5q3 -91.5 33 -146.5t84 -77.5t128 -22.5q66 0 129.5 22.5 t117.5 77.5t99 146.5t74 226.5t25.5 226t-33 146.5t-83.5 78t-128 22.5q-66 0 -129.5 -22.5t-118.5 -78t-99 -146.5t-73 -226t-26 -226.5zM406 1286l288 211h51l224 -211q-10 -16 -24.5 -31.5t-35.5 -19.5l-196 170l-269 -172q-33 14 -38 53z" />
<glyph unicode="&#xf5;" horiz-adv-x="1101" d="M86 298.5q-6 110.5 27 262.5t86 255.5t121.5 165.5t151.5 89t173 27q100 0 173 -33t114 -102.5t48 -179t-26 -261.5t-85 -256t-121.5 -167.5t-152.5 -91t-175 -27.5q-100 0 -173 33.5t-114 104t-47 181zM187 312.5q3 -91.5 33 -146.5t84 -77.5t128 -22.5q66 0 129.5 22.5 t117.5 77.5t99 146.5t74 226.5t25.5 226t-33 146.5t-83.5 78t-128 22.5q-66 0 -129.5 -22.5t-118.5 -78t-99 -146.5t-73 -226t-26 -226.5zM449 1358q12 25 34 45q18 16 46 31.5t69 15.5q39 0 68.5 -11.5t55.5 -24.5t50.5 -24.5t54.5 -11.5q23 0 41.5 9.5t32.5 21.5 q16 14 29 33q37 -12 41 -53q-12 -27 -35 -48q-18 -16 -47 -30.5t-70 -14.5q-39 0 -67.5 11.5t-54 26t-50 25.5t-55.5 11q-23 0 -41.5 -10t-32.5 -23q-16 -14 -31 -30q-38 14 -38 51z" />
<glyph unicode="&#xf6;" horiz-adv-x="1101" d="M86 298.5q-6 110.5 27 262.5t86 255.5t121.5 165.5t151.5 89t173 27q100 0 173 -33t114 -102.5t48 -179t-26 -261.5t-85 -256t-121.5 -167.5t-152.5 -91t-175 -27.5q-100 0 -173 33.5t-114 104t-47 181zM187 312.5q3 -91.5 33 -146.5t84 -77.5t128 -22.5q66 0 129.5 22.5 t117.5 77.5t99 146.5t74 226.5t25.5 226t-33 146.5t-83.5 78t-128 22.5q-66 0 -129.5 -22.5t-118.5 -78t-99 -146.5t-73 -226t-26 -226.5zM485 1331l23 109l16 4q20 4 47 4q25 0 45 -4q8 -2 15 -4l-23 -109l-16 -4q-20 -4 -47 -4q-16 0 -26.5 1t-18.5 3t-15 4zM791 1331 l22 109l16 4t19.5 3t28.5 1q23 0 43 -4q8 -2 14 -4l-23 -109l-16 -4q-20 -4 -45 -4q-16 0 -26.5 1t-18.5 3t-14 4z" />
<glyph unicode="&#xf7;" horiz-adv-x="1144" d="M154 561v13.5t4 19.5q2 16 10 33q4 6 6 10h797q2 -4 2 -10v-14.5t-2 -18.5q-8 -25 -13 -33q-4 -8 -6 -10h-796q-2 2 -2 10zM416 207l24 115q8 2 19 4q10 2 21.5 3t27.5 1q27 0 47 -4l16 -4l-24 -115q-8 -2 -17 -4q-20 -4 -49 -4t-49 4zM557 866l25 115q8 2 18 4t21.5 3 t27.5 1q27 0 47 -4q8 -2 17 -4l-25 -115q-8 -2 -18 -4t-21.5 -3t-27.5 -1t-27.5 1t-20.5 3z" />
<glyph unicode="&#xf8;" horiz-adv-x="1097" d="M35 -49l112 143q-51 70 -61 185.5t25 281.5q33 152 86 255.5t121.5 165.5t151.5 89t173 27q147 0 229 -68l109 137q23 -4 39 -14t27 -25l-123 -155q47 -70 55 -180.5t-27 -270.5q-33 -152 -85 -256t-121.5 -167.5t-152.5 -91t-175 -27.5q-137 0 -217 61l-103 -131 q-45 10 -63 41zM184 320.5q2 -89.5 29 -142.5l600 772q-33 35 -78 48.5t-104 13.5q-66 0 -129.5 -22.5t-118.5 -78t-99 -146.5t-73 -226q-29 -129 -27 -218.5zM258 115q61 -49 172 -49q66 0 129.5 22.5t117.5 77.5t99 146t74 227q25 123 26 206.5t-22 139.5z" />
<glyph unicode="&#xf9;" d="M100.5 176.5q-12.5 61.5 3.5 134.5l160 758q6 2 15 4q16 4 38 4q23 0 39 -4q8 -2 11 -4l-162 -762q-27 -123 22 -181t172 -58q96 0 199.5 60t177.5 171l164 770q6 2 14 4q16 4 39 4q20 0 37 -4q8 -2 12 -4l-225 -1061q-6 -2 -14 -4q-16 -4 -39 -4q-14 0 -22.5 1t-14.5 3 q-8 2 -12 4l33 148q-82 -86 -174.5 -131t-208.5 -45q-74 0 -129.5 24.5t-89 67.5t-46 104.5zM537 1540q16 20 46.5 34.5t59.5 12.5l162 -303q-27 -33 -76 -39z" />
<glyph unicode="&#xfa;" d="M100.5 176.5q-12.5 61.5 3.5 134.5l160 758q6 2 15 4q16 4 38 4q23 0 39 -4q8 -2 11 -4l-162 -762q-27 -123 22 -181t172 -58q96 0 199.5 60t177.5 171l164 770q6 2 14 4q16 4 39 4q20 0 37 -4q8 -2 12 -4l-225 -1061q-6 -2 -14 -4q-16 -4 -39 -4q-14 0 -22.5 1t-14.5 3 q-8 2 -12 4l33 148q-82 -86 -174.5 -131t-208.5 -45q-74 0 -129.5 24.5t-89 67.5t-46 104.5zM555 1284l293 303q29 2 52.5 -11t33.5 -36l-320 -295q-47 6 -59 39z" />
<glyph unicode="&#xfb;" d="M100.5 176.5q-12.5 61.5 3.5 134.5l160 758q6 2 15 4q16 4 38 4q23 0 39 -4q8 -2 11 -4l-162 -762q-27 -123 22 -181t172 -58q96 0 199.5 60t177.5 171l164 770q6 2 14 4q16 4 39 4q20 0 37 -4q8 -2 12 -4l-225 -1061q-6 -2 -14 -4q-16 -4 -39 -4q-14 0 -22.5 1t-14.5 3 q-8 2 -12 4l33 148q-82 -86 -174.5 -131t-208.5 -45q-74 0 -129.5 24.5t-89 67.5t-46 104.5zM418 1286l293 213h51l219 -213q-10 -16 -24.5 -31.5t-34.5 -19.5l-197 170l-268 -172q-33 14 -39 53z" />
<glyph unicode="&#xfc;" d="M100.5 176.5q-12.5 61.5 3.5 134.5l160 758q6 2 15 4q16 4 38 4q23 0 39 -4q8 -2 11 -4l-162 -762q-27 -123 22 -181t172 -58q96 0 199.5 60t177.5 171l164 770q6 2 14 4q16 4 39 4q20 0 37 -4q8 -2 12 -4l-225 -1061q-6 -2 -14 -4q-16 -4 -39 -4q-14 0 -22.5 1t-14.5 3 q-8 2 -12 4l33 148q-82 -86 -174.5 -131t-208.5 -45q-74 0 -129.5 24.5t-89 67.5t-46 104.5zM492 1335l22 109l16 4q20 4 48 4q25 0 45 -4q8 -2 14 -4l-23 -109l-16 -4t-20.5 -2h-26.5q-35 0 -45 2q-8 2 -14 4zM797 1335l22 109q6 2 15 4q20 4 47 4q16 0 26.5 -1t18.5 -3 t14 -4l-22 -109q-8 -2 -17 -4q-8 -2 -19.5 -2h-27.5h-27.5t-17.5 2q-8 2 -12 4z" />
<glyph unicode="&#xfd;" d="M-20 -457q4 23 15 44.5t32 33.5q33 -12 69 -20q33 -8 77 -14.5t93 -6.5q96 0 169 19.5t128 70.5t96 142.5t72 232.5l25 111q-82 -86 -172 -131t-207 -45q-164 0 -234.5 94t-38.5 248l160 747q6 2 15 4q16 4 38 4q23 0 39 -4q8 -2 11 -4l-162 -762q-27 -123 22 -181 t172 -58q96 0 199.5 60t177.5 171l164 770q6 2 14 4q16 4 39 4q20 0 37 -4q8 -2 12 -4l-217 -1024q-31 -141 -71.5 -245.5t-106 -174t-161 -103.5t-230.5 -34q-66 0 -118 8t-87 19q-41 12 -71 28zM557 1266l285 297q29 2 52.5 -10.5t31.5 -34.5l-312 -289q-49 6 -57 37z" />
<glyph unicode="&#xfe;" horiz-adv-x="1140" d="M-59 -494l430 2022q4 2 12 4q16 4 39 4t39 -4q8 -2 12 -4l-131 -610q66 84 155 132t214 48q92 0 159.5 -32t104.5 -100.5t42 -179t-28 -266.5q-33 -158 -83 -261t-115.5 -165.5t-145.5 -88t-172 -25.5q-111 0 -186.5 48t-104.5 132l-139 -654q-4 -2 -12 -4q-16 -4 -41 -4 q-23 0 -39 4q-8 2 -10 4zM231.5 288q10.5 -61 41 -109t79.5 -78.5t115 -30.5q86 0 151.5 25.5t114.5 81.5t86 145.5t64 216.5t28.5 216t-23 145t-77.5 82t-139 26q-74 0 -136.5 -30t-112.5 -77t-84 -105.5t-48 -117.5l-58 -268q-12 -61 -1.5 -122z" />
<glyph unicode="&#xff;" d="M-20 -457q4 23 15 44.5t32 33.5q33 -12 69 -20q33 -8 77 -14.5t93 -6.5q96 0 169 19.5t128 70.5t96 142.5t72 232.5l25 111q-82 -86 -172 -131t-207 -45q-164 0 -234.5 94t-38.5 248l160 747q6 2 15 4q16 4 38 4q23 0 39 -4q8 -2 11 -4l-162 -762q-27 -123 22 -181 t172 -58q96 0 199.5 60t177.5 171l164 770q6 2 14 4q16 4 39 4q20 0 37 -4q8 -2 12 -4l-217 -1024q-31 -141 -71.5 -245.5t-106 -174t-161 -103.5t-230.5 -34q-66 0 -118 8t-87 19q-41 12 -71 28zM502 1337l22 109q8 2 17 4q20 4 47 4q16 0 26.5 -1t18.5 -3t14 -4l-22 -109 q-8 -2 -17 -4q-20 -4 -47 -4q-16 0 -26.5 1t-18.5 3t-14 4zM807 1337l22 109q8 2 17 4q20 4 47 4q16 0 26.5 -1t18.5 -3t14 -4l-22 -109q-8 -2 -17 -4q-20 -4 -47 -4q-16 0 -26.5 1t-18.5 3t-14 4z" />
<glyph unicode="&#x152;" horiz-adv-x="1714" d="M139 419.5q-8 147.5 33 346.5q43 199 111.5 338t161 226t205 126t245.5 39q53 0 97 -6t75 -14h700q4 -14 -2 -48q-6 -29 -18 -47h-608l-125 -585h506q4 -10 3 -21.5t-3 -23.5q-6 -25 -19 -48h-506l-129 -608h629q4 -23 -2 -45q-6 -27 -18 -49h-723q-35 -8 -79 -14 t-100 -6q-133 0 -227 48t-146.5 146t-60.5 245.5zM241.5 426q6.5 -127 49.5 -206t119.5 -113.5t181.5 -34.5q51 0 98 8t78 20l272 1276q-29 10 -70.5 18.5t-92.5 8.5q-104 0 -196.5 -36t-169.5 -114.5t-137.5 -205.5t-99.5 -310q-39 -184 -32.5 -311z" />
<glyph unicode="&#x153;" horiz-adv-x="1689" d="M84 296q-6 110 27 261q33 152 82 255t115.5 166.5t149.5 91.5t181 28q131 0 201.5 -60.5t85.5 -197.5q76 135 176 196.5t217 61.5q178 0 246.5 -106.5t31.5 -278.5q-10 -47 -21 -86t-22 -66q-12 -33 -24 -55h-623q-39 -233 12.5 -333.5t202.5 -100.5q53 0 101.5 11 t83.5 26q41 16 73 36q16 -10 23.5 -30.5t3.5 -42.5q-37 -27 -86 -47q-41 -16 -102.5 -30.5t-139.5 -14.5q-242 0 -276 256q-72 -135 -165 -195.5t-226 -60.5q-98 0 -170 32.5t-112 103t-46 180.5zM188 312.5q2 -91.5 31 -146.5t81 -77.5t124 -22.5t130 23.5t105.5 78.5 t85 146.5t66.5 228.5q29 135 31 226t-22.5 144.5t-73.5 76t-121 22.5t-134.5 -22.5t-113.5 -78t-92 -146.5t-70 -226t-27 -226.5zM926 590h536q2 4 14.5 39t24.5 96q12 57 11 108.5t-21.5 90.5t-63.5 62.5t-112 23.5q-127 0 -230.5 -100.5t-158.5 -319.5z" />
<glyph unicode="&#x178;" horiz-adv-x="1257" d="M225 1466q8 2 19 4q10 2 21 3.5t28 1.5q20 0 37 -5q8 -2 12 -4l301 -731l625 731q6 2 16 4q20 4 53 5q27 0 47 -5q8 -2 15 -4l-719 -843l-131 -615q-6 -2 -14 -4q-20 -4 -41 -4q-23 0 -39 4q-8 2 -13 4l129 613zM625 1612l24 108q6 0 15 2q20 4 47 4q16 0 26.5 -1 t18.5 -3t16 -2l-24 -108q-8 -2 -17 -4q-20 -4 -47 -4q-16 0 -26.5 1t-18.5 3t-14 4zM930 1612l24 108q6 0 15 2q20 4 47 4q16 0 26.5 -1t18.5 -3t16 -2l-24 -108q-8 -2 -17 -4q-20 -4 -47 -4q-16 0 -26.5 1t-18.5 3t-14 4z" />
<glyph unicode="&#x2c6;" horiz-adv-x="811" d="M59 1204l308 215h53l215 -215q-10 -18 -25.5 -33.5t-36.5 -19.5l-202 174l-273 -176q-35 14 -39 55z" />
<glyph unicode="&#x2dc;" horiz-adv-x="669" d="M66 1323q20 25 45 47q23 16 54.5 31.5t72.5 15.5q39 0 65.5 -11t48 -24.5t42.5 -24.5t50 -11q23 0 41.5 9t32.5 21q16 12 31 31q16 -6 26.5 -19.5t10.5 -31.5q-18 -27 -43 -47q-23 -16 -54.5 -30.5t-72.5 -14.5q-39 0 -64.5 11t-47 24.5t-43 24.5t-50.5 11q-23 0 -41 -10 t-33 -20q-16 -14 -31 -31q-41 16 -40 49z" />
<glyph unicode="&#x2000;" horiz-adv-x="951" />
<glyph unicode="&#x2001;" horiz-adv-x="1903" />
<glyph unicode="&#x2002;" horiz-adv-x="951" />
<glyph unicode="&#x2003;" horiz-adv-x="1903" />
<glyph unicode="&#x2004;" horiz-adv-x="634" />
<glyph unicode="&#x2005;" horiz-adv-x="475" />
<glyph unicode="&#x2006;" horiz-adv-x="317" />
<glyph unicode="&#x2007;" horiz-adv-x="317" />
<glyph unicode="&#x2008;" horiz-adv-x="237" />
<glyph unicode="&#x2009;" horiz-adv-x="380" />
<glyph unicode="&#x200a;" horiz-adv-x="105" />
<glyph unicode="&#x2010;" horiz-adv-x="731" d="M152 561v13.5t4 19.5q2 16 10 33q4 6 6 10h385q2 -4 2 -10v-14.5t-2 -18.5q-8 -25 -12 -33t-6 -10h-385q-2 2 -2 10z" />
<glyph unicode="&#x2011;" horiz-adv-x="731" d="M152 561v13.5t4 19.5q2 16 10 33q4 6 6 10h385q2 -4 2 -10v-14.5t-2 -18.5q-8 -25 -12 -33t-6 -10h-385q-2 2 -2 10z" />
<glyph unicode="&#x2012;" horiz-adv-x="731" d="M152 561v13.5t4 19.5q2 16 10 33q4 6 6 10h385q2 -4 2 -10v-14.5t-2 -18.5q-8 -25 -12 -33t-6 -10h-385q-2 2 -2 10z" />
<glyph unicode="&#x2013;" horiz-adv-x="1167" d="M166 561v13.5t4 19.5q2 16 10 33q4 6 6 10h795q2 -4 2 -10v-14.5t-2 -18.5q-8 -25 -12 -33t-6 -10h-795q-2 2 -2 10z" />
<glyph unicode="&#x2014;" horiz-adv-x="1679" d="M166 561v13.5t4 19.5q2 16 10 33q4 6 6 10h1307q2 -4 2 -10v-14.5t-2 -18.5q-8 -25 -12 -33t-6 -10h-1307q-2 2 -2 10z" />
<glyph unicode="&#x2018;" horiz-adv-x="432" d="M250 1141l18 84q12 61 39 107t55 79q33 37 70 64l35 -33q-2 -2 -14.5 -13.5t-29.5 -34t-34.5 -55t-30.5 -75.5q12 -2 20.5 -2t14.5 -2q8 -2 13 -3l-25 -116l-16 -4q-20 -4 -50 -4q-29 0 -49 4z" />
<glyph unicode="&#x2019;" horiz-adv-x="417" d="M246 1165q2 0 13 12.5t27.5 35t35 55t30.5 75.5q-20 0 -33 5q-6 2 -10 4l25 114l16 4q20 4 49 5q27 0 47 -5q8 -2 17 -4l-17 -82q-14 -63 -40.5 -109t-55.5 -79q-33 -37 -67 -63z" />
<glyph unicode="&#x201a;" horiz-adv-x="444" d="M-27 -178q2 2 14.5 14t29 35t34 54.5t29.5 74.5q-20 0 -33 4q-8 2 -10 4l24 115q8 2 19 4q10 2 21.5 3t27.5 1q27 0 47 -4q8 -2 17 -4l-19 -82q-14 -63 -39.5 -109.5t-54.5 -76.5q-33 -37 -70 -64z" />
<glyph unicode="&#x201c;" horiz-adv-x="649" d="M242 1139l16 82q14 61 40 108t54 80q31 37 68 64l37 -33q0 -2 -12.5 -14.5t-29 -35t-33.5 -54t-30 -74.5q20 0 33 -5q6 -2 10 -4l-24 -114q-8 -2 -17 -4q-10 -2 -22.5 -3.5t-28.5 -1.5q-27 0 -47 5q-8 2 -14 4zM471 1139l16 82q14 61 40 108t55 80q31 37 67 64l37 -33 l-14.5 -14.5t-28.5 -35t-32.5 -54t-28.5 -74.5q20 0 32 -5q6 -2 11 -4l-25 -114l-16 -4q-10 -2 -22.5 -3.5t-29.5 -1.5q-16 0 -27 1.5t-20 3.5q-8 2 -14 4z" />
<glyph unicode="&#x201d;" horiz-adv-x="649" d="M246 1165q2 0 14 12.5t28.5 35t34 55t29.5 75.5q-20 0 -33 5q-6 2 -10 4l25 114q6 2 16 4q20 4 51 5q27 0 48 -5q8 -2 14 -4l-17 -82q-14 -63 -40.5 -109t-53.5 -79q-33 -37 -67 -63zM475 1165q2 0 13.5 12.5t27.5 35t34.5 55t31.5 75.5q-20 0 -33 5q-6 2 -10 4l24 114 q6 2 17 4q20 4 51 5q16 0 26.5 -1t18.5 -4l16 -4l-16 -82q-14 -63 -41 -109t-53 -79q-33 -37 -68 -63z" />
<glyph unicode="&#x201e;" horiz-adv-x="675" d="M-27 -178q2 2 13.5 14t28 35t35 54.5t30.5 74.5q-20 0 -33 4q-6 2 -10 4l24 115q6 2 17 4q20 4 51 4q27 0 47 -4q8 -2 14 -4l-18 -82q-14 -63 -40 -109.5t-54 -76.5q-33 -37 -68 -64zM205 -178l14 14t28.5 35t35 54.5t30.5 74.5q-20 0 -32 4q-6 2 -11 4l25 115q6 2 16 4 q20 4 51 4q27 0 48 -4q8 -2 14 -4l-18 -82q-14 -63 -40 -109.5t-55 -76.5q-33 -37 -67 -64z" />
<glyph unicode="&#x2022;" horiz-adv-x="612" d="M203 578q10 43 40.5 67.5t69.5 24.5q41 0 62.5 -24.5t11.5 -67.5q-10 -41 -40 -66t-71 -25q-39 0 -61 25t-12 66z" />
<glyph unicode="&#x2026;" horiz-adv-x="1118" d="M35 8l24 115q8 2 19 4q10 2 21.5 3t27.5 1q27 0 47 -4l16 -4l-24 -115q-8 -2 -19 -4q-10 -2 -21 -3t-28 -1q-16 0 -27.5 1t-19.5 3zM371 8l24 115q8 2 17 4q20 4 49 4q27 0 47 -4l16 -4l-24 -115q-8 -2 -19 -4q-10 -2 -21 -3t-28 -1q-16 0 -27.5 1t-19.5 3t-14 4zM705 8 l24 115l16 4q20 4 50 4q27 0 47 -4l16 -4l-24 -115q-8 -2 -19 -4q-10 -2 -21.5 -3t-27.5 -1t-27.5 1t-19.5 3t-14 4z" />
<glyph unicode="&#x202f;" horiz-adv-x="380" />
<glyph unicode="&#x2039;" horiz-adv-x="696" d="M91 533.5q-1 7.5 3 17.5q2 10 5 18.5t7 14.5l7 12l516 446q16 -10 21 -29.5t1 -39.5l-465 -420l287 -422q-6 -23 -19.5 -41t-33.5 -29l-326 447q-2 4 -2 12q0 6 -1 13.5z" />
<glyph unicode="&#x203a;" horiz-adv-x="694" d="M14 131l463 422l-284 420q6 20 19 39.5t32 29.5l327 -446q2 -4 2 -12q0 -6 -1 -14.5t-3 -18.5q-4 -10 -5 -17.5t-5 -13.5l-6 -12l-518 -447q-14 10 -19.5 29t-1.5 41z" />
<glyph unicode="&#x205f;" horiz-adv-x="475" />
<glyph unicode="&#x20ac;" horiz-adv-x="1189" d="M82 487q0 18 8 39t19 37h149l23 123q8 33 14 62.5t16 64.5h-161q2 18 10 39.5t18 38.5h158q86 250 231.5 376t356.5 126q78 0 132 -10.5t89 -22.5q41 -14 67 -31q-12 -45 -49 -74q-27 14 -63 25q-31 10 -77 17.5t-103 7.5q-78 0 -146.5 -20.5t-128 -69t-111 -128 t-92.5 -196.5h553q0 -18 -7 -40t-23 -38h-549q-8 -31 -14.5 -62.5t-14.5 -66.5q-14 -61 -25 -121h480q0 -16 -7.5 -37.5t-21.5 -38.5h-457q-12 -121 4.5 -200.5t56.5 -127.5t101.5 -68.5t138.5 -20.5q63 0 114.5 7t90.5 17q43 10 80 25q12 -14 16.5 -33.5t-0.5 -42.5 q-35 -18 -86 -33q-43 -12 -105 -21t-142 -9q-420 0 -375 507h-168z" />
<glyph unicode="&#x2122;" horiz-adv-x="1280" d="M249 1435.5q-1 6.5 1 14.5q4 16 10 25h416q4 -14 0 -25q-2 -14 -10 -27h-179l-114 -532q-2 -2 -6 -4t-23 -2q-16 0 -20 2t-7 4l115 532h-182q0 6 -1 12.5zM659 891l123 577q2 0 9 2q12 4 26 5q14 0 19.5 -2.5t9.5 -4.5l65 -221q12 -39 22.5 -76.5t16.5 -72.5 q20 33 45 68.5t58 74.5l161 227q4 0 11 2q12 4 24 5q16 0 25 -5q4 -2 6 -2l-123 -577q-2 -2 -6 -4t-18 -2q-16 0 -21 2q-4 2 -6 4l57 262l49 240q-23 -33 -44 -65t-46 -62l-157 -217l-9 -5q-4 -2 -20 -2q-14 0 -18 2t-7 5l-61 217q-10 35 -19.5 64.5t-19.5 62.5 q-8 -53 -19.5 -112.5t-25.5 -125.5l-57 -264q-2 -2 -7 -4q-4 -2 -18 -2t-18 2t-7 4z" />
<glyph unicode="&#x25fc;" horiz-adv-x="1075" d="M0 0v1075h1075v-1075h-1075z" />
</font>
</defs>
</svg>
