<?xml version="1.0" standalone="no"?>
<!DOCTYPE svg PUBLIC "-//W3C//DTD SVG 1.1//EN" "http://www.w3.org/Graphics/SVG/1.1/DTD/svg11.dtd" >
<svg xmlns="http://www.w3.org/2000/svg">
<metadata></metadata>
<defs>
<font id="globerlight" horiz-adv-x="1310" >
<font-face units-per-em="2048" ascent="1536" descent="-512" />
<missing-glyph horiz-adv-x="526" />
<glyph unicode="&#xfb01;" horiz-adv-x="1128" d="M84 1047q0 20 2 24t4 6h131v123q0 80 16.5 142.5t57.5 105.5t110.5 65.5t174.5 22.5q68 0 131 -9t110 -20q55 -12 105 -26q6 -35 -19 -58q-43 14 -94 25q-43 10 -101.5 18.5t-121.5 8.5q-90 0 -148.5 -16.5t-93.5 -49.5t-48 -82t-13 -117v-133h649v-1071l-8 -4 q-6 -2 -25 -2q-23 0 -26 2q-6 2 -7 4v1010h-583v-1010l-8 -4q-6 -2 -25 -2q-23 0 -27 2q-6 2 -6 4v1010h-131q-2 2 -4 6t-2 25z" />
<glyph unicode="&#xfb02;" horiz-adv-x="1132" d="M84 1047q0 20 2 24t4 6h131v123q0 74 16.5 136.5t55.5 106.5t103.5 68.5t162.5 24.5q76 0 143.5 -11.5t120.5 -23.5q61 -16 113 -35v-1460l-8 -4q-6 -2 -25 -2q-23 0 -26 2q-6 2 -7 4v1419q-45 16 -123.5 33t-177.5 17q-84 0 -138 -17.5t-87 -51.5t-45 -83t-12 -113v-133 h274q0 -2 2 -6q4 -8 4 -24q0 -14 -4 -23q-2 -6 -2 -8h-274v-1010l-8 -4q-6 -2 -25 -2q-23 0 -27 2q-6 2 -6 4v1010h-131q-2 2 -4 6t-2 25z" />
<glyph horiz-adv-x="2048" />
<glyph horiz-adv-x="2048" />
<glyph unicode="&#xd;" horiz-adv-x="659" />
<glyph unicode=" "  horiz-adv-x="526" />
<glyph unicode="&#x09;" horiz-adv-x="526" />
<glyph unicode="&#xa0;" horiz-adv-x="526" />
<glyph unicode="!" horiz-adv-x="487" d="M199 6v86q2 0 10 2q12 4 35 4q12 0 20 -1t15 -3q6 -2 10 -2v-86q-4 -2 -10 -4q-8 -2 -35 -2q-29 0 -35 2q-8 2 -10 4zM209 1468q-4 0 0 2q4 4 35 5q16 0 23 -1t12 -4q2 -2 0 -2l-11 -1155q-2 -2 -6 -4q-8 -4 -18 -4q-12 0 -21 4q-4 2 -4 4z" />
<glyph unicode="&#x22;" horiz-adv-x="602" d="M160 1468q2 0 8 2q12 4 27 5q14 0 26 -5q6 -2 8 -2l-14 -391q0 -2 -4 -2q-4 -2 -16 -2t-17 2q-4 0 -4 2zM373 1468q2 0 8 2q12 4 27 5q14 0 26 -5q6 -2 8 -2l-14 -391q0 -2 -4 -2q-4 -2 -16 -2t-17 2q-4 0 -4 2z" />
<glyph unicode="#" horiz-adv-x="1333" d="M98 334q0 18 6 31h242l150 530h-220q-6 12 -6 31q0 18 6 30h236l90 314q14 6 33 6q20 0 33 -6l-90 -314h364l90 314q14 6 33 6q20 0 33 -6l-90 -314h217q6 -12 6 -30q0 -16 -6 -31h-234l-149 -530h211q6 -12 6 -31q0 -16 -6 -31h-230l-82 -295q-2 -2 -8 -4q-12 -4 -26 -4 q-16 0 -25 4q-4 2 -6 4l82 295h-365l-82 -295q-2 -2 -8 -4q-12 -4 -27 -4q-16 0 -24 4q-4 2 -6 4l82 295h-224q-6 12 -6 31zM412 365h364l150 530h-365z" />
<glyph unicode="$" horiz-adv-x="1144" d="M135 72q-2 14 4 30.5t17 24.5q51 -16 112 -29q53 -10 121 -18t141 -8q197 0 306.5 70.5t109.5 215.5q0 82 -34.5 133.5t-92 84t-130.5 53t-148.5 39t-148.5 42t-130 61.5t-92 96.5t-35 150.5q0 150 103.5 243t300.5 105l-11 244q4 0 11 2q12 4 28 4q18 0 31 -4 q6 -2 10 -2l-12 -242q84 0 148.5 -7t109.5 -15q53 -10 90 -23q2 -16 -3 -30.5t-17 -24.5q-41 10 -93 18q-43 6 -101 12.5t-126 6.5q-205 0 -301 -76t-96 -207q0 -78 34.5 -128t92 -82t130.5 -52.5t148.5 -39t148.5 -42t130 -63.5t92 -100t35 -155q0 -156 -111.5 -250 t-310.5 -104l12 -264q-2 -2 -8 -4t-31 -2q-27 0 -32 2q-6 2 -9 4l11 262q-92 0 -166 10.5t-127 22.5q-61 14 -111 35z" />
<glyph unicode="%" horiz-adv-x="1521" d="M115 1061q0 188 69.5 271t190.5 83t191.5 -81t70.5 -273q0 -193 -70.5 -273.5t-191.5 -80.5q-123 0 -191.5 80.5t-68.5 273.5zM186 1061q0 -166 51.5 -228.5t137.5 -62.5t137 62.5t51 228.5q0 162 -52 227.5t-136 65.5q-86 0 -137.5 -64.5t-51.5 -228.5zM326 -14 l796 1446q4 0 11 2q12 4 30 4q16 0 29 -4q6 -2 10 -2l-796 -1446q-4 -2 -11 -4q-8 -2 -33 -2q-20 0 -26 2t-10 4zM887 334q0 188 69.5 271t190.5 83t191.5 -81t70.5 -273q0 -193 -70.5 -273.5t-191.5 -80.5q-123 0 -191.5 80.5t-68.5 273.5zM958 334q0 -166 51.5 -228.5 t137.5 -62.5t137 62.5t51 228.5q0 162 -52 227.5t-136 65.5q-86 0 -137.5 -64.5t-51.5 -228.5z" />
<glyph unicode="&#x26;" horiz-adv-x="1300" d="M113 326q0 86 33.5 154.5t81.5 118.5t101.5 84t90.5 52q-72 166 -72 318q0 166 80 263t238 97q68 0 118 -20.5t84.5 -54t52 -77.5t17.5 -92q0 -80 -32 -143t-88 -117.5t-136 -102.5t-178 -99q63 -129 165.5 -248t241.5 -219q70 80 109 167t57 158q18 0 37 -8t29 -22 q-16 -68 -60.5 -154t-121.5 -178q61 -41 129.5 -77t140.5 -67q4 -41 -29 -61q-78 31 -150.5 69.5t-138.5 86.5q-8 -10 -39.5 -39t-85 -58.5t-128 -53t-168.5 -23.5q-74 0 -141.5 19t-121 61t-85 107.5t-31.5 158.5zM188 330q0 -137 85.5 -213t226.5 -76q72 0 131 17.5 t106 42t79 49t48 38.5q-141 104 -247.5 231.5t-172.5 260.5q-33 -16 -76.5 -46t-83.5 -74t-68 -101.5t-28 -128.5zM418 1059q0 -147 61 -295q86 45 158 88t122 89t78.5 98.5t28.5 117.5q0 90 -54.5 142.5t-154.5 52.5q-111 0 -175 -75t-64 -218z" />
<glyph unicode="'" horiz-adv-x="389" d="M160 1468q2 0 8 2q12 4 27 5q14 0 26 -5q6 -2 8 -2l-14 -391q0 -2 -4 -2q-4 -2 -16 -2t-17 2q-4 0 -4 2z" />
<glyph unicode="(" horiz-adv-x="579" d="M137 655q0 223 49.5 408.5t108.5 318.5q68 156 158 279h8q4 0 20 -8q8 -6 17 -15l4 -8q-82 -117 -148 -266q-55 -129 -101 -307t-46 -402q0 -223 46 -401t101 -307q66 -150 148 -266l-4 -9q-4 -4 -7.5 -7t-9.5 -7q-10 -8 -20 -8h-8q-90 123 -158 278 q-59 133 -108.5 317.5t-49.5 409.5z" />
<glyph unicode=")" horiz-adv-x="579" d="M78 -319q82 117 147 266q55 129 101.5 307t46.5 401t-46 401.5t-102 307.5q-66 150 -147 266q0 4 4 8q2 4 16 15q16 8 21 8h8q88 -123 158 -279q29 -66 57.5 -145.5t51 -171.5t35.5 -195.5t13 -214.5q0 -225 -49 -409.5t-108 -317.5q-70 -156 -158 -278h-8q-10 0 -21 8 q-12 6 -16 14q-4 4 -4 9z" />
<glyph unicode="*" horiz-adv-x="722" d="M141 1262q0 29 17 49l178 -58v183q2 0 6 2q4 0 8 1t12 1q6 0 10.5 -1t8.5 -1q4 -2 6 -2v-183l178 58q16 -16 17 -49l-181 -58l115 -157q-8 -8 -18.5 -16.5t-22.5 -12.5l-115 153l-110 -155q-12 4 -23.5 12t-19.5 16l112 160z" />
<glyph unicode="+" horiz-adv-x="954" d="M133 594q0 20 2 24t4 7h307v307q2 0 7 2q8 4 24 4t25 -4q4 -2 6 -2v-307h307q0 -2 2 -7q4 -8 4 -24t-4 -25q-2 -4 -2 -6h-307v-307q-2 -2 -6 -4t-25 -2q-20 0 -24 2t-7 4v307h-307q-2 2 -4 6t-2 25z" />
<glyph unicode="," horiz-adv-x="421" d="M131 -168q16 18 31 43q12 23 22.5 53.5t14.5 71.5q-23 0 -29 2t-8 4v86q4 0 12 2q16 4 37 4q20 0 37 -4q8 -2 12 -2v-65q0 -53 -15.5 -94.5t-33.5 -69.5q-23 -33 -47 -56z" />
<glyph unicode="-" horiz-adv-x="724" d="M172 594q0 20 2 24t4 7h369q0 -2 2 -7q4 -8 4 -24t-4 -25q-2 -4 -2 -6h-369q-2 2 -4 6t-2 25z" />
<glyph unicode="." horiz-adv-x="405" d="M154 6v86q4 0 12 2q16 4 37 4q20 0 37 -4q8 -2 12 -2v-86q-4 -2 -12 -4t-37 -2t-37 2t-12 4z" />
<glyph unicode="/" horiz-adv-x="870" d="M51 -90l694 1620q2 0 9 2q12 4 28 4t29 -4q6 -2 8 -2l-694 -1620q-4 -2 -10 -4q-4 -2 -12.5 -2h-18.5q-18 0 -25 2q-6 2 -8 4z" />
<glyph unicode="0" horiz-adv-x="1271" d="M156 696q0 377 122.5 547t356.5 170q117 0 207 -40t151.5 -127t93 -223t31.5 -327q0 -190 -31.5 -326.5t-93 -223.5t-151.5 -126.5t-207 -39.5t-206 39.5t-150.5 126.5t-92 223.5t-30.5 326.5zM227 696q0 -340 100.5 -497.5t307.5 -157.5q211 0 311.5 157.5t100.5 497.5 t-100.5 498t-311.5 158q-207 0 -307.5 -158t-100.5 -498z" />
<glyph unicode="1" horiz-adv-x="792" d="M84 1061q129 35 239.5 118t184.5 207q2 0 6 3q8 4 25 4q16 0 24 -4l6 -3v-1380q-2 -2 -8 -4t-26 -2q-23 0 -27 2t-6 4v981q0 96 2 169t6 120q-72 -109 -182.5 -176.5t-225.5 -98.5q-24 23 -18 60z" />
<glyph unicode="2" horiz-adv-x="1081" d="M125 137q0 119 35 198t92 134t127 96t141 86q74 45 138.5 86t112.5 87t75.5 103.5t27.5 137.5q0 47 -12 97t-48 92t-102.5 70t-172.5 28q-68 0 -129.5 -10.5t-108.5 -22.5q-55 -15 -102 -33q-23 18 -21 53q43 20 101 37q49 14 117.5 25.5t154.5 11.5q82 0 153.5 -18.5 t125 -59.5t85 -107.5t31.5 -160.5q0 -86 -26.5 -149.5t-77.5 -115.5t-123 -100.5t-164 -103.5q-55 -35 -118.5 -70.5t-118 -87t-90 -121t-35.5 -169.5v-36t2 -26q0 -12 2 -22h723q0 -4 2 -9q2 -4 3 -9t1 -15q0 -18 -4 -27l-2 -6h-783q-4 18 -6 41q-6 37 -6 96z" />
<glyph unicode="3" horiz-adv-x="1048" d="M115 45q0 12 5 28.5t15 22.5q45 -14 120 -33.5t185 -19.5q111 0 186.5 24.5t122 67.5t66 101.5t19.5 123.5q0 106 -37 173t-95.5 104t-129 50t-136.5 13h-92q-2 2 -4 7q-2 4 -2 24t2 25q2 4 4 6h92q57 0 121 10t117 43t87 93.5t34 160.5q0 129 -82 207t-256 78 q-66 0 -119 -8.5t-94 -18.5q-47 -12 -84 -27q-12 6 -19.5 20.5t-5.5 29.5q41 16 92 30q43 12 103.5 22.5t132.5 10.5q102 0 177 -25.5t124 -69.5t73.5 -105.5t24.5 -131.5q0 -127 -51 -218t-180 -132q147 -41 208.5 -140.5t61.5 -242.5q0 -68 -23.5 -134.5t-76.5 -118.5 t-140.5 -83.5t-216.5 -31.5q-76 0 -136 10t-103 22q-51 14 -90 33z" />
<glyph unicode="4" horiz-adv-x="1173" d="M84 410q0 20 2 24t4 6l696 946q2 0 9 3q12 4 28 4q10 0 15.5 -1t9.5 -3t8 -3v-946h219q0 -2 2 -6q4 -8 4 -24t-4 -25q-2 -4 -2 -6h-219v-373q-2 -2 -8 -4t-27 -2q-23 0 -26 2q-6 2 -7 4v373h-698q-2 2 -4 6t-2 25zM170 440h618v842z" />
<glyph unicode="5" horiz-adv-x="1056" d="M121 31q-4 14 2 29.5t16 23.5q35 -14 80 -23q37 -8 88 -14t111 -6q223 0 328.5 80t105.5 252q0 70 -17.5 132t-63.5 109.5t-126 75t-205 27.5q-47 0 -90 -4t-78 -8q-39 -6 -73 -11v699h665q0 -2 2 -9q4 -12 4 -24q0 -10 -1 -15.5t-3 -9.5q-2 -6 -2 -8h-598v-561 q25 2 53 6q25 4 60 6t76 2q246 0 357.5 -106.5t111.5 -300.5q0 -188 -118 -290.5t-378 -102.5q-80 0 -137.5 7t-95.5 17q-45 10 -74 27z" />
<glyph unicode="6" horiz-adv-x="1130" d="M150 526q0 215 52 373t147 264.5t226.5 162.5t288.5 67q8 -13 8 -29t-6 -29q-123 -12 -228.5 -51t-186 -109.5t-135 -177t-78.5 -254.5q51 33 143 71t219 38q86 0 161 -24.5t130 -77t87 -135.5t32 -199q0 -106 -32 -187.5t-89.5 -136.5t-136 -83.5t-172.5 -28.5 q-92 0 -171 31.5t-136.5 98t-90 170t-32.5 246.5zM221 518q0 -125 26.5 -215t75 -148.5t114 -86t143.5 -27.5t143 23.5t113.5 70.5t75 117t26.5 164q0 96 -25.5 166.5t-70.5 116.5t-107.5 69t-138.5 23q-68 0 -126 -15.5t-106.5 -36t-83 -43t-53.5 -34.5q-6 -68 -6 -144z " />
<glyph unicode="7" horiz-adv-x="1013" d="M80 1360q0 18 2 24t4 9h827q6 0 7 -41q0 -131 -39 -231.5t-98.5 -189.5t-127 -177t-127 -193.5t-98.5 -240t-39 -314.5q-2 -2 -8 -4t-25 -2q-20 0 -26 2t-10 4q0 182 36.5 318.5t93 244t123 194.5t126 173t100.5 179t49 212h-764q-2 2 -4 8t-2 25z" />
<glyph unicode="8" horiz-adv-x="1193" d="M145 322q0 92 35 165.5t83 129t98.5 92t82.5 55.5q-53 25 -98 55.5t-80 70.5t-54 89t-19 115q0 147 107.5 233t291.5 86q186 0 293.5 -88t107.5 -233q0 -80 -26.5 -143.5t-65.5 -112t-81 -80t-75 -49.5q61 -27 117 -60t97.5 -78t66.5 -103t25 -136q0 -156 -116 -253 t-345 -97q-111 0 -194 26.5t-138 72.5t-84 108.5t-29 134.5zM215 330q0 -61 22.5 -113.5t69.5 -90.5t120 -60.5t171 -22.5q94 0 166 21.5t120 60.5t72.5 91t24.5 112q0 92 -43 153.5t-110.5 105.5t-151.5 77.5t-166 68.5q-18 -10 -66.5 -40.5t-98.5 -81t-90 -122t-40 -159.5 zM262 1098q0 -80 37 -135.5t95.5 -96.5t133 -71.5t152.5 -61.5q31 18 73 48t78.5 74t63.5 102.5t27 129.5q0 125 -90 194t-240 69q-152 0 -241 -69t-89 -183z" />
<glyph unicode="9" horiz-adv-x="1130" d="M121 977q0 106 31.5 187t89 136.5t136.5 84t173 28.5q92 0 171 -31.5t136 -98t90 -170t33 -247.5q0 -215 -52 -373.5t-147.5 -264t-226.5 -162t-289 -66.5q-8 11 -8 29q0 16 6 28q123 12 228.5 51t186.5 110t135 177.5t77 253.5q-49 -33 -141.5 -70.5t-219.5 -37.5 q-86 0 -160.5 24.5t-130 76.5t-87 135t-31.5 200zM193 977q0 -96 25.5 -167t70.5 -117t107.5 -68.5t138.5 -22.5q66 0 125 15.5t107 36t83 42t53 35.5q6 68 6 143q0 125 -26.5 215.5t-74.5 148.5t-113.5 86t-143.5 28t-143.5 -23.5t-113.5 -71t-74.5 -117t-26.5 -163.5z" />
<glyph unicode=":" horiz-adv-x="442" d="M172 6v86q4 0 12 2q16 4 37 4q20 0 37 -4q8 -2 12 -2v-86q-4 -2 -12 -4t-37 -2t-37 2t-12 4zM172 815v86q4 0 12 2q16 4 37 4q20 0 37 -4q8 -2 12 -2v-86q-4 -2 -12 -4t-37 -2t-37 2t-12 4z" />
<glyph unicode=";" horiz-adv-x="483" d="M168 -168q16 18 31 43q12 23 22 53.5t15 71.5q-23 0 -29 2t-8 4v86q4 0 12 2q16 4 37 4q20 0 37 -4q8 -2 12 -2v-65q0 -53 -15.5 -94.5t-33.5 -69.5q-23 -33 -47 -56zM199 815v86q4 0 12 2q16 4 37 4q20 0 37 -4q8 -2 12 -2v-86q-4 -2 -12 -4t-37 -2t-37 2t-12 4z" />
<glyph unicode="&#x3c;" horiz-adv-x="970" d="M127 594q0 23 2 31t4 12l655 303q0 -4 3 -8q2 -4 3 -9t1 -16q0 -14 -4 -26l-3 -9l-604 -280l604 -275q0 -4 3 -10q4 -12 4 -26t-4 -27q-2 -6 -3 -8l-655 303q-2 4 -4 12t-2 33z" />
<glyph unicode="=" horiz-adv-x="1044" d="M180 424q0 20 2 25q2 4 4 6h672q0 -2 2 -6q4 -8 4 -25q0 -16 -4 -25q-2 -4 -2 -6h-672q-2 2 -4 6t-2 25zM180 764q0 20 2 24t4 7h672q0 -2 2 -7q4 -8 4 -24t-4 -25q-2 -4 -2 -6h-672q-2 2 -4 6t-2 25z" />
<glyph unicode="&#x3e;" horiz-adv-x="970" d="M178 281q0 20 2 26t4 10l604 275l-604 280q-2 2 -4 9q-2 6 -2 26q0 18 2 25l4 8l656 -303q0 -4 2 -12q4 -16 4 -31q0 -16 -4 -33q-2 -8 -2 -12l-656 -303q-2 2 -4 8t-2 27z" />
<glyph unicode="?" horiz-adv-x="880" d="M92 1350q35 16 84 30q41 12 98.5 22.5t128.5 10.5q98 0 168 -26.5t113 -70.5t63.5 -101.5t20.5 -118.5q0 -102 -28.5 -170t-72.5 -119t-94.5 -94t-94.5 -96.5t-72.5 -125t-28.5 -178.5l-8 -4q-12 -4 -23 -4q-12 0 -20 4l-9 4q0 119 28 197t71 133t91 97t91 89.5 t70.5 107.5t27.5 155q0 51 -15 98t-50 82t-92.5 56.5t-141.5 21.5q-66 0 -118 -8.5t-89 -18.5q-43 -10 -75 -25q-12 8 -18.5 22.5t-4.5 29.5zM299 6v86q4 0 12 2q16 4 37 4q20 0 37 -4q8 -2 12 -2v-86q-4 -2 -12 -4t-37 -2t-37 2t-12 4z" />
<glyph unicode="@" horiz-adv-x="1875" d="M143 571q0 188 59.5 340t166 259.5t252 165t317.5 57.5q190 0 336.5 -57.5t247 -160t151.5 -244.5t51 -310q0 -205 -85 -326t-250 -121q-72 0 -125.5 36t-75.5 118q-33 -66 -96.5 -110t-167.5 -44q-66 0 -125.5 20.5t-104.5 66.5t-71.5 122t-26.5 186q0 113 26.5 189 t71.5 122t104.5 66.5t125.5 20.5q98 0 157.5 -37t94.5 -94v125q4 0 8 2q8 4 20 4q10 0 23 -4q6 -2 10 -2v-510q0 -121 41 -172.5t115 -51.5q51 0 99 21.5t86 69t61.5 122t23.5 181.5q0 162 -49 295t-142.5 227t-227.5 145t-306 51q-158 0 -292 -53t-232.5 -153.5 t-153.5 -241.5t-55 -320q0 -195 57 -337t155.5 -234t228.5 -136t274 -44q178 0 324.5 53t252.5 125q31 -10 31 -43q-135 -100 -292 -146.5t-331 -46.5q-156 0 -294 50.5t-242.5 150.5t-165 253t-60.5 355zM664 569q0 -100 22.5 -166.5t59 -105.5t86 -54.5t102.5 -15.5 q57 0 101 20.5t75 54.5t47.5 77t18.5 88v199q0 45 -16.5 90t-47.5 79.5t-76 56t-102 21.5q-53 0 -102.5 -14t-86 -52t-59 -105t-22.5 -173z" />
<glyph unicode="A" d="M47 6l580 1462q2 0 6 2q8 4 22 5q12 0 21 -5q4 -2 8 -2l580 -1462q-2 -2 -9 -4q-6 -2 -28 -2q-20 0 -27 2q-6 2 -10 4l-174 440h-723l-176 -440q-2 -2 -8 -4t-29 -2t-27 2t-6 4zM317 512h672l-307 780q-8 18 -12 32.5t-8 25.5q-4 10 -5 20h-4q-2 -10 -6 -20t-9 -24.5 t-11 -33.5z" />
<glyph unicode="B" horiz-adv-x="1282" d="M219 0v1475h475q115 0 192 -32t123 -85t64.5 -122t18.5 -142q0 -102 -28 -168t-63.5 -105t-67.5 -55t-38 -18q2 0 41 -12.5t84 -50.5t82 -108.5t37 -189.5q0 -86 -23.5 -157.5t-76 -123t-135.5 -79t-202 -27.5h-483zM289 66h411q102 0 172 21.5t113 63.5t61.5 101 t18.5 135q0 168 -87 246t-280 78h-409v-645zM289 776h395q92 0 156.5 22.5t103.5 64.5t56.5 100.5t17.5 130.5t-16.5 130t-56.5 99t-104.5 63.5t-162.5 22.5h-389v-633z" />
<glyph unicode="C" horiz-adv-x="1138" d="M152 737q0 381 131 569.5t405 188.5q84 0 147.5 -10t106.5 -23q51 -14 86 -32v-11q0 -12 -4 -20t-7 -11.5t-7 -7.5l-6 -6q-35 16 -82 29q-41 10 -97.5 19.5t-126.5 9.5q-106 0 -193 -34t-149.5 -114t-96.5 -214t-34 -335t34 -334t95.5 -211.5t148.5 -111.5t195 -33 q76 0 136.5 9t103.5 20q51 12 88 28q2 0 6 -4q10 -10 15 -18q4 -10 4 -23v-10q-37 -20 -90 -35q-47 -12 -114 -22t-159 -10q-272 0 -404 185t-132 572z" />
<glyph unicode="D" horiz-adv-x="1347" d="M219 0v1475h387q147 0 258 -35t183.5 -120t109.5 -226.5t37 -356.5t-37 -356t-109.5 -226t-183 -120t-258.5 -35h-387zM289 66h309q129 0 226.5 29.5t163 105t99 206t33.5 330.5q0 201 -33.5 331t-99 206t-163 105.5t-226.5 29.5h-309v-1343z" />
<glyph unicode="E" horiz-adv-x="1140" d="M219 0v1475h789q6 -12 6 -33q0 -20 -6 -33h-719v-629h616q6 -12 6 -30t-6 -33h-616v-651h739q6 -16 6 -31q0 -20 -6 -35h-809z" />
<glyph unicode="F" horiz-adv-x="1091" d="M219 6v1469h789q0 -2 2 -9q4 -12 4 -24q0 -10 -1 -15.5t-3 -9.5q-2 -6 -2 -8h-719v-645h622q0 -2 2 -8q4 -12 5 -25q0 -12 -5 -24q-2 -6 -2 -9h-622v-692q-2 -2 -8 -4t-27 -2q-20 0 -27 2q-6 2 -8 4z" />
<glyph unicode="G" horiz-adv-x="1267" d="M152 737q0 381 144 569.5t415 188.5q86 0 155.5 -10t116.5 -23q55 -14 98 -32v-11q0 -12 -4 -20t-7 -11.5t-7 -7.5t-6 -4q-45 14 -99 27q-47 10 -107 19.5t-130 9.5q-104 0 -195.5 -34t-158 -114t-104.5 -214t-38 -335t38 -334t104.5 -211.5t156.5 -111.5t197 -33 q104 0 185 14.5t128 24.5v616h-395q-2 2 -4 9q-2 6 -2 24t2 25l4 8h465v-721q-47 -18 -107 -33q-51 -12 -122.5 -22t-163.5 -10q-268 0 -413.5 185t-145.5 572z" />
<glyph unicode="H" horiz-adv-x="1376" d="M217 6v1462q2 0 8 2q12 4 27 5q14 0 27 -5q6 -2 8 -2v-680h803v680q2 0 8 2q12 4 26 5q14 0 27 -5q6 -2 8 -2v-1462q-2 -2 -8 -4t-27 -2q-20 0 -26 2t-8 4v717h-803v-717q-2 -2 -8 -4t-27 -2q-20 0 -27 2q-6 2 -8 4z" />
<glyph unicode="I" horiz-adv-x="503" d="M217 6v1462q2 0 8 2q12 4 27 5q14 0 27 -5q6 -2 8 -2v-1462q-2 -2 -8 -4t-27 -2q-20 0 -27 2q-6 2 -8 4z" />
<glyph unicode="J" horiz-adv-x="856" d="M61 41q-1 5 -1 10q0 31 24 47q35 -16 76 -26q35 -10 80 -18.5t96 -8.5q111 0 176.5 58.5t65.5 211.5v1153q2 0 8 2q4 2 10 3.5t16 1.5q14 0 27 -5q6 -2 8 -2v-1153q0 -174 -72.5 -254.5t-238.5 -80.5q-57 0 -107.5 9t-87.5 21q-43 12 -80 31z" />
<glyph unicode="K" horiz-adv-x="1243" d="M217 6v1462q2 0 8 2q12 4 27 5q14 0 27 -5q6 -2 8 -2v-669h295l471 669q4 0 10 2q12 4 29 5q16 0 28 -5q6 -2 10 -2l-489 -696l547 -766q-4 -2 -10 -4t-29 -2q-25 0 -33 2t-12 4l-520 727h-297v-727q-2 -2 -8 -4t-27 -2q-20 0 -27 2q-6 2 -8 4z" />
<glyph unicode="L" horiz-adv-x="1028" d="M217 0v1468q2 0 8 2q12 4 27 5q14 0 27 -5q6 -2 8 -2v-1402h678q0 -2 2 -9q4 -12 4 -24t-4 -25q-2 -6 -2 -8h-748z" />
<glyph unicode="M" horiz-adv-x="1724" d="M217 6v1462q4 0 12 2q16 4 33 5q18 0 35 -5q8 -2 12 -2l479 -856q16 -27 25.5 -46t17.5 -34q8 -16 15 -28h4l14 28q8 14 19.5 34t27.5 46l502 856q2 0 10 2q6 2 14.5 3.5t22.5 1.5q12 0 20.5 -1t14.5 -4q8 -2 12 -2v-1462q-2 -2 -8 -4t-26 -2t-27 2q-6 2 -8 4v1180 q0 53 1 91t3 66q2 31 6 56h-4q-8 -16 -19 -39q-10 -18 -23 -44t-34 -59l-487 -833q-2 -2 -9 -4q-6 -2 -24 -2q-16 0 -23 2q-6 2 -10 4l-467 833q-18 29 -30.5 55.5t-22.5 45.5q-10 23 -19 41h-4q2 -25 7 -60q2 -29 4 -72.5t2 -101.5v-1159l-9 -4q-6 -2 -24 -2q-20 0 -27 2 q-6 2 -8 4z" />
<glyph unicode="N" horiz-adv-x="1413" d="M217 6v1462q4 0 10 2q12 4 31 5q16 0 29 -5q6 -2 10 -2l733 -1187q23 -37 41.5 -71t32.5 -58q16 -31 29 -56h4q-2 31 -4 68q-2 33 -3.5 78t-1.5 100v1126q2 0 9 2q12 4 26 5q12 0 25 -5q6 -2 8 -2v-1462q-4 -2 -10 -4t-29 -2q-25 0 -31 2t-10 4l-739 1204 q-27 41 -45.5 73t-28.5 54q-12 25 -20 45h-4q0 -25 2 -61q2 -33 3 -83t1 -122v-1110q-2 -2 -9 -4q-6 -2 -26 -2q-18 0 -25 2q-6 2 -8 4z" />
<glyph unicode="O" horiz-adv-x="1388" d="M152 737q0 199 36.5 342.5t107.5 235.5t171 136t227 44t227.5 -44t171 -136t107.5 -235.5t37 -342.5t-37 -342t-107.5 -235t-171 -136t-227.5 -44t-227 44t-171 136t-107.5 235.5t-36.5 341.5zM225 737q0 -188 33 -320t94.5 -216t147.5 -122t194 -38q106 0 193.5 38 t149 122t94 216t32.5 320t-32.5 320.5t-94 216.5t-149 122t-193.5 38q-109 0 -194.5 -38t-147 -122t-94.5 -216t-33 -321z" />
<glyph unicode="P" horiz-adv-x="1224" d="M219 6v1469h496q94 0 167.5 -31t125 -86t78 -133t26.5 -172t-26.5 -171t-78 -132.5t-125 -86t-167.5 -30.5h-426v-627q-2 -2 -8 -4t-27 -2q-20 0 -27 2q-6 2 -8 4zM289 698h428q154 0 237.5 94.5t83.5 258.5q0 168 -84 263t-237 95h-428v-711z" />
<glyph unicode="Q" horiz-adv-x="1388" d="M152 737q0 199 36.5 342.5t107.5 235.5t171 136t227 44t227.5 -44t171 -136t107.5 -235.5t37 -342.5q0 -244 -54.5 -404.5t-158.5 -246.5q57 -59 128 -96t130 -51q-6 -43 -43 -62q-68 16 -142.5 63.5t-125.5 108.5q-113 -69 -272 -69h-5q-127 0 -227 44t-171 136 t-107.5 235.5t-36.5 341.5zM225 737q0 -188 33 -320t94.5 -216t147.5 -122t194 -38q106 0 193.5 38t149 122t94 216t32.5 320t-32.5 320.5t-94 216.5t-149 122t-193.5 38q-109 0 -194.5 -38t-147 -122t-94.5 -216t-33 -321z" />
<glyph unicode="R" horiz-adv-x="1259" d="M219 6v1469h483q190 0 295 -111t105 -293q0 -158 -79 -262t-226 -133l354 -670q-4 -2 -10 -4t-29 -2t-31 2t-12 4l-348 662h-21h-411v-662q-2 -2 -8 -4t-27 -2q-20 0 -27 2q-6 2 -8 4zM289 733h418q147 0 234 89t87 249t-87 249t-234 89h-418v-676z" />
<glyph unicode="S" horiz-adv-x="1146" d="M141 55v8q1 11 5 23q6 16 16 27q51 -18 112 -33q53 -12 121 -22.5t142 -10.5q197 0 306 83t109 243q0 86 -30.5 142t-82 93t-118 59.5t-139.5 41.5q-82 23 -161 48t-141.5 67t-100.5 109.5t-38 172.5q0 180 119 284.5t342 104.5q84 0 152.5 -7t115.5 -18q55 -10 101 -24 q2 -37 -21 -57q-49 12 -102 20q-47 8 -108.5 15.5t-129.5 7.5q-203 0 -300 -88.5t-97 -233.5q0 -86 29.5 -139t82 -89t123 -58.5t154.5 -43.5q80 -20 156 -45.5t135 -71t95 -114t36 -174.5q0 -186 -126 -290.5t-351 -104.5q-92 0 -167 11t-128 25q-63 16 -111 39z" />
<glyph unicode="T" horiz-adv-x="1081" d="M68 1444q0 16 2 22l4 9h936q0 -2 2 -7q4 -8 4 -24q0 -12 -4 -25q-2 -6 -2 -8h-428v-1405q-2 -2 -9 -4q-6 -2 -26 -2t-27 2q-6 2 -8 4v1405h-438q-2 2 -4 8t-2 25z" />
<glyph unicode="U" horiz-adv-x="1357" d="M207 455v1013q2 0 8 2q12 4 27 5q14 0 26 -5q6 -2 8 -2v-1022q0 -195 106.5 -300t299.5 -105q190 0 295.5 105.5t105.5 299.5v1022q2 0 9 2q12 4 24 5q14 0 27 -5q6 -2 8 -2v-1013q0 -115 -34 -203t-96.5 -148.5t-149.5 -92t-193 -31.5t-193.5 31.5t-149 92t-95 148.5 t-33.5 203z" />
<glyph unicode="V" horiz-adv-x="1245" d="M59 1468q2 0 9 2q4 2 10 3.5t16 1.5q14 0 27 -5q6 -2 8 -2l457 -1249q10 -27 16 -46t10 -36q6 -18 9 -33h4q0 12 6 31q4 16 10 37t16 45l457 1251q2 0 8 2q12 4 29 5q14 0 27 -5q6 -2 8 -2l-535 -1462q-2 -2 -6 -4t-22 -2q-16 0 -21 2l-8 4z" />
<glyph unicode="W" horiz-adv-x="1931" d="M66 1468q2 0 8 2q12 4 26 5q14 0 27 -5q6 -2 10 -2l359 -1175q12 -43 21 -78t13 -59q6 -29 11 -52h4q2 23 8 52q4 25 11 59.5t22 77.5l360 1175q2 0 6 2q8 4 23 5q14 0 22 -5q4 -2 7 -2l358 -1175q12 -43 19.5 -78t11.5 -59q6 -29 8 -52h4q2 23 8 52q4 25 12.5 59.5 t22.5 77.5l340 1175q2 0 8 2q4 2 10 3.5t17 1.5q12 0 24 -5q6 -2 8 -2l-423 -1462q-2 -2 -7 -4q-4 -2 -22 -2t-23 2q-4 2 -6 4l-360 1182q-14 45 -21.5 76.5t-11.5 54.5q-6 25 -6 41h-4q0 -16 -6 -41q-4 -23 -12.5 -54.5t-20.5 -76.5l-363 -1182l-8 -4q-4 -2 -20 -2 q-18 0 -23 2q-4 2 -6 4z" />
<glyph unicode="X" horiz-adv-x="1210" d="M76 6l471 748l-461 714q2 0 10 2q6 2 14.5 3.5t20.5 1.5q18 0 31 -5q6 -2 10 -2l428 -665l434 665q2 0 10 2q12 4 33 5q16 0 33 -5q6 -2 10 -2l-469 -712l486 -750q-4 -2 -11 -4q-8 -2 -32 -2q-29 0 -35 2q-8 2 -10 4l-453 699l-436 -699q-4 -2 -13 -4q-8 -2 -32 -2 q-23 0 -29 2t-10 4z" />
<glyph unicode="Y" horiz-adv-x="1257" d="M57 1468q2 0 11 2q12 4 32 5q18 0 31 -5q6 -2 10 -2l486 -768l501 768q2 0 9 2q12 4 30 5q20 0 33 -5q6 -2 10 -2l-548 -843v-619q-2 -2 -9 -4q-6 -2 -26 -2t-27 2q-6 2 -8 4v617z" />
<glyph unicode="Z" horiz-adv-x="1177" d="M88 33q0 18 2 24t4 9l875 1343h-819q-2 2 -5 8q-2 6 -2 25q0 18 2 24t5 9h899q0 -2 2 -9q4 -12 4 -24t-4 -25q-2 -6 -2 -8l-873 -1343h899q0 -2 2 -9q4 -12 4 -24q0 -10 -1 -15.5t-3 -9.5q-2 -6 -2 -8h-981q-2 2 -4 8t-2 25z" />
<glyph unicode="[" horiz-adv-x="641" d="M217 -348v2007h334q0 -2 2 -8q4 -12 4 -27q0 -14 -4 -27q-2 -6 -2 -8h-264v-1868h264q0 -2 2 -8q4 -12 4 -24q0 -16 -4 -29q-2 -6 -2 -8h-334z" />
<glyph unicode="\" horiz-adv-x="864" d="M49 1528q2 2 8 4q12 4 29 4q18 0 31 -4q6 -2 8 -4l690 -1616q-2 -2 -8 -4q-12 -4 -29 -4q-16 0 -28 4q-6 2 -11 4z" />
<glyph unicode="]" horiz-adv-x="641" d="M84 -311q0 18 2 24t4 8h264v1868h-264q-2 2 -4 8t-2 27q0 20 2 27q2 6 4 8h334v-2007h-334q-2 2 -4 8t-2 29z" />
<glyph unicode="^" horiz-adv-x="1058" d="M129 932l360 536q2 0 9 2q4 2 11 3.5t19 1.5q18 0 31 -5q6 -2 8 -2l361 -536q-2 -2 -8 -4t-31 -2q-27 0 -33 2t-8 4l-322 481l-321 -481q0 -2 -6 -4t-31 -2t-31 2t-8 4z" />
<glyph unicode="_" horiz-adv-x="1060" d="M117 -70q0 18 2 23q2 4 4 6h819q0 -2 2 -6q4 -8 4 -23q0 -14 -4 -22q-2 -4 -2 -6h-819q-2 2 -4 6t-2 22z" />
<glyph unicode="`" horiz-adv-x="487" d="M100 1618q10 14 27.5 24.5t38.5 10.5l240 -307q-12 -27 -50 -29z" />
<glyph unicode="a" horiz-adv-x="1044" d="M109 289q0 145 90 229t286 84q111 0 197 -8t119 -12v159q0 164 -72 230.5t-213 66.5q-61 0 -116.5 -9t-96.5 -19q-49 -12 -90 -27q-27 20 -23 55q47 16 101 29q47 10 107.5 20.5t125.5 10.5q109 0 176.5 -29t104.5 -84t49 -137t12 -186v-656q-2 -2 -6 -4t-20 -2t-21 2 q-4 2 -6 4l-12 184v3q-47 -104 -144.5 -158.5t-230.5 -54.5q-141 0 -229 80.5t-88 228.5zM178 289q0 -127 69.5 -187.5t186.5 -60.5q78 0 145.5 26.5t116.5 76t77 121t28 161.5v96q-33 4 -120 12.5t-183 8.5q-166 0 -243 -62.5t-77 -191.5z" />
<glyph unicode="b" horiz-adv-x="1134" d="M186 6v1524l7 2q8 4 26 4q10 0 15.5 -1t9.5 -3t8 -2v-631q47 92 128 145.5t214 53.5q94 0 169 -29t127 -94.5t79.5 -173t27.5 -262.5q0 -158 -27.5 -264.5t-79.5 -172t-127 -94t-169 -28.5q-133 0 -214 53t-128 145v-172l-8 -4q-6 -2 -25 -2q-23 0 -26 2q-6 2 -7 4z M252 410q0 -63 20.5 -129t61.5 -119t101.5 -87t142.5 -34q188 0 269 118t81 380t-81 379.5t-269 117.5q-80 0 -140.5 -32.5t-101.5 -84t-61.5 -115t-22.5 -124.5v-270z" />
<glyph unicode="c" horiz-adv-x="911" d="M133 539q0 274 110.5 416.5t313.5 142.5q59 0 102 -7.5t74 -17.5q35 -10 62 -22q0 -39 -25 -58q-23 12 -53 21q-27 8 -63 14t-83 6q-190 0 -279 -125t-89 -370q0 -248 92 -370t285 -122q49 0 87 6t66 17q33 10 58 24q25 -16 28 -55q-31 -18 -69 -31q-35 -10 -83.5 -19 t-109.5 -9q-203 0 -313.5 142t-110.5 417z" />
<glyph unicode="d" horiz-adv-x="1134" d="M137 539q0 156 28 263t80 172.5t126.5 94.5t169.5 29q131 0 213 -53.5t129 -145.5v631l6 2q8 4 26 4q10 0 15.5 -1t9.5 -3t8 -2v-1524q-2 -2 -6 -4t-20 -2t-21 2q-4 2 -6 4l-10 174q-47 -92 -129 -146t-215 -54q-94 0 -169 28.5t-127 94t-80 172t-28 264.5zM207 539 q0 -262 81 -380t269 -118q82 0 142.5 34t101.5 87t61.5 118.5t20.5 129.5v258q0 63 -20.5 128.5t-61.5 119t-101.5 87t-142.5 33.5q-188 0 -269 -117.5t-81 -379.5z" />
<glyph unicode="e" horiz-adv-x="1040" d="M133 545q0 145 31 249.5t87 172t133 99.5t169 32t160.5 -29t114.5 -79t69 -119.5t23 -149.5q0 -47 -4.5 -85t-8.5 -65q-6 -31 -10 -55h-694q8 -250 97 -359.5t267 -109.5q63 0 112.5 12.5t84.5 28.5q39 18 67 41q31 -18 35 -55q-33 -27 -80 -47q-41 -18 -101 -32.5 t-138 -14.5q-201 0 -307.5 142t-106.5 423zM203 578h635q2 18 6 40q2 20 4 48t2 65q0 61 -16.5 116.5t-52.5 97.5t-92 66.5t-136 24.5q-156 0 -250 -109.5t-100 -348.5z" />
<glyph unicode="f" horiz-adv-x="688" d="M63 1049q0 18 3 22q2 4 4 6h151v123q0 74 12.5 136.5t46 106.5t91 68.5t147.5 24.5q37 0 71 -4t58 -8q29 -6 53 -13q1 -7 1 -13q0 -26 -19 -44q-20 4 -43 10q-20 4 -49 7.5t-62 3.5q-76 0 -123 -17.5t-73.5 -51.5t-35.5 -83t-9 -113v-133h336q0 -2 2 -6q4 -8 4 -22 t-4 -23q-2 -6 -2 -8h-336v-1012l-8 -4q-6 -2 -25 -2q-23 0 -27 2q-6 2 -6 4v1012h-151q-2 2 -4 6t-3 25z" />
<glyph unicode="g" horiz-adv-x="1056" d="M94 -213q0 63 21.5 115.5t50.5 92.5t59.5 66.5t48.5 38.5q-25 20 -39 49t-14 70q0 66 32.5 125t61.5 96q-86 41 -130 120t-44 190q0 164 95.5 256t269.5 92q63 0 116.5 -13.5t96.5 -35.5l264 47q8 -18 8 -36t-8 -38l-203 -23q90 -90 90 -249q0 -162 -94 -254.5 t-270 -92.5q-74 0 -135 17q-25 -29 -51.5 -79t-26.5 -116q0 -45 29.5 -70.5t78 -39t109.5 -19.5t125.5 -14t127 -22.5t111 -43t78 -77t29.5 -123.5q0 -66 -29.5 -124.5t-90 -104.5t-153 -72.5t-216.5 -26.5q-104 0 -179 23.5t-124.5 64.5t-72 95.5t-22.5 115.5zM168 -203 q0 -117 82 -183.5t242 -66.5q94 0 171.5 19.5t133 53.5t86 82t30.5 108q0 66 -29.5 106.5t-77.5 63t-110.5 33t-127 16.5t-126 14t-110.5 27q-82 -53 -123 -127t-41 -146zM211 752q0 -145 82 -218t213 -73q133 0 214 72.5t81 218.5q0 143 -81 215.5t-214 72.5 q-131 0 -213 -72.5t-82 -215.5z" />
<glyph unicode="h" horiz-adv-x="1122" d="M186 6v1524q2 0 9 2q4 2 9 3t15 1q12 0 25 -4q6 -2 8 -2v-639q63 98 159.5 152.5t223.5 54.5q145 0 227 -82t82 -221v-789q-2 -2 -8 -4t-25 -2q-18 0 -24 2t-8 4v772q0 135 -68 197.5t-197 62.5q-109 0 -209 -70.5t-153 -197.5v-764q-2 -2 -8 -4t-25 -2q-18 0 -24 2t-9 4 z" />
<glyph unicode="i" horiz-adv-x="450" d="M176 1309v86q4 0 12 2q16 4 37 4q20 0 37 -4q8 -2 12 -2v-86q-4 -2 -12 -4t-37 -2t-37 2t-12 4zM193 6v1065l6 2q8 4 26 4q10 0 15.5 -1t9.5 -3t8 -2v-1065l-8 -4q-6 -2 -25 -2q-23 0 -26 2q-6 2 -6 4z" />
<glyph unicode="j" horiz-adv-x="450" d="M-127 -477q0 12 4 24q2 6 4 9l25 -5q12 -2 28.5 -3t38.5 -1q111 0 165.5 61.5t54.5 203.5v1259l6 2q8 4 26 4q10 0 15.5 -1t9.5 -3t8 -2v-1251q0 -174 -72.5 -253t-195.5 -79q-33 0 -54.5 2t-35.5 6q-16 4 -25 10q-2 2 -2 5v12zM176 1309v86q4 0 12 2q16 4 37 4 q20 0 37 -4q8 -2 12 -2v-86q-4 -2 -12 -4t-37 -2t-37 2t-12 4z" />
<glyph unicode="k" horiz-adv-x="1011" d="M186 6v1524l7 2q8 4 26 4q10 0 15.5 -1t9.5 -3t8 -2v-936h252l336 477q4 0 10 2q12 4 33 4q10 0 16 -1t10 -1q4 -2 6 -2l-356 -506l406 -559q-2 -2 -9 -4q-12 -4 -30 -4q-20 0 -33 4q-8 2 -10 4l-379 524h-252v-526l-8 -4q-6 -2 -25 -2q-23 0 -26 2q-6 2 -7 4z" />
<glyph unicode="l" horiz-adv-x="458" d="M197 6v1524l6 2q8 4 26 4q10 0 15.5 -1t9.5 -3t8 -2v-1524l-8 -4q-6 -2 -25 -2q-23 0 -26 2q-6 2 -6 4z" />
<glyph unicode="m" horiz-adv-x="1726" d="M186 6v1065q2 0 9 2q4 2 9 3t15 1q12 0 25 -4q6 -2 8 -2v-178q59 96 149.5 150.5t210.5 54.5q59 0 103 -15q70 -23 114.5 -76t61.5 -130q59 104 152.5 162.5t218.5 58.5q135 0 210.5 -82t75.5 -221v-789q-2 -2 -8 -4t-24 -2t-25 2q-6 2 -8 4v772q0 137 -61.5 198.5 t-180.5 61.5q-102 0 -196.5 -72.5t-145.5 -201.5v-758q-2 -2 -8 -4t-25 -2q-18 0 -24 2t-8 4v772q0 137 -61.5 198.5t-180.5 61.5q-100 0 -194.5 -70.5t-145.5 -197.5v-764q-2 -2 -8 -4t-25 -2q-18 0 -24 2t-9 4z" />
<glyph unicode="n" horiz-adv-x="1122" d="M186 6v1065q2 0 9 2q4 2 9 3t15 1q12 0 25 -4q6 -2 8 -2v-180q63 98 159.5 152.5t223.5 54.5q145 0 227 -82t82 -221v-789q-2 -2 -8 -4t-25 -2q-18 0 -24 2t-8 4v772q0 135 -68 197.5t-197 62.5q-109 0 -209 -70.5t-153 -197.5v-764q-2 -2 -8 -4t-25 -2q-18 0 -24 2t-9 4 z" />
<glyph unicode="o" horiz-adv-x="1101" d="M135 539q0 152 27.5 258t82 172.5t131.5 97.5t175 31t175 -31t131 -97.5t82 -173t28 -257.5q0 -152 -28 -258.5t-82 -173t-131 -97t-175 -30.5t-175 30.5t-131.5 97t-82 173t-27.5 258.5zM205 539q0 -143 24.5 -238.5t68.5 -154t108.5 -83t144.5 -24.5t144.5 24.5 t108.5 83t68.5 153.5t24.5 239q0 143 -24.5 238t-68.5 153.5t-108.5 83t-144.5 24.5t-144.5 -24.5t-108.5 -83t-68.5 -153.5t-24.5 -238z" />
<glyph unicode="p" horiz-adv-x="1134" d="M186 -506v1577l7 2q8 4 26 4q10 0 15.5 -1t9.5 -3t8 -2v-172q47 92 128 145.5t214 53.5q94 0 169 -29t127 -94.5t79.5 -173t27.5 -262.5q0 -158 -27.5 -264.5t-79.5 -172t-127 -94t-169 -28.5q-133 0 -214 53t-128 145v-684l-8 -4q-6 -2 -25 -2q-23 0 -26 2q-6 2 -7 4z M252 410q0 -63 20.5 -129t61.5 -119t101.5 -87t142.5 -34q188 0 269 117.5t81 380.5q0 262 -81 379.5t-269 117.5q-80 0 -140.5 -32.5t-101.5 -84t-61.5 -115t-22.5 -124.5v-270z" />
<glyph unicode="q" horiz-adv-x="1134" d="M137 539q0 156 28 263t80 172.5t126.5 94.5t169.5 29q131 0 213 -53.5t129 -145.5v172l6 2q8 4 26 4q10 0 15.5 -1t9.5 -3t8 -2v-1577l-8 -4q-6 -2 -25 -2q-23 0 -26 2q-6 2 -6 4v684q-47 -92 -129 -145t-213 -53q-94 0 -169 28.5t-127 94t-80 172t-28 264.5zM207 539 q0 -262 81 -380t269 -118q80 0 139.5 31.5t100.5 83t62.5 115t23.5 126.5v283q-2 61 -23.5 124.5t-62.5 115t-100.5 84t-139.5 32.5q-188 0 -269 -117.5t-81 -379.5z" />
<glyph unicode="r" horiz-adv-x="790" d="M186 6v1065l7 2q8 4 26 4q10 0 15.5 -1t9.5 -3t8 -2v-205q41 72 83 117t82 69.5t77.5 34t70.5 9.5q41 0 72 -7.5t53 -15.5q25 -10 45 -22q-4 -39 -35 -56q-37 18 -70.5 27.5t-82.5 9.5q-88 0 -162 -81t-133 -197v-748l-8 -4q-6 -2 -25 -2q-23 0 -26 2q-6 2 -7 4z" />
<glyph unicode="s" horiz-adv-x="903" d="M127 43q-1 4 -1 7q0 12 5 22q6 14 16 22q41 -16 86 -26q39 -10 89.5 -18.5t107.5 -8.5q61 0 113.5 13.5t92.5 41t62.5 71.5t22.5 105q0 63 -24.5 104.5t-65.5 68t-92.5 42t-106.5 31.5q-55 14 -109.5 34.5t-98.5 53.5t-70.5 80t-26.5 117q0 131 87 213t267 82 q57 0 104.5 -7.5t82.5 -15.5q39 -10 71 -22q2 -14 -5 -29.5t-17 -24.5q-31 10 -68 19q-31 6 -72.5 12t-89.5 6q-143 0 -216.5 -59t-73.5 -172q0 -51 21.5 -87t56 -60.5t79.5 -42t95 -29.5q59 -16 120.5 -36t110.5 -52.5t81 -85t32 -136.5q0 -137 -88.5 -216.5t-268.5 -79.5 q-72 0 -129 9t-98 21q-47 14 -82 33z" />
<glyph unicode="t" horiz-adv-x="718" d="M70 1047q0 20 2 24t4 6h166v209q21 20 53 20q6 0 12 -1v-228h330q2 -2 4 -6q4 -8 4 -24t-4 -25q-2 -4 -4 -6h-330v-664q0 -80 10.5 -138t37 -96t71.5 -57.5t115 -19.5q49 0 84 6q20 2 37 6l4 -8q4 -12 4 -22q0 -8 -1 -12.5t-1 -8.5q-2 -4 -2 -6q-16 -4 -39 -8 q-18 -4 -43 -6t-56 -2q-84 0 -139 25.5t-88 72.5t-46 116.5t-13 157.5v664h-166q-2 2 -4 6t-2 25z" />
<glyph unicode="u" horiz-adv-x="1122" d="M178 283v788q2 0 8 2q4 2 9.5 3t15.5 1q12 0 25 -4q6 -2 8 -2v-772q0 -135 67.5 -197.5t196.5 -62.5q53 0 106.5 18.5t101.5 52t88 84t66 113.5v764q2 0 9 2q4 2 9 3t15 1q12 0 25 -4q6 -2 8 -2v-1065q-2 -2 -8 -4t-25 -2q-18 0 -24 2t-9 4v180q-66 -96 -162 -151 t-221 -55q-145 0 -227 81.5t-82 221.5z" />
<glyph unicode="v" horiz-adv-x="1019" d="M66 1071q2 0 8 2q12 4 28 4q14 0 27 -4q6 -2 8 -2l307 -778q16 -41 28.5 -77t21.5 -62q8 -31 16 -58h4q8 23 16 54q16 55 50 139l303 782l6 2q8 4 26 4q14 0 27 -4q6 -2 8 -2l-411 -1065q-2 -2 -7 -4q-4 -2 -20 -2t-20 2t-7 4z" />
<glyph unicode="w" horiz-adv-x="1619" d="M72 1071q2 0 8 2q12 4 26 4t27 -4q6 -2 8 -2l269 -809q12 -41 20 -70.5t12 -50.5q6 -23 9 -41h6q4 18 10 43q4 23 12 51.5t23 67.5l278 809q2 0 6 2q8 4 25 4q10 0 15 -1t10 -3q4 -2 8 -2l278 -805q14 -41 22.5 -70.5t12.5 -52.5q6 -25 6 -43h6q4 18 11 43q4 23 12 52.5 t22 70.5l267 805q2 0 8 2q4 2 9 3t15 1t15.5 -1t9.5 -3t8 -2l-352 -1065q-2 -2 -6 -4t-21 -2q-16 0 -20 2t-6 4l-254 731q-23 70 -37 117t-23 76q-8 33 -12 51h-6q-6 -20 -14 -53q-10 -29 -24.5 -75t-39.5 -116l-252 -731q-2 -2 -6 -4t-20 -2t-21 2q-4 2 -6 4z" />
<glyph unicode="x" horiz-adv-x="989" d="M68 6l383 543l-375 522q2 0 8 2q12 4 31 4q18 0 30 -4q6 -2 11 -2l344 -477l336 477l6 2q12 4 32 4q16 0 29 -4q6 -2 10 -2l-376 -530l385 -535q-2 -2 -9 -4q-6 -2 -30 -2q-25 0 -31 2t-10 4l-353 490l-344 -490q-2 -2 -8 -4t-35 -2q-20 0 -26 2t-8 4z" />
<glyph unicode="y" horiz-adv-x="1064" d="M66 1071q2 0 8 2q12 4 28 4q14 0 27 -4q6 -2 10 -2l340 -815q33 -80 53 -135q10 -31 21 -55h6q8 23 19 53q10 25 20 59.5t27 75.5l299 817q2 0 8 2q4 2 10 3t16 1q16 0 29 -4q6 -2 8 -2l-487 -1331q-41 -117 -94.5 -184.5t-151.5 -67.5q-43 0 -67 6q-14 2 -27 6 q-6 12 -6 29q0 20 8 31q10 -4 23 -6q10 -2 26.5 -3.5t36.5 -1.5q59 0 102 47.5t86 165.5l88 240q-6 4 -13 7t-13 7z" />
<glyph unicode="z" horiz-adv-x="919" d="M88 31q0 20 2 24t4 6l633 955h-582q-2 2 -4 6t-2 25q0 20 2 24t4 6h656q0 -2 2 -6q4 -8 4 -24t-4 -25q-2 -4 -2 -6l-631 -955h639q0 -2 2 -6q4 -8 4 -24t-4 -25q-2 -4 -2 -6h-715q-2 2 -4 6t-2 25z" />
<glyph unicode="{" horiz-adv-x="688" d="M80 684q0 20 2 27q2 6 4 8h72q47 0 66.5 32.5t19.5 73.5v561q0 123 67.5 198t204.5 75h82q0 -2 2 -8q4 -12 4 -25q0 -12 -4 -24q-2 -6 -2 -9h-72q-115 0 -164 -55t-49 -156v-520q0 -66 -11 -107.5t-50 -68.5q39 -27 50 -70t11 -108v-520q0 -102 49.5 -156.5t163.5 -54.5 h72q0 -2 2 -6q4 -8 4 -25q0 -10 -1 -16t-3 -11q-2 -6 -2 -8h-82q-137 0 -204.5 75t-67.5 198v561q0 41 -19.5 73.5t-66.5 32.5h-72q-2 2 -4 8t-2 25z" />
<glyph unicode="|" horiz-adv-x="499" d="M217 -397v2009l6 2q8 4 27 4q10 0 15 -1t9 -3t9 -2v-2009l-9 -4q-6 -2 -24 -2q-23 0 -27 2q-6 2 -6 4z" />
<glyph unicode="}" horiz-adv-x="688" d="M84 -256q0 18 2 25q2 6 4 8h72q115 0 164 55t49 156v520q0 66 11 107.5t50 68.5q-39 27 -50 70t-11 108v520q0 102 -49.5 156.5t-163.5 54.5h-72q-2 2 -4 6t-2 25q0 20 2 27q2 6 4 8h82q137 0 204.5 -75t67.5 -198v-561q0 -41 19.5 -73.5t66.5 -32.5h72q0 -2 2 -8 q4 -12 4 -25q0 -14 -4 -27q-2 -6 -2 -8h-72q-47 0 -66.5 -32.5t-19.5 -73.5v-561q0 -123 -67.5 -198t-204.5 -75h-82q-2 2 -4 8t-2 25z" />
<glyph unicode="~" horiz-adv-x="1101" d="M180 616q20 25 51 48q27 18 67 33.5t95 15.5q51 0 89 -16.5t74 -36t73 -36t86 -16.5q37 0 65.5 11.5t50.5 25.5q23 16 43 37q37 -6 50 -41q-20 -29 -52 -51q-27 -18 -66.5 -33.5t-98.5 -15.5q-51 0 -89 16t-74 35.5t-73 36t-86 16.5q-37 0 -66.5 -11t-50.5 -26 q-25 -16 -43 -37q-39 6 -45 45z" />
<glyph unicode="&#xa1;" horiz-adv-x="458" d="M180 969v86q4 0 13 2q16 4 36 4t37 -4q8 -2 13 -2v-86q-4 -2 -13 -4q-8 -2 -37 -2t-36 2q-8 2 -13 4zM195 -408l10 1156q0 2 4 4q8 4 20 4q10 0 19 -4q4 -2 6 -4l10 -1156q2 -2 0 -4q-4 -2 -35 -2q-33 0 -34 2q-4 2 0 4z" />
<glyph unicode="&#xa2;" horiz-adv-x="954" d="M145 539q0 262 100.5 403t286.5 154l-8 188q18 6 37 6q18 0 35 -6l-8 -186q53 -2 94 -9.5t70 -15.5q33 -10 55 -22q0 -39 -25 -58q-23 12 -53 21q-27 8 -62.5 14t-82.5 6q-190 0 -279.5 -125t-89.5 -370q0 -248 92 -370t285 -122q49 0 87 6t66 17q33 10 58 24 q25 -16 28 -55q-29 -16 -65 -29q-33 -10 -77 -19t-101 -11l8 -187q-16 -8 -37 -8q-20 0 -35 8l8 189q-186 12 -286.5 153t-100.5 404z" />
<glyph unicode="&#xa3;" horiz-adv-x="1048" d="M127 690q0 23 8 33h150q-29 82 -53.5 165t-24.5 169q0 94 29.5 161.5t83 111.5t128 64.5t166.5 20.5q63 0 118.5 -8t96.5 -18q47 -10 86 -25q2 -16 -4 -31.5t-20 -23.5q-37 12 -80 20q-37 8 -87 15.5t-108 7.5q-166 0 -250.5 -76t-84.5 -225q0 -78 27.5 -160t56.5 -168 h411q8 -16 8 -31q0 -20 -8 -35h-389q20 -70 32.5 -142.5t2.5 -146t-48 -150.5t-116 -152h655q8 -10 9 -33q0 -23 -9 -33h-757v66q90 78 133 153.5t54 148t-2 145.5t-36 144h-170q-8 16 -8 33z" />
<glyph unicode="&#xa4;" horiz-adv-x="1204" d="M154 150l153 151q-43 51 -67.5 115.5t-24.5 138.5q0 72 24.5 137.5t69.5 116.5l-155 152q0 2 2 8q2 8 14 20q6 4 11 7t9 5t9 3l155 -150q51 41 114.5 65.5t135.5 24.5t135.5 -24.5t114.5 -67.5l150 152q4 0 8 -3q4 -2 8 -5t12 -7q4 -6 8 -11t7 -9q2 -6 2 -8l-150 -152 q45 -53 69.5 -117.5t24.5 -136.5q0 -74 -24.5 -138.5t-69.5 -115.5l154 -151q0 -4 -2 -9q-2 -4 -5.5 -9t-7.5 -9q-6 -8 -11 -11t-9 -6q-6 -2 -8 -2l-154 154q-51 -43 -115.5 -67.5t-136.5 -24.5q-74 0 -138.5 24.5t-115.5 67.5l-151 -154q-4 0 -9 2q-10 4 -20 17q-6 4 -9 9 t-5 9t-2 9zM276 555q0 -70 26 -129t70 -103t104.5 -70t127.5 -26q70 0 129.5 26t103.5 70t69.5 103t25.5 129t-25.5 129t-69.5 103t-103.5 70t-129.5 26q-68 0 -128 -26t-104 -70t-70 -103t-26 -129z" />
<glyph unicode="&#xa5;" horiz-adv-x="1239" d="M86 1395q2 0 8 2q12 4 27 4q18 0 31 -4q6 -2 8 -2l450 -750l475 750q2 0 9 2q12 4 28 4t29 -4q6 -2 8 -2l-495 -783h335q0 -4 2 -8q4 -8 5 -20q0 -12 -5 -21q-2 -4 -2 -8h-356v-168h356q0 -4 2 -8q4 -8 5 -21q0 -12 -5 -20q-2 -4 -2 -8h-356v-324q-2 -2 -6 -4t-27 -2 t-26 2q-4 2 -6 4v324h-357l-4 8q-2 4 -2 20t2 21l4 8h357v168h-357l-4 8q-2 4 -2 21q0 16 2 20l4 8h336z" />
<glyph unicode="&#xa6;" horiz-adv-x="495" d="M213 -397v903q2 0 8 2q12 4 27 4q14 0 26 -4q6 -2 9 -2v-903q-2 -2 -9 -4q-6 -2 -26 -2t-27 2q-6 2 -8 4zM213 729v903q2 0 8 2q12 4 27 4q14 0 26 -4q6 -2 9 -2v-903q-2 -2 -9 -4q-6 -2 -26 -2t-27 2q-6 2 -8 4z" />
<glyph unicode="&#xa7;" horiz-adv-x="991" d="M154 711q0 51 19.5 92t47 71.5t57 51t52.5 32.5q-66 31 -111 80t-45 133q0 123 86 182.5t244 59.5q61 0 112.5 -7t85.5 -15q41 -8 76 -21q4 -16 -2 -31.5t-16 -23.5q-37 10 -76 18q-35 6 -77 12.5t-85 6.5q-82 0 -135 -13.5t-85 -37t-44 -56.5t-12 -71q0 -63 44 -102.5 t108.5 -66t141 -49t141 -54.5t109 -79t44.5 -125q0 -53 -17.5 -93t-43 -69.5t-53.5 -50t-46 -30.5q72 -31 122 -80t50 -135q0 -76 -29 -126.5t-80 -80t-120.5 -41.5t-149.5 -12q-68 0 -125 7t-98 17q-49 10 -86 25q-4 37 18 59q43 -12 90 -20q41 -8 89 -14.5t96 -6.5 q170 0 246.5 45.5t76.5 147.5q0 61 -46 98t-114.5 62.5t-149.5 47t-149.5 53t-114.5 81t-46 129.5zM225 719q0 -59 35 -97t89 -62.5t121 -42t132 -38.5q18 10 46 27.5t53.5 44.5t43 61.5t17.5 77.5q0 57 -34 93t-87 61.5t-119 45t-127 42.5q-23 -12 -52.5 -30.5t-56 -45.5 t-44 -61.5t-17.5 -75.5z" />
<glyph unicode="&#xa8;" horiz-adv-x="931" d="M264 1257v86q4 0 12 3q16 4 37 4q20 0 37 -4l12 -3v-86q-4 -2 -12 -4t-37 -2t-37 2t-12 4zM553 1257v86q4 0 12 3q16 4 37 4q20 0 37 -4l12 -3v-86q-4 -2 -12 -4t-37 -2t-37 2t-12 4z" />
<glyph unicode="&#xa9;" horiz-adv-x="1656" d="M143 696q0 141 54.5 266t147.5 218.5t218 146.5t266 53t266.5 -53t218.5 -146.5t146 -218t53 -266.5q0 -141 -53 -266t-146 -218t-218.5 -147.5t-266.5 -54.5t-266 54.5t-218 147.5t-147.5 218t-54.5 266zM201 696q0 -129 49 -243.5t135 -200.5t200.5 -135t243.5 -49 t244 49t200 135t134 200.5t49 243.5t-49 244t-134 200t-200 134t-244 49t-243.5 -49t-200.5 -134t-135 -200t-49 -244zM489 711q0 408 342 407q51 0 89 -7t65 -15q31 -10 51 -23q0 -29 -22 -45q-25 10 -51 19q-23 6 -54.5 12t-66.5 6q-154 0 -222.5 -82t-68.5 -272 q0 -354 291 -355q37 0 70.5 5.5t58.5 11.5q29 8 53 18q18 -10 23 -43q-23 -14 -56 -24q-29 -10 -68 -16.5t-92 -6.5q-174 0 -258 105.5t-84 304.5z" />
<glyph unicode="&#xaa;" horiz-adv-x="737" d="M129 797q0 88 55.5 139t173.5 51q63 0 113.5 -4t73.5 -8v94q0 98 -42 137t-126 39q-37 0 -71 -5t-58 -11q-29 -8 -53 -17q-8 6 -12.5 18.5t-2.5 22.5q29 10 62 19q29 6 64.5 12t76.5 6q111 0 160 -53t49 -156v-456q-2 -2 -4 -2q-4 -2 -15 -2q-12 0 -16 2q-4 0 -4 2l-8 96 q-31 -55 -88 -85t-133 -30q-86 0 -140.5 50.5t-54.5 140.5zM131 479q0 10 2 15q0 4 2 6h451q4 -8 4 -21q0 -6 -1 -9t-1 -7q-2 -4 -2 -6h-451q-2 2 -2 6q-2 4 -2 16zM178 797q0 -76 40 -111t110 -35q92 0 152.5 55.5t64.5 159.5v68q-23 2 -74 6t-104 4q-98 0 -143.5 -35.5 t-45.5 -111.5z" />
<glyph unicode="&#xab;" horiz-adv-x="995" d="M113 553q0 16 2 20l4 9l424 460q12 -6 19 -20t7 -31l-397 -438l397 -440q0 -39 -26 -52l-424 463l-4 8q-2 4 -2 21zM442 553q0 16 2 20q0 4 2 7l383 417q12 -6 18.5 -19t6.5 -30l-352 -395l352 -397q0 -37 -25 -50l-383 420q-2 2 -2 6q-2 4 -2 21z" />
<glyph unicode="&#xac;" horiz-adv-x="1232" d="M139 868q0 16 2 23l4 8h902v-512l-9 -4q-6 -2 -22 -2q-20 0 -25 2q-4 2 -6 4v451h-840q-2 2 -4 8q-2 4 -2 22z" />
<glyph unicode="&#xad;" horiz-adv-x="573" />
<glyph unicode="&#xae;" horiz-adv-x="1110" d="M135 965q0 86 33 162.5t90 134t134 90t163 32.5t163 -32.5t134 -90t90 -134t33 -162.5t-33 -163t-90 -134.5t-134 -90t-163 -32.5t-163 32.5t-134 90t-90 134.5t-33 163zM172 965q0 -80 29.5 -151t82 -123t122 -81.5t149.5 -29.5t149.5 29.5t122 81.5t82 123t29.5 151 t-29.5 149.5t-82 121.5t-122 83t-149.5 31t-149.5 -31t-122 -83t-82 -122t-29.5 -149zM414 743v463h176q143 0 143 -133q0 -47 -19.5 -76.5t-70.5 -46.5l119 -205q0 -2 -4 -4t-17 -2q-12 0 -16 2q-4 0 -6 2l-117 203h-151v-203q-2 -2 -5 -2q-4 -2 -14 -2q-12 0 -14 2 q-4 0 -4 2zM451 981h141q57 0 79.5 23.5t22.5 68.5q0 49 -22.5 73.5t-79.5 24.5h-141v-190z" />
<glyph unicode="&#xaf;" horiz-adv-x="833" d="M104 1323q0 18 9 33h579q8 -10 8 -31q0 -20 -8 -35h-579q-8 14 -9 33z" />
<glyph unicode="&#xb0;" horiz-adv-x="749" d="M133 1264q0 45 15.5 88t46 77.5t76.5 56t108 21.5q59 0 104 -20.5t75 -54t44 -76.5t14 -86q0 -45 -14 -88t-44 -77t-75 -54.5t-104 -20.5q-63 0 -109.5 20.5t-77 53.5t-45 75t-14.5 85zM174 1266q0 -37 12.5 -73t37 -63.5t62.5 -44t91 -16.5q51 0 88 16.5t61.5 44 t36.5 63.5t12 75t-12 74.5t-36.5 63.5t-61.5 45t-88 17t-89 -17t-63.5 -46t-38 -65.5t-12.5 -73.5z" />
<glyph unicode="&#xb1;" horiz-adv-x="1048" d="M180 336q0 20 2 24t4 7h676q0 -2 2 -7q4 -8 4 -24t-4 -25q-2 -4 -2 -6h-676q-2 2 -4 6t-2 25zM180 823q0 20 2 25q2 4 4 6h308v246q2 0 6 2q8 4 24 4t25 -4q4 -2 6 -2v-246h307q0 -2 2 -6q4 -8 4 -25q0 -16 -4 -24q-2 -4 -2 -6h-307v-246q-2 -2 -6 -4t-25 -2q-20 0 -24 2 t-6 4v246h-308q-2 2 -4 6t-2 24z" />
<glyph unicode="&#xb2;" horiz-adv-x="616" d="M78 793q0 70 29.5 113.5t72.5 74.5t95.5 53.5t95.5 48t72.5 60.5t29.5 90q0 27 -8 52.5t-29.5 46t-56.5 32.5t-90 12q-29 0 -56.5 -3t-50.5 -7q-25 -6 -47 -10q-12 20 -10 41q20 6 47 12q23 4 53.5 8t69.5 4q63 0 107 -14t71 -39t38 -58.5t11 -72.5q0 -70 -31.5 -112 t-78.5 -71.5t-100.5 -53t-97.5 -54.5t-69.5 -75t-17.5 -115h391q6 -10 6 -25q0 -14 -6 -22h-432l-4 24q-2 10 -3 26t-1 34z" />
<glyph unicode="&#xb3;" horiz-adv-x="616" d="M86 725q-4 25 12 37q23 -6 47 -10q47 -10 113 -11q70 0 114 13.5t66.5 35t30.5 50t8 57.5q0 86 -52 122t-130 36h-88q-12 23 0 45h88q78 0 118 37t40 102q0 68 -44 102.5t-128 34.5q-37 0 -67 -3t-52 -7q-25 -4 -47 -8q-14 16 -11 39q23 6 50 12q23 4 54.5 8t72.5 4 q111 0 166 -47t55 -133q0 -59 -22.5 -98t-76.5 -64q55 -23 89 -60.5t34 -121.5q0 -41 -12 -77t-43 -62.5t-82 -43t-129 -16.5q-39 0 -70.5 4.5t-54.5 8.5q-27 6 -49 14z" />
<glyph unicode="&#xb4;" horiz-adv-x="458" d="M68 1346l239 307q43 0 66 -35l-256 -301q-37 2 -49 29z" />
<glyph unicode="&#xb5;" horiz-adv-x="1177" d="M207 -29v1100l6 2q8 4 27 4q10 0 15 -1t9 -3t8 -2v-776q0 -53 12.5 -100.5t43 -82t82 -54t129.5 -19.5q63 0 120.5 23.5t103.5 60.5t81 85t55 97v766l6 2q8 4 27 4q10 0 15 -1t9 -3t9 -2v-1065l-9 -4q-6 -2 -24 -2q-23 0 -27 2q-6 2 -6 4v182q-66 -98 -161 -153t-214 -55 q-109 0 -167 32.5t-89 71.5q2 -176 11.5 -287.5t19.5 -177.5q10 -76 25 -113q-27 -27 -72 -16q-14 45 -23 113q-10 59 -16 149t-6 219z" />
<glyph unicode="&#xb6;" horiz-adv-x="886" d="M100 1247q0 35 12.5 68t35 59.5t57.5 42t80 15.5h55v-1891q-2 -2 -6 -4t-25 -2q-20 0 -24 2t-6 4v1520q-92 4 -135.5 60.5t-43.5 125.5zM602 -459v1884q2 0 6 2q8 4 25 5q16 0 24 -5q4 -2 7 -2v-1884q-2 -2 -7 -4q-4 -2 -24 -2t-25 2q-4 2 -6 4z" />
<glyph unicode="&#xb7;" horiz-adv-x="442" d="M172 539v86q4 0 12 2q16 4 37 4q20 0 37 -4q8 -2 12 -2v-86q-4 -2 -12 -4t-37 -3q-29 0 -37 3q-8 2 -12 4z" />
<glyph unicode="&#xb8;" horiz-adv-x="606" d="M104 -385q2 29 23 45q20 -10 45 -18q23 -8 50.5 -13.5t62.5 -5.5q78 0 118.5 36t40.5 108q0 123 -149 122h-64l-14 17l31 174l55 -4l-22 -129q121 0 176 -47t55 -133q0 -199 -229 -199q-39 0 -72 6t-55 16q-29 10 -52 25z" />
<glyph unicode="&#xb9;" horiz-adv-x="491" d="M68 1257q72 18 137 62.5t104 87.5q8 4 25 4q18 0 22 -4v-694q-8 -4 -22 -4q-16 0 -25 4v544v45.5t2 38.5q-47 -41 -104 -73.5t-129 -50.5q-18 13 -10 40z" />
<glyph unicode="&#xba;" horiz-adv-x="776" d="M131 948q0 178 61.5 260t194.5 82q131 0 194.5 -81t63.5 -261t-63.5 -262t-194.5 -82q-133 0 -194.5 82t-61.5 262zM152 479q0 10 2 15q0 4 2 6h462l3 -4q0 -4 1 -8.5t1 -8.5q0 -6 -1 -9t-1 -7l-3 -6h-462q-2 2 -2 6q-2 4 -2 16zM180 948q0 -160 47 -229.5t160 -69.5 q111 0 160 69.5t49 229.5q0 156 -49 226.5t-160 70.5q-113 0 -160 -70.5t-47 -226.5z" />
<glyph unicode="&#xbb;" horiz-adv-x="995" d="M143 156l353 397l-353 395q0 16 6.5 29.5t18.5 19.5l383 -417q0 -2 2 -7q0 -4 1 -9t1 -11q0 -8 -1 -12t-1 -9q-2 -4 -2 -6l-383 -420q-25 12 -25 50zM428 113l397 440l-397 438q0 16 7 30.5t20 20.5l424 -460q0 -4 2 -9q4 -8 4 -20t-4 -21q-2 -4 -2 -8l-424 -463 q-27 12 -27 52z" />
<glyph unicode="&#xbc;" d="M88 1257q72 18 137.5 62.5t104.5 87.5q8 4 24 4q18 0 23 -4v-694q-8 -4 -23 -4q-16 0 -24 4v544v45.5t2 38.5q-47 -41 -104.5 -73.5t-129.5 -50.5q-18 13 -10 40zM231 -16l797 1448q2 0 6 2q8 4 21 4q10 0 18 -4q4 -2 6 -2l-794 -1448q-2 -2 -6 -2q-4 -2 -21 -2 q-16 0 -20 2q-4 0 -7 2zM686 213q0 10 2 12q0 2 2 4l375 469q2 0 6 2q4 0 7 1t12 1q6 0 10 -1t8 -1q4 -2 6 -2v-452h88q0 -2 2 -6q0 -4 1 -8.5t1 -8.5q0 -6 -1 -10t-1 -8q-2 -4 -2 -6h-88v-195q-2 -2 -6 -2q-4 -2 -16 -2q-14 0 -19 2q-4 0 -6 2v195h-377q-2 2 -2 4 q-2 2 -2 10zM760 246h307v383z" />
<glyph unicode="&#xbd;" horiz-adv-x="1435" d="M88 1257q72 18 137.5 62.5t104.5 87.5q8 4 24 4q18 0 23 -4v-694q-8 -4 -23 -4q-16 0 -24 4v544v45.5t2 38.5q-47 -41 -104.5 -73.5t-129.5 -50.5q-18 13 -10 40zM231 -16l797 1448q2 0 6 2q8 4 21 4q10 0 18 -4q4 -2 6 -2l-794 -1448q-2 -2 -6 -2q-4 -2 -21 -2 q-16 0 -20 2q-4 0 -7 2zM870 84q0 70 30 114t73 74.5t95 53t95 48t73 60.5t30 90q0 27 -8.5 52.5t-30 46t-56 33t-90.5 12.5q-29 0 -56.5 -3t-49.5 -8q-25 -6 -47 -10q-12 20 -10 41q20 6 47 12q23 4 53.5 8.5t68.5 4.5q63 0 107.5 -14.5t71 -39t38 -58.5t11.5 -73 q0 -70 -32 -111.5t-79 -71.5t-100 -53.5t-97 -54t-70 -74.5t-17 -116h391q6 -10 6 -24t-6 -23h-432q-2 12 -5 25q-2 10 -3 25.5t-1 33.5z" />
<glyph unicode="&#xbe;" horiz-adv-x="1429" d="M123 725q-4 25 12 37q23 -6 47 -10q47 -10 113 -11q70 0 114 13.5t66.5 35t30.5 50t8 57.5q0 86 -52 122t-130 36h-88q-12 23 0 45h88q78 0 117.5 37t39.5 102q0 68 -44 102.5t-128 34.5q-37 0 -66.5 -3t-51.5 -7q-25 -4 -47 -8q-14 16 -11 39q23 6 49 12q23 4 54.5 8 t72.5 4q111 0 166.5 -47t55.5 -133q0 -59 -22.5 -98t-76.5 -64q55 -23 89 -60.5t34 -121.5q0 -41 -12 -77t-43 -62.5t-82 -43t-129 -16.5q-39 0 -70.5 4.5t-54.5 8.5q-27 6 -49 14zM352 -16l797 1448q2 0 6 2q8 4 21 4q10 0 18 -4q4 -2 6 -2l-794 -1448q-2 -2 -7 -2 q-4 -2 -20 -2t-21 2q-4 0 -6 2zM807 213q0 10 2 12q0 2 2 4l375 469q2 0 6 2q4 0 7 1t11 1q6 0 10.5 -1t8.5 -1q4 -2 6 -2v-452h88q0 -2 2 -6q0 -4 1 -8.5t1 -8.5q0 -6 -1 -10t-1 -8q-2 -4 -2 -6h-88v-195q-2 -2 -6 -2q-4 -2 -17 -2q-14 0 -18 2q-4 0 -6 2v195h-377 q-2 2 -2 4q-2 2 -2 10zM881 246h307v383z" />
<glyph unicode="&#xbf;" horiz-adv-x="860" d="M106 -31q0 102 29 170t73 119t94 94t94 96.5t73 124t29 179.5q2 2 8 4q8 4 22 4q12 0 21 -4l8 -4q0 -119 -27.5 -197t-70.5 -133t-91.5 -97t-91.5 -89.5t-70.5 -108.5t-27.5 -154q0 -51 15.5 -98t50.5 -82t92 -56.5t141 -21.5q66 0 118 7.5t89 17.5q43 10 76 27 q12 -8 18 -22.5t4 -29.5q-39 -18 -86 -32q-41 -12 -97 -21.5t-128 -9.5q-98 0 -168 26.5t-113 70.5t-63.5 101.5t-20.5 118.5zM477 973v86q4 0 12 2q16 4 37 4q20 0 37 -4q8 -2 12 -2v-86q-4 -2 -12 -4t-37 -2t-37 2t-12 4z" />
<glyph unicode="&#xc0;" d="M47 6l580 1462q2 0 6 2q8 4 22 5q12 0 21 -5q4 -2 8 -2l580 -1462q-2 -2 -9 -4q-6 -2 -28 -2q-20 0 -27 2q-6 2 -10 4l-174 440h-723l-176 -440q-2 -2 -8 -4t-29 -2t-27 2t-6 4zM317 512h672l-307 780q-8 18 -12 32.5t-8 25.5q-4 10 -5 20h-4q-2 -10 -6 -20t-9 -24.5 t-11 -33.5zM451 1851q10 14 27.5 24.5t37.5 10.5l240 -307q-12 -27 -49 -29z" />
<glyph unicode="&#xc1;" d="M47 6l580 1462q2 0 6 2q8 4 22 5q12 0 21 -5q4 -2 8 -2l580 -1462q-2 -2 -9 -4q-6 -2 -28 -2q-20 0 -27 2q-6 2 -10 4l-174 440h-723l-176 -440q-2 -2 -8 -4t-29 -2t-27 2t-6 4zM317 512h672l-307 780q-8 18 -12 32.5t-8 25.5q-4 10 -5 20h-4q-2 -10 -6 -20t-9 -24.5 t-11 -33.5zM567 1581l240 307q43 0 65 -35l-256 -301q-37 2 -49 29z" />
<glyph unicode="&#xc2;" d="M47 6l580 1462q2 0 6 2q8 4 22 5q12 0 21 -5q4 -2 8 -2l580 -1462q-2 -2 -9 -4q-6 -2 -28 -2q-20 0 -27 2q-6 2 -10 4l-174 440h-723l-176 -440q-2 -2 -8 -4t-29 -2t-27 2t-6 4zM317 512h672l-307 780q-8 18 -12 32.5t-8 25.5q-4 10 -5 20h-4q-2 -10 -6 -20t-9 -24.5 t-11 -33.5zM375 1622l254 207h53l252 -207q-6 -35 -33 -41l-248 184l-243 -186q-29 12 -35 43z" />
<glyph unicode="&#xc3;" d="M47 6l580 1462q2 0 6 2q8 4 22 5q12 0 21 -5q4 -2 8 -2l580 -1462q-2 -2 -9 -4q-6 -2 -28 -2q-20 0 -27 2q-6 2 -10 4l-174 440h-723l-176 -440q-2 -2 -8 -4t-29 -2t-27 2t-6 4zM317 512h672l-307 780q-8 18 -12 32.5t-8 25.5q-4 10 -5 20h-4q-2 -10 -6 -20t-9 -24.5 t-11 -33.5zM408 1626q12 27 32 49q16 18 43 33.5t68 15.5q37 0 64.5 -11t52 -25.5t49 -25.5t53.5 -11q23 0 37 9t24 19q10 12 19 31q35 4 53 -22q-12 -27 -33 -50q-16 -18 -43.5 -32.5t-66.5 -14.5q-37 0 -64.5 11.5t-52.5 25.5t-49.5 25.5t-52.5 11.5q-23 0 -37.5 -10 t-24.5 -21q-10 -14 -18 -30q-39 -4 -53 22z" />
<glyph unicode="&#xc4;" d="M47 6l580 1462q2 0 6 2q8 4 22 5q12 0 21 -5q4 -2 8 -2l580 -1462q-2 -2 -9 -4q-6 -2 -28 -2q-20 0 -27 2q-6 2 -10 4l-174 440h-723l-176 -440q-2 -2 -8 -4t-29 -2t-27 2t-6 4zM317 512h672l-307 780q-8 18 -12 32.5t-8 25.5q-4 10 -5 20h-4q-2 -10 -6 -20t-9 -24.5 t-11 -33.5zM461 1624v86q4 0 12 2q16 4 37 4q20 0 37 -4q8 -2 12 -2v-86q-4 -2 -12 -4t-37 -2t-37 2t-12 4zM750 1624v86q4 0 12 2q16 4 37 4q20 0 37 -4q8 -2 12 -2v-86q-4 -2 -12 -4t-37 -2t-37 2t-12 4z" />
<glyph unicode="&#xc5;" d="M47 6l563 1421q-37 6 -69.5 23.5t-58 44.5t-41 63.5t-15.5 81.5q0 51 19.5 91.5t51 68t73.5 40.5t85 13t85 -13t74 -39.5t52.5 -66.5t20.5 -94q0 -45 -15.5 -81.5t-42 -63.5t-59.5 -44t-70 -24l564 -1421q-2 -2 -9 -4q-6 -2 -28 -2q-20 0 -27 2q-6 2 -10 4l-174 440h-723 l-176 -440q-2 -2 -8 -4t-29 -2t-27 2t-6 4zM317 512h672l-307 780q-8 18 -12 32.5t-8 25.5q-4 10 -5 20h-4q-2 -10 -6 -20t-9 -24.5t-11 -33.5zM492 1640q0 -59 38.5 -108t122.5 -49t126 49t42 108t-41 106.5t-127 47.5q-84 0 -122.5 -47t-38.5 -107z" />
<glyph unicode="&#xc6;" horiz-adv-x="1736" d="M31 6l887 1469h686q8 -12 8 -32t-8 -34h-603v-629h500q16 -35 0 -65h-500v-649h623q8 -14 8 -33t-8 -33h-692v420h-578l-250 -414q-16 -6 -34 -6q-27 0 -39 6zM393 485h539v891z" />
<glyph unicode="&#xc7;" horiz-adv-x="1136" d="M150 737q0 381 131 569.5t405 188.5q84 0 147.5 -10t106.5 -23q51 -14 86 -32v-11q0 -12 -4 -20t-7 -11.5t-7 -7.5l-7 -6q-35 16 -81 29q-41 10 -97.5 19.5t-126.5 9.5q-106 0 -193 -34t-149.5 -114t-96.5 -214t-34 -335t34 -334t95.5 -211.5t148.5 -111.5t195 -33 q76 0 136.5 9t103.5 20q51 12 88 28q2 0 6 -4q10 -10 14 -18q4 -10 5 -23v-10q-37 -20 -91 -35q-47 -12 -113.5 -22t-158.5 -10h-10l-37 -132q121 0 176 -47t55 -133q0 -98 -57 -139t-172 -41q-39 0 -71.5 6t-55.5 17q-29 10 -51 24q2 29 22 45q20 -10 45 -18 q23 -8 50.5 -13.5t62.5 -5.5q78 0 121 27t43 98q0 59 -41 91t-113 32h-63l-15 16l50 175q-242 20 -358.5 204.5t-116.5 550.5z" />
<glyph unicode="&#xc8;" horiz-adv-x="1140" d="M219 0v1475h789q6 -12 6 -33q0 -20 -6 -33h-719v-629h616q6 -12 6 -30t-6 -33h-616v-651h739q6 -16 6 -31q0 -20 -6 -35h-809zM383 1851q10 14 27.5 24.5t38.5 10.5l239 -307q-12 -27 -49 -29z" />
<glyph unicode="&#xc9;" horiz-adv-x="1140" d="M219 0v1475h789q6 -12 6 -33q0 -20 -6 -33h-719v-629h616q6 -12 6 -30t-6 -33h-616v-651h739q6 -16 6 -31q0 -20 -6 -35h-809zM455 1583l239 307q43 0 66 -35l-256 -301q-37 2 -49 29z" />
<glyph unicode="&#xca;" horiz-adv-x="1140" d="M219 0v1475h789q6 -12 6 -33q0 -20 -6 -33h-719v-629h616q6 -12 6 -30t-6 -33h-616v-651h739q6 -16 6 -31q0 -20 -6 -35h-809zM324 1622l254 207h53l252 -207q-6 -35 -33 -41l-248 184l-244 -186q-29 12 -34 43z" />
<glyph unicode="&#xcb;" horiz-adv-x="1140" d="M219 0v1475h789q6 -12 6 -33q0 -20 -6 -33h-719v-629h616q6 -12 6 -30t-6 -33h-616v-651h739q6 -16 6 -31q0 -20 -6 -35h-809zM434 1599v87q4 0 12 2q16 4 37 4q20 0 37 -4q8 -2 12 -2v-87q-4 -2 -12 -4t-37 -2t-37 2t-12 4zM723 1599v87q4 0 12 2q16 4 37 4q20 0 37 -4 q8 -2 12 -2v-87q-4 -2 -12 -4t-37 -2t-37 2t-12 4z" />
<glyph unicode="&#xcc;" horiz-adv-x="503" d="M59 1851q10 14 27.5 24.5t38.5 10.5l240 -307q-12 -27 -50 -29zM217 6v1462q2 0 8 2q12 4 27 5q14 0 27 -5q6 -2 8 -2v-1462q-2 -2 -8 -4t-27 -2q-20 0 -27 2q-6 2 -8 4z" />
<glyph unicode="&#xcd;" horiz-adv-x="503" d="M111 1583l239 307q43 0 66 -35l-256 -301q-37 2 -49 29zM217 6v1462q2 0 8 2q12 4 27 5q14 0 27 -5q6 -2 8 -2v-1462q-2 -2 -8 -4t-27 -2q-20 0 -27 2q-6 2 -8 4z" />
<glyph unicode="&#xce;" horiz-adv-x="503" d="M-29 1622l254 207h54l251 -207q-6 -35 -32 -41l-248 184l-244 -186q-29 12 -35 43zM217 6v1462q2 0 8 2q12 4 27 5q14 0 27 -5q6 -2 8 -2v-1462q-2 -2 -8 -4t-27 -2q-20 0 -27 2q-6 2 -8 4z" />
<glyph unicode="&#xcf;" horiz-adv-x="503" d="M59 1583v86q4 0 13 2q16 4 37 4q20 0 36 -4q8 -2 13 -2v-86q-4 -2 -13 -4q-8 -2 -36 -2q-29 0 -37 2t-13 4zM217 6v1462q2 0 8 2q12 4 27 5q14 0 27 -5q6 -2 8 -2v-1462q-2 -2 -8 -4t-27 -2q-20 0 -27 2q-6 2 -8 4zM348 1583v86q4 0 12 2q16 4 37 4q20 0 37 -4 q8 -2 12 -2v-86q-4 -2 -12 -4t-37 -2t-37 2t-12 4z" />
<glyph unicode="&#xd0;" horiz-adv-x="1359" d="M47 731q0 16 2 23l4 8h178v713h387q147 0 258 -35t184 -120t109.5 -226.5t36.5 -356.5t-36.5 -356t-109.5 -226t-183.5 -120t-258.5 -35h-387v700h-178q-2 2 -4 9q-2 4 -2 22zM301 66h309q129 0 226.5 29.5t163 105t99.5 206t34 330.5q0 201 -34 331t-99.5 206 t-163 105.5t-226.5 29.5h-309v-647h315q0 -4 2 -8q4 -12 5 -23q0 -10 -5 -22q-2 -6 -2 -9h-315v-634z" />
<glyph unicode="&#xd1;" horiz-adv-x="1413" d="M217 6v1462q4 0 10 2q12 4 31 5q16 0 29 -5q6 -2 10 -2l733 -1187q23 -37 41.5 -71t32.5 -58q16 -31 29 -56h4q-2 31 -4 68q-2 33 -3.5 78t-1.5 100v1126q2 0 9 2q12 4 26 5q12 0 25 -5q6 -2 8 -2v-1462q-4 -2 -10 -4t-29 -2q-25 0 -31 2t-10 4l-739 1204 q-27 41 -45.5 73t-28.5 54q-12 25 -20 45h-4q0 -25 2 -61q2 -33 3 -83t1 -122v-1110q-2 -2 -9 -4q-6 -2 -26 -2q-18 0 -25 2q-6 2 -8 4zM473 1612q12 27 33 49q16 18 42.5 33.5t67.5 15.5q37 0 65 -11t52.5 -25.5t49 -26t53.5 -11.5q23 0 37 9.5t24 19.5q10 12 18 31 q35 4 54 -23q-12 -27 -33 -49q-16 -18 -44 -32.5t-67 -14.5q-37 0 -64.5 11t-52 25.5t-49 26t-53.5 11.5q-23 0 -37 -10.5t-24 -20.5q-10 -14 -19 -31q-39 -4 -53 23z" />
<glyph unicode="&#xd2;" horiz-adv-x="1388" d="M152 737q0 199 36.5 342.5t107.5 235.5t171 136t227 44t227.5 -44t171 -136t107.5 -235.5t37 -342.5t-37 -342t-107.5 -235t-171 -136t-227.5 -44t-227 44t-171 136t-107.5 235.5t-36.5 341.5zM225 737q0 -188 33 -320t94.5 -216t147.5 -122t194 -38q106 0 193.5 38 t149 122t94 216t32.5 320t-32.5 320.5t-94 216.5t-149 122t-193.5 38q-109 0 -194.5 -38t-147 -122t-94.5 -216t-33 -321zM532 1851q10 14 28 24.5t38 10.5l240 -307q-12 -27 -50 -29z" />
<glyph unicode="&#xd3;" horiz-adv-x="1388" d="M152 737q0 199 36.5 342.5t107.5 235.5t171 136t227 44t227.5 -44t171 -136t107.5 -235.5t37 -342.5t-37 -342t-107.5 -235t-171 -136t-227.5 -44t-227 44t-171 136t-107.5 235.5t-36.5 341.5zM225 737q0 -188 33 -320t94.5 -216t147.5 -122t194 -38q106 0 193.5 38 t149 122t94 216t32.5 320t-32.5 320.5t-94 216.5t-149 122t-193.5 38q-109 0 -194.5 -38t-147 -122t-94.5 -216t-33 -321zM666 1583l239 307q43 0 66 -35l-256 -301q-37 2 -49 29z" />
<glyph unicode="&#xd4;" horiz-adv-x="1388" d="M152 737q0 199 36.5 342.5t107.5 235.5t171 136t227 44t227.5 -44t171 -136t107.5 -235.5t37 -342.5t-37 -342t-107.5 -235t-171 -136t-227.5 -44t-227 44t-171 136t-107.5 235.5t-36.5 341.5zM225 737q0 -188 33 -320t94.5 -216t147.5 -122t194 -38q106 0 193.5 38 t149 122t94 216t32.5 320t-32.5 320.5t-94 216.5t-149 122t-193.5 38q-109 0 -194.5 -38t-147 -122t-94.5 -216t-33 -321zM418 1622l254 207h53l252 -207q-6 -35 -33 -41l-248 184l-243 -186q-29 12 -35 43z" />
<glyph unicode="&#xd5;" horiz-adv-x="1388" d="M152 737q0 199 36.5 342.5t107.5 235.5t171 136t227 44t227.5 -44t171 -136t107.5 -235.5t37 -342.5t-37 -342t-107.5 -235t-171 -136t-227.5 -44t-227 44t-171 136t-107.5 235.5t-36.5 341.5zM225 737q0 -188 33 -320t94.5 -216t147.5 -122t194 -38q106 0 193.5 38 t149 122t94 216t32.5 320t-32.5 320.5t-94 216.5t-149 122t-193.5 38q-109 0 -194.5 -38t-147 -122t-94.5 -216t-33 -321zM471 1636q12 27 33 50q16 18 42.5 33.5t67.5 15.5q37 0 65 -11.5t52.5 -26t49 -25.5t53.5 -11q23 0 37 9t24 20q10 12 18 30q35 4 54 -22 q-12 -27 -33 -49q-16 -18 -44 -32.5t-67 -14.5q-37 0 -64.5 11t-52 25.5t-49 25.5t-53.5 11q-23 0 -37 -10t-24 -20q-10 -14 -19 -31q-39 -4 -53 22z" />
<glyph unicode="&#xd6;" horiz-adv-x="1388" d="M152 737q0 199 36.5 342.5t107.5 235.5t171 136t227 44t227.5 -44t171 -136t107.5 -235.5t37 -342.5t-37 -342t-107.5 -235t-171 -136t-227.5 -44t-227 44t-171 136t-107.5 235.5t-36.5 341.5zM225 737q0 -188 33 -320t94.5 -216t147.5 -122t194 -38q106 0 193.5 38 t149 122t94 216t32.5 320t-32.5 320.5t-94 216.5t-149 122t-193.5 38q-109 0 -194.5 -38t-147 -122t-94.5 -216t-33 -321zM498 1624v86q4 0 12 2q16 4 37 4q20 0 37 -4q8 -2 12 -2v-86q-4 -2 -12 -4t-37 -2t-37 2t-12 4zM786 1624v86q4 0 13 2q16 4 37 4q20 0 36 -4 q8 -2 13 -2v-86q-4 -2 -13 -4q-8 -2 -36 -2q-29 0 -37 2t-13 4z" />
<glyph unicode="&#xd7;" horiz-adv-x="927" d="M178 356l236 236l-236 235q0 2 4 9q4 6 19 20q4 6 10 9t10 7q6 2 8 5l236 -234l235 234q2 -2 9 -5q4 -4 9 -7t11 -9t9 -11t7 -9q2 -6 5 -9l-234 -235l234 -236q-2 -2 -5 -8q-4 -4 -7 -10t-9 -10q-14 -14 -20 -19q-6 -4 -9 -4l-235 236l-236 -236q-2 0 -8 4q-14 8 -20 19 q-10 6 -19 20q-4 6 -4 8z" />
<glyph unicode="&#xd8;" horiz-adv-x="1388" d="M152 737q0 199 36.5 342.5t107.5 235.5t171 136t227 44q188 0 312 -92l88 160q4 2 10 4q12 4 29 4q18 0 30 -4q6 -2 8 -4l-114 -207q88 -90 134 -242.5t46 -376.5q0 -199 -37 -342t-107.5 -235t-171 -136t-227.5 -44q-102 0 -187 27.5t-151 86.5l-102 -184q-4 -2 -10 -4 t-29 -2t-29 2t-8 4l129 235q-76 92 -115.5 237.5t-39.5 354.5zM225 737q0 -184 31 -312t88 -214l629 1132q-111 91 -279 91q-109 0 -194.5 -38t-147 -122t-94.5 -216t-33 -321zM391 156q59 -59 135 -87t168 -28q106 0 193.5 38t149 122t94 216t32.5 320q0 201 -36.5 336 t-104.5 219z" />
<glyph unicode="&#xd9;" horiz-adv-x="1357" d="M207 455v1013q2 0 8 2q12 4 27 5q14 0 26 -5q6 -2 8 -2v-1022q0 -195 106.5 -300t299.5 -105q190 0 295.5 105.5t105.5 299.5v1022q2 0 9 2q12 4 24 5q14 0 27 -5q6 -2 8 -2v-1013q0 -115 -34 -203t-96.5 -148.5t-149.5 -92t-193 -31.5t-193.5 31.5t-149 92t-95 148.5 t-33.5 203zM463 1851q10 14 27.5 24.5t37.5 10.5l240 -307q-12 -27 -49 -29z" />
<glyph unicode="&#xda;" horiz-adv-x="1357" d="M207 455v1013q2 0 8 2q12 4 27 5q14 0 26 -5q6 -2 8 -2v-1022q0 -195 106.5 -300t299.5 -105q190 0 295.5 105.5t105.5 299.5v1022q2 0 9 2q12 4 24 5q14 0 27 -5q6 -2 8 -2v-1013q0 -115 -34 -203t-96.5 -148.5t-149.5 -92t-193 -31.5t-193.5 31.5t-149 92t-95 148.5 t-33.5 203zM555 1583l240 307q43 0 65 -35l-256 -301q-37 2 -49 29z" />
<glyph unicode="&#xdb;" horiz-adv-x="1357" d="M207 455v1013q2 0 8 2q12 4 27 5q14 0 26 -5q6 -2 8 -2v-1022q0 -195 106.5 -300t299.5 -105q190 0 295.5 105.5t105.5 299.5v1022q2 0 9 2q12 4 24 5q14 0 27 -5q6 -2 8 -2v-1013q0 -115 -34 -203t-96.5 -148.5t-149.5 -92t-193 -31.5t-193.5 31.5t-149 92t-95 148.5 t-33.5 203zM401 1622l254 207h54l252 -207q-6 -35 -33 -41l-248 184l-244 -186q-29 12 -35 43z" />
<glyph unicode="&#xdc;" horiz-adv-x="1357" d="M207 455v1013q2 0 8 2q12 4 27 5q14 0 26 -5q6 -2 8 -2v-1022q0 -195 106.5 -300t299.5 -105q190 0 295.5 105.5t105.5 299.5v1022q2 0 9 2q12 4 24 5q14 0 27 -5q6 -2 8 -2v-1013q0 -115 -34 -203t-96.5 -148.5t-149.5 -92t-193 -31.5t-193.5 31.5t-149 92t-95 148.5 t-33.5 203zM481 1542v86q4 0 13 2q16 4 36 4t37 -4q8 -2 13 -2v-86q-4 -2 -13 -4q-8 -2 -37 -2t-36 2q-8 2 -13 4zM770 1542v86q4 0 12 2q16 4 37 4q20 0 37 -4q8 -2 12 -2v-86q-4 -2 -12 -4t-37 -2t-37 2t-12 4z" />
<glyph unicode="&#xdd;" horiz-adv-x="1257" d="M57 1468q2 0 11 2q12 4 32 5q18 0 31 -5q6 -2 10 -2l486 -768l501 768q2 0 9 2q12 4 30 5q20 0 33 -5q6 -2 10 -2l-548 -843v-619q-2 -2 -9 -4q-6 -2 -26 -2t-27 2q-6 2 -8 4v617zM526 1583l240 307q43 0 65 -35l-256 -301q-37 2 -49 29z" />
<glyph unicode="&#xde;" horiz-adv-x="1226" d="M217 6v1462q2 0 8 2q4 2 10.5 3.5t16.5 1.5q14 0 27 -5q6 -2 8 -2v-299h426q94 0 167.5 -29.5t125 -82.5t78 -129t26.5 -168t-26.5 -167t-78 -128t-125 -83t-167.5 -30h-426v-346q-2 -2 -8 -4t-27 -2q-20 0 -27 2q-6 2 -8 4zM287 418h428q154 0 237.5 90t83.5 250 q0 164 -84 255t-237 91h-428v-686z" />
<glyph unicode="&#xdf;" horiz-adv-x="1165" d="M186 6v1133q0 205 100.5 301t299.5 96q98 0 166.5 -30.5t112.5 -80t64.5 -112t20.5 -125.5q0 -45 -7 -80t-15 -61q-8 -31 -21 -56q-74 -2 -129 -24q-49 -18 -89 -58.5t-40 -117.5q0 -57 31 -95.5t77 -69t100 -59t100.5 -68.5t77 -96.5t30.5 -142.5q0 -125 -81 -202.5 t-241 -77.5q-53 0 -91 5t-62 11q-29 8 -49 18q-4 35 18 52q29 -10 81 -17.5t93 -7.5q74 0 124 17.5t81 47t44 68.5t13 82q0 76 -30.5 125t-76.5 85t-100.5 63.5t-100.5 61.5t-76.5 80t-30.5 117q0 92 43 143.5t96 78.5q61 29 139 37l10 40q4 18 7.5 44t3.5 57 q0 55 -15.5 107.5t-51.5 92t-92 63.5t-136 24q-90 0 -153.5 -24t-103.5 -67t-57.5 -105t-17.5 -140v-1133l-8 -4q-6 -2 -25 -2q-23 0 -26 2q-6 2 -7 4z" />
<glyph unicode="&#xe0;" horiz-adv-x="1044" d="M109 289q0 145 90 229t286 84q111 0 197 -8t119 -12v159q0 164 -72 230.5t-213 66.5q-61 0 -116.5 -9t-96.5 -19q-49 -12 -90 -27q-27 20 -23 55q47 16 101 29q47 10 107.5 20.5t125.5 10.5q109 0 176.5 -29t104.5 -84t49 -137t12 -186v-656q-2 -2 -6 -4t-20 -2t-21 2 q-4 2 -6 4l-12 184v3q-47 -104 -144.5 -158.5t-230.5 -54.5q-141 0 -229 80.5t-88 228.5zM178 289q0 -127 69.5 -187.5t186.5 -60.5q78 0 145.5 26.5t116.5 76t77 121t28 161.5v96q-33 4 -120 12.5t-183 8.5q-166 0 -243 -62.5t-77 -191.5zM317 1532q10 14 27.5 24.5 t38.5 10.5l240 -307q-12 -27 -50 -29z" />
<glyph unicode="&#xe1;" horiz-adv-x="1044" d="M109 289q0 145 90 229t286 84q111 0 197 -8t119 -12v159q0 164 -72 230.5t-213 66.5q-61 0 -116.5 -9t-96.5 -19q-49 -12 -90 -27q-27 20 -23 55q47 16 101 29q47 10 107.5 20.5t125.5 10.5q109 0 176.5 -29t104.5 -84t49 -137t12 -186v-656q-2 -2 -6 -4t-20 -2t-21 2 q-4 2 -6 4l-12 184v3q-47 -104 -144.5 -158.5t-230.5 -54.5q-141 0 -229 80.5t-88 228.5zM178 289q0 -127 69.5 -187.5t186.5 -60.5q78 0 145.5 26.5t116.5 76t77 121t28 161.5v96q-33 4 -120 12.5t-183 8.5q-166 0 -243 -62.5t-77 -191.5zM381 1278l240 307q43 0 65 -35 l-256 -301q-37 2 -49 29z" />
<glyph unicode="&#xe2;" horiz-adv-x="1044" d="M109 289q0 145 90 229t286 84q111 0 197 -8t119 -12v159q0 164 -72 230.5t-213 66.5q-61 0 -116.5 -9t-96.5 -19q-49 -12 -90 -27q-27 20 -23 55q47 16 101 29q47 10 107.5 20.5t125.5 10.5q109 0 176.5 -29t104.5 -84t49 -137t12 -186v-656q-2 -2 -6 -4t-20 -2t-21 2 q-4 2 -6 4l-12 184v3q-47 -104 -144.5 -158.5t-230.5 -54.5q-141 0 -229 80.5t-88 228.5zM178 289q0 -127 69.5 -187.5t186.5 -60.5q78 0 145.5 26.5t116.5 76t77 121t28 161.5v96q-33 4 -120 12.5t-183 8.5q-166 0 -243 -62.5t-77 -191.5zM242 1274l247 203h52l247 -203 q-8 -33 -32 -39l-242 180l-240 -182q-27 10 -32 41z" />
<glyph unicode="&#xe3;" horiz-adv-x="1044" d="M109 289q0 145 90 229t286 84q111 0 197 -8t119 -12v159q0 164 -72 230.5t-213 66.5q-61 0 -116.5 -9t-96.5 -19q-49 -12 -90 -27q-27 20 -23 55q47 16 101 29q47 10 107.5 20.5t125.5 10.5q109 0 176.5 -29t104.5 -84t49 -137t12 -186v-656q-2 -2 -6 -4t-20 -2t-21 2 q-4 2 -6 4l-12 184v3q-47 -104 -144.5 -158.5t-230.5 -54.5q-141 0 -229 80.5t-88 228.5zM178 289q0 -127 69.5 -187.5t186.5 -60.5q78 0 145.5 26.5t116.5 76t77 121t28 161.5v96q-33 4 -120 12.5t-183 8.5q-166 0 -243 -62.5t-77 -191.5zM279 1327q12 27 32 49 q16 18 43 33.5t68 15.5q37 0 64.5 -11t52 -25.5t49 -25.5t53.5 -11q23 0 37 9t24 19q10 12 19 31q35 4 53 -22q-12 -27 -33 -50q-16 -18 -43.5 -32.5t-66.5 -14.5q-37 0 -64.5 11.5t-52.5 25.5t-49.5 25.5t-52.5 11.5q-23 0 -37.5 -10t-24.5 -21q-10 -14 -18 -30 q-39 -4 -53 22z" />
<glyph unicode="&#xe4;" horiz-adv-x="1044" d="M109 289q0 145 90 229t286 84q111 0 197 -8t119 -12v159q0 164 -72 230.5t-213 66.5q-61 0 -116.5 -9t-96.5 -19q-49 -12 -90 -27q-27 20 -23 55q47 16 101 29q47 10 107.5 20.5t125.5 10.5q109 0 176.5 -29t104.5 -84t49 -137t12 -186v-656q-2 -2 -6 -4t-20 -2t-21 2 q-4 2 -6 4l-12 184v3q-47 -104 -144.5 -158.5t-230.5 -54.5q-141 0 -229 80.5t-88 228.5zM178 289q0 -127 69.5 -187.5t186.5 -60.5q78 0 145.5 26.5t116.5 76t77 121t28 161.5v96q-33 4 -120 12.5t-183 8.5q-166 0 -243 -62.5t-77 -191.5zM322 1321v86q4 0 12 2q16 4 37 4 q20 0 37 -4q8 -2 12 -2v-86q-4 -2 -12 -4t-37 -2t-37 2t-12 4zM610 1321v86q4 0 13 2q16 4 36 4t37 -4q8 -2 13 -2v-86q-4 -2 -13 -4q-8 -2 -37 -2t-36 2q-8 2 -13 4z" />
<glyph unicode="&#xe5;" horiz-adv-x="1044" d="M109 289q0 145 90 229t286 84q111 0 197 -8t119 -12v159q0 164 -72 230.5t-213 66.5q-61 0 -116.5 -9t-96.5 -19q-49 -12 -90 -27q-27 20 -23 55q47 16 101 29q47 10 107.5 20.5t125.5 10.5q109 0 176.5 -29t104.5 -84t49 -137t12 -186v-656q-2 -2 -6 -4t-20 -2t-21 2 q-4 2 -6 4l-12 184v3q-47 -104 -144.5 -158.5t-230.5 -54.5q-141 0 -229 80.5t-88 228.5zM178 289q0 -127 69.5 -187.5t186.5 -60.5q78 0 145.5 26.5t116.5 76t77 121t28 161.5v96q-33 4 -120 12.5t-183 8.5q-166 0 -243 -62.5t-77 -191.5zM291 1436q0 51 19.5 91t51 67.5 t73.5 41t85 13.5t85 -13.5t74 -40t52.5 -66.5t20.5 -93t-18.5 -93t-50.5 -68t-75 -42t-90 -14q-98 0 -162.5 56t-64.5 161zM356 1436q0 -59 39 -108.5t123 -49.5t126 49.5t42 108.5t-41 106t-127 47q-84 0 -123 -47t-39 -106z" />
<glyph unicode="&#xe6;" horiz-adv-x="1595" d="M109 289q0 145 83.5 226t272.5 81h295v145q0 164 -65.5 230.5t-198.5 66.5q-59 0 -109.5 -9t-89.5 -19q-45 -12 -84 -27q-27 20 -23 55q43 16 95 29q43 10 99 20.5t120 10.5q139 0 213 -59.5t96 -172.5q43 119 128 175.5t200 56.5q86 0 149.5 -29t104.5 -79t61.5 -119.5 t20.5 -149.5q0 -41 -4.5 -75t-8.5 -58q-6 -29 -10 -53h-625q10 -250 88 -370t232 -120q59 0 104 11.5t76 27.5q35 18 60 41q31 -16 34 -51q-29 -27 -69 -47q-35 -18 -88.5 -32.5t-124.5 -14.5q-129 0 -217 71.5t-127 212.5q-35 -137 -136.5 -210.5t-254.5 -73.5 q-135 0 -216 80.5t-81 228.5zM178 289q0 -127 63.5 -187.5t172.5 -60.5q74 0 137 26.5t109.5 76t73 121t26.5 161.5v109h-283q-158 0 -228.5 -58.5t-70.5 -187.5zM829 596h568q2 10 4 31q2 16 4 41.5t2 62.5q0 61 -14.5 116.5t-45 97.5t-82 66.5t-124.5 24.5 q-63 0 -118.5 -23.5t-97.5 -76.5t-68 -137t-28 -203z" />
<glyph unicode="&#xe7;" horiz-adv-x="911" d="M133 539q0 274 110.5 416.5t313.5 142.5q59 0 102 -7.5t74 -17.5q35 -10 62 -22q0 -39 -25 -58q-23 12 -53 21q-27 8 -63 14t-83 6q-190 0 -279 -125t-89 -370q0 -248 92 -370t285 -122q49 0 87 6t66 17q33 10 58 24q25 -16 28 -55q-31 -18 -69 -31q-35 -10 -83.5 -19 t-109.5 -9h-25l-38 -138q119 0 172 -42t53 -119q0 -92 -56.5 -142.5t-168.5 -50.5q-39 0 -71 6t-54 17q-27 10 -50 24q2 29 23 45q20 -10 43 -18q20 -8 48 -13.5t63 -5.5q76 0 116.5 35t40.5 103q0 55 -37.5 82.5t-109.5 27.5h-62l-14 16l51 179q-174 29 -261 168t-87 385z " />
<glyph unicode="&#xe8;" horiz-adv-x="1040" d="M133 545q0 145 31 249.5t87 172t133 99.5t169 32t160.5 -29t114.5 -79t69 -119.5t23 -149.5q0 -47 -4.5 -85t-8.5 -65q-6 -31 -10 -55h-694q8 -250 97 -359.5t267 -109.5q63 0 112.5 12.5t84.5 28.5q39 18 67 41q31 -18 35 -55q-33 -27 -80 -47q-41 -18 -101 -32.5 t-138 -14.5q-201 0 -307.5 142t-106.5 423zM203 578h635q2 18 6 40q2 20 4 48t2 65q0 61 -16.5 116.5t-52.5 97.5t-92 66.5t-136 24.5q-156 0 -250 -109.5t-100 -348.5zM346 1550q10 14 27.5 24.5t38.5 10.5l239 -307q-12 -27 -49 -29z" />
<glyph unicode="&#xe9;" horiz-adv-x="1040" d="M133 545q0 145 31 249.5t87 172t133 99.5t169 32t160.5 -29t114.5 -79t69 -119.5t23 -149.5q0 -47 -4.5 -85t-8.5 -65q-6 -31 -10 -55h-694q8 -250 97 -359.5t267 -109.5q63 0 112.5 12.5t84.5 28.5q39 18 67 41q31 -18 35 -55q-33 -27 -80 -47q-41 -18 -101 -32.5 t-138 -14.5q-201 0 -307.5 142t-106.5 423zM203 578h635q2 18 6 40q2 20 4 48t2 65q0 61 -16.5 116.5t-52.5 97.5t-92 66.5t-136 24.5q-156 0 -250 -109.5t-100 -348.5zM399 1278l240 307q43 0 66 -35l-256 -301q-37 2 -50 29z" />
<glyph unicode="&#xea;" horiz-adv-x="1040" d="M133 545q0 145 31 249.5t87 172t133 99.5t169 32t160.5 -29t114.5 -79t69 -119.5t23 -149.5q0 -47 -4.5 -85t-8.5 -65q-6 -31 -10 -55h-694q8 -250 97 -359.5t267 -109.5q63 0 112.5 12.5t84.5 28.5q39 18 67 41q31 -18 35 -55q-33 -27 -80 -47q-41 -18 -101 -32.5 t-138 -14.5q-201 0 -307.5 142t-106.5 423zM203 578h635q2 18 6 40q2 20 4 48t2 65q0 61 -16.5 116.5t-52.5 97.5t-92 66.5t-136 24.5q-156 0 -250 -109.5t-100 -348.5zM279 1274l247 203h52l247 -203q-8 -33 -32 -39l-242 180l-240 -182q-27 10 -32 41z" />
<glyph unicode="&#xeb;" horiz-adv-x="1040" d="M133 545q0 145 31 249.5t87 172t133 99.5t169 32t160.5 -29t114.5 -79t69 -119.5t23 -149.5q0 -47 -4.5 -85t-8.5 -65q-6 -31 -10 -55h-694q8 -250 97 -359.5t267 -109.5q63 0 112.5 12.5t84.5 28.5q39 18 67 41q31 -18 35 -55q-33 -27 -80 -47q-41 -18 -101 -32.5 t-138 -14.5q-201 0 -307.5 142t-106.5 423zM203 578h635q2 18 6 40q2 20 4 48t2 65q0 61 -16.5 116.5t-52.5 97.5t-92 66.5t-136 24.5q-156 0 -250 -109.5t-100 -348.5zM360 1321v86q4 0 13 2q16 4 37 4q20 0 36 -4q8 -2 13 -2v-86q-4 -2 -13 -4q-8 -2 -36 -2q-29 0 -37 2 t-13 4zM649 1321v86q4 0 13 2q16 4 36 4t37 -4q8 -2 13 -2v-86q-4 -2 -13 -4q-8 -2 -37 -2t-36 2q-8 2 -13 4z" />
<glyph unicode="&#xec;" horiz-adv-x="450" d="M20 1554q10 14 28 24.5t38 10.5l240 -307q-12 -27 -50 -29zM193 6v1065l6 2q8 4 26 4q10 0 15.5 -1t9.5 -3t8 -2v-1065l-8 -4q-6 -2 -25 -2q-23 0 -26 2q-6 2 -6 4z" />
<glyph unicode="&#xed;" horiz-adv-x="450" d="M104 1278l240 307q43 0 66 -35l-256 -301q-37 2 -50 29zM193 6v1065l6 2q8 4 26 4q10 0 15.5 -1t9.5 -3t8 -2v-1065l-8 -4q-6 -2 -25 -2q-23 0 -26 2q-6 2 -6 4z" />
<glyph unicode="&#xee;" horiz-adv-x="454" d="M-43 1274l248 203h51l248 -203q-8 -33 -33 -39l-242 180l-239 -182q-27 10 -33 41zM195 6v1065l6 2q8 4 26 4q10 0 15.5 -1t9.5 -3t8 -2v-1065l-8 -4q-6 -2 -25 -2q-23 0 -26 2q-6 2 -6 4z" />
<glyph unicode="&#xef;" horiz-adv-x="454" d="M29 1239v86q4 0 12 2q16 4 37 4q20 0 37 -4q8 -2 12 -2v-86q-4 -2 -12 -4t-37 -2t-37 2t-12 4zM195 6v1065l6 2q8 4 26 4q10 0 15.5 -1t9.5 -3t8 -2v-1065l-8 -4q-6 -2 -25 -2q-23 0 -26 2q-6 2 -6 4zM317 1239v86q4 0 13 2q16 4 37 4q20 0 36 -4q8 -2 13 -2v-86 q-4 -2 -13 -4q-8 -2 -36 -2q-29 0 -37 2t-13 4z" />
<glyph unicode="&#xf0;" horiz-adv-x="1130" d="M135 516q0 143 29 245.5t82 167t126.5 94.5t164.5 30q141 0 232 -57.5t138 -151.5q-25 141 -91 263t-173 212l-278 -176q-16 8 -24.5 22.5t-10.5 30.5l260 164q-129 88 -295 121q-6 35 14 55q190 -37 336 -139l150 94q31 -16 34 -53l-131 -82q137 -117 214 -298t77 -429 q0 -184 -29.5 -309t-85 -201t-136.5 -107.5t-183 -31.5q-96 0 -174 29.5t-132 94t-84 167t-30 245.5zM205 516q0 -135 25.5 -226t71.5 -147.5t110.5 -80t142.5 -23.5t142.5 23.5t111.5 80t73.5 147.5t26.5 226q0 137 -27.5 228.5t-76.5 146.5t-118 77.5t-148 22.5 q-78 0 -139.5 -23.5t-104.5 -78.5t-66.5 -146.5t-23.5 -226.5z" />
<glyph unicode="&#xf1;" horiz-adv-x="1122" d="M186 6v1065q2 0 9 2q4 2 9 3t15 1q12 0 25 -4q6 -2 8 -2v-180q63 98 159.5 152.5t223.5 54.5q145 0 227 -82t82 -221v-789q-2 -2 -8 -4t-25 -2q-18 0 -24 2t-8 4v772q0 135 -68 197.5t-197 62.5q-109 0 -209 -70.5t-153 -197.5v-764q-2 -2 -8 -4t-25 -2q-18 0 -24 2t-9 4 zM326 1327q12 27 32 49q16 18 43 33.5t68 15.5q37 0 64.5 -11t52 -25.5t49 -25.5t53.5 -11q23 0 37 9t25 19q10 12 18 31q35 4 53 -22q-12 -27 -33 -50q-16 -18 -43.5 -32.5t-66.5 -14.5q-37 0 -64.5 11.5t-52 25.5t-49.5 25.5t-53 11.5q-23 0 -37 -10t-25 -21 q-10 -14 -18 -30q-39 -4 -53 22z" />
<glyph unicode="&#xf2;" horiz-adv-x="1101" d="M135 539q0 152 27.5 258t82 172.5t131.5 97.5t175 31t175 -31t131 -97.5t82 -173t28 -257.5q0 -152 -28 -258.5t-82 -173t-131 -97t-175 -30.5t-175 30.5t-131.5 97t-82 173t-27.5 258.5zM205 539q0 -143 24.5 -238.5t68.5 -154t108.5 -83t144.5 -24.5t144.5 24.5 t108.5 83t68.5 153.5t24.5 239q0 143 -24.5 238t-68.5 153.5t-108.5 83t-144.5 24.5t-144.5 -24.5t-108.5 -83t-68.5 -153.5t-24.5 -238zM289 1550q10 14 27.5 24.5t37.5 10.5l240 -307q-12 -27 -49 -29z" />
<glyph unicode="&#xf3;" horiz-adv-x="1101" d="M135 539q0 152 27.5 258t82 172.5t131.5 97.5t175 31t175 -31t131 -97.5t82 -173t28 -257.5q0 -152 -28 -258.5t-82 -173t-131 -97t-175 -30.5t-175 30.5t-131.5 97t-82 173t-27.5 258.5zM205 539q0 -143 24.5 -238.5t68.5 -154t108.5 -83t144.5 -24.5t144.5 24.5 t108.5 83t68.5 153.5t24.5 239q0 143 -24.5 238t-68.5 153.5t-108.5 83t-144.5 24.5t-144.5 -24.5t-108.5 -83t-68.5 -153.5t-24.5 -238zM393 1278l240 307q43 0 65 -35l-256 -301q-37 2 -49 29z" />
<glyph unicode="&#xf4;" horiz-adv-x="1101" d="M135 539q0 152 27.5 258t82 172.5t131.5 97.5t175 31t175 -31t131 -97.5t82 -173t28 -257.5q0 -152 -28 -258.5t-82 -173t-131 -97t-175 -30.5t-175 30.5t-131.5 97t-82 173t-27.5 258.5zM205 539q0 -143 24.5 -238.5t68.5 -154t108.5 -83t144.5 -24.5t144.5 24.5 t108.5 83t68.5 153.5t24.5 239q0 143 -24.5 238t-68.5 153.5t-108.5 83t-144.5 24.5t-144.5 -24.5t-108.5 -83t-68.5 -153.5t-24.5 -238zM276 1274l248 203h51l248 -203q-8 -33 -32 -39l-242 180l-240 -182q-27 10 -33 41z" />
<glyph unicode="&#xf5;" horiz-adv-x="1101" d="M135 539q0 152 27.5 258t82 172.5t131.5 97.5t175 31t175 -31t131 -97.5t82 -173t28 -257.5q0 -152 -28 -258.5t-82 -173t-131 -97t-175 -30.5t-175 30.5t-131.5 97t-82 173t-27.5 258.5zM205 539q0 -143 24.5 -238.5t68.5 -154t108.5 -83t144.5 -24.5t144.5 24.5 t108.5 83t68.5 153.5t24.5 239q0 143 -24.5 238t-68.5 153.5t-108.5 83t-144.5 24.5t-144.5 -24.5t-108.5 -83t-68.5 -153.5t-24.5 -238zM311 1327q12 27 33 49q16 18 43 33.5t68 15.5q37 0 64.5 -11t52 -25.5t49 -25.5t53.5 -11q23 0 37 9t24 19q10 12 19 31q35 4 53 -22 q-12 -27 -33 -50q-16 -18 -44 -32.5t-66 -14.5q-37 0 -65 11.5t-52.5 25.5t-49 25.5t-53.5 11.5q-23 0 -37 -10t-24 -21q-10 -14 -18 -30q-39 -4 -54 22z" />
<glyph unicode="&#xf6;" horiz-adv-x="1101" d="M135 539q0 152 27.5 258t82 172.5t131.5 97.5t175 31t175 -31t131 -97.5t82 -173t28 -257.5q0 -152 -28 -258.5t-82 -173t-131 -97t-175 -30.5t-175 30.5t-131.5 97t-82 173t-27.5 258.5zM205 539q0 -143 24.5 -238.5t68.5 -154t108.5 -83t144.5 -24.5t144.5 24.5 t108.5 83t68.5 153.5t24.5 239q0 143 -24.5 238t-68.5 153.5t-108.5 83t-144.5 24.5t-144.5 -24.5t-108.5 -83t-68.5 -153.5t-24.5 -238zM358 1321v86q4 0 13 2q16 4 37 4q20 0 36 -4q8 -2 13 -2v-86q-4 -2 -13 -4q-8 -2 -36 -2q-29 0 -37 2t-13 4zM647 1321v86q4 0 12 2 q16 4 37 4q20 0 37 -4q8 -2 12 -2v-86q-4 -2 -12 -4t-37 -2t-37 2t-12 4z" />
<glyph unicode="&#xf7;" horiz-adv-x="1153" d="M180 594q0 20 2 24t4 7h781q0 -2 2 -7q4 -8 4 -24t-4 -25q-2 -4 -2 -6h-781q-2 2 -4 6t-2 25zM528 221v86q4 0 13 2q16 4 37 4q20 0 36 -4q8 -2 13 -2v-86q-4 -2 -13 -4q-8 -2 -36 -2q-29 0 -37 2t-13 4zM528 881v86q4 0 13 2q16 4 37 4q20 0 36 -4q8 -2 13 -2v-86 q-4 -2 -13 -4q-8 -2 -36 -3q-29 0 -37 3q-8 2 -13 4z" />
<glyph unicode="&#xf8;" horiz-adv-x="1099" d="M135 539q0 152 27.5 258t82 172.5t131.5 97.5t175 31q152 0 250 -72l71 131q2 0 9 2q4 2 11 3t19 1q14 0 27 -4q6 -2 8 -2l-98 -176q59 -66 89 -174.5t30 -267.5q0 -152 -28 -258.5t-82 -173t-131 -97t-175 -30.5q-133 0 -227 57l-72 -131q-2 -2 -8 -4t-31 -2 q-20 0 -27 2q-6 2 -8 4l94 170q-66 66 -101.5 178.5t-35.5 284.5zM205 539q0 -150 26.5 -247t73.5 -157l463 834q-43 37 -97 53t-120 16q-80 0 -144.5 -24.5t-108.5 -83t-68.5 -153.5t-24.5 -238zM354 92q41 -29 90.5 -41t106.5 -12q80 0 144.5 24.5t108.5 83t68.5 153.5 t24.5 239q0 135 -21.5 227t-62.5 152z" />
<glyph unicode="&#xf9;" horiz-adv-x="1122" d="M178 283v788q2 0 8 2q4 2 9.5 3t15.5 1q12 0 25 -4q6 -2 8 -2v-772q0 -135 67.5 -197.5t196.5 -62.5q53 0 106.5 18.5t101.5 52t88 84t66 113.5v764q2 0 9 2q4 2 9 3t15 1q12 0 25 -4q6 -2 8 -2v-1065q-2 -2 -8 -4t-25 -2q-18 0 -24 2t-9 4v180q-66 -96 -162 -151 t-221 -55q-145 0 -227 81.5t-82 221.5zM350 1550q10 14 27.5 24.5t38.5 10.5l239 -307q-12 -27 -49 -29z" />
<glyph unicode="&#xfa;" horiz-adv-x="1122" d="M178 283v788q2 0 8 2q4 2 9.5 3t15.5 1q12 0 25 -4q6 -2 8 -2v-772q0 -135 67.5 -197.5t196.5 -62.5q53 0 106.5 18.5t101.5 52t88 84t66 113.5v764q2 0 9 2q4 2 9 3t15 1q12 0 25 -4q6 -2 8 -2v-1065q-2 -2 -8 -4t-25 -2q-18 0 -24 2t-9 4v180q-66 -96 -162 -151 t-221 -55q-145 0 -227 81.5t-82 221.5zM420 1278l239 307q43 0 66 -35l-256 -301q-37 2 -49 29z" />
<glyph unicode="&#xfb;" horiz-adv-x="1122" d="M178 283v788q2 0 8 2q4 2 9.5 3t15.5 1q12 0 25 -4q6 -2 8 -2v-772q0 -135 67.5 -197.5t196.5 -62.5q53 0 106.5 18.5t101.5 52t88 84t66 113.5v764q2 0 9 2q4 2 9 3t15 1q12 0 25 -4q6 -2 8 -2v-1065q-2 -2 -8 -4t-25 -2q-18 0 -24 2t-9 4v180q-66 -96 -162 -151 t-221 -55q-145 0 -227 81.5t-82 221.5zM283 1274l247 203h52l247 -203q-8 -33 -32 -39l-242 180l-240 -182q-27 10 -32 41z" />
<glyph unicode="&#xfc;" horiz-adv-x="1122" d="M178 283v788q2 0 8 2q4 2 9.5 3t15.5 1q12 0 25 -4q6 -2 8 -2v-772q0 -135 67.5 -197.5t196.5 -62.5q53 0 106.5 18.5t101.5 52t88 84t66 113.5v764q2 0 9 2q4 2 9 3t15 1q12 0 25 -4q6 -2 8 -2v-1065q-2 -2 -8 -4t-25 -2q-18 0 -24 2t-9 4v180q-66 -96 -162 -151 t-221 -55q-145 0 -227 81.5t-82 221.5zM371 1321v86q4 0 12 2q16 4 37 4q20 0 37 -4q8 -2 12 -2v-86q-4 -2 -12 -4t-37 -2t-37 2t-12 4zM659 1321v86q4 0 13 2q16 4 37 4q20 0 36 -4q8 -2 13 -2v-86q-4 -2 -13 -4q-8 -2 -36 -2q-29 0 -37 2t-13 4z" />
<glyph unicode="&#xfd;" horiz-adv-x="1062" d="M66 1071q2 0 8 2q12 4 28 4q14 0 27 -4q6 -2 10 -2l340 -815q33 -80 53 -135q10 -31 21 -55h6q8 23 19 53q10 25 20 59.5t27 75.5l299 817q2 0 8 2q4 2 10 3t16 1q16 0 29 -4q6 -2 8 -2l-487 -1331q-41 -117 -94.5 -184.5t-151.5 -67.5q-43 0 -67 6q-14 2 -27 6 q-6 12 -6 29q0 20 8 31q10 -4 23 -6q10 -2 26.5 -3.5t36.5 -1.5q59 0 102 47.5t86 165.5l88 240q-6 4 -13 7t-13 7zM397 1278l240 307q43 0 65 -35l-256 -301q-37 2 -49 29z" />
<glyph unicode="&#xfe;" horiz-adv-x="1134" d="M186 -506v2036l7 2q8 4 26 4q10 0 15.5 -1t9.5 -3t8 -2v-631q47 92 128 145.5t214 53.5q94 0 169 -29t127 -94.5t79.5 -173t27.5 -262.5q0 -158 -27.5 -264.5t-79.5 -172t-127 -94t-169 -28.5q-133 0 -214 53t-128 145v-684l-8 -4q-6 -2 -25 -2q-23 0 -26 2q-6 2 -7 4z M252 410q0 -63 20.5 -129t61.5 -119t101.5 -87t142.5 -34q188 0 269 117.5t81 380.5q0 262 -81 379.5t-269 117.5q-80 0 -140.5 -32.5t-101.5 -84t-61.5 -115t-22.5 -124.5v-270z" />
<glyph unicode="&#xff;" horiz-adv-x="1062" d="M66 1071q2 0 8 2q12 4 28 4q14 0 27 -4q6 -2 10 -2l340 -815q33 -80 53 -135q10 -31 21 -55h6q8 23 19 53q10 25 20 59.5t27 75.5l299 817q2 0 8 2q4 2 10 3t16 1q16 0 29 -4q6 -2 8 -2l-487 -1331q-41 -117 -94.5 -184.5t-151.5 -67.5q-43 0 -67 6q-14 2 -27 6 q-6 12 -6 29q0 20 8 31q10 -4 23 -6q10 -2 26.5 -3.5t36.5 -1.5q59 0 102 47.5t86 165.5l88 240q-6 4 -13 7t-13 7zM332 1300v86q4 0 12 3q16 4 37 4q20 0 37 -4l12 -3v-86q-4 -2 -12 -4t-37 -2t-37 2t-12 4zM621 1300v86q4 0 12 3q16 4 37 4q20 0 37 -4l12 -3v-86 q-4 -2 -12 -4t-37 -2t-37 2t-12 4z" />
<glyph unicode="&#x152;" horiz-adv-x="1695" d="M152 737q0 199 38.5 342.5t111.5 235.5t177.5 136t235.5 44q53 0 99 -7t75 -13h674q6 -12 6 -33q0 -20 -6 -33h-617v-629h514q6 -12 6 -30t-6 -33h-514v-651h637q6 -16 6 -31q0 -20 -6 -35h-696q-29 -8 -72 -14t-100 -6q-131 0 -235.5 44t-177.5 136t-111.5 235.5 t-38.5 341.5zM225 737q0 -188 35 -320t98.5 -216t154.5 -122t202 -38q51 0 93 8t69 19v1341q-29 10 -69 17.5t-93 7.5q-111 0 -202 -38t-154.5 -122t-98.5 -216.5t-35 -320.5z" />
<glyph unicode="&#x153;" horiz-adv-x="1705" d="M137 539q0 152 26.5 258t79 172.5t127 97.5t171.5 31q141 0 226 -66.5t126 -220.5q45 150 133 218.5t211 68.5q88 0 152.5 -29t107.5 -79t64.5 -119.5t21.5 -149.5q0 -47 -4 -85t-8 -65q-6 -31 -10 -55h-633q4 -125 24.5 -214t60.5 -146.5t98 -84t140 -26.5 q55 0 100.5 11.5t78.5 27.5q37 18 65 41q31 -16 35 -51q-31 -27 -74 -47q-37 -18 -93 -32.5t-132 -14.5q-256 0 -340 286q-41 -154 -125 -220t-225 -66q-96 0 -171 30.5t-127.5 97t-79 173t-26.5 258.5zM207 539q0 -143 23.5 -238.5t66.5 -154t104.5 -83t139.5 -24.5 t136 25.5t98 84t59.5 154.5t19.5 240q0 143 -19.5 238.5t-59.5 152.5t-98 80.5t-136 23.5t-139.5 -24.5t-104.5 -83t-66.5 -153.5t-23.5 -238zM928 578h573q2 18 6 40q2 20 4 48t2 65q0 61 -15 116.5t-48 97.5t-85 66.5t-128 24.5q-139 0 -221 -109.5t-88 -348.5z" />
<glyph unicode="&#x178;" horiz-adv-x="1257" d="M57 1468q2 0 11 2q12 4 32 5q18 0 31 -5q6 -2 10 -2l486 -768l501 768q2 0 9 2q12 4 30 5q20 0 33 -5q6 -2 10 -2l-548 -843v-619q-2 -2 -9 -4q-6 -2 -26 -2t-27 2q-6 2 -8 4v617zM432 1585v86q4 0 12 2q16 4 37 4q20 0 37 -4q8 -2 12 -2v-86q-4 -2 -12 -4t-37 -2t-37 2 t-12 4zM721 1585v86q4 0 12 2q16 4 37 4q20 0 37 -4q8 -2 12 -2v-86q-4 -2 -12 -4t-37 -2t-37 2t-12 4z" />
<glyph unicode="&#x2c6;" horiz-adv-x="811" d="M125 1192l254 207h53l252 -207q-6 -35 -33 -41l-248 184l-243 -186q-29 12 -35 43z" />
<glyph unicode="&#x2dc;" horiz-adv-x="669" d="M113 1298q12 27 32 50q16 18 43 33.5t68 15.5q37 0 64.5 -11.5t52 -25.5t49 -25.5t53.5 -11.5q23 0 37 9t25 20q10 12 18 30q35 4 53 -22q-12 -27 -33 -49q-16 -18 -43.5 -32.5t-66.5 -14.5q-37 0 -64.5 11t-52 25.5t-49.5 25.5t-53 11q-23 0 -37 -10t-25 -20 q-10 -14 -18 -31q-39 -4 -53 22z" />
<glyph unicode="&#x2000;" horiz-adv-x="945" />
<glyph unicode="&#x2001;" horiz-adv-x="1890" />
<glyph unicode="&#x2002;" horiz-adv-x="945" />
<glyph unicode="&#x2003;" horiz-adv-x="1890" />
<glyph unicode="&#x2004;" horiz-adv-x="630" />
<glyph unicode="&#x2005;" horiz-adv-x="472" />
<glyph unicode="&#x2006;" horiz-adv-x="315" />
<glyph unicode="&#x2007;" horiz-adv-x="315" />
<glyph unicode="&#x2008;" horiz-adv-x="236" />
<glyph unicode="&#x2009;" horiz-adv-x="378" />
<glyph unicode="&#x200a;" horiz-adv-x="105" />
<glyph unicode="&#x2010;" horiz-adv-x="724" d="M172 594q0 20 2 24t4 7h369q0 -2 2 -7q4 -8 4 -24t-4 -25q-2 -4 -2 -6h-369q-2 2 -4 6t-2 25z" />
<glyph unicode="&#x2011;" horiz-adv-x="724" d="M172 594q0 20 2 24t4 7h369q0 -2 2 -7q4 -8 4 -24t-4 -25q-2 -4 -2 -6h-369q-2 2 -4 6t-2 25z" />
<glyph unicode="&#x2012;" horiz-adv-x="724" d="M172 594q0 20 2 24t4 7h369q0 -2 2 -7q4 -8 4 -24t-4 -25q-2 -4 -2 -6h-369q-2 2 -4 6t-2 25z" />
<glyph unicode="&#x2013;" horiz-adv-x="1155" d="M182 594q0 20 2 24t4 7h779q0 -2 2 -7q4 -8 4 -24t-4 -25q-2 -4 -2 -6h-779q-2 2 -4 6t-2 25z" />
<glyph unicode="&#x2014;" horiz-adv-x="1667" d="M182 594q0 20 2 24t4 7h1291q0 -2 2 -7q4 -8 4 -24t-4 -25q-2 -4 -2 -6h-1291q-2 2 -4 6t-2 25z" />
<glyph unicode="&#x2018;" horiz-adv-x="415" d="M152 1190v65q0 53 14 94.5t33 69.5q23 33 49 56l33 -25q-16 -18 -31 -43q-12 -23 -23.5 -53.5t-15.5 -71.5q10 -2 17.5 -2t11.5 -2q6 -2 10 -2v-86q-4 -2 -12 -4t-37 -2t-37 2t-12 4z" />
<glyph unicode="&#x2019;" horiz-adv-x="407" d="M143 1208q16 18 31 43q12 23 22.5 53.5t14.5 71.5q-23 0 -29 2t-8 4v86q4 0 12 2q16 4 37 5q20 0 37 -5q8 -2 12 -2v-65q0 -53 -15 -94t-34 -70q-23 -33 -47 -55z" />
<glyph unicode="&#x201a;" horiz-adv-x="405" d="M123 -168q16 18 31 43q12 23 22 53.5t14 71.5q-23 0 -28 2q-6 2 -8 4v86q4 0 12 2q16 4 37 4q20 0 37 -4q8 -2 12 -2v-65q0 -53 -15.5 -94.5t-33.5 -69.5q-23 -33 -47 -56z" />
<glyph unicode="&#x201c;" horiz-adv-x="620" d="M152 1190v65q0 53 14 94.5t33 69.5q23 33 49 56l33 -25q-16 -18 -31 -43q-12 -23 -23.5 -53.5t-15.5 -71.5q10 -2 17.5 -2t11.5 -2q6 -2 10 -2v-86q-4 -2 -12 -4t-37 -2t-37 2t-12 4zM356 1190v65q0 53 14.5 94.5t32.5 69.5q23 33 50 56l32 -25q-16 -18 -30 -43 q-12 -23 -23.5 -53.5t-15.5 -71.5q10 -2 17 -2t11 -2q6 -2 11 -2v-86q-4 -2 -13 -4q-8 -2 -36 -2q-29 0 -37 2t-13 4z" />
<glyph unicode="&#x201d;" horiz-adv-x="612" d="M143 1208q16 18 31 43q12 23 22.5 53.5t14.5 71.5q-23 0 -29 2t-8 4v86q4 0 12 2q16 4 37 5q20 0 37 -5q8 -2 12 -2v-65q0 -53 -15 -94t-34 -70q-23 -33 -47 -55zM348 1208q16 18 31 43q12 23 22.5 53.5t14.5 71.5q-23 0 -29 2t-8 4v86q4 0 12 2q16 4 37 5q20 0 37 -5 q8 -2 12 -2v-65q0 -53 -15.5 -94t-33.5 -70q-23 -33 -47 -55z" />
<glyph unicode="&#x201e;" horiz-adv-x="616" d="M123 -168q16 18 31 43q12 23 22 53.5t14 71.5q-23 0 -28 2q-6 2 -8 4v86q4 0 12 2q16 4 37 4q20 0 37 -4q8 -2 12 -2v-65q0 -53 -15.5 -94.5t-33.5 -69.5q-23 -33 -47 -56zM334 -168q16 18 31 43q12 23 22 53.5t14 71.5q-23 0 -28 2q-6 2 -8 4v86q4 0 12 2q16 4 37 4 q20 0 37 -4q8 -2 12 -2v-65q0 -53 -15.5 -94.5t-33.5 -69.5q-23 -33 -47 -56z" />
<glyph unicode="&#x2022;" horiz-adv-x="569" d="M221 578q0 29 18.5 46t45.5 17q29 0 46 -17t17 -46t-17.5 -45.5t-45.5 -16.5q-27 0 -45.5 16.5t-18.5 45.5z" />
<glyph unicode="&#x2026;" horiz-adv-x="1028" d="M162 6v86q4 0 12 2q16 4 37 4q20 0 37 -4q8 -2 12 -2v-86q-4 -2 -12 -4t-37 -2t-37 2t-12 4zM465 6v86q4 0 12 2q16 4 37 4q20 0 37 -4q8 -2 12 -2v-86q-4 -2 -12 -4t-37 -2t-37 2t-12 4zM768 6v86q4 0 12 2q16 4 37 4q20 0 37 -4q8 -2 12 -2v-86q-4 -2 -12 -4t-37 -2 t-37 2t-12 4z" />
<glyph unicode="&#x202f;" horiz-adv-x="378" />
<glyph unicode="&#x2039;" horiz-adv-x="696" d="M113 553q0 16 2 20l4 9l424 460q12 -6 19 -20t7 -31l-397 -438l397 -440q0 -39 -26 -52l-424 463l-4 8q-2 4 -2 21z" />
<glyph unicode="&#x203a;" horiz-adv-x="696" d="M127 113l397 440l-397 438q0 16 7 30.5t20 20.5l424 -460q0 -4 2 -9q4 -8 4 -20t-4 -21q-2 -4 -2 -8l-424 -463q-27 12 -27 52z" />
<glyph unicode="&#x205f;" horiz-adv-x="472" />
<glyph unicode="&#x20ac;" horiz-adv-x="1202" d="M123 504q-4 6 0 22q2 8 4 13.5t4 9.5t4 6h154q-2 31 -3 63.5t-1 67.5v67.5t4 69.5h-164q-2 2 -2 6q-4 6 0 23q2 8 4 13t4 9t4 7h160q29 256 143.5 384t325.5 128q78 0 133 -10.5t92 -20.5q43 -14 72 -31v-8q0 -12 -4 -20q-6 -14 -13 -17q-4 -4 -6 -4q-33 14 -71 25 q-35 10 -83 18t-110 8q-82 0 -150.5 -22.5t-121.5 -75.5t-88 -139t-49 -215h571q2 -2 2 -7v-22q-2 -10 -4 -14t-4 -9q-2 -4 -4 -6h-568q-2 -33 -3 -67.5t-1 -71.5v-67.5t4 -61.5h494q0 -2 2 -6q0 -4 1 -8t-1 -15q-2 -10 -4 -14l-4 -8t-4 -6h-480q14 -131 49 -219.5 t87.5 -140.5t122 -74.5t153.5 -22.5q66 0 119 7t90 18q43 10 76 26q2 -2 6 -4q8 -8 12 -16q4 -10 4 -21v-8q-31 -18 -77 -33q-41 -12 -100.5 -21t-139.5 -9q-211 0 -326.5 126.5t-144.5 391.5h-168q-2 2 -2 6z" />
<glyph unicode="&#x2122;" horiz-adv-x="1302" d="M100 1432q-10 27 0 43h416q12 -20 0 -43h-184v-541q-2 -2 -6 -4t-17 -2q-12 0 -16 2t-4 4v541h-189zM631 891v577q2 0 6 2q8 4 18 5q10 0 19 -5q4 -2 6 -2l190 -378l197 378q2 0 6 2q8 4 19 5q10 0 18 -5q4 -2 6 -2v-577l-4 -4q-4 -2 -14 -2q-12 0 -17 2q-4 2 -4 4v514 l-186 -356q-2 -2 -6 -5q-4 -2 -17 -2q-14 0 -18 2t-4 5l-178 356v-514l-4 -4q-4 -2 -15 -2q-12 0 -14 2q-4 2 -4 4z" />
<glyph unicode="&#x25fc;" horiz-adv-x="1075" d="M0 0v1075h1075v-1075h-1075z" />
</font>
</defs>
</svg>
